<svg width="146" height="147" viewBox="0 0 146 147" fill="none" xmlns="http://www.w3.org/2000/svg">
<path d="M20.3311 80.2201C20.3311 75.4164 24.2252 71.5223 29.0288 71.5223V71.5223C33.8324 71.5223 37.7265 75.4164 37.7265 80.2201V108.633H20.3311V80.2201Z" fill="#CCE4F5"/>
<path d="M42.3652 89.4973C42.3652 84.6937 46.2593 80.7996 51.0629 80.7996V80.7996C55.8666 80.7996 59.7607 84.6937 59.7607 89.4973V108.632H42.3652V89.4973Z" fill="#CCE4F5"/>
<path d="M64.3994 75.5809C64.3994 70.7773 68.2935 66.8832 73.0971 66.8832V66.8832C77.9007 66.8832 81.7948 70.7773 81.7948 75.5809V108.632H64.3994V75.5809Z" fill="#CCE4F5"/>
<path d="M86.4336 62.8247C86.4336 58.0211 90.3277 54.127 95.1313 54.127V54.127C99.9349 54.127 103.829 58.0211 103.829 62.8247V108.633H86.4336V62.8247Z" fill="#97CDF4"/>
<path d="M108.468 103.414C108.468 98.6102 112.362 94.7161 117.165 94.7161V94.7161C121.969 94.7161 125.863 98.6102 125.863 103.414V108.632H108.468V103.414Z" fill="#CCE4F5"/>
<path d="M52.8027 119H93.4955" stroke="#6EC1C5"/>
<path d="M60.7028 122.133H64.2588V132.255H60.7028V130.785H62.7188V123.603H60.7028V122.133ZM60.9128 125.017H63.7268V126.431H60.9128V125.017ZM64.6368 124.499H72.4908V125.871H64.6368V124.499ZM64.6088 130.239H72.5048V131.611H64.6088V130.239ZM64.2168 132.941H72.7288V134.383H64.2168V132.941ZM64.4128 127.257H72.7288V128.713H64.4128V127.257ZM60.9128 127.887H63.7268V129.301H60.9128V127.887ZM60.0168 122.133H61.5288V133.403H60.0168V122.133ZM67.7168 123.057H69.2568V133.781H67.7168V123.057ZM65.4068 125.101H66.7508V130.799H65.4068V125.101ZM70.2788 125.101H71.6648V130.799H70.2788V125.101ZM71.2308 121.531L72.3508 122.763C70.3208 123.295 67.4788 123.533 65.0568 123.589C65.0148 123.225 64.8188 122.637 64.6508 122.287C66.9888 122.189 69.6488 121.937 71.2308 121.531ZM74.7588 122.119H78.3708V132.283H74.7588V130.799H76.8168V123.603H74.7588V122.119ZM74.9408 125.003H77.8108V126.417H74.9408V125.003ZM74.9408 127.887H77.8108V129.301H74.9408V127.887ZM74.0168 122.119H75.5708V133.417H74.0168V122.119ZM80.3028 122.063H86.3088V126.459H80.3028V124.961H84.6848V123.547H80.3028V122.063ZM80.2188 127.985H86.6308V129.539H80.2188V127.985ZM79.3368 122.063H80.9468V133.375H79.3368V122.063ZM78.0768 132.829C79.3228 132.647 81.1568 132.325 82.9488 132.003L83.0888 133.473C81.5068 133.823 79.8408 134.159 78.5248 134.439L78.0768 132.829ZM82.3608 125.983H83.9848C83.9708 129.637 84.7128 133.011 85.3708 133.011C85.5668 132.997 85.6648 132.353 85.7068 131.093C86.0288 131.415 86.5748 131.737 86.9948 131.877C86.7988 134.061 86.2668 134.565 85.2308 134.565C83.3408 134.551 82.4868 130.477 82.3608 125.983Z" fill="#6EC1C5"/>
</svg>
