<svg width="146" height="147" viewBox="0 0 146 147" fill="none" xmlns="http://www.w3.org/2000/svg">
<circle cx="73.236" cy="59.7336" r="49.8669" fill="#97CDF4"/>
<path d="M24.7393 48.1244C22.4432 57.7162 23.043 67.7734 26.4628 77.0243C29.8825 86.2752 35.9687 94.3042 43.9517 100.096C51.9346 105.888 61.4558 109.183 71.3112 109.563C81.1666 109.944 90.9135 107.394 99.3195 102.235L73.236 59.7336L24.7393 48.1244Z" fill="#CCE4F5"/>
<path d="M43.4321 127.933H48.9761V129.347H43.4321V127.933ZM43.4181 130.397H48.9761V131.797H43.4181V130.397ZM48.8361 121.745L50.4741 122.319C50.0121 123.299 49.4941 124.293 49.0601 124.965L47.6041 124.419C48.0241 123.705 48.5561 122.599 48.8361 121.745ZM41.8781 122.473L43.2921 121.843C43.8521 122.613 44.4541 123.649 44.6641 124.363L43.1521 125.077C42.9701 124.363 42.4241 123.285 41.8781 122.473ZM42.3121 125.329H49.0041V126.897H43.9641V134.555H42.3121V125.329ZM48.2201 125.329H49.8581V132.749C49.8581 133.547 49.7041 133.995 49.1861 134.261C48.6541 134.513 47.8981 134.527 46.8481 134.527C46.7781 134.079 46.5541 133.393 46.3441 132.959C46.9881 132.987 47.7301 132.987 47.9401 132.987C48.1501 132.973 48.2201 132.917 48.2201 132.735V125.329ZM45.2941 121.409H46.9881V126.379H45.2941V121.409ZM38.1121 122.711L39.0921 121.535C39.9601 121.955 41.0661 122.613 41.6121 123.145L40.5621 124.433C40.0721 123.915 38.9801 123.173 38.1121 122.711ZM37.4681 126.435L38.4201 125.245C39.3021 125.651 40.4361 126.323 40.9961 126.855L39.9881 128.171C39.4701 127.639 38.3641 126.897 37.4681 126.435ZM37.8601 133.421C38.5461 132.357 39.5121 130.579 40.2681 128.941L41.5001 129.949C40.8701 131.461 40.0861 133.085 39.3301 134.499L37.8601 133.421ZM51.7901 122.809H57.0541V124.223H51.7901V122.809ZM57.5721 126.155L63.8861 125.189L64.1241 126.673L57.8101 127.667L57.5721 126.155ZM57.3061 129.277L64.4461 128.213L64.6561 129.697L57.5301 130.803L57.3061 129.277ZM62.5421 121.437L63.9281 122.557C62.2621 123.523 59.9241 124.251 57.8241 124.741C57.7401 124.391 57.4881 123.817 57.2781 123.495C59.2381 123.005 61.3521 122.235 62.5421 121.437ZM59.6861 123.705H61.3101V132.217C61.3101 132.861 61.3661 132.959 61.7581 132.959C61.9261 132.959 62.6401 132.959 62.8361 132.959C63.2001 132.959 63.2701 132.581 63.3261 130.999C63.6901 131.279 64.3201 131.559 64.7541 131.657C64.6001 133.687 64.2081 134.387 62.9761 134.387C62.6821 134.387 61.7441 134.387 61.4781 134.387C60.0641 134.387 59.6861 133.883 59.6861 132.217V123.705ZM51.6081 127.457H57.3621V128.913H51.6081V127.457ZM52.0421 125.119H56.7741V126.533H52.0421V125.119ZM53.8061 121.409H55.3601V134.555H53.8061V121.409ZM53.8761 128.003L54.9261 128.493C54.3101 130.089 53.2321 132.007 52.0981 133.015C51.9441 132.553 51.6081 131.881 51.3701 131.475C52.3501 130.649 53.3861 129.179 53.8761 128.003ZM55.2201 128.507C55.6541 128.899 57.1101 130.523 57.4321 130.929L56.3821 132.203C55.9201 131.405 54.8421 129.949 54.2961 129.277L55.2201 128.507ZM65.7061 126.365H78.4601V128.031H65.7061V126.365ZM71.9641 123.131H76.9481V124.741H71.9641V123.131ZM70.8721 121.423H72.6501V127.163H70.8721V121.423ZM70.8721 127.443H72.6501V134.555H70.8721V127.443ZM72.1461 130.117L72.9861 128.759C74.3861 129.165 76.5281 129.907 77.6201 130.439L76.7241 131.951C75.7021 131.419 73.6161 130.593 72.1461 130.117ZM86.6921 132.623H91.1021V134.065H86.6921V132.623ZM87.2941 122.753H90.8501V124.181H87.2941V122.753ZM86.0061 129.347H91.7881V134.485H90.1921V130.761H87.5461V134.527H86.0061V129.347ZM90.2621 122.753H90.5561L90.8501 122.697L91.9141 123.145C90.8921 126.659 88.5261 128.899 85.6841 130.103C85.4881 129.711 85.0681 129.137 84.7321 128.829C87.2661 127.905 89.4781 125.763 90.2621 123.019V122.753ZM87.3501 121.409L88.9461 121.801C88.3161 123.691 87.2801 125.511 86.1461 126.659C85.8661 126.365 85.2221 125.819 84.8441 125.581C85.9361 124.601 86.8601 123.033 87.3501 121.409ZM87.3921 123.537C88.1901 125.427 90.0101 127.597 92.8662 128.493C92.5301 128.815 92.0541 129.473 91.8302 129.907C88.9461 128.787 87.1121 126.337 86.2581 124.265L87.3921 123.537ZM80.0561 127.597H81.4281V132.693H80.0561V127.597ZM81.6241 123.383V125.161H83.4721V123.383H81.6241ZM80.1681 121.941H85.0121V126.603H80.1681V121.941ZM82.1281 126.015H83.6121V132.273H82.1281V126.015ZM79.4401 132.427C80.9241 132.161 83.1641 131.671 85.2641 131.195L85.4181 132.679C83.4441 133.169 81.3161 133.673 79.7201 134.037L79.4401 132.427ZM82.7161 128.241H85.1521V129.711H82.7161V128.241ZM96.8141 125.903V127.065H103.506V125.903H96.8141ZM96.8141 123.411V124.531H103.506V123.411H96.8141ZM95.1341 121.913H105.27V128.549H95.1341V121.913ZM93.7621 132.609H106.418V134.163H93.7621V132.609ZM94.7141 129.739H105.704V131.293H94.7141V129.739ZM99.3761 122.851H100.972V128.185H101.084V133.589H99.2501V128.185H99.3761V122.851Z" fill="#6EC1C5"/>
<path d="M51.73 117.718H92.4227" stroke="#6EC1C5"/>
</svg>
