<svg width="28" height="28" viewBox="0 0 28 28" fill="none" xmlns="http://www.w3.org/2000/svg">
<path fill-rule="evenodd" clip-rule="evenodd" d="M3 23.1163C3 22.8572 3.10291 22.6088 3.28608 22.4256C3.46926 22.2424 3.7177 22.1395 3.97674 22.1395H22.2093C22.4684 22.1395 22.7168 22.2424 22.9 22.4256C23.0831 22.6088 23.186 22.8572 23.186 23.1163C23.186 23.3753 23.0831 23.6238 22.9 23.8069C22.7168 23.9901 22.4684 24.093 22.2093 24.093H3.97674C3.7177 24.093 3.46926 23.9901 3.28608 23.8069C3.10291 23.6238 3 23.3753 3 23.1163ZM6.90698 27.0232C6.90698 26.7642 7.00988 26.5158 7.19306 26.3326C7.37623 26.1494 7.62467 26.0465 7.88372 26.0465H18.3023C18.5614 26.0465 18.8098 26.1494 18.993 26.3326C19.1762 26.5158 19.2791 26.7642 19.2791 27.0232C19.2791 27.2823 19.1762 27.5307 18.993 27.7139C18.8098 27.8971 18.5614 28 18.3023 28H7.88372C7.62467 28 7.37623 27.8971 7.19306 27.7139C7.00988 27.5307 6.90698 27.2823 6.90698 27.0232Z" fill="#F09B95"/>
<path d="M6.29414 18.2324C5.55954 16.8938 5.18628 15.3869 5.21112 13.8602C5.23596 12.3335 5.65804 10.8396 6.4358 9.52556C7.21356 8.21156 8.32017 7.12281 9.64665 6.36653C10.9731 5.61025 12.4737 5.21252 14.0007 5.21252C15.5276 5.21252 17.0282 5.61025 18.3547 6.36653C19.6811 7.12281 20.7877 8.21156 21.5655 9.52556C22.3433 10.8396 22.7653 12.3335 22.7902 13.8602C22.815 15.3869 22.4418 16.8938 21.7072 18.2324H27.0233C27.2823 18.2324 27.5307 18.3353 27.7139 18.5185C27.8971 18.7017 28 18.9501 28 19.2092C28 19.4682 27.8971 19.7166 27.7139 19.8998C27.5307 20.083 27.2823 20.1859 27.0233 20.1859H0.976744C0.717696 20.1859 0.469257 20.083 0.286082 19.8998C0.102907 19.7166 0 19.4682 0 19.2092C0 18.9501 0.102907 18.7017 0.286082 18.5185C0.469257 18.3353 0.717696 18.2324 0.976744 18.2324H6.29414Z" fill="#F09B95"/>
<path fill-rule="evenodd" clip-rule="evenodd" d="M14 0C14.259 0 14.5075 0.102907 14.6907 0.286082C14.8738 0.469257 14.9767 0.717695 14.9767 0.976744V2.27907C14.9767 2.53812 14.8738 2.78656 14.6907 2.96973C14.5075 3.15291 14.259 3.25581 14 3.25581C13.741 3.25581 13.4925 3.15291 13.3093 2.96973C13.1262 2.78656 13.0233 2.53812 13.0233 2.27907V0.976744C13.0233 0.717695 13.1262 0.469257 13.3093 0.286082C13.4925 0.102907 13.741 0 14 0ZM4.10102 4.10102C4.28416 3.91811 4.53242 3.81537 4.79126 3.81537C5.05009 3.81537 5.29835 3.91811 5.48149 4.10102L5.9933 4.61153C6.17131 4.79567 6.26988 5.04235 6.26778 5.29845C6.26567 5.55455 6.16307 5.79958 5.98205 5.98076C5.80104 6.16194 5.55611 6.26478 5.30001 6.26713C5.04391 6.26947 4.79714 6.17114 4.61284 5.9933L4.10102 5.48149C3.91811 5.29835 3.81537 5.05009 3.81537 4.79126C3.81537 4.53242 3.91811 4.28416 4.10102 4.10102ZM23.899 4.10102C24.0819 4.28416 24.1846 4.53242 24.1846 4.79126C24.1846 5.05009 24.0819 5.29835 23.899 5.48149L23.3872 5.9933C23.202 6.16583 22.9571 6.25976 22.7041 6.2553C22.451 6.25083 22.2096 6.14832 22.0306 5.96937C21.8517 5.79041 21.7492 5.54898 21.7447 5.29594C21.7402 5.04289 21.8342 4.79799 22.0067 4.61284L22.5185 4.10102C22.7017 3.91811 22.9499 3.81537 23.2087 3.81537C23.4676 3.81537 23.7158 3.91811 23.899 4.10102ZM0 14C0 13.741 0.102907 13.4925 0.286082 13.3093C0.469257 13.1262 0.717696 13.0233 0.976744 13.0233H2.27907C2.53812 13.0233 2.78656 13.1262 2.96973 13.3093C3.15291 13.4925 3.25581 13.741 3.25581 14C3.25581 14.259 3.15291 14.5075 2.96973 14.6907C2.78656 14.8738 2.53812 14.9767 2.27907 14.9767H0.976744C0.717696 14.9767 0.469257 14.8738 0.286082 14.6907C0.102907 14.5075 0 14.259 0 14ZM24.7442 14C24.7442 13.741 24.8471 13.4925 25.0303 13.3093C25.2134 13.1262 25.4619 13.0233 25.7209 13.0233H27.0233C27.2823 13.0233 27.5307 13.1262 27.7139 13.3093C27.8971 13.4925 28 13.741 28 14C28 14.259 27.8971 14.5075 27.7139 14.6907C27.5307 14.8738 27.2823 14.9767 27.0233 14.9767H25.7209C25.4619 14.9767 25.2134 14.8738 25.0303 14.6907C24.8471 14.5075 24.7442 14.259 24.7442 14Z" fill="#F09B95"/>
</svg>
