<svg width="633" height="184" viewBox="0 0 633 184" fill="none" xmlns="http://www.w3.org/2000/svg">
<rect x="72.4824" y="149.271" width="33" height="9" rx="4.5" transform="rotate(-90 72.4824 149.271)" fill="#DBF0F1"/>
<rect x="154.482" y="149.271" width="107" height="8" rx="4" transform="rotate(-90 154.482 149.271)" fill="#6EC1C5"/>
<rect x="194.482" y="149.271" width="80" height="9" rx="4.5" transform="rotate(-90 194.482 149.271)" fill="#6EC1C5"/>
<rect x="235.482" y="149.271" width="41" height="9" rx="4.5" transform="rotate(-90 235.482 149.271)" fill="#DBF0F1"/>
<rect x="316.482" y="149.271" width="92" height="9" rx="4.5" transform="rotate(-90 316.482 149.271)" fill="#6EC1C5"/>
<rect x="438.482" y="149.271" width="72" height="9" rx="4.5" transform="rotate(-90 438.482 149.271)" fill="#DBF0F1"/>
<rect x="479.482" y="149.271" width="54" height="9" rx="4.5" transform="rotate(-90 479.482 149.271)" fill="#DBF0F1"/>
<rect x="519.482" y="149.271" width="85" height="9" rx="4.5" transform="rotate(-90 519.482 149.271)" fill="#6EC1C5"/>
<rect x="560.482" y="149.271" width="66" height="9" rx="4.5" transform="rotate(-90 560.482 149.271)" fill="#DBF0F1"/>
<rect x="601.482" y="148.271" width="66" height="8" rx="4" transform="rotate(-90 601.482 148.271)" fill="#DBF0F1"/>
<path d="M76.7584 168.975C76.7584 169.903 76.6624 170.695 76.4704 171.351C76.2784 172.007 75.9704 172.511 75.5464 172.863C75.1304 173.215 74.5824 173.391 73.9024 173.391C72.9344 173.391 72.2184 173.003 71.7544 172.227C71.2984 171.443 71.0704 170.359 71.0704 168.975C71.0704 168.047 71.1624 167.255 71.3464 166.599C71.5384 165.943 71.8424 165.443 72.2584 165.099C72.6744 164.747 73.2224 164.571 73.9024 164.571C74.8624 164.571 75.5784 164.959 76.0504 165.735C76.5224 166.503 76.7584 167.583 76.7584 168.975ZM72.1264 168.975C72.1264 170.151 72.2584 171.031 72.5224 171.615C72.7944 172.199 73.2544 172.491 73.9024 172.491C74.5424 172.491 74.9984 172.203 75.2704 171.627C75.5504 171.043 75.6904 170.159 75.6904 168.975C75.6904 167.807 75.5504 166.931 75.2704 166.347C74.9984 165.763 74.5424 165.471 73.9024 165.471C73.2544 165.471 72.7944 165.763 72.5224 166.347C72.2584 166.931 72.1264 167.807 72.1264 168.975ZM80.7696 164.583C81.5216 164.583 82.1376 164.759 82.6176 165.111C83.0976 165.463 83.3376 165.971 83.3376 166.635C83.3376 166.979 83.2616 167.279 83.1096 167.535C82.9656 167.791 82.7696 168.019 82.5216 168.219C82.2736 168.411 82.0016 168.583 81.7056 168.735C82.0576 168.911 82.3776 169.103 82.6656 169.311C82.9536 169.519 83.1816 169.763 83.3496 170.043C83.5256 170.323 83.6136 170.659 83.6136 171.051C83.6136 171.771 83.3576 172.343 82.8456 172.767C82.3336 173.183 81.6536 173.391 80.8056 173.391C79.8776 173.391 79.1656 173.191 78.6696 172.791C78.1816 172.383 77.9376 171.815 77.9376 171.087C77.9376 170.703 78.0176 170.367 78.1776 170.079C78.3456 169.783 78.5656 169.531 78.8376 169.323C79.1096 169.115 79.4016 168.939 79.7136 168.795C79.2896 168.555 78.9336 168.267 78.6456 167.931C78.3576 167.587 78.2136 167.151 78.2136 166.623C78.2136 166.191 78.3256 165.823 78.5496 165.519C78.7736 165.215 79.0776 164.983 79.4616 164.823C79.8456 164.663 80.2816 164.583 80.7696 164.583ZM80.7576 165.435C80.3096 165.435 79.9456 165.543 79.6656 165.759C79.3856 165.967 79.2456 166.271 79.2456 166.671C79.2456 166.967 79.3136 167.215 79.4496 167.415C79.5936 167.615 79.7856 167.787 80.0256 167.931C80.2656 168.067 80.5296 168.199 80.8176 168.327C81.2336 168.151 81.5816 167.939 81.8616 167.691C82.1496 167.443 82.2936 167.103 82.2936 166.671C82.2936 166.271 82.1536 165.967 81.8736 165.759C81.5936 165.543 81.2216 165.435 80.7576 165.435ZM78.9696 171.099C78.9696 171.515 79.1176 171.863 79.4136 172.143C79.7096 172.415 80.1656 172.551 80.7816 172.551C81.3656 172.551 81.8096 172.415 82.1136 172.143C82.4256 171.863 82.5816 171.503 82.5816 171.063C82.5816 170.647 82.4176 170.303 82.0896 170.031C81.7616 169.751 81.3256 169.507 80.7816 169.299L80.5896 169.227C80.0616 169.459 79.6576 169.719 79.3776 170.007C79.1056 170.295 78.9696 170.659 78.9696 171.099Z" fill="#706C65"/>
<path d="M15.7424 106.271H14.7104V100.283C14.7104 99.9388 14.7144 99.6628 14.7224 99.4548C14.7304 99.2468 14.7424 99.0308 14.7584 98.8068C14.6304 98.9348 14.5104 99.0428 14.3984 99.1308C14.2944 99.2188 14.1664 99.3308 14.0144 99.4668L13.1024 100.211L12.5504 99.5028L14.8664 97.7028H15.7424V106.271ZM24.6256 101.975C24.6256 102.903 24.5296 103.695 24.3376 104.351C24.1456 105.007 23.8376 105.511 23.4136 105.863C22.9976 106.215 22.4496 106.391 21.7696 106.391C20.8016 106.391 20.0856 106.003 19.6216 105.227C19.1656 104.443 18.9376 103.359 18.9376 101.975C18.9376 101.047 19.0296 100.255 19.2136 99.5988C19.4056 98.9428 19.7096 98.4428 20.1256 98.0988C20.5416 97.7468 21.0896 97.5708 21.7696 97.5708C22.7296 97.5708 23.4456 97.9588 23.9176 98.7348C24.3896 99.5028 24.6256 100.583 24.6256 101.975ZM19.9936 101.975C19.9936 103.151 20.1256 104.031 20.3896 104.615C20.6616 105.199 21.1216 105.491 21.7696 105.491C22.4096 105.491 22.8656 105.203 23.1376 104.627C23.4176 104.043 23.5576 103.159 23.5576 101.975C23.5576 100.807 23.4176 99.9308 23.1376 99.3468C22.8656 98.7628 22.4096 98.4708 21.7696 98.4708C21.1216 98.4708 20.6616 98.7628 20.3896 99.3468C20.1256 99.9308 19.9936 100.807 19.9936 101.975ZM31.4928 101.975C31.4928 102.903 31.3968 103.695 31.2048 104.351C31.0128 105.007 30.7048 105.511 30.2808 105.863C29.8648 106.215 29.3168 106.391 28.6368 106.391C27.6688 106.391 26.9528 106.003 26.4888 105.227C26.0328 104.443 25.8048 103.359 25.8048 101.975C25.8048 101.047 25.8968 100.255 26.0808 99.5988C26.2728 98.9428 26.5768 98.4428 26.9928 98.0988C27.4088 97.7468 27.9568 97.5708 28.6368 97.5708C29.5968 97.5708 30.3128 97.9588 30.7848 98.7348C31.2568 99.5028 31.4928 100.583 31.4928 101.975ZM26.8608 101.975C26.8608 103.151 26.9928 104.031 27.2568 104.615C27.5288 105.199 27.9888 105.491 28.6368 105.491C29.2768 105.491 29.7328 105.203 30.0048 104.627C30.2848 104.043 30.4248 103.159 30.4248 101.975C30.4248 100.807 30.2848 99.9308 30.0048 99.3468C29.7328 98.7628 29.2768 98.4708 28.6368 98.4708C27.9888 98.4708 27.5288 98.7628 27.2568 99.3468C26.9928 99.9308 26.8608 100.807 26.8608 101.975ZM38.36 101.975C38.36 102.903 38.264 103.695 38.072 104.351C37.88 105.007 37.572 105.511 37.148 105.863C36.732 106.215 36.184 106.391 35.504 106.391C34.536 106.391 33.82 106.003 33.356 105.227C32.9 104.443 32.672 103.359 32.672 101.975C32.672 101.047 32.764 100.255 32.948 99.5988C33.14 98.9428 33.444 98.4428 33.86 98.0988C34.276 97.7468 34.824 97.5708 35.504 97.5708C36.464 97.5708 37.18 97.9588 37.652 98.7348C38.124 99.5028 38.36 100.583 38.36 101.975ZM33.728 101.975C33.728 103.151 33.86 104.031 34.124 104.615C34.396 105.199 34.856 105.491 35.504 105.491C36.144 105.491 36.6 105.203 36.872 104.627C37.152 104.043 37.292 103.159 37.292 101.975C37.292 100.807 37.152 99.9308 36.872 99.3468C36.6 98.7628 36.144 98.4708 35.504 98.4708C34.856 98.4708 34.396 98.7628 34.124 99.3468C33.86 99.9308 33.728 100.807 33.728 101.975Z" fill="#706C65"/>
<path d="M12.7824 55.0148C13.6544 55.0148 14.3504 55.2348 14.8704 55.6748C15.3984 56.1148 15.6624 56.7348 15.6624 57.5348C15.6624 58.4228 15.3784 59.1228 14.8104 59.6348C14.2504 60.1388 13.4664 60.3908 12.4584 60.3908C12.0104 60.3908 11.5944 60.3508 11.2104 60.2708C10.8264 60.1908 10.5024 60.0748 10.2384 59.9228V58.9268C10.5264 59.1028 10.8744 59.2428 11.2824 59.3468C11.6984 59.4428 12.0944 59.4908 12.4704 59.4908C13.1024 59.4908 13.6104 59.3428 13.9944 59.0468C14.3864 58.7428 14.5824 58.2748 14.5824 57.6428C14.5824 57.0828 14.4104 56.6548 14.0664 56.3588C13.7224 56.0548 13.1784 55.9028 12.4344 55.9028C12.2104 55.9028 11.9544 55.9228 11.6664 55.9628C11.3784 56.0028 11.1464 56.0428 10.9704 56.0828L10.4424 55.7468L10.7664 51.7028H15.0624V52.6628H11.6664L11.4624 55.1468C11.5984 55.1228 11.7824 55.0948 12.0144 55.0628C12.2464 55.0308 12.5024 55.0148 12.7824 55.0148ZM22.6256 55.9748C22.6256 56.9028 22.5296 57.6948 22.3376 58.3508C22.1456 59.0068 21.8376 59.5108 21.4136 59.8628C20.9976 60.2148 20.4496 60.3908 19.7696 60.3908C18.8016 60.3908 18.0856 60.0028 17.6216 59.2268C17.1656 58.4428 16.9376 57.3588 16.9376 55.9748C16.9376 55.0468 17.0296 54.2548 17.2136 53.5988C17.4056 52.9428 17.7096 52.4428 18.1256 52.0988C18.5416 51.7468 19.0896 51.5708 19.7696 51.5708C20.7296 51.5708 21.4456 51.9588 21.9176 52.7348C22.3896 53.5028 22.6256 54.5828 22.6256 55.9748ZM17.9936 55.9748C17.9936 57.1508 18.1256 58.0308 18.3896 58.6148C18.6616 59.1988 19.1216 59.4908 19.7696 59.4908C20.4096 59.4908 20.8656 59.2028 21.1376 58.6268C21.4176 58.0428 21.5576 57.1588 21.5576 55.9748C21.5576 54.8068 21.4176 53.9308 21.1376 53.3468C20.8656 52.7628 20.4096 52.4708 19.7696 52.4708C19.1216 52.4708 18.6616 52.7628 18.3896 53.3468C18.1256 53.9308 17.9936 54.8068 17.9936 55.9748ZM29.4928 55.9748C29.4928 56.9028 29.3968 57.6948 29.2048 58.3508C29.0128 59.0068 28.7048 59.5108 28.2808 59.8628C27.8648 60.2148 27.3168 60.3908 26.6368 60.3908C25.6688 60.3908 24.9528 60.0028 24.4888 59.2268C24.0328 58.4428 23.8048 57.3588 23.8048 55.9748C23.8048 55.0468 23.8968 54.2548 24.0808 53.5988C24.2728 52.9428 24.5768 52.4428 24.9928 52.0988C25.4088 51.7468 25.9568 51.5708 26.6368 51.5708C27.5968 51.5708 28.3128 51.9588 28.7848 52.7348C29.2568 53.5028 29.4928 54.5828 29.4928 55.9748ZM24.8608 55.9748C24.8608 57.1508 24.9928 58.0308 25.2568 58.6148C25.5288 59.1988 25.9888 59.4908 26.6368 59.4908C27.2768 59.4908 27.7328 59.2028 28.0048 58.6268C28.2848 58.0428 28.4248 57.1588 28.4248 55.9748C28.4248 54.8068 28.2848 53.9308 28.0048 53.3468C27.7328 52.7628 27.2768 52.4708 26.6368 52.4708C25.9888 52.4708 25.5288 52.7628 25.2568 53.3468C24.9928 53.9308 24.8608 54.8068 24.8608 55.9748ZM36.36 55.9748C36.36 56.9028 36.264 57.6948 36.072 58.3508C35.88 59.0068 35.572 59.5108 35.148 59.8628C34.732 60.2148 34.184 60.3908 33.504 60.3908C32.536 60.3908 31.82 60.0028 31.356 59.2268C30.9 58.4428 30.672 57.3588 30.672 55.9748C30.672 55.0468 30.764 54.2548 30.948 53.5988C31.14 52.9428 31.444 52.4428 31.86 52.0988C32.276 51.7468 32.824 51.5708 33.504 51.5708C34.464 51.5708 35.18 51.9588 35.652 52.7348C36.124 53.5028 36.36 54.5828 36.36 55.9748ZM31.728 55.9748C31.728 57.1508 31.86 58.0308 32.124 58.6148C32.396 59.1988 32.856 59.4908 33.504 59.4908C34.144 59.4908 34.6 59.2028 34.872 58.6268C35.152 58.0428 35.292 57.1588 35.292 55.9748C35.292 54.8068 35.152 53.9308 34.872 53.3468C34.6 52.7628 34.144 52.4708 33.504 52.4708C32.856 52.4708 32.396 52.7628 32.124 53.3468C31.86 53.9308 31.728 54.8068 31.728 55.9748Z" fill="#706C65"/>
<path d="M8.74242 13.2708H7.71042V7.28275C7.71042 6.93875 7.71442 6.66275 7.72242 6.45475C7.73042 6.24675 7.74242 6.03075 7.75842 5.80675C7.63042 5.93475 7.51042 6.04275 7.39842 6.13075C7.29442 6.21875 7.16642 6.33075 7.01442 6.46675L6.10242 7.21075L5.55042 6.50275L7.86642 4.70275H8.74242V13.2708ZM17.6256 8.97475C17.6256 9.90275 17.5296 10.6948 17.3376 11.3508C17.1456 12.0068 16.8376 12.5108 16.4136 12.8628C15.9976 13.2148 15.4496 13.3908 14.7696 13.3908C13.8016 13.3908 13.0856 13.0028 12.6216 12.2268C12.1656 11.4428 11.9376 10.3588 11.9376 8.97475C11.9376 8.04675 12.0296 7.25475 12.2136 6.59875C12.4056 5.94275 12.7096 5.44275 13.1256 5.09875C13.5416 4.74675 14.0896 4.57075 14.7696 4.57075C15.7296 4.57075 16.4456 4.95875 16.9176 5.73475C17.3896 6.50275 17.6256 7.58275 17.6256 8.97475ZM12.9936 8.97475C12.9936 10.1508 13.1256 11.0308 13.3896 11.6148C13.6616 12.1988 14.1216 12.4908 14.7696 12.4908C15.4096 12.4908 15.8656 12.2028 16.1376 11.6268C16.4176 11.0428 16.5576 10.1588 16.5576 8.97475C16.5576 7.80675 16.4176 6.93075 16.1376 6.34675C15.8656 5.76275 15.4096 5.47075 14.7696 5.47075C14.1216 5.47075 13.6616 5.76275 13.3896 6.34675C13.1256 6.93075 12.9936 7.80675 12.9936 8.97475ZM24.4928 8.97475C24.4928 9.90275 24.3968 10.6948 24.2048 11.3508C24.0128 12.0068 23.7048 12.5108 23.2808 12.8628C22.8648 13.2148 22.3168 13.3908 21.6368 13.3908C20.6688 13.3908 19.9528 13.0028 19.4888 12.2268C19.0328 11.4428 18.8048 10.3588 18.8048 8.97475C18.8048 8.04675 18.8968 7.25475 19.0808 6.59875C19.2728 5.94275 19.5768 5.44275 19.9928 5.09875C20.4088 4.74675 20.9568 4.57075 21.6368 4.57075C22.5968 4.57075 23.3128 4.95875 23.7848 5.73475C24.2568 6.50275 24.4928 7.58275 24.4928 8.97475ZM19.8608 8.97475C19.8608 10.1508 19.9928 11.0308 20.2568 11.6148C20.5288 12.1988 20.9888 12.4908 21.6368 12.4908C22.2768 12.4908 22.7328 12.2028 23.0048 11.6268C23.2848 11.0428 23.4248 10.1588 23.4248 8.97475C23.4248 7.80675 23.2848 6.93075 23.0048 6.34675C22.7328 5.76275 22.2768 5.47075 21.6368 5.47075C20.9888 5.47075 20.5288 5.76275 20.2568 6.34675C19.9928 6.93075 19.8608 7.80675 19.8608 8.97475ZM31.36 8.97475C31.36 9.90275 31.264 10.6948 31.072 11.3508C30.88 12.0068 30.572 12.5108 30.148 12.8628C29.732 13.2148 29.184 13.3908 28.504 13.3908C27.536 13.3908 26.82 13.0028 26.356 12.2268C25.9 11.4428 25.672 10.3588 25.672 8.97475C25.672 8.04675 25.764 7.25475 25.948 6.59875C26.14 5.94275 26.444 5.44275 26.86 5.09875C27.276 4.74675 27.824 4.57075 28.504 4.57075C29.464 4.57075 30.18 4.95875 30.652 5.73475C31.124 6.50275 31.36 7.58275 31.36 8.97475ZM26.728 8.97475C26.728 10.1508 26.86 11.0308 27.124 11.6148C27.396 12.1988 27.856 12.4908 28.504 12.4908C29.144 12.4908 29.6 12.2028 29.872 11.6268C30.152 11.0428 30.292 10.1588 30.292 8.97475C30.292 7.80675 30.152 6.93075 29.872 6.34675C29.6 5.76275 29.144 5.47075 28.504 5.47075C27.856 5.47075 27.396 5.76275 27.124 6.34675C26.86 6.93075 26.728 7.80675 26.728 8.97475ZM38.2272 8.97475C38.2272 9.90275 38.1312 10.6948 37.9392 11.3508C37.7472 12.0068 37.4392 12.5108 37.0152 12.8628C36.5992 13.2148 36.0512 13.3908 35.3712 13.3908C34.4032 13.3908 33.6872 13.0028 33.2232 12.2268C32.7672 11.4428 32.5392 10.3588 32.5392 8.97475C32.5392 8.04675 32.6312 7.25475 32.8152 6.59875C33.0072 5.94275 33.3112 5.44275 33.7272 5.09875C34.1432 4.74675 34.6912 4.57075 35.3712 4.57075C36.3312 4.57075 37.0472 4.95875 37.5192 5.73475C37.9912 6.50275 38.2272 7.58275 38.2272 8.97475ZM33.5952 8.97475C33.5952 10.1508 33.7272 11.0308 33.9912 11.6148C34.2632 12.1988 34.7232 12.4908 35.3712 12.4908C36.0112 12.4908 36.4672 12.2028 36.7392 11.6268C37.0192 11.0428 37.1592 10.1588 37.1592 8.97475C37.1592 7.80675 37.0192 6.93075 36.7392 6.34675C36.4672 5.76275 36.0112 5.47075 35.3712 5.47075C34.7232 5.47075 34.2632 5.76275 33.9912 6.34675C33.7272 6.93075 33.5952 7.80675 33.5952 8.97475Z" fill="#706C65"/>
<path d="M21.7824 124.015C22.6544 124.015 23.3504 124.235 23.8704 124.675C24.3984 125.115 24.6624 125.735 24.6624 126.535C24.6624 127.423 24.3784 128.123 23.8104 128.635C23.2504 129.139 22.4664 129.391 21.4584 129.391C21.0104 129.391 20.5944 129.351 20.2104 129.271C19.8264 129.191 19.5024 129.075 19.2384 128.923V127.927C19.5264 128.103 19.8744 128.243 20.2824 128.347C20.6984 128.443 21.0944 128.491 21.4704 128.491C22.1024 128.491 22.6104 128.343 22.9944 128.047C23.3864 127.743 23.5824 127.275 23.5824 126.643C23.5824 126.083 23.4104 125.655 23.0664 125.359C22.7224 125.055 22.1784 124.903 21.4344 124.903C21.2104 124.903 20.9544 124.923 20.6664 124.963C20.3784 125.003 20.1464 125.043 19.9704 125.083L19.4424 124.747L19.7664 120.703H24.0624V121.663H20.6664L20.4624 124.147C20.5984 124.123 20.7824 124.095 21.0144 124.063C21.2464 124.031 21.5024 124.015 21.7824 124.015ZM31.6256 124.975C31.6256 125.903 31.5296 126.695 31.3376 127.351C31.1456 128.007 30.8376 128.511 30.4136 128.863C29.9976 129.215 29.4496 129.391 28.7696 129.391C27.8016 129.391 27.0856 129.003 26.6216 128.227C26.1656 127.443 25.9376 126.359 25.9376 124.975C25.9376 124.047 26.0296 123.255 26.2136 122.599C26.4056 121.943 26.7096 121.443 27.1256 121.099C27.5416 120.747 28.0896 120.571 28.7696 120.571C29.7296 120.571 30.4456 120.959 30.9176 121.735C31.3896 122.503 31.6256 123.583 31.6256 124.975ZM26.9936 124.975C26.9936 126.151 27.1256 127.031 27.3896 127.615C27.6616 128.199 28.1216 128.491 28.7696 128.491C29.4096 128.491 29.8656 128.203 30.1376 127.627C30.4176 127.043 30.5576 126.159 30.5576 124.975C30.5576 123.807 30.4176 122.931 30.1376 122.347C29.8656 121.763 29.4096 121.471 28.7696 121.471C28.1216 121.471 27.6616 121.763 27.3896 122.347C27.1256 122.931 26.9936 123.807 26.9936 124.975ZM38.4928 124.975C38.4928 125.903 38.3968 126.695 38.2048 127.351C38.0128 128.007 37.7048 128.511 37.2808 128.863C36.8648 129.215 36.3168 129.391 35.6368 129.391C34.6688 129.391 33.9528 129.003 33.4888 128.227C33.0328 127.443 32.8048 126.359 32.8048 124.975C32.8048 124.047 32.8968 123.255 33.0808 122.599C33.2728 121.943 33.5768 121.443 33.9928 121.099C34.4088 120.747 34.9568 120.571 35.6368 120.571C36.5968 120.571 37.3128 120.959 37.7848 121.735C38.2568 122.503 38.4928 123.583 38.4928 124.975ZM33.8608 124.975C33.8608 126.151 33.9928 127.031 34.2568 127.615C34.5288 128.199 34.9888 128.491 35.6368 128.491C36.2768 128.491 36.7328 128.203 37.0048 127.627C37.2848 127.043 37.4248 126.159 37.4248 124.975C37.4248 123.807 37.2848 122.931 37.0048 122.347C36.7328 121.763 36.2768 121.471 35.6368 121.471C34.9888 121.471 34.5288 121.763 34.2568 122.347C33.9928 122.931 33.8608 123.807 33.8608 124.975Z" fill="#706C65"/>
<path d="M6.03842 153.607H6.93842V156.475C6.93842 156.943 6.84242 157.171 6.48242 157.303C6.12242 157.435 5.55842 157.435 4.70642 157.435C4.67042 157.195 4.53842 156.871 4.41842 156.631C5.05442 156.655 5.64242 156.655 5.82242 156.643C5.99042 156.631 6.03842 156.595 6.03842 156.463V153.607ZM3.63842 154.099L4.56242 154.411C3.86642 155.419 2.81042 156.427 1.88642 157.063C1.70642 156.895 1.33442 156.607 1.10642 156.463C2.05442 155.887 3.03842 154.999 3.63842 154.099ZM9.68642 154.435L10.5864 154.747C9.43442 158.035 6.96242 159.607 2.46242 160.255C2.36642 159.991 2.18642 159.631 1.99442 159.415C6.32642 158.887 8.65442 157.459 9.68642 154.435ZM1.11842 152.827H11.8464V153.691H1.11842V152.827ZM6.56642 150.619H10.6344V151.459H6.56642V150.619ZM6.02642 149.203H6.95042V153.331H6.02642V149.203ZM2.91842 150.127H3.83042V153.283H2.91842V150.127ZM20.1264 151.423H24.0024V152.263H20.1264V151.423ZM20.3664 149.191L21.2424 149.323C20.8944 151.603 20.3184 153.811 19.4184 155.239C19.2864 155.083 18.9384 154.759 18.7344 154.615C19.5864 153.307 20.0904 151.267 20.3664 149.191ZM22.4904 151.867L23.3424 151.951C22.8504 155.935 21.7944 158.587 19.1904 160.267C19.1064 160.075 18.8424 159.703 18.6864 159.523C21.1224 158.083 22.0824 155.527 22.4904 151.867ZM20.5704 152.179C21.0264 155.467 22.0224 158.323 24.0624 159.535C23.8584 159.703 23.5824 160.027 23.4384 160.243C21.3144 158.851 20.3184 155.887 19.8024 152.299L20.5704 152.179ZM15.7344 149.191H16.5384V155.491H15.7344V149.191ZM14.5464 150.559V152.563H17.8224V150.559H14.5464ZM13.7784 149.923H18.6144V153.199H13.7784V149.923ZM14.2584 154.363V155.143H18.0984V154.363H14.2584ZM13.4784 153.751H18.9024V155.755H13.4784V153.751ZM12.9624 156.523C14.5824 156.523 17.1024 156.487 19.5384 156.439L19.5024 157.123C17.1144 157.183 14.6304 157.219 12.9864 157.243L12.9624 156.523ZM15.3624 155.563L16.1304 155.743C15.6264 156.715 14.9424 157.915 14.4624 158.695L13.7184 158.479C14.2104 157.711 14.8944 156.487 15.3624 155.563ZM14.4024 158.263L14.8464 157.723C16.2504 158.203 17.7264 158.887 18.6024 159.475L18.0264 160.039C17.1984 159.451 15.7944 158.767 14.4024 158.263ZM17.5224 156.811L18.3024 156.943C17.8224 158.899 16.3344 159.811 13.5984 160.279C13.5504 160.051 13.3944 159.751 13.2504 159.571C15.7344 159.271 17.0784 158.503 17.5224 156.811ZM12.9504 151.207H14.1024V151.255H18.2424V151.207H19.4664V151.903H18.2424V151.855H14.1024V151.903H12.9504V151.207ZM28.8264 150.703L25.6344 159.271H24.6024L27.7944 150.703H28.8264Z" fill="#706C65"/>
<path d="M25.5944 163.007H33.4544V173.051H32.5064V163.919H26.5184V173.099H25.5944V163.007ZM26.2064 167.171H32.9024V168.059H26.2064V167.171ZM26.1944 171.419H32.9264V172.319H26.1944V171.419ZM42.8024 162.791H46.1384V163.619H42.8024V162.791ZM42.8024 165.551H46.1384V166.355H42.8024V165.551ZM42.7904 168.347H46.1624V169.163H42.7904V168.347ZM45.7304 162.791H46.6064V172.091C46.6064 172.607 46.4864 172.883 46.1384 173.027C45.8024 173.171 45.2384 173.195 44.3504 173.195C44.3264 172.943 44.1944 172.547 44.0744 172.319C44.7104 172.331 45.3104 172.331 45.4904 172.319C45.6704 172.319 45.7304 172.259 45.7304 172.079V162.791ZM42.4304 162.791H43.2824V167.147C43.2824 168.995 43.1384 171.587 42.0584 173.291C41.9024 173.123 41.5424 172.859 41.3384 172.775C42.3464 171.167 42.4304 168.887 42.4304 167.147V162.791ZM36.0944 163.799H41.8424V164.591H36.0944V163.799ZM37.5104 165.659H40.5464V166.391H37.5104V165.659ZM37.5104 167.567H40.5584V168.287H37.5104V167.567ZM35.9384 169.499H41.8424V170.303H35.9384V169.499ZM37.1144 162.335H37.9424V169.823H37.1144V162.335ZM40.1264 162.335H40.9544V169.823H40.1264V162.335ZM37.6064 170.567L38.4704 170.807C38.0264 171.719 37.3304 172.643 36.6824 173.243C36.5144 173.099 36.1664 172.835 35.9504 172.715C36.6224 172.175 37.2464 171.371 37.6064 170.567ZM39.3344 170.939L40.0304 170.567C40.4984 171.107 41.0624 171.851 41.3024 172.343L40.5704 172.775C40.3424 172.295 39.8024 171.503 39.3344 170.939Z" fill="#706C65"/>
<path d="M116.758 168.975C116.758 169.903 116.662 170.695 116.47 171.351C116.278 172.007 115.97 172.511 115.546 172.863C115.13 173.215 114.582 173.391 113.902 173.391C112.934 173.391 112.218 173.003 111.754 172.227C111.298 171.443 111.07 170.359 111.07 168.975C111.07 168.047 111.162 167.255 111.346 166.599C111.538 165.943 111.842 165.443 112.258 165.099C112.674 164.747 113.222 164.571 113.902 164.571C114.862 164.571 115.578 164.959 116.05 165.735C116.522 166.503 116.758 167.583 116.758 168.975ZM112.126 168.975C112.126 170.151 112.258 171.031 112.522 171.615C112.794 172.199 113.254 172.491 113.902 172.491C114.542 172.491 114.998 172.203 115.27 171.627C115.55 171.043 115.69 170.159 115.69 168.975C115.69 167.807 115.55 166.931 115.27 166.347C114.998 165.763 114.542 165.471 113.902 165.471C113.254 165.471 112.794 165.763 112.522 166.347C112.258 166.931 112.126 167.807 112.126 168.975ZM123.59 168.363C123.59 168.979 123.534 169.587 123.422 170.187C123.318 170.779 123.122 171.319 122.834 171.807C122.554 172.287 122.154 172.671 121.634 172.959C121.122 173.247 120.462 173.391 119.654 173.391C119.494 173.391 119.306 173.379 119.09 173.355C118.874 173.339 118.702 173.311 118.574 173.271V172.371C118.886 172.475 119.238 172.527 119.63 172.527C120.19 172.527 120.65 172.435 121.01 172.251C121.378 172.067 121.67 171.819 121.886 171.507C122.102 171.187 122.258 170.819 122.354 170.403C122.45 169.979 122.506 169.535 122.522 169.071H122.45C122.266 169.343 122.01 169.579 121.682 169.779C121.354 169.971 120.93 170.067 120.41 170.067C119.674 170.067 119.078 169.843 118.622 169.395C118.174 168.939 117.95 168.299 117.95 167.475C117.95 166.875 118.062 166.359 118.286 165.927C118.51 165.495 118.826 165.163 119.234 164.931C119.65 164.699 120.134 164.583 120.686 164.583C121.23 164.583 121.722 164.723 122.162 165.003C122.602 165.275 122.95 165.691 123.206 166.251C123.462 166.803 123.59 167.507 123.59 168.363ZM120.686 165.471C120.19 165.471 119.782 165.635 119.462 165.963C119.15 166.291 118.994 166.791 118.994 167.463C118.994 168.015 119.126 168.451 119.39 168.771C119.662 169.083 120.078 169.239 120.638 169.239C121.022 169.239 121.354 169.163 121.634 169.011C121.914 168.851 122.13 168.651 122.282 168.411C122.442 168.171 122.522 167.923 122.522 167.667C122.522 167.323 122.454 166.983 122.318 166.647C122.182 166.311 121.978 166.031 121.706 165.807C121.434 165.583 121.094 165.471 120.686 165.471Z" fill="#706C65"/>
<path d="M155.742 173.271H154.71V167.283C154.71 166.939 154.714 166.663 154.722 166.455C154.73 166.247 154.742 166.031 154.758 165.807C154.63 165.935 154.51 166.043 154.398 166.131C154.294 166.219 154.166 166.331 154.014 166.467L153.102 167.211L152.55 166.503L154.866 164.703H155.742V173.271ZM164.626 168.975C164.626 169.903 164.53 170.695 164.338 171.351C164.146 172.007 163.838 172.511 163.414 172.863C162.998 173.215 162.45 173.391 161.77 173.391C160.802 173.391 160.086 173.003 159.622 172.227C159.166 171.443 158.938 170.359 158.938 168.975C158.938 168.047 159.03 167.255 159.214 166.599C159.406 165.943 159.71 165.443 160.126 165.099C160.542 164.747 161.09 164.571 161.77 164.571C162.73 164.571 163.446 164.959 163.918 165.735C164.39 166.503 164.626 167.583 164.626 168.975ZM159.994 168.975C159.994 170.151 160.126 171.031 160.39 171.615C160.662 172.199 161.122 172.491 161.77 172.491C162.41 172.491 162.866 172.203 163.138 171.627C163.418 171.043 163.558 170.159 163.558 168.975C163.558 167.807 163.418 166.931 163.138 166.347C162.866 165.763 162.41 165.471 161.77 165.471C161.122 165.471 160.662 165.763 160.39 166.347C160.126 166.931 159.994 167.807 159.994 168.975Z" fill="#706C65"/>
<path d="M195.742 173.271H194.71V167.283C194.71 166.939 194.714 166.663 194.722 166.455C194.73 166.247 194.742 166.031 194.758 165.807C194.63 165.935 194.51 166.043 194.398 166.131C194.294 166.219 194.166 166.331 194.014 166.467L193.102 167.211L192.55 166.503L194.866 164.703H195.742V173.271ZM202.61 173.271H201.578V167.283C201.578 166.939 201.582 166.663 201.59 166.455C201.598 166.247 201.61 166.031 201.626 165.807C201.498 165.935 201.378 166.043 201.266 166.131C201.162 166.219 201.034 166.331 200.882 166.467L199.97 167.211L199.418 166.503L201.734 164.703H202.61V173.271Z" fill="#706C65"/>
<path d="M236.742 173.271H235.71V167.283C235.71 166.939 235.714 166.663 235.722 166.455C235.73 166.247 235.742 166.031 235.758 165.807C235.63 165.935 235.51 166.043 235.398 166.131C235.294 166.219 235.166 166.331 235.014 166.467L234.102 167.211L233.55 166.503L235.866 164.703H236.742V173.271ZM245.59 173.271H239.926V172.395L242.17 170.127C242.594 169.695 242.954 169.311 243.25 168.975C243.554 168.639 243.782 168.311 243.934 167.991C244.086 167.671 244.162 167.315 244.162 166.923C244.162 166.451 244.022 166.095 243.742 165.855C243.462 165.607 243.098 165.483 242.65 165.483C242.226 165.483 241.858 165.555 241.546 165.699C241.234 165.843 240.914 166.043 240.586 166.299L240.022 165.591C240.358 165.311 240.742 165.075 241.174 164.883C241.614 164.683 242.106 164.583 242.65 164.583C243.45 164.583 244.082 164.787 244.546 165.195C245.01 165.603 245.242 166.159 245.242 166.863C245.242 167.311 245.15 167.731 244.966 168.123C244.782 168.515 244.526 168.903 244.198 169.287C243.87 169.671 243.486 170.075 243.046 170.499L241.258 172.263V172.311H245.59V173.271Z" fill="#706C65"/>
<path d="M277.742 173.271H276.71V167.283C276.71 166.939 276.714 166.663 276.722 166.455C276.73 166.247 276.742 166.031 276.758 165.807C276.63 165.935 276.51 166.043 276.398 166.131C276.294 166.219 276.166 166.331 276.014 166.467L275.102 167.211L274.55 166.503L276.866 164.703H277.742V173.271ZM286.266 166.707C286.266 167.283 286.102 167.743 285.774 168.087C285.454 168.423 285.026 168.647 284.49 168.759V168.807C285.17 168.887 285.678 169.103 286.014 169.455C286.358 169.807 286.53 170.267 286.53 170.835C286.53 171.339 286.414 171.783 286.182 172.167C285.95 172.551 285.59 172.851 285.102 173.067C284.622 173.283 284.002 173.391 283.242 173.391C282.794 173.391 282.378 173.355 281.994 173.283C281.61 173.219 281.242 173.099 280.89 172.923V171.939C281.25 172.123 281.638 172.263 282.054 172.359C282.47 172.455 282.87 172.503 283.254 172.503C284.022 172.503 284.574 172.355 284.91 172.059C285.254 171.755 285.426 171.339 285.426 170.811C285.426 170.275 285.214 169.891 284.79 169.659C284.374 169.419 283.786 169.299 283.026 169.299H282.198V168.399H283.038C283.742 168.399 284.274 168.251 284.634 167.955C285.002 167.659 285.186 167.267 285.186 166.779C285.186 166.363 285.046 166.043 284.766 165.819C284.486 165.587 284.106 165.471 283.626 165.471C283.162 165.471 282.766 165.539 282.438 165.675C282.11 165.811 281.786 165.983 281.466 166.191L280.938 165.471C281.242 165.231 281.618 165.023 282.066 164.847C282.522 164.671 283.038 164.583 283.614 164.583C284.51 164.583 285.174 164.783 285.606 165.183C286.046 165.583 286.266 166.091 286.266 166.707Z" fill="#706C65"/>
<path d="M317.742 173.271H316.71V167.283C316.71 166.939 316.714 166.663 316.722 166.455C316.73 166.247 316.742 166.031 316.758 165.807C316.63 165.935 316.51 166.043 316.398 166.131C316.294 166.219 316.166 166.331 316.014 166.467L315.102 167.211L314.55 166.503L316.866 164.703H317.742V173.271ZM326.974 171.327H325.726V173.271H324.706V171.327H320.602V170.427L324.634 164.655H325.726V170.379H326.974V171.327ZM324.706 170.379V167.679C324.706 167.263 324.71 166.911 324.718 166.623C324.734 166.327 324.75 166.047 324.766 165.783H324.718C324.654 165.935 324.574 166.099 324.478 166.275C324.382 166.451 324.29 166.599 324.202 166.719L321.634 170.379H324.706Z" fill="#706C65"/>
<path d="M358.742 173.271H357.71V167.283C357.71 166.939 357.714 166.663 357.722 166.455C357.73 166.247 357.742 166.031 357.758 165.807C357.63 165.935 357.51 166.043 357.398 166.131C357.294 166.219 357.166 166.331 357.014 166.467L356.102 167.211L355.55 166.503L357.866 164.703H358.742V173.271ZM364.65 168.015C365.522 168.015 366.218 168.235 366.738 168.675C367.266 169.115 367.53 169.735 367.53 170.535C367.53 171.423 367.246 172.123 366.678 172.635C366.118 173.139 365.334 173.391 364.326 173.391C363.878 173.391 363.462 173.351 363.078 173.271C362.694 173.191 362.37 173.075 362.106 172.923V171.927C362.394 172.103 362.742 172.243 363.15 172.347C363.566 172.443 363.962 172.491 364.338 172.491C364.97 172.491 365.478 172.343 365.862 172.047C366.254 171.743 366.45 171.275 366.45 170.643C366.45 170.083 366.278 169.655 365.934 169.359C365.59 169.055 365.046 168.903 364.302 168.903C364.078 168.903 363.822 168.923 363.534 168.963C363.246 169.003 363.014 169.043 362.838 169.083L362.31 168.747L362.634 164.703H366.93V165.663H363.534L363.33 168.147C363.466 168.123 363.65 168.095 363.882 168.063C364.114 168.031 364.37 168.015 364.65 168.015Z" fill="#706C65"/>
<path d="M398.742 173.271H397.71V167.283C397.71 166.939 397.714 166.663 397.722 166.455C397.73 166.247 397.742 166.031 397.758 165.807C397.63 165.935 397.51 166.043 397.398 166.131C397.294 166.219 397.166 166.331 397.014 166.467L396.102 167.211L395.55 166.503L397.866 164.703H398.742V173.271ZM402.01 169.611C402.01 168.995 402.062 168.391 402.166 167.799C402.278 167.199 402.474 166.659 402.754 166.179C403.042 165.691 403.442 165.303 403.954 165.015C404.466 164.727 405.126 164.583 405.934 164.583C406.102 164.583 406.286 164.591 406.486 164.607C406.694 164.623 406.862 164.651 406.99 164.691V165.591C406.846 165.543 406.682 165.507 406.498 165.483C406.314 165.459 406.134 165.447 405.958 165.447C405.406 165.447 404.946 165.539 404.578 165.723C404.21 165.907 403.918 166.159 403.702 166.479C403.494 166.799 403.342 167.167 403.246 167.583C403.15 167.999 403.09 168.443 403.066 168.915H403.138C403.322 168.635 403.578 168.399 403.906 168.207C404.234 168.007 404.654 167.907 405.166 167.907C405.91 167.907 406.51 168.135 406.966 168.591C407.422 169.039 407.65 169.679 407.65 170.511C407.65 171.407 407.402 172.111 406.906 172.623C406.418 173.135 405.758 173.391 404.926 173.391C404.382 173.391 403.89 173.255 403.45 172.983C403.01 172.711 402.658 172.295 402.394 171.735C402.138 171.175 402.01 170.467 402.01 169.611ZM404.914 172.503C405.418 172.503 405.826 172.343 406.138 172.023C406.45 171.695 406.606 171.191 406.606 170.511C406.606 169.967 406.466 169.535 406.186 169.215C405.914 168.895 405.502 168.735 404.95 168.735C404.574 168.735 404.246 168.815 403.966 168.975C403.686 169.127 403.466 169.327 403.306 169.575C403.154 169.815 403.078 170.059 403.078 170.307C403.078 170.651 403.146 170.995 403.282 171.339C403.418 171.675 403.622 171.955 403.894 172.179C404.166 172.395 404.506 172.503 404.914 172.503Z" fill="#706C65"/>
<path d="M439.742 173.271H438.71V167.283C438.71 166.939 438.714 166.663 438.722 166.455C438.73 166.247 438.742 166.031 438.758 165.807C438.63 165.935 438.51 166.043 438.398 166.131C438.294 166.219 438.166 166.331 438.014 166.467L437.102 167.211L436.55 166.503L438.866 164.703H439.742V173.271ZM443.982 173.271L447.498 165.663H442.878V164.703H448.626V165.519L445.146 173.271H443.982Z" fill="#706C65"/>
<path d="M480.742 173.271H479.71V167.283C479.71 166.939 479.714 166.663 479.722 166.455C479.73 166.247 479.742 166.031 479.758 165.807C479.63 165.935 479.51 166.043 479.398 166.131C479.294 166.219 479.166 166.331 479.014 166.467L478.102 167.211L477.55 166.503L479.866 164.703H480.742V173.271ZM486.77 164.583C487.522 164.583 488.138 164.759 488.618 165.111C489.098 165.463 489.338 165.971 489.338 166.635C489.338 166.979 489.262 167.279 489.11 167.535C488.966 167.791 488.77 168.019 488.522 168.219C488.274 168.411 488.002 168.583 487.706 168.735C488.058 168.911 488.378 169.103 488.666 169.311C488.954 169.519 489.182 169.763 489.35 170.043C489.526 170.323 489.614 170.659 489.614 171.051C489.614 171.771 489.358 172.343 488.846 172.767C488.334 173.183 487.654 173.391 486.806 173.391C485.878 173.391 485.166 173.191 484.67 172.791C484.182 172.383 483.938 171.815 483.938 171.087C483.938 170.703 484.018 170.367 484.178 170.079C484.346 169.783 484.566 169.531 484.838 169.323C485.11 169.115 485.402 168.939 485.714 168.795C485.29 168.555 484.934 168.267 484.646 167.931C484.358 167.587 484.214 167.151 484.214 166.623C484.214 166.191 484.326 165.823 484.55 165.519C484.774 165.215 485.078 164.983 485.462 164.823C485.846 164.663 486.282 164.583 486.77 164.583ZM486.758 165.435C486.31 165.435 485.946 165.543 485.666 165.759C485.386 165.967 485.246 166.271 485.246 166.671C485.246 166.967 485.314 167.215 485.45 167.415C485.594 167.615 485.786 167.787 486.026 167.931C486.266 168.067 486.53 168.199 486.818 168.327C487.234 168.151 487.582 167.939 487.862 167.691C488.15 167.443 488.294 167.103 488.294 166.671C488.294 166.271 488.154 165.967 487.874 165.759C487.594 165.543 487.222 165.435 486.758 165.435ZM484.97 171.099C484.97 171.515 485.118 171.863 485.414 172.143C485.71 172.415 486.166 172.551 486.782 172.551C487.366 172.551 487.81 172.415 488.114 172.143C488.426 171.863 488.582 171.503 488.582 171.063C488.582 170.647 488.418 170.303 488.09 170.031C487.762 169.751 487.326 169.507 486.782 169.299L486.59 169.227C486.062 169.459 485.658 169.719 485.378 170.007C485.106 170.295 484.97 170.659 484.97 171.099Z" fill="#706C65"/>
<path d="M520.742 173.271H519.71V167.283C519.71 166.939 519.714 166.663 519.722 166.455C519.73 166.247 519.742 166.031 519.758 165.807C519.63 165.935 519.51 166.043 519.398 166.131C519.294 166.219 519.166 166.331 519.014 166.467L518.102 167.211L517.55 166.503L519.866 164.703H520.742V173.271ZM529.59 168.363C529.59 168.979 529.534 169.587 529.422 170.187C529.318 170.779 529.122 171.319 528.834 171.807C528.554 172.287 528.154 172.671 527.634 172.959C527.122 173.247 526.462 173.391 525.654 173.391C525.494 173.391 525.306 173.379 525.09 173.355C524.874 173.339 524.702 173.311 524.574 173.271V172.371C524.886 172.475 525.238 172.527 525.63 172.527C526.19 172.527 526.65 172.435 527.01 172.251C527.378 172.067 527.67 171.819 527.886 171.507C528.102 171.187 528.258 170.819 528.354 170.403C528.45 169.979 528.506 169.535 528.522 169.071H528.45C528.266 169.343 528.01 169.579 527.682 169.779C527.354 169.971 526.93 170.067 526.41 170.067C525.674 170.067 525.078 169.843 524.622 169.395C524.174 168.939 523.95 168.299 523.95 167.475C523.95 166.875 524.062 166.359 524.286 165.927C524.51 165.495 524.826 165.163 525.234 164.931C525.65 164.699 526.134 164.583 526.686 164.583C527.23 164.583 527.722 164.723 528.162 165.003C528.602 165.275 528.95 165.691 529.206 166.251C529.462 166.803 529.59 167.507 529.59 168.363ZM526.686 165.471C526.19 165.471 525.782 165.635 525.462 165.963C525.15 166.291 524.994 166.791 524.994 167.463C524.994 168.015 525.126 168.451 525.39 168.771C525.662 169.083 526.078 169.239 526.638 169.239C527.022 169.239 527.354 169.163 527.634 169.011C527.914 168.851 528.13 168.651 528.282 168.411C528.442 168.171 528.522 167.923 528.522 167.667C528.522 167.323 528.454 166.983 528.318 166.647C528.182 166.311 527.978 166.031 527.706 165.807C527.434 165.583 527.094 165.471 526.686 165.471Z" fill="#706C65"/>
<path d="M563.722 173.271H558.058V172.395L560.302 170.127C560.726 169.695 561.086 169.311 561.382 168.975C561.686 168.639 561.914 168.311 562.066 167.991C562.218 167.671 562.294 167.315 562.294 166.923C562.294 166.451 562.154 166.095 561.874 165.855C561.594 165.607 561.23 165.483 560.782 165.483C560.358 165.483 559.99 165.555 559.678 165.699C559.366 165.843 559.046 166.043 558.718 166.299L558.154 165.591C558.49 165.311 558.874 165.075 559.306 164.883C559.746 164.683 560.238 164.583 560.782 164.583C561.582 164.583 562.214 164.787 562.678 165.195C563.142 165.603 563.374 166.159 563.374 166.863C563.374 167.311 563.282 167.731 563.098 168.123C562.914 168.515 562.658 168.903 562.33 169.287C562.002 169.671 561.618 170.075 561.178 170.499L559.39 172.263V172.311H563.722V173.271ZM570.626 168.975C570.626 169.903 570.53 170.695 570.338 171.351C570.146 172.007 569.838 172.511 569.414 172.863C568.998 173.215 568.45 173.391 567.77 173.391C566.802 173.391 566.086 173.003 565.622 172.227C565.166 171.443 564.938 170.359 564.938 168.975C564.938 168.047 565.03 167.255 565.214 166.599C565.406 165.943 565.71 165.443 566.126 165.099C566.542 164.747 567.09 164.571 567.77 164.571C568.73 164.571 569.446 164.959 569.918 165.735C570.39 166.503 570.626 167.583 570.626 168.975ZM565.994 168.975C565.994 170.151 566.126 171.031 566.39 171.615C566.662 172.199 567.122 172.491 567.77 172.491C568.41 172.491 568.866 172.203 569.138 171.627C569.418 171.043 569.558 170.159 569.558 168.975C569.558 167.807 569.418 166.931 569.138 166.347C568.866 165.763 568.41 165.471 567.77 165.471C567.122 165.471 566.662 165.763 566.39 166.347C566.126 166.931 565.994 167.807 565.994 168.975Z" fill="#706C65"/>
<path d="M604.722 172.271H599.058V171.395L601.302 169.127C601.726 168.695 602.086 168.311 602.382 167.975C602.686 167.639 602.914 167.311 603.066 166.991C603.218 166.671 603.294 166.315 603.294 165.923C603.294 165.451 603.154 165.095 602.874 164.855C602.594 164.607 602.23 164.483 601.782 164.483C601.358 164.483 600.99 164.555 600.678 164.699C600.366 164.843 600.046 165.043 599.718 165.299L599.154 164.591C599.49 164.311 599.874 164.075 600.306 163.883C600.746 163.683 601.238 163.583 601.782 163.583C602.582 163.583 603.214 163.787 603.678 164.195C604.142 164.603 604.374 165.159 604.374 165.863C604.374 166.311 604.282 166.731 604.098 167.123C603.914 167.515 603.658 167.903 603.33 168.287C603.002 168.671 602.618 169.075 602.178 169.499L600.39 171.263V171.311H604.722V172.271ZM609.61 172.271H608.578V166.283C608.578 165.939 608.582 165.663 608.59 165.455C608.598 165.247 608.61 165.031 608.626 164.807C608.498 164.935 608.378 165.043 608.266 165.131C608.162 165.219 608.034 165.331 607.882 165.467L606.97 166.211L606.418 165.503L608.734 163.703H609.61V172.271Z" fill="#706C65"/>
<path d="M47.4824 1.27075L47.4824 152.271" stroke="#D0D0D0"/>
<path d="M46.4824 151.271H632.482" stroke="#D0D0D0"/>
<rect x="215.479" y="66.4001" width="46.6009" height="27.7622" rx="5" fill="#DBF0F1"/>
<path d="M238.951 97.1776L236.096 92.2312L241.807 92.2312L238.951 97.1776Z" fill="#DBF0F1"/>
<path d="M223.648 87.3746L229.008 75.6346H221.968V73.0946H232.208V74.9946L226.808 87.3746H223.648ZM243.093 76.2946C243.093 77.2813 242.793 78.068 242.193 78.6546C241.606 79.2413 240.88 79.6413 240.013 79.8546V79.9146C241.146 80.0613 242.013 80.4146 242.613 80.9746C243.213 81.5346 243.513 82.2813 243.513 83.2146C243.513 84.0413 243.306 84.788 242.893 85.4546C242.493 86.108 241.866 86.628 241.013 87.0146C240.173 87.388 239.086 87.5746 237.753 87.5746C236.206 87.5746 234.833 87.3146 233.633 86.7946V84.2346C234.246 84.5413 234.886 84.7746 235.553 84.9346C236.22 85.0946 236.846 85.1746 237.433 85.1746C238.513 85.1746 239.266 84.988 239.693 84.6146C240.133 84.2413 240.353 83.7146 240.353 83.0346C240.353 82.648 240.253 82.3146 240.053 82.0346C239.853 81.7546 239.5 81.548 238.993 81.4146C238.5 81.268 237.806 81.1946 236.913 81.1946H235.833V78.8746H236.933C237.813 78.8746 238.48 78.7946 238.933 78.6346C239.4 78.4613 239.713 78.2346 239.873 77.9546C240.046 77.6613 240.133 77.328 240.133 76.9546C240.133 76.448 239.973 76.0546 239.653 75.7746C239.346 75.4813 238.826 75.3346 238.093 75.3346C237.413 75.3346 236.82 75.4546 236.313 75.6946C235.806 75.9346 235.386 76.1613 235.053 76.3746L233.653 74.2946C234.213 73.8946 234.866 73.5613 235.613 73.2946C236.373 73.028 237.273 72.8946 238.313 72.8946C239.78 72.8946 240.94 73.1946 241.793 73.7946C242.66 74.3813 243.093 75.2146 243.093 76.2946ZM245.018 81.3146C245.018 80.5013 245.078 79.6946 245.198 78.8946C245.318 78.0813 245.525 77.3213 245.818 76.6146C246.125 75.8946 246.545 75.2613 247.078 74.7146C247.625 74.1546 248.312 73.7213 249.138 73.4146C249.978 73.0946 250.992 72.9346 252.178 72.9346C252.458 72.9346 252.785 72.948 253.158 72.9746C253.532 72.988 253.845 73.0213 254.098 73.0746V75.4946C253.845 75.4413 253.565 75.3946 253.258 75.3546C252.965 75.3146 252.672 75.2946 252.378 75.2946C251.192 75.2946 250.272 75.4813 249.618 75.8546C248.978 76.228 248.525 76.7546 248.258 77.4346C247.992 78.1013 247.838 78.8746 247.798 79.7546H247.918C248.185 79.288 248.565 78.8946 249.058 78.5746C249.565 78.2546 250.218 78.0946 251.018 78.0946C252.272 78.0946 253.265 78.488 253.998 79.2746C254.732 80.0613 255.098 81.1746 255.098 82.6146C255.098 84.1613 254.658 85.3746 253.778 86.2546C252.912 87.1346 251.732 87.5746 250.238 87.5746C249.265 87.5746 248.385 87.3546 247.598 86.9146C246.812 86.4613 246.185 85.7746 245.718 84.8546C245.252 83.9213 245.018 82.7413 245.018 81.3146ZM250.178 85.1546C250.765 85.1546 251.245 84.9546 251.618 84.5546C251.992 84.1413 252.178 83.508 252.178 82.6546C252.178 81.9613 252.018 81.4146 251.698 81.0146C251.378 80.6146 250.892 80.4146 250.238 80.4146C249.785 80.4146 249.392 80.5146 249.058 80.7146C248.738 80.9146 248.485 81.168 248.298 81.4746C248.112 81.768 248.018 82.0746 248.018 82.3946C248.018 82.8346 248.098 83.268 248.258 83.6946C248.418 84.1213 248.658 84.4746 248.978 84.7546C249.312 85.0213 249.712 85.1546 250.178 85.1546Z" fill="#706C65"/>
<rect x="397.482" y="148.271" width="148" height="8.99999" rx="4.5" transform="rotate(-90 397.482 148.271)" fill="#6EC1C5"/>
</svg>
