<svg width="28" height="23" viewBox="0 0 28 23" fill="none" xmlns="http://www.w3.org/2000/svg">
<path fill-rule="evenodd" clip-rule="evenodd" d="M8.56055 0C8.833 0 9.09429 0.104135 9.28694 0.289497C9.47959 0.474858 9.58782 0.726262 9.58782 0.988403V1.64734C9.58782 1.90948 9.47959 2.16088 9.28694 2.34625C9.09429 2.53161 8.833 2.63574 8.56055 2.63574C8.2881 2.63574 8.02681 2.53161 7.83416 2.34625C7.64151 2.16088 7.53328 1.90948 7.53328 1.64734V0.988403C7.53328 0.726262 7.64151 0.474858 7.83416 0.289497C8.02681 0.104135 8.2881 0 8.56055 0ZM2.50653 2.4117C2.60195 2.31966 2.71531 2.24663 2.84012 2.1968C2.96492 2.14697 3.09871 2.12132 3.23383 2.12132C3.36895 2.12132 3.50275 2.14697 3.62755 2.1968C3.75235 2.24663 3.86571 2.31966 3.96114 2.4117L4.25699 2.69768C4.44403 2.88418 4.54745 3.1339 4.54498 3.39306C4.54251 3.65221 4.43436 3.90007 4.2438 4.08324C4.05325 4.26641 3.79554 4.37025 3.5262 4.37238C3.25685 4.3745 2.99741 4.27476 2.80375 4.09462L2.5079 3.80996C2.31553 3.62464 2.20747 3.37342 2.20747 3.11149C2.20747 2.84957 2.31553 2.59835 2.5079 2.41302L2.50653 2.4117ZM14.6132 2.4117C14.7087 2.50349 14.7844 2.61248 14.8361 2.73244C14.8877 2.8524 14.9143 2.98098 14.9143 3.11083C14.9143 3.24069 14.8877 3.36927 14.8361 3.48923C14.7844 3.60919 14.7087 3.71817 14.6132 3.80996L14.3173 4.09462C14.2233 4.19173 14.1099 4.26962 13.9839 4.32364C13.8579 4.37767 13.7218 4.40672 13.5839 4.40906C13.446 4.4114 13.309 4.38699 13.1811 4.33727C13.0531 4.28756 12.9369 4.21357 12.8394 4.11971C12.7419 4.02586 12.665 3.91406 12.6133 3.79098C12.5616 3.66791 12.5362 3.53608 12.5387 3.40337C12.5411 3.27066 12.5713 3.13978 12.6275 3.01853C12.6836 2.89729 12.7646 2.78817 12.8655 2.69768L13.16 2.41302C13.2554 2.32117 13.3686 2.24831 13.4933 2.1986C13.618 2.14889 13.7516 2.1233 13.8866 2.1233C14.0215 2.1233 14.1552 2.14889 14.2799 2.1986C14.4045 2.24831 14.5178 2.32117 14.6132 2.41302V2.4117ZM0 8.23669C0 7.97455 0.10823 7.72315 0.300879 7.53779C0.493529 7.35242 0.754818 7.24829 1.02727 7.24829H1.71211C1.98456 7.24829 2.24585 7.35242 2.4385 7.53779C2.63115 7.72315 2.73938 7.97455 2.73938 8.23669C2.73938 8.49883 2.63115 8.75024 2.4385 8.9356C2.24585 9.12096 1.98456 9.2251 1.71211 9.2251H1.02727C0.754818 9.2251 0.493529 9.12096 0.300879 8.9356C0.10823 8.75024 0 8.49883 0 8.23669ZM4.25699 12.3788C4.44936 12.5641 4.55742 12.8153 4.55742 13.0772C4.55742 13.3392 4.44936 13.5904 4.25699 13.7757L3.96114 14.0604C3.76748 14.2405 3.50804 14.3402 3.23869 14.3381C2.96934 14.336 2.71164 14.2322 2.52109 14.049C2.33053 13.8658 2.22237 13.618 2.21991 13.3588C2.21744 13.0996 2.32086 12.8499 2.5079 12.6634L2.80375 12.3788C2.99636 12.1937 3.25746 12.0897 3.52969 12.0897C3.80191 12.0897 4.06438 12.1937 4.25699 12.3788Z" fill="#FEDEA7"/>
<path d="M20.4856 22.2795C24.8083 22.2795 27.9696 21.4476 27.9696 17.3371C27.9696 14.0424 25.2302 12.7061 23.0455 12.7061C22.61 8.98841 19.2926 6.097 15.2671 6.097C10.9443 6.097 7.44066 9.42858 7.44066 13.539C7.44066 14.4483 7.61187 15.3181 7.92553 16.1247C7.55097 16.0546 6.28267 16.1247 5.55323 16.6782C4.68484 17.3371 4 17.9961 4 19.3139C4 21.2907 5.44744 22.2795 6.78869 22.2795H20.4856ZM11.6648 4.66653C10.6829 4.09475 9.52041 3.88089 8.38856 4.06379C7.25671 4.2467 6.23062 4.81425 5.49676 5.66329C4.7629 6.51233 4.36997 7.58652 4.38938 8.69065C4.40879 9.79478 4.51311 10.3389 5.2764 11.1635C5.7777 11.722 6.78869 12.2387 6.78869 12.2387C6.78869 12.2387 7.92553 6.98746 13.197 5.84841C13.197 5.84841 12.1341 4.93983 11.6648 4.66653Z" fill="#FEDEA7"/>
</svg>
