<svg width="28" height="28" viewBox="0 0 28 28" fill="none" xmlns="http://www.w3.org/2000/svg">
<path d="M21.6279 13.9999C21.6279 16.0723 20.8047 18.0598 19.3393 19.5252C17.8739 20.9906 15.8863 21.8138 13.814 21.8138C11.7416 21.8138 9.75405 20.9906 8.28865 19.5252C6.82325 18.0598 6 16.0723 6 13.9999C6 11.9275 6.82325 9.93997 8.28865 8.47457C9.75405 7.00917 11.7416 6.18591 13.814 6.18591C15.8863 6.18591 17.8739 7.00917 19.3393 8.47457C20.8047 9.93997 21.6279 11.9275 21.6279 13.9999Z" fill="#97CDF4"/>
<path fill-rule="evenodd" clip-rule="evenodd" d="M14 0C14.259 0 14.5075 0.102907 14.6907 0.286082C14.8738 0.469257 14.9767 0.717696 14.9767 0.976744V2.27907C14.9767 2.53812 14.8738 2.78656 14.6907 2.96973C14.5075 3.15291 14.259 3.25581 14 3.25581C13.741 3.25581 13.4925 3.15291 13.3093 2.96973C13.1262 2.78656 13.0233 2.53812 13.0233 2.27907V0.976744C13.0233 0.717696 13.1262 0.469257 13.3093 0.286082C13.4925 0.102907 13.741 0 14 0ZM4.10102 4.10102C4.28416 3.91811 4.53242 3.81537 4.79126 3.81537C5.05009 3.81537 5.29835 3.91811 5.48149 4.10102L5.9933 4.61153C6.17131 4.79567 6.26988 5.04235 6.26778 5.29845C6.26567 5.55455 6.16307 5.79958 5.98205 5.98076C5.80104 6.16195 5.55611 6.26478 5.30001 6.26713C5.04391 6.26947 4.79714 6.17114 4.61284 5.9933L4.10102 5.48149C3.91811 5.29835 3.81537 5.05009 3.81537 4.79126C3.81537 4.53242 3.91811 4.28416 4.10102 4.10102ZM23.899 4.10102C24.0819 4.28416 24.1846 4.53242 24.1846 4.79126C24.1846 5.05009 24.0819 5.29835 23.899 5.48149L23.3872 5.9933C23.202 6.16583 22.9571 6.25976 22.7041 6.2553C22.451 6.25083 22.2096 6.14832 22.0306 5.96937C21.8517 5.79041 21.7492 5.54898 21.7447 5.29594C21.7402 5.04289 21.8342 4.798 22.0067 4.61284L22.5185 4.10102C22.7017 3.91811 22.9499 3.81537 23.2087 3.81537C23.4676 3.81537 23.7158 3.91811 23.899 4.10102ZM0 14C0 13.741 0.102907 13.4925 0.286082 13.3093C0.469257 13.1262 0.717696 13.0233 0.976744 13.0233H2.27907C2.53812 13.0233 2.78656 13.1262 2.96973 13.3093C3.15291 13.4925 3.25581 13.741 3.25581 14C3.25581 14.259 3.15291 14.5075 2.96973 14.6907C2.78656 14.8738 2.53812 14.9767 2.27907 14.9767H0.976744C0.717696 14.9767 0.469257 14.8738 0.286082 14.6907C0.102907 14.5075 0 14.259 0 14ZM24.7442 14C24.7442 13.741 24.8471 13.4925 25.0303 13.3093C25.2134 13.1262 25.4619 13.0233 25.7209 13.0233H27.0233C27.2823 13.0233 27.5307 13.1262 27.7139 13.3093C27.8971 13.4925 28 13.741 28 14C28 14.259 27.8971 14.5075 27.7139 14.6907C27.5307 14.8738 27.2823 14.9767 27.0233 14.9767H25.7209C25.4619 14.9767 25.2134 14.8738 25.0303 14.6907C24.8471 14.5075 24.7442 14.259 24.7442 14ZM22.0067 22.0067C22.1898 21.8238 22.4381 21.721 22.6969 21.721C22.9558 21.721 23.204 21.8238 23.3872 22.0067L23.899 22.5185C23.9949 22.6079 24.0719 22.7158 24.1253 22.8356C24.1787 22.9554 24.2074 23.0847 24.2097 23.2159C24.212 23.347 24.1879 23.4773 24.1388 23.5989C24.0896 23.7205 24.0165 23.831 23.9238 23.9238C23.831 24.0165 23.7205 24.0896 23.5989 24.1388C23.4773 24.1879 23.347 24.212 23.2159 24.2097C23.0847 24.2074 22.9554 24.1787 22.8356 24.1253C22.7158 24.0719 22.6079 23.9949 22.5185 23.899L22.0067 23.3872C21.8238 23.204 21.721 22.9558 21.721 22.6969C21.721 22.4381 21.8238 22.1898 22.0067 22.0067ZM5.9933 22.0067C6.17621 22.1898 6.27895 22.4381 6.27895 22.6969C6.27895 22.9558 6.17621 23.204 5.9933 23.3872L5.48149 23.899C5.39207 23.9949 5.28423 24.0719 5.16442 24.1253C5.04461 24.1787 4.91527 24.2074 4.78412 24.2097C4.65297 24.212 4.5227 24.1879 4.40108 24.1388C4.27946 24.0896 4.16898 24.0165 4.07623 23.9238C3.98348 23.831 3.91036 23.7205 3.86124 23.5989C3.81211 23.4773 3.78799 23.347 3.7903 23.2159C3.79261 23.0847 3.82132 22.9554 3.8747 22.8356C3.92809 22.7158 4.00506 22.6079 4.10102 22.5185L4.61153 22.0067C4.70224 21.9159 4.80995 21.8439 4.92849 21.7948C5.04704 21.7457 5.1741 21.7204 5.30242 21.7204C5.43074 21.7204 5.5578 21.7457 5.67635 21.7948C5.79489 21.8439 5.9026 21.9159 5.9933 22.0067ZM14 24.7442C14.259 24.7442 14.5075 24.8471 14.6907 25.0303C14.8738 25.2134 14.9767 25.4619 14.9767 25.7209V27.0233C14.9767 27.2823 14.8738 27.5307 14.6907 27.7139C14.5075 27.8971 14.259 28 14 28C13.741 28 13.4925 27.8971 13.3093 27.7139C13.1262 27.5307 13.0233 27.2823 13.0233 27.0233V25.7209C13.0233 25.4619 13.1262 25.2134 13.3093 25.0303C13.4925 24.8471 13.741 24.7442 14 24.7442Z" fill="#97CDF4"/>
</svg>
