<svg width="146" height="147" viewBox="0 0 146 147" fill="none" xmlns="http://www.w3.org/2000/svg">
<path d="M64.5599 73.0997C66.6023 78.4451 66.385 84.0077 60.2578 86.2241C47.6557 90.8741 44.831 78.6624 44.6572 78.0539L64.5599 73.0997ZM42.7017 69.5796L61.4746 64.9296C60.6489 60.3664 61.9091 55.8033 61.9091 50.4145C61.9091 43.1135 56.1295 28.8158 46.9169 31.119C36.4007 33.7265 34.8797 45.4168 35.2708 51.0664C35.7923 56.7159 42.3975 68.7973 42.7017 69.5796ZM96.5679 94.6984C96.4375 95.3503 93.5694 107.519 80.9673 102.912C74.8836 100.652 74.6228 95.0896 76.6652 89.7442L96.5679 94.6984ZM105.911 67.7543C106.345 62.1048 104.868 50.371 94.3082 47.7636C85.1391 45.3733 79.3595 59.758 79.3595 67.1025C79.3595 72.4478 80.5762 77.0109 79.8375 81.5741L98.5234 86.2241C98.871 85.4418 105.433 73.3604 105.911 67.7543Z" fill="#F5C371" fill-opacity="0.5"/>
<path d="M54.5044 118.261H95.2078" stroke="#6EC1C5"/>
<path d="M67.0442 126.111H68.7382V128.967C68.7382 129.737 68.5842 130.143 68.0242 130.381C67.4642 130.605 66.7222 130.605 65.7562 130.605C65.6862 130.157 65.4482 129.527 65.2522 129.107C65.8402 129.135 66.5822 129.135 66.7922 129.121C66.9882 129.121 67.0442 129.079 67.0442 128.925V126.111ZM64.1602 126.489L65.9102 127.063C65.1262 128.295 63.8662 129.541 62.8022 130.297C62.4662 129.975 61.7522 129.429 61.3322 129.163C62.4242 128.533 63.5442 127.511 64.1602 126.489ZM71.2022 126.909L72.9242 127.455C71.3982 131.557 68.4722 133.125 63.3902 133.895C63.2222 133.391 62.8862 132.719 62.5362 132.313C67.2402 131.781 69.9562 130.451 71.2022 126.909ZM61.5282 124.697H74.1842V126.279H61.5282V124.697ZM68.0522 122.079H72.7142V123.647H68.0522V122.079ZM67.0302 120.735H68.7662V125.691H67.0302V120.735ZM63.4462 121.645H65.1542V125.551H63.4462V121.645ZM83.7742 123.297H88.4222V124.837H83.7742V123.297ZM83.9142 120.721L85.5242 120.959C85.1182 123.843 84.3902 126.643 83.1582 128.407C82.9342 128.099 82.3182 127.469 81.9682 127.189C83.0462 125.677 83.6202 123.241 83.9142 120.721ZM86.1822 124.193L87.7362 124.319C87.2462 128.953 86.0702 132.047 82.9622 133.937C82.8222 133.587 82.3462 132.887 82.0662 132.565C84.8382 131.039 85.8322 128.239 86.1822 124.193ZM84.6562 124.585C85.1322 128.127 86.1682 131.193 88.5062 132.579C88.1422 132.873 87.6382 133.503 87.4002 133.909C84.8522 132.215 83.8022 128.925 83.2282 124.781L84.6562 124.585ZM78.3562 120.735H79.7982V128.211H78.3562V120.735ZM77.5442 122.485V124.515H80.6802V122.485H77.5442ZM76.1722 121.421H82.1362V125.579H76.1722V121.421ZM77.2642 127.035V127.609H80.9602V127.035H77.2642ZM75.8782 126.013H82.4162V128.617H75.8782V126.013ZM75.3182 129.205C77.2782 129.205 80.2602 129.163 83.0602 129.121L83.0182 130.297C80.2462 130.367 77.3202 130.409 75.3602 130.437L75.3182 129.205ZM78.0202 128.323L79.4062 128.645C78.8042 129.779 78.0062 131.123 77.4462 132.005L76.0882 131.669C76.6762 130.787 77.4742 129.401 78.0202 128.323ZM77.1662 131.669L77.9642 130.703C79.5742 131.249 81.3102 132.061 82.3182 132.705L81.2822 133.727C80.3582 133.069 78.7342 132.243 77.1662 131.669ZM80.4142 129.793L81.8142 129.947C81.2402 132.439 79.5602 133.391 76.2282 133.937C76.1442 133.503 75.8782 132.971 75.6402 132.649C78.4682 132.397 79.8822 131.711 80.4142 129.793ZM75.2762 122.891H76.6902V122.989H81.4502V122.891H83.0602V124.095H81.4502V123.997H76.6902V124.095H75.2762V122.891Z" fill="#6EC1C5"/>
</svg>
