<svg width="28" height="28" viewBox="0 0 28 28" fill="none" xmlns="http://www.w3.org/2000/svg">
<path d="M4.4039e-06 17.8182C4.4039e-06 16.5455 0.275762 15.4318 0.827277 14.4773C1.37879 13.5227 2.1 12.7273 2.99091 12.0909C3.88182 11.4545 4.9 10.9773 6.04546 10.6591C7.19091 10.3409 8.35758 10.1818 9.54546 10.1818C10.7333 10.1818 11.9 10.3409 13.0455 10.6591C14.1909 10.9773 15.2091 11.4545 16.1 12.0909C16.9909 12.7273 17.7121 13.5227 18.2636 14.4773C18.8152 15.4318 19.0909 16.5455 19.0909 17.8182H4.4039e-06ZM21.6364 28V17.8182C21.6364 15.3788 20.8884 13.3051 19.3925 11.5971C17.8967 9.88909 15.792 8.69612 13.0785 8.01818L12.7273 5.09091H19.0909V0H21.6364V5.09091H28L25.9 26.1545C25.8364 26.6636 25.6085 27.0985 25.2165 27.4591C24.8245 27.8197 24.3524 28 23.8 28H21.6364ZM4.4039e-06 22.9091V20.3636H19.0909V22.9091H4.4039e-06ZM1.27273 28C0.912125 28 0.609641 27.8778 0.365277 27.6334C0.120913 27.3891 -0.000844081 27.087 4.4039e-06 26.7273V25.4545H19.0909V26.7273C19.0909 27.0879 18.9687 27.3904 18.7244 27.6347C18.48 27.8791 18.1779 28.0008 17.8182 28H1.27273Z" fill="#7CD1D6"/>
</svg>
