<svg width="146" height="146" viewBox="0 0 146 146" fill="none" xmlns="http://www.w3.org/2000/svg">
<path d="M41.2271 125.814V130.966H39.6171V127.368H38.0491V125.814H41.2271ZM41.2271 130.308C41.7591 131.232 42.7531 131.638 44.1951 131.694C45.8751 131.778 49.1931 131.736 51.1391 131.582C50.9571 131.96 50.6911 132.73 50.6211 133.22C48.8711 133.304 45.8891 133.332 44.1811 133.248C42.5011 133.178 41.3671 132.772 40.5271 131.694C39.9671 132.24 39.3791 132.772 38.6791 133.374L37.8811 131.708C38.4691 131.33 39.1551 130.826 39.7711 130.308H41.2271ZM38.0911 121.656L39.3791 120.718C40.1771 121.334 41.1571 122.272 41.5911 122.93L40.2051 123.994C39.8271 123.308 38.8891 122.342 38.0911 121.656ZM45.4271 122.23H47.0511V131.386H45.4271V122.23ZM43.9851 127.158V127.718H48.5351V127.158H43.9851ZM43.9851 125.646V126.192H48.5351V125.646H43.9851ZM42.5571 124.624H50.0331V128.74H42.5571V124.624ZM41.8851 120.788H50.7331V122.72H49.1791V121.978H43.3691V122.72H41.8851V120.788ZM42.2771 122.944H50.2711V124.106H42.2771V122.944ZM41.7731 129.244H50.8871V130.462H41.7731V129.244ZM52.3291 129.412H58.8671V130.602H52.3291V129.412ZM52.0071 122.748H59.0071V123.966H52.0071V122.748ZM54.7931 121.754H56.3051V131.792H54.7931V121.754ZM51.9371 131.638C53.6731 131.512 56.3471 131.316 58.8671 131.092L58.8811 132.366C56.5011 132.618 53.9531 132.87 52.1331 133.038L51.9371 131.638ZM53.7151 127.172V127.816H57.4111V127.172H53.7151ZM53.7151 125.562V126.192H57.4111V125.562H53.7151ZM52.3711 124.512H58.7971V128.866H52.3711V124.512ZM58.1111 120.424L58.8531 121.684C57.0611 122.048 54.5131 122.258 52.4131 122.3C52.3571 121.964 52.2031 121.432 52.0491 121.11C54.1351 121.012 56.5711 120.76 58.1111 120.424ZM59.0071 123.518H63.8511V125.058H59.0071V123.518ZM63.1791 123.518H64.7891C64.7891 123.518 64.7751 124.064 64.7751 124.26C64.6491 130.028 64.5371 132.072 64.0751 132.702C63.7671 133.178 63.4451 133.332 62.9831 133.416C62.5491 133.5 61.8911 133.5 61.2331 133.472C61.1911 133.01 61.0091 132.324 60.7431 131.876C61.3451 131.932 61.8771 131.932 62.1571 131.932C62.3671 131.932 62.5071 131.89 62.6331 131.694C62.9551 131.274 63.0671 129.3 63.1791 123.882V123.518ZM60.3511 120.592H61.9611C61.9471 126.57 61.9331 131.064 58.6991 133.612C58.4611 133.206 57.9151 132.632 57.5371 132.352C60.4911 130.098 60.3371 126.178 60.3511 120.592ZM68.2331 125.492H75.8071V127.13H68.2331V125.492ZM75.2611 125.492H77.0251C77.0251 125.492 77.0111 126.01 76.9971 126.22C76.8431 130.476 76.6751 132.142 76.1851 132.716C75.8351 133.192 75.4431 133.318 74.9111 133.402C74.4211 133.472 73.6091 133.458 72.7831 133.43C72.7551 132.94 72.5311 132.212 72.2231 131.736C73.0071 131.806 73.7351 131.82 74.0851 131.82C74.3371 131.82 74.4911 131.778 74.6451 131.624C74.9811 131.26 75.1351 129.692 75.2611 125.8V125.492ZM69.8151 120.536L71.6351 121.068C70.5851 123.504 68.8771 125.758 67.1131 127.144C66.7911 126.78 66.0631 126.108 65.6571 125.786C67.4211 124.624 68.9751 122.664 69.8151 120.536ZM75.1491 120.508C76.0311 122.286 77.7951 124.33 79.3351 125.506C78.8731 125.87 78.2291 126.556 77.9071 127.032C76.3251 125.576 74.6031 123.308 73.4971 121.166L75.1491 120.508ZM70.7391 125.968H72.5591C72.2931 129.118 71.6911 132.044 67.5191 133.598C67.3091 133.136 66.8191 132.422 66.4271 132.058C70.1791 130.826 70.5151 128.46 70.7391 125.968ZM88.3371 120.438H89.9191V122.118H88.3371V120.438ZM85.6911 121.194H92.7611V122.398H85.6911V121.194ZM85.3131 123.434H93.0131V124.694H85.3131V123.434ZM86.6151 122.454L87.9591 122.188C88.1691 122.58 88.3791 123.112 88.4491 123.448L87.0351 123.756C86.9791 123.406 86.7971 122.86 86.6151 122.454ZM90.3391 122.118L91.7391 122.468C91.4731 122.986 91.2491 123.434 91.0531 123.77L89.8211 123.448C90.0031 123.07 90.2271 122.51 90.3391 122.118ZM87.2311 127.802V128.46H91.1651V127.802H87.2311ZM87.2311 126.178V126.822H91.1651V126.178H87.2311ZM85.9151 125.17H92.5371V129.468H85.9151V125.17ZM88.3651 125.982H89.9191V132.618H88.3651V125.982ZM85.8451 130.042H92.5791V131.26H85.8451V130.042ZM85.1871 131.946H93.0831V133.234H85.1871V131.946ZM80.9171 123.84H84.9631V125.24H80.9171V123.84ZM80.2451 126.262H85.3551V127.69H80.2451V126.262ZM80.3851 128.474L81.4491 128.208C81.6871 128.992 81.8831 129.972 81.9531 130.644L80.8191 130.938C80.7911 130.266 80.5951 129.258 80.3851 128.474ZM80.0911 131.68C81.4631 131.484 83.5491 131.106 85.5091 130.742L85.6211 132.128C83.8151 132.52 81.8831 132.912 80.4131 133.206L80.0911 131.68ZM84.2631 128.096L85.4671 128.39C85.2151 129.188 84.9911 130.07 84.7811 130.658L83.7731 130.378C83.9551 129.748 84.1651 128.768 84.2631 128.096ZM82.1631 124.4H83.6051V131.946L82.1631 132.198V124.4ZM82.0931 120.354H82.9751V120.662H83.4511V121.096C82.9051 122.16 82.0511 123.602 80.6651 124.862C80.4411 124.526 79.9651 123.994 79.6571 123.77C80.8331 122.762 81.6591 121.446 82.0931 120.354ZM82.3031 120.354H83.4791C84.2911 121.054 85.3411 122.048 85.8451 122.762L84.7671 124.05C84.3191 123.35 83.3671 122.174 82.5971 121.544H82.3031V120.354ZM102.435 122.916H107.083V124.456H102.435V122.916ZM102.575 120.34L104.185 120.578C103.779 123.462 103.051 126.262 101.819 128.026C101.595 127.718 100.979 127.088 100.629 126.808C101.707 125.296 102.281 122.86 102.575 120.34ZM104.843 123.812L106.397 123.938C105.907 128.572 104.731 131.666 101.623 133.556C101.483 133.206 101.007 132.506 100.727 132.184C103.499 130.658 104.493 127.858 104.843 123.812ZM103.317 124.204C103.793 127.746 104.829 130.812 107.167 132.198C106.803 132.492 106.299 133.122 106.061 133.528C103.513 131.834 102.463 128.544 101.889 124.4L103.317 124.204ZM97.0171 120.354H98.4591V127.83H97.0171V120.354ZM96.2051 122.104V124.134H99.3411V122.104H96.2051ZM94.8331 121.04H100.797V125.198H94.8331V121.04ZM95.9251 126.654V127.228H99.6211V126.654H95.9251ZM94.5391 125.632H101.077V128.236H94.5391V125.632ZM93.9791 128.824C95.9391 128.824 98.9211 128.782 101.721 128.74L101.679 129.916C98.9071 129.986 95.9811 130.028 94.0211 130.056L93.9791 128.824ZM96.6811 127.942L98.0671 128.264C97.4651 129.398 96.6671 130.742 96.1071 131.624L94.7491 131.288C95.3371 130.406 96.1351 129.02 96.6811 127.942ZM95.8271 131.288L96.6251 130.322C98.2351 130.868 99.9711 131.68 100.979 132.324L99.9431 133.346C99.0191 132.688 97.3951 131.862 95.8271 131.288ZM99.0751 129.412L100.475 129.566C99.9011 132.058 98.2211 133.01 94.8891 133.556C94.8051 133.122 94.5391 132.59 94.3011 132.268C97.1291 132.016 98.5431 131.33 99.0751 129.412ZM93.9371 122.51H95.3511V122.608H100.111V122.51H101.721V123.714H100.111V123.616H95.3511V123.714H93.9371V122.51Z" fill="#6EC1C5"/>
<path d="M52.1704 116.718H92.8632" stroke="#6EC1C5"/>
<path d="M82.5644 27.4219C85.3694 27.4173 88.0768 28.4459 90.1654 30.3096C92.254 32.1732 93.5761 34.7401 93.8769 37.516C94.1778 40.2919 93.4363 43.0805 91.7951 45.3447C90.1539 47.6088 87.7292 49.1886 84.9878 49.7797L84.3403 49.9003L89.7777 58.5577L96.3057 55.9571C97.2035 55.5963 98.2062 55.5916 99.1074 55.9439C100.009 56.2963 100.74 56.9789 101.151 57.8516C101.562 58.7242 101.622 59.7204 101.318 60.6355C101.014 61.5505 100.369 62.3149 99.5166 62.7714L99.1152 62.9599L92.5911 65.5567C91.0446 66.1726 89.3372 66.2638 87.7333 65.8161C86.1295 65.3685 84.7186 64.407 83.7193 63.0805L83.3558 62.5528L82.7386 61.5729L80.4439 70.709C80.2454 71.5039 79.918 72.2614 79.4746 72.9515L79.1338 73.4415L85.3929 78.0698C86.8859 79.1742 87.9183 80.7868 88.2934 82.6002L88.4032 83.2861L89.7398 95.2641H90.1374C91.1025 95.2651 92.0308 95.633 92.7326 96.2924C93.4344 96.9519 93.8567 97.8532 93.9132 98.8122C93.9698 99.7712 93.6563 100.715 93.0369 101.452C92.4175 102.189 91.5388 102.662 90.5804 102.776L90.1374 102.802H86.6917C85.7441 102.802 84.8247 102.481 84.0854 101.891C83.346 101.301 82.8309 100.478 82.625 99.557L82.5492 99.116L80.8756 84.1191L68.9481 75.2996C68.7359 75.1443 68.5405 74.9675 68.365 74.7719C67.3132 73.9336 66.505 72.8312 66.0238 71.5784C65.5426 70.3256 65.4057 68.9677 65.6273 67.6448L65.7523 67.053L68.7588 55.0789L62.8139 56.8503L59.6522 66.303C59.3485 67.2176 58.7046 67.9818 57.8526 68.4386C57.0006 68.8954 56.0052 69.0101 55.0709 68.7593C54.1366 68.5084 53.3342 67.911 52.8285 67.0898C52.3228 66.2685 52.1522 65.2857 52.3518 64.3431L52.4654 63.921L55.6309 54.4683C55.9826 53.4194 56.5618 52.4604 57.3274 51.6593C58.093 50.8581 59.0263 50.2344 60.0611 49.8324L60.6405 49.6327L73.6547 45.7468C72.3296 44.0805 71.503 42.0762 71.2699 39.9638C71.0367 37.8513 71.4063 35.7162 72.3364 33.8033C73.2665 31.8904 74.7193 30.2771 76.5284 29.1484C78.3374 28.0197 80.4294 27.4213 82.5644 27.4219ZM69.6902 77.1728C70.4936 77.7726 71.0248 78.6654 71.1668 79.655C71.3088 80.6446 71.0501 81.6497 70.4476 82.4494L65.8431 88.5628C64.972 89.7188 63.6892 90.4988 62.2583 90.7428C60.8274 90.9867 59.3569 90.6759 58.149 89.8744L50.841 85.0237C50.0846 85.6279 49.124 85.9201 48.1575 85.8402C47.191 85.7602 46.2921 85.3142 45.6462 84.594C45.0004 83.8738 44.6568 82.9343 44.6863 81.9694C44.7158 81.0045 45.1162 80.0876 45.8049 79.4078L47.6792 77.5459C48.3042 76.9227 49.1268 76.5343 50.0071 76.447C50.8874 76.3598 51.7709 76.579 52.507 77.0673L60.8601 82.6115L64.3891 77.9266C64.6875 77.5306 65.0613 77.1971 65.4891 76.9449C65.917 76.6927 66.3906 76.5269 66.8828 76.4569C67.3751 76.3869 67.8764 76.4141 68.3581 76.5369C68.8398 76.6598 69.2924 76.8758 69.6902 77.1728Z" fill="#F5C371" fill-opacity="0.5"/>
</svg>
