<svg width="1280" height="5416" viewBox="0 0 1280 5416" fill="none" xmlns="http://www.w3.org/2000/svg">
<mask id="mask0_222_454" style="mask-type:alpha" maskUnits="userSpaceOnUse" x="0" y="0" width="1280" height="5416">
<rect width="1280" height="5416" fill="#D9D9D9"/>
</mask>
<g mask="url(#mask0_222_454)">
<mask id="mask1_222_454" style="mask-type:alpha" maskUnits="userSpaceOnUse" x="-323" y="-1" width="1923" height="5417">
<rect x="-323" y="-1" width="1923" height="5417" fill="#EFF3F6"/>
</mask>
<g mask="url(#mask1_222_454)">
<rect x="-323" y="-1" width="1923" height="5417" fill="#EFF3F6"/>
<path d="M422.117 4836.1C55.3511 4717.02 -271.447 4802.02 -389 4859.41V5689.78C-103.346 5564.24 9.50534 5558.86 201.705 5553.48C393.904 5548.1 577.287 5558.86 728.931 5605.49C880.574 5652.12 1041.03 5693.37 1233.23 5689.78C1386.99 5686.91 1541.81 5632.39 1600 5605.49V4952.67C1557.68 4973.28 1534.76 4982.25 1481.86 4999.3C1134.49 5088.98 880.574 4984.96 422.117 4836.1Z" fill="url(#paint0_radial_222_454)"/>
<path d="M864.415 2362.01C1242.24 2286.7 1578.9 2340.46 1700 2376.75V2901.86C1405.73 2822.47 1289.47 2819.07 1091.48 2815.67C893.479 2812.26 704.564 2819.07 548.346 2848.56C392.128 2878.05 226.827 2904.13 28.8298 2901.86C-129.568 2900.05 -289.056 2865.57 -349 2848.56V2435.73C-305.404 2448.76 -281.79 2454.43 -227.295 2465.21C130.553 2521.92 392.128 2456.14 864.415 2362.01Z" fill="url(#paint1_radial_222_454)"/>
<path fill-rule="evenodd" clip-rule="evenodd" d="M1141.92 3949.54C1192.67 3947.39 1249.44 3930.89 1290.84 3960.33C1332.14 3989.71 1326.24 4052.25 1349.61 4097.23C1374.73 4145.58 1431.95 4179.48 1432.98 4233.95C1434.02 4289.29 1398.49 4342.59 1354.86 4376.64C1313.93 4408.59 1257.15 4401.12 1206.18 4410.98C1160.72 4419.78 1116.87 4441.36 1071.64 4431.46C1024.91 4421.23 983.789 4392.43 953.232 4355.62C923.05 4319.25 909.51 4273.25 901.645 4226.65C893.622 4179.11 890.027 4129.97 907.569 4085.06C925.658 4038.75 957.841 3997.49 1000.88 3972.6C1042.97 3948.26 1093.34 3951.6 1141.92 3949.54Z" fill="url(#paint2_radial_222_454)"/>
<path fill-rule="evenodd" clip-rule="evenodd" d="M-681.424 4145.26C-731.144 4069.64 -766.486 3980.22 -731.729 3889.36C-696.646 3797.66 -589.445 3725.01 -493.725 3654.63C-399.99 3585.71 -302.28 3510.42 -181.589 3484.88C-63.3601 3459.86 51.3451 3485.85 152.783 3517.81C241.944 3545.91 282.983 3616.09 361.631 3656.04C456.163 3704.07 612.823 3697.5 661.028 3776.04C708.712 3853.73 643.037 3957.27 602.615 4048.68C562.18 4140.12 529.362 4242.99 426.074 4307.35C323.914 4371.02 188.191 4360.86 65.5287 4383.39C-41.9143 4403.12 -152.435 4448.82 -251.955 4431.88C-350.198 4415.17 -394.609 4340.78 -466.381 4292.88C-540.257 4243.58 -637.115 4212.64 -681.424 4145.26Z" fill="url(#paint3_radial_222_454)"/>
<path d="M834.5 456.5C932.833 530 1193.5 712.5 1222.5 853.5C1259.97 1035.69 1087.5 1230.5 937.5 1296C787.5 1361.5 703 1389.5 543.5 1483.5C384 1577.5 220 1723 210.5 1863.5C201 2004 349 2117 496.5 2154C657.117 2194.29 870.5 2269.5 937.5 2342C1018.85 2430.03 1051.5 2504 1051.5 2574.5C1051.5 2645 989.5 2763.5 881.5 2867C773.5 2970.5 675 3069 567 3191C459 3313 351.5 3435 281 3561.5C210.5 3688 248 3781.5 281 3828.5C314 3875.5 436 3975 542 4020.5C588.675 4040.53 864.269 4218.04 951.5 4280C1024 4331.5 1218.5 4528 1111 4729.5" stroke="#706C65" stroke-opacity="0.5" stroke-width="2" stroke-linejoin="round" stroke-dasharray="20 20"/>
<g filter="url(#filter0_d_222_454)">
<circle cx="1064" cy="638" r="3" fill="#5BA7DD"/>
</g>
<g filter="url(#filter1_d_222_454)">
<circle cx="1228" cy="904" r="3" fill="#5BA7DD"/>
</g>
<g filter="url(#filter2_d_222_454)">
<circle cx="673" cy="1412" r="3" fill="#5BA7DD"/>
</g>
<g filter="url(#filter3_d_222_454)">
<circle cx="215" cy="1834" r="3" fill="#5BA7DD"/>
</g>
<g filter="url(#filter4_d_222_454)">
<circle cx="1029" cy="2475" r="3" fill="#5BA7DD"/>
</g>
<g filter="url(#filter5_d_222_454)">
<circle cx="547" cy="3213" r="3" fill="#5BA7DD"/>
</g>
<g filter="url(#filter6_d_222_454)">
<circle cx="433" cy="3346" r="3" fill="#5BA7DD"/>
</g>
<g filter="url(#filter7_d_222_454)">
<circle cx="724" cy="4130" r="3" fill="#5BA7DD"/>
</g>
<g filter="url(#filter8_d_222_454)">
<circle cx="941" cy="4273" r="3" fill="#5BA7DD"/>
</g>
<g filter="url(#filter9_d_222_454)">
<circle cx="1187" cy="1059" r="5" fill="#F5C371"/>
</g>
<g filter="url(#filter10_d_222_454)">
<circle cx="244" cy="1989" r="5" fill="#F5C371"/>
</g>
<g filter="url(#filter11_d_222_454)">
<circle cx="1012" cy="2695" r="5" fill="#F5C371"/>
</g>
<g filter="url(#filter12_d_222_454)">
<circle cx="259" cy="3607" r="5" fill="#F5C371"/>
</g>
<g filter="url(#filter13_d_222_454)">
<circle cx="1110" cy="4730" r="5" fill="#F5C371"/>
</g>
<path fill-rule="evenodd" clip-rule="evenodd" d="M810.572 1967.05C687.834 1870.6 497.362 1806.69 477.111 1651.91C457.327 1500.7 597.307 1365.73 720.055 1275.24C824.68 1198.11 969.231 1233.47 1094.03 1197.13C1191.14 1168.85 1269.48 1073.1 1369.8 1086.05C1469.97 1098.99 1531.57 1197.26 1607.84 1263.47C1681.88 1327.75 1754.4 1387.99 1810.36 1468.5C1885.76 1576.98 1995.35 1680.89 1989.74 1812.88C1983.99 1948.28 1896.33 2080.66 1781.31 2152.33C1670.62 2221.3 1529.43 2184.33 1399.06 2180.92C1293.09 2178.16 1190.61 2170.51 1090.98 2134.3C986.581 2096.36 897.914 2035.69 810.572 1967.05Z" fill="url(#paint4_diamond_222_454)"/>
<path d="M260.884 83.408C216.707 90.4821 107.13 126.014 57.8644 142.895C-36.9862 173.272 -235.566 280.422 -323 330.2V-1H1600V142.895C1413.49 240.969 1033.01 441.779 1003.12 460.429C965.767 483.742 902.425 498.212 852.076 505.447C801.728 512.682 744.07 503.839 685.601 487.761C627.131 471.684 588.151 427.47 569.473 398.53C550.796 369.59 541.051 322.161 539.427 300.456C537.802 278.752 545.639 251.962 555.5 236C561.392 226.462 580 199.5 577 176C575.017 160.468 563.789 136.5 551.608 123.5C539.427 110.5 510.5 97 494.762 92.2505C470.473 84.9204 428.984 72.9575 387.568 71.3497C346.211 69.7442 316.191 74.5515 261.12 83.3701L260.884 83.408Z" fill="url(#paint5_linear_222_454)"/>
</g>
</g>
<defs>
<filter id="filter0_d_222_454" x="1054" y="628" width="20" height="20" filterUnits="userSpaceOnUse" color-interpolation-filters="sRGB">
<feFlood flood-opacity="0" result="BackgroundImageFix"/>
<feColorMatrix in="SourceAlpha" type="matrix" values="0 0 0 0 0 0 0 0 0 0 0 0 0 0 0 0 0 0 127 0" result="hardAlpha"/>
<feMorphology radius="2" operator="dilate" in="SourceAlpha" result="effect1_dropShadow_222_454"/>
<feOffset/>
<feGaussianBlur stdDeviation="2.5"/>
<feComposite in2="hardAlpha" operator="out"/>
<feColorMatrix type="matrix" values="0 0 0 0 0.247917 0 0 0 0 0.763954 0 0 0 0 0.875 0 0 0 0.9 0"/>
<feBlend mode="normal" in2="BackgroundImageFix" result="effect1_dropShadow_222_454"/>
<feBlend mode="normal" in="SourceGraphic" in2="effect1_dropShadow_222_454" result="shape"/>
</filter>
<filter id="filter1_d_222_454" x="1218" y="894" width="20" height="20" filterUnits="userSpaceOnUse" color-interpolation-filters="sRGB">
<feFlood flood-opacity="0" result="BackgroundImageFix"/>
<feColorMatrix in="SourceAlpha" type="matrix" values="0 0 0 0 0 0 0 0 0 0 0 0 0 0 0 0 0 0 127 0" result="hardAlpha"/>
<feMorphology radius="2" operator="dilate" in="SourceAlpha" result="effect1_dropShadow_222_454"/>
<feOffset/>
<feGaussianBlur stdDeviation="2.5"/>
<feComposite in2="hardAlpha" operator="out"/>
<feColorMatrix type="matrix" values="0 0 0 0 0.247917 0 0 0 0 0.763954 0 0 0 0 0.875 0 0 0 0.9 0"/>
<feBlend mode="normal" in2="BackgroundImageFix" result="effect1_dropShadow_222_454"/>
<feBlend mode="normal" in="SourceGraphic" in2="effect1_dropShadow_222_454" result="shape"/>
</filter>
<filter id="filter2_d_222_454" x="663" y="1402" width="20" height="20" filterUnits="userSpaceOnUse" color-interpolation-filters="sRGB">
<feFlood flood-opacity="0" result="BackgroundImageFix"/>
<feColorMatrix in="SourceAlpha" type="matrix" values="0 0 0 0 0 0 0 0 0 0 0 0 0 0 0 0 0 0 127 0" result="hardAlpha"/>
<feMorphology radius="2" operator="dilate" in="SourceAlpha" result="effect1_dropShadow_222_454"/>
<feOffset/>
<feGaussianBlur stdDeviation="2.5"/>
<feComposite in2="hardAlpha" operator="out"/>
<feColorMatrix type="matrix" values="0 0 0 0 0.247917 0 0 0 0 0.763954 0 0 0 0 0.875 0 0 0 0.9 0"/>
<feBlend mode="normal" in2="BackgroundImageFix" result="effect1_dropShadow_222_454"/>
<feBlend mode="normal" in="SourceGraphic" in2="effect1_dropShadow_222_454" result="shape"/>
</filter>
<filter id="filter3_d_222_454" x="205" y="1824" width="20" height="20" filterUnits="userSpaceOnUse" color-interpolation-filters="sRGB">
<feFlood flood-opacity="0" result="BackgroundImageFix"/>
<feColorMatrix in="SourceAlpha" type="matrix" values="0 0 0 0 0 0 0 0 0 0 0 0 0 0 0 0 0 0 127 0" result="hardAlpha"/>
<feMorphology radius="2" operator="dilate" in="SourceAlpha" result="effect1_dropShadow_222_454"/>
<feOffset/>
<feGaussianBlur stdDeviation="2.5"/>
<feComposite in2="hardAlpha" operator="out"/>
<feColorMatrix type="matrix" values="0 0 0 0 0.247917 0 0 0 0 0.763954 0 0 0 0 0.875 0 0 0 0.9 0"/>
<feBlend mode="normal" in2="BackgroundImageFix" result="effect1_dropShadow_222_454"/>
<feBlend mode="normal" in="SourceGraphic" in2="effect1_dropShadow_222_454" result="shape"/>
</filter>
<filter id="filter4_d_222_454" x="1019" y="2465" width="20" height="20" filterUnits="userSpaceOnUse" color-interpolation-filters="sRGB">
<feFlood flood-opacity="0" result="BackgroundImageFix"/>
<feColorMatrix in="SourceAlpha" type="matrix" values="0 0 0 0 0 0 0 0 0 0 0 0 0 0 0 0 0 0 127 0" result="hardAlpha"/>
<feMorphology radius="2" operator="dilate" in="SourceAlpha" result="effect1_dropShadow_222_454"/>
<feOffset/>
<feGaussianBlur stdDeviation="2.5"/>
<feComposite in2="hardAlpha" operator="out"/>
<feColorMatrix type="matrix" values="0 0 0 0 0.247917 0 0 0 0 0.763954 0 0 0 0 0.875 0 0 0 0.9 0"/>
<feBlend mode="normal" in2="BackgroundImageFix" result="effect1_dropShadow_222_454"/>
<feBlend mode="normal" in="SourceGraphic" in2="effect1_dropShadow_222_454" result="shape"/>
</filter>
<filter id="filter5_d_222_454" x="537" y="3203" width="20" height="20" filterUnits="userSpaceOnUse" color-interpolation-filters="sRGB">
<feFlood flood-opacity="0" result="BackgroundImageFix"/>
<feColorMatrix in="SourceAlpha" type="matrix" values="0 0 0 0 0 0 0 0 0 0 0 0 0 0 0 0 0 0 127 0" result="hardAlpha"/>
<feMorphology radius="2" operator="dilate" in="SourceAlpha" result="effect1_dropShadow_222_454"/>
<feOffset/>
<feGaussianBlur stdDeviation="2.5"/>
<feComposite in2="hardAlpha" operator="out"/>
<feColorMatrix type="matrix" values="0 0 0 0 0.247917 0 0 0 0 0.763954 0 0 0 0 0.875 0 0 0 0.9 0"/>
<feBlend mode="normal" in2="BackgroundImageFix" result="effect1_dropShadow_222_454"/>
<feBlend mode="normal" in="SourceGraphic" in2="effect1_dropShadow_222_454" result="shape"/>
</filter>
<filter id="filter6_d_222_454" x="423" y="3336" width="20" height="20" filterUnits="userSpaceOnUse" color-interpolation-filters="sRGB">
<feFlood flood-opacity="0" result="BackgroundImageFix"/>
<feColorMatrix in="SourceAlpha" type="matrix" values="0 0 0 0 0 0 0 0 0 0 0 0 0 0 0 0 0 0 127 0" result="hardAlpha"/>
<feMorphology radius="2" operator="dilate" in="SourceAlpha" result="effect1_dropShadow_222_454"/>
<feOffset/>
<feGaussianBlur stdDeviation="2.5"/>
<feComposite in2="hardAlpha" operator="out"/>
<feColorMatrix type="matrix" values="0 0 0 0 0.247917 0 0 0 0 0.763954 0 0 0 0 0.875 0 0 0 0.9 0"/>
<feBlend mode="normal" in2="BackgroundImageFix" result="effect1_dropShadow_222_454"/>
<feBlend mode="normal" in="SourceGraphic" in2="effect1_dropShadow_222_454" result="shape"/>
</filter>
<filter id="filter7_d_222_454" x="714" y="4120" width="20" height="20" filterUnits="userSpaceOnUse" color-interpolation-filters="sRGB">
<feFlood flood-opacity="0" result="BackgroundImageFix"/>
<feColorMatrix in="SourceAlpha" type="matrix" values="0 0 0 0 0 0 0 0 0 0 0 0 0 0 0 0 0 0 127 0" result="hardAlpha"/>
<feMorphology radius="2" operator="dilate" in="SourceAlpha" result="effect1_dropShadow_222_454"/>
<feOffset/>
<feGaussianBlur stdDeviation="2.5"/>
<feComposite in2="hardAlpha" operator="out"/>
<feColorMatrix type="matrix" values="0 0 0 0 0.247917 0 0 0 0 0.763954 0 0 0 0 0.875 0 0 0 0.9 0"/>
<feBlend mode="normal" in2="BackgroundImageFix" result="effect1_dropShadow_222_454"/>
<feBlend mode="normal" in="SourceGraphic" in2="effect1_dropShadow_222_454" result="shape"/>
</filter>
<filter id="filter8_d_222_454" x="931" y="4263" width="20" height="20" filterUnits="userSpaceOnUse" color-interpolation-filters="sRGB">
<feFlood flood-opacity="0" result="BackgroundImageFix"/>
<feColorMatrix in="SourceAlpha" type="matrix" values="0 0 0 0 0 0 0 0 0 0 0 0 0 0 0 0 0 0 127 0" result="hardAlpha"/>
<feMorphology radius="2" operator="dilate" in="SourceAlpha" result="effect1_dropShadow_222_454"/>
<feOffset/>
<feGaussianBlur stdDeviation="2.5"/>
<feComposite in2="hardAlpha" operator="out"/>
<feColorMatrix type="matrix" values="0 0 0 0 0.247917 0 0 0 0 0.763954 0 0 0 0 0.875 0 0 0 0.9 0"/>
<feBlend mode="normal" in2="BackgroundImageFix" result="effect1_dropShadow_222_454"/>
<feBlend mode="normal" in="SourceGraphic" in2="effect1_dropShadow_222_454" result="shape"/>
</filter>
<filter id="filter9_d_222_454" x="1175" y="1047" width="24" height="24" filterUnits="userSpaceOnUse" color-interpolation-filters="sRGB">
<feFlood flood-opacity="0" result="BackgroundImageFix"/>
<feColorMatrix in="SourceAlpha" type="matrix" values="0 0 0 0 0 0 0 0 0 0 0 0 0 0 0 0 0 0 127 0" result="hardAlpha"/>
<feMorphology radius="2" operator="dilate" in="SourceAlpha" result="effect1_dropShadow_222_454"/>
<feOffset/>
<feGaussianBlur stdDeviation="2.5"/>
<feComposite in2="hardAlpha" operator="out"/>
<feColorMatrix type="matrix" values="0 0 0 0 0.960784 0 0 0 0 0.764706 0 0 0 0 0.443137 0 0 0 1 0"/>
<feBlend mode="normal" in2="BackgroundImageFix" result="effect1_dropShadow_222_454"/>
<feBlend mode="normal" in="SourceGraphic" in2="effect1_dropShadow_222_454" result="shape"/>
</filter>
<filter id="filter10_d_222_454" x="232" y="1977" width="24" height="24" filterUnits="userSpaceOnUse" color-interpolation-filters="sRGB">
<feFlood flood-opacity="0" result="BackgroundImageFix"/>
<feColorMatrix in="SourceAlpha" type="matrix" values="0 0 0 0 0 0 0 0 0 0 0 0 0 0 0 0 0 0 127 0" result="hardAlpha"/>
<feMorphology radius="2" operator="dilate" in="SourceAlpha" result="effect1_dropShadow_222_454"/>
<feOffset/>
<feGaussianBlur stdDeviation="2.5"/>
<feComposite in2="hardAlpha" operator="out"/>
<feColorMatrix type="matrix" values="0 0 0 0 0.960784 0 0 0 0 0.764706 0 0 0 0 0.443137 0 0 0 1 0"/>
<feBlend mode="normal" in2="BackgroundImageFix" result="effect1_dropShadow_222_454"/>
<feBlend mode="normal" in="SourceGraphic" in2="effect1_dropShadow_222_454" result="shape"/>
</filter>
<filter id="filter11_d_222_454" x="1000" y="2683" width="24" height="24" filterUnits="userSpaceOnUse" color-interpolation-filters="sRGB">
<feFlood flood-opacity="0" result="BackgroundImageFix"/>
<feColorMatrix in="SourceAlpha" type="matrix" values="0 0 0 0 0 0 0 0 0 0 0 0 0 0 0 0 0 0 127 0" result="hardAlpha"/>
<feMorphology radius="2" operator="dilate" in="SourceAlpha" result="effect1_dropShadow_222_454"/>
<feOffset/>
<feGaussianBlur stdDeviation="2.5"/>
<feComposite in2="hardAlpha" operator="out"/>
<feColorMatrix type="matrix" values="0 0 0 0 0.960784 0 0 0 0 0.764706 0 0 0 0 0.443137 0 0 0 1 0"/>
<feBlend mode="normal" in2="BackgroundImageFix" result="effect1_dropShadow_222_454"/>
<feBlend mode="normal" in="SourceGraphic" in2="effect1_dropShadow_222_454" result="shape"/>
</filter>
<filter id="filter12_d_222_454" x="247" y="3595" width="24" height="24" filterUnits="userSpaceOnUse" color-interpolation-filters="sRGB">
<feFlood flood-opacity="0" result="BackgroundImageFix"/>
<feColorMatrix in="SourceAlpha" type="matrix" values="0 0 0 0 0 0 0 0 0 0 0 0 0 0 0 0 0 0 127 0" result="hardAlpha"/>
<feMorphology radius="2" operator="dilate" in="SourceAlpha" result="effect1_dropShadow_222_454"/>
<feOffset/>
<feGaussianBlur stdDeviation="2.5"/>
<feComposite in2="hardAlpha" operator="out"/>
<feColorMatrix type="matrix" values="0 0 0 0 0.960784 0 0 0 0 0.764706 0 0 0 0 0.443137 0 0 0 1 0"/>
<feBlend mode="normal" in2="BackgroundImageFix" result="effect1_dropShadow_222_454"/>
<feBlend mode="normal" in="SourceGraphic" in2="effect1_dropShadow_222_454" result="shape"/>
</filter>
<filter id="filter13_d_222_454" x="1098" y="4718" width="24" height="24" filterUnits="userSpaceOnUse" color-interpolation-filters="sRGB">
<feFlood flood-opacity="0" result="BackgroundImageFix"/>
<feColorMatrix in="SourceAlpha" type="matrix" values="0 0 0 0 0 0 0 0 0 0 0 0 0 0 0 0 0 0 127 0" result="hardAlpha"/>
<feMorphology radius="2" operator="dilate" in="SourceAlpha" result="effect1_dropShadow_222_454"/>
<feOffset/>
<feGaussianBlur stdDeviation="2.5"/>
<feComposite in2="hardAlpha" operator="out"/>
<feColorMatrix type="matrix" values="0 0 0 0 0.960784 0 0 0 0 0.764706 0 0 0 0 0.443137 0 0 0 1 0"/>
<feBlend mode="normal" in2="BackgroundImageFix" result="effect1_dropShadow_222_454"/>
<feBlend mode="normal" in="SourceGraphic" in2="effect1_dropShadow_222_454" result="shape"/>
</filter>
<radialGradient id="paint0_radial_222_454" cx="0" cy="0" r="1" gradientUnits="userSpaceOnUse" gradientTransform="translate(683 5054.5) rotate(162.94) scale(1218.62 364.18)">
<stop stop-color="#97CDCD"/>
<stop offset="0.594639" stop-color="#D2E4E4"/>
<stop offset="1" stop-color="#D2E4E4" stop-opacity="0"/>
</radialGradient>
<radialGradient id="paint1_radial_222_454" cx="0" cy="0" r="1" gradientUnits="userSpaceOnUse" gradientTransform="translate(729.5 2579.5) rotate(114.871) scale(355.467 1260.12)">
<stop stop-color="#A7D2D2"/>
<stop offset="0.572917" stop-color="#D2E4E4"/>
<stop offset="1" stop-color="#D2E4E4" stop-opacity="0"/>
</radialGradient>
<radialGradient id="paint2_radial_222_454" cx="0" cy="0" r="1" gradientUnits="userSpaceOnUse" gradientTransform="translate(1209.5 4234) rotate(-143.507) scale(258.106 282.812)">
<stop offset="0.567708" stop-color="#D2E4E4"/>
<stop offset="1" stop-color="#D2E4E4" stop-opacity="0.3"/>
</radialGradient>
<radialGradient id="paint3_radial_222_454" cx="0" cy="0" r="1" gradientUnits="userSpaceOnUse" gradientTransform="translate(-236 4250.5) rotate(-25.4244) scale(1010.9 689.171)">
<stop offset="0.244322" stop-color="#B7DBDB"/>
<stop offset="0.503933" stop-color="#B7DBDB" stop-opacity="0.6"/>
<stop offset="0.744508" stop-color="#B7DBDB" stop-opacity="0.8"/>
<stop offset="1" stop-color="#B7DBDB" stop-opacity="0.5"/>
</radialGradient>
<radialGradient id="paint4_diamond_222_454" cx="0" cy="0" r="1" gradientUnits="userSpaceOnUse" gradientTransform="translate(974 1329) rotate(115.568) scale(732.2 783.998)">
<stop offset="0.450354" stop-color="#C6E3DD"/>
<stop offset="0.841165" stop-color="#C3E2DC" stop-opacity="0.36"/>
</radialGradient>
<linearGradient id="paint5_linear_222_454" x1="638.5" y1="-1" x2="604.5" y2="438.5" gradientUnits="userSpaceOnUse">
<stop stop-color="#B7DBDB"/>
<stop offset="1" stop-color="#B7DBDB" stop-opacity="0"/>
</linearGradient>
</defs>
</svg>
