<svg width="1920" height="5416" viewBox="0 0 1920 5416" fill="none" xmlns="http://www.w3.org/2000/svg">
<mask id="mask0_193_424" style="mask-type:alpha" maskUnits="userSpaceOnUse" x="-3" y="-1" width="1923" height="5417">
<rect x="-3" y="-1" width="1923" height="5417" fill="#EFF3F6"/>
</mask>
<g mask="url(#mask0_193_424)">
<rect x="-3" y="-1" width="1923" height="5417" fill="#EFF3F6"/>
<path d="M742.117 4836.1C375.351 4717.02 48.5532 4802.02 -69 4859.41V5689.78C216.654 5564.24 329.505 5558.86 521.705 5553.48C713.904 5548.1 897.287 5558.86 1048.93 5605.49C1200.57 5652.12 1361.03 5693.37 1553.23 5689.78C1706.99 5686.91 1861.81 5632.39 1920 5605.49V4952.67C1877.68 4973.28 1854.76 4982.25 1801.86 4999.3C1454.49 5088.98 1200.57 4984.96 742.117 4836.1Z" fill="url(#paint0_radial_193_424)"/>
<path d="M1184.41 2362.01C1562.24 2286.7 1898.9 2340.46 2020 2376.75V2901.86C1725.73 2822.47 1609.47 2819.07 1411.48 2815.67C1213.48 2812.26 1024.56 2819.07 868.346 2848.56C712.128 2878.05 546.827 2904.13 348.83 2901.86C190.432 2900.05 30.9442 2865.57 -29 2848.56V2435.73C14.5958 2448.76 38.2101 2454.43 92.7048 2465.21C450.553 2521.92 712.128 2456.14 1184.41 2362.01Z" fill="url(#paint1_radial_193_424)"/>
<path fill-rule="evenodd" clip-rule="evenodd" d="M1461.92 3949.54C1512.67 3947.39 1569.44 3930.89 1610.84 3960.33C1652.14 3989.71 1646.24 4052.25 1669.61 4097.23C1694.73 4145.58 1751.95 4179.48 1752.98 4233.95C1754.02 4289.29 1718.49 4342.59 1674.86 4376.64C1633.93 4408.59 1577.15 4401.12 1526.18 4410.98C1480.72 4419.78 1436.87 4441.36 1391.64 4431.46C1344.91 4421.23 1303.79 4392.43 1273.23 4355.62C1243.05 4319.25 1229.51 4273.25 1221.65 4226.65C1213.62 4179.11 1210.03 4129.97 1227.57 4085.06C1245.66 4038.75 1277.84 3997.49 1320.88 3972.6C1362.97 3948.26 1413.34 3951.6 1461.92 3949.54Z" fill="url(#paint2_radial_193_424)"/>
<path fill-rule="evenodd" clip-rule="evenodd" d="M-361.424 4145.26C-411.144 4069.64 -446.486 3980.22 -411.729 3889.36C-376.646 3797.66 -269.445 3725.01 -173.725 3654.63C-79.9901 3585.71 17.7202 3510.42 138.411 3484.88C256.64 3459.86 371.345 3485.85 472.783 3517.81C561.944 3545.91 602.983 3616.09 681.631 3656.04C776.163 3704.07 932.823 3697.5 981.028 3776.04C1028.71 3853.73 963.037 3957.27 922.615 4048.68C882.18 4140.12 849.362 4242.99 746.074 4307.35C643.914 4371.02 508.191 4360.86 385.529 4383.39C278.086 4403.12 167.565 4448.82 68.0454 4431.88C-30.1984 4415.17 -74.6088 4340.78 -146.381 4292.88C-220.257 4243.58 -317.115 4212.64 -361.424 4145.26Z" fill="url(#paint3_radial_193_424)"/>
<path d="M1154.5 456.5C1252.83 530 1513.5 712.5 1542.5 853.5C1579.97 1035.69 1407.5 1230.5 1257.5 1296C1107.5 1361.5 1023 1389.5 863.5 1483.5C704 1577.5 540 1723 530.5 1863.5C521 2004 669 2117 816.5 2154C977.117 2194.29 1190.5 2269.5 1257.5 2342C1338.85 2430.03 1371.5 2504 1371.5 2574.5C1371.5 2645 1309.5 2763.5 1201.5 2867C1093.5 2970.5 995 3069 887 3191C779 3313 671.5 3435 601 3561.5C530.5 3688 568 3781.5 601 3828.5C634 3875.5 756 3975 862 4020.5C908.675 4040.53 1184.27 4218.04 1271.5 4280C1344 4331.5 1538.5 4528 1431 4729.5" stroke="#706C65" stroke-opacity="0.5" stroke-width="2" stroke-linejoin="round" stroke-dasharray="20 20"/>
<g filter="url(#filter0_d_193_424)">
<circle cx="1384" cy="638" r="3" fill="#5BA7DD"/>
</g>
<g filter="url(#filter1_d_193_424)">
<circle cx="1548" cy="904" r="3" fill="#5BA7DD"/>
</g>
<g filter="url(#filter2_d_193_424)">
<circle cx="993" cy="1412" r="3" fill="#5BA7DD"/>
</g>
<g filter="url(#filter3_d_193_424)">
<circle cx="535" cy="1834" r="3" fill="#5BA7DD"/>
</g>
<g filter="url(#filter4_d_193_424)">
<circle cx="1349" cy="2475" r="3" fill="#5BA7DD"/>
</g>
<g filter="url(#filter5_d_193_424)">
<circle cx="867" cy="3213" r="3" fill="#5BA7DD"/>
</g>
<g filter="url(#filter6_d_193_424)">
<circle cx="753" cy="3346" r="3" fill="#5BA7DD"/>
</g>
<g filter="url(#filter7_d_193_424)">
<circle cx="1044" cy="4130" r="3" fill="#5BA7DD"/>
</g>
<g filter="url(#filter8_d_193_424)">
<circle cx="1261" cy="4273" r="3" fill="#5BA7DD"/>
</g>
<g filter="url(#filter9_d_193_424)">
<circle cx="1507" cy="1059" r="5" fill="#F5C371"/>
</g>
<g filter="url(#filter10_d_193_424)">
<circle cx="564" cy="1989" r="5" fill="#F5C371"/>
</g>
<g filter="url(#filter11_d_193_424)">
<circle cx="1332" cy="2695" r="5" fill="#F5C371"/>
</g>
<g filter="url(#filter12_d_193_424)">
<circle cx="579" cy="3607" r="5" fill="#F5C371"/>
</g>
<g filter="url(#filter13_d_193_424)">
<circle cx="1430" cy="4730" r="5" fill="#F5C371"/>
</g>
<path fill-rule="evenodd" clip-rule="evenodd" d="M1130.57 1967.05C1007.83 1870.6 817.362 1806.69 797.111 1651.91C777.327 1500.7 917.307 1365.73 1040.06 1275.24C1144.68 1198.11 1289.23 1233.47 1414.03 1197.13C1511.14 1168.85 1589.48 1073.1 1689.8 1086.05C1789.97 1098.99 1851.57 1197.26 1927.84 1263.47C2001.88 1327.75 2074.4 1387.99 2130.36 1468.5C2205.76 1576.98 2315.35 1680.89 2309.74 1812.88C2303.99 1948.28 2216.33 2080.66 2101.31 2152.33C1990.62 2221.3 1849.43 2184.33 1719.06 2180.92C1613.09 2178.16 1510.61 2170.51 1410.98 2134.3C1306.58 2096.36 1217.91 2035.69 1130.57 1967.05Z" fill="url(#paint4_diamond_193_424)"/>
<path d="M580.884 83.408C536.707 90.4821 427.13 126.014 377.864 142.895C283.014 173.272 84.4337 280.422 -3 330.2V-1H1920V142.895C1733.49 240.969 1353.01 441.779 1323.12 460.429C1285.77 483.742 1222.43 498.212 1172.08 505.447C1121.73 512.682 1064.07 503.839 1005.6 487.761C947.131 471.684 908.151 427.47 889.473 398.53C870.796 369.59 861.051 322.161 859.427 300.456C857.802 278.752 865.639 251.962 875.5 236C881.392 226.462 900 199.5 897 176C895.017 160.468 883.789 136.5 871.608 123.5C859.427 110.5 830.5 97 814.762 92.2505C790.473 84.9204 748.984 72.9575 707.568 71.3497C666.211 69.7442 636.191 74.5515 581.12 83.3701L580.884 83.408Z" fill="url(#paint5_linear_193_424)"/>
</g>
<defs>
<filter id="filter0_d_193_424" x="1374" y="628" width="20" height="20" filterUnits="userSpaceOnUse" color-interpolation-filters="sRGB">
<feFlood flood-opacity="0" result="BackgroundImageFix"/>
<feColorMatrix in="SourceAlpha" type="matrix" values="0 0 0 0 0 0 0 0 0 0 0 0 0 0 0 0 0 0 127 0" result="hardAlpha"/>
<feMorphology radius="2" operator="dilate" in="SourceAlpha" result="effect1_dropShadow_193_424"/>
<feOffset/>
<feGaussianBlur stdDeviation="2.5"/>
<feComposite in2="hardAlpha" operator="out"/>
<feColorMatrix type="matrix" values="0 0 0 0 0.247917 0 0 0 0 0.763954 0 0 0 0 0.875 0 0 0 0.9 0"/>
<feBlend mode="normal" in2="BackgroundImageFix" result="effect1_dropShadow_193_424"/>
<feBlend mode="normal" in="SourceGraphic" in2="effect1_dropShadow_193_424" result="shape"/>
</filter>
<filter id="filter1_d_193_424" x="1538" y="894" width="20" height="20" filterUnits="userSpaceOnUse" color-interpolation-filters="sRGB">
<feFlood flood-opacity="0" result="BackgroundImageFix"/>
<feColorMatrix in="SourceAlpha" type="matrix" values="0 0 0 0 0 0 0 0 0 0 0 0 0 0 0 0 0 0 127 0" result="hardAlpha"/>
<feMorphology radius="2" operator="dilate" in="SourceAlpha" result="effect1_dropShadow_193_424"/>
<feOffset/>
<feGaussianBlur stdDeviation="2.5"/>
<feComposite in2="hardAlpha" operator="out"/>
<feColorMatrix type="matrix" values="0 0 0 0 0.247917 0 0 0 0 0.763954 0 0 0 0 0.875 0 0 0 0.9 0"/>
<feBlend mode="normal" in2="BackgroundImageFix" result="effect1_dropShadow_193_424"/>
<feBlend mode="normal" in="SourceGraphic" in2="effect1_dropShadow_193_424" result="shape"/>
</filter>
<filter id="filter2_d_193_424" x="983" y="1402" width="20" height="20" filterUnits="userSpaceOnUse" color-interpolation-filters="sRGB">
<feFlood flood-opacity="0" result="BackgroundImageFix"/>
<feColorMatrix in="SourceAlpha" type="matrix" values="0 0 0 0 0 0 0 0 0 0 0 0 0 0 0 0 0 0 127 0" result="hardAlpha"/>
<feMorphology radius="2" operator="dilate" in="SourceAlpha" result="effect1_dropShadow_193_424"/>
<feOffset/>
<feGaussianBlur stdDeviation="2.5"/>
<feComposite in2="hardAlpha" operator="out"/>
<feColorMatrix type="matrix" values="0 0 0 0 0.247917 0 0 0 0 0.763954 0 0 0 0 0.875 0 0 0 0.9 0"/>
<feBlend mode="normal" in2="BackgroundImageFix" result="effect1_dropShadow_193_424"/>
<feBlend mode="normal" in="SourceGraphic" in2="effect1_dropShadow_193_424" result="shape"/>
</filter>
<filter id="filter3_d_193_424" x="525" y="1824" width="20" height="20" filterUnits="userSpaceOnUse" color-interpolation-filters="sRGB">
<feFlood flood-opacity="0" result="BackgroundImageFix"/>
<feColorMatrix in="SourceAlpha" type="matrix" values="0 0 0 0 0 0 0 0 0 0 0 0 0 0 0 0 0 0 127 0" result="hardAlpha"/>
<feMorphology radius="2" operator="dilate" in="SourceAlpha" result="effect1_dropShadow_193_424"/>
<feOffset/>
<feGaussianBlur stdDeviation="2.5"/>
<feComposite in2="hardAlpha" operator="out"/>
<feColorMatrix type="matrix" values="0 0 0 0 0.247917 0 0 0 0 0.763954 0 0 0 0 0.875 0 0 0 0.9 0"/>
<feBlend mode="normal" in2="BackgroundImageFix" result="effect1_dropShadow_193_424"/>
<feBlend mode="normal" in="SourceGraphic" in2="effect1_dropShadow_193_424" result="shape"/>
</filter>
<filter id="filter4_d_193_424" x="1339" y="2465" width="20" height="20" filterUnits="userSpaceOnUse" color-interpolation-filters="sRGB">
<feFlood flood-opacity="0" result="BackgroundImageFix"/>
<feColorMatrix in="SourceAlpha" type="matrix" values="0 0 0 0 0 0 0 0 0 0 0 0 0 0 0 0 0 0 127 0" result="hardAlpha"/>
<feMorphology radius="2" operator="dilate" in="SourceAlpha" result="effect1_dropShadow_193_424"/>
<feOffset/>
<feGaussianBlur stdDeviation="2.5"/>
<feComposite in2="hardAlpha" operator="out"/>
<feColorMatrix type="matrix" values="0 0 0 0 0.247917 0 0 0 0 0.763954 0 0 0 0 0.875 0 0 0 0.9 0"/>
<feBlend mode="normal" in2="BackgroundImageFix" result="effect1_dropShadow_193_424"/>
<feBlend mode="normal" in="SourceGraphic" in2="effect1_dropShadow_193_424" result="shape"/>
</filter>
<filter id="filter5_d_193_424" x="857" y="3203" width="20" height="20" filterUnits="userSpaceOnUse" color-interpolation-filters="sRGB">
<feFlood flood-opacity="0" result="BackgroundImageFix"/>
<feColorMatrix in="SourceAlpha" type="matrix" values="0 0 0 0 0 0 0 0 0 0 0 0 0 0 0 0 0 0 127 0" result="hardAlpha"/>
<feMorphology radius="2" operator="dilate" in="SourceAlpha" result="effect1_dropShadow_193_424"/>
<feOffset/>
<feGaussianBlur stdDeviation="2.5"/>
<feComposite in2="hardAlpha" operator="out"/>
<feColorMatrix type="matrix" values="0 0 0 0 0.247917 0 0 0 0 0.763954 0 0 0 0 0.875 0 0 0 0.9 0"/>
<feBlend mode="normal" in2="BackgroundImageFix" result="effect1_dropShadow_193_424"/>
<feBlend mode="normal" in="SourceGraphic" in2="effect1_dropShadow_193_424" result="shape"/>
</filter>
<filter id="filter6_d_193_424" x="743" y="3336" width="20" height="20" filterUnits="userSpaceOnUse" color-interpolation-filters="sRGB">
<feFlood flood-opacity="0" result="BackgroundImageFix"/>
<feColorMatrix in="SourceAlpha" type="matrix" values="0 0 0 0 0 0 0 0 0 0 0 0 0 0 0 0 0 0 127 0" result="hardAlpha"/>
<feMorphology radius="2" operator="dilate" in="SourceAlpha" result="effect1_dropShadow_193_424"/>
<feOffset/>
<feGaussianBlur stdDeviation="2.5"/>
<feComposite in2="hardAlpha" operator="out"/>
<feColorMatrix type="matrix" values="0 0 0 0 0.247917 0 0 0 0 0.763954 0 0 0 0 0.875 0 0 0 0.9 0"/>
<feBlend mode="normal" in2="BackgroundImageFix" result="effect1_dropShadow_193_424"/>
<feBlend mode="normal" in="SourceGraphic" in2="effect1_dropShadow_193_424" result="shape"/>
</filter>
<filter id="filter7_d_193_424" x="1034" y="4120" width="20" height="20" filterUnits="userSpaceOnUse" color-interpolation-filters="sRGB">
<feFlood flood-opacity="0" result="BackgroundImageFix"/>
<feColorMatrix in="SourceAlpha" type="matrix" values="0 0 0 0 0 0 0 0 0 0 0 0 0 0 0 0 0 0 127 0" result="hardAlpha"/>
<feMorphology radius="2" operator="dilate" in="SourceAlpha" result="effect1_dropShadow_193_424"/>
<feOffset/>
<feGaussianBlur stdDeviation="2.5"/>
<feComposite in2="hardAlpha" operator="out"/>
<feColorMatrix type="matrix" values="0 0 0 0 0.247917 0 0 0 0 0.763954 0 0 0 0 0.875 0 0 0 0.9 0"/>
<feBlend mode="normal" in2="BackgroundImageFix" result="effect1_dropShadow_193_424"/>
<feBlend mode="normal" in="SourceGraphic" in2="effect1_dropShadow_193_424" result="shape"/>
</filter>
<filter id="filter8_d_193_424" x="1251" y="4263" width="20" height="20" filterUnits="userSpaceOnUse" color-interpolation-filters="sRGB">
<feFlood flood-opacity="0" result="BackgroundImageFix"/>
<feColorMatrix in="SourceAlpha" type="matrix" values="0 0 0 0 0 0 0 0 0 0 0 0 0 0 0 0 0 0 127 0" result="hardAlpha"/>
<feMorphology radius="2" operator="dilate" in="SourceAlpha" result="effect1_dropShadow_193_424"/>
<feOffset/>
<feGaussianBlur stdDeviation="2.5"/>
<feComposite in2="hardAlpha" operator="out"/>
<feColorMatrix type="matrix" values="0 0 0 0 0.247917 0 0 0 0 0.763954 0 0 0 0 0.875 0 0 0 0.9 0"/>
<feBlend mode="normal" in2="BackgroundImageFix" result="effect1_dropShadow_193_424"/>
<feBlend mode="normal" in="SourceGraphic" in2="effect1_dropShadow_193_424" result="shape"/>
</filter>
<filter id="filter9_d_193_424" x="1495" y="1047" width="24" height="24" filterUnits="userSpaceOnUse" color-interpolation-filters="sRGB">
<feFlood flood-opacity="0" result="BackgroundImageFix"/>
<feColorMatrix in="SourceAlpha" type="matrix" values="0 0 0 0 0 0 0 0 0 0 0 0 0 0 0 0 0 0 127 0" result="hardAlpha"/>
<feMorphology radius="2" operator="dilate" in="SourceAlpha" result="effect1_dropShadow_193_424"/>
<feOffset/>
<feGaussianBlur stdDeviation="2.5"/>
<feComposite in2="hardAlpha" operator="out"/>
<feColorMatrix type="matrix" values="0 0 0 0 0.960784 0 0 0 0 0.764706 0 0 0 0 0.443137 0 0 0 1 0"/>
<feBlend mode="normal" in2="BackgroundImageFix" result="effect1_dropShadow_193_424"/>
<feBlend mode="normal" in="SourceGraphic" in2="effect1_dropShadow_193_424" result="shape"/>
</filter>
<filter id="filter10_d_193_424" x="552" y="1977" width="24" height="24" filterUnits="userSpaceOnUse" color-interpolation-filters="sRGB">
<feFlood flood-opacity="0" result="BackgroundImageFix"/>
<feColorMatrix in="SourceAlpha" type="matrix" values="0 0 0 0 0 0 0 0 0 0 0 0 0 0 0 0 0 0 127 0" result="hardAlpha"/>
<feMorphology radius="2" operator="dilate" in="SourceAlpha" result="effect1_dropShadow_193_424"/>
<feOffset/>
<feGaussianBlur stdDeviation="2.5"/>
<feComposite in2="hardAlpha" operator="out"/>
<feColorMatrix type="matrix" values="0 0 0 0 0.960784 0 0 0 0 0.764706 0 0 0 0 0.443137 0 0 0 1 0"/>
<feBlend mode="normal" in2="BackgroundImageFix" result="effect1_dropShadow_193_424"/>
<feBlend mode="normal" in="SourceGraphic" in2="effect1_dropShadow_193_424" result="shape"/>
</filter>
<filter id="filter11_d_193_424" x="1320" y="2683" width="24" height="24" filterUnits="userSpaceOnUse" color-interpolation-filters="sRGB">
<feFlood flood-opacity="0" result="BackgroundImageFix"/>
<feColorMatrix in="SourceAlpha" type="matrix" values="0 0 0 0 0 0 0 0 0 0 0 0 0 0 0 0 0 0 127 0" result="hardAlpha"/>
<feMorphology radius="2" operator="dilate" in="SourceAlpha" result="effect1_dropShadow_193_424"/>
<feOffset/>
<feGaussianBlur stdDeviation="2.5"/>
<feComposite in2="hardAlpha" operator="out"/>
<feColorMatrix type="matrix" values="0 0 0 0 0.960784 0 0 0 0 0.764706 0 0 0 0 0.443137 0 0 0 1 0"/>
<feBlend mode="normal" in2="BackgroundImageFix" result="effect1_dropShadow_193_424"/>
<feBlend mode="normal" in="SourceGraphic" in2="effect1_dropShadow_193_424" result="shape"/>
</filter>
<filter id="filter12_d_193_424" x="567" y="3595" width="24" height="24" filterUnits="userSpaceOnUse" color-interpolation-filters="sRGB">
<feFlood flood-opacity="0" result="BackgroundImageFix"/>
<feColorMatrix in="SourceAlpha" type="matrix" values="0 0 0 0 0 0 0 0 0 0 0 0 0 0 0 0 0 0 127 0" result="hardAlpha"/>
<feMorphology radius="2" operator="dilate" in="SourceAlpha" result="effect1_dropShadow_193_424"/>
<feOffset/>
<feGaussianBlur stdDeviation="2.5"/>
<feComposite in2="hardAlpha" operator="out"/>
<feColorMatrix type="matrix" values="0 0 0 0 0.960784 0 0 0 0 0.764706 0 0 0 0 0.443137 0 0 0 1 0"/>
<feBlend mode="normal" in2="BackgroundImageFix" result="effect1_dropShadow_193_424"/>
<feBlend mode="normal" in="SourceGraphic" in2="effect1_dropShadow_193_424" result="shape"/>
</filter>
<filter id="filter13_d_193_424" x="1418" y="4718" width="24" height="24" filterUnits="userSpaceOnUse" color-interpolation-filters="sRGB">
<feFlood flood-opacity="0" result="BackgroundImageFix"/>
<feColorMatrix in="SourceAlpha" type="matrix" values="0 0 0 0 0 0 0 0 0 0 0 0 0 0 0 0 0 0 127 0" result="hardAlpha"/>
<feMorphology radius="2" operator="dilate" in="SourceAlpha" result="effect1_dropShadow_193_424"/>
<feOffset/>
<feGaussianBlur stdDeviation="2.5"/>
<feComposite in2="hardAlpha" operator="out"/>
<feColorMatrix type="matrix" values="0 0 0 0 0.960784 0 0 0 0 0.764706 0 0 0 0 0.443137 0 0 0 1 0"/>
<feBlend mode="normal" in2="BackgroundImageFix" result="effect1_dropShadow_193_424"/>
<feBlend mode="normal" in="SourceGraphic" in2="effect1_dropShadow_193_424" result="shape"/>
</filter>
<radialGradient id="paint0_radial_193_424" cx="0" cy="0" r="1" gradientUnits="userSpaceOnUse" gradientTransform="translate(1003 5054.5) rotate(162.94) scale(1218.62 364.18)">
<stop stop-color="#97CDCD"/>
<stop offset="0.594639" stop-color="#D2E4E4"/>
<stop offset="1" stop-color="#D2E4E4" stop-opacity="0"/>
</radialGradient>
<radialGradient id="paint1_radial_193_424" cx="0" cy="0" r="1" gradientUnits="userSpaceOnUse" gradientTransform="translate(1049.5 2579.5) rotate(114.871) scale(355.467 1260.12)">
<stop stop-color="#A7D2D2"/>
<stop offset="0.572917" stop-color="#D2E4E4"/>
<stop offset="1" stop-color="#D2E4E4" stop-opacity="0"/>
</radialGradient>
<radialGradient id="paint2_radial_193_424" cx="0" cy="0" r="1" gradientUnits="userSpaceOnUse" gradientTransform="translate(1529.5 4234) rotate(-143.507) scale(258.106 282.812)">
<stop offset="0.567708" stop-color="#D2E4E4"/>
<stop offset="1" stop-color="#D2E4E4" stop-opacity="0.3"/>
</radialGradient>
<radialGradient id="paint3_radial_193_424" cx="0" cy="0" r="1" gradientUnits="userSpaceOnUse" gradientTransform="translate(84 4250.5) rotate(-25.4244) scale(1010.9 689.171)">
<stop offset="0.244322" stop-color="#B7DBDB"/>
<stop offset="0.503933" stop-color="#B7DBDB" stop-opacity="0.6"/>
<stop offset="0.744508" stop-color="#B7DBDB" stop-opacity="0.8"/>
<stop offset="1" stop-color="#B7DBDB" stop-opacity="0.5"/>
</radialGradient>
<radialGradient id="paint4_diamond_193_424" cx="0" cy="0" r="1" gradientUnits="userSpaceOnUse" gradientTransform="translate(1294 1329) rotate(115.568) scale(732.2 783.998)">
<stop offset="0.450354" stop-color="#C6E3DD"/>
<stop offset="0.841165" stop-color="#C3E2DC" stop-opacity="0.36"/>
</radialGradient>
<linearGradient id="paint5_linear_193_424" x1="958.5" y1="-1" x2="924.5" y2="438.5" gradientUnits="userSpaceOnUse">
<stop stop-color="#B7DBDB"/>
<stop offset="1" stop-color="#B7DBDB" stop-opacity="0"/>
</linearGradient>
</defs>
</svg>
