<svg width="1920" height="4979" viewBox="0 0 1920 4979" fill="none" xmlns="http://www.w3.org/2000/svg">
<rect x="-3" y="-1" width="1923" height="4980" fill="#EFF3F6"/>
<path d="M742.117 4489.1C375.351 4370.02 48.5532 4455.02 -69 4512.41V5342.78C216.654 5217.24 329.505 5211.86 521.705 5206.48C713.904 5201.1 897.287 5211.86 1048.93 5258.49C1200.57 5305.12 1361.03 5346.37 1553.23 5342.78C1706.99 5339.91 1861.81 5285.39 1920 5258.49V4605.67C1877.68 4626.28 1854.76 4635.25 1801.86 4652.3C1454.49 4741.98 1200.57 4637.96 742.117 4489.1Z" fill="url(#paint0_radial_193_424)"/>
<path d="M1184.41 2023.01C1562.24 1947.7 1898.9 2001.46 2020 2037.75V2562.86C1725.73 2483.47 1609.47 2480.07 1411.48 2476.67C1213.48 2473.26 1024.56 2480.07 868.346 2509.56C712.128 2539.05 546.827 2565.13 348.83 2562.86C190.432 2561.05 30.9442 2526.57 -29 2509.56V2096.73C14.5958 2109.76 38.2101 2115.43 92.7048 2126.21C450.553 2182.92 712.128 2117.14 1184.41 2023.01Z" fill="url(#paint1_radial_193_424)"/>
<path fill-rule="evenodd" clip-rule="evenodd" d="M1461.92 3533.54C1512.67 3531.39 1569.44 3514.89 1610.84 3544.33C1652.14 3573.71 1646.24 3636.25 1669.61 3681.23C1694.73 3729.58 1751.95 3763.48 1752.98 3817.95C1754.02 3873.29 1718.49 3926.59 1674.86 3960.64C1633.93 3992.59 1577.15 3985.12 1526.18 3994.98C1480.72 4003.78 1436.87 4025.36 1391.64 4015.46C1344.91 4005.23 1303.79 3976.43 1273.23 3939.62C1243.05 3903.25 1229.51 3857.25 1221.65 3810.65C1213.62 3763.11 1210.03 3713.97 1227.57 3669.06C1245.66 3622.75 1277.84 3581.49 1320.88 3556.6C1362.97 3532.26 1413.34 3535.6 1461.92 3533.54Z" fill="url(#paint2_radial_193_424)"/>
<path d="M1154.5 456.5C1252.83 530 1513.5 712.5 1542.5 853.5C1579.97 1035.69 1407.5 1230.5 1257.5 1296C1107.5 1361.5 1023 1389.5 863.5 1483.5C704 1577.5 540 1723 530.5 1863.5C521 2004 669 2117 816.5 2154C977.117 2194.29 1190.5 2269.5 1257.5 2342C1338.85 2430.03 1371.5 2504 1371.5 2574.5C1371.5 2645 1309.5 2763.5 1201.5 2867C1093.5 2970.5 995 3069 887 3191C779 3313 671.5 3435 601 3561.5C530.5 3688 568 3781.5 601 3828.5C634 3875.5 756 3975 862 4020.5C908.675 4040.53 1184.27 4218.04 1271.5 4280C1344 4331.5 1538.5 4528 1431 4729.5" stroke="#706C65" stroke-opacity="0.5" stroke-width="2" stroke-linejoin="round" stroke-dasharray="20 20"/>
<g filter="url(#filter0_d_193_424)">
<circle cx="1384" cy="638" r="3" fill="#5BA7DD"/>
</g>
<g filter="url(#filter1_d_193_424)">
<circle cx="1548" cy="904" r="3" fill="#5BA7DD"/>
</g>
<g filter="url(#filter2_d_193_424)">
<circle cx="993" cy="1412" r="3" fill="#5BA7DD"/>
</g>
<g filter="url(#filter3_d_193_424)">
<circle cx="535" cy="1834" r="3" fill="#5BA7DD"/>
</g>
<g filter="url(#filter4_d_193_424)">
<circle cx="1349" cy="2475" r="3" fill="#5BA7DD"/>
</g>
<g filter="url(#filter5_d_193_424)">
<circle cx="867" cy="3213" r="3" fill="#5BA7DD"/>
</g>
<g filter="url(#filter6_d_193_424)">
<circle cx="607" cy="3551" r="3" fill="#5BA7DD"/>
</g>
<g filter="url(#filter7_d_193_424)">
<circle cx="1044" cy="4130" r="3" fill="#5BA7DD"/>
</g>
<g filter="url(#filter8_d_193_424)">
<circle cx="1400" cy="4417" r="3" fill="#5BA7DD"/>
</g>
<g filter="url(#filter9_d_193_424)">
<circle cx="1524" cy="807" r="5" fill="#F5C371"/>
</g>
<g filter="url(#filter10_d_193_424)">
<circle cx="597" cy="1709" r="5" fill="#F5C371"/>
</g>
<g filter="url(#filter11_d_193_424)">
<circle cx="1276" cy="2361" r="5" fill="#F5C371"/>
</g>
<g filter="url(#filter12_d_193_424)">
<circle cx="817" cy="3270" r="5" fill="#F5C371"/>
</g>
<g filter="url(#filter13_d_193_424)">
<circle cx="1430" cy="4730" r="5" fill="#F5C371"/>
</g>
<path fill-rule="evenodd" clip-rule="evenodd" d="M-361.424 3440.26C-411.144 3364.64 -446.486 3275.22 -411.729 3184.36C-376.646 3092.66 -269.445 3020 -173.725 2949.63C-79.9901 2880.71 17.7202 2805.42 138.411 2779.88C256.64 2754.86 371.345 2780.85 472.783 2812.81C561.944 2840.91 602.983 2911.09 681.631 2951.04C776.163 2999.07 932.823 2992.5 981.028 3071.04C1028.71 3148.73 963.037 3252.27 922.615 3343.68C882.18 3435.12 849.362 3537.99 746.074 3602.35C643.914 3666.02 508.191 3655.86 385.529 3678.39C278.086 3698.12 167.565 3743.82 68.0454 3726.88C-30.1984 3710.17 -74.6088 3635.78 -146.381 3587.88C-220.257 3538.58 -317.115 3507.64 -361.424 3440.26Z" fill="url(#paint3_radial_193_424)"/>
<path fill-rule="evenodd" clip-rule="evenodd" d="M1111.57 1718.05C988.834 1621.6 798.362 1557.69 778.111 1402.91C758.327 1251.7 898.307 1116.73 1021.05 1026.24C1125.68 949.112 1270.23 984.466 1395.03 948.128C1492.14 919.851 1570.48 824.1 1670.8 837.053C1770.97 849.988 1832.57 948.255 1908.84 1014.47C1982.88 1078.75 2055.4 1138.99 2111.36 1219.5C2186.76 1327.98 2296.35 1431.89 2290.74 1563.88C2284.99 1699.28 2197.33 1831.66 2082.31 1903.33C1971.62 1972.3 1830.43 1935.33 1700.06 1931.92C1594.09 1929.16 1491.61 1921.51 1391.98 1885.3C1287.58 1847.36 1198.91 1786.69 1111.57 1718.05Z" fill="url(#paint4_diamond_193_424)"/>
<path d="M580.884 83.408C536.707 90.4821 427.13 126.014 377.864 142.895C283.014 173.272 84.4337 280.422 -3 330.2V-1H1920V142.895C1733.49 240.969 1353.01 441.779 1323.12 460.429C1285.77 483.742 1222.43 498.212 1172.08 505.447C1121.73 512.682 1064.07 503.839 1005.6 487.761C947.131 471.684 908.151 427.47 889.473 398.53C870.796 369.59 861.051 322.161 859.427 300.456C857.802 278.752 865.639 251.962 875.5 236C881.392 226.462 900 199.5 897 176C895.017 160.468 883.789 136.5 871.608 123.5C859.427 110.5 830.5 97 814.762 92.2505C790.473 84.9204 748.984 72.9575 707.568 71.3497C666.211 69.7442 636.191 74.5515 581.12 83.3701L580.884 83.408Z" fill="url(#paint5_linear_193_424)"/>
<defs>
<filter id="filter0_d_193_424" x="1374" y="628" width="20" height="20" filterUnits="userSpaceOnUse" color-interpolation-filters="sRGB">
<feFlood flood-opacity="0" result="BackgroundImageFix"/>
<feColorMatrix in="SourceAlpha" type="matrix" values="0 0 0 0 0 0 0 0 0 0 0 0 0 0 0 0 0 0 127 0" result="hardAlpha"/>
<feMorphology radius="2" operator="dilate" in="SourceAlpha" result="effect1_dropShadow_193_424"/>
<feOffset/>
<feGaussianBlur stdDeviation="2.5"/>
<feComposite in2="hardAlpha" operator="out"/>
<feColorMatrix type="matrix" values="0 0 0 0 0.247917 0 0 0 0 0.763954 0 0 0 0 0.875 0 0 0 0.9 0"/>
<feBlend mode="normal" in2="BackgroundImageFix" result="effect1_dropShadow_193_424"/>
<feBlend mode="normal" in="SourceGraphic" in2="effect1_dropShadow_193_424" result="shape"/>
</filter>
<filter id="filter1_d_193_424" x="1538" y="894" width="20" height="20" filterUnits="userSpaceOnUse" color-interpolation-filters="sRGB">
<feFlood flood-opacity="0" result="BackgroundImageFix"/>
<feColorMatrix in="SourceAlpha" type="matrix" values="0 0 0 0 0 0 0 0 0 0 0 0 0 0 0 0 0 0 127 0" result="hardAlpha"/>
<feMorphology radius="2" operator="dilate" in="SourceAlpha" result="effect1_dropShadow_193_424"/>
<feOffset/>
<feGaussianBlur stdDeviation="2.5"/>
<feComposite in2="hardAlpha" operator="out"/>
<feColorMatrix type="matrix" values="0 0 0 0 0.247917 0 0 0 0 0.763954 0 0 0 0 0.875 0 0 0 0.9 0"/>
<feBlend mode="normal" in2="BackgroundImageFix" result="effect1_dropShadow_193_424"/>
<feBlend mode="normal" in="SourceGraphic" in2="effect1_dropShadow_193_424" result="shape"/>
</filter>
<filter id="filter2_d_193_424" x="983" y="1402" width="20" height="20" filterUnits="userSpaceOnUse" color-interpolation-filters="sRGB">
<feFlood flood-opacity="0" result="BackgroundImageFix"/>
<feColorMatrix in="SourceAlpha" type="matrix" values="0 0 0 0 0 0 0 0 0 0 0 0 0 0 0 0 0 0 127 0" result="hardAlpha"/>
<feMorphology radius="2" operator="dilate" in="SourceAlpha" result="effect1_dropShadow_193_424"/>
<feOffset/>
<feGaussianBlur stdDeviation="2.5"/>
<feComposite in2="hardAlpha" operator="out"/>
<feColorMatrix type="matrix" values="0 0 0 0 0.247917 0 0 0 0 0.763954 0 0 0 0 0.875 0 0 0 0.9 0"/>
<feBlend mode="normal" in2="BackgroundImageFix" result="effect1_dropShadow_193_424"/>
<feBlend mode="normal" in="SourceGraphic" in2="effect1_dropShadow_193_424" result="shape"/>
</filter>
<filter id="filter3_d_193_424" x="525" y="1824" width="20" height="20" filterUnits="userSpaceOnUse" color-interpolation-filters="sRGB">
<feFlood flood-opacity="0" result="BackgroundImageFix"/>
<feColorMatrix in="SourceAlpha" type="matrix" values="0 0 0 0 0 0 0 0 0 0 0 0 0 0 0 0 0 0 127 0" result="hardAlpha"/>
<feMorphology radius="2" operator="dilate" in="SourceAlpha" result="effect1_dropShadow_193_424"/>
<feOffset/>
<feGaussianBlur stdDeviation="2.5"/>
<feComposite in2="hardAlpha" operator="out"/>
<feColorMatrix type="matrix" values="0 0 0 0 0.247917 0 0 0 0 0.763954 0 0 0 0 0.875 0 0 0 0.9 0"/>
<feBlend mode="normal" in2="BackgroundImageFix" result="effect1_dropShadow_193_424"/>
<feBlend mode="normal" in="SourceGraphic" in2="effect1_dropShadow_193_424" result="shape"/>
</filter>
<filter id="filter4_d_193_424" x="1339" y="2465" width="20" height="20" filterUnits="userSpaceOnUse" color-interpolation-filters="sRGB">
<feFlood flood-opacity="0" result="BackgroundImageFix"/>
<feColorMatrix in="SourceAlpha" type="matrix" values="0 0 0 0 0 0 0 0 0 0 0 0 0 0 0 0 0 0 127 0" result="hardAlpha"/>
<feMorphology radius="2" operator="dilate" in="SourceAlpha" result="effect1_dropShadow_193_424"/>
<feOffset/>
<feGaussianBlur stdDeviation="2.5"/>
<feComposite in2="hardAlpha" operator="out"/>
<feColorMatrix type="matrix" values="0 0 0 0 0.247917 0 0 0 0 0.763954 0 0 0 0 0.875 0 0 0 0.9 0"/>
<feBlend mode="normal" in2="BackgroundImageFix" result="effect1_dropShadow_193_424"/>
<feBlend mode="normal" in="SourceGraphic" in2="effect1_dropShadow_193_424" result="shape"/>
</filter>
<filter id="filter5_d_193_424" x="857" y="3203" width="20" height="20" filterUnits="userSpaceOnUse" color-interpolation-filters="sRGB">
<feFlood flood-opacity="0" result="BackgroundImageFix"/>
<feColorMatrix in="SourceAlpha" type="matrix" values="0 0 0 0 0 0 0 0 0 0 0 0 0 0 0 0 0 0 127 0" result="hardAlpha"/>
<feMorphology radius="2" operator="dilate" in="SourceAlpha" result="effect1_dropShadow_193_424"/>
<feOffset/>
<feGaussianBlur stdDeviation="2.5"/>
<feComposite in2="hardAlpha" operator="out"/>
<feColorMatrix type="matrix" values="0 0 0 0 0.247917 0 0 0 0 0.763954 0 0 0 0 0.875 0 0 0 0.9 0"/>
<feBlend mode="normal" in2="BackgroundImageFix" result="effect1_dropShadow_193_424"/>
<feBlend mode="normal" in="SourceGraphic" in2="effect1_dropShadow_193_424" result="shape"/>
</filter>
<filter id="filter6_d_193_424" x="597" y="3541" width="20" height="20" filterUnits="userSpaceOnUse" color-interpolation-filters="sRGB">
<feFlood flood-opacity="0" result="BackgroundImageFix"/>
<feColorMatrix in="SourceAlpha" type="matrix" values="0 0 0 0 0 0 0 0 0 0 0 0 0 0 0 0 0 0 127 0" result="hardAlpha"/>
<feMorphology radius="2" operator="dilate" in="SourceAlpha" result="effect1_dropShadow_193_424"/>
<feOffset/>
<feGaussianBlur stdDeviation="2.5"/>
<feComposite in2="hardAlpha" operator="out"/>
<feColorMatrix type="matrix" values="0 0 0 0 0.247917 0 0 0 0 0.763954 0 0 0 0 0.875 0 0 0 0.9 0"/>
<feBlend mode="normal" in2="BackgroundImageFix" result="effect1_dropShadow_193_424"/>
<feBlend mode="normal" in="SourceGraphic" in2="effect1_dropShadow_193_424" result="shape"/>
</filter>
<filter id="filter7_d_193_424" x="1034" y="4120" width="20" height="20" filterUnits="userSpaceOnUse" color-interpolation-filters="sRGB">
<feFlood flood-opacity="0" result="BackgroundImageFix"/>
<feColorMatrix in="SourceAlpha" type="matrix" values="0 0 0 0 0 0 0 0 0 0 0 0 0 0 0 0 0 0 127 0" result="hardAlpha"/>
<feMorphology radius="2" operator="dilate" in="SourceAlpha" result="effect1_dropShadow_193_424"/>
<feOffset/>
<feGaussianBlur stdDeviation="2.5"/>
<feComposite in2="hardAlpha" operator="out"/>
<feColorMatrix type="matrix" values="0 0 0 0 0.247917 0 0 0 0 0.763954 0 0 0 0 0.875 0 0 0 0.9 0"/>
<feBlend mode="normal" in2="BackgroundImageFix" result="effect1_dropShadow_193_424"/>
<feBlend mode="normal" in="SourceGraphic" in2="effect1_dropShadow_193_424" result="shape"/>
</filter>
<filter id="filter8_d_193_424" x="1390" y="4407" width="20" height="20" filterUnits="userSpaceOnUse" color-interpolation-filters="sRGB">
<feFlood flood-opacity="0" result="BackgroundImageFix"/>
<feColorMatrix in="SourceAlpha" type="matrix" values="0 0 0 0 0 0 0 0 0 0 0 0 0 0 0 0 0 0 127 0" result="hardAlpha"/>
<feMorphology radius="2" operator="dilate" in="SourceAlpha" result="effect1_dropShadow_193_424"/>
<feOffset/>
<feGaussianBlur stdDeviation="2.5"/>
<feComposite in2="hardAlpha" operator="out"/>
<feColorMatrix type="matrix" values="0 0 0 0 0.247917 0 0 0 0 0.763954 0 0 0 0 0.875 0 0 0 0.9 0"/>
<feBlend mode="normal" in2="BackgroundImageFix" result="effect1_dropShadow_193_424"/>
<feBlend mode="normal" in="SourceGraphic" in2="effect1_dropShadow_193_424" result="shape"/>
</filter>
<filter id="filter9_d_193_424" x="1512" y="795" width="24" height="24" filterUnits="userSpaceOnUse" color-interpolation-filters="sRGB">
<feFlood flood-opacity="0" result="BackgroundImageFix"/>
<feColorMatrix in="SourceAlpha" type="matrix" values="0 0 0 0 0 0 0 0 0 0 0 0 0 0 0 0 0 0 127 0" result="hardAlpha"/>
<feMorphology radius="2" operator="dilate" in="SourceAlpha" result="effect1_dropShadow_193_424"/>
<feOffset/>
<feGaussianBlur stdDeviation="2.5"/>
<feComposite in2="hardAlpha" operator="out"/>
<feColorMatrix type="matrix" values="0 0 0 0 0.960784 0 0 0 0 0.764706 0 0 0 0 0.443137 0 0 0 1 0"/>
<feBlend mode="normal" in2="BackgroundImageFix" result="effect1_dropShadow_193_424"/>
<feBlend mode="normal" in="SourceGraphic" in2="effect1_dropShadow_193_424" result="shape"/>
</filter>
<filter id="filter10_d_193_424" x="585" y="1697" width="24" height="24" filterUnits="userSpaceOnUse" color-interpolation-filters="sRGB">
<feFlood flood-opacity="0" result="BackgroundImageFix"/>
<feColorMatrix in="SourceAlpha" type="matrix" values="0 0 0 0 0 0 0 0 0 0 0 0 0 0 0 0 0 0 127 0" result="hardAlpha"/>
<feMorphology radius="2" operator="dilate" in="SourceAlpha" result="effect1_dropShadow_193_424"/>
<feOffset/>
<feGaussianBlur stdDeviation="2.5"/>
<feComposite in2="hardAlpha" operator="out"/>
<feColorMatrix type="matrix" values="0 0 0 0 0.960784 0 0 0 0 0.764706 0 0 0 0 0.443137 0 0 0 1 0"/>
<feBlend mode="normal" in2="BackgroundImageFix" result="effect1_dropShadow_193_424"/>
<feBlend mode="normal" in="SourceGraphic" in2="effect1_dropShadow_193_424" result="shape"/>
</filter>
<filter id="filter11_d_193_424" x="1264" y="2349" width="24" height="24" filterUnits="userSpaceOnUse" color-interpolation-filters="sRGB">
<feFlood flood-opacity="0" result="BackgroundImageFix"/>
<feColorMatrix in="SourceAlpha" type="matrix" values="0 0 0 0 0 0 0 0 0 0 0 0 0 0 0 0 0 0 127 0" result="hardAlpha"/>
<feMorphology radius="2" operator="dilate" in="SourceAlpha" result="effect1_dropShadow_193_424"/>
<feOffset/>
<feGaussianBlur stdDeviation="2.5"/>
<feComposite in2="hardAlpha" operator="out"/>
<feColorMatrix type="matrix" values="0 0 0 0 0.960784 0 0 0 0 0.764706 0 0 0 0 0.443137 0 0 0 1 0"/>
<feBlend mode="normal" in2="BackgroundImageFix" result="effect1_dropShadow_193_424"/>
<feBlend mode="normal" in="SourceGraphic" in2="effect1_dropShadow_193_424" result="shape"/>
</filter>
<filter id="filter12_d_193_424" x="805" y="3258" width="24" height="24" filterUnits="userSpaceOnUse" color-interpolation-filters="sRGB">
<feFlood flood-opacity="0" result="BackgroundImageFix"/>
<feColorMatrix in="SourceAlpha" type="matrix" values="0 0 0 0 0 0 0 0 0 0 0 0 0 0 0 0 0 0 127 0" result="hardAlpha"/>
<feMorphology radius="2" operator="dilate" in="SourceAlpha" result="effect1_dropShadow_193_424"/>
<feOffset/>
<feGaussianBlur stdDeviation="2.5"/>
<feComposite in2="hardAlpha" operator="out"/>
<feColorMatrix type="matrix" values="0 0 0 0 0.960784 0 0 0 0 0.764706 0 0 0 0 0.443137 0 0 0 1 0"/>
<feBlend mode="normal" in2="BackgroundImageFix" result="effect1_dropShadow_193_424"/>
<feBlend mode="normal" in="SourceGraphic" in2="effect1_dropShadow_193_424" result="shape"/>
</filter>
<filter id="filter13_d_193_424" x="1418" y="4718" width="24" height="24" filterUnits="userSpaceOnUse" color-interpolation-filters="sRGB">
<feFlood flood-opacity="0" result="BackgroundImageFix"/>
<feColorMatrix in="SourceAlpha" type="matrix" values="0 0 0 0 0 0 0 0 0 0 0 0 0 0 0 0 0 0 127 0" result="hardAlpha"/>
<feMorphology radius="2" operator="dilate" in="SourceAlpha" result="effect1_dropShadow_193_424"/>
<feOffset/>
<feGaussianBlur stdDeviation="2.5"/>
<feComposite in2="hardAlpha" operator="out"/>
<feColorMatrix type="matrix" values="0 0 0 0 0.960784 0 0 0 0 0.764706 0 0 0 0 0.443137 0 0 0 1 0"/>
<feBlend mode="normal" in2="BackgroundImageFix" result="effect1_dropShadow_193_424"/>
<feBlend mode="normal" in="SourceGraphic" in2="effect1_dropShadow_193_424" result="shape"/>
</filter>
<radialGradient id="paint0_radial_193_424" cx="0" cy="0" r="1" gradientUnits="userSpaceOnUse" gradientTransform="translate(1003 4707.5) rotate(162.94) scale(1218.62 364.18)">
<stop stop-color="#97CDCD"/>
<stop offset="0.594639" stop-color="#D2E4E4"/>
<stop offset="1" stop-color="#D2E4E4" stop-opacity="0"/>
</radialGradient>
<radialGradient id="paint1_radial_193_424" cx="0" cy="0" r="1" gradientUnits="userSpaceOnUse" gradientTransform="translate(1049.5 2240.5) rotate(114.871) scale(355.467 1260.12)">
<stop stop-color="#A7D2D2"/>
<stop offset="0.572917" stop-color="#D2E4E4"/>
<stop offset="1" stop-color="#D2E4E4" stop-opacity="0"/>
</radialGradient>
<radialGradient id="paint2_radial_193_424" cx="0" cy="0" r="1" gradientUnits="userSpaceOnUse" gradientTransform="translate(1529.5 3818) rotate(-143.507) scale(258.106 282.812)">
<stop offset="0.567708" stop-color="#D2E4E4"/>
<stop offset="1" stop-color="#D2E4E4" stop-opacity="0.3"/>
</radialGradient>
<radialGradient id="paint3_radial_193_424" cx="0" cy="0" r="1" gradientUnits="userSpaceOnUse" gradientTransform="translate(84 3545.5) rotate(-25.4244) scale(1010.9 689.171)">
<stop offset="0.244322" stop-color="#B7DBDB"/>
<stop offset="0.503933" stop-color="#B7DBDB" stop-opacity="0.6"/>
<stop offset="0.744508" stop-color="#B7DBDB" stop-opacity="0.8"/>
<stop offset="1" stop-color="#B7DBDB" stop-opacity="0.5"/>
</radialGradient>
<radialGradient id="paint4_diamond_193_424" cx="0" cy="0" r="1" gradientUnits="userSpaceOnUse" gradientTransform="translate(1275 1080) rotate(115.568) scale(732.2 783.998)">
<stop offset="0.450354" stop-color="#C6E3DD"/>
<stop offset="0.841165" stop-color="#C3E2DC" stop-opacity="0.36"/>
</radialGradient>
<linearGradient id="paint5_linear_193_424" x1="958.5" y1="-1" x2="924.5" y2="438.5" gradientUnits="userSpaceOnUse">
<stop stop-color="#B7DBDB"/>
<stop offset="1" stop-color="#B7DBDB" stop-opacity="0"/>
</linearGradient>
</defs>
</svg>
