<svg width="1280" height="4979" viewBox="0 0 1280 4979" fill="none" xmlns="http://www.w3.org/2000/svg">
<mask id="mask0_342_501" style="mask-type:alpha" maskUnits="userSpaceOnUse" x="0" y="0" width="1280" height="4979">
<rect width="1280" height="4979" fill="#D9D9D9"/>
</mask>
<g mask="url(#mask0_342_501)">
<rect x="-323" y="-1" width="1923" height="4980" fill="#EFF3F6"/>
<path d="M422.117 4489.1C55.3511 4370.02 -271.447 4455.02 -389 4512.41V5342.78C-103.346 5217.24 9.50534 5211.86 201.705 5206.48C393.904 5201.1 577.287 5211.86 728.931 5258.49C880.574 5305.12 1041.03 5346.37 1233.23 5342.78C1386.99 5339.91 1541.81 5285.39 1600 5258.49V4605.67C1557.68 4626.28 1534.76 4635.25 1481.86 4652.3C1134.49 4741.98 880.574 4637.96 422.117 4489.1Z" fill="url(#paint0_radial_342_501)"/>
<path d="M864.415 2023.01C1242.24 1947.7 1578.9 2001.46 1700 2037.75V2562.86C1405.73 2483.47 1289.47 2480.07 1091.48 2476.67C893.479 2473.26 704.564 2480.07 548.346 2509.56C392.128 2539.05 226.827 2565.13 28.8298 2562.86C-129.568 2561.05 -289.056 2526.57 -349 2509.56V2096.73C-305.404 2109.76 -281.79 2115.43 -227.295 2126.21C130.553 2182.92 392.128 2117.14 864.415 2023.01Z" fill="url(#paint1_radial_342_501)"/>
<path fill-rule="evenodd" clip-rule="evenodd" d="M1141.92 3533.54C1192.67 3531.39 1249.44 3514.89 1290.84 3544.33C1332.14 3573.71 1326.24 3636.25 1349.61 3681.23C1374.73 3729.58 1431.95 3763.48 1432.98 3817.95C1434.02 3873.29 1398.49 3926.59 1354.86 3960.64C1313.93 3992.59 1257.15 3985.12 1206.18 3994.98C1160.72 4003.78 1116.87 4025.36 1071.64 4015.46C1024.91 4005.23 983.789 3976.43 953.232 3939.62C923.05 3903.25 909.51 3857.25 901.645 3810.65C893.622 3763.11 890.027 3713.97 907.569 3669.06C925.658 3622.75 957.841 3581.49 1000.88 3556.6C1042.97 3532.26 1093.34 3535.6 1141.92 3533.54Z" fill="url(#paint2_radial_342_501)"/>
<path fill-rule="evenodd" clip-rule="evenodd" d="M-681.424 3440.26C-731.144 3364.64 -766.486 3275.22 -731.729 3184.36C-696.646 3092.66 -589.445 3020 -493.725 2949.63C-399.99 2880.71 -302.28 2805.42 -181.589 2779.88C-63.3601 2754.86 51.3451 2780.85 152.783 2812.81C241.944 2840.91 282.983 2911.09 361.631 2951.04C456.163 2999.07 612.823 2992.5 661.028 3071.04C708.712 3148.73 643.037 3252.27 602.615 3343.68C562.18 3435.12 529.362 3537.99 426.074 3602.35C323.914 3666.02 188.191 3655.86 65.5287 3678.39C-41.9143 3698.12 -152.435 3743.82 -251.955 3726.88C-350.198 3710.17 -394.609 3635.78 -466.381 3587.88C-540.257 3538.58 -637.115 3507.64 -681.424 3440.26Z" fill="url(#paint3_radial_342_501)"/>
<path d="M834.5 456.5C932.833 530 1193.5 712.5 1222.5 853.5C1259.97 1035.69 1087.5 1230.5 937.5 1296C787.5 1361.5 703 1389.5 543.5 1483.5C384 1577.5 220 1723 210.5 1863.5C201 2004 349 2117 496.5 2154C657.117 2194.29 870.5 2269.5 937.5 2342C1018.85 2430.03 1051.5 2504 1051.5 2574.5C1051.5 2645 989.5 2763.5 881.5 2867C773.5 2970.5 675 3069 567 3191C459 3313 351.5 3435 281 3561.5C210.5 3688 248 3781.5 281 3828.5C314 3875.5 436 3975 542 4020.5C588.675 4040.53 864.269 4218.04 951.5 4280C1024 4331.5 1218.5 4528 1111 4729.5" stroke="#706C65" stroke-opacity="0.5" stroke-width="2" stroke-linejoin="round" stroke-dasharray="20 20"/>
<g filter="url(#filter0_d_342_501)">
<circle cx="1064" cy="638" r="3" fill="#5BA7DD"/>
</g>
<g filter="url(#filter1_d_342_501)">
<circle cx="1228" cy="904" r="3" fill="#5BA7DD"/>
</g>
<g filter="url(#filter2_d_342_501)">
<circle cx="673" cy="1412" r="3" fill="#5BA7DD"/>
</g>
<g filter="url(#filter3_d_342_501)">
<circle cx="215" cy="1834" r="3" fill="#5BA7DD"/>
</g>
<g filter="url(#filter4_d_342_501)">
<circle cx="1029" cy="2475" r="3" fill="#5BA7DD"/>
</g>
<g filter="url(#filter5_d_342_501)">
<circle cx="547" cy="3213" r="3" fill="#5BA7DD"/>
</g>
<g filter="url(#filter6_d_342_501)">
<circle cx="287" cy="3551" r="3" fill="#5BA7DD"/>
</g>
<g filter="url(#filter7_d_342_501)">
<circle cx="724" cy="4130" r="3" fill="#5BA7DD"/>
</g>
<g filter="url(#filter8_d_342_501)">
<circle cx="1080" cy="4417" r="3" fill="#5BA7DD"/>
</g>
<g filter="url(#filter9_d_342_501)">
<circle cx="1204" cy="807" r="5" fill="#F5C371"/>
</g>
<g filter="url(#filter10_d_342_501)">
<circle cx="277" cy="1709" r="5" fill="#F5C371"/>
</g>
<g filter="url(#filter11_d_342_501)">
<circle cx="956" cy="2361" r="5" fill="#F5C371"/>
</g>
<g filter="url(#filter12_d_342_501)">
<circle cx="497" cy="3270" r="5" fill="#F5C371"/>
</g>
<g filter="url(#filter13_d_342_501)">
<circle cx="1110" cy="4730" r="5" fill="#F5C371"/>
</g>
<path fill-rule="evenodd" clip-rule="evenodd" d="M791.572 1718.05C668.834 1621.6 478.362 1557.69 458.111 1402.91C438.327 1251.7 578.307 1116.73 701.055 1026.24C805.68 949.112 950.231 984.466 1075.03 948.128C1172.14 919.851 1250.48 824.1 1350.8 837.053C1450.97 849.987 1512.57 948.255 1588.84 1014.47C1662.88 1078.75 1735.4 1138.99 1791.36 1219.5C1866.76 1327.98 1976.35 1431.89 1970.74 1563.88C1964.99 1699.28 1877.33 1831.66 1762.31 1903.33C1651.62 1972.3 1510.43 1935.33 1380.06 1931.92C1274.09 1929.16 1171.61 1921.51 1071.98 1885.3C967.581 1847.36 878.914 1786.69 791.572 1718.05Z" fill="url(#paint4_diamond_342_501)"/>
<path d="M260.884 83.408C216.707 90.4821 107.13 126.014 57.8644 142.895C-36.9862 173.272 -235.566 280.422 -323 330.2V-1H1600V142.895C1413.49 240.969 1033.01 441.779 1003.12 460.429C965.767 483.742 902.425 498.212 852.076 505.447C801.728 512.682 744.07 503.839 685.601 487.761C627.131 471.684 588.151 427.47 569.473 398.53C550.796 369.59 541.051 322.161 539.427 300.456C537.802 278.752 545.639 251.962 555.5 236C561.392 226.462 580 199.5 577 176C575.017 160.468 563.789 136.5 551.608 123.5C539.427 110.5 510.5 97 494.762 92.2505C470.473 84.9204 428.984 72.9575 387.568 71.3497C346.211 69.7442 316.191 74.5515 261.12 83.3701L260.884 83.408Z" fill="url(#paint5_linear_342_501)"/>
</g>
<defs>
<filter id="filter0_d_342_501" x="1054" y="628" width="20" height="20" filterUnits="userSpaceOnUse" color-interpolation-filters="sRGB">
<feFlood flood-opacity="0" result="BackgroundImageFix"/>
<feColorMatrix in="SourceAlpha" type="matrix" values="0 0 0 0 0 0 0 0 0 0 0 0 0 0 0 0 0 0 127 0" result="hardAlpha"/>
<feMorphology radius="2" operator="dilate" in="SourceAlpha" result="effect1_dropShadow_342_501"/>
<feOffset/>
<feGaussianBlur stdDeviation="2.5"/>
<feComposite in2="hardAlpha" operator="out"/>
<feColorMatrix type="matrix" values="0 0 0 0 0.247917 0 0 0 0 0.763954 0 0 0 0 0.875 0 0 0 0.9 0"/>
<feBlend mode="normal" in2="BackgroundImageFix" result="effect1_dropShadow_342_501"/>
<feBlend mode="normal" in="SourceGraphic" in2="effect1_dropShadow_342_501" result="shape"/>
</filter>
<filter id="filter1_d_342_501" x="1218" y="894" width="20" height="20" filterUnits="userSpaceOnUse" color-interpolation-filters="sRGB">
<feFlood flood-opacity="0" result="BackgroundImageFix"/>
<feColorMatrix in="SourceAlpha" type="matrix" values="0 0 0 0 0 0 0 0 0 0 0 0 0 0 0 0 0 0 127 0" result="hardAlpha"/>
<feMorphology radius="2" operator="dilate" in="SourceAlpha" result="effect1_dropShadow_342_501"/>
<feOffset/>
<feGaussianBlur stdDeviation="2.5"/>
<feComposite in2="hardAlpha" operator="out"/>
<feColorMatrix type="matrix" values="0 0 0 0 0.247917 0 0 0 0 0.763954 0 0 0 0 0.875 0 0 0 0.9 0"/>
<feBlend mode="normal" in2="BackgroundImageFix" result="effect1_dropShadow_342_501"/>
<feBlend mode="normal" in="SourceGraphic" in2="effect1_dropShadow_342_501" result="shape"/>
</filter>
<filter id="filter2_d_342_501" x="663" y="1402" width="20" height="20" filterUnits="userSpaceOnUse" color-interpolation-filters="sRGB">
<feFlood flood-opacity="0" result="BackgroundImageFix"/>
<feColorMatrix in="SourceAlpha" type="matrix" values="0 0 0 0 0 0 0 0 0 0 0 0 0 0 0 0 0 0 127 0" result="hardAlpha"/>
<feMorphology radius="2" operator="dilate" in="SourceAlpha" result="effect1_dropShadow_342_501"/>
<feOffset/>
<feGaussianBlur stdDeviation="2.5"/>
<feComposite in2="hardAlpha" operator="out"/>
<feColorMatrix type="matrix" values="0 0 0 0 0.247917 0 0 0 0 0.763954 0 0 0 0 0.875 0 0 0 0.9 0"/>
<feBlend mode="normal" in2="BackgroundImageFix" result="effect1_dropShadow_342_501"/>
<feBlend mode="normal" in="SourceGraphic" in2="effect1_dropShadow_342_501" result="shape"/>
</filter>
<filter id="filter3_d_342_501" x="205" y="1824" width="20" height="20" filterUnits="userSpaceOnUse" color-interpolation-filters="sRGB">
<feFlood flood-opacity="0" result="BackgroundImageFix"/>
<feColorMatrix in="SourceAlpha" type="matrix" values="0 0 0 0 0 0 0 0 0 0 0 0 0 0 0 0 0 0 127 0" result="hardAlpha"/>
<feMorphology radius="2" operator="dilate" in="SourceAlpha" result="effect1_dropShadow_342_501"/>
<feOffset/>
<feGaussianBlur stdDeviation="2.5"/>
<feComposite in2="hardAlpha" operator="out"/>
<feColorMatrix type="matrix" values="0 0 0 0 0.247917 0 0 0 0 0.763954 0 0 0 0 0.875 0 0 0 0.9 0"/>
<feBlend mode="normal" in2="BackgroundImageFix" result="effect1_dropShadow_342_501"/>
<feBlend mode="normal" in="SourceGraphic" in2="effect1_dropShadow_342_501" result="shape"/>
</filter>
<filter id="filter4_d_342_501" x="1019" y="2465" width="20" height="20" filterUnits="userSpaceOnUse" color-interpolation-filters="sRGB">
<feFlood flood-opacity="0" result="BackgroundImageFix"/>
<feColorMatrix in="SourceAlpha" type="matrix" values="0 0 0 0 0 0 0 0 0 0 0 0 0 0 0 0 0 0 127 0" result="hardAlpha"/>
<feMorphology radius="2" operator="dilate" in="SourceAlpha" result="effect1_dropShadow_342_501"/>
<feOffset/>
<feGaussianBlur stdDeviation="2.5"/>
<feComposite in2="hardAlpha" operator="out"/>
<feColorMatrix type="matrix" values="0 0 0 0 0.247917 0 0 0 0 0.763954 0 0 0 0 0.875 0 0 0 0.9 0"/>
<feBlend mode="normal" in2="BackgroundImageFix" result="effect1_dropShadow_342_501"/>
<feBlend mode="normal" in="SourceGraphic" in2="effect1_dropShadow_342_501" result="shape"/>
</filter>
<filter id="filter5_d_342_501" x="537" y="3203" width="20" height="20" filterUnits="userSpaceOnUse" color-interpolation-filters="sRGB">
<feFlood flood-opacity="0" result="BackgroundImageFix"/>
<feColorMatrix in="SourceAlpha" type="matrix" values="0 0 0 0 0 0 0 0 0 0 0 0 0 0 0 0 0 0 127 0" result="hardAlpha"/>
<feMorphology radius="2" operator="dilate" in="SourceAlpha" result="effect1_dropShadow_342_501"/>
<feOffset/>
<feGaussianBlur stdDeviation="2.5"/>
<feComposite in2="hardAlpha" operator="out"/>
<feColorMatrix type="matrix" values="0 0 0 0 0.247917 0 0 0 0 0.763954 0 0 0 0 0.875 0 0 0 0.9 0"/>
<feBlend mode="normal" in2="BackgroundImageFix" result="effect1_dropShadow_342_501"/>
<feBlend mode="normal" in="SourceGraphic" in2="effect1_dropShadow_342_501" result="shape"/>
</filter>
<filter id="filter6_d_342_501" x="277" y="3541" width="20" height="20" filterUnits="userSpaceOnUse" color-interpolation-filters="sRGB">
<feFlood flood-opacity="0" result="BackgroundImageFix"/>
<feColorMatrix in="SourceAlpha" type="matrix" values="0 0 0 0 0 0 0 0 0 0 0 0 0 0 0 0 0 0 127 0" result="hardAlpha"/>
<feMorphology radius="2" operator="dilate" in="SourceAlpha" result="effect1_dropShadow_342_501"/>
<feOffset/>
<feGaussianBlur stdDeviation="2.5"/>
<feComposite in2="hardAlpha" operator="out"/>
<feColorMatrix type="matrix" values="0 0 0 0 0.247917 0 0 0 0 0.763954 0 0 0 0 0.875 0 0 0 0.9 0"/>
<feBlend mode="normal" in2="BackgroundImageFix" result="effect1_dropShadow_342_501"/>
<feBlend mode="normal" in="SourceGraphic" in2="effect1_dropShadow_342_501" result="shape"/>
</filter>
<filter id="filter7_d_342_501" x="714" y="4120" width="20" height="20" filterUnits="userSpaceOnUse" color-interpolation-filters="sRGB">
<feFlood flood-opacity="0" result="BackgroundImageFix"/>
<feColorMatrix in="SourceAlpha" type="matrix" values="0 0 0 0 0 0 0 0 0 0 0 0 0 0 0 0 0 0 127 0" result="hardAlpha"/>
<feMorphology radius="2" operator="dilate" in="SourceAlpha" result="effect1_dropShadow_342_501"/>
<feOffset/>
<feGaussianBlur stdDeviation="2.5"/>
<feComposite in2="hardAlpha" operator="out"/>
<feColorMatrix type="matrix" values="0 0 0 0 0.247917 0 0 0 0 0.763954 0 0 0 0 0.875 0 0 0 0.9 0"/>
<feBlend mode="normal" in2="BackgroundImageFix" result="effect1_dropShadow_342_501"/>
<feBlend mode="normal" in="SourceGraphic" in2="effect1_dropShadow_342_501" result="shape"/>
</filter>
<filter id="filter8_d_342_501" x="1070" y="4407" width="20" height="20" filterUnits="userSpaceOnUse" color-interpolation-filters="sRGB">
<feFlood flood-opacity="0" result="BackgroundImageFix"/>
<feColorMatrix in="SourceAlpha" type="matrix" values="0 0 0 0 0 0 0 0 0 0 0 0 0 0 0 0 0 0 127 0" result="hardAlpha"/>
<feMorphology radius="2" operator="dilate" in="SourceAlpha" result="effect1_dropShadow_342_501"/>
<feOffset/>
<feGaussianBlur stdDeviation="2.5"/>
<feComposite in2="hardAlpha" operator="out"/>
<feColorMatrix type="matrix" values="0 0 0 0 0.247917 0 0 0 0 0.763954 0 0 0 0 0.875 0 0 0 0.9 0"/>
<feBlend mode="normal" in2="BackgroundImageFix" result="effect1_dropShadow_342_501"/>
<feBlend mode="normal" in="SourceGraphic" in2="effect1_dropShadow_342_501" result="shape"/>
</filter>
<filter id="filter9_d_342_501" x="1192" y="795" width="24" height="24" filterUnits="userSpaceOnUse" color-interpolation-filters="sRGB">
<feFlood flood-opacity="0" result="BackgroundImageFix"/>
<feColorMatrix in="SourceAlpha" type="matrix" values="0 0 0 0 0 0 0 0 0 0 0 0 0 0 0 0 0 0 127 0" result="hardAlpha"/>
<feMorphology radius="2" operator="dilate" in="SourceAlpha" result="effect1_dropShadow_342_501"/>
<feOffset/>
<feGaussianBlur stdDeviation="2.5"/>
<feComposite in2="hardAlpha" operator="out"/>
<feColorMatrix type="matrix" values="0 0 0 0 0.960784 0 0 0 0 0.764706 0 0 0 0 0.443137 0 0 0 1 0"/>
<feBlend mode="normal" in2="BackgroundImageFix" result="effect1_dropShadow_342_501"/>
<feBlend mode="normal" in="SourceGraphic" in2="effect1_dropShadow_342_501" result="shape"/>
</filter>
<filter id="filter10_d_342_501" x="265" y="1697" width="24" height="24" filterUnits="userSpaceOnUse" color-interpolation-filters="sRGB">
<feFlood flood-opacity="0" result="BackgroundImageFix"/>
<feColorMatrix in="SourceAlpha" type="matrix" values="0 0 0 0 0 0 0 0 0 0 0 0 0 0 0 0 0 0 127 0" result="hardAlpha"/>
<feMorphology radius="2" operator="dilate" in="SourceAlpha" result="effect1_dropShadow_342_501"/>
<feOffset/>
<feGaussianBlur stdDeviation="2.5"/>
<feComposite in2="hardAlpha" operator="out"/>
<feColorMatrix type="matrix" values="0 0 0 0 0.960784 0 0 0 0 0.764706 0 0 0 0 0.443137 0 0 0 1 0"/>
<feBlend mode="normal" in2="BackgroundImageFix" result="effect1_dropShadow_342_501"/>
<feBlend mode="normal" in="SourceGraphic" in2="effect1_dropShadow_342_501" result="shape"/>
</filter>
<filter id="filter11_d_342_501" x="944" y="2349" width="24" height="24" filterUnits="userSpaceOnUse" color-interpolation-filters="sRGB">
<feFlood flood-opacity="0" result="BackgroundImageFix"/>
<feColorMatrix in="SourceAlpha" type="matrix" values="0 0 0 0 0 0 0 0 0 0 0 0 0 0 0 0 0 0 127 0" result="hardAlpha"/>
<feMorphology radius="2" operator="dilate" in="SourceAlpha" result="effect1_dropShadow_342_501"/>
<feOffset/>
<feGaussianBlur stdDeviation="2.5"/>
<feComposite in2="hardAlpha" operator="out"/>
<feColorMatrix type="matrix" values="0 0 0 0 0.960784 0 0 0 0 0.764706 0 0 0 0 0.443137 0 0 0 1 0"/>
<feBlend mode="normal" in2="BackgroundImageFix" result="effect1_dropShadow_342_501"/>
<feBlend mode="normal" in="SourceGraphic" in2="effect1_dropShadow_342_501" result="shape"/>
</filter>
<filter id="filter12_d_342_501" x="485" y="3258" width="24" height="24" filterUnits="userSpaceOnUse" color-interpolation-filters="sRGB">
<feFlood flood-opacity="0" result="BackgroundImageFix"/>
<feColorMatrix in="SourceAlpha" type="matrix" values="0 0 0 0 0 0 0 0 0 0 0 0 0 0 0 0 0 0 127 0" result="hardAlpha"/>
<feMorphology radius="2" operator="dilate" in="SourceAlpha" result="effect1_dropShadow_342_501"/>
<feOffset/>
<feGaussianBlur stdDeviation="2.5"/>
<feComposite in2="hardAlpha" operator="out"/>
<feColorMatrix type="matrix" values="0 0 0 0 0.960784 0 0 0 0 0.764706 0 0 0 0 0.443137 0 0 0 1 0"/>
<feBlend mode="normal" in2="BackgroundImageFix" result="effect1_dropShadow_342_501"/>
<feBlend mode="normal" in="SourceGraphic" in2="effect1_dropShadow_342_501" result="shape"/>
</filter>
<filter id="filter13_d_342_501" x="1098" y="4718" width="24" height="24" filterUnits="userSpaceOnUse" color-interpolation-filters="sRGB">
<feFlood flood-opacity="0" result="BackgroundImageFix"/>
<feColorMatrix in="SourceAlpha" type="matrix" values="0 0 0 0 0 0 0 0 0 0 0 0 0 0 0 0 0 0 127 0" result="hardAlpha"/>
<feMorphology radius="2" operator="dilate" in="SourceAlpha" result="effect1_dropShadow_342_501"/>
<feOffset/>
<feGaussianBlur stdDeviation="2.5"/>
<feComposite in2="hardAlpha" operator="out"/>
<feColorMatrix type="matrix" values="0 0 0 0 0.960784 0 0 0 0 0.764706 0 0 0 0 0.443137 0 0 0 1 0"/>
<feBlend mode="normal" in2="BackgroundImageFix" result="effect1_dropShadow_342_501"/>
<feBlend mode="normal" in="SourceGraphic" in2="effect1_dropShadow_342_501" result="shape"/>
</filter>
<radialGradient id="paint0_radial_342_501" cx="0" cy="0" r="1" gradientUnits="userSpaceOnUse" gradientTransform="translate(683 4707.5) rotate(162.94) scale(1218.62 364.18)">
<stop stop-color="#97CDCD"/>
<stop offset="0.594639" stop-color="#D2E4E4"/>
<stop offset="1" stop-color="#D2E4E4" stop-opacity="0"/>
</radialGradient>
<radialGradient id="paint1_radial_342_501" cx="0" cy="0" r="1" gradientUnits="userSpaceOnUse" gradientTransform="translate(729.5 2240.5) rotate(114.871) scale(355.467 1260.12)">
<stop stop-color="#A7D2D2"/>
<stop offset="0.572917" stop-color="#D2E4E4"/>
<stop offset="1" stop-color="#D2E4E4" stop-opacity="0"/>
</radialGradient>
<radialGradient id="paint2_radial_342_501" cx="0" cy="0" r="1" gradientUnits="userSpaceOnUse" gradientTransform="translate(1209.5 3818) rotate(-143.507) scale(258.106 282.812)">
<stop offset="0.567708" stop-color="#D2E4E4"/>
<stop offset="1" stop-color="#D2E4E4" stop-opacity="0.3"/>
</radialGradient>
<radialGradient id="paint3_radial_342_501" cx="0" cy="0" r="1" gradientUnits="userSpaceOnUse" gradientTransform="translate(-236 3545.5) rotate(-25.4244) scale(1010.9 689.171)">
<stop offset="0.244322" stop-color="#B7DBDB"/>
<stop offset="0.503933" stop-color="#B7DBDB" stop-opacity="0.6"/>
<stop offset="0.744508" stop-color="#B7DBDB" stop-opacity="0.8"/>
<stop offset="1" stop-color="#B7DBDB" stop-opacity="0.5"/>
</radialGradient>
<radialGradient id="paint4_diamond_342_501" cx="0" cy="0" r="1" gradientUnits="userSpaceOnUse" gradientTransform="translate(955 1080) rotate(115.568) scale(732.2 783.998)">
<stop offset="0.450354" stop-color="#C6E3DD"/>
<stop offset="0.841165" stop-color="#C3E2DC" stop-opacity="0.36"/>
</radialGradient>
<linearGradient id="paint5_linear_342_501" x1="638.5" y1="-1" x2="604.5" y2="438.5" gradientUnits="userSpaceOnUse">
<stop stop-color="#B7DBDB"/>
<stop offset="1" stop-color="#B7DBDB" stop-opacity="0"/>
</linearGradient>
</defs>
</svg>
