<svg width="157" height="23" viewBox="0 0 157 23" fill="none" xmlns="http://www.w3.org/2000/svg">
<rect width="157" height="23" rx="10" fill="#6EC1C5"/>
<path d="M48.4 5.492H52.348V6.766H48.4V5.492ZM48.232 9.468H52.488V10.742H48.232V9.468ZM48.232 11.4H52.488V12.674H48.232V11.4ZM47.434 7.41H53.146V8.768H47.434V7.41ZM53.342 7.76H60.342V9.328H53.342V7.76ZM53.006 16.202H60.566V17.784H53.006V16.202ZM53.636 11.862H60.118V13.416H53.636V11.862ZM48.988 13.346H52.642V17.448H48.988V16.202H51.088V14.592H48.988V13.346ZM48.12 13.346H49.632V18.078H48.12V13.346ZM55.96 5.128H57.64V8.46H55.96V5.128ZM55.96 8.362H57.64V17H55.96V8.362ZM62.764 5.898H72.564V7.55H64.416V18.288H62.764V5.898ZM71.668 5.898H73.334V16.426C73.334 17.168 73.222 17.63 72.774 17.924C72.34 18.204 71.766 18.246 70.954 18.246C70.912 17.798 70.688 17.042 70.464 16.608C70.87 16.636 71.318 16.636 71.458 16.636C71.626 16.636 71.668 16.566 71.668 16.398V5.898ZM61.42 10.952H74.58V12.59H61.42V10.952ZM65.732 6.444H67.286V18.05H65.732V6.444ZM68.658 6.444H70.24V18.05H68.658V6.444ZM78.514 10.21V11.974H85.43V10.21H78.514ZM77.114 9.174H86.914V13.01H77.114V9.174ZM79.522 7.578H84.464V8.67H79.522V7.578ZM81.244 9.51H82.602V12.464H81.244V9.51ZM81.916 6.416C80.67 7.62 78.388 8.922 76.176 9.692C75.994 9.314 75.602 8.712 75.308 8.362C77.604 7.676 79.9 6.36 81.048 5.114H82.644C84.24 6.598 86.508 7.704 88.678 8.25C88.314 8.628 87.95 9.202 87.698 9.636C85.752 8.978 83.274 7.676 81.916 6.416ZM79.004 10.518L80.166 10.196C80.418 10.672 80.642 11.288 80.726 11.708L79.494 12.072C79.438 11.652 79.242 11.008 79.004 10.518ZM83.638 10.14L85.024 10.476C84.716 11.078 84.436 11.666 84.212 12.058L83.064 11.75C83.26 11.288 83.526 10.602 83.638 10.14ZM77.884 13.458H86.172V18.218H84.45V14.55H79.536V18.26H77.884V13.458ZM78.836 15.11H85.164V16.216H78.836V15.11ZM78.836 16.79H85.164V17.882H78.836V16.79ZM93.172 6.864V7.76H98.856V6.864H93.172ZM91.492 5.562H100.648V9.076H91.492V5.562ZM92.528 12.408V12.996H99.402V12.408H92.528ZM92.528 14.074V14.676H99.402V14.074H92.528ZM92.528 10.742V11.33H99.402V10.742H92.528ZM90.848 9.594H101.152V15.81H90.848V9.594ZM93.564 15.53L95.062 16.58C93.942 17.238 92.122 17.924 90.694 18.26C90.386 17.91 89.826 17.378 89.42 17.056C90.89 16.734 92.682 16.076 93.564 15.53ZM96.644 16.664L98.114 15.6C99.598 15.992 101.474 16.65 102.636 17.098L101.166 18.288C100.074 17.784 98.142 17.084 96.644 16.664Z" fill="white"/>
<path d="M109 16C109 16.824 109.941 17.2944 110.6 16.8L115.933 12.8C116.467 12.4 116.467 11.6 115.933 11.2L110.6 7.2C109.941 6.70557 109 7.17595 109 8V16Z" fill="#DBF0F1"/>
</svg>
