<svg width="406" height="481" viewBox="0 0 406 481" fill="none" xmlns="http://www.w3.org/2000/svg">
<rect width="406" height="481" rx="30" fill="#D9D9D9"/>
<path d="M212.5 232.021C213.163 232.021 213.799 232.224 214.268 232.585C214.737 232.947 215 233.437 215 233.948V247.438C215 247.949 214.737 248.439 214.268 248.8C213.799 249.162 213.163 249.365 212.5 249.365H192.5C191.837 249.365 191.201 249.162 190.732 248.8C190.263 248.439 190 247.949 190 247.438V233.948C190 233.437 190.263 232.947 190.732 232.585C191.201 232.224 191.837 232.021 192.5 232.021H212.5ZM212.5 233.948H192.5V243.68L198.744 238.868C198.889 238.756 199.061 238.667 199.251 238.607C199.44 238.546 199.644 238.515 199.849 238.515C200.054 238.515 200.257 238.546 200.447 238.607C200.636 238.667 200.809 238.756 200.954 238.868L206.035 242.786L207.582 241.593C207.728 241.481 207.9 241.392 208.089 241.332C208.279 241.271 208.482 241.24 208.688 241.24C208.893 241.24 209.096 241.271 209.286 241.332C209.475 241.392 209.647 241.481 209.792 241.593L212.5 243.681V233.948ZM206.875 235.875C207.372 235.875 207.849 236.027 208.201 236.298C208.552 236.569 208.75 236.937 208.75 237.32C208.75 237.704 208.552 238.071 208.201 238.342C207.849 238.613 207.372 238.766 206.875 238.766C206.378 238.766 205.901 238.613 205.549 238.342C205.198 238.071 205 237.704 205 237.32C205 236.937 205.198 236.569 205.549 236.298C205.901 236.027 206.378 235.875 206.875 235.875Z" fill="#FEFEFE"/>
</svg>
