<svg width="370" height="440" viewBox="0 0 370 440" fill="none" xmlns="http://www.w3.org/2000/svg">
<rect width="370" height="440" rx="30" fill="#D9D9D9"/>
<path d="M193.658 212.244C194.262 212.244 194.842 212.429 195.269 212.76C195.696 213.09 195.936 213.539 195.936 214.006V226.346C195.936 226.814 195.696 227.262 195.269 227.593C194.842 227.923 194.262 228.109 193.658 228.109H175.431C174.827 228.109 174.247 227.923 173.82 227.593C173.393 227.262 173.153 226.814 173.153 226.346V214.006C173.153 213.539 173.393 213.09 173.82 212.76C174.247 212.429 174.827 212.244 175.431 212.244H193.658ZM193.658 214.006H175.431V222.909L181.121 218.507C181.254 218.404 181.41 218.323 181.583 218.268C181.756 218.213 181.941 218.184 182.128 218.184C182.315 218.184 182.501 218.213 182.673 218.268C182.846 218.323 183.003 218.404 183.135 218.507L187.766 222.091L189.176 220.999C189.309 220.897 189.466 220.816 189.638 220.761C189.811 220.705 189.996 220.677 190.183 220.677C190.37 220.677 190.556 220.705 190.728 220.761C190.901 220.816 191.058 220.897 191.19 220.999L193.658 222.909V214.006ZM188.532 215.769C188.985 215.769 189.419 215.908 189.74 216.156C190.06 216.404 190.24 216.741 190.24 217.091C190.24 217.442 190.06 217.778 189.74 218.026C189.419 218.274 188.985 218.413 188.532 218.413C188.078 218.413 187.644 218.274 187.323 218.026C187.003 217.778 186.823 217.442 186.823 217.091C186.823 216.741 187.003 216.404 187.323 216.156C187.644 215.908 188.078 215.769 188.532 215.769Z" fill="#FEFEFE"/>
</svg>
