<svg width="86" height="49" viewBox="0 0 86 49" fill="none" xmlns="http://www.w3.org/2000/svg">
<path d="M30.0922 0.230883C26.9947 1.60057 28.0392 3.62015 31.7607 3.45761C34.1729 3.35215 36.4285 1.54414 35.264 0.64918C34.4742 0.0422198 31.1304 -0.228369 30.0922 0.230883Z" fill="black"/>
<path d="M30.0922 0.230883C26.9947 1.60057 28.0392 3.62015 31.7607 3.45761C34.1729 3.35215 36.4285 1.54414 35.264 0.64918C34.4742 0.0422198 31.1304 -0.228369 30.0922 0.230883Z" stroke="black"/>
<path d="M38.9418 32.748V34.668H38.7138C38.7138 34.612 38.7018 34.556 38.6778 34.5C38.6538 34.444 38.6218 34.416 38.5818 34.416H34.6938V36.54H37.8378C37.8778 36.54 37.9098 36.512 37.9338 36.456C37.9578 36.4 37.9698 36.344 37.9698 36.288H38.1978V38.208H37.9698C37.9698 38.152 37.9578 38.096 37.9338 38.04C37.9098 37.984 37.8778 37.956 37.8378 37.956H34.6938V41.64C34.6938 41.68 34.7218 41.712 34.7778 41.736C34.8418 41.76 34.9058 41.772 34.9698 41.772V42H32.8578V41.772C32.9218 41.772 32.9818 41.76 33.0378 41.736C33.1018 41.712 33.1338 41.68 33.1338 41.64V33.36C33.1338 33.32 33.1018 33.288 33.0378 33.264C32.9818 33.24 32.9258 33.228 32.8698 33.228V33H38.5818C38.6218 33 38.6538 32.972 38.6778 32.916C38.7018 32.86 38.7138 32.804 38.7138 32.748H38.9418ZM40.9476 35.472C40.6916 35.472 40.4716 35.384 40.2876 35.208C40.1116 35.032 40.0236 34.812 40.0236 34.548C40.0236 34.3 40.1116 34.088 40.2876 33.912C40.4716 33.728 40.6916 33.636 40.9476 33.636C41.2036 33.636 41.4196 33.728 41.5956 33.912C41.7716 34.088 41.8596 34.3 41.8596 34.548C41.8596 34.812 41.7716 35.032 41.5956 35.208C41.4196 35.384 41.2036 35.472 40.9476 35.472ZM40.1676 36.84C40.1676 36.8 40.1356 36.768 40.0716 36.744C40.0156 36.72 39.9596 36.708 39.9036 36.708V36.48H41.9676V36.708C41.9116 36.708 41.8516 36.72 41.7876 36.744C41.7316 36.768 41.7036 36.8 41.7036 36.84V41.64C41.7036 41.68 41.7316 41.712 41.7876 41.736C41.8516 41.76 41.9116 41.772 41.9676 41.772V42H39.9036V41.772C39.9596 41.772 40.0156 41.76 40.0716 41.736C40.1356 41.712 40.1676 41.68 40.1676 41.64V36.84ZM46.4555 36.24V38.064H46.2275C46.2275 38.008 46.2155 37.956 46.1915 37.908C46.1675 37.852 46.1355 37.824 46.0955 37.824H45.3155V41.64C45.3155 41.68 45.3435 41.712 45.3995 41.736C45.4555 41.76 45.5115 41.772 45.5675 41.772V42H43.6115V41.772C43.6675 41.772 43.7235 41.76 43.7795 41.736C43.8355 41.712 43.8635 41.68 43.8635 41.64V37.824H43.2875C43.2475 37.824 43.2155 37.852 43.1915 37.908C43.1675 37.956 43.1555 38.008 43.1555 38.064H42.9275V36.24H43.1555C43.1555 36.296 43.1675 36.352 43.1915 36.408C43.2155 36.456 43.2475 36.48 43.2875 36.48H43.8635V35.076C43.8635 35.036 43.8355 35.004 43.7795 34.98C43.7235 34.956 43.6675 34.944 43.6115 34.944V34.716H45.5675V34.944C45.5115 34.944 45.4555 34.956 45.3995 34.98C45.3435 35.004 45.3155 35.036 45.3155 35.076V36.48H46.0955C46.1355 36.48 46.1675 36.456 46.1915 36.408C46.2155 36.352 46.2275 36.296 46.2275 36.24H46.4555ZM55.1106 42.12C54.2546 42.12 53.4666 41.92 52.7466 41.52C52.0266 41.112 51.4586 40.552 51.0426 39.84C50.6266 39.12 50.4186 38.32 50.4186 37.44C50.4186 36.512 50.6266 35.692 51.0426 34.98C51.4586 34.268 52.0186 33.72 52.7226 33.336C53.4266 32.944 54.1986 32.748 55.0386 32.748C55.8466 32.748 56.5266 32.892 57.0786 33.18C57.6386 33.46 58.1666 33.856 58.6626 34.368C58.6786 34.384 58.7026 34.392 58.7346 34.392C58.7826 34.392 58.8666 34.356 58.9866 34.284L59.1306 34.464L57.4746 35.772L57.3306 35.592C57.3786 35.56 57.4146 35.52 57.4386 35.472C57.4706 35.416 57.4706 35.376 57.4386 35.352C57.1026 35.024 56.7506 34.776 56.3826 34.608C56.0226 34.432 55.5826 34.344 55.0626 34.344C54.5186 34.344 54.0186 34.48 53.5626 34.752C53.1066 35.016 52.7466 35.384 52.4826 35.856C52.2186 36.328 52.0866 36.856 52.0866 37.44C52.0866 38 52.2266 38.512 52.5066 38.976C52.7866 39.432 53.1586 39.792 53.6226 40.056C54.0866 40.32 54.5826 40.452 55.1106 40.452C55.6066 40.452 56.0306 40.368 56.3826 40.2C56.7346 40.024 57.0666 39.764 57.3786 39.42L57.4026 39.372C57.4026 39.332 57.3826 39.288 57.3426 39.24C57.3106 39.184 57.2746 39.144 57.2346 39.12L57.3906 38.952L59.1786 40.452L59.0346 40.632C58.9866 40.592 58.9266 40.556 58.8546 40.524C58.7826 40.492 58.7346 40.492 58.7106 40.524C58.2066 41.068 57.6786 41.472 57.1266 41.736C56.5746 41.992 55.9026 42.12 55.1106 42.12ZM60.0624 33.36C60.0624 33.32 60.0304 33.288 59.9664 33.264C59.9104 33.24 59.8504 33.228 59.7864 33.228V33H61.8984V33.228C61.8344 33.228 61.7704 33.24 61.7064 33.264C61.6504 33.288 61.6224 33.32 61.6224 33.36V41.64C61.6224 41.68 61.6504 41.712 61.7064 41.736C61.7704 41.76 61.8344 41.772 61.8984 41.772V42H59.7864V41.772C59.8504 41.772 59.9104 41.76 59.9664 41.736C60.0304 41.712 60.0624 41.68 60.0624 41.64V33.36ZM68.3973 41.64C68.3973 41.68 68.4253 41.712 68.4813 41.736C68.5453 41.76 68.6053 41.772 68.6613 41.772V42H67.1733V41.556C66.7493 41.924 66.2573 42.108 65.6973 42.108C64.8573 42.108 64.2413 41.868 63.8493 41.388C63.4573 40.9 63.2613 40.292 63.2613 39.564V36.84C63.2613 36.8 63.2293 36.768 63.1653 36.744C63.1093 36.72 63.0533 36.708 62.9973 36.708V36.48H65.0373V36.708C64.9813 36.708 64.9213 36.72 64.8573 36.744C64.8013 36.768 64.7733 36.8 64.7733 36.84V39.468C64.7733 39.812 64.8613 40.104 65.0373 40.344C65.2133 40.576 65.4853 40.692 65.8533 40.692C66.2053 40.692 66.4693 40.584 66.6453 40.368C66.8213 40.152 66.9093 39.876 66.9093 39.54V36.84C66.9093 36.8 66.8773 36.768 66.8133 36.744C66.7573 36.72 66.7013 36.708 66.6453 36.708V36.48H68.6613V36.708C68.6053 36.708 68.5453 36.72 68.4813 36.744C68.4253 36.768 68.3973 36.8 68.3973 36.84V41.64ZM73.2748 36.336C73.8428 36.336 74.3588 36.46 74.8228 36.708C75.2868 36.948 75.6508 37.288 75.9148 37.728C76.1868 38.168 76.3228 38.676 76.3228 39.252C76.3228 39.836 76.1908 40.348 75.9268 40.788C75.6628 41.22 75.2988 41.556 74.8348 41.796C74.3788 42.036 73.8588 42.156 73.2748 42.156C72.6028 42.156 72.0188 41.956 71.5228 41.556V42H69.7708V41.772C69.8268 41.772 69.8828 41.76 69.9388 41.736C70.0028 41.712 70.0348 41.68 70.0348 41.64V33.36C70.0348 33.32 70.0028 33.288 69.9388 33.264C69.8828 33.24 69.8268 33.228 69.7708 33.228V33H71.7868V33.228C71.7308 33.228 71.6708 33.24 71.6068 33.264C71.5508 33.288 71.5228 33.32 71.5228 33.36V36.9C72.0028 36.524 72.5868 36.336 73.2748 36.336ZM73.1788 40.884C73.6588 40.884 74.0588 40.736 74.3788 40.44C74.7068 40.144 74.8708 39.748 74.8708 39.252C74.8708 38.788 74.7108 38.404 74.3908 38.1C74.0708 37.788 73.6668 37.632 73.1788 37.632C72.6828 37.632 72.2748 37.788 71.9548 38.1C71.6348 38.412 71.4748 38.808 71.4748 39.288C71.4748 39.568 71.5468 39.832 71.6908 40.08C71.8428 40.32 72.0508 40.516 72.3148 40.668C72.5788 40.812 72.8668 40.884 73.1788 40.884Z" fill="#FEFEFE"/>
<path d="M53.113 2.16985C50.0156 3.53953 51.0601 5.55912 54.7816 5.39657C57.1938 5.29111 59.4494 3.4831 58.2849 2.58815C57.4951 1.98118 54.1513 1.7106 53.113 2.16985Z" fill="black"/>
<path d="M53.113 2.16985C50.0156 3.53953 51.0601 5.55912 54.7816 5.39657C57.1938 5.29111 59.4494 3.4831 58.2849 2.58815C57.4951 1.98118 54.1513 1.7106 53.113 2.16985Z" stroke="black"/>
<path d="M73.4921 0.230883C70.3947 1.60057 71.4392 3.62015 75.1607 3.45761C77.5729 3.35215 79.8285 1.54414 78.664 0.64918C77.8742 0.0422198 74.5304 -0.228369 73.4921 0.230883Z" fill="black"/>
<path d="M73.4921 0.230883C70.3947 1.60057 71.4392 3.62015 75.1607 3.45761C77.5729 3.35215 79.8285 1.54414 78.664 0.64918C77.8742 0.0422198 74.5304 -0.228369 73.4921 0.230883Z" stroke="black"/>
<mask id="path-5-outside-1_243_470" maskUnits="userSpaceOnUse" x="0" y="5" width="83" height="34" fill="black">
<rect fill="white" y="5" width="83" height="34"/>
<path fill-rule="evenodd" clip-rule="evenodd" d="M73.2839 6.64361C73.9407 6.60389 74.5963 6.56425 75.4207 6.50939C78.5885 6.29862 81.8416 6.12416 82 6.50937C82 7.19398 80.4103 7.29488 77.8885 7.45494C77.7981 7.46067 77.7066 7.46649 77.6138 7.4724C74.7014 7.65824 74.651 7.66263 71.9157 7.90082C71.2181 7.96157 70.3458 8.03753 69.2069 8.13558C56.5269 9.22724 37.7141 11.0273 31.4369 11.7488C25.5828 12.4218 25.0155 12.5608 23.9746 13.5743C22.6655 14.8493 18.5328 20.9032 18.8183 21.1286C18.9777 21.2549 33.669 18.689 38.0849 17.7634C39.4037 17.4872 40.1625 17.8832 39.568 18.5377C39.3847 18.7391 37.9426 19.4152 36.3636 20.0392C34.7349 20.6832 31.7596 22.471 29.4875 24.1705C25.8475 26.8939 24.8576 27.3523 24.8576 26.3142C24.8576 26.1169 26.3192 24.7591 28.1054 23.2969C31.936 20.1606 31.9345 20.1598 23.4102 21.7279C17.8612 22.7487 17.8124 22.7676 16.7281 24.2968C15.1573 26.5118 12.145 33.8981 11.8306 36.3052C11.5446 38.4958 11.0904 38.8468 10.2146 37.5536C9.49329 36.4886 10.6181 32.5406 13.1134 27.3789C14.1378 25.2603 14.9361 23.486 14.8873 23.4359C14.8386 23.3858 13.1962 23.6959 11.2375 24.125C9.27837 24.5538 7.56288 24.8157 7.42496 24.7067C6.96928 24.3465 8.30464 23.4143 9.64779 23.1551C10.3739 23.0149 12.0943 22.6447 13.4711 22.3323L15.9741 21.7641L18.9694 17.4895C20.6167 15.1387 21.8711 13.1409 21.7566 13.0504C21.6421 12.9599 18.1175 13.4926 13.9243 14.2338C8.47326 15.1975 6.06232 15.7966 5.46628 16.3347C4.82395 16.9148 4.21281 17.0435 2.80484 16.8948C0.620513 16.6636 0.371475 15.7973 2.31748 15.1995C4.37363 14.5674 16.384 12.2881 20.3355 11.7796C23.6037 11.3594 23.9326 11.2276 24.9424 9.93603C26.5293 7.90718 28.7555 6 29.5382 6C30.5197 6 30.4115 6.23153 28.5128 8.19721C26.5098 10.2704 26.3148 11.1113 27.9036 10.8247C29.5684 10.5242 41.822 9.19488 49.2254 8.51115C56.1986 7.86715 57.319 7.78763 60.1137 7.58927C61.5672 7.4861 63.4737 7.35079 66.892 7.08719C70.3213 6.82275 71.8055 6.73301 73.2839 6.64361ZM68.9633 14.6394C71.4795 14.2731 74.7691 13.6617 76.2736 13.2815C79.7124 12.4121 81.1506 12.3802 81.5317 13.1652C81.9167 13.9583 81.0931 14.3432 78.319 14.6667C75.6742 14.9753 73.8115 15.8197 71.3635 17.8208C69.2309 19.5638 66.0938 23.5777 66.0938 24.5634C66.0938 24.9467 65.7648 25.2602 65.3627 25.2602C63.4728 25.2602 65.0352 21.6947 68.3234 18.5041C69.553 17.3108 70.4356 16.2368 70.2845 16.1174C69.9317 15.8389 60.3098 17.0423 56.9393 17.7869C54.4601 18.3346 53.4225 18.2684 53.4225 17.5635C53.4225 17.1243 55.7165 16.577 60.4892 15.8774C62.6335 15.5631 66.4466 15.0061 68.9633 14.6394ZM40.2064 29.5402C39.0577 28.979 44.5585 18.716 47.9203 15.1486C49.3984 13.5805 50.841 12.9992 50.841 13.9718C50.841 14.2253 50.3156 14.8751 49.6738 15.4164C47.912 16.9017 44.2422 22.5581 42.787 26.0306C41.4073 29.3233 40.9726 29.9143 40.2064 29.5402Z"/>
</mask>
<path fill-rule="evenodd" clip-rule="evenodd" d="M73.2839 6.64361C73.9407 6.60389 74.5963 6.56425 75.4207 6.50939C78.5885 6.29862 81.8416 6.12416 82 6.50937C82 7.19398 80.4103 7.29488 77.8885 7.45494C77.7981 7.46067 77.7066 7.46649 77.6138 7.4724C74.7014 7.65824 74.651 7.66263 71.9157 7.90082C71.2181 7.96157 70.3458 8.03753 69.2069 8.13558C56.5269 9.22724 37.7141 11.0273 31.4369 11.7488C25.5828 12.4218 25.0155 12.5608 23.9746 13.5743C22.6655 14.8493 18.5328 20.9032 18.8183 21.1286C18.9777 21.2549 33.669 18.689 38.0849 17.7634C39.4037 17.4872 40.1625 17.8832 39.568 18.5377C39.3847 18.7391 37.9426 19.4152 36.3636 20.0392C34.7349 20.6832 31.7596 22.471 29.4875 24.1705C25.8475 26.8939 24.8576 27.3523 24.8576 26.3142C24.8576 26.1169 26.3192 24.7591 28.1054 23.2969C31.936 20.1606 31.9345 20.1598 23.4102 21.7279C17.8612 22.7487 17.8124 22.7676 16.7281 24.2968C15.1573 26.5118 12.145 33.8981 11.8306 36.3052C11.5446 38.4958 11.0904 38.8468 10.2146 37.5536C9.49329 36.4886 10.6181 32.5406 13.1134 27.3789C14.1378 25.2603 14.9361 23.486 14.8873 23.4359C14.8386 23.3858 13.1962 23.6959 11.2375 24.125C9.27837 24.5538 7.56288 24.8157 7.42496 24.7067C6.96928 24.3465 8.30464 23.4143 9.64779 23.1551C10.3739 23.0149 12.0943 22.6447 13.4711 22.3323L15.9741 21.7641L18.9694 17.4895C20.6167 15.1387 21.8711 13.1409 21.7566 13.0504C21.6421 12.9599 18.1175 13.4926 13.9243 14.2338C8.47326 15.1975 6.06232 15.7966 5.46628 16.3347C4.82395 16.9148 4.21281 17.0435 2.80484 16.8948C0.620513 16.6636 0.371475 15.7973 2.31748 15.1995C4.37363 14.5674 16.384 12.2881 20.3355 11.7796C23.6037 11.3594 23.9326 11.2276 24.9424 9.93603C26.5293 7.90718 28.7555 6 29.5382 6C30.5197 6 30.4115 6.23153 28.5128 8.19721C26.5098 10.2704 26.3148 11.1113 27.9036 10.8247C29.5684 10.5242 41.822 9.19488 49.2254 8.51115C56.1986 7.86715 57.319 7.78763 60.1137 7.58927C61.5672 7.4861 63.4737 7.35079 66.892 7.08719C70.3213 6.82275 71.8055 6.73301 73.2839 6.64361ZM68.9633 14.6394C71.4795 14.2731 74.7691 13.6617 76.2736 13.2815C79.7124 12.4121 81.1506 12.3802 81.5317 13.1652C81.9167 13.9583 81.0931 14.3432 78.319 14.6667C75.6742 14.9753 73.8115 15.8197 71.3635 17.8208C69.2309 19.5638 66.0938 23.5777 66.0938 24.5634C66.0938 24.9467 65.7648 25.2602 65.3627 25.2602C63.4728 25.2602 65.0352 21.6947 68.3234 18.5041C69.553 17.3108 70.4356 16.2368 70.2845 16.1174C69.9317 15.8389 60.3098 17.0423 56.9393 17.7869C54.4601 18.3346 53.4225 18.2684 53.4225 17.5635C53.4225 17.1243 55.7165 16.577 60.4892 15.8774C62.6335 15.5631 66.4466 15.0061 68.9633 14.6394ZM40.2064 29.5402C39.0577 28.979 44.5585 18.716 47.9203 15.1486C49.3984 13.5805 50.841 12.9992 50.841 13.9718C50.841 14.2253 50.3156 14.8751 49.6738 15.4164C47.912 16.9017 44.2422 22.5581 42.787 26.0306C41.4073 29.3233 40.9726 29.9143 40.2064 29.5402Z" fill="black"/>
<path d="M75.4207 6.50939L75.4539 7.00829L75.4539 7.00829L75.4207 6.50939ZM73.2839 6.64361L73.3141 7.14269L73.3141 7.14269L73.2839 6.64361ZM82 6.50937H82.5V6.41059L82.4624 6.31924L82 6.50937ZM77.8885 7.45494L77.8568 6.95594L77.8568 6.95594L77.8885 7.45494ZM77.6138 7.4724L77.6456 7.97139L77.6456 7.97139L77.6138 7.4724ZM71.9157 7.90082L71.8723 7.40271L71.8723 7.40271L71.9157 7.90082ZM69.2069 8.13558L69.164 7.63742L69.164 7.63742L69.2069 8.13558ZM31.4369 11.7488L31.3798 11.2521L31.3798 11.2521L31.4369 11.7488ZM23.9746 13.5743L23.6258 13.216L23.6257 13.2161L23.9746 13.5743ZM18.8183 21.1286L19.129 20.7367L19.1281 20.736L18.8183 21.1286ZM38.0849 17.7634L37.9824 17.274L37.9824 17.274L38.0849 17.7634ZM39.568 18.5377L39.9378 18.8741L39.938 18.8739L39.568 18.5377ZM36.3636 20.0392L36.1798 19.5742L36.1797 19.5742L36.3636 20.0392ZM29.4875 24.1705L29.188 23.7701L29.188 23.7701L29.4875 24.1705ZM28.1054 23.2969L28.4221 23.6837L28.4221 23.6837L28.1054 23.2969ZM23.4102 21.7279L23.5007 22.2197L23.5007 22.2197L23.4102 21.7279ZM16.7281 24.2968L17.1359 24.5861L17.1359 24.5861L16.7281 24.2968ZM11.8306 36.3052L12.3264 36.3699L12.3264 36.3699L11.8306 36.3052ZM10.2146 37.5536L9.80058 37.834L9.80059 37.834L10.2146 37.5536ZM13.1134 27.3789L12.6632 27.1612L12.6632 27.1613L13.1134 27.3789ZM11.2375 24.125L11.3444 24.6135L11.3445 24.6135L11.2375 24.125ZM7.42496 24.7067L7.11492 25.099L7.11492 25.099L7.42496 24.7067ZM9.64779 23.1551L9.74254 23.646L9.74258 23.646L9.64779 23.1551ZM13.4711 22.3323L13.5817 22.8199L13.5818 22.8199L13.4711 22.3323ZM15.9741 21.7641L16.0848 22.2517L16.2729 22.209L16.3836 22.0511L15.9741 21.7641ZM18.9694 17.4895L19.3789 17.7765L19.3789 17.7765L18.9694 17.4895ZM13.9243 14.2338L13.8373 13.7414L13.8373 13.7414L13.9243 14.2338ZM5.46628 16.3347L5.13122 15.9636L5.13116 15.9636L5.46628 16.3347ZM2.80484 16.8948L2.75223 17.392L2.75233 17.392L2.80484 16.8948ZM2.31748 15.1995L2.46431 15.6774L2.46441 15.6774L2.31748 15.1995ZM20.3355 11.7796L20.2717 11.2837L20.2717 11.2837L20.3355 11.7796ZM24.9424 9.93603L24.5486 9.62799L24.5485 9.62807L24.9424 9.93603ZM28.5128 8.19721L28.8724 8.54463L28.8724 8.54459L28.5128 8.19721ZM27.9036 10.8247L27.9924 11.3168L27.9924 11.3168L27.9036 10.8247ZM49.2254 8.51115L49.2714 9.00903L49.2714 9.00903L49.2254 8.51115ZM60.1137 7.58927L60.1491 8.08801L60.1137 7.58927ZM66.892 7.08719L66.8535 6.58867L66.8535 6.58867L66.892 7.08719ZM76.2736 13.2815L76.3961 13.7663L76.3962 13.7663L76.2736 13.2815ZM68.9633 14.6394L68.8913 14.1446L68.8912 14.1446L68.9633 14.6394ZM81.5317 13.1652L81.9815 12.9469L81.9815 12.9468L81.5317 13.1652ZM78.319 14.6667L78.2611 14.1701L78.2611 14.1701L78.319 14.6667ZM71.3635 17.8208L71.6799 18.2079L71.68 18.2079L71.3635 17.8208ZM68.3234 18.5041L68.6716 18.863L68.6716 18.8629L68.3234 18.5041ZM70.2845 16.1174L70.5946 15.7252L70.5943 15.7249L70.2845 16.1174ZM56.9393 17.7869L56.8314 17.2987L56.8314 17.2987L56.9393 17.7869ZM60.4892 15.8774L60.5617 16.3722L60.5617 16.3722L60.4892 15.8774ZM47.9203 15.1486L47.5565 14.8057L47.5564 14.8057L47.9203 15.1486ZM40.2064 29.5402L39.9869 29.9895L39.9871 29.9895L40.2064 29.5402ZM49.6738 15.4164L49.9961 15.7986L49.9961 15.7986L49.6738 15.4164ZM42.787 26.0306L42.3258 25.8374L42.3258 25.8374L42.787 26.0306ZM75.3875 6.0105C74.5647 6.06524 73.9105 6.10481 73.2538 6.14452L73.3141 7.14269C73.9709 7.10298 74.6278 7.06326 75.4539 7.00829L75.3875 6.0105ZM82.4624 6.31924C82.3945 6.1541 82.2698 6.06112 82.1906 6.01398C82.1064 5.9638 82.0168 5.93169 81.9398 5.90956C81.7847 5.865 81.5959 5.83759 81.3963 5.81931C80.9916 5.78223 80.4491 5.77498 79.83 5.78597C78.5872 5.80802 76.9706 5.90516 75.3875 6.0105L75.4539 7.00829C77.0386 6.90285 78.6325 6.80737 79.8478 6.78581C80.4577 6.77498 80.9562 6.78317 81.305 6.81514C81.4822 6.83137 81.5982 6.85188 81.6637 6.87069C81.697 6.88025 81.6966 6.88368 81.679 6.87316C81.6664 6.86568 81.5857 6.81648 81.5376 6.69949L82.4624 6.31924ZM77.9202 7.95393C79.1673 7.87478 80.2312 7.80812 80.9802 7.67065C81.3509 7.60261 81.6969 7.50881 81.9612 7.357C82.2404 7.19664 82.5 6.92322 82.5 6.50937H81.5C81.5 6.43782 81.5609 6.43375 81.4632 6.48986C81.3506 6.55451 81.1416 6.62431 80.7996 6.68708C80.1233 6.81123 79.1315 6.87504 77.8568 6.95594L77.9202 7.95393ZM77.6456 7.97139C77.7383 7.96548 77.8298 7.95967 77.9202 7.95393L77.8568 6.95594C77.7665 6.96168 77.6748 6.96749 77.582 6.97342L77.6456 7.97139ZM71.959 8.39894C74.6905 8.16109 74.737 8.15699 77.6456 7.97139L77.582 6.97342C74.6658 7.1595 74.6116 7.16417 71.8723 7.40271L71.959 8.39894ZM69.2498 8.63373C70.389 8.53566 71.2614 8.45969 71.959 8.39894L71.8723 7.40271C71.1747 7.46345 70.3027 7.53939 69.164 7.63742L69.2498 8.63373ZM31.494 12.2455C37.7638 11.5249 56.5709 9.7253 69.2498 8.63373L69.164 7.63742C56.483 8.72917 37.6643 10.5298 31.3798 11.2521L31.494 12.2455ZM24.3233 13.9326C24.5716 13.6909 24.767 13.5258 25.0043 13.3904C25.2423 13.2546 25.5463 13.1353 26.0197 13.0195C26.9854 12.7833 28.5531 12.5836 31.494 12.2455L31.3798 11.2521C28.4667 11.587 26.8236 11.7933 25.782 12.0482C25.2516 12.1779 24.8527 12.3256 24.5087 12.5219C24.1639 12.7186 23.898 12.951 23.6258 13.216L24.3233 13.9326ZM19.1281 20.736C19.2924 20.8657 19.303 21.0389 19.3041 21.0764C19.3055 21.1269 19.2962 21.156 19.2986 21.147C19.302 21.134 19.3172 21.0892 19.3575 21.0025C19.435 20.836 19.5679 20.5932 19.7493 20.2878C20.1096 19.6812 20.6339 18.8731 21.2114 18.0269C22.3783 16.3175 23.7111 14.5289 24.3234 13.9325L23.6257 13.2161C22.9289 13.8948 21.5409 15.7705 20.3855 17.4632C19.8019 18.3181 19.2648 19.1453 18.8895 19.7771C18.7032 20.0908 18.5499 20.3679 18.4509 20.5806C18.403 20.6835 18.3575 20.7931 18.331 20.8942C18.3185 20.9422 18.302 21.0183 18.3045 21.1049C18.3066 21.1786 18.3265 21.3773 18.5086 21.5211L19.1281 20.736ZM37.9824 17.274C35.7837 17.7349 31.0146 18.6065 26.7694 19.3479C24.6481 19.7184 22.661 20.0558 21.1953 20.2926C20.4619 20.4111 19.8617 20.5039 19.4412 20.5631C19.2301 20.5928 19.0693 20.6133 18.9613 20.6244C18.906 20.6301 18.873 20.6324 18.8571 20.633C18.8477 20.6333 18.8552 20.6326 18.8719 20.6338C18.8796 20.6343 18.9022 20.6361 18.932 20.6427C18.9456 20.6457 19.0372 20.664 19.129 20.7367L18.5077 21.5204C18.6019 21.595 18.6978 21.6151 18.7175 21.6194C18.7533 21.6272 18.7836 21.63 18.8008 21.6313C18.8365 21.6338 18.8699 21.6332 18.8931 21.6323C18.9425 21.6305 19.0015 21.6255 19.0636 21.6191C19.1905 21.6061 19.366 21.5835 19.5805 21.5533C20.0112 21.4927 20.6194 21.3986 21.3547 21.2798C22.8264 21.0421 24.818 20.7039 26.9415 20.333C31.1857 19.5917 35.9702 18.7175 38.1875 18.2528L37.9824 17.274ZM39.938 18.8739C40.1263 18.6667 40.2924 18.3904 40.2715 18.0692C40.2484 17.7153 40.0143 17.483 39.7753 17.3583C39.5442 17.2377 39.2618 17.186 38.9738 17.1761C38.6788 17.166 38.3433 17.1985 37.9824 17.274L38.1874 18.2528C38.486 18.1903 38.7399 18.1687 38.9394 18.1755C39.1461 18.1827 39.2635 18.2192 39.3126 18.2448C39.3538 18.2663 39.2804 18.2385 39.2736 18.1343C39.2689 18.0628 39.3069 18.0814 39.1979 18.2015L39.938 18.8739ZM36.5474 20.5042C37.3448 20.189 38.1098 19.86 38.7014 19.5827C38.9966 19.4444 39.2536 19.3166 39.4518 19.2083C39.5506 19.1543 39.6401 19.1022 39.7147 19.0538C39.7783 19.0125 39.8683 18.9505 39.9378 18.8741L39.1981 18.2012C39.2218 18.1751 39.2266 18.1784 39.1702 18.2151C39.1247 18.2446 39.0591 18.2833 38.9722 18.3308C38.7992 18.4253 38.5626 18.5434 38.277 18.6772C37.707 18.9443 36.9614 19.2653 36.1798 19.5742L36.5474 20.5042ZM29.787 24.5709C32.0426 22.8837 34.9774 21.125 36.5475 20.5042L36.1797 19.5742C34.4923 20.2415 31.4765 22.0583 29.188 23.7701L29.787 24.5709ZM24.3576 26.3142C24.3576 26.5977 24.419 27.0768 24.8819 27.2638C25.0811 27.3442 25.2866 27.3348 25.4595 27.3007C25.6357 27.266 25.8231 27.1967 26.0176 27.1066C26.7771 26.755 27.9785 25.9239 29.787 24.5709L29.188 23.7701C27.3565 25.1404 26.243 25.9003 25.5975 26.1992C25.4408 26.2717 25.3339 26.3063 25.2661 26.3196C25.195 26.3336 25.2069 26.3165 25.2564 26.3365C25.42 26.4026 25.3576 26.5497 25.3576 26.3142H24.3576ZM27.7886 22.91C26.8896 23.646 26.0695 24.3579 25.4714 24.9136C25.1733 25.1905 24.9245 25.434 24.7473 25.6252C24.6597 25.7196 24.5813 25.8102 24.5217 25.8909C24.4923 25.9306 24.4597 25.9786 24.4322 26.0307C24.4135 26.0662 24.3576 26.1739 24.3576 26.3142H25.3576C25.3576 26.3807 25.3432 26.4297 25.3359 26.4515C25.3277 26.4758 25.3196 26.4917 25.3168 26.497C25.3116 26.5068 25.3121 26.5039 25.3262 26.4848C25.3535 26.4478 25.4032 26.3885 25.4806 26.3051C25.6332 26.1405 25.8614 25.9162 26.152 25.6462C26.7313 25.1081 27.535 24.41 28.4221 23.6837L27.7886 22.91ZM23.5007 22.2197C25.6356 21.8269 27.2242 21.5348 28.3531 21.3649C28.9179 21.2799 29.3555 21.2274 29.6824 21.2073C30.0303 21.186 30.1864 21.2071 30.2324 21.2224C30.2492 21.2281 30.1723 21.2079 30.1123 21.1092C30.0438 20.9963 30.0636 20.8931 30.0713 20.867C30.0763 20.85 30.0738 20.8687 30.0279 20.9312C29.9854 20.9891 29.9206 21.0643 29.8282 21.1594C29.4478 21.5503 28.7584 22.1159 27.7886 22.91L28.4221 23.6837C29.3676 22.9096 30.1146 22.299 30.5449 21.8567C30.6551 21.7435 30.7539 21.6319 30.8336 21.5235C30.9098 21.4199 30.9881 21.293 31.0303 21.1504C31.0751 20.9987 31.0883 20.7898 30.9672 20.5904C30.8548 20.405 30.6793 20.3174 30.5494 20.274C30.3018 20.1913 29.9713 20.1877 29.6212 20.2092C29.2502 20.232 28.7785 20.2896 28.2043 20.376C27.0552 20.549 25.447 20.8448 23.3197 21.2362L23.5007 22.2197ZM17.1359 24.5861C17.4135 24.1947 17.5921 23.9489 17.7946 23.7555C17.983 23.5756 18.2047 23.4305 18.5743 23.2884C19.3602 22.9863 20.6971 22.7354 23.5007 22.2197L23.3197 21.2362C20.5743 21.7412 19.1123 22.0102 18.2155 22.355C17.7437 22.5364 17.4031 22.7466 17.104 23.0322C16.819 23.3044 16.5849 23.6344 16.3202 24.0076L17.1359 24.5861ZM12.3264 36.3699C12.474 35.2396 13.28 32.8481 14.2712 30.4178C15.2602 27.9928 16.3875 25.6415 17.1359 24.5861L16.3202 24.0076C15.4979 25.1671 14.3337 27.6164 13.3452 30.0401C12.359 32.4584 11.5016 34.9637 11.3349 36.2405L12.3264 36.3699ZM9.80059 37.834C10.0268 38.1681 10.2635 38.456 10.5169 38.6268C10.6487 38.7157 10.8148 38.7932 11.008 38.8038C11.2137 38.815 11.3993 38.7475 11.5494 38.6315C11.8125 38.4283 11.9594 38.0829 12.0594 37.7503C12.1673 37.3916 12.2536 36.9281 12.3264 36.3699L11.3349 36.2405C11.2647 36.7777 11.1869 37.1795 11.1018 37.4622C11.0089 37.7712 10.9338 37.8434 10.9381 37.8402C10.9588 37.8241 11.0058 37.8021 11.0627 37.8052C11.1071 37.8077 11.1141 37.8234 11.0758 37.7975C10.9888 37.7389 10.8402 37.5858 10.6286 37.2733L9.80059 37.834ZM12.6632 27.1613C11.4083 29.7571 10.4905 32.0628 9.9769 33.8655C9.72052 34.7654 9.56002 35.5566 9.5136 36.2046C9.46907 36.8264 9.52052 37.4205 9.80058 37.834L10.6286 37.2733C10.548 37.1543 10.4696 36.8554 10.511 36.2761C10.5507 35.7231 10.6921 35.0049 10.9386 34.1395C11.4309 32.4115 12.3231 30.1623 13.5635 27.5965L12.6632 27.1613ZM14.529 23.7846C14.4385 23.6917 14.4101 23.5906 14.4003 23.5452C14.3894 23.4947 14.3891 23.454 14.3896 23.4341C14.3905 23.3941 14.3966 23.3661 14.3974 23.3623C14.3999 23.3502 14.4005 23.3514 14.3928 23.3746C14.3788 23.4165 14.3525 23.4863 14.3116 23.5868C14.2311 23.7849 14.1067 24.0711 13.9468 24.4265C13.6277 25.1359 13.1741 26.1048 12.6632 27.1612L13.5635 27.5965C14.0771 26.5344 14.5348 25.5568 14.8588 24.8368C15.0204 24.4776 15.1505 24.1785 15.2379 23.9636C15.281 23.8576 15.3171 23.764 15.3414 23.6911C15.3529 23.6568 15.3666 23.6126 15.376 23.5681C15.3802 23.548 15.3882 23.5069 15.3893 23.4571C15.3899 23.4323 15.3893 23.3876 15.3777 23.3338C15.3672 23.2852 15.3377 23.1817 15.2457 23.0872L14.529 23.7846ZM11.3445 24.6135C12.3206 24.3996 13.2159 24.2159 13.8714 24.0921C14.2 24.0301 14.4639 23.9839 14.6462 23.9566C14.7387 23.9427 14.8019 23.9349 14.8391 23.9318C14.8595 23.93 14.8595 23.9308 14.8475 23.9305C14.8429 23.9304 14.8186 23.9299 14.7853 23.9236C14.7829 23.9231 14.6453 23.9041 14.529 23.7846L15.2457 23.0872C15.1263 22.9646 14.9825 22.9431 14.971 22.941C14.9284 22.9329 14.892 22.9313 14.8722 22.9308C14.8298 22.9298 14.7876 22.9325 14.7546 22.9353C14.685 22.9412 14.5966 22.9528 14.4977 22.9677C14.2971 22.9978 14.0188 23.0466 13.6859 23.1095C13.0184 23.2355 12.1132 23.4214 11.1305 23.6366L11.3445 24.6135ZM7.11492 25.099C7.22199 25.1836 7.3368 25.2066 7.37456 25.2139C7.42975 25.2245 7.48399 25.2285 7.52901 25.2302C7.62047 25.2337 7.72795 25.2292 7.84102 25.2207C8.07022 25.2034 8.37306 25.1653 8.72371 25.1118C9.42771 25.0044 10.3572 24.8295 11.3444 24.6135L11.1307 23.6366C10.1588 23.8493 9.25087 24.0198 8.57285 24.1233C8.2325 24.1752 7.95816 24.209 7.76569 24.2235C7.66792 24.2309 7.60345 24.2323 7.56704 24.231C7.54812 24.2302 7.54945 24.2292 7.5634 24.2318C7.57079 24.2333 7.58933 24.2372 7.61421 24.2463C7.63671 24.2545 7.68363 24.2738 7.735 24.3144L7.11492 25.099ZM9.55303 22.6642C8.81326 22.8069 8.07831 23.1322 7.57562 23.4831C7.33197 23.6532 7.09489 23.8621 6.95822 24.0986C6.88827 24.2197 6.82142 24.3882 6.83592 24.5841C6.85188 24.7999 6.96108 24.9774 7.11492 25.099L7.735 24.3144C7.77492 24.346 7.82617 24.4155 7.83319 24.5104C7.83874 24.5854 7.81194 24.6199 7.82409 24.5989C7.85162 24.5513 7.94689 24.4434 8.14801 24.303C8.53486 24.033 9.13916 23.7625 9.74254 23.646L9.55303 22.6642ZM13.3604 21.8447C11.9852 22.1568 10.2711 22.5255 9.55299 22.6642L9.74258 23.646C10.4768 23.5043 12.2035 23.1326 13.5817 22.8199L13.3604 21.8447ZM15.8635 21.2765L13.3604 21.8447L13.5818 22.8199L16.0848 22.2517L15.8635 21.2765ZM18.5599 17.2026L15.5647 21.4772L16.3836 22.0511L19.3789 17.7765L18.5599 17.2026ZM21.4466 13.4427C21.3118 13.3362 21.2775 13.1983 21.2684 13.1356C21.2592 13.0714 21.2664 13.0235 21.2688 13.0087C21.274 12.9768 21.2807 12.9654 21.2717 12.9886C21.2563 13.0279 21.2216 13.1014 21.1606 13.2149C21.0414 13.4368 20.8508 13.7573 20.6002 14.1565C20.1007 14.952 19.3803 16.0319 18.5599 17.2026L19.3789 17.7765C20.2058 16.5963 20.9362 15.5019 21.4471 14.6882C21.7017 14.2828 21.9063 13.9399 22.0415 13.6883C22.1077 13.5651 22.1652 13.4493 22.2029 13.3529C22.2204 13.3082 22.2439 13.2423 22.2557 13.17C22.2614 13.135 22.2694 13.0705 22.2583 12.9933C22.2474 12.9176 22.2086 12.7703 22.0666 12.6582L21.4466 13.4427ZM14.0113 14.7261C16.1051 14.3561 18.0303 14.0383 19.4447 13.8246C20.1526 13.7176 20.7288 13.6373 21.133 13.5894C21.3362 13.5654 21.489 13.5504 21.5909 13.5439C21.6433 13.5405 21.6716 13.5402 21.6824 13.5405C21.6888 13.5406 21.6777 13.5408 21.657 13.5375C21.6466 13.5358 21.624 13.5318 21.5952 13.5225C21.5716 13.5149 21.511 13.4936 21.4466 13.4427L22.0666 12.6582C21.9519 12.5674 21.8272 12.552 21.8149 12.55C21.7739 12.5435 21.736 12.5415 21.7093 12.5408C21.6538 12.5393 21.5905 12.5419 21.5274 12.5459C21.3982 12.5541 21.2242 12.5717 21.0154 12.5964C20.5954 12.6461 20.007 12.7283 19.2953 12.8358C17.8705 13.0511 15.9368 13.3703 13.8373 13.7414L14.0113 14.7261ZM5.80135 16.7058C5.87657 16.6379 6.06378 16.5261 6.44702 16.3836C6.81696 16.246 7.32422 16.0958 7.99521 15.9291C9.3363 15.596 11.2877 15.2077 14.0114 14.7261L13.8373 13.7414C11.1099 14.2236 9.13028 14.6167 7.75413 14.9586C7.06649 15.1294 6.51857 15.2901 6.09848 15.4463C5.69168 15.5975 5.35401 15.7624 5.13122 15.9636L5.80135 16.7058ZM2.75233 17.392C3.46911 17.4677 4.03758 17.48 4.52565 17.3773C5.03599 17.2699 5.42688 17.044 5.8014 16.7058L5.13116 15.9636C4.86335 16.2055 4.6275 16.334 4.3197 16.3987C3.98962 16.4682 3.54853 16.4705 2.85735 16.3975L2.75233 17.392ZM2.17065 14.7215C1.65919 14.8787 1.24337 15.0668 0.957656 15.2901C0.686069 15.5023 0.399857 15.864 0.531747 16.3228C0.645162 16.7173 1.01624 16.9447 1.34382 17.0791C1.70413 17.2268 2.18065 17.3315 2.75223 17.392L2.85745 16.3975C2.33686 16.3425 1.96313 16.2522 1.72322 16.1538C1.60356 16.1048 1.53371 16.0603 1.49777 16.0304C1.46159 16.0002 1.48012 16.0023 1.49282 16.0465C1.53266 16.1851 1.41255 16.2037 1.57332 16.0781C1.71997 15.9635 2.00277 15.8192 2.46431 15.6774L2.17065 14.7215ZM20.2717 11.2837C18.2795 11.5401 14.2757 12.2396 10.5225 12.952C6.78175 13.6619 3.2317 14.3953 2.17056 14.7216L2.46441 15.6774C3.45941 15.3715 6.94262 14.6492 10.709 13.9344C14.4629 13.222 18.44 12.5277 20.3993 12.2755L20.2717 11.2837ZM24.5485 9.62807C24.0554 10.2588 23.7887 10.5248 23.3001 10.7204C22.7553 10.9384 21.9289 11.0706 20.2717 11.2837L20.3992 12.2755C22.0103 12.0684 22.9825 11.9246 23.6716 11.6488C24.417 11.3505 24.8197 10.9048 25.3363 10.244L24.5485 9.62807ZM29.5382 5.5C29.3488 5.5 29.16 5.55517 28.9938 5.62232C28.8214 5.69199 28.6386 5.78895 28.4518 5.90336C28.0782 6.13227 27.655 6.45194 27.2166 6.82745C26.3388 7.57933 25.3625 8.58733 24.5486 9.62799L25.3363 10.2441C26.1092 9.25588 27.0395 8.29587 27.8671 7.58694C28.2815 7.23205 28.6608 6.94812 28.9743 6.75604C29.1311 6.65994 29.2631 6.59206 29.3684 6.5495C29.4206 6.52842 29.4618 6.51536 29.4928 6.50785C29.5245 6.50017 29.5385 6.5 29.5382 6.5V5.5ZM28.8724 8.54459C29.347 8.05332 29.7173 7.6626 29.9878 7.35456C30.2469 7.05949 30.4538 6.79755 30.5587 6.57295C30.6107 6.46141 30.6721 6.28885 30.6386 6.09282C30.5987 5.85918 30.4473 5.70736 30.2945 5.62578C30.1626 5.5554 30.0198 5.52975 29.9117 5.51715C29.7957 5.50363 29.6675 5.5 29.5382 5.5V6.5C29.6543 6.5 29.7374 6.5036 29.7959 6.51043C29.8624 6.51817 29.8573 6.52596 29.8236 6.508C29.769 6.47884 29.6763 6.39842 29.6529 6.26102C29.6358 6.16122 29.6713 6.10975 29.6525 6.15001C29.6157 6.22899 29.5009 6.39351 29.2364 6.6947C28.9833 6.98292 28.628 7.35827 28.1532 7.84983L28.8724 8.54459ZM27.8148 10.3326C27.6341 10.3652 27.4942 10.3788 27.3901 10.3791C27.3387 10.3793 27.3005 10.3761 27.2735 10.372C27.2461 10.3678 27.2352 10.3634 27.2357 10.3636C27.2436 10.3668 27.2978 10.3953 27.3291 10.4678C27.355 10.5278 27.3375 10.5558 27.3484 10.5088C27.3735 10.4002 27.4804 10.1802 27.7488 9.82316C28.0065 9.4804 28.3786 9.05568 28.8724 8.54463L28.1532 7.84979C27.6455 8.37532 27.2421 8.83315 26.9495 9.22218C26.6677 9.59696 26.4495 9.958 26.3742 10.2829C26.3348 10.4527 26.3232 10.6606 26.4109 10.864C26.5041 11.08 26.6763 11.2154 26.858 11.2896C27.1758 11.4192 27.5883 11.3897 27.9924 11.3168L27.8148 10.3326ZM49.1794 8.01327C41.7854 8.69613 29.506 10.0274 27.8148 10.3327L27.9924 11.3168C29.6308 11.0211 41.8585 9.69364 49.2714 9.00903L49.1794 8.01327ZM60.0783 7.09052C57.279 7.28921 56.1549 7.36906 49.1794 8.01327L49.2714 9.00903C56.2423 8.36524 57.359 8.28605 60.1491 8.08801L60.0783 7.09052ZM66.8535 6.58867C63.4366 6.85216 61.5313 6.98739 60.0783 7.09052L60.1491 8.08801C61.6032 7.98481 63.5107 7.84941 66.9304 7.58571L66.8535 6.58867ZM73.2538 6.14452C71.7733 6.23404 70.2863 6.32397 66.8535 6.58867L66.9304 7.58571C70.3563 7.32154 71.8377 7.23197 73.3141 7.14269L73.2538 6.14452ZM76.1511 12.7968C74.6703 13.171 71.3996 13.7794 68.8913 14.1446L69.0353 15.1342C71.5594 14.7667 74.868 14.1525 76.3961 13.7663L76.1511 12.7968ZM81.9815 12.9468C81.6526 12.2695 80.9102 12.0838 80.0382 12.1031C79.1397 12.123 77.8726 12.3615 76.1511 12.7968L76.3962 13.7663C78.1134 13.3321 79.2848 13.12 80.0603 13.1028C80.8624 13.0851 81.0296 13.2759 81.0819 13.3836L81.9815 12.9468ZM78.377 15.1634C79.7547 15.0027 80.7331 14.8201 81.3217 14.545C81.6188 14.4062 81.903 14.205 82.0407 13.8884C82.187 13.5521 82.1132 13.2182 81.9815 12.9469L81.0819 13.3836C81.1427 13.5088 81.1103 13.5204 81.1237 13.4895C81.1286 13.4782 81.1058 13.5421 80.8983 13.6391C80.4778 13.8356 79.6574 14.0072 78.2611 14.1701L78.377 15.1634ZM71.68 18.2079C74.068 16.2558 75.8435 15.4589 78.377 15.1634L78.2611 14.1701C75.5049 14.4916 73.555 15.3836 71.0471 17.4337L71.68 18.2079ZM66.5938 24.5634C66.5938 24.565 66.5937 24.5588 66.5962 24.5433C66.5987 24.528 66.6033 24.5068 66.611 24.4791C66.6267 24.423 66.6526 24.3506 66.6915 24.261C66.7693 24.0814 66.8881 23.8579 67.0452 23.5976C67.359 23.0781 67.805 22.4466 68.3228 21.784C69.3618 20.4547 70.6534 19.0469 71.6799 18.2079L71.0471 17.4336C69.941 18.3377 68.5977 19.8084 67.5349 21.1682C67.0019 21.8501 66.5304 22.5158 66.1892 23.0806C66.019 23.3625 65.876 23.6279 65.774 23.8633C65.6783 24.0839 65.5938 24.3329 65.5938 24.5634H66.5938ZM65.3627 25.7602C66.0181 25.7602 66.5938 25.2451 66.5938 24.5634H65.5938C65.5938 24.6482 65.5115 24.7602 65.3627 24.7602V25.7602ZM67.9752 18.1453C66.3005 19.7703 65.0423 21.5111 64.4433 22.878C64.151 23.5451 63.9786 24.205 64.0732 24.7403C64.1235 25.0249 64.2544 25.2978 64.5031 25.4936C64.7477 25.6862 65.0503 25.7602 65.3627 25.7602V24.7602C65.2026 24.7602 65.1406 24.7228 65.1218 24.708C65.1071 24.6964 65.0756 24.6658 65.058 24.5662C65.0168 24.3333 65.0861 23.9025 65.3592 23.2794C65.891 22.0659 67.0581 20.4286 68.6716 18.863L67.9752 18.1453ZM69.9745 16.5097C69.8524 16.4132 69.8122 16.2853 69.8036 16.2026C69.796 16.1301 69.8099 16.08 69.8126 16.0705C69.8183 16.0501 69.8179 16.0619 69.7846 16.1179C69.7234 16.2212 69.6078 16.3808 69.4354 16.5906C69.0952 17.0046 68.581 17.5574 67.9752 18.1453L68.6716 18.8629C69.2954 18.2576 69.8372 17.6767 70.208 17.2255C70.3911 17.0027 70.5446 16.7969 70.6448 16.6279C70.6923 16.5478 70.7457 16.4467 70.7755 16.3401C70.7903 16.2875 70.8088 16.2009 70.7982 16.0989C70.7865 15.9868 70.7355 15.8366 70.5946 15.7252L69.9745 16.5097ZM57.0471 18.2751C58.7079 17.9082 61.936 17.4236 64.8056 17.0646C66.2376 16.8855 67.5716 16.7388 68.5667 16.6543C69.0655 16.6119 69.472 16.5858 69.7607 16.5785C69.9065 16.5748 70.0114 16.5762 70.0788 16.5809C70.1134 16.5833 70.1262 16.5858 70.1244 16.5854C70.1233 16.5852 70.1102 16.5826 70.0901 16.5752C70.0737 16.5693 70.027 16.5512 69.9747 16.5099L70.5943 15.7249C70.4843 15.6381 70.3623 15.6134 70.3251 15.6058C70.2659 15.5937 70.2043 15.5872 70.1482 15.5833C70.0343 15.5754 69.893 15.5748 69.7353 15.5788C69.4171 15.5869 68.9877 15.6149 68.4821 15.6579C67.4686 15.7439 66.1203 15.8924 64.6815 16.0724C61.8093 16.4316 58.5412 16.9209 56.8314 17.2987L57.0471 18.2751ZM52.9225 17.5635C52.9225 17.8839 53.0519 18.1798 53.3335 18.3802C53.5812 18.5565 53.8987 18.6235 54.2195 18.6439C54.8659 18.685 55.8062 18.5493 57.0471 18.2751L56.8314 17.2987C55.5932 17.5722 54.7751 17.6772 54.2829 17.6459C54.0344 17.6301 53.9376 17.5827 53.9133 17.5654C53.9075 17.5613 53.915 17.5658 53.9215 17.579C53.9271 17.5906 53.9225 17.5897 53.9225 17.5635H52.9225ZM60.4167 15.3827C58.0273 15.7329 56.2426 16.0472 55.0501 16.3318C54.4574 16.4732 53.9883 16.6124 53.6587 16.7535C53.4965 16.8229 53.3399 16.9045 53.2157 17.0051C53.1043 17.0954 52.9225 17.2801 52.9225 17.5635H53.9225C53.9225 17.737 53.8125 17.8086 53.8451 17.7822C53.865 17.766 53.9249 17.7273 54.0523 17.6728C54.302 17.5659 54.7047 17.4422 55.2821 17.3045C56.4297 17.0306 58.1784 16.7215 60.5617 16.3722L60.4167 15.3827ZM68.8912 14.1446C66.3744 14.5113 62.5612 15.0684 60.4167 15.3827L60.5617 16.3722C62.7059 16.0579 66.5188 15.5009 69.0354 15.1342L68.8912 14.1446ZM47.5564 14.8057C45.8293 16.6384 43.5888 20.1431 41.9312 23.2355C41.1003 24.7859 40.4035 26.2554 39.9856 27.3826C39.7783 27.9417 39.6294 28.443 39.5749 28.8387C39.548 29.0338 39.5386 29.239 39.5771 29.4261C39.6161 29.6155 39.7229 29.8604 39.9869 29.9895L40.4259 29.091C40.5464 29.1499 40.5616 29.2488 40.5566 29.2245C40.5511 29.1979 40.5454 29.1215 40.5655 28.9753C40.6051 28.6884 40.7238 28.268 40.9232 27.7303C41.3186 26.6638 41.9918 25.2394 42.8126 23.7079C44.4588 20.6367 46.6495 17.2262 48.2842 15.4916L47.5564 14.8057ZM51.341 13.9718C51.341 13.7922 51.3082 13.6022 51.2103 13.4309C51.1073 13.2505 50.9502 13.1231 50.7639 13.0552C50.4261 12.9319 50.0517 13.0213 49.7481 13.1437C49.108 13.4016 48.3195 13.9962 47.5565 14.8057L48.2841 15.4916C48.9992 14.733 49.6711 14.2528 50.1218 14.0712C50.3636 13.9738 50.4422 14.0023 50.4211 13.9946C50.3932 13.9844 50.3603 13.9589 50.3419 13.9268C50.3288 13.9037 50.341 13.9083 50.341 13.9718H51.341ZM49.9961 15.7986C50.3386 15.5098 50.6533 15.1896 50.887 14.9005C51.0033 14.7565 51.107 14.6112 51.1843 14.4741C51.2499 14.358 51.341 14.173 51.341 13.9718H50.341C50.341 13.8974 50.3665 13.8887 50.3135 13.9826C50.2722 14.0556 50.2045 14.1541 50.1092 14.2719C49.9197 14.5064 49.6508 14.7817 49.3515 15.0341L49.9961 15.7986ZM43.2481 26.2239C43.9598 24.5256 45.2239 22.2711 46.5349 20.2504C47.8561 18.214 49.1786 16.4878 49.9961 15.7986L49.3515 15.0341C48.4072 15.8303 47.0139 17.6749 45.696 19.7061C44.3679 21.7532 43.0694 24.0631 42.3258 25.8374L43.2481 26.2239ZM39.9871 29.9895C40.2403 30.1132 40.5508 30.1975 40.8908 30.089C41.2096 29.9873 41.4572 29.7452 41.6694 29.4567C42.0889 28.8862 42.5652 27.8538 43.2481 26.2239L42.3258 25.8374C41.6291 27.5001 41.1982 28.4096 40.8638 28.8642C40.6991 29.0882 40.6082 29.1295 40.5869 29.1363C40.5867 29.1364 40.5556 29.1543 40.4258 29.0909L39.9871 29.9895Z" fill="black" mask="url(#path-5-outside-1_243_470)"/>
</svg>
