<svg width="87" height="49" viewBox="0 0 87 49" fill="none" xmlns="http://www.w3.org/2000/svg">
<path d="M39.2343 32.748V34.668H39.0063C39.0063 34.612 38.9943 34.556 38.9703 34.5C38.9463 34.444 38.9143 34.416 38.8743 34.416H34.9863V36.54H38.1303C38.1703 36.54 38.2023 36.512 38.2263 36.456C38.2503 36.4 38.2623 36.344 38.2623 36.288H38.4903V38.208H38.2623C38.2623 38.152 38.2503 38.096 38.2263 38.04C38.2023 37.984 38.1703 37.956 38.1303 37.956H34.9863V41.64C34.9863 41.68 35.0143 41.712 35.0703 41.736C35.1343 41.76 35.1983 41.772 35.2623 41.772V42H33.1503V41.772C33.2143 41.772 33.2743 41.76 33.3303 41.736C33.3943 41.712 33.4263 41.68 33.4263 41.64V33.36C33.4263 33.32 33.3943 33.288 33.3303 33.264C33.2743 33.24 33.2183 33.228 33.1623 33.228V33H38.8743C38.9143 33 38.9463 32.972 38.9703 32.916C38.9943 32.86 39.0063 32.804 39.0063 32.748H39.2343ZM41.2401 35.472C40.9841 35.472 40.7641 35.384 40.5801 35.208C40.4041 35.032 40.3161 34.812 40.3161 34.548C40.3161 34.3 40.4041 34.088 40.5801 33.912C40.7641 33.728 40.9841 33.636 41.2401 33.636C41.4961 33.636 41.7121 33.728 41.8881 33.912C42.0641 34.088 42.1521 34.3 42.1521 34.548C42.1521 34.812 42.0641 35.032 41.8881 35.208C41.7121 35.384 41.4961 35.472 41.2401 35.472ZM40.4601 36.84C40.4601 36.8 40.4281 36.768 40.3641 36.744C40.3081 36.72 40.2521 36.708 40.1961 36.708V36.48H42.2601V36.708C42.2041 36.708 42.1441 36.72 42.0801 36.744C42.0241 36.768 41.9961 36.8 41.9961 36.84V41.64C41.9961 41.68 42.0241 41.712 42.0801 41.736C42.1441 41.76 42.2041 41.772 42.2601 41.772V42H40.1961V41.772C40.2521 41.772 40.3081 41.76 40.3641 41.736C40.4281 41.712 40.4601 41.68 40.4601 41.64V36.84ZM46.748 36.24V38.064H46.52C46.52 38.008 46.508 37.956 46.484 37.908C46.46 37.852 46.428 37.824 46.388 37.824H45.608V41.64C45.608 41.68 45.636 41.712 45.692 41.736C45.748 41.76 45.804 41.772 45.86 41.772V42H43.904V41.772C43.96 41.772 44.016 41.76 44.072 41.736C44.128 41.712 44.156 41.68 44.156 41.64V37.824H43.58C43.54 37.824 43.508 37.852 43.484 37.908C43.46 37.956 43.448 38.008 43.448 38.064H43.22V36.24H43.448C43.448 36.296 43.46 36.352 43.484 36.408C43.508 36.456 43.54 36.48 43.58 36.48H44.156V35.076C44.156 35.036 44.128 35.004 44.072 34.98C44.016 34.956 43.96 34.944 43.904 34.944V34.716H45.86V34.944C45.804 34.944 45.748 34.956 45.692 34.98C45.636 35.004 45.608 35.036 45.608 35.076V36.48H46.388C46.428 36.48 46.46 36.456 46.484 36.408C46.508 36.352 46.52 36.296 46.52 36.24H46.748ZM55.4031 42.12C54.5471 42.12 53.7591 41.92 53.0391 41.52C52.3191 41.112 51.7511 40.552 51.3351 39.84C50.9191 39.12 50.7111 38.32 50.7111 37.44C50.7111 36.512 50.9191 35.692 51.3351 34.98C51.7511 34.268 52.3111 33.72 53.0151 33.336C53.7191 32.944 54.4911 32.748 55.3311 32.748C56.1391 32.748 56.8191 32.892 57.3711 33.18C57.9311 33.46 58.4591 33.856 58.9551 34.368C58.9711 34.384 58.9951 34.392 59.0271 34.392C59.0751 34.392 59.1591 34.356 59.2791 34.284L59.4231 34.464L57.7671 35.772L57.6231 35.592C57.6711 35.56 57.7071 35.52 57.7311 35.472C57.7631 35.416 57.7631 35.376 57.7311 35.352C57.3951 35.024 57.0431 34.776 56.6751 34.608C56.3151 34.432 55.8751 34.344 55.3551 34.344C54.8111 34.344 54.3111 34.48 53.8551 34.752C53.3991 35.016 53.0391 35.384 52.7751 35.856C52.5111 36.328 52.3791 36.856 52.3791 37.44C52.3791 38 52.5191 38.512 52.7991 38.976C53.0791 39.432 53.4511 39.792 53.9151 40.056C54.3791 40.32 54.8751 40.452 55.4031 40.452C55.8991 40.452 56.3231 40.368 56.6751 40.2C57.0271 40.024 57.3591 39.764 57.6711 39.42L57.6951 39.372C57.6951 39.332 57.6751 39.288 57.6351 39.24C57.6031 39.184 57.5671 39.144 57.5271 39.12L57.6831 38.952L59.4711 40.452L59.3271 40.632C59.2791 40.592 59.2191 40.556 59.1471 40.524C59.0751 40.492 59.0271 40.492 59.0031 40.524C58.4991 41.068 57.9711 41.472 57.4191 41.736C56.8671 41.992 56.1951 42.12 55.4031 42.12ZM60.3549 33.36C60.3549 33.32 60.3229 33.288 60.2589 33.264C60.2029 33.24 60.1429 33.228 60.0789 33.228V33H62.1909V33.228C62.1269 33.228 62.0629 33.24 61.9989 33.264C61.9429 33.288 61.9149 33.32 61.9149 33.36V41.64C61.9149 41.68 61.9429 41.712 61.9989 41.736C62.0629 41.76 62.1269 41.772 62.1909 41.772V42H60.0789V41.772C60.1429 41.772 60.2029 41.76 60.2589 41.736C60.3229 41.712 60.3549 41.68 60.3549 41.64V33.36ZM68.6898 41.64C68.6898 41.68 68.7178 41.712 68.7738 41.736C68.8378 41.76 68.8978 41.772 68.9538 41.772V42H67.4658V41.556C67.0418 41.924 66.5498 42.108 65.9898 42.108C65.1498 42.108 64.5338 41.868 64.1418 41.388C63.7498 40.9 63.5538 40.292 63.5538 39.564V36.84C63.5538 36.8 63.5218 36.768 63.4578 36.744C63.4018 36.72 63.3458 36.708 63.2898 36.708V36.48H65.3298V36.708C65.2738 36.708 65.2138 36.72 65.1498 36.744C65.0938 36.768 65.0658 36.8 65.0658 36.84V39.468C65.0658 39.812 65.1538 40.104 65.3298 40.344C65.5058 40.576 65.7778 40.692 66.1458 40.692C66.4978 40.692 66.7618 40.584 66.9378 40.368C67.1138 40.152 67.2018 39.876 67.2018 39.54V36.84C67.2018 36.8 67.1698 36.768 67.1058 36.744C67.0498 36.72 66.9938 36.708 66.9378 36.708V36.48H68.9538V36.708C68.8978 36.708 68.8378 36.72 68.7738 36.744C68.7178 36.768 68.6898 36.8 68.6898 36.84V41.64ZM73.5672 36.336C74.1352 36.336 74.6512 36.46 75.1152 36.708C75.5792 36.948 75.9432 37.288 76.2072 37.728C76.4792 38.168 76.6152 38.676 76.6152 39.252C76.6152 39.836 76.4832 40.348 76.2192 40.788C75.9552 41.22 75.5912 41.556 75.1272 41.796C74.6712 42.036 74.1512 42.156 73.5672 42.156C72.8952 42.156 72.3112 41.956 71.8152 41.556V42H70.0632V41.772C70.1192 41.772 70.1752 41.76 70.2312 41.736C70.2952 41.712 70.3272 41.68 70.3272 41.64V33.36C70.3272 33.32 70.2952 33.288 70.2312 33.264C70.1752 33.24 70.1192 33.228 70.0632 33.228V33H72.0792V33.228C72.0232 33.228 71.9632 33.24 71.8992 33.264C71.8432 33.288 71.8152 33.32 71.8152 33.36V36.9C72.2952 36.524 72.8792 36.336 73.5672 36.336ZM73.4712 40.884C73.9512 40.884 74.3512 40.736 74.6712 40.44C74.9992 40.144 75.1632 39.748 75.1632 39.252C75.1632 38.788 75.0032 38.404 74.6832 38.1C74.3632 37.788 73.9592 37.632 73.4712 37.632C72.9752 37.632 72.5672 37.788 72.2472 38.1C71.9272 38.412 71.7672 38.808 71.7672 39.288C71.7672 39.568 71.8392 39.832 71.9832 40.08C72.1352 40.32 72.3432 40.516 72.6072 40.668C72.8712 40.812 73.1592 40.884 73.4712 40.884Z" fill="#FEFEFE"/>
<path d="M29.9389 0.693285C26.8414 2.06297 27.8859 4.08256 31.6074 3.92001C34.0196 3.81455 36.2752 2.00654 35.1107 1.11158C34.3209 0.504622 30.9771 0.234034 29.9389 0.693285Z" fill="black"/>
<path d="M29.9389 0.693285C26.8414 2.06297 27.8859 4.08256 31.6074 3.92001C34.0196 3.81455 36.2752 2.00654 35.1107 1.11158C34.3209 0.504622 30.9771 0.234034 29.9389 0.693285Z" stroke="black"/>
<path d="M52.9599 2.63176C49.8624 4.00145 50.9069 6.02103 54.6284 5.85849C57.0406 5.75303 59.2962 3.94502 58.1317 3.05006C57.3419 2.4431 53.9981 2.17251 52.9599 2.63176Z" fill="black"/>
<path d="M52.9599 2.63176C49.8624 4.00145 50.9069 6.02103 54.6284 5.85849C57.0406 5.75303 59.2962 3.94502 58.1317 3.05006C57.3419 2.4431 53.9981 2.17251 52.9599 2.63176Z" stroke="black"/>
<path d="M73.3388 0.693285C70.2413 2.06297 71.2858 4.08256 75.0073 3.92001C77.4195 3.81455 79.6751 2.00654 78.5106 1.11158C77.7208 0.504622 74.377 0.234034 73.3388 0.693285Z" fill="black"/>
<path d="M73.3388 0.693285C70.2413 2.06297 71.2858 4.08256 75.0073 3.92001C77.4195 3.81455 79.6751 2.00654 78.5106 1.11158C77.7208 0.504622 74.377 0.234034 73.3388 0.693285Z" stroke="black"/>
<path fill-rule="evenodd" clip-rule="evenodd" d="M70.8748 6.97958C72.3776 6.91177 73.958 6.84045 75.2681 6.75328C78.4359 6.54251 81.7016 6.62538 81.8236 7.19501C82.0556 8.27761 80.7349 8.34213 78.6874 8.44215C78.326 8.45981 77.942 8.47857 77.5399 8.50423C75.2807 8.64838 74.7124 8.7015 73.2845 8.83498C72.4023 8.91746 71.1917 9.03062 69.0513 9.2149C56.3713 10.3066 37.6431 11.9678 31.366 12.6893C26.7537 13.2194 25.5258 13.4022 24.7043 14.2023C23.3953 15.4773 19.925 20.9154 19.6753 21.3107C19.8347 21.4371 33.5157 19.1514 37.9316 18.2258C39.2504 17.9496 40.0092 18.3456 39.4146 19.0001C39.2314 19.2015 36.4481 20.8385 34.7785 21.6166C33.003 22.444 32.0181 23.0808 29.3845 24.8297C25.6625 27.3013 24.7043 27.8147 24.7043 26.7766C24.7043 26.5793 25.1265 25.4316 27.1353 23.6637C28.1553 22.766 28.8408 22.2732 28.7671 22.0952C28.6678 21.8559 27.1949 22.1861 23.3144 22.8669C23.1412 22.8973 22.9739 22.9265 22.8123 22.9547C19.2433 23.5783 18.4557 23.716 17.6196 25.1691C16.1862 27.6605 14.3677 30.8529 12.1781 36.6939C11.7956 37.7143 10.937 39.3092 10.0613 38.016C9.33997 36.951 10.4648 33.003 12.96 27.8413C13.1701 27.4068 13.3606 27.0147 13.5303 26.6654C14.1883 25.311 14.5339 24.5998 14.4951 24.56C14.3172 24.56 13.8086 24.6427 13.1502 24.7499C12.4526 24.8635 11.5868 25.0044 10.7678 25.1033C8.64176 25.3599 7.28048 25.3812 7.20467 24.8758C7.12886 24.3704 8.15132 23.8767 9.49447 23.6175C10.2206 23.4773 11.941 23.1071 13.3178 22.7947L15.8208 22.2265L18.8161 17.9519C20.0565 16.1817 20.7261 15.1246 21.0376 14.633C21.1397 14.4717 21.2034 14.3713 21.2359 14.3265C21.1214 14.236 15.9882 14.9123 13.5938 15.2285C11.6447 15.4859 6.06075 16.548 5.46471 17.0862C4.88878 17.6063 4.21593 17.5311 3.06807 17.4028C2.93573 17.388 2.79707 17.3725 2.65152 17.3572C0.467193 17.1261 0.218155 16.2597 2.16416 15.6619C8.26602 13.7873 16.1591 12.3342 20.1105 11.8257C21.7824 11.6106 23.3876 10.7968 23.7906 10.3984C25.7519 8.45908 28.6022 6.4624 29.3849 6.4624C30.3664 6.4624 30.5678 6.79007 28.6691 8.75574C26.8504 10.638 27.6563 10.5092 28.2039 10.4217C28.2594 10.4128 28.3123 10.4043 28.3595 10.3984C30.0243 10.098 42.1034 8.75124 49.5205 8.23624C53.0968 7.98792 56.6754 7.79104 59.7968 7.61931C62.6245 7.46374 65.0769 7.32882 66.8121 7.19501C67.8158 7.11761 69.3028 7.05051 70.8748 6.97958ZM68.5283 14.2155C71.0445 13.8492 74.2278 13.4177 75.9778 13.239C79.1658 12.9133 80.9973 12.8426 81.3784 13.6276C81.7261 14.3439 80.4544 14.6327 78.6492 15.0428C78.4555 15.0868 78.2556 15.1322 78.051 15.1797C75.643 16.3081 74.4638 16.9654 72.0159 18.9665C69.8832 20.7096 66.0894 24.0069 66.0894 24.9926C66.0894 25.3759 65.6115 25.7226 65.2094 25.7226C63.3194 25.7226 64.8819 22.1572 68.1701 18.9665C69.3997 17.7732 70.2823 16.6992 70.1312 16.5798C69.7783 16.3013 60.1565 17.5047 56.786 18.2493C54.3068 18.797 53.2692 18.7308 53.2692 18.0259C53.2692 17.5867 55.3575 16.1427 60.1301 15.4431C62.2745 15.1288 66.0116 14.5822 68.5283 14.2155ZM40.0531 30.0026C38.3676 27.8413 42.9296 19.4461 46.2914 15.8788C47.7695 14.3106 50.6877 13.4616 50.6877 14.4342C50.6877 14.6877 50.1623 15.3376 49.5205 15.8788C47.7587 17.3641 44.0889 23.0205 42.6337 26.493C41.254 29.7857 40.8192 30.3767 40.0531 30.0026Z" fill="black"/>
</svg>
