<svg width="84" height="49" viewBox="0 0 84 49" fill="none" xmlns="http://www.w3.org/2000/svg">
<path d="M36.9418 32.748V34.668H36.7138C36.7138 34.612 36.7018 34.556 36.6778 34.5C36.6538 34.444 36.6218 34.416 36.5818 34.416H32.6938V36.54H35.8378C35.8778 36.54 35.9098 36.512 35.9338 36.456C35.9578 36.4 35.9698 36.344 35.9698 36.288H36.1978V38.208H35.9698C35.9698 38.152 35.9578 38.096 35.9338 38.04C35.9098 37.984 35.8778 37.956 35.8378 37.956H32.6938V41.64C32.6938 41.68 32.7218 41.712 32.7778 41.736C32.8418 41.76 32.9058 41.772 32.9698 41.772V42H30.8578V41.772C30.9218 41.772 30.9818 41.76 31.0378 41.736C31.1018 41.712 31.1338 41.68 31.1338 41.64V33.36C31.1338 33.32 31.1018 33.288 31.0378 33.264C30.9818 33.24 30.9258 33.228 30.8698 33.228V33H36.5818C36.6218 33 36.6538 32.972 36.6778 32.916C36.7018 32.86 36.7138 32.804 36.7138 32.748H36.9418ZM38.9476 35.472C38.6916 35.472 38.4716 35.384 38.2876 35.208C38.1116 35.032 38.0236 34.812 38.0236 34.548C38.0236 34.3 38.1116 34.088 38.2876 33.912C38.4716 33.728 38.6916 33.636 38.9476 33.636C39.2036 33.636 39.4196 33.728 39.5956 33.912C39.7716 34.088 39.8596 34.3 39.8596 34.548C39.8596 34.812 39.7716 35.032 39.5956 35.208C39.4196 35.384 39.2036 35.472 38.9476 35.472ZM38.1676 36.84C38.1676 36.8 38.1356 36.768 38.0716 36.744C38.0156 36.72 37.9596 36.708 37.9036 36.708V36.48H39.9676V36.708C39.9116 36.708 39.8516 36.72 39.7876 36.744C39.7316 36.768 39.7036 36.8 39.7036 36.84V41.64C39.7036 41.68 39.7316 41.712 39.7876 41.736C39.8516 41.76 39.9116 41.772 39.9676 41.772V42H37.9036V41.772C37.9596 41.772 38.0156 41.76 38.0716 41.736C38.1356 41.712 38.1676 41.68 38.1676 41.64V36.84ZM44.4555 36.24V38.064H44.2275C44.2275 38.008 44.2155 37.956 44.1915 37.908C44.1675 37.852 44.1355 37.824 44.0955 37.824H43.3155V41.64C43.3155 41.68 43.3435 41.712 43.3995 41.736C43.4555 41.76 43.5115 41.772 43.5675 41.772V42H41.6115V41.772C41.6675 41.772 41.7235 41.76 41.7795 41.736C41.8355 41.712 41.8635 41.68 41.8635 41.64V37.824H41.2875C41.2475 37.824 41.2155 37.852 41.1915 37.908C41.1675 37.956 41.1555 38.008 41.1555 38.064H40.9275V36.24H41.1555C41.1555 36.296 41.1675 36.352 41.1915 36.408C41.2155 36.456 41.2475 36.48 41.2875 36.48H41.8635V35.076C41.8635 35.036 41.8355 35.004 41.7795 34.98C41.7235 34.956 41.6675 34.944 41.6115 34.944V34.716H43.5675V34.944C43.5115 34.944 43.4555 34.956 43.3995 34.98C43.3435 35.004 43.3155 35.036 43.3155 35.076V36.48H44.0955C44.1355 36.48 44.1675 36.456 44.1915 36.408C44.2155 36.352 44.2275 36.296 44.2275 36.24H44.4555ZM53.1106 42.12C52.2546 42.12 51.4666 41.92 50.7466 41.52C50.0266 41.112 49.4586 40.552 49.0426 39.84C48.6266 39.12 48.4186 38.32 48.4186 37.44C48.4186 36.512 48.6266 35.692 49.0426 34.98C49.4586 34.268 50.0186 33.72 50.7226 33.336C51.4266 32.944 52.1986 32.748 53.0386 32.748C53.8466 32.748 54.5266 32.892 55.0786 33.18C55.6386 33.46 56.1666 33.856 56.6626 34.368C56.6786 34.384 56.7026 34.392 56.7346 34.392C56.7826 34.392 56.8666 34.356 56.9866 34.284L57.1306 34.464L55.4746 35.772L55.3306 35.592C55.3786 35.56 55.4146 35.52 55.4386 35.472C55.4706 35.416 55.4706 35.376 55.4386 35.352C55.1026 35.024 54.7506 34.776 54.3826 34.608C54.0226 34.432 53.5826 34.344 53.0626 34.344C52.5186 34.344 52.0186 34.48 51.5626 34.752C51.1066 35.016 50.7466 35.384 50.4826 35.856C50.2186 36.328 50.0866 36.856 50.0866 37.44C50.0866 38 50.2266 38.512 50.5066 38.976C50.7866 39.432 51.1586 39.792 51.6226 40.056C52.0866 40.32 52.5826 40.452 53.1106 40.452C53.6066 40.452 54.0306 40.368 54.3826 40.2C54.7346 40.024 55.0666 39.764 55.3786 39.42L55.4026 39.372C55.4026 39.332 55.3826 39.288 55.3426 39.24C55.3106 39.184 55.2746 39.144 55.2346 39.12L55.3906 38.952L57.1786 40.452L57.0346 40.632C56.9866 40.592 56.9266 40.556 56.8546 40.524C56.7826 40.492 56.7346 40.492 56.7106 40.524C56.2066 41.068 55.6786 41.472 55.1266 41.736C54.5746 41.992 53.9026 42.12 53.1106 42.12ZM58.0624 33.36C58.0624 33.32 58.0304 33.288 57.9664 33.264C57.9104 33.24 57.8504 33.228 57.7864 33.228V33H59.8984V33.228C59.8344 33.228 59.7704 33.24 59.7064 33.264C59.6504 33.288 59.6224 33.32 59.6224 33.36V41.64C59.6224 41.68 59.6504 41.712 59.7064 41.736C59.7704 41.76 59.8344 41.772 59.8984 41.772V42H57.7864V41.772C57.8504 41.772 57.9104 41.76 57.9664 41.736C58.0304 41.712 58.0624 41.68 58.0624 41.64V33.36ZM66.3973 41.64C66.3973 41.68 66.4253 41.712 66.4813 41.736C66.5453 41.76 66.6053 41.772 66.6613 41.772V42H65.1733V41.556C64.7493 41.924 64.2573 42.108 63.6973 42.108C62.8573 42.108 62.2413 41.868 61.8493 41.388C61.4573 40.9 61.2613 40.292 61.2613 39.564V36.84C61.2613 36.8 61.2293 36.768 61.1653 36.744C61.1093 36.72 61.0533 36.708 60.9973 36.708V36.48H63.0373V36.708C62.9813 36.708 62.9213 36.72 62.8573 36.744C62.8013 36.768 62.7733 36.8 62.7733 36.84V39.468C62.7733 39.812 62.8613 40.104 63.0373 40.344C63.2133 40.576 63.4853 40.692 63.8533 40.692C64.2053 40.692 64.4693 40.584 64.6453 40.368C64.8213 40.152 64.9093 39.876 64.9093 39.54V36.84C64.9093 36.8 64.8773 36.768 64.8133 36.744C64.7573 36.72 64.7013 36.708 64.6453 36.708V36.48H66.6613V36.708C66.6053 36.708 66.5453 36.72 66.4813 36.744C66.4253 36.768 66.3973 36.8 66.3973 36.84V41.64ZM71.2748 36.336C71.8428 36.336 72.3588 36.46 72.8228 36.708C73.2868 36.948 73.6508 37.288 73.9148 37.728C74.1868 38.168 74.3228 38.676 74.3228 39.252C74.3228 39.836 74.1908 40.348 73.9268 40.788C73.6628 41.22 73.2988 41.556 72.8348 41.796C72.3788 42.036 71.8588 42.156 71.2748 42.156C70.6028 42.156 70.0188 41.956 69.5228 41.556V42H67.7708V41.772C67.8268 41.772 67.8828 41.76 67.9388 41.736C68.0028 41.712 68.0348 41.68 68.0348 41.64V33.36C68.0348 33.32 68.0028 33.288 67.9388 33.264C67.8828 33.24 67.8268 33.228 67.7708 33.228V33H69.7868V33.228C69.7308 33.228 69.6708 33.24 69.6068 33.264C69.5508 33.288 69.5228 33.32 69.5228 33.36V36.9C70.0028 36.524 70.5868 36.336 71.2748 36.336ZM71.1788 40.884C71.6588 40.884 72.0588 40.736 72.3788 40.44C72.7068 40.144 72.8708 39.748 72.8708 39.252C72.8708 38.788 72.7108 38.404 72.3908 38.1C72.0708 37.788 71.6668 37.632 71.1788 37.632C70.6828 37.632 70.2748 37.788 69.9548 38.1C69.6348 38.412 69.4748 38.808 69.4748 39.288C69.4748 39.568 69.5468 39.832 69.6908 40.08C69.8428 40.32 70.0508 40.516 70.3148 40.668C70.5788 40.812 70.8668 40.884 71.1788 40.884Z" fill="#FEFEFE"/>
<path fill-rule="evenodd" clip-rule="evenodd" d="M74.4207 6.10754C71.7403 6.28589 70.8446 6.30343 65.892 6.68534C55.9012 7.45575 58.8254 7.13035 48.2254 8.1093C40.822 8.79303 28.5684 10.1224 26.9036 10.4228C25.3148 10.7094 25.5098 9.86851 27.5128 7.79536C29.4115 5.82968 29.5197 5.59814 28.5382 5.59814C27.7555 5.59814 25.5293 7.50532 23.9424 9.53418C22.9326 10.8258 22.6037 10.9575 19.3355 11.3778C15.384 11.8862 3.37363 14.1655 1.31748 14.7976C-0.628525 15.3955 -0.379487 16.2618 1.80484 16.4929C3.21281 16.6416 3.82395 16.5129 4.46628 15.9328C5.06232 15.3947 7.47326 14.7957 12.9243 13.8319C17.1175 13.0908 20.6421 12.558 20.7566 12.6486C20.8711 12.7391 19.6167 14.7368 17.9694 17.0877L14.9741 21.3623L12.4711 21.9305C11.0943 22.2428 9.37394 22.613 8.64779 22.7532C7.30464 23.0125 5.96928 23.9447 6.42496 24.3049C6.56288 24.4139 8.27837 24.1519 10.2375 23.7232C12.1962 23.2941 13.8386 22.984 13.8873 23.0341C13.9361 23.0841 13.1378 24.8584 12.1134 26.977C9.61811 32.1387 8.49329 36.0867 9.21458 37.1518C10.0904 38.4449 10.5446 38.094 10.8306 35.9033C11.145 33.4962 14.1573 26.1099 15.7281 23.895C16.8124 22.3657 16.8612 22.3469 22.4102 21.3261C30.9345 19.7579 30.936 19.7587 27.1054 22.895C25.3192 24.3572 23.8576 25.7151 23.8576 25.9123C23.8576 26.9504 24.8475 26.492 28.4875 23.7686C30.7596 22.0691 33.7349 20.2814 35.3636 19.6373C36.9426 19.0133 38.3847 18.3373 38.568 18.1358C39.1625 17.4814 38.4037 17.0854 37.0849 17.3616C32.669 18.2872 17.9777 20.853 17.8183 20.7267C17.5328 20.5014 21.6655 14.4475 22.9746 13.1724C24.0155 12.159 24.5828 12.0199 30.4369 11.347C36.7141 10.6255 55.5269 8.82538 68.2069 7.73372C73.8115 7.25121 72.9586 7.30378 76.6138 7.07055C79.2943 6.89951 81 6.81667 81 6.10751C80.8416 5.7223 77.5885 5.89676 74.4207 6.10754ZM75.2736 12.8797C73.7691 13.2599 70.4795 13.8712 67.9633 14.2375C65.4466 14.6042 61.6335 15.1613 59.4892 15.4756C54.7165 16.1751 52.4225 16.7225 52.4225 17.1616C52.4225 17.8665 53.4601 17.9328 55.9393 17.385C59.3098 16.6404 68.9317 15.4371 69.2845 15.7156C69.4356 15.835 68.553 16.9089 67.3234 18.1023C64.0352 21.2929 62.4728 24.8584 64.3627 24.8584C64.7648 24.8584 65.0937 24.5448 65.0937 24.1615C65.0937 23.1758 68.2309 19.162 70.3635 17.4189C72.8115 15.4178 74.6742 14.5734 77.319 14.2649C80.0931 13.9413 80.9167 13.5565 80.5317 12.7633C80.1506 11.9783 78.7124 12.0103 75.2736 12.8797ZM46.9203 14.7468C43.5585 18.3141 38.0577 28.5771 39.2064 29.1384C39.9726 29.5124 40.4073 28.9215 41.787 25.6288C43.2422 22.1562 46.912 16.4998 48.6738 15.0145C49.3156 14.4733 49.841 13.8234 49.841 13.57C49.841 12.5973 48.3984 13.1786 46.9203 14.7468Z" fill="black"/>
<path fill-rule="evenodd" clip-rule="evenodd" d="M53.1129 2.16985C50.0155 3.53953 51.06 5.55912 54.7815 5.39657C57.1937 5.29111 59.4493 3.4831 58.2848 2.58814C57.495 1.98118 54.1512 1.7106 53.1129 2.16985Z" fill="black"/>
<path fill-rule="evenodd" clip-rule="evenodd" d="M30.0922 0.230883C26.9947 1.60057 28.0392 3.62015 31.7607 3.45761C34.1729 3.35215 36.4285 1.54414 35.264 0.64918C34.4742 0.0422198 31.1304 -0.228369 30.0922 0.230883Z" fill="black"/>
<path fill-rule="evenodd" clip-rule="evenodd" d="M73.4921 0.230883C70.3946 1.60057 71.4391 3.62015 75.1606 3.45761C77.5728 3.35215 79.8285 1.54414 78.6639 0.64918C77.8741 0.0422198 74.5303 -0.228369 73.4921 0.230883Z" fill="black"/>
</svg>
