<svg width="85" height="49" viewBox="0 0 85 49" fill="none" xmlns="http://www.w3.org/2000/svg">
<path d="M37.9418 32.748V34.668H37.7138C37.7138 34.612 37.7018 34.556 37.6778 34.5C37.6538 34.444 37.6218 34.416 37.5818 34.416H33.6938V36.54H36.8378C36.8778 36.54 36.9098 36.512 36.9338 36.456C36.9578 36.4 36.9698 36.344 36.9698 36.288H37.1978V38.208H36.9698C36.9698 38.152 36.9578 38.096 36.9338 38.04C36.9098 37.984 36.8778 37.956 36.8378 37.956H33.6938V41.64C33.6938 41.68 33.7218 41.712 33.7778 41.736C33.8418 41.76 33.9058 41.772 33.9698 41.772V42H31.8578V41.772C31.9218 41.772 31.9818 41.76 32.0378 41.736C32.1018 41.712 32.1338 41.68 32.1338 41.64V33.36C32.1338 33.32 32.1018 33.288 32.0378 33.264C31.9818 33.24 31.9258 33.228 31.8698 33.228V33H37.5818C37.6218 33 37.6538 32.972 37.6778 32.916C37.7018 32.86 37.7138 32.804 37.7138 32.748H37.9418ZM39.9476 35.472C39.6916 35.472 39.4716 35.384 39.2876 35.208C39.1116 35.032 39.0236 34.812 39.0236 34.548C39.0236 34.3 39.1116 34.088 39.2876 33.912C39.4716 33.728 39.6916 33.636 39.9476 33.636C40.2036 33.636 40.4196 33.728 40.5956 33.912C40.7716 34.088 40.8596 34.3 40.8596 34.548C40.8596 34.812 40.7716 35.032 40.5956 35.208C40.4196 35.384 40.2036 35.472 39.9476 35.472ZM39.1676 36.84C39.1676 36.8 39.1356 36.768 39.0716 36.744C39.0156 36.72 38.9596 36.708 38.9036 36.708V36.48H40.9676V36.708C40.9116 36.708 40.8516 36.72 40.7876 36.744C40.7316 36.768 40.7036 36.8 40.7036 36.84V41.64C40.7036 41.68 40.7316 41.712 40.7876 41.736C40.8516 41.76 40.9116 41.772 40.9676 41.772V42H38.9036V41.772C38.9596 41.772 39.0156 41.76 39.0716 41.736C39.1356 41.712 39.1676 41.68 39.1676 41.64V36.84ZM45.4555 36.24V38.064H45.2275C45.2275 38.008 45.2155 37.956 45.1915 37.908C45.1675 37.852 45.1355 37.824 45.0955 37.824H44.3155V41.64C44.3155 41.68 44.3435 41.712 44.3995 41.736C44.4555 41.76 44.5115 41.772 44.5675 41.772V42H42.6115V41.772C42.6675 41.772 42.7235 41.76 42.7795 41.736C42.8355 41.712 42.8635 41.68 42.8635 41.64V37.824H42.2875C42.2475 37.824 42.2155 37.852 42.1915 37.908C42.1675 37.956 42.1555 38.008 42.1555 38.064H41.9275V36.24H42.1555C42.1555 36.296 42.1675 36.352 42.1915 36.408C42.2155 36.456 42.2475 36.48 42.2875 36.48H42.8635V35.076C42.8635 35.036 42.8355 35.004 42.7795 34.98C42.7235 34.956 42.6675 34.944 42.6115 34.944V34.716H44.5675V34.944C44.5115 34.944 44.4555 34.956 44.3995 34.98C44.3435 35.004 44.3155 35.036 44.3155 35.076V36.48H45.0955C45.1355 36.48 45.1675 36.456 45.1915 36.408C45.2155 36.352 45.2275 36.296 45.2275 36.24H45.4555ZM54.1106 42.12C53.2546 42.12 52.4666 41.92 51.7466 41.52C51.0266 41.112 50.4586 40.552 50.0426 39.84C49.6266 39.12 49.4186 38.32 49.4186 37.44C49.4186 36.512 49.6266 35.692 50.0426 34.98C50.4586 34.268 51.0186 33.72 51.7226 33.336C52.4266 32.944 53.1986 32.748 54.0386 32.748C54.8466 32.748 55.5266 32.892 56.0786 33.18C56.6386 33.46 57.1666 33.856 57.6626 34.368C57.6786 34.384 57.7026 34.392 57.7346 34.392C57.7826 34.392 57.8666 34.356 57.9866 34.284L58.1306 34.464L56.4746 35.772L56.3306 35.592C56.3786 35.56 56.4146 35.52 56.4386 35.472C56.4706 35.416 56.4706 35.376 56.4386 35.352C56.1026 35.024 55.7506 34.776 55.3826 34.608C55.0226 34.432 54.5826 34.344 54.0626 34.344C53.5186 34.344 53.0186 34.48 52.5626 34.752C52.1066 35.016 51.7466 35.384 51.4826 35.856C51.2186 36.328 51.0866 36.856 51.0866 37.44C51.0866 38 51.2266 38.512 51.5066 38.976C51.7866 39.432 52.1586 39.792 52.6226 40.056C53.0866 40.32 53.5826 40.452 54.1106 40.452C54.6066 40.452 55.0306 40.368 55.3826 40.2C55.7346 40.024 56.0666 39.764 56.3786 39.42L56.4026 39.372C56.4026 39.332 56.3826 39.288 56.3426 39.24C56.3106 39.184 56.2746 39.144 56.2346 39.12L56.3906 38.952L58.1786 40.452L58.0346 40.632C57.9866 40.592 57.9266 40.556 57.8546 40.524C57.7826 40.492 57.7346 40.492 57.7106 40.524C57.2066 41.068 56.6786 41.472 56.1266 41.736C55.5746 41.992 54.9026 42.12 54.1106 42.12ZM59.0624 33.36C59.0624 33.32 59.0304 33.288 58.9664 33.264C58.9104 33.24 58.8504 33.228 58.7864 33.228V33H60.8984V33.228C60.8344 33.228 60.7704 33.24 60.7064 33.264C60.6504 33.288 60.6224 33.32 60.6224 33.36V41.64C60.6224 41.68 60.6504 41.712 60.7064 41.736C60.7704 41.76 60.8344 41.772 60.8984 41.772V42H58.7864V41.772C58.8504 41.772 58.9104 41.76 58.9664 41.736C59.0304 41.712 59.0624 41.68 59.0624 41.64V33.36ZM67.3973 41.64C67.3973 41.68 67.4253 41.712 67.4813 41.736C67.5453 41.76 67.6053 41.772 67.6613 41.772V42H66.1733V41.556C65.7493 41.924 65.2573 42.108 64.6973 42.108C63.8573 42.108 63.2413 41.868 62.8493 41.388C62.4573 40.9 62.2613 40.292 62.2613 39.564V36.84C62.2613 36.8 62.2293 36.768 62.1653 36.744C62.1093 36.72 62.0533 36.708 61.9973 36.708V36.48H64.0373V36.708C63.9813 36.708 63.9213 36.72 63.8573 36.744C63.8013 36.768 63.7733 36.8 63.7733 36.84V39.468C63.7733 39.812 63.8613 40.104 64.0373 40.344C64.2133 40.576 64.4853 40.692 64.8533 40.692C65.2053 40.692 65.4693 40.584 65.6453 40.368C65.8213 40.152 65.9093 39.876 65.9093 39.54V36.84C65.9093 36.8 65.8773 36.768 65.8133 36.744C65.7573 36.72 65.7013 36.708 65.6453 36.708V36.48H67.6613V36.708C67.6053 36.708 67.5453 36.72 67.4813 36.744C67.4253 36.768 67.3973 36.8 67.3973 36.84V41.64ZM72.2748 36.336C72.8428 36.336 73.3588 36.46 73.8228 36.708C74.2868 36.948 74.6508 37.288 74.9148 37.728C75.1868 38.168 75.3228 38.676 75.3228 39.252C75.3228 39.836 75.1908 40.348 74.9268 40.788C74.6628 41.22 74.2988 41.556 73.8348 41.796C73.3788 42.036 72.8588 42.156 72.2748 42.156C71.6028 42.156 71.0188 41.956 70.5228 41.556V42H68.7708V41.772C68.8268 41.772 68.8828 41.76 68.9388 41.736C69.0028 41.712 69.0348 41.68 69.0348 41.64V33.36C69.0348 33.32 69.0028 33.288 68.9388 33.264C68.8828 33.24 68.8268 33.228 68.7708 33.228V33H70.7868V33.228C70.7308 33.228 70.6708 33.24 70.6068 33.264C70.5508 33.288 70.5228 33.32 70.5228 33.36V36.9C71.0028 36.524 71.5868 36.336 72.2748 36.336ZM72.1788 40.884C72.6588 40.884 73.0588 40.736 73.3788 40.44C73.7068 40.144 73.8708 39.748 73.8708 39.252C73.8708 38.788 73.7108 38.404 73.3908 38.1C73.0708 37.788 72.6668 37.632 72.1788 37.632C71.6828 37.632 71.2748 37.788 70.9548 38.1C70.6348 38.412 70.4748 38.808 70.4748 39.288C70.4748 39.568 70.5468 39.832 70.6908 40.08C70.8428 40.32 71.0508 40.516 71.3148 40.668C71.5788 40.812 71.8668 40.884 72.1788 40.884Z" fill="#FEFEFE"/>
<path d="M28.6926 7.96904L28.6926 7.96907C28.1953 8.48373 27.8154 8.91673 27.549 9.27106C27.2772 9.63251 27.1425 9.88777 27.1048 10.0505C27.0868 10.1281 27.097 10.1592 27.0996 10.165C27.1006 10.1675 27.1019 10.1696 27.1055 10.1729C27.1098 10.1769 27.1201 10.1846 27.1413 10.1933C27.2432 10.2348 27.4655 10.2478 27.8592 10.1768C29.5373 9.87398 41.8037 8.54365 49.2024 7.86036C56.1782 7.21611 57.3009 7.13643 60.0972 6.93795C61.5509 6.83477 63.4569 6.69948 66.8728 6.43608C70.3041 6.17148 71.7911 6.08156 73.2704 5.99211C73.9268 5.95242 74.5816 5.91282 75.4041 5.85809C76.9876 5.75273 78.5985 5.656 79.8345 5.63407C80.4513 5.62313 80.9827 5.63061 81.3735 5.66641C81.5674 5.68418 81.7381 5.70987 81.8708 5.74799C81.9369 5.76697 82.004 5.79191 82.0627 5.82692C82.119 5.86041 82.1923 5.91784 82.2312 6.01245L82.25 6.05812V6.10751C82.25 6.41138 82.057 6.61845 81.8114 6.75254C81.5721 6.88318 81.2415 6.97075 80.8544 7.03722C80.1317 7.16129 79.1193 7.22551 77.9114 7.30213C77.8187 7.30802 77.7248 7.31398 77.6297 7.32004C74.7202 7.50569 74.6719 7.5099 71.9379 7.74798C71.2403 7.80873 70.3678 7.8847 69.2284 7.9828C56.5489 9.07441 37.7389 10.8743 31.4655 11.5953C28.5315 11.9326 26.945 12.1339 25.9602 12.3748C25.4726 12.4941 25.1449 12.6205 24.8804 12.7714C24.6162 12.9222 24.4032 13.1041 24.1489 13.3516C23.5155 13.9686 22.1689 15.779 21.0049 17.4841C20.4259 18.3325 19.8984 19.1454 19.5344 19.7582C19.366 20.0418 19.2355 20.2776 19.1512 20.4522C19.2424 20.4409 19.3509 20.4264 19.476 20.4088C19.899 20.3493 20.5012 20.2561 21.2351 20.1376C22.7024 19.9006 24.6906 19.5629 26.8124 19.1923C31.0574 18.4509 35.8303 17.5787 38.0336 17.1169L38.0337 17.1169C38.3789 17.0446 38.694 17.0148 38.9652 17.0241C39.2329 17.0333 39.474 17.0812 39.6596 17.1781C39.8492 17.277 40.0064 17.4442 40.022 17.6836C40.0365 17.9067 39.9215 18.1185 39.753 18.3039L39.7529 18.304C39.7067 18.3548 39.6404 18.4021 39.5785 18.4423C39.5112 18.486 39.4277 18.5347 39.3319 18.587C39.14 18.6919 38.8881 18.8173 38.5953 18.9545C38.0091 19.2292 37.249 19.5562 36.4555 19.8698L28.6926 7.96904ZM28.6926 7.96904C29.1672 7.4777 29.5338 7.09082 29.7999 6.78774C30.0604 6.49114 30.2443 6.25356 30.3321 6.06536C30.3759 5.97164 30.413 5.85509 30.3922 5.73301C30.3681 5.59213 30.2778 5.49838 30.1768 5.44448C30.0863 5.39619 29.9804 5.375 29.8828 5.36361C29.7811 5.35177 29.6642 5.34814 29.5382 5.34814C29.3946 5.34814 29.24 5.39063 29.0874 5.45226C28.9318 5.51515 28.7617 5.60484 28.5825 5.71467C28.2238 5.93438 27.8116 6.24511 27.3792 6.61547C26.514 7.35661 25.5492 8.35261 24.7455 9.38016L24.7455 9.38019M28.6926 7.96904L24.7455 9.38019M24.7455 9.38019C24.2465 10.0185 23.9458 10.3294 23.393 10.5506C22.8121 10.7831 21.9492 10.9182 20.3036 11.1298L20.3036 11.1298M24.7455 9.38019L20.3036 11.1298M20.3036 11.1298C18.3196 11.3851 14.3225 12.0834 10.5691 12.7957C6.82197 13.5069 3.28863 14.2375 2.24402 14.5587C1.74506 14.712 1.36251 14.8892 1.11157 15.0852C0.867689 15.2758 0.683059 15.5424 0.772016 15.8519C0.851736 16.1292 1.12482 16.3172 1.43867 16.4459C1.76888 16.5813 2.2197 16.6824 2.77853 16.7415L2.77858 16.7415M20.3036 11.1298L2.77858 16.7415M2.77858 16.7415C3.48897 16.8166 4.02559 16.8252 4.47416 16.7308M2.77858 16.7415L4.47416 16.7308M11.291 23.9674L11.291 23.9674C10.3076 24.1826 9.3835 24.3564 8.686 24.4628C8.33792 24.5159 8.0422 24.5529 7.82218 24.5695C7.71294 24.5778 7.61621 24.5815 7.53852 24.5786C7.50003 24.5771 7.45968 24.5738 7.42177 24.5665C7.39258 24.5609 7.32778 24.5467 7.26994 24.501C7.16454 24.4177 7.09545 24.302 7.08523 24.1639C7.07575 24.0356 7.11919 23.9179 7.17469 23.8219C7.28407 23.6325 7.4857 23.4489 7.71872 23.2862C8.19245 22.9555 8.89474 22.644 9.60041 22.5078M11.291 23.9674L13.4711 21.9305L13.4157 21.6867C12.0397 21.9989 10.3225 22.3683 9.60041 22.5078M11.291 23.9674C12.2687 23.7532 13.1665 23.5689 13.825 23.4446C14.1088 23.391 14.3465 23.3489 14.5264 23.3203C14.4442 23.5199 14.3246 23.7944 14.1748 24.1273C13.8545 24.8393 13.3998 25.8103 12.8883 26.8682L12.8883 26.8682M11.291 23.9674L12.8883 26.8682M9.60041 22.5078L9.64779 22.7532L9.60039 22.5078C9.6004 22.5078 9.6004 22.5078 9.60041 22.5078ZM15.8247 21.1398L13.4158 21.6866L18.9694 17.0877C20.3091 15.1757 21.389 13.4974 21.6839 12.8886C21.6615 12.8883 21.626 12.8893 21.575 12.8925C21.525 12.8957 21.4644 12.9008 21.3936 12.9076M15.8247 21.1398L15.7694 21.2188L15.9741 21.3623L15.9188 21.1185L15.8247 21.1398ZM15.8247 21.1398L18.7647 16.9442C19.5867 15.7711 20.3096 14.6876 20.812 13.8875C21.0636 13.4868 21.2576 13.1607 21.3809 12.9314C21.3852 12.9233 21.3894 12.9154 21.3936 12.9076M21.3936 12.9076C21.4487 12.8039 21.485 12.7277 21.5045 12.6778C21.512 12.6585 21.5149 12.6486 21.5156 12.646L13.9243 13.8319L13.9678 14.0781C16.063 13.7078 17.9903 13.3897 19.4073 13.1756C20.1162 13.0685 20.6955 12.9876 21.1036 12.9393C21.2139 12.9263 21.3107 12.9157 21.3936 12.9076ZM12.8883 26.8682C11.637 29.4565 10.7256 31.7481 10.2173 33.5321C9.96341 34.4234 9.80768 35.1963 9.76297 35.8207C9.7192 36.4318 9.77739 36.9521 10.0076 37.292L10.2146 37.1518M12.8883 26.8682L10.2146 37.1518M10.2146 37.1518L10.0076 37.292C10.2302 37.6206 10.4448 37.8749 10.6566 38.0176C10.7651 38.0907 10.8879 38.145 11.0217 38.1523C11.1617 38.1599 11.2892 38.1148 11.3966 38.0318C11.5928 37.8802 11.7217 37.6031 11.82 37.2765C11.9222 36.9367 12.0063 36.4886 12.0785 35.9357C12.2309 34.7688 13.0498 32.3488 14.0397 29.9215C15.0286 27.4968 16.1651 25.121 16.932 24.0396L16.7386 23.9025L16.932 24.0396C17.2063 23.6527 17.3988 23.3859 17.6219 23.1728C17.838 22.9665 18.0895 22.8051 18.4846 22.6532C19.2982 22.3404 20.6664 22.085 23.4554 21.5719C25.5884 21.1796 27.1819 20.8865 28.3159 20.7158C28.8831 20.6305 29.3292 20.5767 29.6671 20.5559C29.9947 20.5359 30.1907 20.5494 30.2931 20.5779C30.2803 20.6026 30.2601 20.6356 30.2293 20.6774C30.1775 20.7479 30.1043 20.8323 30.0073 20.9319C29.6145 21.3356 28.9107 21.9125 27.947 22.7016M10.2146 37.1518L27.947 22.7016M27.947 22.7016C27.051 23.4351 26.2349 24.1436 25.6415 24.6949C25.3453 24.9701 25.1017 25.2088 24.9306 25.3933C24.8456 25.485 24.7743 25.5677 24.7228 25.6375C24.6973 25.6721 24.6726 25.7088 24.6533 25.7454C24.6384 25.7737 24.6076 25.836 24.6076 25.9123C24.6076 26.1838 24.6692 26.5064 24.9755 26.6301C25.1126 26.6854 25.2637 26.6827 25.4111 26.6536C25.5602 26.6242 25.7275 26.5636 25.9126 26.4779C26.6435 26.1394 27.823 25.3262 29.6373 23.9688C31.9011 22.2755 34.8561 20.5023 36.4555 19.8698L27.947 22.7016ZM4.47416 16.7308C4.93385 16.6341 5.28597 16.4325 5.63381 16.1184L4.47416 16.7308ZM68.9273 13.9901L68.9633 14.2375L68.9272 13.9901C66.4105 14.3569 62.5974 14.9139 60.4529 15.2282C58.0651 15.5782 56.2894 15.8912 55.1081 16.1731C54.5192 16.3136 54.0667 16.4489 53.7571 16.5815C53.6036 16.6472 53.4712 16.718 53.3731 16.7975C53.2813 16.8718 53.1725 16.9925 53.1725 17.1616C53.1725 17.4099 53.2696 17.6261 53.4784 17.7746C53.6703 17.9112 53.9327 17.9733 54.2353 17.9926C54.8432 18.0312 55.7529 17.9032 56.9932 17.6291C58.6662 17.2596 61.9043 16.7737 64.7746 16.4147C66.2083 16.2354 67.5458 16.0882 68.5456 16.0033C69.0461 15.9608 69.4583 15.9342 69.7544 15.9267C69.8275 15.9249 69.8922 15.9242 69.9485 15.9247C69.8746 16.0361 69.7673 16.1787 69.6286 16.3475C69.2807 16.7707 68.7596 17.3306 68.1493 17.9229C66.4899 19.533 65.2545 21.2479 64.6723 22.5765C64.3848 23.2326 64.2381 23.8352 64.3194 24.2949C64.3615 24.5332 64.4675 24.7456 64.6578 24.8954C64.8459 25.0435 65.0884 25.1084 65.3627 25.1084C65.8914 25.1084 66.3438 24.694 66.3438 24.1615C66.3438 24.0919 66.375 23.9607 66.4621 23.7597C66.546 23.5662 66.6708 23.3322 66.8312 23.0665C67.1518 22.5357 67.6042 21.8956 68.1259 21.2282C69.1708 19.8912 70.4753 18.4678 71.5217 17.6125L71.3653 17.4211L71.5217 17.6125C73.9398 15.6359 75.7588 14.8153 78.348 14.5132C79.7304 14.352 80.6693 14.1721 81.2159 13.9167C81.4905 13.7883 81.7094 13.6214 81.8115 13.3868C81.9178 13.1423 81.8706 12.889 81.7566 12.6542C81.4969 12.1192 80.8983 11.9322 80.0437 11.9512C79.176 11.9704 77.9328 12.2023 76.2124 12.6373C74.7197 13.0145 71.4396 13.6244 68.9273 13.9901ZM70.1832 15.9408C70.183 15.9409 70.1814 15.9405 70.1786 15.9395C70.182 15.9403 70.1835 15.9408 70.1832 15.9408ZM47.7384 14.5753L47.7383 14.5753C46.0344 16.3835 43.8063 19.8646 42.1516 22.9518C41.3231 24.4974 40.6323 25.9557 40.22 27.0677C40.0146 27.6214 39.8733 28.1025 39.8225 28.471C39.7973 28.6539 39.7917 28.8269 39.822 28.9738C39.8525 29.122 39.9287 29.2809 40.0967 29.363L40.0968 29.363C40.3191 29.4716 40.5598 29.5304 40.8148 29.449C41.0592 29.371 41.2677 29.1791 41.468 28.9067C41.8662 28.3652 42.3311 27.3635 43.0176 25.7254C43.7372 24.0081 45.0099 21.7397 46.3252 19.7125C47.6456 17.6774 48.9858 15.9216 49.8349 15.2056L49.6738 15.0145L49.8349 15.2056C50.1667 14.9259 50.4699 14.6169 50.6925 14.3415C50.8036 14.2041 50.8983 14.0704 50.9666 13.9494C51.029 13.8388 51.091 13.7023 51.091 13.57C51.091 13.4194 51.0633 13.2757 50.9932 13.153C50.9206 13.0258 50.8109 12.9366 50.6782 12.8882C50.4302 12.7976 50.1297 12.8576 49.8415 12.9737C49.2488 13.2125 48.4894 13.7785 47.7384 14.5753Z" fill="black" stroke="black" stroke-width="0.5"/>
<path d="M54.113 2.16985C51.0156 3.53953 52.0601 5.55912 55.7816 5.39657C58.1938 5.29111 60.4494 3.4831 59.2849 2.58815C58.4951 1.98118 55.1513 1.7106 54.113 2.16985Z" fill="black"/>
<path d="M54.113 2.16985C51.0156 3.53953 52.0601 5.55912 55.7816 5.39657C58.1938 5.29111 60.4494 3.4831 59.2849 2.58815C58.4951 1.98118 55.1513 1.7106 54.113 2.16985Z" stroke="black"/>
<path d="M31.0922 0.230883C27.9947 1.60057 29.0392 3.62015 32.7607 3.45761C35.1729 3.35215 37.4285 1.54414 36.264 0.64918C35.4742 0.0422198 32.1304 -0.228369 31.0922 0.230883Z" fill="black"/>
<path d="M31.0922 0.230883C27.9947 1.60057 29.0392 3.62015 32.7607 3.45761C35.1729 3.35215 37.4285 1.54414 36.264 0.64918C35.4742 0.0422198 32.1304 -0.228369 31.0922 0.230883Z" stroke="black"/>
<path d="M74.4921 0.230883C71.3947 1.60057 72.4392 3.62015 76.1607 3.45761C78.5729 3.35215 80.8285 1.54414 79.664 0.64918C78.8742 0.0422198 75.5304 -0.228369 74.4921 0.230883Z" fill="black"/>
<path d="M74.4921 0.230883C71.3947 1.60057 72.4392 3.62015 76.1607 3.45761C78.5729 3.35215 80.8285 1.54414 79.664 0.64918C78.8742 0.0422198 75.5304 -0.228369 74.4921 0.230883Z" stroke="black"/>
</svg>
