<svg width="926" height="446" viewBox="0 0 926 446" fill="none" xmlns="http://www.w3.org/2000/svg">
<mask id="mask0_195_452" style="mask-type:luminance" maskUnits="userSpaceOnUse" x="323" y="0" width="286" height="361">
<path d="M323.441 0.497803H608.441V360.498H323.441V0.497803Z" fill="white"/>
</mask>
<g mask="url(#mask0_195_452)">
<path d="M323.441 0.497803H608.441V360.445H323.441V0.497803Z" fill="#D9F9F6"/>
</g>
<mask id="mask1_195_452" style="mask-type:alpha" maskUnits="userSpaceOnUse" x="323" y="110" width="286" height="251">
<mask id="mask2_195_452" style="mask-type:luminance" maskUnits="userSpaceOnUse" x="323" y="110" width="286" height="251">
<path d="M323.441 110.498H608.441V360.498H323.441V110.498Z" fill="white"/>
</mask>
<g mask="url(#mask2_195_452)">
<path d="M323.441 110.498H608.441V360.461H323.441V110.498Z" fill="#D9F9F6"/>
</g>
</mask>
<g mask="url(#mask1_195_452)">
<path fill-rule="evenodd" clip-rule="evenodd" d="M417.994 150.937C417.985 150.592 418.02 150.252 418.1 149.917C418.736 146.259 421.559 143.656 424.664 141.897C429.711 139.084 437.016 137.255 442.556 139.647C447.003 141.616 448.415 145.872 447.815 150.128C448.295 149.832 448.789 149.562 449.297 149.319C452.861 147.525 457.52 146.927 461.049 149.143C464.084 151.042 463.625 153.75 461.896 155.79C464.508 155.474 467.472 155.685 469.554 156.951C470.86 157.76 473.401 160.187 471.495 161.664C470.365 162.508 468.743 162.789 467.401 163.001C464.154 163.493 460.837 163.458 457.555 163.493C444.145 163.599 430.77 162.965 417.359 162.965C415.347 162.965 409.842 162.965 406.243 162.754C405.085 162.785 403.932 162.726 402.784 162.578C401.754 162.456 400.742 162.244 399.749 161.945C397.279 161.136 396.326 158.674 398.69 156.986C400.525 155.685 402.855 155.404 405.043 155.825C405.865 155.967 406.665 156.19 407.442 156.494C407.442 156.388 407.478 156.248 407.478 156.142C407.582 155.704 407.725 155.279 407.906 154.867C408.088 154.455 408.306 154.063 408.559 153.691C408.812 153.318 409.097 152.971 409.413 152.65C409.73 152.33 410.073 152.039 410.442 151.781C412.507 150.339 415.489 150.092 417.994 150.937Z" fill="white"/>
<path fill-rule="evenodd" clip-rule="evenodd" d="M398.722 161.668C398.758 161.091 399.145 160.511 399.993 159.997C400.446 159.73 400.919 159.503 401.411 159.317C401.904 159.13 402.409 158.986 402.926 158.885C403.443 158.784 403.964 158.728 404.491 158.716C405.017 158.703 405.542 158.735 406.063 158.811C406.81 158.936 407.547 159.108 408.272 159.329C408.272 159.237 408.307 159.146 408.307 159.055C408.59 157.746 409.684 156.624 410.954 155.889C412.824 154.799 415.613 154.482 417.942 155.161C417.942 154.885 417.965 154.613 418.012 154.341C418.612 151.486 421.294 149.541 424.223 148.173C428.952 145.956 435.799 144.528 440.986 146.413C445.151 147.933 446.491 151.155 445.962 154.503C446.456 154.261 446.95 154.05 447.374 153.866C450.726 152.46 455.032 152.133 458.349 153.866C461.172 155.354 460.749 157.482 459.161 159.121C461.596 158.879 464.384 159.03 466.325 160.032C467.278 160.517 468.971 161.826 468.76 162.92C468.301 163.011 467.877 163.039 467.454 163.102C464.208 163.528 460.89 163.497 457.608 163.528C444.198 163.619 430.822 163.071 417.412 163.071C415.4 163.071 409.895 163.071 406.295 162.888C405.139 162.916 403.987 162.865 402.837 162.737C401.812 162.627 400.8 162.444 399.802 162.185C399.432 162.032 399.072 161.86 398.722 161.668Z" fill="#CFF0E3" fill-opacity="0.2392"/>
<path d="M397.697 251.841C390.582 254.623 373.593 250.91 368.952 250.064C363.084 248.993 357.216 247.906 351.362 246.74C336.667 243.814 322.084 240.242 307.655 236.143C298.134 233.438 288.684 230.492 279.328 227.297C273.125 225.179 267.035 222.942 260.819 220.855C254.919 218.872 246.041 213.635 252.876 208.599C254.104 207.693 255.636 207.116 257.269 206.787C254.189 204.398 253.467 200.165 255.72 197.582C257.119 195.972 259.551 195.149 262.026 195.225C259.978 187.823 263.923 179.978 271.295 176.385C279.223 172.517 290.333 173.538 298.523 178.422C305.623 182.652 310.41 189.481 311.818 196.485C316.215 196.404 320.714 197.014 324.83 198.687C330.066 200.809 334.583 204.825 335.903 209.51C336.569 211.889 336.268 214.391 335.146 216.489C339.449 216.667 343.764 217.099 347.997 218.08C353.873 219.444 359.638 221.942 363.911 225.793C367.109 228.675 369.38 232.376 369.993 236.105C378.137 236.01 386.511 237.628 394.133 240.811C396.883 241.96 399.813 243.604 400.569 246.067C401.488 249.071 400.207 250.86 397.697 251.841Z" fill="white"/>
<path d="M541.229 212.737C547.962 215.556 563.735 211.986 568.049 211.179C573.503 210.156 578.957 209.117 584.396 207.999C598.047 205.195 611.575 201.747 624.943 197.775C633.764 195.153 642.512 192.291 651.165 189.181C656.901 187.119 662.528 184.937 668.278 182.906C673.735 180.977 681.88 175.831 675.342 170.773C674.167 169.862 672.718 169.277 671.181 168.938C673.991 166.584 674.54 162.378 672.358 159.792C671.003 158.18 668.705 157.344 666.393 157.402C668.09 150.053 664.17 142.221 657.172 138.593C649.646 134.688 639.29 135.623 631.777 140.422C625.265 144.579 620.991 151.337 619.882 158.294C615.768 158.181 611.581 158.756 607.782 160.39C602.95 162.463 598.845 166.425 597.749 171.076C597.197 173.437 597.552 175.929 598.663 178.024C594.645 178.17 590.624 178.568 586.696 179.513C581.242 180.828 575.927 183.271 572.046 187.071C569.141 189.914 567.127 193.579 566.664 197.285C559.047 197.131 551.267 198.68 544.234 201.79C541.698 202.913 539.007 204.529 538.373 206.973C537.603 209.954 538.853 211.743 541.229 212.737Z" fill="white"/>
</g>
<path d="M515.682 260.633C515.682 288.005 493.414 310.19 465.942 310.19C438.467 310.19 416.199 288.005 416.199 260.633C416.199 233.263 438.467 211.039 465.942 211.039C493.414 211.039 515.682 233.224 515.682 260.633Z" fill="#F2EDB6"/>
<mask id="mask3_195_452" style="mask-type:luminance" maskUnits="userSpaceOnUse" x="323" y="244" width="286" height="117">
<path d="M323.441 244.235H608.441V360.498H323.441V244.235Z" fill="white"/>
</mask>
<g mask="url(#mask3_195_452)">
<path d="M608.441 284.202V360.296H323.441V284.503H331.269V261.07H343.316V274.359H344.227V273.072H352.435V274.359H353.347V287.685H360.872V263.494L369.991 251.378V278.599H381.314V264.667H382.264V259.897H382.684L386.065 252.021L386.291 244.792L386.521 252.021L389.902 259.897H390.321V264.667H391.271V283.634H396.59V272.011H404.837V287.685H408.75V272.011H416.996V282.422H421.406V263.873L427.865 257.549H431.512V288.668H433.869V267.545H435.464V266.483H437.441L437.857 257.473L438.277 266.483H440.254V267.545H441.848V277.652H447.701V295.446H451.462V286.473H452.603V275.457H453.819V269.626H459.024V275.457H460.24V286.473H461.381V290.638H463.66V280.227H464.801V265.879H464.459V264.477H472.818V265.879H472.477V280.227H473.618V289.919H476.087V272.958H482.661V284.013H485.587V265.16H491.82V282.233H496.378V267.734H499.722L502.762 271.331V282.233H506.562V290.638H510.514V259.178L512.301 256.415H517.278L519.026 259.368V283.066H521.686V277.045H521.04V276.215H531.224V277.045H530.578V287.646H534.834V273.905L541.294 269.058H544.943V279.165H547.678V272.465H548.59V271.178H556.798V272.465H557.712V284.96H560.332V258.192H561.549V257.323H563.752L564.361 250.773L564.893 257.398H567.021V258.268H568.618V271.974H572.53V258.268H573.937V257.398H576.14L576.672 250.773L577.205 257.398H579.334V258.268H580.701V290.674H585.374V279.658H587.01V269.021H588.757V263.38H596.129V269.021H597.877V279.658H599.51V284.202H608.441Z" fill="#B7EFE4"/>
</g>
<mask id="mask4_195_452" style="mask-type:luminance" maskUnits="userSpaceOnUse" x="323" y="293" width="286" height="68">
<path d="M323.441 293.311H608.441V360.498H323.441V293.311Z" fill="white"/>
</mask>
<g mask="url(#mask4_195_452)">
<path d="M608.441 321.58V360.158H323.441V322.071H332.522V318.134H334.194V308.935H335.981V304.014H343.542V308.898H345.329V318.098H347.001V327.637H351.789V304.393C354.6 304.393 357.413 304.354 360.226 304.354V311.434H364.214V304.316C367.027 304.316 369.84 304.316 372.65 304.316V322.753H375.349V311.963H376.299V310.829H384.697V311.927H385.645V317.719H388.458V308.973H392.183L398.794 313.175V325.063H403.165V315.863H402.48V315.144H412.93V315.863H412.247V321.087H414.983V300.607L416.769 298.033H433.033L434.857 300.418V307.876H438.162V320.444H442.837L442.799 304.923H450.246V301.061H450.701L451.918 298.637H456.783L458 301.061H458.455V305.149H459.443V317.226H471.034V293.603L480.38 304.09V325.063H488.095V313.515H489.045V312.417H497.443V313.515H498.392V301.969H510.743V322.26H515.606V312.305H521.8V326.993H524.348V318.588H525.525V306.171H525.145V304.959H533.694V306.171H533.316V318.588H534.493V327.598H536.811V323.965H537.989V314.426H539.242V309.352H544.563V314.426H545.816V323.965H546.993V331.727H550.833V316.317H556.875V307.533H558.509V306.625H560.522L560.941 298.827L561.358 306.625H563.372V307.533H565.007V325.971H567.401V299.016H571.124L577.737 304.468V320.558H582.22V311.509H590.656V325.101H594.647V311.509H603.084V321.58H608.441Z" fill="#76D6C8"/>
</g>
<mask id="mask5_195_452" style="mask-type:luminance" maskUnits="userSpaceOnUse" x="323" y="305" width="286" height="56">
<path d="M323.441 305.235H608.441V360.498H323.441V305.235Z" fill="white"/>
</mask>
<g mask="url(#mask5_195_452)">
<path d="M607.986 348.875V340.698L605.819 338.087H600.687V323.056H595.329V322.073H597.801V318.476H580.662V322.073H583.132V323.056H577.015V338.087H568.313V326.01H563.942V324.987H564.552C565.385 324.987 566.109 324.305 566.109 323.435C566.109 322.602 565.424 321.883 564.552 321.883H560.447C559.611 321.883 558.889 322.563 558.889 323.435C558.889 324.268 559.572 324.987 560.447 324.987H561.132V326.01H541.448V324.987H542.055C542.891 324.987 543.612 324.305 543.612 323.435C543.612 322.602 542.93 321.883 542.055 321.883H537.95C537.114 321.883 536.392 322.563 536.392 323.435C536.392 324.268 537.077 324.987 537.95 324.987H538.635V326.01H532.67V337.14H516.708V338.502H511.199V322.828H506.677V317.075H504.283V305.376H502.838V317.075H490.374V322.828H485.852V331.726H477.225V322.828H461V313.478H457.39V322.828H453.705V338.502H448.232V330.553H444.129V329.606H444.736C445.573 329.606 446.294 328.924 446.294 328.054C446.294 327.221 445.611 326.502 444.736 326.502H440.632C439.798 326.502 439.074 327.183 439.074 328.054C439.074 328.887 439.759 329.606 440.632 329.606H441.316V330.553H423.229V343.651H415.363V340.017H416.504V338.541H415.021L412.816 335.248H393.777L391.574 338.541H390.245V340.017H391.384V348.913H387.661V344.559H387.091V343.349H387.661V334.641H380.022V332.975H382.493V329.378H365.354V332.975H367.824V334.641H361.364V343.349H361.934V344.559H361.364V345.317H358.666V332.861H359.882V330.704H350.648V328.394H347.191V330.704H338.869V323.018H337.768V330.665H332.371V332.824H333.587V341.229H323.441V360.498H608.441V348.875H607.986ZM368.319 332.899H379.566V334.565H368.319V332.899ZM583.626 322.073H594.874V323.056H583.626V322.073Z" fill="#51B7AA"/>
</g>
<mask id="mask6_195_452" style="mask-type:luminance" maskUnits="userSpaceOnUse" x="38" y="0" width="286" height="361">
<path d="M38.4414 0.497803H323.441V360.498H38.4414V0.497803Z" fill="white"/>
</mask>
<g mask="url(#mask6_195_452)">
<path d="M38.4414 0.497803H323.441V360.445H38.4414V0.497803Z" fill="#197BBB"/>
</g>
<path d="M230.682 260.527C230.682 287.9 208.414 310.085 180.942 310.085C153.467 310.085 131.199 287.9 131.199 260.527C131.199 233.157 153.467 210.934 180.942 210.934C208.414 210.934 230.682 233.119 230.682 260.527Z" fill="#F7F9F8"/>
<mask id="mask7_195_452" style="mask-type:luminance" maskUnits="userSpaceOnUse" x="38" y="244" width="286" height="117">
<path d="M38.4414 244.235H323.441V360.497H38.4414V244.235Z" fill="white"/>
</mask>
<g mask="url(#mask7_195_452)">
<path d="M323.441 284.202V360.296H38.4414V284.503H46.2687V261.07H58.3155V274.359H59.2272V273.072H67.4348V274.359H68.3465V287.685H75.8715V263.494L84.9908 251.378V278.599H96.3137V264.667H97.2643V259.897H97.6835L101.065 252.021L101.291 244.792L101.52 252.021L104.902 259.897H105.321V264.667H106.271V283.634H111.59V272.011H119.837V287.685H123.749V272.011H131.996V282.422H136.406V263.873L142.865 257.549H146.512V288.668H148.869V267.545H150.464V266.483H152.44L152.857 257.473L153.277 266.483H155.253V267.545H156.848V277.652H162.701V295.446H166.462V286.473H167.603V275.457H168.819V269.626H174.023V275.457H175.24V286.473H176.381V290.638H178.66V280.227H179.801V265.879H179.459V264.477H187.818V265.879H187.477V280.227H188.618V289.919H191.087V272.958H197.661V284.013H200.586V265.16H206.819V282.233H211.378V267.734H214.722L217.762 271.331V282.233H221.562V290.638H225.514V259.178L227.301 256.415H232.278L234.026 259.368V283.066H236.686V277.045H236.04V276.215H246.224V277.045H245.578V287.646H249.834V273.905L256.294 269.058H259.943V279.165H262.678V272.465H263.59V271.178H271.798V272.465H272.712V284.96H275.332V258.192H276.548V257.323H278.752L279.361 250.773L279.893 257.398H282.021V258.268H283.618V271.974H287.53V258.268H288.937V257.398H291.14L291.672 250.773L292.205 257.398H294.333V258.268H295.701V290.674H300.374V279.658H302.01V269.021H303.757V263.38H311.129V269.021H312.877V279.658H314.51V284.202H323.441Z" fill="#6E74A1"/>
</g>
<mask id="mask8_195_452" style="mask-type:luminance" maskUnits="userSpaceOnUse" x="38" y="293" width="286" height="68">
<path d="M38.4414 293.311H323.441V360.498H38.4414V293.311Z" fill="white"/>
</mask>
<g mask="url(#mask8_195_452)">
<path d="M323.441 321.58V360.158H38.4414V322.071H47.5217V318.134H49.194V308.934H50.9807V304.014H58.5423V308.898H60.3291V318.097H62.0013V327.637H66.7888V304.393C69.5995 304.393 72.4125 304.354 75.2255 304.354V311.433H79.2136V304.315C82.0266 304.315 84.8396 304.315 87.6503 304.315V322.753H90.3487V311.963H91.2994V310.829H99.6971V311.926H100.645V317.718H103.458V308.973H107.183L113.794 313.175V325.062H118.165V315.863H117.48V315.144H127.93V315.863H127.247V321.087H129.982V300.607L131.769 298.032H148.033L149.857 300.417V307.875H153.162V320.443H157.837L157.798 304.922H165.246V301.061H165.701L166.918 298.637H171.783L173 301.061H173.455V305.148H174.443V317.225H186.034V293.603L195.38 304.089V325.062H203.095V313.515H204.045V312.417H212.443V313.515H213.391V301.969H225.743V322.26H230.606V312.305H236.8V326.993H239.347V318.588H240.525V306.171H240.145V304.959H248.694V306.171H248.316V318.588H249.493V327.598H251.811V323.965H252.989V314.425H254.242V309.352H259.563V314.425H260.816V323.965H261.993V331.726H265.833V316.317H271.875V307.533H273.509V306.625H275.522L275.941 298.827L276.358 306.625H278.372V307.533H280.007V325.971H282.401V299.016H286.124L292.737 304.468V320.557H297.22V311.509H305.656V325.101H309.647V311.509H318.083V321.58H323.441Z" fill="#293378"/>
</g>
<mask id="mask9_195_452" style="mask-type:luminance" maskUnits="userSpaceOnUse" x="38" y="305" width="286" height="56">
<path d="M38.4414 305.235H323.441V360.498H38.4414V305.235Z" fill="white"/>
</mask>
<g mask="url(#mask9_195_452)">
<path d="M322.986 348.875V340.698L320.819 338.087H315.687V323.056H310.329V322.073H312.801V318.476H295.662V322.073H298.131V323.056H292.015V338.087H283.313V326.01H278.942V324.987H279.552C280.385 324.987 281.109 324.305 281.109 323.435C281.109 322.602 280.424 321.883 279.552 321.883H275.447C274.611 321.883 273.889 322.563 273.889 323.435C273.889 324.268 274.572 324.987 275.447 324.987H276.132V326.01H256.448V324.987H257.055C257.891 324.987 258.612 324.305 258.612 323.435C258.612 322.602 257.93 321.883 257.055 321.883H252.95C252.114 321.883 251.392 322.563 251.392 323.435C251.392 324.268 252.077 324.987 252.95 324.987H253.635V326.01H247.67V337.14H231.708V338.502H226.199V322.828H221.677V317.075H219.283V305.376H217.838V317.075H205.374V322.828H200.852V331.726H192.225V322.828H176V313.478H172.39V322.828H168.704V338.502H163.232V330.553H159.129V329.606H159.736C160.572 329.606 161.294 328.924 161.294 328.054C161.294 327.221 160.611 326.502 159.736 326.502H155.631C154.798 326.502 154.074 327.183 154.074 328.054C154.074 328.887 154.759 329.606 155.631 329.606H156.316V330.553H138.229V343.651H130.363V340.017H131.503V338.541H130.021L127.815 335.248H108.777L106.574 338.541H105.245V340.017H106.384V348.913H102.661V344.559H102.091V343.349H102.661V334.641H95.0218V332.975H97.4934V329.378H80.3544V332.975H82.8238V334.641H76.364V343.349H76.9344V344.559H76.364V345.317H73.6655V332.861H74.8819V330.704H65.6481V328.394H62.1914V330.704H53.8693V323.018H52.7675V330.665H47.3706V332.824H48.5869V341.229H38.4414V360.498H323.441V348.875H322.986ZM83.3186 332.899H94.5659V334.565H83.3186V332.899ZM298.626 322.073H309.874V323.056H298.626V322.073Z" fill="#1A1A4E"/>
</g>
<ellipse cx="98.2562" cy="204.361" rx="1.31944" ry="1.31453" fill="#FDFF95"/>
<ellipse cx="173.025" cy="174.565" rx="1.31944" ry="1.31453" fill="#FDFF95"/>
<ellipse cx="127.284" cy="140.387" rx="1.31944" ry="1.31453" fill="#FDFF95"/>
<ellipse cx="287.817" cy="119.355" rx="1.31944" ry="1.31453" fill="#FDFF95"/>
<ellipse cx="186.761" cy="111.812" rx="1.31944" ry="1.31453" fill="#FDFF95"/>
<ellipse cx="223.761" cy="44.8123" rx="1.31944" ry="1.31453" fill="#FDFF95"/>
<ellipse cx="126.761" cy="72.8123" rx="1.31944" ry="1.31453" fill="#FDFF95"/>
<ellipse cx="89.7608" cy="31.8123" rx="1.31944" ry="1.31453" fill="#FDFF95"/>
<ellipse cx="290.761" cy="61.8123" rx="1.31944" ry="1.31453" fill="#FDFF95"/>
<ellipse cx="229.321" cy="149.151" rx="1.31944" ry="1.31453" fill="#FDFF95"/>
<ellipse cx="285.178" cy="195.159" rx="1.31944" ry="1.31453" fill="#FDFF95"/>
<ellipse cx="246.914" cy="174.565" rx="1.31944" ry="1.31453" fill="#FDFF95"/>
<ellipse cx="248.233" cy="205.675" rx="1.31944" ry="1.31453" fill="#FDFF95"/>
<ellipse cx="308.928" cy="147.836" rx="1.31944" ry="1.31453" fill="#FDFF95"/>
<ellipse cx="63.5108" cy="128.118" rx="1.31944" ry="1.31453" fill="#FDFF95"/>
<ellipse cx="83.3026" cy="233.719" rx="1.31944" ry="1.31453" fill="#FDFF95"/>
<rect x="38.4414" y="0.497803" width="285" height="360" fill="white" fill-opacity="0.5"/>
<mask id="mask10_195_452" style="mask-type:luminance" maskUnits="userSpaceOnUse" x="608" y="0" width="286" height="361">
<path d="M608.441 0.497803H893.441V360.498H608.441V0.497803Z" fill="white"/>
</mask>
<g mask="url(#mask10_195_452)">
<path d="M608.441 0.497803H893.441V360.445H608.441V0.497803Z" fill="#FF891F"/>
</g>
<mask id="mask11_195_452" style="mask-type:alpha" maskUnits="userSpaceOnUse" x="608" y="110" width="286" height="251">
<mask id="mask12_195_452" style="mask-type:luminance" maskUnits="userSpaceOnUse" x="608" y="110" width="286" height="251">
<path d="M608.441 110.498H893.441V360.498H608.441V110.498Z" fill="white"/>
</mask>
<g mask="url(#mask12_195_452)">
<path d="M608.441 110.498H893.441V360.461H608.441V110.498Z" fill="#FF891F"/>
</g>
</mask>
<g mask="url(#mask11_195_452)">
<mask id="mask13_195_452" style="mask-type:luminance" maskUnits="userSpaceOnUse" x="817" y="240" width="144" height="35">
<path d="M817.353 240.636H960.376V274.218H817.353V240.636Z" fill="white"/>
</mask>
<g mask="url(#mask13_195_452)">
<path d="M953.643 262.505C952.543 262.505 951.504 262.738 950.587 263.143C949.548 259.942 946.167 257.595 942.158 257.595C941.443 257.595 940.746 257.672 940.079 257.812C939.021 253.244 934.381 249.806 928.819 249.806C923.971 249.806 919.83 252.418 918.141 256.114C915.861 253.906 912.551 252.516 908.869 252.516C908.25 252.516 907.642 252.557 907.05 252.631C906.331 245.917 899.838 240.664 891.934 240.664C887.022 240.664 882.654 242.696 879.875 245.844C878.761 245.557 877.58 245.402 876.358 245.402C870.834 245.402 866.152 248.53 864.519 252.864C863.513 252.635 862.456 252.512 861.37 252.512C859.978 252.512 858.642 252.712 857.392 253.081C855.29 251.069 852.262 249.806 848.892 249.806C843.33 249.806 838.689 253.244 837.632 257.812C836.963 257.672 836.273 257.595 835.553 257.595C831.538 257.595 828.157 259.942 827.124 263.143C826.207 262.734 825.167 262.505 824.067 262.505C820.357 262.505 817.349 265.122 817.349 268.347C817.349 271.573 820.357 274.19 824.067 274.19H953.643C957.353 274.19 960.361 271.573 960.361 268.347C960.361 265.122 957.353 262.505 953.643 262.505Z" fill="white"/>
</g>
<mask id="mask14_195_452" style="mask-type:luminance" maskUnits="userSpaceOnUse" x="558" y="170" width="144" height="35">
<path d="M558.302 170.528H701.325V204.11H558.302V170.528Z" fill="white"/>
</mask>
<g mask="url(#mask14_195_452)">
<path d="M694.593 192.397C693.492 192.397 692.453 192.629 691.536 193.035C690.498 189.833 687.116 187.486 683.107 187.486C682.392 187.486 681.695 187.564 681.028 187.703C679.97 183.136 675.33 179.697 669.768 179.697C664.92 179.697 660.779 182.31 659.09 186.006C656.81 183.798 653.5 182.408 649.819 182.408C649.199 182.408 648.592 182.449 647.999 182.523C647.28 175.809 640.788 170.555 632.884 170.555C627.971 170.555 623.603 172.587 620.824 175.736C619.71 175.449 618.53 175.294 617.307 175.294C611.783 175.294 607.101 178.422 605.468 182.755C604.463 182.526 603.405 182.404 602.319 182.404C600.927 182.404 599.592 182.604 598.341 182.972C596.239 180.961 593.211 179.697 589.841 179.697C584.279 179.697 579.638 183.136 578.581 187.703C577.913 187.564 577.222 187.486 576.502 187.486C572.487 187.486 569.107 189.833 568.073 193.035C567.156 192.626 566.116 192.397 565.016 192.397C561.306 192.397 558.298 195.014 558.298 198.239C558.298 201.465 561.306 204.082 565.016 204.082H694.593C698.302 204.082 701.31 201.465 701.31 198.239C701.31 195.014 698.302 192.397 694.593 192.397Z" fill="white"/>
</g>
</g>
<path d="M800.682 260.528C800.682 287.9 778.414 310.085 750.942 310.085C723.467 310.085 701.199 287.9 701.199 260.528C701.199 233.158 723.467 210.934 750.942 210.934C778.414 210.934 800.682 233.119 800.682 260.528Z" fill="#FFB600"/>
<mask id="mask15_195_452" style="mask-type:luminance" maskUnits="userSpaceOnUse" x="608" y="244" width="286" height="117">
<path d="M608.441 244.235H893.441V360.498H608.441V244.235Z" fill="white"/>
</mask>
<g mask="url(#mask15_195_452)">
<path d="M893.441 284.202V360.297H608.441V284.504H616.269V261.07H628.316V274.359H629.227V273.072H637.435V274.359H638.346V287.685H645.871V263.494L654.991 251.378V278.6H666.314V264.667H667.264V259.897H667.684L671.065 252.022L671.291 244.792L671.52 252.022L674.902 259.897H675.321V264.667H676.271V283.634H681.59V272.011H689.837V287.685H693.749V272.011H701.996V282.422H706.406V263.873L712.865 257.549H716.512V288.669H718.869V267.545H720.464V266.484H722.44L722.857 257.474L723.277 266.484H725.253V267.545H726.848V277.653H732.7V295.447H736.462V286.473H737.603V275.457H738.819V269.626H744.023V275.457H745.24V286.473H746.381V290.638H748.66V280.227H749.801V265.879H749.459V264.478H757.818V265.879H757.477V280.227H758.617V289.919H761.087V272.958H767.661V284.013H770.586V265.16H776.819V282.233H781.378V267.734H784.722L787.762 271.331V282.233H791.562V290.638H795.514V259.179L797.301 256.415H802.278L804.026 259.368V283.066H806.686V277.046H806.04V276.215H816.224V277.046H815.578V287.646H819.834V273.905L826.294 269.058H829.943V279.166H832.678V272.465H833.59V271.178H841.797V272.465H842.711V284.96H845.332V258.193H846.548V257.323H848.752L849.361 250.773L849.893 257.398H852.021V258.268H853.617V271.975H857.53V258.268H858.936V257.398H861.14L861.672 250.773L862.205 257.398H864.333V258.268H865.701V290.675H870.374V279.659H872.01V269.022H873.757V263.38H881.129V269.022H882.877V279.659H884.51V284.202H893.441Z" fill="#931616"/>
</g>
<mask id="mask16_195_452" style="mask-type:luminance" maskUnits="userSpaceOnUse" x="608" y="293" width="286" height="68">
<path d="M608.441 293.311H893.441V360.498H608.441V293.311Z" fill="white"/>
</mask>
<g mask="url(#mask16_195_452)">
<path d="M893.441 321.58V360.158H608.441V322.071H617.522V318.134H619.194V308.935H620.981V304.014H628.542V308.898H630.329V318.098H632.001V327.637H636.789V304.393C639.6 304.393 642.412 304.354 645.225 304.354V311.434H649.214V304.316C652.027 304.316 654.84 304.316 657.65 304.316V322.753H660.349V311.963H661.299V310.829H669.697V311.927H670.645V317.719H673.458V308.973H677.183L683.794 313.175V325.063H688.165V315.863H687.48V315.144H697.93V315.863H697.247V321.087H699.982V300.607L701.769 298.033H718.033L719.857 300.418V307.876H723.162V320.444H727.837L727.798 304.923H735.245V301.061H735.701L736.918 298.637H741.783L742.999 301.061H743.455V305.149H744.443V317.226H756.034V293.603L765.38 304.09V325.063H773.095V313.515H774.045V312.417H782.443V313.515H783.391V301.969H795.743V322.26H800.606V312.305H806.8V326.993H809.347V318.588H810.525V306.171H810.145V304.959H818.693V306.171H818.315V318.588H819.493V327.598H821.811V323.965H822.988V314.426H824.242V309.352H829.563V314.426H830.816V323.965H831.993V331.727H835.832V316.317H841.875V307.533H843.509V306.625H845.522L845.941 298.827L846.358 306.625H848.372V307.533H850.007V325.971H852.401V299.016H856.123L862.737 304.468V320.558H867.22V311.509H875.656V325.101H879.647V311.509H888.083V321.58H893.441Z" fill="#631212"/>
</g>
<mask id="mask17_195_452" style="mask-type:luminance" maskUnits="userSpaceOnUse" x="608" y="305" width="286" height="56">
<path d="M608.441 305.235H893.441V360.498H608.441V305.235Z" fill="white"/>
</mask>
<g mask="url(#mask17_195_452)">
<path d="M892.985 348.875V340.698L890.818 338.087H885.687V323.056H880.329V322.073H882.801V318.476H865.662V322.073H868.131V323.056H862.015V338.087H853.313V326.01H848.942V324.987H849.551C850.385 324.987 851.109 324.305 851.109 323.435C851.109 322.602 850.424 321.883 849.551 321.883H845.447C844.61 321.883 843.889 322.563 843.889 323.435C843.889 324.268 844.571 324.987 845.447 324.987H846.131V326.01H826.447V324.987H827.054C827.891 324.987 828.612 324.305 828.612 323.435C828.612 322.602 827.93 321.883 827.054 321.883H822.95C822.113 321.883 821.392 322.563 821.392 323.435C821.392 324.268 822.077 324.987 822.95 324.987H823.634V326.01H817.669V337.14H801.708V338.502H796.199V322.828H791.677V317.075H789.283V305.376H787.838V317.075H775.374V322.828H770.852V331.726H762.225V322.828H746V313.478H742.39V322.828H738.704V338.502H733.232V330.553H729.129V329.606H729.736C730.572 329.606 731.294 328.924 731.294 328.054C731.294 327.221 730.611 326.502 729.736 326.502H725.631C724.798 326.502 724.074 327.183 724.074 328.054C724.074 328.887 724.759 329.606 725.631 329.606H726.316V330.553H708.229V343.651H700.363V340.017H701.503V338.541H700.021L697.815 335.248H678.777L676.574 338.541H675.245V340.017H676.384V348.913H672.661V344.559H672.091V343.349H672.661V334.641H665.022V332.975H667.493V329.378H650.354V332.975H652.824V334.641H646.364V343.349H646.934V344.559H646.364V345.317H643.665V332.861H644.882V330.704H635.648V328.394H632.191V330.704H623.869V323.018H622.767V330.665H617.371V332.824H618.587V341.229H608.441V360.498H893.441V348.875H892.985ZM653.319 332.899H664.566V334.565H653.319V332.899ZM868.626 322.073H879.873V323.056H868.626V322.073Z" fill="#470F09"/>
</g>
<rect x="608.441" y="0.497803" width="285" height="360" fill="white" fill-opacity="0.5"/>
<path d="M579.15 302.866C579.15 302.866 575.443 333.976 571.825 340.231C560.706 352.924 545.132 368.52 544.249 369.491C543.369 370.459 543.058 372.796 543.058 372.796L541.295 368.83C541.295 368.83 542.883 367.242 543.5 366.274C544.117 365.303 558.942 329.73 566.001 330.664C564.679 322.43 562.207 302.427 562.207 300.751C562.207 299.079 579.15 302.866 579.15 302.866Z" fill="#F9AA80"/>
<path d="M562.846 302.267C562.846 302.267 564.745 306.922 569.963 308.507C575.181 310.092 578.314 309.3 578.314 309.3L579.46 301.237L562.846 302.267Z" fill="#D27771"/>
<path d="M570.503 304.571C570.503 304.571 569.386 305.812 580.209 304.019C591.032 302.219 611.798 297.169 611.798 297.169C611.798 297.169 606.211 300.142 602.213 305.44C598.211 310.738 592.825 326.016 591.134 327.188C590.21 327.305 591.682 330.832 591.682 330.657C591.682 330.478 593.033 328.013 593.033 328.013C593.033 328.013 618.622 302.34 621.328 298.462C624.038 294.584 625.33 290.637 624.505 289.494C623.683 288.354 597.203 283.626 585.412 284.404C573.621 285.185 570.503 304.571 570.503 304.571Z" fill="#F9AA80"/>
<mask id="mask18_195_452" style="mask-type:luminance" maskUnits="userSpaceOnUse" x="604" y="249" width="41" height="36">
<path d="M604.904 249.345H644.669V284.867H604.904V249.345Z" fill="white"/>
</mask>
<g mask="url(#mask18_195_452)">
<path d="M609.03 249.437C609.03 249.437 609.329 249.506 611.181 253.121C613.036 256.732 621.42 273.036 621.814 273.168C622.212 273.299 635.978 260.435 636.153 259.862C636.329 259.289 636.329 251.401 637.391 250.784C638.45 250.167 644.669 255.016 644.493 257.704C644.318 260.391 638.845 262.505 638.845 262.505C638.845 262.505 625.17 284.36 622.873 284.404C620.58 284.447 605.886 269.071 605.798 268.808C605.711 268.541 609.03 249.437 609.03 249.437Z" fill="#F9AA80"/>
</g>
<path d="M608.669 248.407C608.669 248.407 609.947 249.108 609.592 252.592C609.242 256.072 609.162 263.167 609.162 263.167C609.162 263.167 605.886 259.555 608.669 248.407Z" fill="#82AD4F"/>
<path d="M588.282 255.148L588.636 254.089C588.636 254.089 572.384 249.17 571.562 249.404C570.737 249.641 561.323 267.851 560.914 268.677C560.502 269.498 562.426 273.785 562.473 274.578C562.517 275.374 560.312 278.28 559.603 278.061C558.899 277.838 554.396 276.21 554.09 275.374C553.779 274.534 557.442 267.837 557.442 267.837C557.442 267.837 564.544 241.656 565.384 240.801C566.223 239.947 598.828 241.356 600.946 242.678C603.063 244 606.419 246.819 606.218 255.06C606.018 263.302 599.091 266.121 593.664 264.401C588.238 262.685 588.282 255.148 588.282 255.148Z" fill="#F9AA80"/>
<path d="M564.325 289.768C564.325 289.768 577.78 277.225 578.047 277.225C578.314 277.225 579.369 274.975 579.369 274.975C579.369 274.975 588.651 280.836 588.37 281.541C588.092 282.245 586.73 283.082 586.73 283.082L586.475 283.746C586.475 283.746 571.142 292.645 569.963 303.968C567.545 304.322 565.552 302.646 565.552 302.646C565.552 302.646 561.677 293.675 564.325 289.768Z" fill="#5A7A8B"/>
<path d="M586.73 283.082C586.73 283.082 579.884 277.959 578.047 277.225C578.175 277.133 579.446 275.136 579.369 274.975C579.296 274.815 588.384 281.132 588.151 282.012C588.092 282.246 586.73 283.082 586.73 283.082Z" fill="#4C6777"/>
<path d="M561.385 299.137C561.385 299.137 561.323 292.703 564.325 289.768C563.324 298.403 569.09 304.571 569.09 304.571C569.09 304.571 561.56 301.456 561.385 299.137Z" fill="#4C6777"/>
<path d="M602.446 242.678H600.946C600.946 242.678 606.814 246.245 605.181 255.94C603.549 265.635 596.556 264.003 592.595 261.625C588.636 259.245 588.282 255.148 588.282 255.148C588.282 255.148 579.975 272.846 579.15 273.376C578.325 273.902 578.562 275.315 578.562 275.315C578.562 275.315 587.15 280.365 588.092 282.245C590.623 283.067 592.62 280.248 592.62 280.248C592.62 280.248 602.622 272.846 605.74 271.671C608.858 270.495 609.373 262.505 609.373 262.505C609.373 262.505 607.149 249.816 607.149 247.406C607.149 245 602.446 242.678 602.446 242.678Z" fill="#82AD4F"/>
<path d="M605.623 239.041C605.623 239.041 603.571 242.546 602.446 242.678C605.116 245.65 607.387 249.199 607.076 253.647C606.77 258.098 606.262 261.162 608.866 262.352C608.468 258.08 608.358 251.226 609.373 247.702C610.388 244.175 612.948 242.503 612.948 242.503C612.948 242.503 618.287 243.47 619.652 242.371C621.022 241.268 621.902 233.998 621.902 233.998C621.902 233.998 623.625 232.764 623.625 232.41C623.625 232.059 620.09 229.018 620.068 228.006C620.05 226.991 618.374 223.113 616.851 222.036C615.329 220.955 607.164 219.984 603.151 222.54C599.138 225.096 605.623 239.041 605.623 239.041Z" fill="#F9AA80"/>
<mask id="mask19_195_452" style="mask-type:luminance" maskUnits="userSpaceOnUse" x="567" y="216" width="51" height="25">
<path d="M567.512 216H617.056V240.932H567.512V216Z" fill="white"/>
</mask>
<g mask="url(#mask19_195_452)">
<path d="M616.851 222.036C616.851 222.036 612.813 221.813 612.13 221.682C611.447 221.55 614.314 223.511 613.609 224.059C612.904 224.61 611.049 224.566 610.808 225.03C610.564 225.494 612.152 227.1 611.535 227.542C610.918 227.98 609.727 227.433 609.57 228.072C609.417 228.711 610.166 229.149 610.012 229.744C609.859 230.339 609.154 231.132 609.154 231.132C609.154 231.132 608.577 227.079 606.153 228.51C603.724 229.945 604.805 233.578 608.314 234.546C607.982 236.708 606.284 236.532 605.952 236.949C605.623 237.368 606.065 238.292 605.623 239.041C604.298 238.38 602.048 238.625 598.609 239.771C595.165 240.914 593.975 241.531 591.284 239.286C588.592 237.04 584.401 235.937 580.428 235.627C576.459 235.32 571.96 233.162 571.12 232.191C572.004 231.223 580.384 231.617 579.767 230.956C579.15 230.296 570.017 227.652 570.061 227.298C570.105 226.947 571.869 226.242 571.869 226.067C571.869 225.888 568.341 224.658 568.341 224.658C568.341 224.658 574.209 220.071 581.885 220.027C589.564 219.987 595.738 220.382 597.637 218.311C599.532 216.241 601.694 216.018 605.225 217.252C608.756 218.487 608.091 216.372 611.977 217.384C615.858 218.399 616.851 222.036 616.851 222.036Z" fill="#353638"/>
</g>
<path d="M615.566 237.098C615.566 237.098 619.565 236.554 619.992 236.978C620.415 237.434 619.064 239.373 617.418 239.213C615.771 239.052 615.566 237.098 615.566 237.098Z" fill="white"/>
<path d="M619.188 227.594C617.958 226.863 616.085 228.258 615.234 229.072C615.007 229.291 615.164 229.81 615.519 229.613C616.103 229.284 616.691 228.923 617.315 228.671C617.899 228.437 618.56 228.448 619.115 228.174C619.298 228.083 619.397 227.718 619.188 227.594Z" fill="#353638"/>
<path d="M617.94 232.078C617.9 231.778 617.911 231.475 617.838 231.179C617.728 230.752 617.177 230.946 617.067 231.26C616.895 231.745 616.939 232.545 617.308 232.925C617.425 233.049 617.556 233.034 617.67 232.961C617.677 232.965 617.702 232.95 617.75 232.914C617.783 232.892 617.812 232.866 617.83 232.833C617.903 232.753 617.933 232.662 617.954 232.56C617.984 232.395 617.962 232.242 617.94 232.078Z" fill="#353638"/>
<path d="M608.72 232.742C608.588 232.18 608.143 231.727 607.778 231.293C607.431 230.88 607.073 230.329 606.565 230.106C606.332 230 606.175 230.329 606.233 230.511C606.386 231.011 606.795 231.428 607.128 231.837C606.952 231.895 606.77 231.939 606.62 232.048C606.43 232.183 606.332 232.556 606.613 232.662C606.803 232.731 607 232.698 607.197 232.673C607.358 232.651 607.515 232.611 607.664 232.549C607.854 232.786 608.066 233.001 608.325 233.122C608.534 233.22 608.764 232.936 608.72 232.742Z" fill="#D27771"/>
<path d="M586.679 284.184C586.504 284.243 572.738 292.937 571.325 305.688C569.915 305.98 568.502 304.279 568.385 303.983C568.268 303.691 572.384 285.01 586.679 283.304C586.796 283.48 586.679 284.184 586.679 284.184Z" fill="#ABC9D5"/>
<path d="M568.856 304.041C568.856 304.041 561.677 299.488 561.385 299.137C561.089 298.783 561.148 300.868 561.148 300.868C561.148 300.868 565.541 305.046 569.963 305.44C569.765 304.925 568.856 304.041 568.856 304.041Z" fill="#ABC9D5"/>
<path d="M588.636 254.089C588.56 253.877 598.094 256.984 598.094 256.984C598.094 256.984 591.503 262.301 588.636 254.089Z" fill="#D27771"/>
<mask id="mask20_195_452" style="mask-type:luminance" maskUnits="userSpaceOnUse" x="635" y="251" width="10" height="10">
<path d="M635.752 251.215H644.669V260.563H635.752V251.215Z" fill="white"/>
</mask>
<g mask="url(#mask20_195_452)">
<path d="M644.201 258.693C643.96 258.821 643.716 258.931 643.467 258.993C642.62 259.205 642.105 258.847 641.645 258.248C642.595 257.759 643.413 257.068 644.143 256.294C644.052 256.108 643.946 255.918 643.825 255.728C643.11 256.51 642.325 257.185 641.437 257.769C641.346 257.13 641.098 256.481 640.743 255.863C641.273 255.33 641.799 254.804 642.303 254.249C642.365 254.184 642.427 254.118 642.493 254.052C642.365 253.917 642.233 253.782 642.102 253.654C642.007 253.771 641.919 253.884 641.828 253.987C641.39 254.501 640.977 255.035 640.557 255.564C640.203 255.013 639.765 254.49 639.265 254.038C639.604 253.574 639.947 253.117 640.272 252.643C640.353 252.522 640.44 252.402 640.528 252.281C640.382 252.168 640.24 252.062 640.097 251.956C640.039 252.048 639.98 252.139 639.922 252.227C639.586 252.73 639.265 253.249 638.947 253.767C638.275 253.22 637.519 252.8 636.749 252.566C636.716 252.756 636.687 252.957 636.661 253.169C637.369 253.453 638.019 253.859 638.604 254.403C639.52 255.25 640.546 256.502 640.82 257.773C639.75 257.536 638.465 256.214 637.676 255.688C637.424 255.52 637.209 255.922 637.402 256.108C638.034 256.725 638.768 257.244 639.502 257.737C640.02 258.084 640.499 258.507 641.138 258.474C641.171 258.471 641.2 258.467 641.225 258.456C641.594 259.139 642.062 259.767 642.923 259.76C643.102 259.76 643.274 259.73 643.446 259.69C643.752 259.373 644.015 259.04 644.201 258.693Z" fill="#D27771"/>
</g>
<path d="M621.814 273.168C621.814 273.168 624.008 277.692 624.213 277.692C624.417 277.692 627.182 275.107 621.814 273.168Z" fill="#D27771"/>
<path d="M591.737 330.497C591.737 330.497 591.24 343.054 590.944 342.788C590.652 342.525 586.592 329.098 586.562 328.777C586.533 328.452 590.999 327.13 591.134 327.188C591.269 327.247 591.737 330.497 591.737 330.497Z" fill="#4989A6"/>
<mask id="mask21_195_452" style="mask-type:luminance" maskUnits="userSpaceOnUse" x="536" y="368" width="9" height="22">
<path d="M536 368.063H544.143V389.169H536V368.063Z" fill="white"/>
</mask>
<g mask="url(#mask21_195_452)">
<path d="M543.281 371.671C543.281 371.671 543.413 389.143 543.015 389.056C542.617 388.964 536 370.108 536.219 369.666C536.442 369.224 541.682 368.428 541.682 368.428L543.281 371.671Z" fill="#4989A6"/>
</g>
<path d="M157.646 360.952C157.646 361.095 165.716 367.978 165.716 367.839C165.716 367.697 168.104 360.952 168.104 360.952L163.321 358.331L157.646 360.952Z" fill="#F9AA80"/>
<path d="M22.6028 340.687L32.67 341.216L31.2021 349.742L21.9455 347.493L22.6028 340.687Z" fill="#F9AA80"/>
<path d="M95.1764 327.789C95.1764 327.789 70.0358 359.923 68.3488 361.234C66.6581 362.544 59.3405 360.861 57.9347 360.204C56.5289 359.547 31.1071 357.673 29.7013 357.111C28.2954 356.549 26.1374 340.906 25.9475 340.248C25.7613 339.595 50.712 341.749 54.557 344.09C54.2759 343.246 54.4658 342.498 54.8382 342.403C55.2143 342.311 58.4057 342.593 58.4057 342.593C58.4057 342.593 68.9001 310.836 78.6606 302.123C86.8254 300.903 95.1764 327.789 95.1764 327.789Z" fill="#DF6CBD"/>
<path d="M95.18 327.804C95.18 327.804 86.829 300.918 78.6643 302.134C77.1124 303.522 75.5422 305.49 73.9976 307.823C73.8005 315.177 73.2381 327.614 71.6351 332.861C69.2872 340.544 82.6079 338.485 82.1405 339.42C81.6731 340.354 69.572 346.821 67.7901 348.508C66.8663 349.381 73.7786 347.84 80.7201 346.149C87.7638 337.28 95.18 327.804 95.18 327.804Z" fill="#BC61A5"/>
<path d="M95.6439 327.384C95.5197 327.57 91.682 332.263 91.682 332.263C91.682 332.263 80.3222 321.388 77.6347 319.515C74.9435 317.642 95.6439 327.384 95.6439 327.384Z" fill="#A15790"/>
<path d="M94.3767 242.045C94.3767 242.045 99.6787 240.387 104.648 240.526C109.622 240.668 115.106 239.591 115.201 238.324C115.296 237.06 111.309 216.499 111.123 215.82C110.933 215.14 105.587 213.968 105.116 213.172C104.648 212.376 104.648 207.082 105.116 206.519C105.587 205.961 105.211 204.693 106.62 204.741C108.026 204.788 115.764 203.05 117.031 204.741C118.298 206.428 117.264 214.297 117.264 214.297C117.264 214.297 129.599 240.263 126.722 246.693C124.472 248.88 106.087 259.371 102.585 258.809C99.0835 258.246 94.3767 242.045 94.3767 242.045Z" fill="#F9AA80"/>
<path d="M58.8111 262.683C56.6859 262.869 43.179 265.991 40.612 265.243C42.2405 272.988 43.4894 287.415 44.6797 288.85C46.1148 288.539 51.1173 287.225 51.7454 288.412C52.3698 289.598 54.1225 296.719 53.4324 297.968C52.7459 299.216 42.3026 302.901 40.612 301.466C38.925 300.031 37.8624 291.037 37.8624 291.037C37.8624 291.037 23.7274 263.432 27.1671 257.75C30.7967 254 47.7434 247.694 51.1831 247.942C54.6228 248.194 58.8111 262.683 58.8111 262.683Z" fill="#F9AA80"/>
<path d="M78.6643 297.109C78.6643 297.109 73.6326 314.954 74.1328 317.452C74.6331 319.953 87.2015 324.2 92.142 328.009C97.0825 331.817 112.342 333.628 114.467 335.877C116.592 338.127 116.406 345.806 127.226 349.118C138.041 352.426 154.115 365.794 154.864 366.419C155.616 367.043 164.369 359.112 164.621 358.86C164.869 358.612 163.744 356.739 163.12 356.801C162.496 356.863 141.295 337.564 140.919 334.567C140.543 331.569 105.149 303.653 104.648 302.404C104.148 301.152 100.99 297.858 100.99 297.858C100.99 297.858 94.8295 296.065 78.6643 297.109Z" fill="#DF6CBD"/>
<path d="M79.7925 294.112C79.7925 294.112 79.0403 296.69 78.6642 297.109C78.2917 297.533 100.38 297.157 100.989 297.858C101.179 298.048 100.57 295.331 100.57 295.331L79.7925 294.112Z" fill="#353638"/>
<path d="M69.3566 241.979C69.3566 241.979 68.5351 242.019 68.316 242.045C68.0969 242.074 68.0677 242.76 67.9399 242.918C67.8157 243.071 60.593 239.894 58.1867 242.045C55.7767 244.196 56.5289 246.193 56.1528 246.321C55.7767 246.445 50.0256 247.507 49.2734 247.288C52.3078 252.316 56.6239 266.086 57.0912 268.022C58.5299 265.619 66.6582 265.305 67.0014 265.462C67.3483 265.619 71.8178 285.542 70.4119 287.696C69.0025 289.85 79.5115 292.096 78.1969 294.908C78.4781 295.47 100.332 296.219 100.617 296.219C100.898 296.219 102.68 293.783 102.68 292.943C102.68 292.096 102.867 266.711 98.178 261.745C100.241 261.182 105.116 261.463 105.116 260.715C105.116 259.966 95.4576 242.859 94.9866 241.296C94.5192 240.949 90.3893 243.586 87.7639 242.045C85.1384 240.508 77.1964 242.045 77.1964 242.045L69.3566 241.979Z" fill="#56A4C1"/>
<path d="M70.474 237.827L69.3566 241.979C69.3566 241.979 82.3231 245.444 82.5349 245.28C82.7467 245.116 82.5349 240.339 82.5349 240.339C82.5349 240.339 87.5995 241.439 88.4686 238.349C89.3376 235.257 87.8113 227.154 87.8113 227.154C87.8113 227.154 89.1478 226.358 89.5458 225.419C89.9438 224.485 85.8176 220.994 85.8176 220.994C85.8176 220.994 84.8572 213.57 81.5745 213.57C78.2918 213.57 66.0483 219.683 66.0483 223.524C66.0483 227.366 70.474 237.827 70.474 237.827Z" fill="#F9AA80"/>
<path d="M70.474 237.824C70.474 237.824 73.943 232.113 74.1 230.236C72.8183 230.455 70.8501 227.709 70.631 225.489C70.412 223.272 71.6316 221.618 72.6941 222.119C73.7567 222.619 74.571 224.773 74.6002 225.43C74.6331 226.084 76.6633 227.238 76.6633 226.803C76.6633 226.365 75.1005 220.245 75.1005 220.245C75.1005 220.245 76.3201 221.37 76.415 220.932C76.51 220.494 75.6628 216.59 75.6628 216.59C75.6628 216.59 83.2616 213.377 83.2324 212.939C83.1995 212.501 80.512 213.22 80.7603 213.158C81.0123 213.092 81.7608 211.219 81.7608 210.876C81.7608 210.532 74.7244 213.468 74.7572 213.377C74.7901 213.282 75.4766 212.157 75.4437 212.062C75.4145 211.971 65.0954 213.406 62.5941 222.151C59.8116 224.773 65.0004 233.205 70.474 237.824Z" fill="#914839"/>
<path d="M83.0862 216.05C82.4837 215.469 81.5161 216.112 80.9903 216.514C80.26 217.069 79.61 217.741 79.1061 218.507C78.6278 219.238 79.4932 219.964 80.0737 219.263C80.4864 218.763 80.9172 218.281 81.4175 217.861C81.6402 217.675 81.8776 217.489 82.1478 217.372C82.429 217.255 82.6919 217.262 82.9511 217.087C83.3053 216.842 83.4076 216.364 83.0862 216.05Z" fill="#914839"/>
<path d="M84.0101 223.126C83.9809 222.663 84.0064 222.13 83.7727 221.721C83.5902 221.403 83.0972 221.527 82.9475 221.801C82.6335 222.374 82.67 223.287 82.9438 223.868C83.0242 224.039 83.1629 224.193 83.3674 224.193C83.9042 224.185 84.0356 223.554 84.0101 223.126Z" fill="#38393B"/>
<path d="M84.4812 231.295C84.1891 232.489 83.7472 233.96 83.9225 235.194C84.0138 235.848 84.839 235.826 85.0326 235.238C85.4196 234.077 85.4452 232.737 85.6935 231.528C85.8578 230.736 84.6711 230.528 84.4812 231.295Z" fill="#B02E3B"/>
<path d="M74.7607 227.497C74.5818 226.844 74.0085 226.267 73.6105 225.723C73.1614 225.105 72.7086 224.492 72.2631 223.875C72.0148 223.528 71.5912 224.021 71.7848 224.328C72.1937 224.981 72.6136 225.624 73.0555 226.252C73.0774 226.285 73.0993 226.321 73.1249 226.358C73.1066 226.358 73.0883 226.362 73.0701 226.362C72.7195 226.369 72.3763 226.373 72.0513 226.508C71.8797 226.581 71.8176 226.906 71.9856 227.012C72.2777 227.194 72.6246 227.227 72.9605 227.278C73.249 227.318 73.5192 227.388 73.7894 227.34C73.9611 227.556 74.1473 227.746 74.3627 227.877C74.6147 228.03 74.8265 227.735 74.7607 227.497Z" fill="#D27771"/>
<path d="M82.5348 240.34C82.5348 240.34 76.2798 239.967 75.3195 233.924C73.5375 236.98 76.3601 242.728 82.5933 241.979C82.5969 242.103 82.5348 240.34 82.5348 240.34Z" fill="#D27771"/>
<path d="M78.1932 294.904C78.4743 295.466 100.329 296.215 100.61 296.215C100.895 296.215 102.677 293.779 102.677 292.936C102.677 292.852 102.677 292.516 102.677 291.979C95.5451 293.746 83.9151 295.462 83.9151 292.844C83.9151 289.189 75.0967 277.574 74.2532 278.136C73.4097 278.698 76.3163 287.597 73.5959 286.754C73.5521 285.512 71.7117 281.696 69.7217 277.84C70.5141 282.43 71.0216 286.75 70.4082 287.688C68.9987 289.846 79.5077 292.092 78.1932 294.904Z" fill="#4989A6"/>
<path d="M87.1357 248.811C93.5149 252.247 98.1742 261.741 98.1742 261.741C99.7079 261.325 102.79 261.372 104.276 261.117C103.232 259.419 101.891 257.732 100.581 257.494C97.831 256.994 94.4534 248.125 87.1357 248.811Z" fill="#4989A6"/>
<mask id="mask22_195_452" style="mask-type:luminance" maskUnits="userSpaceOnUse" x="0" y="333" width="25" height="25">
<path d="M0 333.836H24.2131V357.206H0V333.836Z" fill="white"/>
</mask>
<g mask="url(#mask22_195_452)">
<path d="M23.3222 340.5C23.3222 340.5 22.8219 346.868 22.8219 347.12C22.8219 347.369 22.884 353.459 22.1646 352.864C21.4453 352.273 19.2581 347.588 19.2581 347.588C19.2581 347.588 -0.00363111 358.144 0.434549 356.457C0.87273 354.77 17.257 334.128 18.8527 334.629C20.4448 335.129 23.3222 340.5 23.3222 340.5Z" fill="#353638"/>
</g>
<mask id="mask23_195_452" style="mask-type:luminance" maskUnits="userSpaceOnUse" x="164" y="349" width="22" height="27">
<path d="M164.431 349.728H185.788V375.902H164.431V349.728Z" fill="white"/>
</mask>
<g mask="url(#mask23_195_452)">
<path d="M164.916 367.744C164.683 367.558 167.447 359.922 167.447 359.922C167.447 359.922 166.932 356.362 167.447 356.267C167.965 356.176 169.605 359.502 169.747 359.36C169.89 359.218 185.412 349.103 185.599 350.228C185.788 351.349 171.343 376.175 170.496 375.565C169.652 374.959 164.916 367.744 164.916 367.744Z" fill="#353638"/>
</g>
<path d="M104.791 210.941C106.609 210.269 108.515 209.904 110.469 209.948C111.214 209.963 112.897 209.901 113.489 210.339C114.296 210.938 113.536 210.927 112.901 211.047C112.134 211.197 111.371 211.274 110.589 211.285C110.001 211.296 109.731 212.216 110.308 212.464C111.112 212.647 111.531 213.169 111.572 214.034C111.363 214.808 112.39 215.192 112.598 214.407C112.831 213.538 112.682 212.858 112.258 212.333C113.361 212.208 114.551 211.938 114.946 211.179C114.96 211.146 114.968 211.117 114.982 211.084C115.884 211.102 116.892 210.894 117.611 210.405C117.644 209.74 117.666 209.046 117.662 208.378C117.659 208.378 117.659 208.374 117.655 208.371C117.52 208.188 117.348 208.027 117.158 207.907C116.702 207.615 116.238 208.382 116.651 208.677C116.921 208.867 117.027 209.145 117.235 209.382C117.239 209.386 117.242 209.389 117.246 209.393C117.22 209.419 117.199 209.448 117.169 209.47C116.556 209.977 115.734 210.058 114.971 210.258C114.825 209.955 114.54 209.707 114.212 209.539C114.102 209.481 113.985 209.43 113.861 209.382C114.004 208.195 114.109 207.027 114.456 205.866C114.646 205.238 114.935 204.646 115.212 204.051C114.843 204.014 114.445 204 114.022 204.003C113.302 205.596 113.029 207.608 113.182 209.189C112.474 209.032 111.674 208.995 110.903 209.01C111.133 208.042 110.969 207.02 111.119 206.026C111.221 205.373 111.447 204.763 111.659 204.15C111.247 204.19 110.838 204.237 110.436 204.288C109.888 205.873 109.739 207.892 110.363 209.032C109.87 209.057 109.403 209.101 108.994 209.141C108.555 209.189 108.121 209.258 107.694 209.346C107.361 207.721 107.854 206.14 108.304 204.577C107.8 204.642 107.372 204.697 107.051 204.723C106.606 206.344 106.489 208.195 106.982 209.51C106.226 209.703 105.492 209.966 104.773 210.28C104.776 210.507 104.783 210.726 104.791 210.941Z" fill="#D27771"/>
<path d="M351.201 304.424C351.201 304.424 353.665 300.981 356.254 301.094C361.071 294.364 372.876 280.85 372.876 280.85C372.876 280.85 371.262 278.349 372.876 271.842C374.49 265.338 380.895 252.324 380.895 252.324C380.895 252.324 377.97 245.748 378.514 245.704C379.058 245.664 380.979 248.001 381.063 247.873C381.147 247.749 385.905 241.034 386.156 242.118C386.405 243.203 383.944 246.416 384.068 246.372C384.192 246.332 389.414 243.039 389.246 244.039C389.078 245.04 385.821 247.957 385.821 247.957C385.821 247.957 390.29 246.708 390.038 247.125C389.79 247.541 387.077 249.502 387.077 249.502C387.077 249.502 390.476 249.502 390.049 250.17C389.622 250.835 387.325 251.295 387.325 251.295L382.899 254.632C382.899 254.632 381.227 280.156 377.97 285.078C376.133 299.093 366.53 317.778 366.53 317.778L351.201 304.424Z" fill="#F9AA80"/>
<path d="M343.876 292.75C343.876 292.75 340.619 298.465 339.76 298.757C339.238 299.571 343.394 306.265 348.991 308.057C354.586 309.85 356.506 307.265 356.506 307.265C356.506 307.265 350.306 303.971 349.324 303.387C348.342 302.803 349.762 298.217 349.762 298.217C349.762 298.217 355.944 298.173 357.175 297.194C358.409 296.212 358.489 288.394 358.449 288.266C358.471 288.372 360.768 287.204 360.684 286.685C360.6 286.163 357.697 284.158 357.737 284.096C357.781 284.034 357.237 281.701 356.028 279.886C354.816 278.071 350.682 276.297 350.682 276.297C350.682 276.297 344.23 279.196 342.433 281.785C340.637 284.37 343.876 292.75 343.876 292.75Z" fill="#F9AA80"/>
<mask id="mask24_195_452" style="mask-type:luminance" maskUnits="userSpaceOnUse" x="438" y="374" width="14" height="19">
<path d="M438.041 374.679H451.96V392.44H438.041V374.679Z" fill="white"/>
</mask>
<g mask="url(#mask24_195_452)">
<path d="M439.293 384.651C439.293 384.651 451.942 373.971 451.942 374.723C451.942 375.471 443.591 391.794 442.952 391.71C442.309 391.629 438.468 385.845 438.468 385.845L439.293 384.651Z" fill="#56A4C1"/>
</g>
<path d="M293.142 392.794C293.142 392.794 289.483 388.347 288.983 388.347C288.479 388.347 284.305 405.615 284.013 407.283C283.721 408.952 288.508 414.207 288.577 413.706C288.647 413.206 288.062 409.16 288.062 409.032C288.062 408.908 293.423 394.894 293.81 394.518C294.201 394.145 293.142 392.794 293.142 392.794Z" fill="#56A4C1"/>
<path d="M354.498 382.676C354.498 382.676 345.037 394.131 332.509 399.469C331.954 399.579 330.895 401.079 330.004 401.247C329.113 401.415 305.951 393.853 293.81 394.518C293.2 394.076 292.977 392.849 293.142 392.794C293.31 392.739 306.338 386.455 314.693 386.733C323.044 387.01 331.063 391.293 331.063 391.293C331.063 391.293 340.918 375.669 343.31 373.887C345.705 372.108 354.498 382.676 354.498 382.676Z" fill="#F9AA80"/>
<path d="M363.747 372.163C363.747 372.163 392.7 363.378 395.369 362.655C396.096 362.932 398.378 364.269 398.378 364.269C398.378 364.269 398.1 372.218 405.896 376.611C413.689 381.007 438.19 385.345 438.468 385.842C438.745 386.346 439.414 384.732 439.414 384.732C439.414 384.732 405.896 363.1 403.611 360.208C402.333 357.039 398.601 356.148 398.601 356.148C398.601 356.148 390.64 348.363 369.593 350.809C365.306 353.424 363.747 372.163 363.747 372.163Z" fill="#F9AA80"/>
<path d="M359.57 378.115C359.57 378.115 356.09 382.563 355.506 382.785C355.477 382.815 355.031 384.063 354.838 384.147C354.64 384.231 350.854 384.038 346.457 380.339C342.057 376.64 339.523 371.663 339.523 371.163C339.523 370.662 342.977 372.415 343.2 371.634C343.423 370.856 343.116 369.771 343.923 369.83C344.73 369.885 344.759 370.023 344.759 369.384C344.759 368.745 345.176 366.963 346.928 365.601C348.685 364.239 359.57 378.115 359.57 378.115Z" fill="#D54180"/>
<path d="M338.063 298.406L339.761 298.757C339.761 298.757 350.076 308.934 356.506 307.265C364.189 310.935 367.03 315.342 368.366 319.063C369.703 322.78 370.703 338.215 370.203 340.716C369.703 343.218 366.698 351.142 366.698 351.142C366.698 351.142 351.496 354.979 351.077 354.479C350.66 353.979 352.165 350.893 352.165 350.893C352.165 350.893 350.029 332.994 339.279 323.883C340.473 312.271 338.063 298.406 338.063 298.406Z" fill="#DF6CBD"/>
<path d="M332.618 297.87C332.677 297.702 337.909 295.423 343.31 303.65C348.71 311.881 349.769 324.785 345.537 326.618C342.477 327.564 337.909 322.558 337.909 322.558L315.025 309.493C315.025 309.493 311.071 334.407 310.625 335.185C310.18 335.962 316.026 336.072 316.416 337.686C316.807 339.3 315.664 339.256 315.708 339.756C315.748 340.256 317.169 344.47 316.376 345.179C315.584 345.887 307.73 345.139 306.561 343.43C305.393 341.717 306.937 336.13 306.937 336.13C306.937 336.13 296.764 295.394 308.12 289.625C318.699 287.748 332.618 297.87 332.618 297.87Z" fill="#F9AA80"/>
<path d="M315.025 309.489C315.025 309.489 316.694 301.594 315.916 299.371C320.203 302.986 316.884 310.552 316.884 310.552L315.025 309.489Z" fill="#D27771"/>
<path d="M347.655 364.878C347.487 364.878 344.814 367.825 345.314 368.493C345.815 369.162 351.887 372.441 352.497 372.941C353.11 373.441 347.765 373.722 347.374 373.777C346.987 373.832 355.006 378.225 359.57 378.115C361.136 376.655 363.747 373.109 363.747 373.109L347.655 364.878Z" fill="#B3396C"/>
<path d="M350.66 353.756C350.828 353.756 369.688 350.031 370.334 350.309C369.425 352.81 368.312 373.722 368.757 374.945C368.925 376.169 365.693 374 365.248 374.445C364.802 374.887 364.025 376.669 362.853 375.946C361.684 375.223 360.57 374.222 359.734 374.222C358.902 374.222 348.656 371.217 346.483 365.714C344.314 360.208 350.66 353.756 350.66 353.756Z" fill="#D54180"/>
<path d="M334.882 320.83C334.882 320.83 343.755 326.286 345.595 324.504C347.432 322.725 342.532 311.771 339.914 309.379C343.7 318.446 334.882 320.83 334.882 320.83Z" fill="#D27771"/>
<path d="M346.673 284.202C346.673 284.202 348.634 287.434 348.907 287.08C349.178 286.725 348.141 281.679 348.141 281.679C348.141 281.679 348.907 282.826 349.178 282.471C349.451 282.117 349.284 279.448 349.43 278.988C349.576 278.531 352.705 278.239 352.665 277.965C352.625 277.695 350.952 277.443 351.434 277.133C351.913 276.819 355.086 275.442 355.067 275.256C355.046 275.066 351.935 274.61 351.935 274.61C351.935 274.61 353.227 272.919 353.103 272.795C352.979 272.671 348.615 273.127 346.965 275.172C342.831 275.318 338.508 278.926 337.569 282.639C336.631 286.349 339.198 286.769 339.198 286.769C339.198 286.769 343.624 293.189 343.894 292.896C344.168 292.604 344.354 290.874 344.354 290.874C344.354 290.874 345.044 291.604 345.19 291.418C345.336 291.231 346.841 287.624 346.841 287.624C346.841 287.624 344.398 287.726 343.938 285.349C343.478 282.972 345.566 282.658 346.673 284.202Z" fill="#353638"/>
<path d="M355.141 279.886C353.848 279.849 352.592 281.27 352.07 282.307C351.865 282.716 352.223 283.399 352.676 282.942C353.03 282.588 353.37 282.212 353.746 281.88C354.038 281.62 354.571 281.179 354.984 281.193C355.707 281.222 355.915 279.908 355.141 279.886Z" fill="#353638"/>
<path d="M354.432 284.71C354.184 284.666 353.903 284.845 353.841 285.097C353.709 285.615 353.618 286.207 353.906 286.689C354.009 286.857 354.239 286.893 354.403 286.824C354.604 286.74 354.717 286.557 354.754 286.346C354.819 285.999 354.75 285.634 354.794 285.279C354.823 285.031 354.691 284.757 354.432 284.71Z" fill="#353638"/>
<path d="M356.254 290.771C356.254 290.771 352.143 289.793 351.559 289.855C351.307 289.917 351.887 293.546 353.822 293.754C355.754 293.963 356.152 291.772 356.254 290.771Z" fill="white"/>
<path d="M347.239 285.977C346.6 285.363 345.771 284.826 344.931 284.538C344.672 284.45 344.464 284.874 344.686 285.027C345.073 285.297 345.46 285.568 345.844 285.838C345.705 285.871 345.57 285.915 345.439 285.969C345.227 286.061 345.296 286.422 345.537 286.389C345.837 286.349 346.136 286.313 346.435 286.305C346.45 286.302 346.461 286.298 346.472 286.294C346.596 286.386 346.724 286.473 346.848 286.568C347.191 286.827 347.509 286.236 347.239 285.977Z" fill="#D27771"/>
<path d="M369.057 322.05C365.843 323.605 362.663 325.23 359.548 326.961C355.572 329.174 351.683 331.562 347.998 334.235C347.772 334.399 347.542 334.564 347.308 334.728C347.44 334.994 347.56 335.257 347.684 335.524C348.539 334.925 349.404 334.337 350.273 333.76C353.815 331.412 357.481 329.262 361.22 327.25C363.857 325.833 366.533 324.493 369.232 323.193C369.173 322.795 369.115 322.415 369.057 322.05Z" fill="#FCF2AF"/>
<path d="M358.945 321.462C361.596 319.633 364.368 317.971 367.242 316.514C367.066 316.193 366.876 315.872 366.668 315.547C363.86 316.993 361.151 318.632 358.569 320.451C353.91 323.733 349.598 327.516 345.672 331.664C345.833 331.935 345.99 332.205 346.14 332.475C350.061 328.429 354.275 324.683 358.945 321.462Z" fill="#FCF2AF"/>
<path d="M351.909 362.461C352.457 359.273 353.304 356.137 354.341 353.062C354.063 353.117 353.793 353.168 353.538 353.215C352.468 356.432 351.595 359.708 350.81 363.034C350.748 363.297 350.963 363.619 351.241 363.622C356.93 363.67 362.619 363.571 368.308 363.732C368.545 363.739 368.783 363.75 369.02 363.757C369.046 363.323 369.071 362.885 369.097 362.45C368.885 362.443 368.673 362.439 368.465 362.432C362.955 362.286 357.416 362.191 351.909 362.461Z" fill="#FCF2AF"/>
<path d="M356.608 352.631C356.364 352.679 356.119 352.723 355.882 352.77C355.414 355.074 354.962 357.378 354.198 359.595C354.056 360.011 354.304 360.413 354.754 360.358C358.956 359.872 363.101 359.186 367.333 358.948C368.001 358.908 368.669 358.883 369.341 358.857C369.374 358.386 369.411 357.922 369.447 357.47C364.667 357.586 359.877 358.036 355.305 359.04C355.56 357.137 356.068 355.239 356.459 353.365C356.51 353.121 356.557 352.876 356.608 352.631Z" fill="#FCF2AF"/>
<path d="M347.819 291.527C347.834 291.49 347.593 296.256 353.165 296.701C346.706 298.841 346.819 294.824 347.819 291.527Z" fill="#D27771"/>
<mask id="mask25_195_452" style="mask-type:luminance" maskUnits="userSpaceOnUse" x="662" y="282" width="66" height="74">
<path d="M662.059 282.73H727.424V355.643H662.059V282.73Z" fill="white"/>
</mask>
<g mask="url(#mask25_195_452)">
<path d="M681.149 283.559C681.149 283.559 683.402 287.722 683.599 290.041C684.059 290.826 685.724 292.878 686.082 293.63C686.44 294.379 684.22 295.814 684.22 295.814C684.22 295.814 684.318 301.353 682.032 303.668C681.379 304.19 675.989 303.08 675.989 303.08C675.989 303.08 674.875 306.765 674.974 309.24C675.073 311.716 677.556 315.824 678.636 317.146C679.714 318.464 681.087 320.713 681.821 324.186C682.555 327.655 688.729 344.083 690.004 345.208C691.278 346.332 712.986 344.28 714.845 343.594C716.707 342.911 721.56 336.163 722.392 336.115C723.225 336.064 727.391 342.469 726.508 343.984C725.628 345.5 716.758 347.603 716.608 347.504C716.462 347.41 695.101 356.695 685.103 354.446C683.142 353.96 673.539 340.76 673.05 338.606C672.56 336.455 662.563 303.993 662.563 303.993C662.563 303.993 664.571 286.933 664.841 286.517C665.111 286.101 681.149 283.559 681.149 283.559Z" fill="#F9AA80"/>
</g>
<path d="M664.841 352.05C664.841 352.05 662.906 354.767 662.146 355.476C661.387 356.184 648.154 344.769 648.154 344.769C648.154 344.769 649.819 340.734 649.698 340.223C649.578 339.708 664.841 352.05 664.841 352.05Z" fill="#F9AA80"/>
<path d="M676.942 284.096C676.723 284.534 674.419 285.929 675.401 287.543C676.38 289.157 673.513 291.552 673.488 291.651C672.509 289.011 670.059 286.908 668.931 290.11C667.806 293.312 672.02 295.364 672.801 295.437C673.586 295.51 670.99 303.799 669.029 303.263C667.072 302.722 666.725 306.147 664.52 307.221C662.318 308.298 656.797 307.221 656.545 304.679C656.388 303.507 650.604 303.748 650.556 301.598C650.505 299.447 645.116 300.181 645.068 299.838C645.021 299.498 648.059 296.171 650.947 297.639C653.839 299.104 653.204 293.824 656.092 293.63C658.984 293.433 660.112 291.527 660.112 290.694C660.112 289.865 659.619 287.072 659.619 287.072C659.619 287.072 657.954 278.246 662.431 276.877C666.908 275.508 667.623 276.877 668.832 274.858C670.044 272.835 674.941 275.051 676.248 274.858C677.556 274.66 679.155 275.77 679.253 278.637C679.352 281.503 676.942 284.096 676.942 284.096Z" fill="#82414A"/>
<path d="M670.599 420.202C670.599 420.202 683.862 434.465 692.355 438.96C692.224 439.091 692.355 440.654 692.355 440.654C692.355 440.654 701.761 440.851 701.568 440.654C701.371 440.461 693.922 438.179 693.399 437.656C692.877 437.134 682.898 417.515 682.898 417.515C682.898 417.515 673.473 418.201 670.599 420.202Z" fill="#F9AA80"/>
<path d="M615.619 406.173C615.619 406.173 598.176 411.453 593.177 415.561C593.52 415.51 592.688 420.202 592.688 420.202L596.361 417.025C596.361 417.025 618.361 417.569 618.657 417.613C618.953 417.657 621.107 407.688 615.619 406.173Z" fill="#F9AA80"/>
<path d="M653.839 321.739L653.96 320.545C653.96 320.545 636.589 316.949 635.023 317.047C633.453 317.146 616.305 340.271 615.666 341.1C615.031 341.932 614.713 345.182 614.246 347.603C613.782 350.024 610.131 356.232 609.419 357.944C609.247 358.017 609.641 355.107 609.641 355.107C609.641 355.107 605.844 360.193 605.522 359.752C605.205 359.313 607.878 354.45 607.878 354.45C607.878 354.45 602.755 357.455 602.78 356.94C602.806 356.429 605.745 352.69 605.745 352.69C605.745 352.69 601.652 354.497 601.652 353.887C601.652 353.274 605.059 350.586 604.986 350.586C604.913 350.586 600.283 351.441 600.476 351.05C600.673 350.659 605.329 348.899 605.329 348.899C605.329 348.899 610.865 341.688 612.019 341.151C612.311 336.652 622.969 310.84 626.741 308.981C630.513 307.122 657.662 303.993 663.151 305.998C668.851 307.32 678.045 326.139 672.999 332.887C667.952 339.635 653.839 321.739 653.839 321.739Z" fill="#F9AA80"/>
<path d="M653.839 321.739C653.839 321.739 669.175 332.69 671.184 330.638C673.196 328.586 670.158 308.247 663.151 305.998C663.297 305.753 667.952 308.346 667.952 308.346C667.952 308.346 671.184 314.75 674.47 318.124C677.753 321.498 676.234 326.337 677.41 326.534C678.585 326.727 680.104 326.139 680.104 326.139C680.104 326.139 681.28 333.231 680.104 337.09C678.929 340.954 675.303 341.688 675.303 341.688C675.303 341.688 664.67 351.809 664.67 352.784C660.649 348.629 646.587 341.052 645.364 337.923C646.635 337.58 647.029 337.97 647.223 337.485C647.42 336.995 652.861 326.139 652.959 325.504C653.054 324.869 653.839 321.739 653.839 321.739Z" fill="#D54180"/>
<path d="M648.154 344.766C648.154 344.766 661.241 351.148 662.61 355.008C662.661 355.939 659.868 357.575 659.868 357.575C659.868 357.575 657.074 362.417 656.435 362.464C659.083 366.62 673.736 382.902 673.831 398.936C675.792 401.674 676.478 405.392 676.478 405.392C676.478 405.392 682.262 416.587 682.898 417.515C676.526 419.618 670.6 420.202 670.6 420.202C670.6 420.202 661.387 412.724 665.747 402.898C657.761 397.227 646.931 389.256 646.931 389.256C646.931 389.256 641.391 416.832 637.962 418.395C634.534 419.957 618.657 417.613 618.657 417.613C618.657 417.613 614.246 410.573 615.619 406.173C619.88 404.512 627.672 407.283 627.672 407.283C627.672 407.283 622.772 379.09 626.887 366.277C628.26 356.892 642.961 348.384 645.802 348.191C646.197 347.212 648.154 344.766 648.154 344.766Z" fill="#353638"/>
<path d="M646.931 389.256C646.931 389.256 633.617 381.401 629.765 374.624C628.001 388.248 645.853 394.313 645.853 394.313L646.931 389.256Z" fill="#242526"/>
<mask id="mask26_195_452" style="mask-type:luminance" maskUnits="userSpaceOnUse" x="583" y="411" width="12" height="22">
<path d="M583 411.73H594.754V432.296H583V411.73Z" fill="white"/>
</mask>
<g mask="url(#mask26_195_452)">
<path d="M592.687 420.202C592.687 420.202 583.522 432.278 583.278 431.693C583.033 431.105 587.637 412.527 587.981 412.282C588.324 412.041 593.984 414.959 593.984 414.959L592.687 420.202Z" fill="#353638"/>
</g>
<mask id="mask27_195_452" style="mask-type:luminance" maskUnits="userSpaceOnUse" x="691" y="439" width="22" height="7">
<path d="M691.972 439.774H712.537V446H691.972V439.774Z" fill="white"/>
</mask>
<g mask="url(#mask27_195_452)">
<path d="M692.355 440.654C692.355 440.654 691.997 445.544 692.355 445.774C692.713 446 712.216 445.087 712.282 444.306C712.347 443.524 701.374 440.567 701.374 440.567L692.355 440.654Z" fill="#353638"/>
</g>
<path d="M672.688 409.182C671.881 406.48 671.111 403.738 669.712 401.269C668.814 399.677 667.631 398.293 666.882 396.617C666.251 395.204 665.864 393.7 665.378 392.235C663.476 386.495 659.945 381.577 656.457 376.709C654.471 373.934 652.492 371.155 650.495 368.387C649.14 366.507 647.76 364.743 645.729 363.622C649.406 358.981 652.956 354.216 656.089 349.195C655.899 349.075 655.709 348.954 655.515 348.837C652.123 353.865 648.618 358.798 644.685 363.436C644.448 363.721 644.4 364.159 644.78 364.341C647.672 365.758 649.381 368.698 651.192 371.221C653.091 373.872 654.997 376.516 656.888 379.17C658.615 381.595 660.328 384.041 661.785 386.634C663.34 389.398 664.319 392.257 665.349 395.237C666.353 398.132 668.266 400.349 669.541 403.091C670.83 405.863 671.556 408.893 672.393 411.822C673.214 414.685 674.39 416.832 675.474 419.439C675.836 419.366 676.208 419.289 676.595 419.209C675.504 416.058 673.579 412.147 672.688 409.182Z" fill="#FCF2AF"/>
<path d="M677.643 414.743C676.226 412.041 674.55 409.313 673.762 406.345C673.13 403.971 673.462 401.546 671.596 399.692C669.153 397.267 668.748 394.397 667.623 391.271C665.571 385.571 662.468 380.317 659.203 375.237C656.512 371.053 653.883 365.984 649.483 363.333C652.404 359.105 655.471 354.972 658.414 350.754C658.203 350.604 657.987 350.451 657.768 350.301C654.631 354.595 651.623 358.981 648.457 363.25C648.318 363.436 648.307 363.815 648.526 363.954C653.368 366.959 656.249 372.418 659.214 377.114C662.519 382.347 665.571 387.802 667.379 393.751C668.095 396.098 668.602 398.286 670.315 400.126C671.509 401.408 672.002 402.503 672.232 404.26C672.418 405.647 672.652 406.943 673.126 408.269C674.171 411.19 675.821 413.929 677.245 416.678C677.603 417.368 677.95 418.091 678.297 418.822C678.757 418.709 679.232 418.588 679.714 418.46C679.005 417.204 678.282 415.963 677.643 414.743Z" fill="#FCF2AF"/>
<path d="M653.963 320.542C653.963 320.542 658.707 321.429 659.097 322.459C659.492 323.485 655.373 323.923 653.963 320.542Z" fill="#D27771"/>
<path d="M681.379 283.625C681.379 283.625 662.04 292.129 659.492 291.87C659.229 291.151 659.685 288.317 659.229 287.503C658.772 286.685 678.732 278.016 679.517 278.473C680.302 278.929 682.179 283.274 681.379 283.625Z" fill="#D54180"/>
<path d="M679.801 285.768C679.213 286.239 678.417 287.01 678.651 287.82C678.724 288.076 678.987 288.164 679.221 288.131C679.721 288.058 680.009 287.404 680.364 287.083C680.751 286.736 681.207 286.491 681.7 286.342C681.992 286.25 682.284 285.94 682.288 285.619C682.299 284.11 680.302 285.37 679.801 285.768Z" fill="#82414A"/>
<path d="M681.357 290.603C681.32 290.249 680.999 289.968 680.638 290.059C680.232 290.161 680.075 290.563 680.075 290.935C680.075 291.414 680.061 291.947 680.313 292.37C680.586 292.83 681.167 292.483 681.313 292.122C681.496 291.662 681.412 291.085 681.357 290.603Z" fill="#353638"/>
<path d="M682.186 298.709C681.674 299.148 681.393 300.035 681.386 300.692C681.382 301.046 681.536 301.444 681.948 301.459C682.357 301.474 682.627 301.101 682.69 300.74C682.733 300.502 682.755 300.261 682.832 300.031C682.927 299.757 683.036 299.494 683.098 299.206C683.212 298.651 682.58 298.37 682.186 298.709Z" fill="#B02E3B"/>
<path d="M679.451 326.775C679.451 326.775 677.935 316.123 676.504 313.757C676.577 313.414 677.548 315.042 677.979 315.597C678.406 316.152 681.149 324.073 679.451 326.775Z" fill="#D54180"/>
<path d="M672.126 291.863C671.538 291.501 670.921 291.176 670.319 290.848C670.015 290.687 669.712 291.238 669.921 291.454C670.249 291.804 670.629 292.071 671.023 292.33C670.892 292.388 670.764 292.447 670.636 292.505C670.329 292.644 670.413 293.203 670.782 293.133C671.162 293.068 671.531 293.006 671.9 292.903C672.057 293.006 672.21 293.111 672.36 293.217C672.601 293.389 672.692 293.524 673.006 293.462C673.119 293.436 673.2 293.312 673.218 293.199C673.295 292.608 672.572 292.14 672.126 291.863Z" fill="#D27771"/>
<path d="M891.51 349.237C891.51 349.237 887.347 366.29 885.028 370.354C883.506 371.705 876.962 377.445 876.962 377.445L869.816 369.397C869.816 369.397 875.819 365.811 876.542 363.818C877.262 361.828 876.962 350.672 876.962 350.672L891.51 349.237Z" fill="#F9AA80"/>
<mask id="mask28_195_452" style="mask-type:luminance" maskUnits="userSpaceOnUse" x="889" y="306" width="37" height="23">
<path d="M889.983 306.073H925.374V328.508H889.983V306.073Z" fill="white"/>
</mask>
<g mask="url(#mask28_195_452)">
<path d="M890.308 328.201L908.643 319.675V320.471L918.085 326.682C918.085 326.682 925.213 311.788 925.29 310.67C925.37 309.557 920.488 306.69 918.407 306.53C916.325 306.369 897.356 309.98 895.994 310.327C894.632 310.67 890.308 328.201 890.308 328.201Z" fill="#F9AA80"/>
</g>
<path d="M871.335 316.436C871.335 316.436 871.335 330.458 874.381 332.371C877.422 334.285 874.275 351.282 874.381 351.972C874.486 352.663 893.43 350.965 893.43 350.965C894.5 348.043 893.964 333.7 893.964 333.7C893.964 333.7 898.287 333.116 898.663 333.54C899.036 333.967 899.996 309.257 899.996 308.943C899.996 308.625 891.028 311.072 891.028 311.072C891.028 311.072 892.149 309.104 889.856 308.625C887.563 308.151 876.301 308.892 871.335 316.436Z" fill="#D54180"/>
<path d="M871.204 315.64L871.364 317.951C871.364 317.951 876.889 314.154 880.997 313.46C885.105 312.77 891.028 311.072 891.028 311.072C891.028 311.072 892.284 309.184 890.71 307.245C889.136 305.306 871.204 315.64 871.204 315.64Z" fill="#B3396C"/>
<path d="M857.971 283.098C857.7 283.098 840.958 280.213 840.422 280.049C839.881 279.884 840.239 300.742 840.422 301.359C840.6 301.98 846.315 303.502 846.359 304.328C846.406 305.153 844.066 310.017 842.941 310.181C841.816 310.345 835.561 310.51 834.974 309.849C834.389 309.191 834.974 302.721 834.974 302.721C834.974 302.721 827.221 271.869 829.379 269.638C831.541 267.411 854.819 270.982 854.819 270.982L857.971 283.098Z" fill="#F9AA80"/>
<path d="M887.508 270.752C887.628 270.752 902.077 269.613 902.077 269.613C902.077 269.613 899.233 253.144 898.915 252.546C898.594 251.95 894.351 251.801 893.993 251.217C893.631 250.632 892.55 244.282 893.591 244.111C894.632 243.939 902.117 244.417 902.479 245.137C902.837 245.852 903.279 251.217 903.279 251.217C903.279 251.217 912.645 275.134 911.922 276.529C911.202 277.924 890.911 281.75 890.911 281.75L887.508 270.752Z" fill="#F9AA80"/>
<path d="M867.377 271.471C867.377 271.471 864.894 270.752 864.573 271.369C860.611 271.212 852.205 269.536 851.843 269.616C851.526 269.697 851.219 283.609 850.47 284.777C852.713 285.467 860.877 285.679 861.465 286.052C862.053 286.424 868.775 311.813 868.242 312.982C867.709 314.154 870.269 317.181 870.269 317.181C870.269 317.181 875.02 316.33 878.755 312.876C882.491 309.425 889.483 308.625 889.856 308.625C890.228 308.625 894.657 303.689 894.818 303.21C894.979 302.732 890.283 301.242 890.655 298.427C891.028 295.611 886.869 286.581 886.547 285.256C886.226 283.927 893.27 284.032 893.27 284.032C893.27 284.032 889.91 270.646 889.75 270.434C889.589 270.222 880.731 271.23 880.037 271.124C879.343 271.018 871.923 271.23 871.923 271.23L867.377 271.471Z" fill="#56A4C1"/>
<path d="M867.443 268.495C867.443 268.495 867.121 271.895 866.935 271.946C866.749 272.001 869.122 273.994 873.179 274.816C877.236 275.641 876.754 273.436 874.884 272.399C875.1 271.311 875.582 268.868 875.582 268.868C875.582 268.868 881.37 268.123 882.491 265.6C883.612 263.076 883.542 253.988 881.903 250.377C880.263 246.769 878.514 246.159 878.514 246.159C878.514 246.159 870.817 245.571 865.014 250.672C859.209 255.773 864.532 262.985 864.532 262.985L867.443 268.495Z" fill="#F9AA80"/>
<path d="M865.854 257.924C865.854 257.924 868.031 258.695 868.217 258.56C868.403 258.428 867.523 256.942 867.523 256.942C867.523 256.942 868.564 257.048 868.67 256.595C868.776 256.146 867.264 253.886 867.264 253.886C867.264 253.886 868.856 254.419 869.765 253.754C870.671 253.09 870.057 249.796 870.057 249.796C870.057 249.796 872.993 249 874.512 247.857C876.035 246.714 878.514 246.159 878.514 246.159C878.514 246.159 876.623 242.573 870.002 244.644C863.386 246.714 860.344 250.965 860.797 255.083C861.253 259.199 867.096 268.36 867.443 268.495C868.162 268.441 868.724 263.394 868.348 261.616C867.79 262.04 863.999 262.547 863.547 260.155C863.094 257.764 865.854 257.924 865.854 257.924Z" fill="#353638"/>
<path d="M878.087 250.249C876.696 249.811 874.684 250.537 873.446 251.176C872.953 251.428 873.073 252.535 873.709 252.283C874.388 252.009 875.067 251.757 875.786 251.596C876.502 251.439 877.269 251.498 877.959 251.282C878.364 251.158 878.598 250.406 878.087 250.249Z" fill="#353638"/>
<path d="M881.954 249.442C881.789 249.351 881.654 249.31 881.468 249.325C881.351 249.336 881.238 249.358 881.128 249.402C880.84 249.508 880.628 249.668 880.468 249.927C880.227 250.315 880.5 250.826 880.971 250.629C880.917 250.65 881.081 250.603 881.099 250.596C881.161 250.574 881.22 250.552 881.282 250.534C881.304 250.53 881.322 250.526 881.34 250.523C881.337 250.526 881.351 250.526 881.395 250.523C881.497 250.526 881.6 250.519 881.698 250.49C881.917 250.42 882.071 250.245 882.122 250.022C882.166 249.843 882.14 249.544 881.954 249.442Z" fill="#353638"/>
<path d="M882.115 256.982C881.844 256.263 881.213 255.573 880.793 254.93C880.208 254.035 879.617 253.148 878.989 252.283C878.781 251.994 878.43 252.407 878.587 252.662C879.15 253.579 879.737 254.477 880.314 255.383C880.548 255.755 880.858 256.157 881.048 256.551C881.487 257.453 881.256 257.811 880.439 258.268C879.891 258.571 880.165 259.604 880.807 259.257C881.636 258.815 882.498 258.005 882.115 256.982Z" fill="#D27771"/>
<path d="M875.925 256.073C875.841 255.606 875.618 255.153 875.421 254.722C875.162 254.167 874.41 254.55 874.505 255.091C874.596 255.587 874.727 256.168 875.034 256.581C875.374 257.03 876.013 256.544 875.925 256.073Z" fill="#353638"/>
<path d="M881.121 260.846C880.979 260.773 877.463 261.601 876.247 262.638C876.115 262.89 877.861 264.683 879.716 264.044C881.57 263.409 881.483 261.032 881.121 260.846Z" fill="white"/>
<path d="M882.918 254.707C882.83 254.24 882.611 253.783 882.414 253.356C882.155 252.798 881.399 253.188 881.497 253.725C881.589 254.222 881.72 254.802 882.027 255.215C882.366 255.664 883.005 255.175 882.918 254.707Z" fill="#353638"/>
<path d="M867.709 259.995C867.019 259.348 865.668 259.096 864.755 259.235C864.474 259.279 864.5 259.75 864.752 259.757C864.752 259.757 864.752 259.757 864.752 259.761C865.182 259.765 865.588 259.805 865.997 259.903C865.847 260.097 865.719 260.309 865.613 260.535C865.496 260.787 865.858 261.006 866.004 260.747C866.114 260.553 866.241 260.371 866.391 260.203C866.435 260.155 866.482 260.108 866.53 260.064C866.873 260.188 867.205 260.338 867.578 260.349C867.76 260.356 867.83 260.104 867.709 259.995Z" fill="#D27771"/>
<path d="M893.967 333.7C893.967 333.7 877.342 333.262 876.98 333.339C876.623 333.423 881.786 334.894 884.346 335.252C886.909 335.61 880.303 337.286 879.982 337.483C879.664 337.684 894.073 337.962 894.073 337.962L893.967 333.7Z" fill="#B3396C"/>
<path d="M908.643 320.471C908.643 320.471 911.721 315.812 914.606 314.256C909.921 312.784 908.121 318.678 908.643 320.471Z" fill="#D27771"/>
<path d="M893.518 249.252C894.793 248.974 896.038 248.551 897.363 248.503C897.619 248.496 898.229 248.401 898.422 248.562C899.218 249.226 897.951 249.854 897.597 250.066C896.976 250.435 896.341 250.745 895.789 251.213C895.673 251.311 895.72 251.582 895.91 251.53C896.534 251.359 898.787 250.366 899.255 249.314C900.281 249.537 901.588 249.869 902.044 248.814C902.395 248.007 902.504 246.977 902.691 246.126C902.698 246.108 902.702 246.086 902.705 246.068C902.629 245.622 902.556 245.283 902.479 245.14C902.464 245.104 902.424 245.067 902.377 245.034C902.285 245.484 902.201 245.929 902.106 246.367C901.928 247.218 901.917 248.04 901.23 248.602C900.752 248.989 900.266 248.993 899.733 248.96C899.905 247.919 900.036 246.886 900.35 245.867C900.485 245.432 900.66 245.02 900.843 244.611C900.646 244.574 900.438 244.541 900.222 244.512C899.594 245.893 899.298 247.539 899.379 248.942C899.364 248.942 899.35 248.938 899.335 248.938C899.335 248.708 899.229 248.481 898.981 248.262C898.681 247.996 898.243 247.934 897.801 247.945C897.768 246.816 897.849 245.768 898.17 244.677C898.21 244.545 898.254 244.421 898.298 244.293C898.104 244.275 897.907 244.26 897.71 244.242C897.323 245.469 897.151 246.783 897.385 247.97C897.148 247.992 896.918 248.025 896.724 248.051C896.293 248.102 895.848 248.16 895.406 248.24C895.49 246.816 895.731 245.498 896.041 244.132C895.826 244.118 895.621 244.111 895.424 244.103C894.931 245.436 894.785 246.951 894.964 248.328C894.442 248.441 893.927 248.591 893.441 248.788C893.463 248.945 893.493 249.099 893.518 249.252Z" fill="#D27771"/>
<path d="M869.816 369.397C869.816 369.397 863.652 374.177 861.093 377.445C858.529 380.71 850.31 393.194 849.937 393.567C849.565 393.939 851.274 397.923 851.431 397.923C851.592 397.923 876.962 377.445 876.962 377.445C876.962 377.445 872.617 370.617 869.816 369.397Z" fill="#56A4C1"/>
<path d="M908.643 320.471C908.643 320.471 904.746 328.654 903.249 343.048C903.249 343.421 905.948 346.448 905.948 346.448C905.948 346.448 918.034 327.318 918.085 326.682C918.14 326.05 908.643 320.471 908.643 320.471Z" fill="#56A4C1"/>
<path d="M905.948 346.448C905.948 346.448 909.121 346.795 908.909 347.43C908.694 348.069 906.985 348.094 906.985 348.094C906.985 348.094 906.985 365.092 906.506 364.723C906.024 364.351 898.126 345.597 897.914 345.173C897.699 344.75 903.249 343.048 903.249 343.048L905.948 346.448Z" fill="#B3396C"/>
<path d="M851.486 397.561C851.486 397.561 855.488 400.472 854.929 400.829C854.367 401.187 851.486 400.231 851.486 400.231C851.486 400.231 848.962 415.731 848.605 415.33C848.243 414.932 842.682 395.531 842.879 395.294C843.08 395.053 849.937 393.567 849.937 393.567L851.486 397.561Z" fill="#B3396C"/>
</svg>
