<svg width="856" height="361" viewBox="0 0 856 361" fill="none" xmlns="http://www.w3.org/2000/svg">
<mask id="mask0_193_455" style="mask-type:luminance" maskUnits="userSpaceOnUse" x="285" y="0" width="286" height="361">
<path d="M285.441 0.497803H570.441V360.498H285.441V0.497803Z" fill="white"/>
</mask>
<g mask="url(#mask0_193_455)">
<path d="M285.441 0.497803H570.441V360.445H285.441V0.497803Z" fill="#D9F9F6"/>
</g>
<mask id="mask1_193_455" style="mask-type:alpha" maskUnits="userSpaceOnUse" x="285" y="110" width="286" height="251">
<mask id="mask2_193_455" style="mask-type:luminance" maskUnits="userSpaceOnUse" x="285" y="110" width="286" height="251">
<path d="M285.441 110.498H570.441V360.498H285.441V110.498Z" fill="white"/>
</mask>
<g mask="url(#mask2_193_455)">
<path d="M285.441 110.498H570.441V360.461H285.441V110.498Z" fill="#D9F9F6"/>
</g>
</mask>
<g mask="url(#mask1_193_455)">
<path fill-rule="evenodd" clip-rule="evenodd" d="M379.994 150.937C379.985 150.592 380.02 150.252 380.1 149.917C380.736 146.259 383.559 143.656 386.664 141.897C391.711 139.084 399.016 137.255 404.556 139.647C409.003 141.616 410.415 145.872 409.815 150.128C410.295 149.832 410.789 149.562 411.297 149.319C414.861 147.525 419.52 146.927 423.049 149.143C426.084 151.042 425.625 153.75 423.896 155.79C426.508 155.474 429.472 155.685 431.554 156.951C432.86 157.76 435.401 160.187 433.495 161.664C432.365 162.508 430.743 162.789 429.401 163.001C426.154 163.493 422.837 163.458 419.555 163.493C406.145 163.599 392.77 162.965 379.359 162.965C377.347 162.965 371.842 162.965 368.243 162.754C367.085 162.785 365.932 162.726 364.784 162.578C363.754 162.456 362.742 162.244 361.749 161.945C359.279 161.136 358.326 158.674 360.69 156.986C362.525 155.685 364.855 155.404 367.043 155.825C367.865 155.967 368.665 156.19 369.442 156.494C369.442 156.388 369.478 156.248 369.478 156.142C369.582 155.704 369.725 155.279 369.906 154.867C370.088 154.455 370.306 154.063 370.559 153.691C370.812 153.318 371.097 152.971 371.413 152.65C371.73 152.33 372.073 152.039 372.442 151.781C374.507 150.339 377.489 150.092 379.994 150.937Z" fill="white"/>
<path fill-rule="evenodd" clip-rule="evenodd" d="M360.722 161.668C360.758 161.091 361.145 160.511 361.993 159.997C362.446 159.73 362.919 159.503 363.411 159.317C363.904 159.13 364.409 158.986 364.926 158.885C365.443 158.784 365.964 158.728 366.491 158.716C367.017 158.703 367.542 158.735 368.063 158.811C368.81 158.936 369.547 159.108 370.272 159.329C370.272 159.237 370.307 159.146 370.307 159.055C370.59 157.746 371.684 156.624 372.954 155.889C374.824 154.799 377.613 154.482 379.942 155.161C379.942 154.885 379.965 154.613 380.012 154.341C380.612 151.486 383.294 149.541 386.223 148.173C390.952 145.956 397.799 144.528 402.986 146.413C407.151 147.933 408.491 151.155 407.962 154.503C408.456 154.261 408.95 154.05 409.374 153.866C412.726 152.46 417.032 152.133 420.349 153.866C423.172 155.354 422.749 157.482 421.161 159.121C423.596 158.879 426.384 159.03 428.325 160.032C429.278 160.517 430.971 161.826 430.76 162.92C430.301 163.011 429.877 163.039 429.454 163.102C426.208 163.528 422.89 163.497 419.608 163.528C406.198 163.619 392.822 163.071 379.412 163.071C377.4 163.071 371.895 163.071 368.295 162.888C367.139 162.916 365.987 162.865 364.837 162.737C363.812 162.627 362.8 162.444 361.802 162.185C361.432 162.032 361.072 161.86 360.722 161.668Z" fill="#CFF0E3" fill-opacity="0.2392"/>
<path d="M359.697 251.841C352.582 254.623 335.593 250.91 330.952 250.064C325.084 248.993 319.216 247.906 313.362 246.74C298.667 243.814 284.084 240.242 269.655 236.143C260.134 233.438 250.684 230.492 241.328 227.297C235.125 225.179 229.035 222.942 222.819 220.855C216.919 218.872 208.041 213.635 214.876 208.599C216.104 207.693 217.636 207.116 219.269 206.787C216.189 204.398 215.467 200.165 217.72 197.582C219.119 195.972 221.551 195.149 224.026 195.225C221.978 187.823 225.923 179.978 233.295 176.385C241.223 172.517 252.333 173.538 260.523 178.422C267.623 182.652 272.41 189.481 273.818 196.485C278.215 196.404 282.714 197.014 286.83 198.687C292.066 200.809 296.583 204.825 297.903 209.51C298.569 211.889 298.268 214.391 297.146 216.489C301.449 216.667 305.764 217.099 309.997 218.08C315.873 219.444 321.638 221.942 325.911 225.793C329.109 228.675 331.38 232.376 331.993 236.105C340.137 236.01 348.511 237.628 356.133 240.811C358.883 241.96 361.813 243.604 362.569 246.067C363.488 249.071 362.207 250.86 359.697 251.841Z" fill="white"/>
<path d="M503.229 212.737C509.962 215.556 525.735 211.986 530.049 211.179C535.503 210.156 540.957 209.117 546.396 207.999C560.047 205.195 573.575 201.747 586.943 197.775C595.764 195.153 604.512 192.291 613.165 189.181C618.901 187.119 624.528 184.937 630.278 182.906C635.735 180.977 643.88 175.831 637.342 170.773C636.167 169.862 634.718 169.277 633.181 168.938C635.991 166.584 636.54 162.378 634.358 159.792C633.003 158.18 630.705 157.344 628.393 157.402C630.09 150.053 626.17 142.221 619.172 138.593C611.646 134.688 601.29 135.623 593.777 140.422C587.265 144.579 582.991 151.337 581.882 158.294C577.768 158.181 573.581 158.756 569.782 160.39C564.95 162.463 560.845 166.425 559.749 171.076C559.197 173.437 559.552 175.929 560.663 178.024C556.645 178.17 552.624 178.568 548.696 179.513C543.242 180.828 537.927 183.271 534.046 187.071C531.141 189.914 529.127 193.579 528.664 197.285C521.047 197.131 513.267 198.68 506.234 201.79C503.698 202.913 501.007 204.529 500.373 206.973C499.603 209.954 500.853 211.743 503.229 212.737Z" fill="white"/>
</g>
<path d="M477.682 260.633C477.682 288.005 455.414 310.19 427.942 310.19C400.467 310.19 378.199 288.005 378.199 260.633C378.199 233.263 400.467 211.039 427.942 211.039C455.414 211.039 477.682 233.224 477.682 260.633Z" fill="#F2EDB6"/>
<mask id="mask3_193_455" style="mask-type:luminance" maskUnits="userSpaceOnUse" x="285" y="244" width="286" height="117">
<path d="M285.441 244.235H570.441V360.498H285.441V244.235Z" fill="white"/>
</mask>
<g mask="url(#mask3_193_455)">
<path d="M570.441 284.202V360.296H285.441V284.503H293.269V261.07H305.316V274.359H306.227V273.072H314.435V274.359H315.347V287.685H322.872V263.494L331.991 251.378V278.599H343.314V264.667H344.264V259.897H344.684L348.065 252.021L348.291 244.792L348.521 252.021L351.902 259.897H352.321V264.667H353.271V283.634H358.59V272.011H366.837V287.685H370.75V272.011H378.996V282.422H383.406V263.873L389.865 257.549H393.512V288.668H395.869V267.545H397.464V266.483H399.441L399.857 257.473L400.277 266.483H402.254V267.545H403.848V277.652H409.701V295.446H413.462V286.473H414.603V275.457H415.819V269.626H421.024V275.457H422.24V286.473H423.381V290.638H425.66V280.227H426.801V265.879H426.459V264.477H434.818V265.879H434.477V280.227H435.618V289.919H438.087V272.958H444.661V284.013H447.587V265.16H453.82V282.233H458.378V267.734H461.722L464.762 271.331V282.233H468.562V290.638H472.514V259.178L474.301 256.415H479.278L481.026 259.368V283.066H483.686V277.045H483.04V276.215H493.224V277.045H492.578V287.646H496.834V273.905L503.294 269.058H506.943V279.165H509.678V272.465H510.59V271.178H518.798V272.465H519.712V284.96H522.332V258.192H523.549V257.323H525.752L526.361 250.773L526.893 257.398H529.021V258.268H530.618V271.974H534.53V258.268H535.937V257.398H538.14L538.672 250.773L539.205 257.398H541.334V258.268H542.701V290.674H547.374V279.658H549.01V269.021H550.757V263.38H558.129V269.021H559.877V279.658H561.51V284.202H570.441Z" fill="#B7EFE4"/>
</g>
<mask id="mask4_193_455" style="mask-type:luminance" maskUnits="userSpaceOnUse" x="285" y="293" width="286" height="68">
<path d="M285.441 293.311H570.441V360.498H285.441V293.311Z" fill="white"/>
</mask>
<g mask="url(#mask4_193_455)">
<path d="M570.441 321.58V360.158H285.441V322.071H294.522V318.134H296.194V308.935H297.981V304.014H305.542V308.898H307.329V318.098H309.001V327.637H313.789V304.393C316.6 304.393 319.413 304.354 322.226 304.354V311.434H326.214V304.316C329.027 304.316 331.84 304.316 334.65 304.316V322.753H337.349V311.963H338.299V310.829H346.697V311.927H347.645V317.719H350.458V308.973H354.183L360.794 313.175V325.063H365.165V315.863H364.48V315.144H374.93V315.863H374.247V321.087H376.983V300.607L378.769 298.033H395.033L396.857 300.418V307.876H400.162V320.444H404.837L404.799 304.923H412.246V301.061H412.701L413.918 298.637H418.783L420 301.061H420.455V305.149H421.443V317.226H433.034V293.603L442.38 304.09V325.063H450.095V313.515H451.045V312.417H459.443V313.515H460.392V301.969H472.743V322.26H477.606V312.305H483.8V326.993H486.348V318.588H487.525V306.171H487.145V304.959H495.694V306.171H495.316V318.588H496.493V327.598H498.811V323.965H499.989V314.426H501.242V309.352H506.563V314.426H507.816V323.965H508.993V331.727H512.833V316.317H518.875V307.533H520.509V306.625H522.522L522.941 298.827L523.358 306.625H525.372V307.533H527.007V325.971H529.401V299.016H533.124L539.737 304.468V320.558H544.22V311.509H552.656V325.101H556.647V311.509H565.084V321.58H570.441Z" fill="#76D6C8"/>
</g>
<mask id="mask5_193_455" style="mask-type:luminance" maskUnits="userSpaceOnUse" x="285" y="305" width="286" height="56">
<path d="M285.441 305.235H570.441V360.498H285.441V305.235Z" fill="white"/>
</mask>
<g mask="url(#mask5_193_455)">
<path d="M569.986 348.875V340.698L567.819 338.087H562.687V323.056H557.329V322.073H559.801V318.476H542.662V322.073H545.132V323.056H539.015V338.087H530.313V326.01H525.942V324.987H526.552C527.385 324.987 528.109 324.305 528.109 323.435C528.109 322.602 527.424 321.883 526.552 321.883H522.447C521.611 321.883 520.889 322.563 520.889 323.435C520.889 324.268 521.572 324.987 522.447 324.987H523.132V326.01H503.448V324.987H504.055C504.891 324.987 505.612 324.305 505.612 323.435C505.612 322.602 504.93 321.883 504.055 321.883H499.95C499.114 321.883 498.392 322.563 498.392 323.435C498.392 324.268 499.077 324.987 499.95 324.987H500.635V326.01H494.67V337.14H478.708V338.502H473.199V322.828H468.677V317.075H466.283V305.376H464.838V317.075H452.374V322.828H447.852V331.726H439.225V322.828H423V313.478H419.39V322.828H415.705V338.502H410.232V330.553H406.129V329.606H406.736C407.573 329.606 408.294 328.924 408.294 328.054C408.294 327.221 407.611 326.502 406.736 326.502H402.632C401.798 326.502 401.074 327.183 401.074 328.054C401.074 328.887 401.759 329.606 402.632 329.606H403.316V330.553H385.229V343.651H377.363V340.017H378.504V338.541H377.021L374.816 335.248H355.777L353.574 338.541H352.245V340.017H353.384V348.913H349.661V344.559H349.091V343.349H349.661V334.641H342.022V332.975H344.493V329.378H327.354V332.975H329.824V334.641H323.364V343.349H323.934V344.559H323.364V345.317H320.666V332.861H321.882V330.704H312.648V328.394H309.191V330.704H300.869V323.018H299.768V330.665H294.371V332.824H295.587V341.229H285.441V360.498H570.441V348.875H569.986ZM330.319 332.899H341.566V334.565H330.319V332.899ZM545.626 322.073H556.874V323.056H545.626V322.073Z" fill="#51B7AA"/>
</g>
<mask id="mask6_193_455" style="mask-type:luminance" maskUnits="userSpaceOnUse" x="0" y="0" width="286" height="361">
<path d="M0.441406 0.497803H285.441V360.498H0.441406V0.497803Z" fill="white"/>
</mask>
<g mask="url(#mask6_193_455)">
<path d="M0.441406 0.497803H285.441V360.445H0.441406V0.497803Z" fill="#197BBB"/>
</g>
<path d="M192.682 260.527C192.682 287.9 170.414 310.085 142.942 310.085C115.467 310.085 93.199 287.9 93.199 260.527C93.199 233.157 115.467 210.934 142.942 210.934C170.414 210.934 192.682 233.119 192.682 260.527Z" fill="#F7F9F8"/>
<mask id="mask7_193_455" style="mask-type:luminance" maskUnits="userSpaceOnUse" x="0" y="244" width="286" height="117">
<path d="M0.441406 244.235H285.441V360.497H0.441406V244.235Z" fill="white"/>
</mask>
<g mask="url(#mask7_193_455)">
<path d="M285.441 284.202V360.296H0.441406V284.503H8.26874V261.07H20.3155V274.359H21.2272V273.072H29.4348V274.359H30.3465V287.685H37.8715V263.494L46.9908 251.378V278.599H58.3137V264.667H59.2643V259.897H59.6835L63.0646 252.021L63.2914 244.792L63.5205 252.021L66.9015 259.897H67.3207V264.667H68.2714V283.634H73.5904V272.011H81.8369V287.685H85.7494V272.011H93.996V282.422H98.4056V263.873L104.865 257.549H108.512V288.668H110.869V267.545H112.464V266.483H114.44L114.857 257.473L115.277 266.483H117.253V267.545H118.848V277.652H124.701V295.446H128.462V286.473H129.603V275.457H130.819V269.626H136.023V275.457H137.24V286.473H138.381V290.638H140.66V280.227H141.801V265.879H141.459V264.477H149.818V265.879H149.477V280.227H150.618V289.919H153.087V272.958H159.661V284.013H162.586V265.16H168.819V282.233H173.378V267.734H176.722L179.762 271.331V282.233H183.562V290.638H187.514V259.178L189.301 256.415H194.278L196.026 259.368V283.066H198.686V277.045H198.04V276.215H208.224V277.045H207.578V287.646H211.834V273.905L218.294 269.058H221.943V279.165H224.678V272.465H225.59V271.178H233.798V272.465H234.712V284.96H237.332V258.192H238.548V257.323H240.752L241.361 250.773L241.893 257.398H244.021V258.268H245.618V271.974H249.53V258.268H250.937V257.398H253.14L253.672 250.773L254.205 257.398H256.333V258.268H257.701V290.674H262.374V279.658H264.01V269.021H265.757V263.38H273.129V269.021H274.877V279.658H276.51V284.202H285.441Z" fill="#6E74A1"/>
</g>
<mask id="mask8_193_455" style="mask-type:luminance" maskUnits="userSpaceOnUse" x="0" y="293" width="286" height="68">
<path d="M0.441406 293.311H285.441V360.498H0.441406V293.311Z" fill="white"/>
</mask>
<g mask="url(#mask8_193_455)">
<path d="M285.441 321.58V360.158H0.441406V322.071H9.52175V318.134H11.194V308.934H12.9807V304.014H20.5423V308.898H22.3291V318.097H24.0013V327.637H28.7888V304.393C31.5995 304.393 34.4125 304.354 37.2255 304.354V311.433H41.2136V304.315C44.0266 304.315 46.8396 304.315 49.6503 304.315V322.753H52.3487V311.963H53.2994V310.829H61.6971V311.926H62.6454V317.718H65.4584V308.973H69.1831L75.7941 313.175V325.062H80.1647V315.863H79.4798V315.144H89.93V315.863H89.2473V321.087H91.9824V300.607L93.7692 298.032H110.033L111.857 300.417V307.875H115.162V320.443H119.837L119.798 304.922H127.246V301.061H127.701L128.918 298.637H133.783L135 301.061H135.455V305.148H136.443V317.225H148.034V293.603L157.38 304.089V325.062H165.095V313.515H166.045V312.417H174.443V313.515H175.391V301.969H187.743V322.26H192.606V312.305H198.8V326.993H201.347V318.588H202.525V306.171H202.145V304.959H210.694V306.171H210.316V318.588H211.493V327.598H213.811V323.965H214.989V314.425H216.242V309.352H221.563V314.425H222.816V323.965H223.993V331.726H227.833V316.317H233.875V307.533H235.509V306.625H237.522L237.941 298.827L238.358 306.625H240.372V307.533H242.007V325.971H244.401V299.016H248.124L254.737 304.468V320.557H259.22V311.509H267.656V325.101H271.647V311.509H280.083V321.58H285.441Z" fill="#293378"/>
</g>
<mask id="mask9_193_455" style="mask-type:luminance" maskUnits="userSpaceOnUse" x="0" y="305" width="286" height="56">
<path d="M0.441406 305.235H285.441V360.498H0.441406V305.235Z" fill="white"/>
</mask>
<g mask="url(#mask9_193_455)">
<path d="M284.986 348.875V340.698L282.819 338.087H277.687V323.056H272.329V322.073H274.801V318.476H257.662V322.073H260.131V323.056H254.015V338.087H245.313V326.01H240.942V324.987H241.552C242.385 324.987 243.109 324.305 243.109 323.435C243.109 322.602 242.424 321.883 241.552 321.883H237.447C236.611 321.883 235.889 322.563 235.889 323.435C235.889 324.268 236.572 324.987 237.447 324.987H238.132V326.01H218.448V324.987H219.055C219.891 324.987 220.612 324.305 220.612 323.435C220.612 322.602 219.93 321.883 219.055 321.883H214.95C214.114 321.883 213.392 322.563 213.392 323.435C213.392 324.268 214.077 324.987 214.95 324.987H215.635V326.01H209.67V337.14H193.708V338.502H188.199V322.828H183.677V317.075H181.283V305.376H179.838V317.075H167.374V322.828H162.852V331.726H154.225V322.828H138V313.478H134.39V322.828H130.704V338.502H125.232V330.553H121.129V329.606H121.736C122.572 329.606 123.294 328.924 123.294 328.054C123.294 327.221 122.611 326.502 121.736 326.502H117.631C116.798 326.502 116.074 327.183 116.074 328.054C116.074 328.887 116.759 329.606 117.631 329.606H118.316V330.553H100.229V343.651H92.3627V340.017H93.5035V338.541H92.0214L89.8154 335.248H70.7774L68.5738 338.541H67.2452V340.017H68.3836V348.913H64.6612V344.559H64.0909V343.349H64.6612V334.641H57.0218V332.975H59.4934V329.378H42.3544V332.975H44.8238V334.641H38.364V343.349H38.9344V344.559H38.364V345.317H35.6655V332.861H36.8819V330.704H27.6481V328.394H24.1914V330.704H15.8693V323.018H14.7675V330.665H9.37056V332.824H10.5869V341.229H0.441406V360.498H285.441V348.875H284.986ZM45.3186 332.899H56.5659V334.565H45.3186V332.899ZM260.626 322.073H271.874V323.056H260.626V322.073Z" fill="#1A1A4E"/>
</g>
<ellipse cx="60.2562" cy="204.361" rx="1.31944" ry="1.31453" fill="#FDFF95"/>
<ellipse cx="135.025" cy="174.565" rx="1.31944" ry="1.31453" fill="#FDFF95"/>
<ellipse cx="89.284" cy="140.387" rx="1.31944" ry="1.31453" fill="#FDFF95"/>
<ellipse cx="249.817" cy="119.355" rx="1.31944" ry="1.31453" fill="#FDFF95"/>
<ellipse cx="148.761" cy="111.812" rx="1.31944" ry="1.31453" fill="#FDFF95"/>
<ellipse cx="185.761" cy="44.8123" rx="1.31944" ry="1.31453" fill="#FDFF95"/>
<ellipse cx="88.7608" cy="72.8123" rx="1.31944" ry="1.31453" fill="#FDFF95"/>
<ellipse cx="51.7608" cy="31.8123" rx="1.31944" ry="1.31453" fill="#FDFF95"/>
<ellipse cx="252.761" cy="61.8123" rx="1.31944" ry="1.31453" fill="#FDFF95"/>
<ellipse cx="191.321" cy="149.151" rx="1.31944" ry="1.31453" fill="#FDFF95"/>
<ellipse cx="247.178" cy="195.159" rx="1.31944" ry="1.31453" fill="#FDFF95"/>
<ellipse cx="208.914" cy="174.565" rx="1.31944" ry="1.31453" fill="#FDFF95"/>
<ellipse cx="210.233" cy="205.675" rx="1.31944" ry="1.31453" fill="#FDFF95"/>
<ellipse cx="270.928" cy="147.836" rx="1.31944" ry="1.31453" fill="#FDFF95"/>
<ellipse cx="25.5109" cy="128.118" rx="1.31944" ry="1.31453" fill="#FDFF95"/>
<ellipse cx="45.3026" cy="233.719" rx="1.31944" ry="1.31453" fill="#FDFF95"/>
<rect x="0.441406" y="0.497803" width="285" height="360" fill="white" fill-opacity="0.5"/>
<mask id="mask10_193_455" style="mask-type:luminance" maskUnits="userSpaceOnUse" x="570" y="0" width="286" height="361">
<path d="M570.441 0.497803H855.441V360.498H570.441V0.497803Z" fill="white"/>
</mask>
<g mask="url(#mask10_193_455)">
<path d="M570.441 0.497803H855.441V360.445H570.441V0.497803Z" fill="#FF891F"/>
</g>
<mask id="mask11_193_455" style="mask-type:alpha" maskUnits="userSpaceOnUse" x="570" y="110" width="286" height="251">
<mask id="mask12_193_455" style="mask-type:luminance" maskUnits="userSpaceOnUse" x="570" y="110" width="286" height="251">
<path d="M570.441 110.498H855.441V360.498H570.441V110.498Z" fill="white"/>
</mask>
<g mask="url(#mask12_193_455)">
<path d="M570.441 110.498H855.441V360.461H570.441V110.498Z" fill="#FF891F"/>
</g>
</mask>
<g mask="url(#mask11_193_455)">
<mask id="mask13_193_455" style="mask-type:luminance" maskUnits="userSpaceOnUse" x="779" y="240" width="144" height="35">
<path d="M779.353 240.636H922.376V274.218H779.353V240.636Z" fill="white"/>
</mask>
<g mask="url(#mask13_193_455)">
<path d="M915.643 262.505C914.543 262.505 913.504 262.738 912.587 263.143C911.548 259.942 908.167 257.595 904.158 257.595C903.443 257.595 902.746 257.672 902.079 257.812C901.021 253.244 896.381 249.806 890.819 249.806C885.971 249.806 881.83 252.418 880.141 256.114C877.861 253.906 874.551 252.516 870.869 252.516C870.25 252.516 869.642 252.557 869.05 252.631C868.331 245.917 861.838 240.664 853.934 240.664C849.022 240.664 844.654 242.696 841.875 245.844C840.761 245.557 839.58 245.402 838.358 245.402C832.834 245.402 828.152 248.53 826.519 252.864C825.513 252.635 824.456 252.512 823.37 252.512C821.978 252.512 820.642 252.712 819.392 253.081C817.29 251.069 814.262 249.806 810.892 249.806C805.33 249.806 800.689 253.244 799.632 257.812C798.963 257.672 798.273 257.595 797.553 257.595C793.538 257.595 790.157 259.942 789.124 263.143C788.207 262.734 787.167 262.505 786.067 262.505C782.357 262.505 779.349 265.122 779.349 268.347C779.349 271.573 782.357 274.19 786.067 274.19H915.643C919.353 274.19 922.361 271.573 922.361 268.347C922.361 265.122 919.353 262.505 915.643 262.505Z" fill="white"/>
</g>
<mask id="mask14_193_455" style="mask-type:luminance" maskUnits="userSpaceOnUse" x="520" y="170" width="144" height="35">
<path d="M520.302 170.528H663.325V204.11H520.302V170.528Z" fill="white"/>
</mask>
<g mask="url(#mask14_193_455)">
<path d="M656.593 192.397C655.492 192.397 654.453 192.629 653.536 193.035C652.498 189.833 649.116 187.486 645.107 187.486C644.392 187.486 643.695 187.564 643.028 187.703C641.97 183.136 637.33 179.697 631.768 179.697C626.92 179.697 622.779 182.31 621.09 186.006C618.81 183.798 615.5 182.408 611.819 182.408C611.199 182.408 610.592 182.449 609.999 182.523C609.28 175.809 602.788 170.555 594.884 170.555C589.971 170.555 585.603 172.587 582.824 175.736C581.71 175.449 580.53 175.294 579.307 175.294C573.783 175.294 569.101 178.422 567.468 182.755C566.463 182.526 565.405 182.404 564.319 182.404C562.927 182.404 561.592 182.604 560.341 182.972C558.239 180.961 555.211 179.697 551.841 179.697C546.279 179.697 541.638 183.136 540.581 187.703C539.913 187.564 539.222 187.486 538.502 187.486C534.487 187.486 531.107 189.833 530.073 193.035C529.156 192.626 528.116 192.397 527.016 192.397C523.306 192.397 520.298 195.014 520.298 198.239C520.298 201.465 523.306 204.082 527.016 204.082H656.593C660.302 204.082 663.31 201.465 663.31 198.239C663.31 195.014 660.302 192.397 656.593 192.397Z" fill="white"/>
</g>
</g>
<path d="M762.682 260.528C762.682 287.9 740.414 310.085 712.942 310.085C685.467 310.085 663.199 287.9 663.199 260.528C663.199 233.158 685.467 210.934 712.942 210.934C740.414 210.934 762.682 233.119 762.682 260.528Z" fill="#FFB600"/>
<mask id="mask15_193_455" style="mask-type:luminance" maskUnits="userSpaceOnUse" x="570" y="244" width="286" height="117">
<path d="M570.441 244.235H855.441V360.498H570.441V244.235Z" fill="white"/>
</mask>
<g mask="url(#mask15_193_455)">
<path d="M855.441 284.202V360.297H570.441V284.504H578.269V261.07H590.316V274.359H591.227V273.072H599.435V274.359H600.346V287.685H607.871V263.494L616.991 251.378V278.6H628.314V264.667H629.264V259.897H629.684L633.065 252.022L633.291 244.792L633.52 252.022L636.902 259.897H637.321V264.667H638.271V283.634H643.59V272.011H651.837V287.685H655.749V272.011H663.996V282.422H668.406V263.873L674.865 257.549H678.512V288.669H680.869V267.545H682.464V266.484H684.44L684.857 257.474L685.277 266.484H687.253V267.545H688.848V277.653H694.7V295.447H698.462V286.473H699.603V275.457H700.819V269.626H706.023V275.457H707.24V286.473H708.381V290.638H710.66V280.227H711.801V265.879H711.459V264.478H719.818V265.879H719.477V280.227H720.617V289.919H723.087V272.958H729.661V284.013H732.586V265.16H738.819V282.233H743.378V267.734H746.722L749.762 271.331V282.233H753.562V290.638H757.514V259.179L759.301 256.415H764.278L766.026 259.368V283.066H768.686V277.046H768.04V276.215H778.224V277.046H777.578V287.646H781.834V273.905L788.294 269.058H791.943V279.166H794.678V272.465H795.59V271.178H803.797V272.465H804.711V284.96H807.332V258.193H808.548V257.323H810.752L811.361 250.773L811.893 257.398H814.021V258.268H815.617V271.975H819.53V258.268H820.936V257.398H823.14L823.672 250.773L824.205 257.398H826.333V258.268H827.701V290.675H832.374V279.659H834.01V269.022H835.757V263.38H843.129V269.022H844.877V279.659H846.51V284.202H855.441Z" fill="#931616"/>
</g>
<mask id="mask16_193_455" style="mask-type:luminance" maskUnits="userSpaceOnUse" x="570" y="293" width="286" height="68">
<path d="M570.441 293.311H855.441V360.498H570.441V293.311Z" fill="white"/>
</mask>
<g mask="url(#mask16_193_455)">
<path d="M855.441 321.58V360.158H570.441V322.071H579.522V318.134H581.194V308.935H582.981V304.014H590.542V308.898H592.329V318.098H594.001V327.637H598.789V304.393C601.6 304.393 604.412 304.354 607.225 304.354V311.434H611.214V304.316C614.027 304.316 616.84 304.316 619.65 304.316V322.753H622.349V311.963H623.299V310.829H631.697V311.927H632.645V317.719H635.458V308.973H639.183L645.794 313.175V325.063H650.165V315.863H649.48V315.144H659.93V315.863H659.247V321.087H661.982V300.607L663.769 298.033H680.033L681.857 300.418V307.876H685.162V320.444H689.837L689.798 304.923H697.245V301.061H697.701L698.918 298.637H703.783L704.999 301.061H705.455V305.149H706.443V317.226H718.034V293.603L727.38 304.09V325.063H735.095V313.515H736.045V312.417H744.443V313.515H745.391V301.969H757.743V322.26H762.606V312.305H768.8V326.993H771.347V318.588H772.525V306.171H772.145V304.959H780.693V306.171H780.315V318.588H781.493V327.598H783.811V323.965H784.988V314.426H786.242V309.352H791.563V314.426H792.816V323.965H793.993V331.727H797.832V316.317H803.875V307.533H805.509V306.625H807.522L807.941 298.827L808.358 306.625H810.372V307.533H812.007V325.971H814.401V299.016H818.123L824.737 304.468V320.558H829.22V311.509H837.656V325.101H841.647V311.509H850.083V321.58H855.441Z" fill="#631212"/>
</g>
<mask id="mask17_193_455" style="mask-type:luminance" maskUnits="userSpaceOnUse" x="570" y="305" width="286" height="56">
<path d="M570.441 305.235H855.441V360.498H570.441V305.235Z" fill="white"/>
</mask>
<g mask="url(#mask17_193_455)">
<path d="M854.985 348.875V340.698L852.818 338.087H847.687V323.056H842.329V322.073H844.801V318.476H827.662V322.073H830.131V323.056H824.015V338.087H815.313V326.01H810.942V324.987H811.551C812.385 324.987 813.109 324.305 813.109 323.435C813.109 322.602 812.424 321.883 811.551 321.883H807.447C806.61 321.883 805.889 322.563 805.889 323.435C805.889 324.268 806.571 324.987 807.447 324.987H808.131V326.01H788.447V324.987H789.054C789.891 324.987 790.612 324.305 790.612 323.435C790.612 322.602 789.93 321.883 789.054 321.883H784.95C784.113 321.883 783.392 322.563 783.392 323.435C783.392 324.268 784.077 324.987 784.95 324.987H785.634V326.01H779.669V337.14H763.708V338.502H758.199V322.828H753.677V317.075H751.283V305.376H749.838V317.075H737.374V322.828H732.852V331.726H724.225V322.828H708V313.478H704.39V322.828H700.704V338.502H695.232V330.553H691.129V329.606H691.736C692.572 329.606 693.294 328.924 693.294 328.054C693.294 327.221 692.611 326.502 691.736 326.502H687.631C686.798 326.502 686.074 327.183 686.074 328.054C686.074 328.887 686.759 329.606 687.631 329.606H688.316V330.553H670.229V343.651H662.363V340.017H663.503V338.541H662.021L659.815 335.248H640.777L638.574 338.541H637.245V340.017H638.384V348.913H634.661V344.559H634.091V343.349H634.661V334.641H627.022V332.975H629.493V329.378H612.354V332.975H614.824V334.641H608.364V343.349H608.934V344.559H608.364V345.317H605.665V332.861H606.882V330.704H597.648V328.394H594.191V330.704H585.869V323.018H584.767V330.665H579.371V332.824H580.587V341.229H570.441V360.498H855.441V348.875H854.985ZM615.319 332.899H626.566V334.565H615.319V332.899ZM830.626 322.073H841.873V323.056H830.626V322.073Z" fill="#470F09"/>
</g>
<rect x="570.441" y="0.497803" width="285" height="360" fill="white" fill-opacity="0.5"/>
</svg>
