<svg width="926" height="242" viewBox="0 0 926 242" fill="none" xmlns="http://www.w3.org/2000/svg">
<path d="M579.15 98.8656C579.15 98.8656 575.443 129.976 571.825 136.231C560.706 148.924 545.132 164.52 544.249 165.491C543.369 166.459 543.058 168.796 543.058 168.796L541.295 164.83C541.295 164.83 542.883 163.242 543.5 162.274C544.117 161.303 558.942 125.73 566.001 126.664C564.679 118.43 562.207 98.4274 562.207 96.7514C562.207 95.079 579.15 98.8656 579.15 98.8656Z" fill="#F9AA80"/>
<path d="M562.846 98.2668C562.846 98.2668 564.745 102.922 569.963 104.507C575.181 106.092 578.314 105.3 578.314 105.3L579.46 97.2371L562.846 98.2668Z" fill="#D27771"/>
<path d="M570.503 100.571C570.503 100.571 569.386 101.812 580.209 100.019C591.032 98.2192 611.798 93.1692 611.798 93.1692C611.798 93.1692 606.211 96.1415 602.213 101.44C598.211 106.738 592.825 122.016 591.134 123.188C590.21 123.305 591.682 126.832 591.682 126.657C591.682 126.478 593.033 124.013 593.033 124.013C593.033 124.013 618.622 98.3397 621.328 94.4618C624.038 90.5839 625.33 86.6367 624.505 85.4937C623.683 84.3545 597.203 79.6258 585.412 80.4035C573.621 81.185 570.503 100.571 570.503 100.571Z" fill="#F9AA80"/>
<mask id="mask0_212_551" style="mask-type:luminance" maskUnits="userSpaceOnUse" x="604" y="45" width="41" height="36">
<path d="M604.904 45.3455H644.669V80.8673H604.904V45.3455Z" fill="white"/>
</mask>
<g mask="url(#mask0_212_551)">
<path d="M609.03 45.4368C609.03 45.4368 609.329 45.5061 611.181 49.1211C613.036 52.7325 621.42 69.0364 621.814 69.1679C622.212 69.2993 635.978 56.4351 636.153 55.8618C636.329 55.2885 636.329 47.4013 637.391 46.7842C638.45 46.1671 644.669 51.0163 644.493 53.7038C644.318 56.3913 638.845 58.5055 638.845 58.5055C638.845 58.5055 625.17 80.3597 622.873 80.4036C620.58 80.4474 605.886 65.0709 605.798 64.808C605.711 64.5414 609.03 45.4368 609.03 45.4368Z" fill="#F9AA80"/>
</g>
<path d="M608.669 44.4072C608.669 44.4072 609.947 45.1083 609.592 48.5918C609.242 52.0717 609.162 59.1666 609.162 59.1666C609.162 59.1666 605.886 55.5553 608.669 44.4072Z" fill="#82AD4F"/>
<path d="M588.282 51.1479L588.636 50.0889C588.636 50.0889 572.384 45.1704 571.562 45.4041C570.737 45.6414 561.323 63.8515 560.914 64.6767C560.502 65.4983 562.426 69.7851 562.473 70.5775C562.517 71.3736 560.312 74.2801 559.603 74.0611C558.899 73.8383 554.396 72.2097 554.09 71.3736C553.779 70.5337 557.442 63.8368 557.442 63.8368C557.442 63.8368 564.544 37.6556 565.384 36.8011C566.223 35.9467 598.828 37.3561 600.946 38.678C603.063 39.9998 606.419 42.8188 606.218 51.0602C606.018 59.3017 599.091 62.1206 593.664 60.4008C588.238 58.6846 588.282 51.1479 588.282 51.1479Z" fill="#F9AA80"/>
<path d="M564.325 85.7676C564.325 85.7676 577.78 73.2247 578.047 73.2247C578.314 73.2247 579.369 70.9753 579.369 70.9753C579.369 70.9753 588.651 76.836 588.37 77.5407C588.092 78.2455 586.73 79.0817 586.73 79.0817L586.475 79.7463C586.475 79.7463 571.142 88.645 569.963 99.9683C567.545 100.322 565.552 98.6464 565.552 98.6464C565.552 98.6464 561.677 89.6747 564.325 85.7676Z" fill="#5A7A8B"/>
<path d="M586.73 79.0818C586.73 79.0818 579.884 73.9587 578.047 73.2248C578.175 73.1335 579.446 71.1361 579.369 70.9754C579.296 70.8148 588.384 77.1319 588.151 78.0119C588.092 78.2456 586.73 79.0818 586.73 79.0818Z" fill="#4C6777"/>
<path d="M561.385 95.1373C561.385 95.1373 561.323 88.7034 564.325 85.7676C563.324 94.4034 569.09 100.571 569.09 100.571C569.09 100.571 561.56 97.456 561.385 95.1373Z" fill="#4C6777"/>
<path d="M602.446 38.6777H600.946C600.946 38.6777 606.814 42.2453 605.181 51.94C603.549 61.6347 596.556 60.0025 592.595 57.6254C588.636 55.2446 588.282 51.1476 588.282 51.1476C588.282 51.1476 579.975 68.8465 579.15 69.3759C578.325 69.9017 578.562 71.3149 578.562 71.3149C578.562 71.3149 587.15 76.3649 588.092 78.2454C590.623 79.067 592.62 76.2481 592.62 76.2481C592.62 76.2481 602.622 68.8465 605.74 67.6707C608.858 66.4949 609.373 58.5054 609.373 58.5054C609.373 58.5054 607.149 45.8164 607.149 43.4064C607.149 41.0001 602.446 38.6777 602.446 38.6777Z" fill="#82AD4F"/>
<path d="M605.623 35.0409C605.623 35.0409 603.571 38.5464 602.446 38.6778C605.116 41.6501 607.387 45.1994 607.076 49.6469C606.77 54.0981 606.262 57.1617 608.866 58.3521C608.468 54.0799 608.358 47.226 609.373 43.7023C610.388 40.1749 612.948 38.5025 612.948 38.5025C612.948 38.5025 618.287 39.4702 619.652 38.3711C621.022 37.2683 621.902 29.9982 621.902 29.9982C621.902 29.9982 623.625 28.764 623.625 28.4098C623.625 28.0592 620.09 25.0175 620.068 24.0061C620.05 22.991 618.374 19.1131 616.851 18.0359C615.329 16.955 607.164 15.9837 603.151 18.5398C599.138 21.0958 605.623 35.0409 605.623 35.0409Z" fill="#F9AA80"/>
<mask id="mask1_212_551" style="mask-type:luminance" maskUnits="userSpaceOnUse" x="567" y="12" width="51" height="25">
<path d="M567.512 12H617.056V36.9325H567.512V12Z" fill="white"/>
</mask>
<g mask="url(#mask1_212_551)">
<path d="M616.851 18.0358C616.851 18.0358 612.813 17.8131 612.13 17.6816C611.447 17.5502 614.314 19.511 613.609 20.0587C612.904 20.6101 611.049 20.5663 610.808 21.03C610.564 21.4938 612.152 23.1004 611.535 23.5423C610.918 23.9805 609.727 23.4327 609.57 24.0717C609.417 24.7108 610.166 25.1489 610.012 25.7441C609.859 26.3393 609.154 27.1317 609.154 27.1317C609.154 27.1317 608.577 23.0785 606.153 24.5099C603.724 25.945 604.805 29.5782 608.314 30.5459C607.982 32.7075 606.284 32.5323 605.952 32.9485C605.623 33.3685 606.065 34.2923 605.623 35.0409C604.298 34.3799 602.048 34.6246 598.609 35.7712C595.165 36.9141 593.975 37.5312 591.284 35.2855C588.592 33.0398 584.401 31.9371 580.428 31.6267C576.459 31.32 571.96 29.1619 571.12 28.1906C572.004 27.223 580.384 27.6173 579.767 26.9564C579.15 26.2955 570.017 23.6518 570.061 23.2976C570.105 22.9471 571.869 22.2423 571.869 22.0671C571.869 21.8881 568.341 20.6576 568.341 20.6576C568.341 20.6576 574.209 16.0713 581.885 16.0275C589.564 15.9873 595.738 16.3817 597.637 14.3113C599.532 12.2409 601.694 12.0181 605.225 13.2523C608.756 14.4865 608.091 12.3723 611.977 13.3838C615.858 14.3989 616.851 18.0358 616.851 18.0358Z" fill="#353638"/>
</g>
<path d="M615.566 33.0983C615.566 33.0983 619.565 32.5542 619.992 32.9778C620.415 33.4342 619.064 35.3732 617.418 35.2125C615.771 35.0519 615.566 33.0983 615.566 33.0983Z" fill="white"/>
<path d="M619.188 23.5935C617.958 22.8632 616.085 24.2581 615.234 25.0724C615.007 25.2915 615.164 25.81 615.519 25.6128C616.103 25.2842 616.691 24.9227 617.315 24.6707C617.899 24.437 618.56 24.448 619.115 24.1741C619.298 24.0828 619.397 23.7177 619.188 23.5935Z" fill="#353638"/>
<path d="M617.94 28.0776C617.9 27.7781 617.911 27.4751 617.838 27.1793C617.728 26.7521 617.177 26.9456 617.067 27.2596C616.895 27.7453 616.939 28.545 617.308 28.9247C617.425 29.0489 617.556 29.0343 617.67 28.9612C617.677 28.9649 617.702 28.9503 617.75 28.9138C617.783 28.8919 617.812 28.8663 617.83 28.8334C617.903 28.7531 617.933 28.6618 617.954 28.5596C617.984 28.3953 617.962 28.2419 617.94 28.0776Z" fill="#353638"/>
<path d="M608.72 28.7421C608.588 28.1798 608.143 27.727 607.778 27.2925C607.431 26.8799 607.073 26.3285 606.565 26.1058C606.332 25.9999 606.175 26.3285 606.233 26.5111C606.386 27.0113 606.795 27.4276 607.128 27.8366C606.952 27.895 606.77 27.9388 606.62 28.0484C606.43 28.1835 606.332 28.5559 606.613 28.6618C606.803 28.7312 607 28.6983 607.197 28.6728C607.358 28.6509 607.515 28.6107 607.664 28.5486C607.854 28.786 608.066 29.0014 608.325 29.1219C608.534 29.2205 608.764 28.9357 608.72 28.7421Z" fill="#D27771"/>
<path d="M586.679 80.1845C586.504 80.2429 572.738 88.9371 571.325 101.688C569.915 101.98 568.502 100.279 568.385 99.9829C568.268 99.6908 572.384 81.0097 586.679 79.3044C586.796 79.4797 586.679 80.1845 586.679 80.1845Z" fill="#ABC9D5"/>
<path d="M568.856 100.041C568.856 100.041 561.677 95.488 561.385 95.1374C561.089 94.7832 561.148 96.8682 561.148 96.8682C561.148 96.8682 565.541 101.046 569.963 101.44C569.765 100.925 568.856 100.041 568.856 100.041Z" fill="#ABC9D5"/>
<path d="M588.636 50.0887C588.56 49.8769 598.094 52.9844 598.094 52.9844C598.094 52.9844 591.503 58.301 588.636 50.0887Z" fill="#D27771"/>
<mask id="mask2_212_551" style="mask-type:luminance" maskUnits="userSpaceOnUse" x="635" y="47" width="10" height="10">
<path d="M635.752 47.2151H644.669V56.5629H635.752V47.2151Z" fill="white"/>
</mask>
<g mask="url(#mask2_212_551)">
<path d="M644.201 54.6933C643.96 54.8211 643.716 54.9307 643.467 54.9927C642.62 55.2045 642.105 54.8467 641.645 54.2478C642.595 53.7585 643.413 53.0684 644.143 52.2943C644.052 52.1081 643.946 51.9182 643.825 51.7283C643.11 52.5097 642.325 53.1853 641.437 53.7695C641.346 53.1305 641.098 52.4805 640.743 51.8634C641.273 51.3303 641.799 50.8045 642.303 50.2494C642.365 50.1837 642.427 50.118 642.493 50.0523C642.365 49.9172 642.233 49.7821 642.102 49.6542C642.007 49.7711 641.919 49.8843 641.828 49.9865C641.39 50.5014 640.977 51.0345 640.557 51.564C640.203 51.0126 639.765 50.4904 639.265 50.0377C639.604 49.5739 639.947 49.1175 640.272 48.6428C640.353 48.5223 640.44 48.4018 640.528 48.2813C640.382 48.1681 640.24 48.0622 640.097 47.9563C640.039 48.0476 639.98 48.1389 639.922 48.2265C639.586 48.7304 639.265 49.2489 638.947 49.7674C638.275 49.2197 637.519 48.7998 636.749 48.5661C636.716 48.756 636.687 48.9568 636.661 49.1686C637.369 49.4534 638.019 49.8587 638.604 50.4028C639.52 51.25 640.546 52.5024 640.82 53.7731C639.75 53.5358 638.465 52.214 637.676 51.6881C637.424 51.5202 637.209 51.9218 637.402 52.1081C638.034 52.7252 638.768 53.2437 639.502 53.7366C640.02 54.0835 640.499 54.5071 641.138 54.4742C641.171 54.4706 641.2 54.4669 641.225 54.456C641.594 55.1388 642.062 55.7669 642.923 55.7596C643.102 55.7596 643.274 55.7304 643.446 55.6902C643.752 55.3725 644.015 55.0402 644.201 54.6933Z" fill="#D27771"/>
</g>
<path d="M621.814 69.168C621.814 69.168 624.008 73.6922 624.213 73.6922C624.417 73.6922 627.182 71.1069 621.814 69.168Z" fill="#D27771"/>
<path d="M591.737 126.497C591.737 126.497 591.24 139.054 590.944 138.788C590.652 138.525 586.592 125.098 586.562 124.777C586.533 124.452 590.999 123.13 591.134 123.188C591.269 123.247 591.737 126.497 591.737 126.497Z" fill="#4989A6"/>
<mask id="mask3_212_551" style="mask-type:luminance" maskUnits="userSpaceOnUse" x="536" y="164" width="9" height="22">
<path d="M536 164.063H544.143V185.169H536V164.063Z" fill="white"/>
</mask>
<g mask="url(#mask3_212_551)">
<path d="M543.281 167.671C543.281 167.671 543.413 185.143 543.015 185.056C542.617 184.964 536 166.108 536.219 165.666C536.442 165.224 541.682 164.428 541.682 164.428L543.281 167.671Z" fill="#4989A6"/>
</g>
<path d="M157.646 156.952C157.646 157.095 165.716 163.978 165.716 163.839C165.716 163.697 168.104 156.952 168.104 156.952L163.321 154.331L157.646 156.952Z" fill="#F9AA80"/>
<path d="M22.6028 136.687L32.67 137.216L31.2021 145.742L21.9455 143.493L22.6028 136.687Z" fill="#F9AA80"/>
<path d="M95.1764 123.789C95.1764 123.789 70.0358 155.923 68.3488 157.234C66.6581 158.544 59.3405 156.861 57.9347 156.204C56.5289 155.547 31.1071 153.673 29.7013 153.111C28.2954 152.549 26.1374 136.906 25.9475 136.248C25.7613 135.595 50.712 137.749 54.557 140.09C54.2759 139.246 54.4658 138.498 54.8382 138.403C55.2143 138.311 58.4057 138.593 58.4057 138.593C58.4057 138.593 68.9001 106.836 78.6606 98.123C86.8254 96.9034 95.1764 123.789 95.1764 123.789Z" fill="#DF6CBD"/>
<path d="M95.18 123.804C95.18 123.804 86.829 96.9181 78.6643 98.134C77.1124 99.5216 75.5422 101.49 73.9976 103.823C73.8005 111.177 73.2381 123.614 71.6351 128.861C69.2872 136.544 82.6079 134.485 82.1405 135.42C81.6731 136.354 69.572 142.821 67.7901 144.508C66.8663 145.381 73.7786 143.84 80.7201 142.149C87.7638 133.28 95.18 123.804 95.18 123.804Z" fill="#BC61A5"/>
<path d="M95.6439 123.384C95.5197 123.57 91.682 128.263 91.682 128.263C91.682 128.263 80.3222 117.388 77.6347 115.515C74.9435 113.642 95.6439 123.384 95.6439 123.384Z" fill="#A15790"/>
<path d="M94.3767 38.0447C94.3767 38.0447 99.6787 36.3869 104.648 36.5257C109.622 36.6681 115.106 35.5909 115.201 34.3238C115.296 33.0604 111.309 12.4988 111.123 11.8196C110.933 11.1404 105.587 9.96831 105.116 9.17228C104.648 8.37625 104.648 3.08157 105.116 2.51924C105.587 1.96056 105.211 0.69349 106.62 0.74096C108.026 0.78843 115.764 -0.949686 117.031 0.74096C118.298 2.42795 117.264 10.2969 117.264 10.2969C117.264 10.2969 129.599 36.2628 126.722 42.6931C124.472 44.8803 106.087 55.3711 102.585 54.8088C99.0835 54.2464 94.3767 38.0447 94.3767 38.0447Z" fill="#F9AA80"/>
<path d="M58.8111 58.6831C56.6859 58.8693 43.179 61.9913 40.612 61.2428C42.2405 68.9876 43.4894 83.4147 44.6797 84.8497C46.1148 84.5394 51.1173 83.2248 51.7454 84.4115C52.3698 85.5983 54.1225 92.7187 53.4324 93.9675C52.7459 95.2163 42.3026 98.9007 40.612 97.4657C38.925 96.0306 37.8624 87.037 37.8624 87.037C37.8624 87.037 23.7274 59.4316 27.1671 53.7499C30.7967 49.9998 47.7434 43.6936 51.1831 43.9419C54.6228 44.1939 58.8111 58.6831 58.8111 58.6831Z" fill="#F9AA80"/>
<path d="M78.6643 93.1095C78.6643 93.1095 73.6326 110.954 74.1328 113.452C74.6331 115.953 87.2015 120.2 92.142 124.009C97.0825 127.817 112.342 129.628 114.467 131.877C116.592 134.127 116.406 141.806 127.226 145.118C138.041 148.426 154.115 161.794 154.864 162.419C155.616 163.043 164.369 155.112 164.621 154.86C164.869 154.612 163.744 152.739 163.12 152.801C162.496 152.863 141.295 133.564 140.919 130.567C140.543 127.569 105.149 99.653 104.648 98.4042C104.148 97.1517 100.99 93.858 100.99 93.858C100.99 93.858 94.8295 92.0651 78.6643 93.1095Z" fill="#DF6CBD"/>
<path d="M79.7925 90.1116C79.7925 90.1116 79.0403 92.6895 78.6642 93.1095C78.2917 93.533 100.38 93.1569 100.989 93.858C101.179 94.0479 100.57 91.3312 100.57 91.3312L79.7925 90.1116Z" fill="#353638"/>
<path d="M69.3566 37.9791C69.3566 37.9791 68.5351 38.0192 68.316 38.0448C68.0969 38.074 68.0677 38.7605 67.9399 38.9175C67.8157 39.0709 60.593 35.8941 58.1867 38.0448C55.7767 40.1955 56.5289 42.1929 56.1528 42.3207C55.7767 42.4449 50.0256 43.5074 49.2734 43.2884C52.3078 48.3165 56.6239 62.0863 57.0912 64.0216C58.5299 61.6189 66.6582 61.3049 67.0014 61.4619C67.3483 61.6189 71.8178 81.5415 70.4119 83.6959C69.0025 85.8503 79.5115 88.096 78.1969 90.9076C78.4781 91.4699 100.332 92.2185 100.617 92.2185C100.898 92.2185 102.68 89.783 102.68 88.9431C102.68 88.096 102.866 62.7107 98.178 57.7447C100.241 57.1823 105.116 57.4635 105.116 56.7149C105.116 55.9664 95.4576 38.8591 94.9866 37.2962C94.5192 36.9493 90.3893 39.5857 87.7639 38.0448C85.1384 36.5075 77.1964 38.0448 77.1964 38.0448L69.3566 37.9791Z" fill="#56A4C1"/>
<path d="M70.474 33.8273L69.3566 37.979C69.3566 37.979 82.3231 41.4443 82.5349 41.28C82.7467 41.1157 82.5349 36.3395 82.5349 36.3395C82.5349 36.3395 87.5995 37.4386 88.4686 34.3494C89.3376 31.2566 87.8113 23.1539 87.8113 23.1539C87.8113 23.1539 89.1478 22.3579 89.5458 21.4194C89.9438 20.4847 85.8176 16.9938 85.8176 16.9938C85.8176 16.9938 84.8572 9.57031 81.5745 9.57031C78.2918 9.57031 66.0483 15.6829 66.0483 19.5243C66.0483 23.3657 70.474 33.8273 70.474 33.8273Z" fill="#F9AA80"/>
<path d="M70.474 33.8237C70.474 33.8237 73.943 28.1127 74.1 26.2359C72.8183 26.4549 70.8501 23.709 70.631 21.4889C70.412 19.2724 71.6316 17.6183 72.6941 18.1186C73.7567 18.6188 74.571 20.7732 74.6002 21.4305C74.6331 22.0841 76.6633 23.238 76.6633 22.8034C76.6633 22.3653 75.1005 16.2453 75.1005 16.2453C75.1005 16.2453 76.3201 17.37 76.415 16.9318C76.51 16.4936 75.6628 12.5902 75.6628 12.5902C75.6628 12.5902 83.2616 9.37686 83.2324 8.93868C83.1995 8.5005 80.512 9.21985 80.7603 9.15777C81.0123 9.09205 81.7608 7.21882 81.7608 6.87558C81.7608 6.53234 74.7244 9.46815 74.7572 9.37686C74.7901 9.28192 75.4766 8.15726 75.4437 8.06232C75.4145 7.97103 65.0954 9.40608 62.5941 18.1514C59.8116 20.7732 65.0004 29.2045 70.474 33.8237Z" fill="#914839"/>
<path d="M83.0862 12.0499C82.4837 11.4693 81.5161 12.1119 80.9903 12.5136C80.26 13.0686 79.61 13.7405 79.1061 14.5073C78.6278 15.2376 79.4932 15.9643 80.0737 15.2632C80.4864 14.7629 80.9172 14.2809 81.4175 13.861C81.6402 13.6748 81.8776 13.4885 82.1478 13.3717C82.429 13.2549 82.6919 13.2622 82.9511 13.0869C83.3053 12.8422 83.4076 12.3639 83.0862 12.0499Z" fill="#914839"/>
<path d="M84.0101 19.1264C83.9809 18.6627 84.0064 18.1296 83.7727 17.7206C83.5902 17.4029 83.0972 17.5271 82.9475 17.8009C82.6335 18.3742 82.67 19.2871 82.9438 19.8677C83.0242 20.0393 83.1629 20.1927 83.3674 20.1927C83.9042 20.1853 84.0356 19.5536 84.0101 19.1264Z" fill="#38393B"/>
<path d="M84.4812 27.2946C84.1891 28.4887 83.7472 29.9602 83.9225 31.1944C84.0138 31.8481 84.839 31.8262 85.0326 31.2383C85.4196 30.0771 85.4452 28.737 85.6935 27.5283C85.8578 26.736 84.6711 26.5278 84.4812 27.2946Z" fill="#B02E3B"/>
<path d="M74.7607 23.4972C74.5818 22.8436 74.0085 22.2667 73.6105 21.7226C73.1614 21.1055 72.7086 20.492 72.2631 19.8749C72.0148 19.528 71.5912 20.021 71.7848 20.3277C72.1937 20.9813 72.6136 21.624 73.0555 22.2521C73.0774 22.2849 73.0993 22.3214 73.1249 22.358C73.1066 22.358 73.0883 22.3616 73.0701 22.3616C72.7195 22.3689 72.3763 22.3726 72.0513 22.5077C71.8797 22.5807 71.8176 22.9057 71.9856 23.0116C72.2777 23.1942 72.6246 23.227 72.9605 23.2781C73.249 23.3183 73.5192 23.3877 73.7894 23.3402C73.9611 23.5557 74.1473 23.7455 74.3627 23.877C74.6147 24.0303 74.8265 23.7346 74.7607 23.4972Z" fill="#D27771"/>
<path d="M82.5348 36.3395C82.5348 36.3395 76.2798 35.9671 75.3195 29.9238C73.5375 32.9801 76.3601 38.7276 82.5933 37.979C82.5969 38.1032 82.5348 36.3395 82.5348 36.3395Z" fill="#D27771"/>
<path d="M78.1932 90.9038C78.4743 91.4661 100.329 92.2147 100.61 92.2147C100.895 92.2147 102.677 89.7791 102.677 88.9356C102.677 88.8517 102.677 88.5157 102.677 87.979C95.5451 89.7463 83.9151 91.4625 83.9151 88.8444C83.9151 85.1892 75.0967 73.5738 74.2532 74.1361C73.4097 74.6984 76.3163 83.5972 73.5959 82.7537C73.5521 81.5121 71.7117 77.6963 69.7217 73.8403C70.5141 78.4303 71.0216 82.75 70.4082 83.6884C68.9987 85.8465 79.5077 88.0922 78.1932 90.9038Z" fill="#4989A6"/>
<path d="M87.1357 44.8111C93.5149 48.2471 98.1742 57.741 98.1742 57.741C99.7079 57.3248 102.79 57.3722 104.276 57.1166C103.232 55.4187 101.891 53.7317 100.581 53.4943C97.831 52.9941 94.4534 44.1246 87.1357 44.8111Z" fill="#4989A6"/>
<mask id="mask4_212_551" style="mask-type:luminance" maskUnits="userSpaceOnUse" x="0" y="129" width="25" height="25">
<path d="M0 129.836H24.2131V153.206H0V129.836Z" fill="white"/>
</mask>
<g mask="url(#mask4_212_551)">
<path d="M23.3222 136.5C23.3222 136.5 22.8219 142.868 22.8219 143.12C22.8219 143.369 22.884 149.459 22.1646 148.864C21.4453 148.273 19.2581 143.588 19.2581 143.588C19.2581 143.588 -0.00363111 154.144 0.434549 152.457C0.87273 150.77 17.257 130.128 18.8527 130.629C20.4448 131.129 23.3222 136.5 23.3222 136.5Z" fill="#353638"/>
</g>
<mask id="mask5_212_551" style="mask-type:luminance" maskUnits="userSpaceOnUse" x="164" y="145" width="22" height="27">
<path d="M164.431 145.728H185.788V171.902H164.431V145.728Z" fill="white"/>
</mask>
<g mask="url(#mask5_212_551)">
<path d="M164.916 163.744C164.683 163.558 167.447 155.922 167.447 155.922C167.447 155.922 166.932 152.362 167.447 152.267C167.965 152.176 169.605 155.502 169.747 155.36C169.89 155.218 185.412 145.103 185.599 146.228C185.788 147.349 171.343 172.175 170.496 171.565C169.652 170.959 164.916 163.744 164.916 163.744Z" fill="#353638"/>
</g>
<path d="M104.791 6.94133C106.609 6.26945 108.515 5.9043 110.469 5.94812C111.214 5.96273 112.897 5.90065 113.489 6.33883C114.296 6.93768 113.536 6.92672 112.901 7.04722C112.134 7.19694 111.371 7.27362 110.589 7.28457C110.001 7.29553 109.731 8.2157 110.308 8.46401C111.112 8.64658 111.531 9.16875 111.572 10.0342C111.363 10.8083 112.39 11.1917 112.598 10.4066C112.831 9.53755 112.682 8.85837 112.258 8.33255C113.361 8.2084 114.551 7.93819 114.946 7.17868C114.96 7.14581 114.968 7.1166 114.982 7.08374C115.884 7.102 116.892 6.89386 117.611 6.40456C117.644 5.73999 117.666 5.0462 117.662 4.37798C117.659 4.37798 117.659 4.37432 117.655 4.37067C117.52 4.1881 117.348 4.02743 117.158 3.90693C116.702 3.61481 116.238 4.38163 116.651 4.6774C116.921 4.86728 117.027 5.14479 117.235 5.38214C117.239 5.38579 117.242 5.38944 117.246 5.39309C117.22 5.41865 117.199 5.44787 117.169 5.46977C116.556 5.97733 115.734 6.05767 114.971 6.2585C114.825 5.95542 114.54 5.70712 114.212 5.53915C114.102 5.48073 113.985 5.42961 113.861 5.38214C114.004 4.1954 114.109 3.02692 114.456 1.86574C114.646 1.23768 114.935 0.646139 115.212 0.0509433C114.843 0.0144287 114.445 -0.000177523 114.022 0.00347375C113.302 1.59553 113.029 3.60751 113.182 5.18861C112.474 5.03159 111.674 4.99508 110.903 5.00969C111.133 4.04204 110.969 3.01962 111.119 2.02641C111.221 1.37279 111.447 0.762986 111.659 0.149534C111.247 0.189701 110.838 0.23717 110.436 0.288291C109.888 1.87304 109.739 3.89233 110.363 5.03159C109.87 5.05715 109.403 5.10097 108.994 5.14114C108.555 5.18861 108.121 5.25799 107.694 5.34562C107.361 3.7207 107.854 2.1396 108.304 0.57676C107.8 0.642487 107.372 0.697259 107.051 0.72282C106.606 2.34409 106.489 4.1954 106.982 5.50994C106.226 5.70347 105.492 5.96638 104.773 6.28041C104.776 6.5068 104.783 6.72589 104.791 6.94133Z" fill="#D27771"/>
<path d="M351.201 100.424C351.201 100.424 353.665 96.9807 356.254 97.0939C361.071 90.3642 372.876 76.85 372.876 76.85C372.876 76.85 371.262 74.3487 372.876 67.8417C374.49 61.3384 380.895 48.3244 380.895 48.3244C380.895 48.3244 377.97 41.7481 378.514 41.7042C379.058 41.6641 380.979 44.001 381.063 43.8732C381.147 43.7491 385.905 37.034 386.156 38.1185C386.405 39.203 383.944 42.4163 384.068 42.3725C384.192 42.3323 389.414 39.0386 389.246 40.0392C389.078 41.0397 385.821 43.9572 385.821 43.9572C385.821 43.9572 390.29 42.7084 390.038 43.1247C389.79 43.541 387.077 45.5018 387.077 45.5018C387.077 45.5018 390.476 45.5018 390.049 46.17C389.622 46.8346 387.325 47.2947 387.325 47.2947L382.899 50.6322C382.899 50.6322 381.227 76.1562 377.97 81.0784C376.133 95.0929 366.53 113.778 366.53 113.778L351.201 100.424Z" fill="#F9AA80"/>
<path d="M343.876 88.7503C343.876 88.7503 340.619 94.4649 339.76 94.757C339.238 95.5713 343.394 102.265 348.991 104.057C354.586 105.85 356.506 103.265 356.506 103.265C356.506 103.265 350.306 99.9714 349.324 99.3871C348.342 98.8029 349.762 94.2166 349.762 94.2166C349.762 94.2166 355.944 94.1728 357.175 93.1942C358.409 92.2119 358.489 84.3941 358.449 84.2663C358.471 84.3722 360.768 83.2037 360.684 82.6852C360.6 82.163 357.697 80.1583 357.737 80.0962C357.781 80.0342 357.237 77.7009 356.028 75.8861C354.816 74.0713 350.682 72.2966 350.682 72.2966C350.682 72.2966 344.23 75.1959 342.433 77.7848C340.637 80.3701 343.876 88.7503 343.876 88.7503Z" fill="#F9AA80"/>
<mask id="mask6_212_551" style="mask-type:luminance" maskUnits="userSpaceOnUse" x="438" y="170" width="14" height="19">
<path d="M438.041 170.679H451.96V188.44H438.041V170.679Z" fill="white"/>
</mask>
<g mask="url(#mask6_212_551)">
<path d="M439.293 180.651C439.293 180.651 451.942 169.971 451.942 170.723C451.942 171.471 443.591 187.794 442.952 187.71C442.309 187.629 438.468 181.845 438.468 181.845L439.293 180.651Z" fill="#56A4C1"/>
</g>
<path d="M293.142 188.794C293.142 188.794 289.483 184.347 288.983 184.347C288.479 184.347 284.305 201.615 284.013 203.283C283.721 204.952 288.508 210.207 288.577 209.706C288.647 209.206 288.062 205.16 288.062 205.032C288.062 204.908 293.423 190.894 293.81 190.518C294.201 190.145 293.142 188.794 293.142 188.794Z" fill="#56A4C1"/>
<path d="M354.498 178.676C354.498 178.676 345.037 190.131 332.509 195.469C331.954 195.579 330.895 197.079 330.004 197.247C329.113 197.415 305.951 189.853 293.81 190.518C293.2 190.076 292.977 188.849 293.142 188.794C293.31 188.739 306.338 182.455 314.693 182.733C323.044 183.01 331.063 187.293 331.063 187.293C331.063 187.293 340.918 171.669 343.31 169.887C345.705 168.108 354.498 178.676 354.498 178.676Z" fill="#F9AA80"/>
<path d="M363.747 168.163C363.747 168.163 392.7 159.378 395.369 158.655C396.096 158.932 398.378 160.269 398.378 160.269C398.378 160.269 398.1 168.218 405.896 172.611C413.689 177.007 438.19 181.345 438.468 181.842C438.745 182.346 439.414 180.732 439.414 180.732C439.414 180.732 405.896 159.1 403.611 156.208C402.333 153.039 398.601 152.148 398.601 152.148C398.601 152.148 390.64 144.363 369.593 146.809C365.306 149.424 363.747 168.163 363.747 168.163Z" fill="#F9AA80"/>
<path d="M359.57 174.115C359.57 174.115 356.09 178.563 355.506 178.785C355.477 178.815 355.031 180.063 354.838 180.147C354.64 180.231 350.854 180.038 346.457 176.339C342.057 172.64 339.523 167.663 339.523 167.163C339.523 166.662 342.977 168.415 343.2 167.634C343.423 166.856 343.116 165.771 343.923 165.83C344.73 165.885 344.759 166.023 344.759 165.384C344.759 164.745 345.176 162.963 346.928 161.601C348.685 160.239 359.57 174.115 359.57 174.115Z" fill="#D54180"/>
<path d="M338.063 94.4065L339.761 94.757C339.761 94.757 350.076 104.934 356.506 103.265C364.189 106.935 367.03 111.342 368.366 115.063C369.703 118.78 370.703 134.215 370.203 136.716C369.703 139.218 366.698 147.142 366.698 147.142C366.698 147.142 351.496 150.979 351.077 150.479C350.66 149.979 352.165 146.893 352.165 146.893C352.165 146.893 350.029 128.994 339.279 119.883C340.473 108.271 338.063 94.4065 338.063 94.4065Z" fill="#DF6CBD"/>
<path d="M332.618 93.8698C332.677 93.7018 337.909 91.4233 343.31 99.6501C348.71 107.881 349.769 120.785 345.537 122.618C342.477 123.564 337.909 118.558 337.909 118.558L315.025 105.493C315.025 105.493 311.071 130.407 310.625 131.185C310.18 131.962 316.026 132.072 316.416 133.686C316.807 135.3 315.664 135.256 315.708 135.756C315.748 136.256 317.169 140.47 316.376 141.179C315.584 141.887 307.73 141.139 306.561 139.43C305.393 137.717 306.937 132.13 306.937 132.13C306.937 132.13 296.764 91.3941 308.12 85.6247C318.699 83.7478 332.618 93.8698 332.618 93.8698Z" fill="#F9AA80"/>
<path d="M315.025 105.489C315.025 105.489 316.694 97.5944 315.916 95.3706C320.203 98.9856 316.884 106.552 316.884 106.552L315.025 105.489Z" fill="#D27771"/>
<path d="M347.655 160.878C347.487 160.878 344.814 163.825 345.314 164.493C345.815 165.162 351.887 168.441 352.497 168.941C353.11 169.441 347.765 169.722 347.374 169.777C346.987 169.832 355.006 174.225 359.57 174.115C361.136 172.655 363.747 169.109 363.747 169.109L347.655 160.878Z" fill="#B3396C"/>
<path d="M350.66 149.756C350.828 149.756 369.688 146.031 370.334 146.309C369.425 148.81 368.312 169.722 368.757 170.945C368.925 172.169 365.693 170 365.248 170.445C364.802 170.887 364.025 172.669 362.853 171.946C361.684 171.223 360.57 170.222 359.734 170.222C358.902 170.222 348.656 167.217 346.483 161.714C344.314 156.208 350.66 149.756 350.66 149.756Z" fill="#D54180"/>
<path d="M334.882 116.83C334.882 116.83 343.755 122.286 345.595 120.504C347.432 118.725 342.532 107.771 339.914 105.379C343.7 114.446 334.882 116.83 334.882 116.83Z" fill="#D27771"/>
<path d="M346.673 80.2022C346.673 80.2022 348.634 83.4338 348.907 83.0796C349.178 82.7254 348.141 77.6791 348.141 77.6791C348.141 77.6791 348.907 78.8256 349.178 78.4714C349.451 78.1172 349.284 75.448 349.43 74.9879C349.576 74.5315 352.705 74.2393 352.665 73.9655C352.625 73.6953 350.952 73.4433 351.434 73.1329C351.913 72.8189 355.086 71.4423 355.067 71.2561C355.046 71.0662 351.935 70.6097 351.935 70.6097C351.935 70.6097 353.227 68.9191 353.103 68.7949C352.979 68.6708 348.615 69.1272 346.965 71.1721C342.831 71.3181 338.508 74.9258 337.569 78.6394C336.631 82.3493 339.198 82.7693 339.198 82.7693C339.198 82.7693 343.624 89.1886 343.894 88.8965C344.168 88.6044 344.354 86.8735 344.354 86.8735C344.354 86.8735 345.044 87.6038 345.19 87.4176C345.336 87.2314 346.841 83.6237 346.841 83.6237C346.841 83.6237 344.398 83.7259 343.938 81.3488C343.478 78.9717 345.566 78.6577 346.673 80.2022Z" fill="#353638"/>
<path d="M355.141 75.8859C353.848 75.8494 352.592 77.2699 352.07 78.3069C351.865 78.7159 352.223 79.3987 352.676 78.9423C353.03 78.5881 353.37 78.212 353.746 77.8797C354.038 77.6204 354.571 77.1786 354.984 77.1932C355.707 77.2224 355.915 75.9079 355.141 75.8859Z" fill="#353638"/>
<path d="M354.432 80.7097C354.184 80.6659 353.903 80.8448 353.841 81.0968C353.709 81.6153 353.618 82.2069 353.906 82.6889C354.009 82.8568 354.239 82.8933 354.403 82.824C354.604 82.74 354.717 82.5574 354.754 82.3456C354.819 81.9987 354.75 81.6336 354.794 81.2794C354.823 81.0311 354.691 80.7572 354.432 80.7097Z" fill="#353638"/>
<path d="M356.254 86.7712C356.254 86.7712 352.143 85.7926 351.559 85.8546C351.307 85.9167 351.887 89.5463 353.822 89.7544C355.754 89.9626 356.152 87.7717 356.254 86.7712Z" fill="white"/>
<path d="M347.239 81.9766C346.6 81.3632 345.771 80.8264 344.931 80.5379C344.672 80.4503 344.464 80.8739 344.686 81.0272C345.073 81.2975 345.46 81.5677 345.844 81.8379C345.705 81.8707 345.57 81.9146 345.439 81.9693C345.227 82.0606 345.296 82.4221 345.537 82.3893C345.837 82.3491 346.136 82.3126 346.435 82.3053C346.45 82.3016 346.461 82.298 346.472 82.2943C346.596 82.3856 346.724 82.4732 346.848 82.5682C347.191 82.8274 347.509 82.2359 347.239 81.9766Z" fill="#D27771"/>
<path d="M369.057 118.05C365.843 119.605 362.663 121.23 359.548 122.961C355.572 125.174 351.683 127.562 347.998 130.235C347.772 130.399 347.542 130.564 347.308 130.728C347.44 130.994 347.56 131.257 347.684 131.524C348.539 130.925 349.404 130.337 350.273 129.76C353.815 127.412 357.481 125.262 361.22 123.25C363.857 121.833 366.533 120.493 369.232 119.193C369.173 118.795 369.115 118.415 369.057 118.05Z" fill="#FCF2AF"/>
<path d="M358.945 117.462C361.596 115.633 364.368 113.971 367.242 112.514C367.066 112.193 366.876 111.872 366.668 111.547C363.86 112.993 361.151 114.632 358.569 116.451C353.91 119.733 349.598 123.516 345.672 127.664C345.833 127.935 345.99 128.205 346.14 128.475C350.061 124.429 354.275 120.683 358.945 117.462Z" fill="#FCF2AF"/>
<path d="M351.909 158.461C352.457 155.273 353.304 152.137 354.341 149.062C354.063 149.117 353.793 149.168 353.538 149.215C352.468 152.432 351.595 155.708 350.81 159.034C350.748 159.297 350.963 159.619 351.241 159.622C356.93 159.67 362.619 159.571 368.308 159.732C368.545 159.739 368.783 159.75 369.02 159.757C369.046 159.323 369.071 158.885 369.097 158.45C368.885 158.443 368.673 158.439 368.465 158.432C362.955 158.286 357.416 158.191 351.909 158.461Z" fill="#FCF2AF"/>
<path d="M356.608 148.631C356.364 148.679 356.119 148.723 355.882 148.77C355.414 151.074 354.962 153.378 354.198 155.595C354.056 156.011 354.304 156.413 354.754 156.358C358.956 155.872 363.101 155.186 367.333 154.948C368.001 154.908 368.669 154.883 369.341 154.857C369.374 154.386 369.411 153.922 369.447 153.47C364.667 153.586 359.877 154.036 355.305 155.04C355.56 153.137 356.068 151.239 356.459 149.365C356.51 149.121 356.557 148.876 356.608 148.631Z" fill="#FCF2AF"/>
<path d="M347.819 87.5268C347.834 87.4903 347.593 92.2555 353.165 92.701C346.706 94.8408 346.819 90.8241 347.819 87.5268Z" fill="#D27771"/>
<mask id="mask7_212_551" style="mask-type:luminance" maskUnits="userSpaceOnUse" x="662" y="78" width="66" height="74">
<path d="M662.059 78.7302H727.424V151.643H662.059V78.7302Z" fill="white"/>
</mask>
<g mask="url(#mask7_212_551)">
<path d="M681.149 79.5593C681.149 79.5593 683.402 83.722 683.599 86.0407C684.059 86.8258 685.724 88.878 686.082 89.6302C686.44 90.3787 684.22 91.8138 684.22 91.8138C684.22 91.8138 684.318 97.3531 682.032 99.6682C681.379 100.19 675.989 99.0803 675.989 99.0803C675.989 99.0803 674.875 102.765 674.974 105.24C675.073 107.716 677.556 111.824 678.636 113.146C679.714 114.464 681.087 116.713 681.821 120.186C682.555 123.655 688.729 140.083 690.004 141.208C691.278 142.332 712.986 140.28 714.845 139.594C716.707 138.911 721.56 132.163 722.392 132.115C723.225 132.064 727.391 138.469 726.508 139.984C725.628 141.5 716.758 143.603 716.608 143.504C716.462 143.41 695.101 152.695 685.103 150.446C683.142 149.96 673.539 136.76 673.05 134.606C672.56 132.455 662.563 99.9931 662.563 99.9931C662.563 99.9931 664.571 82.9333 664.841 82.517C665.111 82.1008 681.149 79.5593 681.149 79.5593Z" fill="#F9AA80"/>
</g>
<path d="M664.841 148.05C664.841 148.05 662.906 150.767 662.146 151.476C661.387 152.184 648.154 140.769 648.154 140.769C648.154 140.769 649.819 136.734 649.698 136.223C649.578 135.708 664.841 148.05 664.841 148.05Z" fill="#F9AA80"/>
<path d="M676.942 80.0959C676.723 80.5341 674.419 81.9289 675.401 83.5429C676.38 85.1569 673.513 87.5523 673.488 87.6509C672.509 85.0108 670.059 82.9076 668.931 86.1099C667.806 89.3123 672.02 91.3644 672.801 91.4375C673.586 91.5105 670.99 99.7994 669.029 99.2626C667.072 98.7222 666.725 102.147 664.52 103.221C662.318 104.298 656.797 103.221 656.545 100.679C656.388 99.5073 650.604 99.7483 650.556 97.5976C650.505 95.4468 645.116 96.1808 645.068 95.8375C645.021 95.4979 648.059 92.1714 650.947 93.6393C653.839 95.1036 653.204 89.8235 656.092 89.63C658.984 89.4328 660.112 87.5267 660.112 86.6942C660.112 85.8653 659.619 83.0719 659.619 83.0719C659.619 83.0719 657.954 74.2462 662.431 72.8769C666.908 71.5076 667.623 72.8769 668.832 70.8576C670.044 68.8347 674.941 71.0511 676.248 70.8576C677.556 70.6604 679.155 71.7705 679.253 74.6369C679.352 77.5033 676.942 80.0959 676.942 80.0959Z" fill="#82414A"/>
<path d="M670.599 216.202C670.599 216.202 683.862 230.465 692.355 234.96C692.224 235.091 692.355 236.654 692.355 236.654C692.355 236.654 701.761 236.851 701.568 236.654C701.371 236.461 693.922 234.179 693.399 233.656C692.877 233.134 682.898 213.515 682.898 213.515C682.898 213.515 673.473 214.201 670.599 216.202Z" fill="#F9AA80"/>
<path d="M615.619 202.173C615.619 202.173 598.176 207.453 593.177 211.561C593.52 211.51 592.688 216.202 592.688 216.202L596.361 213.025C596.361 213.025 618.361 213.569 618.657 213.613C618.953 213.657 621.107 203.688 615.619 202.173Z" fill="#F9AA80"/>
<path d="M653.839 117.739L653.96 116.545C653.96 116.545 636.589 112.949 635.023 113.047C633.453 113.146 616.305 136.271 615.666 137.1C615.031 137.932 614.713 141.182 614.246 143.603C613.782 146.024 610.131 152.232 609.419 153.944C609.247 154.017 609.641 151.107 609.641 151.107C609.641 151.107 605.844 156.193 605.522 155.752C605.205 155.313 607.878 150.45 607.878 150.45C607.878 150.45 602.755 153.455 602.78 152.94C602.806 152.429 605.745 148.69 605.745 148.69C605.745 148.69 601.652 150.497 601.652 149.887C601.652 149.274 605.059 146.586 604.986 146.586C604.913 146.586 600.283 147.441 600.476 147.05C600.673 146.659 605.329 144.899 605.329 144.899C605.329 144.899 610.865 137.688 612.019 137.151C612.311 132.652 622.969 106.84 626.741 104.981C630.513 103.122 657.662 99.9931 663.151 101.998C668.851 103.32 678.045 122.139 672.999 128.887C667.952 135.635 653.839 117.739 653.839 117.739Z" fill="#F9AA80"/>
<path d="M653.839 117.739C653.839 117.739 669.175 128.69 671.184 126.638C673.196 124.586 670.158 104.247 663.151 101.998C663.297 101.753 667.952 104.346 667.952 104.346C667.952 104.346 671.184 110.75 674.47 114.124C677.753 117.498 676.234 122.337 677.41 122.534C678.585 122.727 680.104 122.139 680.104 122.139C680.104 122.139 681.28 129.231 680.104 133.09C678.929 136.954 675.303 137.688 675.303 137.688C675.303 137.688 664.67 147.809 664.67 148.784C660.649 144.629 646.587 137.052 645.364 133.923C646.635 133.58 647.029 133.97 647.223 133.485C647.42 132.995 652.861 122.139 652.959 121.504C653.054 120.869 653.839 117.739 653.839 117.739Z" fill="#D54180"/>
<path d="M648.154 140.766C648.154 140.766 661.241 147.148 662.61 151.008C662.661 151.939 659.868 153.575 659.868 153.575C659.868 153.575 657.074 158.417 656.435 158.464C659.083 162.62 673.736 178.902 673.831 194.936C675.792 197.674 676.478 201.392 676.478 201.392C676.478 201.392 682.262 212.587 682.898 213.515C676.526 215.618 670.6 216.202 670.6 216.202C670.6 216.202 661.387 208.724 665.747 198.898C657.761 193.227 646.931 185.256 646.931 185.256C646.931 185.256 641.391 212.832 637.962 214.395C634.534 215.957 618.657 213.613 618.657 213.613C618.657 213.613 614.246 206.573 615.619 202.173C619.88 200.512 627.672 203.283 627.672 203.283C627.672 203.283 622.772 175.09 626.887 162.277C628.26 152.892 642.961 144.384 645.802 144.191C646.197 143.212 648.154 140.766 648.154 140.766Z" fill="#353638"/>
<path d="M646.931 185.256C646.931 185.256 633.617 177.401 629.765 170.624C628.001 184.248 645.853 190.313 645.853 190.313L646.931 185.256Z" fill="#242526"/>
<mask id="mask8_212_551" style="mask-type:luminance" maskUnits="userSpaceOnUse" x="583" y="207" width="12" height="22">
<path d="M583 207.73H594.754V228.296H583V207.73Z" fill="white"/>
</mask>
<g mask="url(#mask8_212_551)">
<path d="M592.687 216.202C592.687 216.202 583.522 228.278 583.278 227.693C583.033 227.105 587.637 208.527 587.981 208.282C588.324 208.041 593.984 210.959 593.984 210.959L592.687 216.202Z" fill="#353638"/>
</g>
<mask id="mask9_212_551" style="mask-type:luminance" maskUnits="userSpaceOnUse" x="691" y="235" width="22" height="7">
<path d="M691.972 235.774H712.537V242H691.972V235.774Z" fill="white"/>
</mask>
<g mask="url(#mask9_212_551)">
<path d="M692.355 236.654C692.355 236.654 691.997 241.544 692.355 241.774C692.713 242 712.216 241.087 712.282 240.306C712.347 239.524 701.374 236.567 701.374 236.567L692.355 236.654Z" fill="#353638"/>
</g>
<path d="M672.688 205.182C671.881 202.48 671.111 199.738 669.712 197.269C668.814 195.677 667.631 194.293 666.882 192.617C666.251 191.204 665.864 189.7 665.378 188.235C663.476 182.495 659.945 177.577 656.457 172.709C654.471 169.934 652.492 167.155 650.495 164.387C649.14 162.507 647.76 160.743 645.729 159.622C649.406 154.981 652.956 150.216 656.089 145.195C655.899 145.075 655.709 144.954 655.515 144.837C652.123 149.865 648.618 154.798 644.685 159.436C644.448 159.721 644.4 160.159 644.78 160.341C647.672 161.758 649.381 164.698 651.192 167.221C653.091 169.872 654.997 172.516 656.888 175.17C658.615 177.595 660.328 180.041 661.785 182.634C663.34 185.398 664.319 188.257 665.349 191.237C666.353 194.132 668.266 196.349 669.541 199.091C670.83 201.863 671.556 204.893 672.393 207.822C673.214 210.685 674.39 212.832 675.474 215.439C675.836 215.366 676.208 215.289 676.595 215.209C675.504 212.058 673.579 208.147 672.688 205.182Z" fill="#FCF2AF"/>
<path d="M677.643 210.743C676.226 208.041 674.55 205.313 673.762 202.345C673.13 199.971 673.462 197.546 671.596 195.692C669.153 193.267 668.748 190.397 667.623 187.271C665.571 181.571 662.468 176.317 659.203 171.237C656.512 167.053 653.883 161.984 649.483 159.333C652.404 155.105 655.471 150.972 658.414 146.754C658.203 146.604 657.987 146.451 657.768 146.301C654.631 150.595 651.623 154.981 648.457 159.25C648.318 159.436 648.307 159.815 648.526 159.954C653.368 162.959 656.249 168.418 659.214 173.114C662.519 178.347 665.571 183.802 667.379 189.751C668.095 192.098 668.602 194.286 670.315 196.126C671.509 197.408 672.002 198.503 672.232 200.26C672.418 201.647 672.652 202.943 673.126 204.269C674.171 207.19 675.821 209.929 677.245 212.678C677.603 213.368 677.95 214.091 678.297 214.822C678.757 214.709 679.232 214.588 679.714 214.46C679.005 213.204 678.282 211.963 677.643 210.743Z" fill="#FCF2AF"/>
<path d="M653.963 116.542C653.963 116.542 658.707 117.429 659.097 118.459C659.492 119.485 655.373 119.923 653.963 116.542Z" fill="#D27771"/>
<path d="M681.379 79.625C681.379 79.625 662.04 88.1293 659.492 87.8701C659.229 87.1507 659.685 84.3172 659.229 83.5029C658.772 82.685 678.732 74.0163 679.517 74.4727C680.302 74.9292 682.179 79.2744 681.379 79.625Z" fill="#D54180"/>
<path d="M679.801 81.7682C679.213 82.2393 678.417 83.0097 678.651 83.8204C678.724 84.076 678.987 84.1636 679.221 84.1307C679.721 84.0577 680.009 83.4041 680.364 83.0828C680.751 82.7359 681.207 82.4912 681.7 82.3415C681.992 82.2502 682.284 81.9398 682.288 81.6185C682.299 80.1104 680.302 81.3702 679.801 81.7682Z" fill="#82414A"/>
<path d="M681.357 86.603C681.32 86.2488 680.999 85.9676 680.638 86.0589C680.232 86.1611 680.075 86.5628 680.075 86.9352C680.075 87.4136 680.061 87.9467 680.313 88.3703C680.586 88.8304 681.167 88.4835 681.313 88.122C681.496 87.6619 681.412 87.085 681.357 86.603Z" fill="#353638"/>
<path d="M682.186 94.7094C681.674 95.1476 681.393 96.0349 681.386 96.6922C681.382 97.0464 681.536 97.4444 681.948 97.459C682.357 97.4736 682.627 97.1011 682.69 96.7396C682.733 96.5023 682.755 96.2613 682.832 96.0313C682.927 95.7574 683.036 95.4945 683.098 95.206C683.212 94.651 682.58 94.3698 682.186 94.7094Z" fill="#B02E3B"/>
<path d="M679.451 122.775C679.451 122.775 677.935 112.123 676.504 109.757C676.577 109.414 677.548 111.042 677.979 111.597C678.406 112.152 681.149 120.073 679.451 122.775Z" fill="#D54180"/>
<path d="M672.126 87.8626C671.538 87.5011 670.921 87.1762 670.319 86.8475C670.015 86.6869 669.712 87.2382 669.921 87.4537C670.249 87.8042 670.629 88.0708 671.023 88.33C670.892 88.3885 670.764 88.4469 670.636 88.5053C670.329 88.6441 670.413 89.2027 670.782 89.1334C671.162 89.0676 671.531 89.0056 671.9 88.9033C672.057 89.0056 672.21 89.1115 672.36 89.2174C672.601 89.389 672.692 89.5241 673.006 89.462C673.119 89.4364 673.2 89.3123 673.218 89.1991C673.295 88.6075 672.572 88.1402 672.126 87.8626Z" fill="#D27771"/>
<path d="M891.51 145.237C891.51 145.237 887.347 162.29 885.028 166.354C883.506 167.705 876.962 173.445 876.962 173.445L869.816 165.397C869.816 165.397 875.819 161.811 876.542 159.818C877.262 157.828 876.962 146.672 876.962 146.672L891.51 145.237Z" fill="#F9AA80"/>
<mask id="mask10_212_551" style="mask-type:luminance" maskUnits="userSpaceOnUse" x="889" y="102" width="37" height="23">
<path d="M889.983 102.073H925.374V124.508H889.983V102.073Z" fill="white"/>
</mask>
<g mask="url(#mask10_212_551)">
<path d="M890.308 124.201L908.643 115.675V116.471L918.085 122.682C918.085 122.682 925.213 107.788 925.29 106.67C925.37 105.557 920.488 102.69 918.407 102.53C916.325 102.369 897.356 105.98 895.994 106.327C894.632 106.67 890.308 124.201 890.308 124.201Z" fill="#F9AA80"/>
</g>
<path d="M871.335 112.436C871.335 112.436 871.335 126.458 874.381 128.371C877.422 130.285 874.275 147.282 874.381 147.972C874.486 148.663 893.43 146.965 893.43 146.965C894.5 144.043 893.964 129.7 893.964 129.7C893.964 129.7 898.287 129.116 898.663 129.54C899.036 129.967 899.996 105.257 899.996 104.943C899.996 104.625 891.028 107.072 891.028 107.072C891.028 107.072 892.149 105.104 889.856 104.625C887.563 104.151 876.301 104.892 871.335 112.436Z" fill="#D54180"/>
<path d="M871.204 111.64L871.364 113.951C871.364 113.951 876.889 110.154 880.997 109.46C885.105 108.77 891.028 107.072 891.028 107.072C891.028 107.072 892.284 105.184 890.71 103.245C889.136 101.306 871.204 111.64 871.204 111.64Z" fill="#B3396C"/>
<path d="M857.971 79.0978C857.7 79.0978 840.958 76.2131 840.422 76.0487C839.881 75.8844 840.239 96.7418 840.422 97.3589C840.6 97.9797 846.315 99.5024 846.359 100.328C846.406 101.153 844.066 106.017 842.941 106.181C841.816 106.345 835.561 106.51 834.974 105.849C834.389 105.191 834.974 98.7209 834.974 98.7209C834.974 98.7209 827.221 67.8694 829.379 65.6383C831.541 63.4109 854.819 66.9821 854.819 66.9821L857.971 79.0978Z" fill="#F9AA80"/>
<path d="M887.508 66.752C887.628 66.752 902.077 65.6128 902.077 65.6128C902.077 65.6128 899.233 49.1445 898.915 48.5456C898.594 47.9505 894.351 47.8007 893.993 47.2165C893.631 46.6323 892.55 40.2823 893.591 40.1107C894.632 39.9391 902.117 40.4174 902.479 41.1367C902.837 41.8524 903.279 47.2165 903.279 47.2165C903.279 47.2165 912.645 71.1338 911.922 72.5287C911.202 73.9236 890.911 77.7504 890.911 77.7504L887.508 66.752Z" fill="#F9AA80"/>
<path d="M867.377 67.4713C867.377 67.4713 864.894 66.7519 864.573 67.369C860.611 67.212 852.205 65.536 851.843 65.6163C851.526 65.6967 851.219 79.6089 850.47 80.7774C852.713 81.4675 860.877 81.6793 861.465 82.0517C862.053 82.4242 868.775 107.813 868.242 108.982C867.709 110.154 870.269 113.181 870.269 113.181C870.269 113.181 875.02 112.33 878.755 108.876C882.491 105.425 889.483 104.625 889.856 104.625C890.228 104.625 894.657 99.6885 894.818 99.2102C894.979 98.7318 890.283 97.242 890.655 94.4267C891.028 91.6114 886.869 82.5812 886.547 81.2557C886.226 79.9266 893.27 80.0325 893.27 80.0325C893.27 80.0325 889.91 66.646 889.75 66.4343C889.589 66.2225 880.731 67.2303 880.037 67.1244C879.343 67.0185 871.923 67.2303 871.923 67.2303L867.377 67.4713Z" fill="#56A4C1"/>
<path d="M867.443 64.4953C867.443 64.4953 867.121 67.8949 866.935 67.946C866.749 68.0007 869.122 69.9945 873.179 70.8161C877.236 71.6413 876.754 69.4358 874.884 68.3988C875.1 67.3106 875.582 64.8678 875.582 64.8678C875.582 64.8678 881.37 64.1229 882.491 61.5997C883.612 59.0765 883.542 49.9879 881.903 46.3765C880.263 42.7689 878.514 42.1591 878.514 42.1591C878.514 42.1591 870.817 41.5712 865.014 46.6723C859.209 51.7735 864.532 58.9852 864.532 58.9852L867.443 64.4953Z" fill="#F9AA80"/>
<path d="M865.854 53.9243C865.854 53.9243 868.031 54.6948 868.217 54.5597C868.403 54.4282 867.523 52.942 867.523 52.942C867.523 52.942 868.564 53.0479 868.67 52.5951C868.776 52.146 867.264 49.8857 867.264 49.8857C867.264 49.8857 868.856 50.4188 869.765 49.7543C870.671 49.0897 870.057 45.796 870.057 45.796C870.057 45.796 872.993 45 874.512 43.8571C876.035 42.7142 878.514 42.1591 878.514 42.1591C878.514 42.1591 876.623 38.5734 870.002 40.6438C863.386 42.7142 860.344 46.9645 860.797 51.0834C861.253 55.1987 867.096 64.3603 867.443 64.4954C868.162 64.4406 868.724 59.3942 868.348 57.616C867.79 58.0395 863.999 58.5471 863.547 56.1554C863.094 53.7636 865.854 53.9243 865.854 53.9243Z" fill="#353638"/>
<path d="M878.087 46.2488C876.696 45.8106 874.684 46.5373 873.446 47.1763C872.953 47.4282 873.073 48.5346 873.709 48.2827C874.388 48.0088 875.067 47.7569 875.786 47.5962C876.502 47.4392 877.269 47.4976 877.959 47.2822C878.364 47.158 878.598 46.4058 878.087 46.2488Z" fill="#353638"/>
<path d="M881.954 45.4418C881.789 45.3505 881.654 45.3103 881.468 45.325C881.351 45.3359 881.238 45.3578 881.128 45.4016C880.84 45.5075 880.628 45.6682 880.468 45.9274C880.227 46.3145 880.5 46.8257 880.971 46.6285C880.917 46.6504 881.081 46.603 881.099 46.5957C881.161 46.5738 881.22 46.5519 881.282 46.5336C881.304 46.5299 881.322 46.5263 881.34 46.5226C881.337 46.5263 881.351 46.5263 881.395 46.5226C881.497 46.5263 881.6 46.519 881.698 46.4898C881.917 46.4204 882.071 46.2451 882.122 46.0224C882.166 45.8435 882.14 45.544 881.954 45.4418Z" fill="#353638"/>
<path d="M882.115 52.9822C881.844 52.2629 881.213 51.5727 880.793 50.9301C880.208 50.0355 879.617 49.1481 878.989 48.2827C878.781 47.9943 878.43 48.4069 878.587 48.6625C879.15 49.579 879.737 50.4773 880.314 51.3829C880.548 51.7553 880.858 52.157 881.048 52.5513C881.487 53.4533 881.256 53.8111 880.439 54.2676C879.891 54.5706 880.165 55.604 880.807 55.2571C881.636 54.8153 882.498 54.0046 882.115 52.9822Z" fill="#D27771"/>
<path d="M875.925 52.0729C875.841 51.6056 875.618 51.1528 875.421 50.7219C875.162 50.1669 874.41 50.5503 874.505 51.0907C874.596 51.5873 874.727 52.1679 875.034 52.5805C875.374 53.0296 876.013 52.544 875.925 52.0729Z" fill="#353638"/>
<path d="M881.121 56.8455C880.979 56.7725 877.463 57.6014 876.247 58.6384C876.115 58.8904 877.861 60.6833 879.716 60.0443C881.57 59.4089 881.483 57.0318 881.121 56.8455Z" fill="white"/>
<path d="M882.918 50.7073C882.83 50.2399 882.611 49.7834 882.414 49.3562C882.155 48.7975 881.399 49.1882 881.497 49.725C881.589 50.2216 881.72 50.8022 882.027 51.2148C882.366 51.664 883.005 51.1747 882.918 50.7073Z" fill="#353638"/>
<path d="M867.709 55.9947C867.019 55.3484 865.668 55.0964 864.755 55.2352C864.474 55.279 864.5 55.75 864.752 55.7573C864.752 55.7573 864.752 55.7573 864.752 55.761C865.182 55.7646 865.588 55.8048 865.997 55.9034C865.847 56.0969 865.719 56.3087 865.613 56.5351C865.496 56.7871 865.858 57.0062 866.004 56.7469C866.114 56.5534 866.241 56.3708 866.391 56.2028C866.435 56.1554 866.482 56.1079 866.53 56.0641C866.873 56.1882 867.205 56.3379 867.578 56.3489C867.76 56.3562 867.83 56.1042 867.709 55.9947Z" fill="#D27771"/>
<path d="M893.967 129.7C893.967 129.7 877.342 129.262 876.98 129.339C876.623 129.423 881.786 130.894 884.346 131.252C886.909 131.61 880.303 133.286 879.982 133.483C879.664 133.684 894.073 133.962 894.073 133.962L893.967 129.7Z" fill="#B3396C"/>
<path d="M908.643 116.471C908.643 116.471 911.721 111.812 914.606 110.256C909.921 108.784 908.121 114.678 908.643 116.471Z" fill="#D27771"/>
<path d="M893.518 45.2519C894.793 44.9744 896.038 44.5508 897.363 44.5033C897.619 44.496 898.229 44.4011 898.422 44.5618C899.218 45.2263 897.951 45.8544 897.597 46.0662C896.976 46.435 896.341 46.7454 895.789 47.2127C895.673 47.3113 895.72 47.5816 895.91 47.5304C896.534 47.3588 898.787 46.3656 899.255 45.314C900.281 45.5367 901.588 45.869 902.044 44.8137C902.395 44.0067 902.504 42.977 902.691 42.1262C902.698 42.1079 902.702 42.086 902.705 42.0678C902.629 41.6223 902.556 41.2827 902.479 41.1403C902.464 41.1038 902.424 41.0673 902.377 41.0344C902.285 41.4835 902.201 41.929 902.106 42.3672C901.928 43.218 901.917 44.0396 901.23 44.6019C900.752 44.989 900.266 44.9926 899.733 44.9598C899.905 43.9191 900.036 42.8857 900.35 41.8669C900.485 41.4324 900.66 41.0198 900.843 40.6108C900.646 40.5743 900.438 40.5415 900.222 40.5122C899.594 41.8925 899.298 43.5393 899.379 44.9415C899.364 44.9415 899.35 44.9379 899.335 44.9379C899.335 44.7078 899.229 44.4814 898.981 44.2623C898.681 43.9958 898.243 43.9337 897.801 43.9447C897.768 42.8163 897.849 41.7684 898.17 40.6766C898.21 40.5451 898.254 40.421 898.298 40.2931C898.104 40.2749 897.907 40.2603 897.71 40.242C897.323 41.4689 897.151 42.7835 897.385 43.9702C897.148 43.9921 896.918 44.025 896.724 44.0505C896.293 44.1017 895.848 44.1601 895.406 44.2404C895.49 42.8163 895.731 41.4981 896.041 40.1325C895.826 40.1179 895.621 40.1106 895.424 40.1033C894.931 41.4361 894.785 42.9514 894.964 44.3281C894.442 44.4413 893.927 44.591 893.441 44.7882C893.463 44.9452 893.493 45.0985 893.518 45.2519Z" fill="#D27771"/>
<path d="M869.816 165.397C869.816 165.397 863.652 170.177 861.093 173.445C858.529 176.71 850.31 189.194 849.937 189.567C849.565 189.939 851.274 193.923 851.431 193.923C851.592 193.923 876.962 173.445 876.962 173.445C876.962 173.445 872.617 166.617 869.816 165.397Z" fill="#56A4C1"/>
<path d="M908.643 116.471C908.643 116.471 904.746 124.654 903.249 139.048C903.249 139.421 905.948 142.448 905.948 142.448C905.948 142.448 918.034 123.318 918.085 122.682C918.14 122.05 908.643 116.471 908.643 116.471Z" fill="#56A4C1"/>
<path d="M905.948 142.448C905.948 142.448 909.121 142.795 908.909 143.43C908.694 144.069 906.985 144.094 906.985 144.094C906.985 144.094 906.985 161.092 906.506 160.723C906.024 160.351 898.126 141.597 897.914 141.173C897.699 140.75 903.249 139.048 903.249 139.048L905.948 142.448Z" fill="#B3396C"/>
<path d="M851.486 193.561C851.486 193.561 855.488 196.472 854.929 196.829C854.367 197.187 851.486 196.231 851.486 196.231C851.486 196.231 848.962 211.731 848.605 211.33C848.243 210.932 842.682 191.531 842.879 191.294C843.08 191.053 849.937 189.567 849.937 189.567L851.486 193.561Z" fill="#B3396C"/>
</svg>
