<svg width="946" height="409" viewBox="0 0 946 409" fill="none" xmlns="http://www.w3.org/2000/svg">
<mask id="mask0_243_479" style="mask-type:luminance" maskUnits="userSpaceOnUse" x="337" y="0" width="286" height="361">
<path d="M337.441 0.497803H622.441V360.498H337.441V0.497803Z" fill="white"/>
</mask>
<g mask="url(#mask0_243_479)">
<path d="M337.441 0.497803H622.441V360.445H337.441V0.497803Z" fill="#D9F9F6"/>
</g>
<mask id="mask1_243_479" style="mask-type:alpha" maskUnits="userSpaceOnUse" x="337" y="110" width="286" height="251">
<mask id="mask2_243_479" style="mask-type:luminance" maskUnits="userSpaceOnUse" x="337" y="110" width="286" height="251">
<path d="M337.441 110.498H622.441V360.498H337.441V110.498Z" fill="white"/>
</mask>
<g mask="url(#mask2_243_479)">
<path d="M337.441 110.498H622.441V360.461H337.441V110.498Z" fill="#D9F9F6"/>
</g>
</mask>
<g mask="url(#mask1_243_479)">
<path fill-rule="evenodd" clip-rule="evenodd" d="M431.994 150.937C431.985 150.592 432.02 150.252 432.1 149.917C432.736 146.259 435.559 143.656 438.664 141.897C443.711 139.084 451.016 137.255 456.556 139.647C461.003 141.616 462.415 145.872 461.815 150.128C462.295 149.832 462.789 149.562 463.297 149.319C466.861 147.525 471.52 146.927 475.049 149.143C478.084 151.042 477.625 153.75 475.896 155.79C478.508 155.474 481.472 155.685 483.554 156.951C484.86 157.76 487.401 160.187 485.495 161.664C484.366 162.508 482.743 162.789 481.401 163.001C478.154 163.493 474.837 163.458 471.555 163.493C458.145 163.599 444.77 162.965 431.359 162.965C429.347 162.965 423.842 162.965 420.243 162.754C419.085 162.785 417.932 162.726 416.784 162.578C415.754 162.456 414.742 162.244 413.749 161.945C411.279 161.136 410.326 158.674 412.69 156.986C414.525 155.685 416.855 155.404 419.043 155.825C419.865 155.967 420.665 156.19 421.442 156.494C421.442 156.388 421.478 156.248 421.478 156.142C421.582 155.704 421.725 155.279 421.906 154.867C422.088 154.455 422.306 154.063 422.559 153.691C422.812 153.318 423.097 152.971 423.413 152.65C423.73 152.33 424.073 152.039 424.442 151.781C426.507 150.339 429.489 150.092 431.994 150.937Z" fill="white"/>
<path fill-rule="evenodd" clip-rule="evenodd" d="M412.722 161.668C412.758 161.091 413.145 160.511 413.993 159.997C414.446 159.73 414.919 159.503 415.411 159.317C415.904 159.13 416.409 158.986 416.926 158.885C417.443 158.784 417.964 158.728 418.491 158.716C419.017 158.703 419.542 158.735 420.063 158.811C420.81 158.936 421.547 159.108 422.272 159.329C422.272 159.237 422.307 159.146 422.307 159.055C422.59 157.746 423.684 156.624 424.954 155.889C426.824 154.799 429.613 154.482 431.942 155.161C431.942 154.885 431.965 154.613 432.012 154.341C432.612 151.486 435.294 149.541 438.223 148.173C442.952 145.956 449.799 144.528 454.986 146.413C459.151 147.933 460.491 151.155 459.962 154.503C460.456 154.261 460.95 154.05 461.374 153.866C464.726 152.46 469.032 152.133 472.349 153.866C475.172 155.354 474.749 157.482 473.161 159.121C475.596 158.879 478.384 159.03 480.325 160.032C481.278 160.517 482.971 161.826 482.76 162.92C482.301 163.011 481.877 163.039 481.454 163.102C478.208 163.528 474.89 163.497 471.608 163.528C458.198 163.619 444.822 163.071 431.412 163.071C429.4 163.071 423.895 163.071 420.295 162.888C419.139 162.916 417.987 162.865 416.837 162.737C415.812 162.627 414.8 162.444 413.802 162.185C413.432 162.032 413.072 161.86 412.722 161.668Z" fill="#CFF0E3" fill-opacity="0.2392"/>
<path d="M411.697 251.841C404.582 254.623 387.593 250.91 382.952 250.064C377.084 248.993 371.216 247.906 365.362 246.74C350.667 243.814 336.084 240.242 321.655 236.143C312.134 233.438 302.684 230.492 293.328 227.297C287.125 225.179 281.035 222.942 274.819 220.855C268.919 218.872 260.041 213.635 266.876 208.599C268.104 207.693 269.636 207.116 271.269 206.787C268.189 204.398 267.467 200.165 269.72 197.582C271.119 195.972 273.551 195.149 276.026 195.225C273.978 187.823 277.923 179.978 285.295 176.385C293.223 172.517 304.333 173.538 312.523 178.422C319.623 182.652 324.41 189.481 325.818 196.485C330.215 196.404 334.714 197.014 338.83 198.687C344.066 200.809 348.583 204.825 349.903 209.51C350.569 211.889 350.268 214.391 349.146 216.489C353.449 216.667 357.764 217.099 361.997 218.08C367.873 219.444 373.638 221.942 377.911 225.793C381.109 228.675 383.38 232.376 383.993 236.105C392.137 236.01 400.511 237.628 408.133 240.811C410.883 241.96 413.813 243.604 414.569 246.067C415.488 249.071 414.207 250.86 411.697 251.841Z" fill="white"/>
<path d="M555.229 212.737C561.962 215.556 577.735 211.986 582.049 211.179C587.503 210.156 592.957 209.117 598.396 207.999C612.047 205.195 625.575 201.747 638.943 197.775C647.764 195.153 656.512 192.291 665.165 189.181C670.901 187.119 676.528 184.937 682.278 182.906C687.735 180.977 695.88 175.831 689.342 170.773C688.167 169.862 686.718 169.277 685.181 168.938C687.991 166.584 688.54 162.378 686.358 159.792C685.003 158.18 682.705 157.344 680.393 157.402C682.09 150.053 678.17 142.221 671.172 138.593C663.646 134.688 653.29 135.623 645.777 140.422C639.265 144.579 634.991 151.337 633.882 158.294C629.768 158.181 625.581 158.756 621.782 160.39C616.95 162.463 612.845 166.425 611.749 171.076C611.197 173.437 611.552 175.929 612.663 178.024C608.645 178.17 604.624 178.568 600.696 179.513C595.242 180.828 589.927 183.271 586.046 187.071C583.141 189.914 581.127 193.579 580.664 197.285C573.047 197.131 565.267 198.68 558.234 201.79C555.698 202.913 553.007 204.529 552.373 206.973C551.603 209.954 552.853 211.743 555.229 212.737Z" fill="white"/>
</g>
<path d="M529.682 260.633C529.682 288.005 507.414 310.19 479.942 310.19C452.467 310.19 430.199 288.005 430.199 260.633C430.199 233.263 452.467 211.039 479.942 211.039C507.414 211.039 529.682 233.224 529.682 260.633Z" fill="#F2EDB6"/>
<mask id="mask3_243_479" style="mask-type:luminance" maskUnits="userSpaceOnUse" x="337" y="244" width="286" height="117">
<path d="M337.441 244.235H622.441V360.498H337.441V244.235Z" fill="white"/>
</mask>
<g mask="url(#mask3_243_479)">
<path d="M622.441 284.202V360.296H337.441V284.503H345.269V261.07H357.316V274.359H358.227V273.072H366.435V274.359H367.347V287.685H374.872V263.494L383.991 251.378V278.599H395.314V264.667H396.264V259.897H396.684L400.065 252.021L400.291 244.792L400.521 252.021L403.902 259.897H404.321V264.667H405.271V283.634H410.59V272.011H418.837V287.685H422.75V272.011H430.996V282.422H435.406V263.873L441.865 257.549H445.512V288.668H447.869V267.545H449.464V266.483H451.441L451.857 257.473L452.277 266.483H454.254V267.545H455.848V277.652H461.701V295.446H465.462V286.473H466.603V275.457H467.819V269.626H473.024V275.457H474.24V286.473H475.381V290.638H477.66V280.227H478.801V265.879H478.459V264.477H486.818V265.879H486.477V280.227H487.618V289.919H490.087V272.958H496.661V284.013H499.587V265.16H505.82V282.233H510.378V267.734H513.722L516.762 271.331V282.233H520.562V290.638H524.514V259.178L526.301 256.415H531.278L533.026 259.368V283.066H535.686V277.045H535.04V276.215H545.224V277.045H544.578V287.646H548.834V273.905L555.294 269.058H558.943V279.165H561.678V272.465H562.59V271.178H570.798V272.465H571.712V284.96H574.332V258.192H575.549V257.323H577.752L578.361 250.773L578.893 257.398H581.021V258.268H582.618V271.974H586.53V258.268H587.937V257.398H590.14L590.672 250.773L591.205 257.398H593.334V258.268H594.701V290.674H599.374V279.658H601.01V269.021H602.757V263.38H610.129V269.021H611.877V279.658H613.51V284.202H622.441Z" fill="#B7EFE4"/>
</g>
<mask id="mask4_243_479" style="mask-type:luminance" maskUnits="userSpaceOnUse" x="337" y="293" width="286" height="68">
<path d="M337.441 293.311H622.441V360.498H337.441V293.311Z" fill="white"/>
</mask>
<g mask="url(#mask4_243_479)">
<path d="M622.441 321.58V360.158H337.441V322.071H346.522V318.134H348.194V308.935H349.981V304.014H357.542V308.898H359.329V318.098H361.001V327.637H365.789V304.393C368.6 304.393 371.413 304.354 374.226 304.354V311.434H378.214V304.316C381.027 304.316 383.84 304.316 386.65 304.316V322.753H389.349V311.963H390.299V310.829H398.697V311.927H399.645V317.719H402.458V308.973H406.183L412.794 313.175V325.063H417.165V315.863H416.48V315.144H426.93V315.863H426.247V321.087H428.983V300.607L430.769 298.033H447.033L448.857 300.418V307.876H452.162V320.444H456.837L456.799 304.923H464.246V301.061H464.701L465.918 298.637H470.783L472 301.061H472.455V305.149H473.443V317.226H485.034V293.603L494.38 304.09V325.063H502.095V313.515H503.045V312.417H511.443V313.515H512.392V301.969H524.743V322.26H529.606V312.305H535.8V326.993H538.348V318.588H539.525V306.171H539.145V304.959H547.694V306.171H547.316V318.588H548.493V327.598H550.811V323.965H551.989V314.426H553.242V309.352H558.563V314.426H559.816V323.965H560.993V331.727H564.833V316.317H570.875V307.533H572.509V306.625H574.522L574.941 298.827L575.358 306.625H577.372V307.533H579.007V325.971H581.401V299.016H585.124L591.737 304.468V320.558H596.22V311.509H604.656V325.101H608.647V311.509H617.084V321.58H622.441Z" fill="#76D6C8"/>
</g>
<mask id="mask5_243_479" style="mask-type:luminance" maskUnits="userSpaceOnUse" x="337" y="305" width="286" height="56">
<path d="M337.441 305.235H622.441V360.498H337.441V305.235Z" fill="white"/>
</mask>
<g mask="url(#mask5_243_479)">
<path d="M621.986 348.875V340.698L619.819 338.087H614.687V323.056H609.329V322.073H611.801V318.476H594.662V322.073H597.132V323.056H591.015V338.087H582.313V326.01H577.942V324.987H578.552C579.385 324.987 580.109 324.305 580.109 323.435C580.109 322.602 579.424 321.883 578.552 321.883H574.447C573.611 321.883 572.889 322.563 572.889 323.435C572.889 324.268 573.572 324.987 574.447 324.987H575.132V326.01H555.448V324.987H556.055C556.891 324.987 557.612 324.305 557.612 323.435C557.612 322.602 556.93 321.883 556.055 321.883H551.95C551.114 321.883 550.392 322.563 550.392 323.435C550.392 324.268 551.077 324.987 551.95 324.987H552.635V326.01H546.67V337.14H530.708V338.502H525.199V322.828H520.677V317.075H518.283V305.376H516.838V317.075H504.374V322.828H499.852V331.726H491.225V322.828H475V313.478H471.39V322.828H467.705V338.502H462.232V330.553H458.129V329.606H458.736C459.573 329.606 460.294 328.924 460.294 328.054C460.294 327.221 459.611 326.502 458.736 326.502H454.632C453.798 326.502 453.074 327.183 453.074 328.054C453.074 328.887 453.759 329.606 454.632 329.606H455.316V330.553H437.229V343.651H429.363V340.017H430.504V338.541H429.021L426.816 335.248H407.777L405.574 338.541H404.245V340.017H405.384V348.913H401.661V344.559H401.091V343.349H401.661V334.641H394.022V332.975H396.493V329.378H379.354V332.975H381.824V334.641H375.364V343.349H375.934V344.559H375.364V345.317H372.666V332.861H373.882V330.704H364.648V328.394H361.191V330.704H352.869V323.018H351.768V330.665H346.371V332.824H347.587V341.229H337.441V360.498H622.441V348.875H621.986ZM382.319 332.899H393.566V334.565H382.319V332.899ZM597.626 322.073H608.874V323.056H597.626V322.073Z" fill="#51B7AA"/>
</g>
<mask id="mask6_243_479" style="mask-type:luminance" maskUnits="userSpaceOnUse" x="52" y="0" width="286" height="361">
<path d="M52.4414 0.497803H337.441V360.498H52.4414V0.497803Z" fill="white"/>
</mask>
<g mask="url(#mask6_243_479)">
<path d="M52.4414 0.497803H337.441V360.445H52.4414V0.497803Z" fill="#197BBB"/>
</g>
<path d="M244.682 260.527C244.682 287.9 222.414 310.085 194.942 310.085C167.467 310.085 145.199 287.9 145.199 260.527C145.199 233.157 167.467 210.934 194.942 210.934C222.414 210.934 244.682 233.119 244.682 260.527Z" fill="#F7F9F8"/>
<mask id="mask7_243_479" style="mask-type:luminance" maskUnits="userSpaceOnUse" x="52" y="244" width="286" height="117">
<path d="M52.4414 244.235H337.441V360.497H52.4414V244.235Z" fill="white"/>
</mask>
<g mask="url(#mask7_243_479)">
<path d="M337.441 284.202V360.296H52.4414V284.503H60.2687V261.07H72.3155V274.359H73.2272V273.072H81.4348V274.359H82.3465V287.685H89.8715V263.494L98.9908 251.378V278.599H110.314V264.667H111.264V259.897H111.684L115.065 252.021L115.291 244.792L115.52 252.021L118.902 259.897H119.321V264.667H120.271V283.634H125.59V272.011H133.837V287.685H137.749V272.011H145.996V282.422H150.406V263.873L156.865 257.549H160.512V288.668H162.869V267.545H164.464V266.483H166.44L166.857 257.473L167.277 266.483H169.253V267.545H170.848V277.652H176.701V295.446H180.462V286.473H181.603V275.457H182.819V269.626H188.023V275.457H189.24V286.473H190.381V290.638H192.66V280.227H193.801V265.879H193.459V264.477H201.818V265.879H201.477V280.227H202.618V289.919H205.087V272.958H211.661V284.013H214.586V265.16H220.819V282.233H225.378V267.734H228.722L231.762 271.331V282.233H235.562V290.638H239.514V259.178L241.301 256.415H246.278L248.026 259.368V283.066H250.686V277.045H250.04V276.215H260.224V277.045H259.578V287.646H263.834V273.905L270.294 269.058H273.943V279.165H276.678V272.465H277.59V271.178H285.798V272.465H286.712V284.96H289.332V258.192H290.548V257.323H292.752L293.361 250.773L293.893 257.398H296.021V258.268H297.618V271.974H301.53V258.268H302.937V257.398H305.14L305.672 250.773L306.205 257.398H308.333V258.268H309.701V290.674H314.374V279.658H316.01V269.021H317.757V263.38H325.129V269.021H326.877V279.658H328.51V284.202H337.441Z" fill="#6E74A1"/>
</g>
<mask id="mask8_243_479" style="mask-type:luminance" maskUnits="userSpaceOnUse" x="52" y="293" width="286" height="68">
<path d="M52.4414 293.311H337.441V360.498H52.4414V293.311Z" fill="white"/>
</mask>
<g mask="url(#mask8_243_479)">
<path d="M337.441 321.58V360.158H52.4414V322.071H61.5217V318.134H63.194V308.934H64.9807V304.014H72.5423V308.898H74.3291V318.097H76.0013V327.637H80.7888V304.393C83.5995 304.393 86.4125 304.354 89.2255 304.354V311.433H93.2136V304.315C96.0266 304.315 98.8396 304.315 101.65 304.315V322.753H104.349V311.963H105.299V310.829H113.697V311.926H114.645V317.718H117.458V308.973H121.183L127.794 313.175V325.062H132.165V315.863H131.48V315.144H141.93V315.863H141.247V321.087H143.982V300.607L145.769 298.032H162.033L163.857 300.417V307.875H167.162V320.443H171.837L171.798 304.922H179.246V301.061H179.701L180.918 298.637H185.783L187 301.061H187.455V305.148H188.443V317.225H200.034V293.603L209.38 304.089V325.062H217.095V313.515H218.045V312.417H226.443V313.515H227.391V301.969H239.743V322.26H244.606V312.305H250.8V326.993H253.347V318.588H254.525V306.171H254.145V304.959H262.694V306.171H262.316V318.588H263.493V327.598H265.811V323.965H266.989V314.425H268.242V309.352H273.563V314.425H274.816V323.965H275.993V331.726H279.833V316.317H285.875V307.533H287.509V306.625H289.522L289.941 298.827L290.358 306.625H292.372V307.533H294.007V325.971H296.401V299.016H300.124L306.737 304.468V320.557H311.22V311.509H319.656V325.101H323.647V311.509H332.083V321.58H337.441Z" fill="#293378"/>
</g>
<mask id="mask9_243_479" style="mask-type:luminance" maskUnits="userSpaceOnUse" x="52" y="305" width="286" height="56">
<path d="M52.4414 305.235H337.441V360.498H52.4414V305.235Z" fill="white"/>
</mask>
<g mask="url(#mask9_243_479)">
<path d="M336.986 348.875V340.698L334.819 338.087H329.687V323.056H324.329V322.073H326.801V318.476H309.662V322.073H312.131V323.056H306.015V338.087H297.313V326.01H292.942V324.987H293.552C294.385 324.987 295.109 324.305 295.109 323.435C295.109 322.602 294.424 321.883 293.552 321.883H289.447C288.611 321.883 287.889 322.563 287.889 323.435C287.889 324.268 288.572 324.987 289.447 324.987H290.132V326.01H270.448V324.987H271.055C271.891 324.987 272.612 324.305 272.612 323.435C272.612 322.602 271.93 321.883 271.055 321.883H266.95C266.114 321.883 265.392 322.563 265.392 323.435C265.392 324.268 266.077 324.987 266.95 324.987H267.635V326.01H261.67V337.14H245.708V338.502H240.199V322.828H235.677V317.075H233.283V305.376H231.838V317.075H219.374V322.828H214.852V331.726H206.225V322.828H190V313.478H186.39V322.828H182.704V338.502H177.232V330.553H173.129V329.606H173.736C174.572 329.606 175.294 328.924 175.294 328.054C175.294 327.221 174.611 326.502 173.736 326.502H169.631C168.798 326.502 168.074 327.183 168.074 328.054C168.074 328.887 168.759 329.606 169.631 329.606H170.316V330.553H152.229V343.651H144.363V340.017H145.503V338.541H144.021L141.815 335.248H122.777L120.574 338.541H119.245V340.017H120.384V348.913H116.661V344.559H116.091V343.349H116.661V334.641H109.022V332.975H111.493V329.378H94.3544V332.975H96.8238V334.641H90.364V343.349H90.9344V344.559H90.364V345.317H87.6655V332.861H88.8819V330.704H79.6481V328.394H76.1914V330.704H67.8693V323.018H66.7675V330.665H61.3706V332.824H62.5869V341.229H52.4414V360.498H337.441V348.875H336.986ZM97.3186 332.899H108.566V334.565H97.3186V332.899ZM312.626 322.073H323.874V323.056H312.626V322.073Z" fill="#1A1A4E"/>
</g>
<ellipse cx="112.256" cy="204.361" rx="1.31944" ry="1.31453" fill="#FDFF95"/>
<ellipse cx="187.025" cy="174.565" rx="1.31944" ry="1.31453" fill="#FDFF95"/>
<ellipse cx="141.284" cy="140.387" rx="1.31944" ry="1.31453" fill="#FDFF95"/>
<ellipse cx="301.817" cy="119.355" rx="1.31944" ry="1.31453" fill="#FDFF95"/>
<ellipse cx="200.761" cy="111.812" rx="1.31944" ry="1.31453" fill="#FDFF95"/>
<ellipse cx="237.761" cy="44.8123" rx="1.31944" ry="1.31453" fill="#FDFF95"/>
<ellipse cx="140.761" cy="72.8123" rx="1.31944" ry="1.31453" fill="#FDFF95"/>
<ellipse cx="103.761" cy="31.8123" rx="1.31944" ry="1.31453" fill="#FDFF95"/>
<ellipse cx="304.761" cy="61.8123" rx="1.31944" ry="1.31453" fill="#FDFF95"/>
<ellipse cx="243.321" cy="149.151" rx="1.31944" ry="1.31453" fill="#FDFF95"/>
<ellipse cx="299.178" cy="195.159" rx="1.31944" ry="1.31453" fill="#FDFF95"/>
<ellipse cx="260.914" cy="174.565" rx="1.31944" ry="1.31453" fill="#FDFF95"/>
<ellipse cx="262.233" cy="205.675" rx="1.31944" ry="1.31453" fill="#FDFF95"/>
<ellipse cx="322.928" cy="147.836" rx="1.31944" ry="1.31453" fill="#FDFF95"/>
<ellipse cx="77.5108" cy="128.118" rx="1.31944" ry="1.31453" fill="#FDFF95"/>
<ellipse cx="97.3026" cy="233.719" rx="1.31944" ry="1.31453" fill="#FDFF95"/>
<rect x="52.4414" y="0.497803" width="285" height="360" fill="white" fill-opacity="0.5"/>
<mask id="mask10_243_479" style="mask-type:luminance" maskUnits="userSpaceOnUse" x="622" y="0" width="286" height="361">
<path d="M622.441 0.497803H907.441V360.498H622.441V0.497803Z" fill="white"/>
</mask>
<g mask="url(#mask10_243_479)">
<path d="M622.441 0.497803H907.441V360.445H622.441V0.497803Z" fill="#FF891F"/>
</g>
<mask id="mask11_243_479" style="mask-type:alpha" maskUnits="userSpaceOnUse" x="622" y="110" width="286" height="251">
<mask id="mask12_243_479" style="mask-type:luminance" maskUnits="userSpaceOnUse" x="622" y="110" width="286" height="251">
<path d="M622.441 110.498H907.441V360.498H622.441V110.498Z" fill="white"/>
</mask>
<g mask="url(#mask12_243_479)">
<path d="M622.441 110.498H907.441V360.461H622.441V110.498Z" fill="#FF891F"/>
</g>
</mask>
<g mask="url(#mask11_243_479)">
<mask id="mask13_243_479" style="mask-type:luminance" maskUnits="userSpaceOnUse" x="831" y="240" width="144" height="35">
<path d="M831.353 240.636H974.376V274.218H831.353V240.636Z" fill="white"/>
</mask>
<g mask="url(#mask13_243_479)">
<path d="M967.643 262.505C966.543 262.505 965.504 262.738 964.587 263.143C963.548 259.942 960.167 257.595 956.158 257.595C955.443 257.595 954.746 257.672 954.079 257.812C953.021 253.244 948.381 249.806 942.819 249.806C937.971 249.806 933.83 252.418 932.141 256.114C929.861 253.906 926.551 252.516 922.869 252.516C922.25 252.516 921.642 252.557 921.05 252.631C920.331 245.917 913.838 240.664 905.934 240.664C901.022 240.664 896.654 242.696 893.875 245.844C892.761 245.557 891.58 245.402 890.358 245.402C884.834 245.402 880.152 248.53 878.519 252.864C877.513 252.635 876.456 252.512 875.37 252.512C873.978 252.512 872.642 252.712 871.392 253.081C869.29 251.069 866.262 249.806 862.892 249.806C857.33 249.806 852.689 253.244 851.632 257.812C850.963 257.672 850.273 257.595 849.553 257.595C845.538 257.595 842.157 259.942 841.124 263.143C840.207 262.734 839.167 262.505 838.067 262.505C834.357 262.505 831.349 265.122 831.349 268.347C831.349 271.573 834.357 274.19 838.067 274.19H967.643C971.353 274.19 974.361 271.573 974.361 268.347C974.361 265.122 971.353 262.505 967.643 262.505Z" fill="white"/>
</g>
<mask id="mask14_243_479" style="mask-type:luminance" maskUnits="userSpaceOnUse" x="572" y="170" width="144" height="35">
<path d="M572.302 170.528H715.325V204.11H572.302V170.528Z" fill="white"/>
</mask>
<g mask="url(#mask14_243_479)">
<path d="M708.593 192.397C707.492 192.397 706.453 192.629 705.536 193.035C704.498 189.833 701.116 187.486 697.107 187.486C696.392 187.486 695.695 187.564 695.028 187.703C693.97 183.136 689.33 179.697 683.768 179.697C678.92 179.697 674.779 182.31 673.09 186.006C670.81 183.798 667.5 182.408 663.819 182.408C663.199 182.408 662.592 182.449 661.999 182.523C661.28 175.809 654.788 170.555 646.884 170.555C641.971 170.555 637.603 172.587 634.824 175.736C633.71 175.449 632.53 175.294 631.307 175.294C625.783 175.294 621.101 178.422 619.468 182.755C618.463 182.526 617.405 182.404 616.319 182.404C614.927 182.404 613.592 182.604 612.341 182.972C610.239 180.961 607.211 179.697 603.841 179.697C598.279 179.697 593.638 183.136 592.581 187.703C591.913 187.564 591.222 187.486 590.502 187.486C586.487 187.486 583.107 189.833 582.073 193.035C581.156 192.626 580.116 192.397 579.016 192.397C575.306 192.397 572.298 195.014 572.298 198.239C572.298 201.465 575.306 204.082 579.016 204.082H708.593C712.302 204.082 715.31 201.465 715.31 198.239C715.31 195.014 712.302 192.397 708.593 192.397Z" fill="white"/>
</g>
</g>
<path d="M814.682 260.528C814.682 287.9 792.414 310.085 764.942 310.085C737.467 310.085 715.199 287.9 715.199 260.528C715.199 233.158 737.467 210.934 764.942 210.934C792.414 210.934 814.682 233.119 814.682 260.528Z" fill="#FFB600"/>
<mask id="mask15_243_479" style="mask-type:luminance" maskUnits="userSpaceOnUse" x="622" y="244" width="286" height="117">
<path d="M622.441 244.235H907.441V360.498H622.441V244.235Z" fill="white"/>
</mask>
<g mask="url(#mask15_243_479)">
<path d="M907.441 284.202V360.297H622.441V284.504H630.269V261.07H642.316V274.359H643.227V273.072H651.435V274.359H652.346V287.685H659.871V263.494L668.991 251.378V278.6H680.314V264.667H681.264V259.897H681.684L685.065 252.022L685.291 244.792L685.52 252.022L688.902 259.897H689.321V264.667H690.271V283.634H695.59V272.011H703.837V287.685H707.749V272.011H715.996V282.422H720.406V263.873L726.865 257.549H730.512V288.669H732.869V267.545H734.464V266.484H736.44L736.857 257.474L737.277 266.484H739.253V267.545H740.848V277.653H746.7V295.447H750.462V286.473H751.603V275.457H752.819V269.626H758.023V275.457H759.24V286.473H760.381V290.638H762.66V280.227H763.801V265.879H763.459V264.478H771.818V265.879H771.477V280.227H772.617V289.919H775.087V272.958H781.661V284.013H784.586V265.16H790.819V282.233H795.378V267.734H798.722L801.762 271.331V282.233H805.562V290.638H809.514V259.179L811.301 256.415H816.278L818.026 259.368V283.066H820.686V277.046H820.04V276.215H830.224V277.046H829.578V287.646H833.834V273.905L840.294 269.058H843.943V279.166H846.678V272.465H847.59V271.178H855.797V272.465H856.711V284.96H859.332V258.193H860.548V257.323H862.752L863.361 250.773L863.893 257.398H866.021V258.268H867.617V271.975H871.53V258.268H872.936V257.398H875.14L875.672 250.773L876.205 257.398H878.333V258.268H879.701V290.675H884.374V279.659H886.01V269.022H887.757V263.38H895.129V269.022H896.877V279.659H898.51V284.202H907.441Z" fill="#931616"/>
</g>
<mask id="mask16_243_479" style="mask-type:luminance" maskUnits="userSpaceOnUse" x="622" y="293" width="286" height="68">
<path d="M622.441 293.311H907.441V360.498H622.441V293.311Z" fill="white"/>
</mask>
<g mask="url(#mask16_243_479)">
<path d="M907.441 321.58V360.158H622.441V322.071H631.522V318.134H633.194V308.935H634.981V304.014H642.542V308.898H644.329V318.098H646.001V327.637H650.789V304.393C653.6 304.393 656.412 304.354 659.225 304.354V311.434H663.214V304.316C666.027 304.316 668.84 304.316 671.65 304.316V322.753H674.349V311.963H675.299V310.829H683.697V311.927H684.645V317.719H687.458V308.973H691.183L697.794 313.175V325.063H702.165V315.863H701.48V315.144H711.93V315.863H711.247V321.087H713.982V300.607L715.769 298.033H732.033L733.857 300.418V307.876H737.162V320.444H741.837L741.798 304.923H749.245V301.061H749.701L750.918 298.637H755.783L756.999 301.061H757.455V305.149H758.443V317.226H770.034V293.603L779.38 304.09V325.063H787.095V313.515H788.045V312.417H796.443V313.515H797.391V301.969H809.743V322.26H814.606V312.305H820.8V326.993H823.347V318.588H824.525V306.171H824.145V304.959H832.693V306.171H832.315V318.588H833.493V327.598H835.811V323.965H836.988V314.426H838.242V309.352H843.563V314.426H844.816V323.965H845.993V331.727H849.832V316.317H855.875V307.533H857.509V306.625H859.522L859.941 298.827L860.358 306.625H862.372V307.533H864.007V325.971H866.401V299.016H870.124L876.737 304.468V320.558H881.22V311.509H889.656V325.101H893.647V311.509H902.083V321.58H907.441Z" fill="#631212"/>
</g>
<mask id="mask17_243_479" style="mask-type:luminance" maskUnits="userSpaceOnUse" x="622" y="305" width="286" height="56">
<path d="M622.441 305.235H907.441V360.498H622.441V305.235Z" fill="white"/>
</mask>
<g mask="url(#mask17_243_479)">
<path d="M906.985 348.875V340.698L904.818 338.087H899.687V323.056H894.329V322.073H896.801V318.476H879.662V322.073H882.131V323.056H876.015V338.087H867.313V326.01H862.942V324.987H863.551C864.385 324.987 865.109 324.305 865.109 323.435C865.109 322.602 864.424 321.883 863.551 321.883H859.447C858.61 321.883 857.889 322.563 857.889 323.435C857.889 324.268 858.571 324.987 859.447 324.987H860.131V326.01H840.447V324.987H841.054C841.891 324.987 842.612 324.305 842.612 323.435C842.612 322.602 841.93 321.883 841.054 321.883H836.95C836.113 321.883 835.392 322.563 835.392 323.435C835.392 324.268 836.077 324.987 836.95 324.987H837.634V326.01H831.669V337.14H815.708V338.502H810.199V322.828H805.677V317.075H803.283V305.376H801.838V317.075H789.374V322.828H784.852V331.726H776.225V322.828H760V313.478H756.39V322.828H752.704V338.502H747.232V330.553H743.129V329.606H743.736C744.572 329.606 745.294 328.924 745.294 328.054C745.294 327.221 744.611 326.502 743.736 326.502H739.631C738.798 326.502 738.074 327.183 738.074 328.054C738.074 328.887 738.759 329.606 739.631 329.606H740.316V330.553H722.229V343.651H714.363V340.017H715.503V338.541H714.021L711.815 335.248H692.777L690.574 338.541H689.245V340.017H690.384V348.913H686.661V344.559H686.091V343.349H686.661V334.641H679.022V332.975H681.493V329.378H664.354V332.975H666.824V334.641H660.364V343.349H660.934V344.559H660.364V345.317H657.665V332.861H658.882V330.704H649.648V328.394H646.191V330.704H637.869V323.018H636.767V330.665H631.371V332.824H632.587V341.229H622.441V360.498H907.441V348.875H906.985ZM667.319 332.899H678.566V334.565H667.319V332.899ZM882.626 322.073H893.874V323.056H882.626V322.073Z" fill="#470F09"/>
</g>
<rect x="622.441" y="0.497803" width="285" height="360" fill="white" fill-opacity="0.5"/>
<g filter="url(#filter0_d_243_479)">
<path d="M589.15 255.866C589.15 255.866 585.443 286.976 581.825 293.231C570.706 305.924 555.132 321.52 554.249 322.491C553.369 323.459 553.058 325.796 553.058 325.796L551.295 321.83C551.295 321.83 552.883 320.242 553.5 319.274C554.117 318.303 568.942 282.73 576.001 283.664C574.679 275.43 572.207 255.427 572.207 253.751C572.207 252.079 589.15 255.866 589.15 255.866Z" fill="#F9AA80"/>
<path d="M572.846 255.267C572.846 255.267 574.745 259.922 579.963 261.507C585.181 263.092 588.314 262.3 588.314 262.3L589.46 254.237L572.846 255.267Z" fill="#D27771"/>
<path d="M580.503 257.571C580.503 257.571 579.386 258.812 590.209 257.019C601.032 255.219 621.798 250.169 621.798 250.169C621.798 250.169 616.211 253.142 612.213 258.44C608.211 263.738 602.825 279.016 601.134 280.188C600.21 280.305 601.682 283.832 601.682 283.657C601.682 283.478 603.033 281.013 603.033 281.013C603.033 281.013 628.622 255.34 631.328 251.462C634.038 247.584 635.33 243.637 634.505 242.494C633.683 241.354 607.203 236.626 595.412 237.404C583.621 238.185 580.503 257.571 580.503 257.571Z" fill="#F9AA80"/>
<mask id="mask18_243_479" style="mask-type:luminance" maskUnits="userSpaceOnUse" x="614" y="202" width="41" height="36">
<path d="M614.904 202.345H654.669V237.867H614.904V202.345Z" fill="white"/>
</mask>
<g mask="url(#mask18_243_479)">
<path d="M619.03 202.437C619.03 202.437 619.329 202.506 621.181 206.121C623.036 209.732 631.42 226.036 631.814 226.168C632.212 226.299 645.978 213.435 646.153 212.862C646.329 212.289 646.329 204.401 647.391 203.784C648.45 203.167 654.669 208.016 654.493 210.704C654.318 213.391 648.845 215.505 648.845 215.505C648.845 215.505 635.17 237.36 632.873 237.404C630.58 237.447 615.886 222.071 615.798 221.808C615.711 221.541 619.03 202.437 619.03 202.437Z" fill="#F9AA80"/>
</g>
<path d="M618.669 201.407C618.669 201.407 619.947 202.108 619.592 205.592C619.242 209.072 619.162 216.167 619.162 216.167C619.162 216.167 615.886 212.555 618.669 201.407Z" fill="#82AD4F"/>
<path d="M598.282 208.148L598.636 207.089C598.636 207.089 582.384 202.17 581.562 202.404C580.737 202.641 571.323 220.851 570.914 221.677C570.502 222.498 572.426 226.785 572.473 227.578C572.517 228.374 570.312 231.28 569.603 231.061C568.899 230.838 564.396 229.21 564.09 228.374C563.779 227.534 567.442 220.837 567.442 220.837C567.442 220.837 574.544 194.656 575.384 193.801C576.223 192.947 608.828 194.356 610.946 195.678C613.063 197 616.419 199.819 616.218 208.06C616.018 216.302 609.091 219.121 603.664 217.401C598.238 215.685 598.282 208.148 598.282 208.148Z" fill="#F9AA80"/>
<path d="M574.325 242.768C574.325 242.768 587.78 230.225 588.047 230.225C588.314 230.225 589.369 227.975 589.369 227.975C589.369 227.975 598.651 233.836 598.37 234.541C598.092 235.245 596.73 236.082 596.73 236.082L596.475 236.746C596.475 236.746 581.142 245.645 579.963 256.968C577.545 257.322 575.552 255.646 575.552 255.646C575.552 255.646 571.677 246.675 574.325 242.768Z" fill="#5A7A8B"/>
<path d="M596.73 236.082C596.73 236.082 589.884 230.959 588.047 230.225C588.175 230.133 589.446 228.136 589.369 227.975C589.296 227.815 598.384 234.132 598.151 235.012C598.092 235.246 596.73 236.082 596.73 236.082Z" fill="#4C6777"/>
<path d="M571.385 252.137C571.385 252.137 571.323 245.703 574.325 242.768C573.324 251.403 579.09 257.571 579.09 257.571C579.09 257.571 571.56 254.456 571.385 252.137Z" fill="#4C6777"/>
<path d="M612.446 195.678H610.946C610.946 195.678 616.814 199.245 615.181 208.94C613.549 218.635 606.556 217.003 602.595 214.625C598.636 212.245 598.282 208.148 598.282 208.148C598.282 208.148 589.975 225.846 589.15 226.376C588.325 226.902 588.562 228.315 588.562 228.315C588.562 228.315 597.15 233.365 598.092 235.245C600.623 236.067 602.62 233.248 602.62 233.248C602.62 233.248 612.622 225.846 615.74 224.671C618.858 223.495 619.373 215.505 619.373 215.505C619.373 215.505 617.149 202.816 617.149 200.406C617.149 198 612.446 195.678 612.446 195.678Z" fill="#82AD4F"/>
<path d="M615.623 192.041C615.623 192.041 613.571 195.546 612.446 195.678C615.116 198.65 617.387 202.199 617.076 206.647C616.77 211.098 616.262 214.162 618.866 215.352C618.468 211.08 618.358 204.226 619.373 200.702C620.388 197.175 622.948 195.503 622.948 195.503C622.948 195.503 628.287 196.47 629.652 195.371C631.021 194.268 631.902 186.998 631.902 186.998C631.902 186.998 633.625 185.764 633.625 185.41C633.625 185.059 630.09 182.018 630.068 181.006C630.05 179.991 628.374 176.113 626.851 175.036C625.329 173.955 617.164 172.984 613.151 175.54C609.138 178.096 615.623 192.041 615.623 192.041Z" fill="#F9AA80"/>
<mask id="mask19_243_479" style="mask-type:luminance" maskUnits="userSpaceOnUse" x="577" y="169" width="51" height="25">
<path d="M577.512 169H627.056V193.932H577.512V169Z" fill="white"/>
</mask>
<g mask="url(#mask19_243_479)">
<path d="M626.851 175.036C626.851 175.036 622.813 174.813 622.13 174.682C621.447 174.55 624.314 176.511 623.609 177.059C622.904 177.61 621.049 177.566 620.808 178.03C620.564 178.494 622.152 180.1 621.535 180.542C620.918 180.98 619.727 180.433 619.57 181.072C619.417 181.711 620.166 182.149 620.012 182.744C619.859 183.339 619.154 184.132 619.154 184.132C619.154 184.132 618.577 180.079 616.153 181.51C613.724 182.945 614.805 186.578 618.314 187.546C617.982 189.708 616.284 189.532 615.952 189.949C615.623 190.368 616.065 191.292 615.623 192.041C614.298 191.38 612.048 191.625 608.609 192.771C605.165 193.914 603.975 194.531 601.284 192.286C598.592 190.04 594.401 188.937 590.428 188.627C586.459 188.32 581.96 186.162 581.12 185.191C582.004 184.223 590.384 184.617 589.767 183.956C589.15 183.296 580.017 180.652 580.061 180.298C580.105 179.947 581.869 179.242 581.869 179.067C581.869 178.888 578.341 177.658 578.341 177.658C578.341 177.658 584.209 173.071 591.885 173.027C599.564 172.987 605.738 173.382 607.637 171.311C609.532 169.241 611.694 169.018 615.225 170.252C618.756 171.487 618.091 169.372 621.977 170.384C625.858 171.399 626.851 175.036 626.851 175.036Z" fill="#353638"/>
</g>
<path d="M625.566 190.098C625.566 190.098 629.565 189.554 629.992 189.978C630.415 190.434 629.064 192.373 627.418 192.213C625.771 192.052 625.566 190.098 625.566 190.098Z" fill="white"/>
<path d="M629.188 180.594C627.958 179.863 626.085 181.258 625.234 182.072C625.007 182.291 625.164 182.81 625.519 182.613C626.103 182.284 626.691 181.923 627.315 181.671C627.899 181.437 628.56 181.448 629.115 181.174C629.298 181.083 629.397 180.718 629.188 180.594Z" fill="#353638"/>
<path d="M627.94 185.078C627.9 184.778 627.911 184.475 627.838 184.179C627.728 183.752 627.177 183.946 627.067 184.26C626.895 184.745 626.939 185.545 627.308 185.925C627.425 186.049 627.556 186.034 627.67 185.961C627.677 185.965 627.702 185.95 627.75 185.914C627.783 185.892 627.812 185.866 627.83 185.833C627.903 185.753 627.933 185.662 627.954 185.56C627.984 185.395 627.962 185.242 627.94 185.078Z" fill="#353638"/>
<path d="M618.72 185.742C618.588 185.18 618.143 184.727 617.778 184.293C617.431 183.88 617.073 183.329 616.565 183.106C616.332 183 616.175 183.329 616.233 183.511C616.386 184.011 616.795 184.428 617.128 184.837C616.952 184.895 616.77 184.939 616.62 185.048C616.43 185.183 616.332 185.556 616.613 185.662C616.803 185.731 617 185.698 617.197 185.673C617.358 185.651 617.515 185.611 617.664 185.549C617.854 185.786 618.066 186.001 618.325 186.122C618.534 186.22 618.764 185.936 618.72 185.742Z" fill="#D27771"/>
<path d="M596.679 237.184C596.504 237.243 582.738 245.937 581.325 258.688C579.915 258.98 578.502 257.279 578.385 256.983C578.268 256.691 582.384 238.01 596.679 236.304C596.796 236.48 596.679 237.184 596.679 237.184Z" fill="#ABC9D5"/>
<path d="M578.856 257.041C578.856 257.041 571.677 252.488 571.385 252.137C571.089 251.783 571.148 253.868 571.148 253.868C571.148 253.868 575.541 258.046 579.963 258.44C579.765 257.925 578.856 257.041 578.856 257.041Z" fill="#ABC9D5"/>
<path d="M598.636 207.089C598.56 206.877 608.094 209.984 608.094 209.984C608.094 209.984 601.503 215.301 598.636 207.089Z" fill="#D27771"/>
<mask id="mask20_243_479" style="mask-type:luminance" maskUnits="userSpaceOnUse" x="645" y="204" width="10" height="10">
<path d="M645.752 204.215H654.669V213.563H645.752V204.215Z" fill="white"/>
</mask>
<g mask="url(#mask20_243_479)">
<path d="M654.201 211.693C653.96 211.821 653.716 211.931 653.467 211.993C652.62 212.205 652.105 211.847 651.645 211.248C652.595 210.759 653.413 210.068 654.143 209.294C654.052 209.108 653.946 208.918 653.825 208.728C653.11 209.51 652.325 210.185 651.437 210.769C651.346 210.13 651.098 209.481 650.743 208.863C651.273 208.33 651.799 207.804 652.303 207.249C652.365 207.184 652.427 207.118 652.493 207.052C652.365 206.917 652.233 206.782 652.102 206.654C652.007 206.771 651.919 206.884 651.828 206.987C651.39 207.501 650.977 208.035 650.557 208.564C650.203 208.013 649.765 207.49 649.265 207.038C649.604 206.574 649.947 206.117 650.272 205.643C650.353 205.522 650.44 205.402 650.528 205.281C650.382 205.168 650.24 205.062 650.097 204.956C650.039 205.048 649.98 205.139 649.922 205.227C649.586 205.73 649.265 206.249 648.947 206.767C648.275 206.22 647.519 205.8 646.749 205.566C646.716 205.756 646.687 205.957 646.661 206.169C647.369 206.453 648.019 206.859 648.604 207.403C649.52 208.25 650.546 209.502 650.82 210.773C649.75 210.536 648.465 209.214 647.676 208.688C647.424 208.52 647.209 208.922 647.402 209.108C648.034 209.725 648.768 210.244 649.502 210.737C650.02 211.084 650.499 211.507 651.138 211.474C651.171 211.471 651.2 211.467 651.225 211.456C651.594 212.139 652.062 212.767 652.923 212.76C653.102 212.76 653.274 212.73 653.446 212.69C653.752 212.373 654.015 212.04 654.201 211.693Z" fill="#D27771"/>
</g>
<path d="M631.814 226.168C631.814 226.168 634.008 230.692 634.213 230.692C634.417 230.692 637.182 228.107 631.814 226.168Z" fill="#D27771"/>
<path d="M601.737 283.497C601.737 283.497 601.24 296.054 600.944 295.788C600.652 295.525 596.592 282.098 596.562 281.777C596.533 281.452 600.999 280.13 601.134 280.188C601.269 280.247 601.737 283.497 601.737 283.497Z" fill="#4989A6"/>
<mask id="mask21_243_479" style="mask-type:luminance" maskUnits="userSpaceOnUse" x="546" y="321" width="9" height="22">
<path d="M546 321.063H554.143V342.169H546V321.063Z" fill="white"/>
</mask>
<g mask="url(#mask21_243_479)">
<path d="M553.281 324.671C553.281 324.671 553.413 342.143 553.015 342.056C552.617 341.964 546 323.108 546.219 322.666C546.442 322.224 551.682 321.428 551.682 321.428L553.281 324.671Z" fill="#4989A6"/>
</g>
<path d="M167.646 313.952C167.646 314.095 175.716 320.978 175.716 320.839C175.716 320.697 178.104 313.952 178.104 313.952L173.321 311.331L167.646 313.952Z" fill="#F9AA80"/>
<path d="M32.6028 293.687L42.67 294.216L41.2021 302.742L31.9455 300.493L32.6028 293.687Z" fill="#F9AA80"/>
<path d="M105.176 280.789C105.176 280.789 80.0358 312.923 78.3488 314.234C76.6581 315.544 69.3405 313.861 67.9347 313.204C66.5289 312.547 41.1071 310.673 39.7013 310.111C38.2954 309.549 36.1374 293.906 35.9475 293.248C35.7613 292.595 60.712 294.749 64.557 297.09C64.2759 296.246 64.4658 295.498 64.8382 295.403C65.2143 295.311 68.4057 295.593 68.4057 295.593C68.4057 295.593 78.9001 263.836 88.6606 255.123C96.8254 253.903 105.176 280.789 105.176 280.789Z" fill="#DF6CBD"/>
<path d="M105.18 280.804C105.18 280.804 96.829 253.918 88.6643 255.134C87.1124 256.522 85.5422 258.49 83.9976 260.823C83.8005 268.177 83.2381 280.614 81.6351 285.861C79.2872 293.544 92.6079 291.485 92.1405 292.42C91.6731 293.354 79.572 299.821 77.7901 301.508C76.8663 302.381 83.7786 300.84 90.7201 299.149C97.7638 290.28 105.18 280.804 105.18 280.804Z" fill="#BC61A5"/>
<path d="M105.644 280.384C105.52 280.57 101.682 285.263 101.682 285.263C101.682 285.263 90.3222 274.388 87.6347 272.515C84.9435 270.642 105.644 280.384 105.644 280.384Z" fill="#A15790"/>
<path d="M104.377 195.045C104.377 195.045 109.679 193.387 114.648 193.526C119.622 193.668 125.106 192.591 125.201 191.324C125.296 190.06 121.309 169.499 121.123 168.82C120.933 168.14 115.587 166.968 115.116 166.172C114.648 165.376 114.648 160.082 115.116 159.519C115.587 158.961 115.211 157.693 116.62 157.741C118.026 157.788 125.764 156.05 127.031 157.741C128.298 159.428 127.264 167.297 127.264 167.297C127.264 167.297 139.599 193.263 136.722 199.693C134.472 201.88 116.087 212.371 112.585 211.809C109.083 211.246 104.377 195.045 104.377 195.045Z" fill="#F9AA80"/>
<path d="M68.8111 215.683C66.6859 215.869 53.179 218.991 50.612 218.243C52.2405 225.988 53.4894 240.415 54.6797 241.85C56.1148 241.539 61.1173 240.225 61.7454 241.412C62.3698 242.598 64.1225 249.719 63.4324 250.968C62.7459 252.216 52.3026 255.901 50.612 254.466C48.925 253.031 47.8624 244.037 47.8624 244.037C47.8624 244.037 33.7274 216.432 37.1671 210.75C40.7967 207 57.7434 200.694 61.1831 200.942C64.6228 201.194 68.8111 215.683 68.8111 215.683Z" fill="#F9AA80"/>
<path d="M88.6643 250.109C88.6643 250.109 83.6326 267.954 84.1328 270.452C84.6331 272.953 97.2015 277.2 102.142 281.009C107.083 284.817 122.342 286.628 124.467 288.877C126.592 291.127 126.406 298.806 137.226 302.118C148.041 305.426 164.115 318.794 164.864 319.419C165.616 320.043 174.369 312.112 174.621 311.86C174.869 311.612 173.744 309.739 173.12 309.801C172.496 309.863 151.295 290.564 150.919 287.567C150.543 284.569 115.149 256.653 114.648 255.404C114.148 254.152 110.99 250.858 110.99 250.858C110.99 250.858 104.83 249.065 88.6643 250.109Z" fill="#DF6CBD"/>
<path d="M89.7925 247.112C89.7925 247.112 89.0403 249.69 88.6642 250.109C88.2917 250.533 110.38 250.157 110.989 250.858C111.179 251.048 110.57 248.331 110.57 248.331L89.7925 247.112Z" fill="#353638"/>
<path d="M79.3566 194.979C79.3566 194.979 78.5351 195.019 78.316 195.045C78.0969 195.074 78.0677 195.76 77.9399 195.918C77.8157 196.071 70.593 192.894 68.1867 195.045C65.7767 197.196 66.5289 199.193 66.1528 199.321C65.7767 199.445 60.0256 200.507 59.2734 200.288C62.3078 205.316 66.6239 219.086 67.0912 221.022C68.5299 218.619 76.6582 218.305 77.0014 218.462C77.3483 218.619 81.8178 238.542 80.4119 240.696C79.0025 242.85 89.5115 245.096 88.1969 247.908C88.4781 248.47 110.332 249.219 110.617 249.219C110.898 249.219 112.68 246.783 112.68 245.943C112.68 245.096 112.867 219.711 108.178 214.745C110.241 214.182 115.116 214.463 115.116 213.715C115.116 212.966 105.458 195.859 104.987 194.296C104.519 193.949 100.389 196.586 97.7639 195.045C95.1384 193.508 87.1964 195.045 87.1964 195.045L79.3566 194.979Z" fill="#56A4C1"/>
<path d="M80.474 190.827L79.3566 194.979C79.3566 194.979 92.3231 198.444 92.5349 198.28C92.7467 198.116 92.5349 193.339 92.5349 193.339C92.5349 193.339 97.5995 194.439 98.4686 191.349C99.3376 188.257 97.8113 180.154 97.8113 180.154C97.8113 180.154 99.1478 179.358 99.5458 178.419C99.9438 177.485 95.8176 173.994 95.8176 173.994C95.8176 173.994 94.8572 166.57 91.5745 166.57C88.2918 166.57 76.0483 172.683 76.0483 176.524C76.0483 180.366 80.474 190.827 80.474 190.827Z" fill="#F9AA80"/>
<path d="M80.474 190.824C80.474 190.824 83.943 185.113 84.1 183.236C82.8183 183.455 80.8501 180.709 80.631 178.489C80.412 176.272 81.6316 174.618 82.6941 175.119C83.7567 175.619 84.571 177.773 84.6002 178.43C84.6331 179.084 86.6633 180.238 86.6633 179.803C86.6633 179.365 85.1005 173.245 85.1005 173.245C85.1005 173.245 86.3201 174.37 86.415 173.932C86.51 173.494 85.6628 169.59 85.6628 169.59C85.6628 169.59 93.2616 166.377 93.2324 165.939C93.1995 165.501 90.512 166.22 90.7603 166.158C91.0123 166.092 91.7608 164.219 91.7608 163.876C91.7608 163.532 84.7244 166.468 84.7572 166.377C84.7901 166.282 85.4766 165.157 85.4437 165.062C85.4145 164.971 75.0954 166.406 72.5941 175.151C69.8116 177.773 75.0004 186.205 80.474 190.824Z" fill="#914839"/>
<path d="M93.0862 169.05C92.4837 168.469 91.5161 169.112 90.9903 169.514C90.26 170.069 89.61 170.741 89.1061 171.507C88.6278 172.238 89.4932 172.964 90.0737 172.263C90.4864 171.763 90.9172 171.281 91.4175 170.861C91.6402 170.675 91.8776 170.489 92.1478 170.372C92.429 170.255 92.6919 170.262 92.9511 170.087C93.3053 169.842 93.4076 169.364 93.0862 169.05Z" fill="#914839"/>
<path d="M94.0101 176.126C93.9809 175.663 94.0064 175.13 93.7727 174.721C93.5902 174.403 93.0972 174.527 92.9475 174.801C92.6335 175.374 92.67 176.287 92.9438 176.868C93.0242 177.039 93.1629 177.193 93.3674 177.193C93.9042 177.185 94.0356 176.554 94.0101 176.126Z" fill="#38393B"/>
<path d="M94.4812 184.295C94.1891 185.489 93.7472 186.96 93.9225 188.194C94.0138 188.848 94.839 188.826 95.0326 188.238C95.4196 187.077 95.4452 185.737 95.6935 184.528C95.8578 183.736 94.6711 183.528 94.4812 184.295Z" fill="#B02E3B"/>
<path d="M84.7607 180.497C84.5818 179.844 84.0085 179.267 83.6105 178.723C83.1614 178.105 82.7086 177.492 82.2631 176.875C82.0148 176.528 81.5912 177.021 81.7848 177.328C82.1937 177.981 82.6136 178.624 83.0555 179.252C83.0774 179.285 83.0993 179.321 83.1249 179.358C83.1066 179.358 83.0883 179.362 83.0701 179.362C82.7195 179.369 82.3763 179.373 82.0513 179.508C81.8797 179.581 81.8176 179.906 81.9856 180.012C82.2777 180.194 82.6246 180.227 82.9605 180.278C83.249 180.318 83.5192 180.388 83.7894 180.34C83.9611 180.556 84.1473 180.746 84.3627 180.877C84.6147 181.03 84.8265 180.735 84.7607 180.497Z" fill="#D27771"/>
<path d="M92.5348 193.34C92.5348 193.34 86.2798 192.967 85.3195 186.924C83.5375 189.98 86.3601 195.728 92.5933 194.979C92.5969 195.103 92.5348 193.34 92.5348 193.34Z" fill="#D27771"/>
<path d="M88.1932 247.904C88.4743 248.466 110.329 249.215 110.61 249.215C110.895 249.215 112.677 246.779 112.677 245.936C112.677 245.852 112.677 245.516 112.677 244.979C105.545 246.746 93.9151 248.462 93.9151 245.844C93.9151 242.189 85.0967 230.574 84.2532 231.136C83.4097 231.698 86.3163 240.597 83.5959 239.754C83.5521 238.512 81.7117 234.696 79.7217 230.84C80.5141 235.43 81.0216 239.75 80.4082 240.688C78.9987 242.846 89.5077 245.092 88.1932 247.904Z" fill="#4989A6"/>
<path d="M97.1357 201.811C103.515 205.247 108.174 214.741 108.174 214.741C109.708 214.325 112.79 214.372 114.276 214.117C113.232 212.419 111.891 210.732 110.581 210.494C107.831 209.994 104.453 201.125 97.1357 201.811Z" fill="#4989A6"/>
<mask id="mask22_243_479" style="mask-type:luminance" maskUnits="userSpaceOnUse" x="10" y="286" width="25" height="25">
<path d="M10 286.836H34.2131V310.206H10V286.836Z" fill="white"/>
</mask>
<g mask="url(#mask22_243_479)">
<path d="M33.3222 293.5C33.3222 293.5 32.8219 299.868 32.8219 300.12C32.8219 300.369 32.884 306.459 32.1646 305.864C31.4453 305.273 29.2581 300.588 29.2581 300.588C29.2581 300.588 9.99637 311.144 10.4345 309.457C10.8727 307.77 27.257 287.128 28.8527 287.629C30.4448 288.129 33.3222 293.5 33.3222 293.5Z" fill="#353638"/>
</g>
<mask id="mask23_243_479" style="mask-type:luminance" maskUnits="userSpaceOnUse" x="174" y="302" width="22" height="27">
<path d="M174.431 302.728H195.788V328.902H174.431V302.728Z" fill="white"/>
</mask>
<g mask="url(#mask23_243_479)">
<path d="M174.916 320.744C174.683 320.558 177.447 312.922 177.447 312.922C177.447 312.922 176.932 309.362 177.447 309.267C177.965 309.176 179.605 312.502 179.747 312.36C179.89 312.218 195.412 302.103 195.599 303.228C195.788 304.349 181.343 329.175 180.496 328.565C179.652 327.959 174.916 320.744 174.916 320.744Z" fill="#353638"/>
</g>
<path d="M114.791 163.941C116.609 163.269 118.515 162.904 120.469 162.948C121.214 162.963 122.897 162.901 123.489 163.339C124.296 163.938 123.536 163.927 122.901 164.047C122.134 164.197 121.371 164.274 120.589 164.285C120.001 164.296 119.731 165.216 120.308 165.464C121.112 165.647 121.531 166.169 121.572 167.034C121.363 167.808 122.39 168.192 122.598 167.407C122.831 166.538 122.682 165.858 122.258 165.333C123.361 165.208 124.551 164.938 124.946 164.179C124.96 164.146 124.968 164.117 124.982 164.084C125.884 164.102 126.892 163.894 127.611 163.405C127.644 162.74 127.666 162.046 127.662 161.378C127.659 161.378 127.659 161.374 127.655 161.371C127.52 161.188 127.348 161.027 127.158 160.907C126.702 160.615 126.238 161.382 126.651 161.677C126.921 161.867 127.027 162.145 127.235 162.382C127.239 162.386 127.242 162.389 127.246 162.393C127.22 162.419 127.199 162.448 127.169 162.47C126.556 162.977 125.734 163.058 124.971 163.258C124.825 162.955 124.54 162.707 124.212 162.539C124.102 162.481 123.985 162.43 123.861 162.382C124.004 161.195 124.109 160.027 124.456 158.866C124.646 158.238 124.935 157.646 125.212 157.051C124.843 157.014 124.445 157 124.022 157.003C123.302 158.596 123.029 160.608 123.182 162.189C122.474 162.032 121.674 161.995 120.903 162.01C121.133 161.042 120.969 160.02 121.119 159.026C121.221 158.373 121.447 157.763 121.659 157.15C121.247 157.19 120.838 157.237 120.436 157.288C119.888 158.873 119.739 160.892 120.363 162.032C119.87 162.057 119.403 162.101 118.994 162.141C118.555 162.189 118.121 162.258 117.694 162.346C117.361 160.721 117.854 159.14 118.304 157.577C117.8 157.642 117.372 157.697 117.051 157.723C116.606 159.344 116.489 161.195 116.982 162.51C116.226 162.703 115.492 162.966 114.773 163.28C114.776 163.507 114.783 163.726 114.791 163.941Z" fill="#D27771"/>
<path d="M361.201 257.424C361.201 257.424 363.665 253.981 366.254 254.094C371.071 247.364 382.876 233.85 382.876 233.85C382.876 233.85 381.262 231.349 382.876 224.842C384.49 218.338 390.895 205.324 390.895 205.324C390.895 205.324 387.97 198.748 388.514 198.704C389.058 198.664 390.979 201.001 391.063 200.873C391.147 200.749 395.905 194.034 396.156 195.118C396.405 196.203 393.944 199.416 394.068 199.372C394.192 199.332 399.414 196.039 399.246 197.039C399.078 198.04 395.821 200.957 395.821 200.957C395.821 200.957 400.29 199.708 400.038 200.125C399.79 200.541 397.077 202.502 397.077 202.502C397.077 202.502 400.476 202.502 400.049 203.17C399.622 203.835 397.325 204.295 397.325 204.295L392.899 207.632C392.899 207.632 391.227 233.156 387.97 238.078C386.133 252.093 376.53 270.778 376.53 270.778L361.201 257.424Z" fill="#F9AA80"/>
<path d="M353.876 245.75C353.876 245.75 350.619 251.465 349.76 251.757C349.238 252.571 353.394 259.265 358.991 261.057C364.586 262.85 366.506 260.265 366.506 260.265C366.506 260.265 360.306 256.971 359.324 256.387C358.342 255.803 359.762 251.217 359.762 251.217C359.762 251.217 365.944 251.173 367.175 250.194C368.409 249.212 368.489 241.394 368.449 241.266C368.471 241.372 370.768 240.204 370.684 239.685C370.6 239.163 367.697 237.158 367.737 237.096C367.781 237.034 367.237 234.701 366.028 232.886C364.816 231.071 360.682 229.297 360.682 229.297C360.682 229.297 354.23 232.196 352.433 234.785C350.637 237.37 353.876 245.75 353.876 245.75Z" fill="#F9AA80"/>
<mask id="mask24_243_479" style="mask-type:luminance" maskUnits="userSpaceOnUse" x="448" y="327" width="14" height="19">
<path d="M448.041 327.679H461.96V345.44H448.041V327.679Z" fill="white"/>
</mask>
<g mask="url(#mask24_243_479)">
<path d="M449.293 337.651C449.293 337.651 461.942 326.971 461.942 327.723C461.942 328.471 453.591 344.794 452.952 344.71C452.309 344.629 448.468 338.845 448.468 338.845L449.293 337.651Z" fill="#56A4C1"/>
</g>
<path d="M303.142 345.794C303.142 345.794 299.483 341.347 298.983 341.347C298.479 341.347 294.305 358.615 294.013 360.283C293.721 361.952 298.508 367.207 298.577 366.706C298.647 366.206 298.062 362.16 298.062 362.032C298.062 361.908 303.423 347.894 303.81 347.518C304.201 347.145 303.142 345.794 303.142 345.794Z" fill="#56A4C1"/>
<path d="M364.498 335.676C364.498 335.676 355.037 347.131 342.509 352.469C341.954 352.579 340.895 354.079 340.004 354.247C339.113 354.415 315.951 346.853 303.81 347.518C303.2 347.076 302.977 345.849 303.142 345.794C303.31 345.739 316.338 339.455 324.693 339.733C333.044 340.01 341.063 344.293 341.063 344.293C341.063 344.293 350.918 328.669 353.31 326.887C355.705 325.108 364.498 335.676 364.498 335.676Z" fill="#F9AA80"/>
<path d="M373.747 325.163C373.747 325.163 402.7 316.378 405.369 315.655C406.096 315.932 408.378 317.269 408.378 317.269C408.378 317.269 408.1 325.218 415.896 329.611C423.689 334.007 448.19 338.345 448.468 338.842C448.745 339.346 449.414 337.732 449.414 337.732C449.414 337.732 415.896 316.1 413.611 313.208C412.333 310.039 408.601 309.148 408.601 309.148C408.601 309.148 400.64 301.363 379.593 303.809C375.306 306.424 373.747 325.163 373.747 325.163Z" fill="#F9AA80"/>
<path d="M369.57 331.115C369.57 331.115 366.09 335.563 365.506 335.785C365.477 335.815 365.031 337.063 364.838 337.147C364.64 337.231 360.854 337.038 356.457 333.339C352.057 329.64 349.523 324.663 349.523 324.163C349.523 323.662 352.977 325.415 353.2 324.634C353.423 323.856 353.116 322.771 353.923 322.83C354.73 322.885 354.759 323.023 354.759 322.384C354.759 321.745 355.176 319.963 356.928 318.601C358.685 317.239 369.57 331.115 369.57 331.115Z" fill="#D54180"/>
<path d="M348.063 251.406L349.761 251.757C349.761 251.757 360.076 261.934 366.506 260.265C374.189 263.935 377.03 268.342 378.366 272.063C379.703 275.78 380.703 291.215 380.203 293.716C379.703 296.218 376.698 304.142 376.698 304.142C376.698 304.142 361.496 307.979 361.077 307.479C360.66 306.979 362.165 303.893 362.165 303.893C362.165 303.893 360.029 285.994 349.279 276.883C350.473 265.271 348.063 251.406 348.063 251.406Z" fill="#DF6CBD"/>
<path d="M342.618 250.87C342.677 250.702 347.909 248.423 353.31 256.65C358.71 264.881 359.769 277.785 355.537 279.618C352.477 280.564 347.909 275.558 347.909 275.558L325.025 262.493C325.025 262.493 321.071 287.407 320.625 288.185C320.18 288.962 326.026 289.072 326.416 290.686C326.807 292.3 325.664 292.256 325.708 292.756C325.748 293.256 327.169 297.47 326.376 298.179C325.584 298.887 317.73 298.139 316.561 296.43C315.393 294.717 316.937 289.13 316.937 289.13C316.937 289.13 306.764 248.394 318.12 242.625C328.699 240.748 342.618 250.87 342.618 250.87Z" fill="#F9AA80"/>
<path d="M325.025 262.489C325.025 262.489 326.694 254.594 325.916 252.371C330.203 255.986 326.884 263.552 326.884 263.552L325.025 262.489Z" fill="#D27771"/>
<path d="M357.655 317.878C357.487 317.878 354.814 320.825 355.314 321.493C355.815 322.162 361.887 325.441 362.497 325.941C363.11 326.441 357.765 326.722 357.374 326.777C356.987 326.832 365.006 331.225 369.57 331.115C371.136 329.655 373.747 326.109 373.747 326.109L357.655 317.878Z" fill="#B3396C"/>
<path d="M360.66 306.756C360.828 306.756 379.688 303.031 380.334 303.309C379.425 305.81 378.312 326.722 378.757 327.945C378.925 329.169 375.693 327 375.248 327.445C374.802 327.887 374.025 329.669 372.853 328.946C371.684 328.223 370.57 327.222 369.734 327.222C368.902 327.222 358.656 324.217 356.483 318.714C354.314 313.208 360.66 306.756 360.66 306.756Z" fill="#D54180"/>
<path d="M344.882 273.83C344.882 273.83 353.755 279.286 355.595 277.504C357.432 275.725 352.532 264.771 349.914 262.379C353.7 271.446 344.882 273.83 344.882 273.83Z" fill="#D27771"/>
<path d="M356.673 237.202C356.673 237.202 358.634 240.434 358.907 240.08C359.178 239.725 358.141 234.679 358.141 234.679C358.141 234.679 358.907 235.826 359.178 235.471C359.451 235.117 359.284 232.448 359.43 231.988C359.576 231.531 362.705 231.239 362.665 230.965C362.625 230.695 360.952 230.443 361.434 230.133C361.913 229.819 365.086 228.442 365.067 228.256C365.046 228.066 361.935 227.61 361.935 227.61C361.935 227.61 363.227 225.919 363.103 225.795C362.979 225.671 358.615 226.127 356.965 228.172C352.831 228.318 348.508 231.926 347.569 235.639C346.631 239.349 349.198 239.769 349.198 239.769C349.198 239.769 353.624 246.189 353.894 245.896C354.168 245.604 354.354 243.874 354.354 243.874C354.354 243.874 355.044 244.604 355.19 244.418C355.336 244.231 356.841 240.624 356.841 240.624C356.841 240.624 354.398 240.726 353.938 238.349C353.478 235.972 355.566 235.658 356.673 237.202Z" fill="#353638"/>
<path d="M365.141 232.886C363.848 232.849 362.592 234.27 362.07 235.307C361.865 235.716 362.223 236.399 362.676 235.942C363.03 235.588 363.37 235.212 363.746 234.88C364.038 234.62 364.571 234.179 364.984 234.193C365.707 234.222 365.915 232.908 365.141 232.886Z" fill="#353638"/>
<path d="M364.432 237.71C364.184 237.666 363.903 237.845 363.841 238.097C363.709 238.615 363.618 239.207 363.906 239.689C364.009 239.857 364.239 239.893 364.403 239.824C364.604 239.74 364.717 239.557 364.754 239.346C364.819 238.999 364.75 238.634 364.794 238.279C364.823 238.031 364.691 237.757 364.432 237.71Z" fill="#353638"/>
<path d="M366.254 243.771C366.254 243.771 362.143 242.793 361.559 242.855C361.307 242.917 361.887 246.546 363.822 246.754C365.754 246.963 366.152 244.772 366.254 243.771Z" fill="white"/>
<path d="M357.239 238.977C356.6 238.363 355.771 237.826 354.931 237.538C354.672 237.45 354.464 237.874 354.686 238.027C355.073 238.297 355.46 238.568 355.844 238.838C355.705 238.871 355.57 238.915 355.439 238.969C355.227 239.061 355.296 239.422 355.537 239.389C355.837 239.349 356.136 239.313 356.435 239.305C356.45 239.302 356.461 239.298 356.472 239.294C356.596 239.386 356.724 239.473 356.848 239.568C357.191 239.827 357.509 239.236 357.239 238.977Z" fill="#D27771"/>
<path d="M379.057 275.05C375.843 276.605 372.663 278.23 369.548 279.961C365.572 282.174 361.683 284.562 357.998 287.235C357.772 287.399 357.542 287.564 357.308 287.728C357.44 287.994 357.56 288.257 357.684 288.524C358.539 287.925 359.404 287.337 360.273 286.76C363.815 284.412 367.481 282.262 371.22 280.25C373.857 278.833 376.533 277.493 379.232 276.193C379.173 275.795 379.115 275.415 379.057 275.05Z" fill="#FCF2AF"/>
<path d="M368.945 274.462C371.596 272.633 374.368 270.971 377.242 269.514C377.066 269.193 376.876 268.872 376.668 268.547C373.86 269.993 371.151 271.632 368.569 273.451C363.91 276.733 359.598 280.516 355.672 284.664C355.833 284.935 355.99 285.205 356.14 285.475C360.061 281.429 364.275 277.683 368.945 274.462Z" fill="#FCF2AF"/>
<path d="M361.909 315.461C362.457 312.273 363.304 309.137 364.341 306.062C364.063 306.117 363.793 306.168 363.538 306.215C362.468 309.432 361.595 312.708 360.81 316.034C360.748 316.297 360.963 316.619 361.241 316.622C366.93 316.67 372.619 316.571 378.308 316.732C378.545 316.739 378.783 316.75 379.02 316.757C379.046 316.323 379.071 315.885 379.097 315.45C378.885 315.443 378.673 315.439 378.465 315.432C372.955 315.286 367.416 315.191 361.909 315.461Z" fill="#FCF2AF"/>
<path d="M366.608 305.631C366.364 305.679 366.119 305.723 365.882 305.77C365.414 308.074 364.962 310.378 364.198 312.595C364.056 313.011 364.304 313.413 364.754 313.358C368.956 312.872 373.101 312.186 377.333 311.948C378.001 311.908 378.669 311.883 379.341 311.857C379.374 311.386 379.411 310.922 379.447 310.47C374.667 310.586 369.877 311.036 365.305 312.04C365.56 310.137 366.068 308.239 366.459 306.365C366.51 306.121 366.557 305.876 366.608 305.631Z" fill="#FCF2AF"/>
<path d="M357.819 244.527C357.834 244.49 357.593 249.256 363.165 249.701C356.706 251.841 356.819 247.824 357.819 244.527Z" fill="#D27771"/>
<mask id="mask25_243_479" style="mask-type:luminance" maskUnits="userSpaceOnUse" x="672" y="235" width="66" height="74">
<path d="M672.059 235.73H737.424V308.643H672.059V235.73Z" fill="white"/>
</mask>
<g mask="url(#mask25_243_479)">
<path d="M691.149 236.559C691.149 236.559 693.402 240.722 693.599 243.041C694.059 243.826 695.724 245.878 696.082 246.63C696.44 247.379 694.22 248.814 694.22 248.814C694.22 248.814 694.318 254.353 692.032 256.668C691.379 257.19 685.989 256.08 685.989 256.08C685.989 256.08 684.875 259.765 684.974 262.24C685.073 264.716 687.556 268.824 688.636 270.146C689.714 271.464 691.087 273.713 691.821 277.186C692.555 280.655 698.729 297.083 700.004 298.208C701.278 299.332 722.986 297.28 724.845 296.594C726.707 295.911 731.56 289.163 732.392 289.115C733.225 289.064 737.391 295.469 736.508 296.984C735.628 298.5 726.758 300.603 726.608 300.504C726.462 300.41 705.101 309.695 695.103 307.446C693.142 306.96 683.539 293.76 683.05 291.606C682.56 289.455 672.563 256.993 672.563 256.993C672.563 256.993 674.571 239.933 674.841 239.517C675.111 239.101 691.149 236.559 691.149 236.559Z" fill="#F9AA80"/>
</g>
<path d="M674.841 305.05C674.841 305.05 672.906 307.767 672.146 308.476C671.387 309.184 658.154 297.769 658.154 297.769C658.154 297.769 659.819 293.734 659.698 293.223C659.578 292.708 674.841 305.05 674.841 305.05Z" fill="#F9AA80"/>
<path d="M686.942 237.096C686.723 237.534 684.419 238.929 685.401 240.543C686.38 242.157 683.513 244.552 683.488 244.651C682.509 242.011 680.059 239.908 678.931 243.11C677.806 246.312 682.02 248.364 682.801 248.437C683.586 248.51 680.99 256.799 679.029 256.263C677.072 255.722 676.725 259.147 674.52 260.221C672.318 261.298 666.797 260.221 666.545 257.679C666.388 256.507 660.604 256.748 660.556 254.598C660.505 252.447 655.116 253.181 655.068 252.838C655.021 252.498 658.059 249.171 660.947 250.639C663.839 252.104 663.204 246.824 666.092 246.63C668.984 246.433 670.112 244.527 670.112 243.694C670.112 242.865 669.619 240.072 669.619 240.072C669.619 240.072 667.954 231.246 672.431 229.877C676.908 228.508 677.623 229.877 678.832 227.858C680.044 225.835 684.941 228.051 686.248 227.858C687.556 227.66 689.155 228.77 689.253 231.637C689.352 234.503 686.942 237.096 686.942 237.096Z" fill="#82414A"/>
<path d="M680.599 373.202C680.599 373.202 693.862 387.465 702.355 391.96C702.224 392.091 702.355 393.654 702.355 393.654C702.355 393.654 711.761 393.851 711.568 393.654C711.371 393.461 703.922 391.179 703.399 390.656C702.877 390.134 692.898 370.515 692.898 370.515C692.898 370.515 683.473 371.201 680.599 373.202Z" fill="#F9AA80"/>
<path d="M625.619 359.173C625.619 359.173 608.176 364.453 603.177 368.561C603.52 368.51 602.688 373.202 602.688 373.202L606.361 370.025C606.361 370.025 628.361 370.569 628.657 370.613C628.953 370.657 631.107 360.688 625.619 359.173Z" fill="#F9AA80"/>
<path d="M663.839 274.739L663.96 273.545C663.96 273.545 646.589 269.949 645.023 270.047C643.453 270.146 626.305 293.271 625.666 294.1C625.031 294.932 624.713 298.182 624.246 300.603C623.782 303.024 620.131 309.232 619.419 310.944C619.247 311.017 619.641 308.107 619.641 308.107C619.641 308.107 615.844 313.193 615.522 312.752C615.205 312.313 617.878 307.45 617.878 307.45C617.878 307.45 612.755 310.455 612.78 309.94C612.806 309.429 615.745 305.69 615.745 305.69C615.745 305.69 611.652 307.497 611.652 306.887C611.652 306.274 615.059 303.586 614.986 303.586C614.913 303.586 610.283 304.441 610.476 304.05C610.673 303.659 615.329 301.899 615.329 301.899C615.329 301.899 620.865 294.688 622.019 294.151C622.311 289.652 632.969 263.84 636.741 261.981C640.513 260.122 667.662 256.993 673.151 258.998C678.851 260.32 688.045 279.139 682.999 285.887C677.952 292.635 663.839 274.739 663.839 274.739Z" fill="#F9AA80"/>
<path d="M663.839 274.739C663.839 274.739 679.175 285.69 681.184 283.638C683.196 281.586 680.158 261.247 673.151 258.998C673.297 258.753 677.952 261.346 677.952 261.346C677.952 261.346 681.184 267.75 684.47 271.124C687.753 274.498 686.234 279.337 687.41 279.534C688.585 279.727 690.104 279.139 690.104 279.139C690.104 279.139 691.28 286.231 690.104 290.09C688.929 293.954 685.303 294.688 685.303 294.688C685.303 294.688 674.67 304.809 674.67 305.784C670.649 301.629 656.587 294.052 655.364 290.923C656.635 290.58 657.029 290.97 657.223 290.485C657.42 289.995 662.861 279.139 662.959 278.504C663.054 277.869 663.839 274.739 663.839 274.739Z" fill="#D54180"/>
<path d="M658.154 297.766C658.154 297.766 671.241 304.148 672.61 308.008C672.661 308.939 669.868 310.575 669.868 310.575C669.868 310.575 667.074 315.417 666.435 315.464C669.083 319.62 683.736 335.902 683.831 351.936C685.792 354.674 686.478 358.392 686.478 358.392C686.478 358.392 692.262 369.587 692.898 370.515C686.526 372.618 680.6 373.202 680.6 373.202C680.6 373.202 671.387 365.724 675.747 355.898C667.761 350.227 656.931 342.256 656.931 342.256C656.931 342.256 651.391 369.832 647.962 371.395C644.534 372.957 628.657 370.613 628.657 370.613C628.657 370.613 624.246 363.573 625.619 359.173C629.88 357.512 637.672 360.283 637.672 360.283C637.672 360.283 632.772 332.09 636.887 319.277C638.26 309.892 652.961 301.384 655.802 301.191C656.197 300.212 658.154 297.766 658.154 297.766Z" fill="#353638"/>
<path d="M656.931 342.256C656.931 342.256 643.617 334.401 639.765 327.624C638.001 341.248 655.853 347.313 655.853 347.313L656.931 342.256Z" fill="#242526"/>
<mask id="mask26_243_479" style="mask-type:luminance" maskUnits="userSpaceOnUse" x="593" y="364" width="12" height="22">
<path d="M593 364.73H604.754V385.296H593V364.73Z" fill="white"/>
</mask>
<g mask="url(#mask26_243_479)">
<path d="M602.687 373.202C602.687 373.202 593.522 385.278 593.278 384.693C593.033 384.105 597.637 365.527 597.981 365.282C598.324 365.041 603.984 367.959 603.984 367.959L602.687 373.202Z" fill="#353638"/>
</g>
<mask id="mask27_243_479" style="mask-type:luminance" maskUnits="userSpaceOnUse" x="701" y="392" width="22" height="7">
<path d="M701.972 392.774H722.537V399H701.972V392.774Z" fill="white"/>
</mask>
<g mask="url(#mask27_243_479)">
<path d="M702.355 393.654C702.355 393.654 701.997 398.544 702.355 398.774C702.713 399 722.216 398.087 722.282 397.306C722.347 396.524 711.374 393.567 711.374 393.567L702.355 393.654Z" fill="#353638"/>
</g>
<path d="M682.688 362.182C681.881 359.48 681.111 356.738 679.712 354.269C678.814 352.677 677.631 351.293 676.882 349.617C676.251 348.204 675.864 346.7 675.378 345.235C673.476 339.495 669.945 334.577 666.457 329.709C664.471 326.934 662.492 324.155 660.495 321.387C659.14 319.507 657.76 317.743 655.729 316.622C659.406 311.981 662.956 307.216 666.089 302.195C665.899 302.075 665.709 301.954 665.515 301.837C662.123 306.865 658.618 311.798 654.685 316.436C654.448 316.721 654.4 317.159 654.78 317.341C657.672 318.758 659.381 321.698 661.192 324.221C663.091 326.872 664.997 329.516 666.888 332.17C668.615 334.595 670.328 337.041 671.785 339.634C673.34 342.398 674.319 345.257 675.349 348.237C676.353 351.132 678.266 353.349 679.541 356.091C680.83 358.863 681.556 361.893 682.393 364.822C683.214 367.685 684.39 369.832 685.474 372.439C685.836 372.366 686.208 372.289 686.595 372.209C685.504 369.058 683.579 365.147 682.688 362.182Z" fill="#FCF2AF"/>
<path d="M687.643 367.743C686.226 365.041 684.55 362.313 683.762 359.345C683.13 356.971 683.462 354.546 681.596 352.692C679.153 350.267 678.748 347.397 677.623 344.271C675.571 338.571 672.468 333.317 669.203 328.237C666.512 324.053 663.883 318.984 659.483 316.333C662.404 312.105 665.471 307.972 668.414 303.754C668.203 303.604 667.987 303.451 667.768 303.301C664.631 307.595 661.623 311.981 658.457 316.25C658.318 316.436 658.307 316.815 658.526 316.954C663.368 319.959 666.249 325.418 669.214 330.114C672.519 335.347 675.571 340.802 677.379 346.751C678.095 349.098 678.602 351.286 680.315 353.126C681.509 354.408 682.002 355.503 682.232 357.26C682.418 358.647 682.652 359.943 683.126 361.269C684.171 364.19 685.821 366.929 687.245 369.678C687.603 370.368 687.95 371.091 688.297 371.822C688.757 371.709 689.232 371.588 689.714 371.46C689.005 370.204 688.282 368.963 687.643 367.743Z" fill="#FCF2AF"/>
<path d="M663.963 273.542C663.963 273.542 668.707 274.429 669.097 275.459C669.492 276.485 665.373 276.923 663.963 273.542Z" fill="#D27771"/>
<path d="M691.379 236.625C691.379 236.625 672.04 245.129 669.492 244.87C669.229 244.151 669.685 241.317 669.229 240.503C668.772 239.685 688.732 231.016 689.517 231.473C690.302 231.929 692.179 236.274 691.379 236.625Z" fill="#D54180"/>
<path d="M689.801 238.768C689.213 239.239 688.417 240.01 688.651 240.82C688.724 241.076 688.987 241.164 689.221 241.131C689.721 241.058 690.009 240.404 690.364 240.083C690.751 239.736 691.207 239.491 691.7 239.342C691.992 239.25 692.284 238.94 692.288 238.619C692.299 237.11 690.302 238.37 689.801 238.768Z" fill="#82414A"/>
<path d="M691.357 243.603C691.32 243.249 690.999 242.968 690.638 243.059C690.232 243.161 690.075 243.563 690.075 243.935C690.075 244.414 690.061 244.947 690.313 245.37C690.586 245.83 691.167 245.483 691.313 245.122C691.496 244.662 691.412 244.085 691.357 243.603Z" fill="#353638"/>
<path d="M692.186 251.709C691.674 252.148 691.393 253.035 691.386 253.692C691.382 254.046 691.536 254.444 691.948 254.459C692.357 254.474 692.627 254.101 692.69 253.74C692.733 253.502 692.755 253.261 692.832 253.031C692.927 252.757 693.036 252.494 693.098 252.206C693.212 251.651 692.58 251.37 692.186 251.709Z" fill="#B02E3B"/>
<path d="M689.451 279.775C689.451 279.775 687.935 269.123 686.504 266.757C686.577 266.414 687.548 268.042 687.979 268.597C688.406 269.152 691.149 277.073 689.451 279.775Z" fill="#D54180"/>
<path d="M682.126 244.863C681.538 244.501 680.921 244.176 680.319 243.848C680.015 243.687 679.712 244.238 679.921 244.454C680.249 244.804 680.629 245.071 681.023 245.33C680.892 245.388 680.764 245.447 680.636 245.505C680.329 245.644 680.413 246.203 680.782 246.133C681.162 246.068 681.531 246.006 681.9 245.903C682.057 246.006 682.21 246.111 682.36 246.217C682.601 246.389 682.692 246.524 683.006 246.462C683.119 246.436 683.2 246.312 683.218 246.199C683.295 245.608 682.572 245.14 682.126 244.863Z" fill="#D27771"/>
<path d="M901.51 302.237C901.51 302.237 897.347 319.29 895.028 323.354C893.506 324.705 886.962 330.445 886.962 330.445L879.816 322.397C879.816 322.397 885.819 318.811 886.542 316.818C887.262 314.828 886.962 303.672 886.962 303.672L901.51 302.237Z" fill="#F9AA80"/>
<mask id="mask28_243_479" style="mask-type:luminance" maskUnits="userSpaceOnUse" x="899" y="259" width="37" height="23">
<path d="M899.983 259.073H935.374V281.508H899.983V259.073Z" fill="white"/>
</mask>
<g mask="url(#mask28_243_479)">
<path d="M900.308 281.201L918.643 272.675V273.471L928.085 279.682C928.085 279.682 935.213 264.788 935.29 263.67C935.37 262.557 930.488 259.69 928.407 259.53C926.325 259.369 907.356 262.98 905.994 263.327C904.632 263.67 900.308 281.201 900.308 281.201Z" fill="#F9AA80"/>
</g>
<path d="M881.335 269.436C881.335 269.436 881.335 283.458 884.381 285.371C887.422 287.285 884.275 304.282 884.381 304.972C884.486 305.663 903.43 303.965 903.43 303.965C904.5 301.043 903.964 286.7 903.964 286.7C903.964 286.7 908.287 286.116 908.663 286.54C909.036 286.967 909.996 262.257 909.996 261.943C909.996 261.625 901.028 264.072 901.028 264.072C901.028 264.072 902.149 262.104 899.856 261.625C897.563 261.151 886.301 261.892 881.335 269.436Z" fill="#D54180"/>
<path d="M881.204 268.64L881.364 270.951C881.364 270.951 886.889 267.154 890.997 266.46C895.105 265.77 901.028 264.072 901.028 264.072C901.028 264.072 902.284 262.184 900.71 260.245C899.136 258.306 881.204 268.64 881.204 268.64Z" fill="#B3396C"/>
<path d="M867.971 236.098C867.7 236.098 850.958 233.213 850.422 233.049C849.881 232.884 850.239 253.742 850.422 254.359C850.6 254.98 856.315 256.502 856.359 257.328C856.406 258.153 854.066 263.017 852.941 263.181C851.816 263.345 845.561 263.51 844.974 262.849C844.389 262.191 844.974 255.721 844.974 255.721C844.974 255.721 837.221 224.869 839.379 222.638C841.541 220.411 864.819 223.982 864.819 223.982L867.971 236.098Z" fill="#F9AA80"/>
<path d="M897.508 223.752C897.628 223.752 912.077 222.613 912.077 222.613C912.077 222.613 909.233 206.144 908.915 205.546C908.594 204.95 904.351 204.801 903.993 204.217C903.631 203.632 902.55 197.282 903.591 197.111C904.632 196.939 912.117 197.417 912.479 198.137C912.837 198.852 913.279 204.217 913.279 204.217C913.279 204.217 922.645 228.134 921.922 229.529C921.202 230.924 900.911 234.75 900.911 234.75L897.508 223.752Z" fill="#F9AA80"/>
<path d="M877.377 224.471C877.377 224.471 874.894 223.752 874.573 224.369C870.611 224.212 862.205 222.536 861.843 222.616C861.526 222.697 861.219 236.609 860.47 237.777C862.713 238.467 870.877 238.679 871.465 239.052C872.053 239.424 878.775 264.813 878.242 265.982C877.709 267.154 880.269 270.181 880.269 270.181C880.269 270.181 885.02 269.33 888.755 265.876C892.491 262.425 899.483 261.625 899.856 261.625C900.228 261.625 904.657 256.689 904.818 256.21C904.979 255.732 900.283 254.242 900.655 251.427C901.028 248.611 896.869 239.581 896.547 238.256C896.226 236.927 903.27 237.032 903.27 237.032C903.27 237.032 899.91 223.646 899.75 223.434C899.589 223.222 890.731 224.23 890.037 224.124C889.343 224.018 881.923 224.23 881.923 224.23L877.377 224.471Z" fill="#56A4C1"/>
<path d="M877.443 221.495C877.443 221.495 877.121 224.895 876.935 224.946C876.749 225.001 879.122 226.994 883.179 227.816C887.236 228.641 886.754 226.436 884.884 225.399C885.1 224.311 885.582 221.868 885.582 221.868C885.582 221.868 891.37 221.123 892.491 218.6C893.612 216.076 893.542 206.988 891.903 203.377C890.263 199.769 888.514 199.159 888.514 199.159C888.514 199.159 880.817 198.571 875.014 203.672C869.209 208.773 874.532 215.985 874.532 215.985L877.443 221.495Z" fill="#F9AA80"/>
<path d="M875.854 210.924C875.854 210.924 878.031 211.695 878.217 211.56C878.403 211.428 877.523 209.942 877.523 209.942C877.523 209.942 878.564 210.048 878.67 209.595C878.776 209.146 877.264 206.886 877.264 206.886C877.264 206.886 878.856 207.419 879.765 206.754C880.671 206.09 880.057 202.796 880.057 202.796C880.057 202.796 882.993 202 884.512 200.857C886.035 199.714 888.514 199.159 888.514 199.159C888.514 199.159 886.623 195.573 880.002 197.644C873.386 199.714 870.344 203.965 870.797 208.083C871.253 212.199 877.096 221.36 877.443 221.495C878.162 221.441 878.724 216.394 878.348 214.616C877.79 215.04 873.999 215.547 873.547 213.155C873.094 210.764 875.854 210.924 875.854 210.924Z" fill="#353638"/>
<path d="M888.087 203.249C886.696 202.811 884.684 203.537 883.446 204.176C882.953 204.428 883.073 205.535 883.709 205.283C884.388 205.009 885.067 204.757 885.786 204.596C886.502 204.439 887.269 204.498 887.959 204.282C888.364 204.158 888.598 203.406 888.087 203.249Z" fill="#353638"/>
<path d="M891.954 202.442C891.789 202.351 891.654 202.31 891.468 202.325C891.351 202.336 891.238 202.358 891.128 202.402C890.84 202.508 890.628 202.668 890.468 202.927C890.227 203.315 890.5 203.826 890.971 203.629C890.917 203.65 891.081 203.603 891.099 203.596C891.161 203.574 891.22 203.552 891.282 203.534C891.304 203.53 891.322 203.526 891.34 203.523C891.337 203.526 891.351 203.526 891.395 203.523C891.497 203.526 891.6 203.519 891.698 203.49C891.917 203.42 892.071 203.245 892.122 203.022C892.166 202.843 892.14 202.544 891.954 202.442Z" fill="#353638"/>
<path d="M892.115 209.982C891.844 209.263 891.213 208.573 890.793 207.93C890.208 207.035 889.617 206.148 888.989 205.283C888.781 204.994 888.43 205.407 888.587 205.662C889.15 206.579 889.737 207.477 890.314 208.383C890.548 208.755 890.858 209.157 891.048 209.551C891.487 210.453 891.256 210.811 890.439 211.268C889.891 211.571 890.165 212.604 890.807 212.257C891.636 211.815 892.498 211.005 892.115 209.982Z" fill="#D27771"/>
<path d="M885.925 209.073C885.841 208.606 885.618 208.153 885.421 207.722C885.162 207.167 884.41 207.55 884.505 208.091C884.596 208.587 884.727 209.168 885.034 209.581C885.374 210.03 886.013 209.544 885.925 209.073Z" fill="#353638"/>
<path d="M891.121 213.846C890.979 213.773 887.463 214.601 886.247 215.638C886.115 215.89 887.861 217.683 889.716 217.044C891.57 216.409 891.483 214.032 891.121 213.846Z" fill="white"/>
<path d="M892.918 207.707C892.83 207.24 892.611 206.783 892.414 206.356C892.155 205.798 891.399 206.188 891.497 206.725C891.589 207.222 891.72 207.802 892.027 208.215C892.366 208.664 893.005 208.175 892.918 207.707Z" fill="#353638"/>
<path d="M877.709 212.995C877.019 212.348 875.668 212.096 874.755 212.235C874.474 212.279 874.5 212.75 874.752 212.757C874.752 212.757 874.752 212.757 874.752 212.761C875.182 212.765 875.588 212.805 875.997 212.903C875.847 213.097 875.719 213.309 875.613 213.535C875.496 213.787 875.858 214.006 876.004 213.747C876.114 213.553 876.241 213.371 876.391 213.203C876.435 213.155 876.482 213.108 876.53 213.064C876.873 213.188 877.205 213.338 877.578 213.349C877.76 213.356 877.83 213.104 877.709 212.995Z" fill="#D27771"/>
<path d="M903.967 286.7C903.967 286.7 887.342 286.262 886.98 286.339C886.623 286.423 891.786 287.894 894.346 288.252C896.909 288.61 890.303 290.286 889.982 290.483C889.664 290.684 904.073 290.962 904.073 290.962L903.967 286.7Z" fill="#B3396C"/>
<path d="M918.643 273.471C918.643 273.471 921.721 268.812 924.606 267.256C919.921 265.784 918.121 271.678 918.643 273.471Z" fill="#D27771"/>
<path d="M903.518 202.252C904.793 201.974 906.038 201.551 907.363 201.503C907.619 201.496 908.229 201.401 908.422 201.562C909.218 202.226 907.951 202.854 907.597 203.066C906.976 203.435 906.341 203.745 905.789 204.213C905.673 204.311 905.72 204.582 905.91 204.53C906.534 204.359 908.787 203.366 909.255 202.314C910.281 202.537 911.588 202.869 912.044 201.814C912.395 201.007 912.504 199.977 912.691 199.126C912.698 199.108 912.702 199.086 912.705 199.068C912.629 198.622 912.556 198.283 912.479 198.14C912.464 198.104 912.424 198.067 912.377 198.034C912.285 198.484 912.201 198.929 912.106 199.367C911.928 200.218 911.917 201.04 911.23 201.602C910.752 201.989 910.266 201.993 909.733 201.96C909.905 200.919 910.036 199.886 910.35 198.867C910.485 198.432 910.66 198.02 910.843 197.611C910.646 197.574 910.438 197.541 910.222 197.512C909.594 198.893 909.298 200.539 909.379 201.942C909.364 201.942 909.35 201.938 909.335 201.938C909.335 201.708 909.229 201.481 908.981 201.262C908.681 200.996 908.243 200.934 907.801 200.945C907.768 199.816 907.849 198.768 908.17 197.677C908.21 197.545 908.254 197.421 908.298 197.293C908.104 197.275 907.907 197.26 907.71 197.242C907.323 198.469 907.151 199.783 907.385 200.97C907.148 200.992 906.918 201.025 906.724 201.051C906.293 201.102 905.848 201.16 905.406 201.24C905.49 199.816 905.731 198.498 906.041 197.132C905.826 197.118 905.621 197.111 905.424 197.103C904.931 198.436 904.785 199.951 904.964 201.328C904.442 201.441 903.927 201.591 903.441 201.788C903.463 201.945 903.493 202.099 903.518 202.252Z" fill="#D27771"/>
<path d="M879.816 322.397C879.816 322.397 873.652 327.177 871.093 330.445C868.529 333.71 860.31 346.194 859.937 346.567C859.565 346.939 861.274 350.923 861.431 350.923C861.592 350.923 886.962 330.445 886.962 330.445C886.962 330.445 882.617 323.617 879.816 322.397Z" fill="#56A4C1"/>
<path d="M918.643 273.471C918.643 273.471 914.746 281.654 913.249 296.048C913.249 296.421 915.948 299.448 915.948 299.448C915.948 299.448 928.034 280.318 928.085 279.682C928.14 279.05 918.643 273.471 918.643 273.471Z" fill="#56A4C1"/>
<path d="M915.948 299.448C915.948 299.448 919.121 299.795 918.909 300.43C918.694 301.069 916.985 301.094 916.985 301.094C916.985 301.094 916.985 318.092 916.506 317.723C916.024 317.351 908.126 298.597 907.914 298.173C907.699 297.75 913.249 296.048 913.249 296.048L915.948 299.448Z" fill="#B3396C"/>
<path d="M861.486 350.561C861.486 350.561 865.488 353.472 864.929 353.829C864.367 354.187 861.486 353.231 861.486 353.231C861.486 353.231 858.962 368.731 858.605 368.33C858.243 367.932 852.682 348.531 852.879 348.294C853.08 348.053 859.937 346.567 859.937 346.567L861.486 350.561Z" fill="#B3396C"/>
</g>
<defs>
<filter id="filter0_d_243_479" x="0.427185" y="147" width="944.864" height="261.809" filterUnits="userSpaceOnUse" color-interpolation-filters="sRGB">
<feFlood flood-opacity="0" result="BackgroundImageFix"/>
<feColorMatrix in="SourceAlpha" type="matrix" values="0 0 0 0 0 0 0 0 0 0 0 0 0 0 0 0 0 0 127 0" result="hardAlpha"/>
<feOffset/>
<feGaussianBlur stdDeviation="5"/>
<feComposite in2="hardAlpha" operator="out"/>
<feColorMatrix type="matrix" values="0 0 0 0 0 0 0 0 0 0 0 0 0 0 0 0 0 0 0.3 0"/>
<feBlend mode="normal" in2="BackgroundImageFix" result="effect1_dropShadow_243_479"/>
<feBlend mode="normal" in="SourceGraphic" in2="effect1_dropShadow_243_479" result="shape"/>
</filter>
</defs>
</svg>
