<svg width="71" height="69" viewBox="0 0 71 69" fill="none" xmlns="http://www.w3.org/2000/svg">
<g filter="url(#filter0_d_124_1097)">
<rect x="3" y="3" width="65" height="63" rx="10" fill="#EFF3F6"/>
</g>
<path d="M26.5238 31.1713L30.9851 35.5338C32.6663 37.1763 33.5076 38 34.5538 38C35.1964 38 35.7614 37.69 36.4914 37.0688C36.9389 36.6888 37.1626 36.4975 37.1726 36.2225C37.1826 35.9475 36.9614 35.7313 36.5201 35.2975L26.6325 25.5914C26.3325 25.2964 26.1825 25.1489 26.0175 25.1077C25.908 25.0798 25.7929 25.0828 25.685 25.1164C25.5225 25.1664 25.3763 25.3239 25.0863 25.6389C24.3613 26.4264 24 27.0114 24 27.6814C24 28.7039 24.8413 29.5264 26.5238 31.1713ZM46.5977 27.2451C47.3577 26.5093 47.962 25.6281 48.3747 24.6541C48.7873 23.6801 49 22.633 49 21.5752C49 20.5174 48.7873 19.4703 48.3747 18.4963C47.962 17.5223 47.3577 16.6411 46.5977 15.9053C43.3952 12.7741 38.2026 12.7741 35.0001 15.9053L34.4176 16.474C33.8926 14.4403 32.3351 12.9753 30.5176 13.0003C28.3013 13.0341 26.54 15.2715 26.5825 18.0003L26.5413 22.3214C26.5388 22.5939 26.5375 22.7302 26.5863 22.8477C26.635 22.9652 26.73 23.0602 26.9213 23.2477L37.9064 34.0313C38.3189 34.4363 38.5251 34.6388 38.7814 34.6388C39.0364 34.6388 39.2439 34.4375 39.6564 34.0326L46.5977 27.2451Z" fill="#706C65"/>
<path d="M17.212 42.352H18.192V53.468H17.212V42.352ZM14.216 45.348H21.552V46.16H14.216V45.348ZM14.524 51.06H21.286V51.872H14.524V51.06ZM14.944 49.142H20.894V49.954H14.944V49.142ZM11.766 43.402H13.796V44.284H11.766V43.402ZM12.298 47.336H14.09V48.148H12.298V47.336ZM13.572 43.402H13.698L13.866 43.36L14.538 43.542C13.964 44.998 13.012 47.168 12.256 48.806L11.374 48.596C12.144 46.972 13.11 44.676 13.572 43.528V43.402ZM13.81 47.336H13.992L14.16 47.308L14.72 47.42C14.384 51.298 13.39 53.72 11.654 55.078C11.528 54.854 11.262 54.504 11.052 54.308C12.564 53.202 13.53 50.836 13.81 47.504V47.336ZM12.354 49.282C13.11 53.076 14.846 53.916 17.702 53.916C18.15 53.916 20.992 53.916 21.594 53.902C21.44 54.14 21.286 54.588 21.23 54.868H17.66C14.314 54.868 12.466 53.874 11.542 49.534L12.354 49.282ZM15.168 43.472H20.712V48.078H15.168V47.252H19.802V44.284H15.168V43.472ZM11.038 42.324L11.99 42.59C11.262 44.9 10.1 47.252 8.812 48.806C8.714 48.568 8.448 47.994 8.28 47.728C9.428 46.398 10.436 44.382 11.038 42.324ZM10.044 45.866L10.968 44.942L10.982 44.956V55.092H10.044V45.866ZM24.996 47.378H35.44V48.176H24.996V47.378ZM25.99 45.572H34.054V50.038H25.878V49.268H33.06V46.342H25.99V45.572ZM29.266 44.578H30.288V53.916C30.288 54.574 30.12 54.84 29.686 54.98C29.238 55.134 28.482 55.148 27.334 55.148C27.278 54.896 27.138 54.49 26.984 54.224C27.852 54.252 28.706 54.238 28.944 54.224C29.196 54.224 29.266 54.154 29.266 53.916V44.578ZM25.346 50.794L25.948 50.22C26.676 50.626 27.572 51.242 28.048 51.662L27.404 52.306C26.97 51.872 26.074 51.228 25.346 50.794ZM33.886 50.29L34.656 50.906C33.816 51.536 32.724 52.194 31.87 52.6L31.268 52.068C32.094 51.62 33.228 50.85 33.886 50.29ZM30.512 49.758C31.254 51.872 32.878 53.482 35.16 54.14C34.936 54.336 34.656 54.714 34.516 54.98C32.164 54.182 30.526 52.39 29.7 49.954L30.512 49.758ZM24.604 53.72C25.556 53.412 26.998 52.88 28.398 52.362L28.58 53.132C27.376 53.65 26.116 54.168 25.108 54.574L24.604 53.72ZM28.86 42.254H29.938V44.032H28.86V42.254ZM24.156 43.542H35.272V44.466H24.156V43.542ZM23.652 43.542H24.646V47.672C24.646 49.87 24.464 53.048 23.288 55.176C23.106 54.994 22.672 54.714 22.434 54.616C23.554 52.586 23.652 49.73 23.652 47.672V43.542ZM42.944 43.164C41.74 44.648 39.43 46.356 37.106 47.434C36.98 47.196 36.714 46.818 36.49 46.58C38.87 45.558 41.222 43.794 42.356 42.226H43.406C44.932 43.99 47.368 45.6 49.552 46.426C49.314 46.678 49.062 47.056 48.88 47.35C46.78 46.412 44.302 44.746 42.944 43.164ZM39.626 48.134H46.332V48.946H39.626V48.134ZM42.412 44.704H43.49V46.608H42.412V44.704ZM37.414 54.014C38.968 53.888 41.348 53.678 43.658 53.454L43.672 54.406C41.474 54.63 39.164 54.854 37.554 55.008L37.414 54.014ZM43.056 50.64C44.092 52.614 46.36 53.79 49.342 54.21C49.118 54.434 48.838 54.854 48.698 55.134C45.618 54.588 43.336 53.23 42.16 50.92L43.056 50.64ZM47.788 50.416L48.572 51.032C47.466 51.816 46.024 52.628 44.876 53.174L44.204 52.6C45.338 52.054 46.878 51.116 47.788 50.416ZM39.626 46.104H47.004V51.046H39.626V50.192H45.954V46.958H39.626V46.104ZM38.996 46.104H40.032V54.14L38.996 54.252V46.104ZM56.972 51.704H61.928V52.502H56.972V51.704ZM56.972 53.79H61.928V54.644H56.972V53.79ZM55.656 43.934H63.258V44.83H55.656V43.934ZM55.348 47.812H63.468V48.75H55.348V47.812ZM57.994 44.27H58.848V48.442H57.994V44.27ZM60.01 44.27H60.864V48.442H60.01V44.27ZM61.158 42.24L62.11 42.548C61.774 43.122 61.438 43.696 61.158 44.088L60.346 43.808C60.626 43.374 60.962 42.688 61.158 42.24ZM62.124 45.194L62.964 45.474C62.614 46.202 62.222 47.042 61.9 47.574L61.214 47.322C61.522 46.748 61.928 45.824 62.124 45.194ZM56.776 42.534L57.63 42.282C57.966 42.744 58.302 43.388 58.428 43.808L57.532 44.13C57.406 43.682 57.098 43.024 56.776 42.534ZM55.95 45.432L56.692 45.222C57.042 45.88 57.378 46.734 57.49 47.308L56.72 47.56C56.622 46.986 56.3 46.09 55.95 45.432ZM56.482 49.576H62.53V55.05H61.536V50.444H57.448V55.106H56.482V49.576ZM51.134 46.482H54.914V47.322H51.134V46.482ZM51.204 42.744H54.858V43.584H51.204V42.744ZM51.134 48.358H54.914V49.198H51.134V48.358ZM50.532 44.578H55.32V45.446H50.532V44.578ZM51.624 50.248H54.914V54.322H51.624V53.454H54.032V51.116H51.624V50.248ZM51.106 50.248H52.002V54.98H51.106V50.248Z" fill="#706C65"/>
<defs>
<filter id="filter0_d_124_1097" x="0" y="0" width="71" height="69" filterUnits="userSpaceOnUse" color-interpolation-filters="sRGB">
<feFlood flood-opacity="0" result="BackgroundImageFix"/>
<feColorMatrix in="SourceAlpha" type="matrix" values="0 0 0 0 0 0 0 0 0 0 0 0 0 0 0 0 0 0 127 0" result="hardAlpha"/>
<feOffset/>
<feGaussianBlur stdDeviation="1.5"/>
<feComposite in2="hardAlpha" operator="out"/>
<feColorMatrix type="matrix" values="0 0 0 0 0 0 0 0 0 0 0 0 0 0 0 0 0 0 0.25 0"/>
<feBlend mode="normal" in2="BackgroundImageFix" result="effect1_dropShadow_124_1097"/>
<feBlend mode="normal" in="SourceGraphic" in2="effect1_dropShadow_124_1097" result="shape"/>
</filter>
</defs>
</svg>
