<svg width="71" height="69" viewBox="0 0 71 69" fill="none" xmlns="http://www.w3.org/2000/svg">
<g filter="url(#filter0_d_124_1111)">
<rect x="3" y="3" width="65" height="63" rx="10" fill="#EFF3F6"/>
</g>
<path d="M11.43 47.77V52.726H10.422V48.75H8.644V47.77H11.43ZM11.43 52.306C12.088 53.342 13.32 53.818 14.986 53.874C16.54 53.944 19.774 53.902 21.468 53.79C21.342 54.028 21.174 54.518 21.132 54.826C19.55 54.896 16.554 54.924 14.986 54.854C13.138 54.784 11.864 54.294 10.996 53.188C10.38 53.79 9.736 54.392 9.036 55.008L8.49 53.986C9.106 53.538 9.862 52.908 10.52 52.306H11.43ZM8.77 43.178L9.568 42.604C10.436 43.234 11.416 44.2 11.85 44.886L10.982 45.544C10.59 44.844 9.624 43.864 8.77 43.178ZM16.134 43.878H17.142V53.496H16.134V43.878ZM13.992 48.834V49.786H19.326V48.834H13.992ZM13.992 47.224V48.148H19.326V47.224H13.992ZM13.082 46.51H20.278V50.5H13.082V46.51ZM12.34 42.744H21.02V44.564H20.04V43.542H13.278V44.564H12.34V42.744ZM12.634 44.872H20.684V45.656H12.634V44.872ZM12.102 51.34H21.272V52.166H12.102V51.34ZM22.966 51.396H29.35V52.194H22.966V51.396ZM22.588 44.648H29.574V45.46H22.588V44.648ZM25.626 43.374H26.592V53.678H25.626V43.374ZM22.574 53.706C24.282 53.552 26.9 53.3 29.406 53.034L29.42 53.86C27.04 54.14 24.506 54.434 22.728 54.616L22.574 53.706ZM23.876 48.778V49.814H28.412V48.778H23.876ZM23.876 47.07V48.078H28.412V47.07H23.876ZM22.994 46.342H29.308V50.542H22.994V46.342ZM28.804 42.38L29.336 43.192C27.684 43.556 25.08 43.794 22.98 43.864C22.938 43.64 22.84 43.29 22.728 43.08C24.814 42.968 27.362 42.716 28.804 42.38ZM29.476 45.516H34.53V46.496H29.476V45.516ZM34.124 45.516H35.132C35.132 45.516 35.118 45.908 35.118 46.048C34.964 51.956 34.824 53.916 34.362 54.518C34.11 54.882 33.83 55.008 33.41 55.05C33.018 55.092 32.346 55.092 31.702 55.05C31.674 54.756 31.562 54.322 31.394 54.042C32.08 54.098 32.696 54.112 32.976 54.112C33.2 54.112 33.34 54.07 33.466 53.888C33.816 53.454 33.97 51.438 34.124 45.768V45.516ZM31.17 42.422H32.178C32.164 47.994 32.15 52.698 28.804 55.204C28.636 54.952 28.272 54.616 28.02 54.448C31.226 52.152 31.156 47.714 31.17 42.422ZM36.84 43.22H49.188V44.172H36.84V43.22ZM40.116 42.254H41.166V45.278H40.116V42.254ZM44.806 42.254H45.87V45.124H44.806V42.254ZM36.798 50.318H49.23V51.256H36.798V50.318ZM42.412 49.24H43.504V55.12H42.412V49.24ZM42.006 50.71L42.86 51.116C41.572 52.726 39.262 54.168 37.19 54.868C37.036 54.588 36.714 54.168 36.462 53.944C38.52 53.37 40.83 52.082 42.006 50.71ZM43.952 50.78C45.1 52.152 47.354 53.328 49.468 53.846C49.23 54.07 48.908 54.49 48.754 54.77C46.64 54.126 44.372 52.754 43.126 51.13L43.952 50.78ZM47.34 44.984L48.18 45.81C45.45 46.44 41.096 46.748 37.512 46.818C37.484 46.552 37.358 46.132 37.26 45.908C40.788 45.824 45.072 45.516 47.34 44.984ZM37.904 47.532L38.786 47.168C39.332 47.784 39.878 48.638 40.074 49.24L39.136 49.646C38.954 49.044 38.422 48.176 37.904 47.532ZM41.768 47.168L42.692 46.86C43.084 47.476 43.476 48.26 43.574 48.82L42.594 49.156C42.496 48.61 42.146 47.784 41.768 47.168ZM47.284 46.636L48.348 47.028C47.774 47.966 47.074 49.044 46.514 49.73L45.702 49.366C46.234 48.652 46.92 47.462 47.284 46.636ZM56.412 46.72H57.49V55.12H56.412V46.72ZM53.234 49.086V50.304H60.85V49.086H53.234ZM53.234 47.084V48.274H60.85V47.084H53.234ZM52.212 46.23H61.914V51.144H52.212V46.23ZM50.798 52.222H63.216V53.146H50.798V52.222ZM52.786 43.5V44.83H55.474V43.5H52.786ZM51.834 42.8H56.454V45.53H51.834V42.8ZM58.54 43.5V44.83H61.256V43.5H58.54ZM57.588 42.8H62.25V45.53H57.588V42.8Z" fill="#706C65"/>
<path d="M28.8 17V33.32H32.4V26.3257H39.6V33.32H43.2V17H39.6V23.9943H32.4V17H28.8ZM25.2 28.6571C25.2 28.9663 25.3264 29.2628 25.5515 29.4814C25.7765 29.7 26.0817 29.8229 26.4 29.8229H27.6V20.4971H26.4C26.0817 20.4971 25.7765 20.62 25.5515 20.8386C25.3264 21.0572 25.2 21.3537 25.2 21.6629V23.9943H24V26.3257H25.2V28.6571ZM46.8 21.6629C46.8 21.3537 46.6736 21.0572 46.4485 20.8386C46.2235 20.62 45.9183 20.4971 45.6 20.4971H44.4V29.8229H45.6C45.9183 29.8229 46.2235 29.7 46.4485 29.4814C46.6736 29.2628 46.8 28.9663 46.8 28.6571V26.3257H48V23.9943H46.8V21.6629Z" fill="#706C65"/>
<defs>
<filter id="filter0_d_124_1111" x="0" y="0" width="71" height="69" filterUnits="userSpaceOnUse" color-interpolation-filters="sRGB">
<feFlood flood-opacity="0" result="BackgroundImageFix"/>
<feColorMatrix in="SourceAlpha" type="matrix" values="0 0 0 0 0 0 0 0 0 0 0 0 0 0 0 0 0 0 127 0" result="hardAlpha"/>
<feOffset/>
<feGaussianBlur stdDeviation="1.5"/>
<feComposite in2="hardAlpha" operator="out"/>
<feColorMatrix type="matrix" values="0 0 0 0 0 0 0 0 0 0 0 0 0 0 0 0 0 0 0.25 0"/>
<feBlend mode="normal" in2="BackgroundImageFix" result="effect1_dropShadow_124_1111"/>
<feBlend mode="normal" in="SourceGraphic" in2="effect1_dropShadow_124_1111" result="shape"/>
</filter>
</defs>
</svg>
