<svg width="56" height="49" viewBox="0 0 56 49" fill="none" xmlns="http://www.w3.org/2000/svg">
<path d="M18.0722 6.55259L22.8192 10.9026L27.0485 5.47937C27.167 5.32775 27.3167 5.20592 27.4866 5.12293C27.6565 5.03995 27.8422 4.99795 28.0299 5.00008C28.2175 5.0022 28.4023 5.04839 28.5704 5.13519C28.7386 5.222 28.8858 5.3472 29.001 5.50146L33.0369 10.9013L37.9374 6.48892C38.1299 6.316 38.3684 6.20842 38.6212 6.18058C38.874 6.15273 39.1289 6.20596 39.3518 6.33313C39.5747 6.46031 39.755 6.65536 39.8686 6.89218C39.9821 7.129 40.0235 7.39629 39.9872 7.65829L38.1158 21.1021H17.9137L16.0137 7.71936C15.9759 7.4559 16.0168 7.18674 16.1309 6.94831C16.2449 6.70989 16.4266 6.51372 16.6512 6.38639C16.8758 6.25906 17.1326 6.20671 17.3868 6.23644C17.641 6.26617 17.8802 6.37653 18.0722 6.55259ZM18.011 22.4014H37.9724V23.7007C37.9724 24.0453 37.8409 24.3758 37.6069 24.6194C37.373 24.8631 37.0557 25 36.7248 25H19.2586C18.9277 25 18.6104 24.8631 18.3764 24.6194C18.1425 24.3758 18.011 24.0453 18.011 23.7007V22.4014Z" fill="white"/>
<path d="M2.954 34.592H10.99V35.264H2.954V34.592ZM2.786 40.584H11.2V41.242H2.786V40.584ZM4.284 41.662L4.956 41.312C5.432 41.662 5.978 42.208 6.216 42.586L5.502 42.992C5.264 42.614 4.746 42.054 4.284 41.662ZM4.34 37.504V38.12H9.632V37.504H4.34ZM4.34 36.384V36.972H9.632V36.384H4.34ZM3.5 35.838H10.5V38.68H3.5V35.838ZM8.288 40.066H9.184V42.544C9.184 42.964 9.1 43.104 8.764 43.202C8.456 43.314 7.924 43.314 7.084 43.314C7.042 43.104 6.93 42.88 6.832 42.698C7.406 42.712 7.938 42.712 8.092 42.698C8.246 42.698 8.288 42.656 8.288 42.516V40.066ZM2.982 39.394C4.718 39.394 7.378 39.366 9.982 39.31L9.954 39.87C7.434 39.954 4.844 40.038 3.038 40.066L2.982 39.394ZM8.778 39.044L9.352 38.652C9.926 39.058 10.584 39.646 10.906 40.038L10.304 40.5C9.982 40.08 9.31 39.45 8.778 39.044ZM6.482 33.948H7.378V39.604L6.482 39.66V33.948ZM1.344 32.884H12.67V45.064H11.662V33.724H2.31V45.134H1.344V32.884ZM1.82 43.552H12.096V44.392H1.82V43.552ZM26.67 36.566L27.37 37.238C26.614 37.994 25.62 38.848 24.864 39.408L24.29 38.82C25.018 38.246 26.068 37.266 26.67 36.566ZM20.104 32.618L20.958 32.31C21.392 32.968 21.798 33.822 21.966 34.41L21.042 34.76C20.902 34.172 20.51 33.276 20.104 32.618ZM19.04 34.606H27.3V35.544H19.04V34.606ZM20.888 37.126L21.7 36.692C24.542 38.988 24.654 43.496 23.478 44.574C23.086 44.98 22.708 45.106 22.134 45.106C21.868 45.106 21.518 45.092 21.154 45.064C21.14 44.812 21.07 44.378 20.888 44.098C21.294 44.14 21.672 44.168 21.938 44.168C22.246 44.168 22.498 44.126 22.708 43.846C23.52 43.02 23.408 39.198 20.888 37.126ZM22.708 34.956L23.59 35.292C22.512 36.608 20.79 37.812 19.278 38.596C19.152 38.4 18.83 38.022 18.634 37.84C20.132 37.182 21.756 36.104 22.708 34.956ZM23.982 35.138C24.514 38.442 25.634 41.382 27.58 42.754C27.356 42.936 27.02 43.3 26.852 43.566C24.822 41.97 23.716 38.904 23.142 35.292L23.982 35.138ZM22.12 37.994L22.82 38.442C22.036 39.31 20.594 40.374 19.516 41.018C19.39 40.78 19.138 40.444 18.914 40.262C19.964 39.772 21.406 38.792 22.12 37.994ZM22.96 39.8L23.674 40.262C22.582 41.704 20.496 43.286 18.746 44.084C18.606 43.846 18.34 43.51 18.102 43.314C19.852 42.642 21.952 41.158 22.96 39.8ZM25.13 32.254L26.138 32.576C25.746 33.318 25.284 34.158 24.906 34.704L24.066 34.424C24.43 33.822 24.892 32.898 25.13 32.254ZM15.12 32.856H18.424V33.808H16.072V45.134H15.12V32.856ZM18.102 32.856H18.284L18.452 32.814L19.124 33.22C18.718 34.368 18.2 35.81 17.724 36.93C18.76 38.092 18.984 39.072 18.984 39.94C18.984 40.696 18.83 41.284 18.438 41.564C18.242 41.69 17.99 41.774 17.71 41.816C17.43 41.844 17.08 41.844 16.758 41.83C16.744 41.578 16.66 41.172 16.506 40.906C16.828 40.934 17.094 40.948 17.318 40.92C17.486 40.92 17.64 40.878 17.752 40.794C17.976 40.64 18.046 40.262 18.046 39.842C18.046 39.086 17.794 38.134 16.786 37.042C17.29 35.768 17.808 34.102 18.102 33.136V32.856ZM31.248 32.268H32.2V33.822H31.248V32.268ZM28.91 33.332H34.566V34.172H28.91V33.332ZM28.602 35.74H34.692V36.594H28.602V35.74ZM35.028 35.74H41.412V36.594H35.028V35.74ZM37.534 32.268H38.514V33.822H37.534V32.268ZM35.21 33.332H41.146V34.172H35.21V33.332ZM30.17 38.162V39.912H33.194V38.162H30.17ZM29.232 37.336H34.16V40.738H29.232V37.336ZM36.47 38.162V39.954H39.676V38.162H36.47ZM35.504 37.322H40.684V40.78H35.504V37.322ZM32.158 40.514H33.082V43.468L32.158 43.846V40.514ZM31.738 43.482C32.508 43.258 33.558 42.88 34.664 42.488L34.818 43.356C33.852 43.734 32.872 44.098 32.018 44.42L31.738 43.482ZM29.736 34.256L30.548 34.088C30.786 34.578 30.982 35.236 31.038 35.67L30.17 35.852C30.142 35.418 29.946 34.76 29.736 34.256ZM32.886 34.032L33.782 34.27C33.558 34.858 33.348 35.446 33.166 35.88L32.34 35.67C32.508 35.208 32.774 34.522 32.886 34.032ZM36.008 34.242L36.848 34.046C37.1 34.55 37.31 35.208 37.38 35.656L36.498 35.88C36.456 35.432 36.246 34.746 36.008 34.242ZM39.312 33.99L40.264 34.228C39.984 34.83 39.732 35.446 39.48 35.866L38.682 35.642C38.892 35.18 39.172 34.48 39.312 33.99ZM36.372 40.542H37.31C37.142 42.852 36.624 44.322 34.426 45.134C34.328 44.91 34.062 44.532 33.852 44.35C35.812 43.692 36.232 42.488 36.372 40.542ZM30.17 40.514H31.094C30.982 42.712 30.604 44.224 28.98 45.134C28.868 44.896 28.574 44.532 28.364 44.378C29.778 43.65 30.086 42.376 30.17 40.514ZM38.346 40.528H39.284V43.692C39.284 43.79 39.312 43.86 39.396 43.902C39.466 43.958 39.578 43.986 39.704 43.986C39.816 43.986 40.04 43.986 40.18 43.986C40.334 43.986 40.488 43.958 40.558 43.916C40.628 43.846 40.712 43.762 40.74 43.622C40.768 43.384 40.796 42.824 40.796 42.18C40.978 42.362 41.356 42.558 41.622 42.656C41.608 43.314 41.552 44.028 41.468 44.266C41.384 44.532 41.244 44.7 41.02 44.812C40.852 44.91 40.544 44.966 40.264 44.966C40.082 44.966 39.634 44.966 39.466 44.966C39.172 44.966 38.836 44.91 38.626 44.728C38.402 44.532 38.346 44.336 38.346 43.678V40.528ZM48.454 32.24H49.504V33.598H48.454V32.24ZM42.98 33.094H55.062V35.278H54.054V33.934H43.946V35.278H42.98V33.094ZM46.284 34.172H47.264V37.784H46.284V34.172ZM50.708 34.172H51.688V37.784H50.708V34.172ZM44.24 34.788H53.732V35.46H44.24V34.788ZM44.464 36.062H53.564V36.706H44.464V36.062ZM42.826 37.336H55.202V38.12H42.826V37.336ZM46.508 37.574L47.278 37.896C46.34 39.072 44.604 40.15 43.078 40.682C42.938 40.43 42.644 40.094 42.448 39.898C43.946 39.478 45.64 38.554 46.508 37.574ZM51.618 37.532C52.444 38.526 54.082 39.408 55.622 39.8C55.398 39.996 55.104 40.36 54.964 40.612C53.396 40.108 51.744 39.03 50.848 37.854L51.618 37.532ZM46.032 40.71V41.396H51.898V40.71H46.032ZM46.032 41.984V42.684H51.898V41.984H46.032ZM46.032 39.45V40.122H51.898V39.45H46.032ZM45.066 38.834H52.906V43.3H45.066V38.834ZM49.938 43.734L50.652 43.146C52.248 43.594 53.984 44.14 55.048 44.546L54.138 45.134C53.186 44.742 51.576 44.21 49.938 43.734ZM47.096 43.118L47.964 43.678C46.802 44.294 44.884 44.84 43.33 45.12C43.19 44.924 42.896 44.602 42.7 44.42C44.254 44.168 46.186 43.622 47.096 43.118Z" fill="white"/>
</svg>
