<svg width="71" height="69" viewBox="0 0 71 69" fill="none" xmlns="http://www.w3.org/2000/svg">
<g filter="url(#filter0_d_124_1020)">
<rect x="3" y="3" width="65" height="63" rx="10" fill="#EFF3F6"/>
</g>
<path d="M21.164 51.778H28.864V52.632H21.164V51.778ZM21.164 54.074H28.864V54.914H21.164V54.074ZM21.164 56.384H28.906V57.322H21.164V56.384ZM18.742 47.186H31.272V48.166H18.742V47.186ZM20.338 49.468H29.648V58.12H28.57V50.392H21.388V58.12H20.338V49.468ZM24.482 47.69L25.77 47.774C25.504 48.6 25.168 49.482 24.916 50.084L23.894 49.93C24.132 49.3 24.37 48.348 24.482 47.69ZM27.814 45.226L28.976 45.534C28.472 46.29 27.856 47.074 27.352 47.606L26.442 47.312C26.918 46.738 27.492 45.856 27.814 45.226ZM21.178 45.604L22.102 45.198C22.62 45.688 23.166 46.388 23.446 46.864L22.466 47.368C22.228 46.878 21.668 46.136 21.178 45.604ZM42.556 51.134V52.422H49.626V51.134H42.556ZM42.556 53.234V54.522H49.626V53.234H42.556ZM42.556 49.062V50.322H49.626V49.062H42.556ZM41.464 48.222H50.746V55.362H41.464V48.222ZM47.036 56.286L47.778 55.6C49.43 56.146 51.222 56.874 52.314 57.42L51.334 58.134C50.34 57.588 48.674 56.846 47.036 56.286ZM40.134 45.968H51.824V46.934H40.134V45.968ZM45.468 46.374L46.7 46.528C46.462 47.326 46.196 48.18 45.972 48.754L44.978 48.572C45.174 47.956 45.384 47.018 45.468 46.374ZM44.026 55.53L44.978 56.216C43.76 56.958 41.856 57.7 40.358 58.12C40.19 57.896 39.868 57.532 39.63 57.308C41.142 56.902 43.06 56.174 44.026 55.53Z" fill="#706C65"/>
<path d="M26.8509 37.0877C26.0669 37.0877 25.3955 36.8067 24.8367 36.2448C24.278 35.6828 23.9991 35.0081 24 34.2205V21.3183C24 20.8643 24.1012 20.4343 24.3036 20.0281C24.506 19.6219 24.7849 19.2874 25.1404 19.0246L33.693 12.5734C33.9543 12.3823 34.2275 12.2389 34.5126 12.1434C34.7977 12.0478 35.0947 12 35.4035 12C35.7124 12 36.0093 12.0478 36.2944 12.1434C36.5795 12.2389 36.8527 12.3823 37.114 12.5734L45.6667 19.0246C46.023 19.2874 46.3024 19.6219 46.5048 20.0281C46.7072 20.4343 46.808 20.8643 46.807 21.3183V34.2205C46.807 35.009 46.5276 35.6842 45.9689 36.2462C45.4101 36.8082 44.7392 37.0887 43.9561 37.0877H38.2544V27.0526H32.5526V37.0877H26.8509Z" fill="#706C65"/>
<defs>
<filter id="filter0_d_124_1020" x="0" y="0" width="71" height="69" filterUnits="userSpaceOnUse" color-interpolation-filters="sRGB">
<feFlood flood-opacity="0" result="BackgroundImageFix"/>
<feColorMatrix in="SourceAlpha" type="matrix" values="0 0 0 0 0 0 0 0 0 0 0 0 0 0 0 0 0 0 127 0" result="hardAlpha"/>
<feOffset/>
<feGaussianBlur stdDeviation="1.5"/>
<feComposite in2="hardAlpha" operator="out"/>
<feColorMatrix type="matrix" values="0 0 0 0 0 0 0 0 0 0 0 0 0 0 0 0 0 0 0.25 0"/>
<feBlend mode="normal" in2="BackgroundImageFix" result="effect1_dropShadow_124_1020"/>
<feBlend mode="normal" in="SourceGraphic" in2="effect1_dropShadow_124_1020" result="shape"/>
</filter>
</defs>
</svg>
