<svg width="56" height="49" viewBox="0 0 56 49" fill="none" xmlns="http://www.w3.org/2000/svg">
<path d="M36 15.5C36.875 15.5 37.7125 15.6625 38.5 15.9375V10.5L31 3H18.5C17.1125 3 16 4.1125 16 5.5V23C16 23.663 16.2634 24.2989 16.7322 24.7678C17.2011 25.2366 17.837 25.5 18.5 25.5H28.9375C28.6625 24.7125 28.5 23.875 28.5 23C28.5 18.8625 31.8625 15.5 36 15.5ZM29.75 4.875L36.625 11.75H29.75V4.875ZM41 21.75V24.25H37.25V28H34.75V24.25H31V21.75H34.75V18H37.25V21.75H41Z" fill="white"/>
<path d="M4.774 33.094H12.964V45.008H11.956V34.032H5.754V45.12H4.774V33.094ZM6.328 36.062H11.48V36.888H6.328V36.062ZM5.306 43.342H12.516V44.28H5.306V43.342ZM8.456 34.48H9.31V38.918H8.456V34.48ZM7.728 39.212V41.382H10.094V39.212H7.728ZM6.916 38.428H10.934V42.18H6.916V38.428ZM3.318 32.31L4.284 32.59C3.486 34.984 2.184 37.392 0.784 39.002C0.7 38.75 0.406 38.176 0.224 37.924C1.484 36.552 2.632 34.438 3.318 32.31ZM2.156 35.74L3.136 34.746L3.15 34.76V45.148H2.156V35.74ZM20.272 32.674H21.434C21.322 34.872 21.112 41.858 15.316 45.008C15.134 44.742 14.784 44.42 14.462 44.182C20.174 41.27 20.174 34.536 20.272 32.674ZM21.392 32.954C21.434 34.046 21.84 41.48 27.608 44.126C27.3 44.364 26.978 44.714 26.81 45.008C20.874 42.166 20.482 34.34 20.384 33.052L21.392 32.954ZM35.364 37.602H40.194V38.596H35.364V37.602ZM34.902 37.602H35.952V43.314C35.952 43.86 36.106 43.972 36.876 43.972C37.24 43.972 39.06 43.972 39.536 43.972C40.292 43.972 40.404 43.608 40.488 41.662C40.74 41.844 41.188 42.026 41.482 42.096C41.328 44.35 41.006 44.98 39.606 44.98C39.256 44.98 37.114 44.98 36.792 44.98C35.336 44.98 34.902 44.644 34.902 43.3V37.602ZM34.748 33.038H40.74V39.38H39.676V34.032H34.748V33.038ZM29.19 36.482H33.558V37.322H29.19V36.482ZM29.274 32.744H33.614V33.584H29.274V32.744ZM29.19 38.358H33.558V39.198H29.19V38.358ZM28.532 34.578H34.104V35.446H28.532V34.578ZM29.68 40.248H33.516V44.336H29.68V43.454H32.578V41.116H29.68V40.248ZM29.176 40.248H30.114V44.98H29.176V40.248ZM49.742 33.304H53.69V34.116H49.742V33.304ZM49.392 35.502H53.48V36.314H49.392V35.502ZM47.964 37.518H55.412V38.4H47.964V37.518ZM53.312 33.304H53.424L53.606 33.248L54.334 33.332C54.194 34.676 53.928 36.538 53.676 37.938L52.682 37.854C52.948 36.44 53.2 34.452 53.312 33.43V33.304ZM49.63 32.24L50.624 32.338C50.358 33.822 49.952 35.754 49.658 36.916L48.65 36.804C48.972 35.642 49.378 33.682 49.63 32.24ZM47.614 43.496C48.398 43.062 49.574 42.348 50.708 41.634L51.016 42.404C50.05 43.076 49 43.762 48.146 44.294L47.614 43.496ZM48.244 39.478L48.972 39.03C49.532 39.562 50.134 40.318 50.386 40.836L49.602 41.354C49.364 40.822 48.79 40.038 48.244 39.478ZM54.432 39.002L55.272 39.436C54.796 40.108 54.236 40.808 53.774 41.298L53.088 40.892C53.522 40.388 54.11 39.576 54.432 39.002ZM51.142 37.924H52.15V44.042C52.15 44.546 52.052 44.812 51.702 44.966C51.38 45.12 50.848 45.134 50.036 45.134C49.994 44.868 49.854 44.49 49.728 44.224C50.288 44.252 50.778 44.238 50.932 44.238C51.1 44.238 51.142 44.196 51.142 44.042V37.924ZM52.122 38.68C52.626 40.934 53.746 42.782 55.594 43.552C55.384 43.734 55.09 44.098 54.95 44.364C53.032 43.412 51.926 41.382 51.366 38.834L52.122 38.68ZM43.512 35.712H47.446V36.622H43.512V35.712ZM42.756 38.106H47.88V39.03H42.756V38.106ZM43.078 39.954L43.806 39.772C44.086 40.626 44.31 41.704 44.366 42.432L43.582 42.628C43.568 41.9 43.344 40.808 43.078 39.954ZM42.63 43.72C43.974 43.496 45.99 43.09 47.936 42.684L48.006 43.58C46.186 43.986 44.268 44.392 42.84 44.7L42.63 43.72ZM46.97 39.646L47.782 39.856C47.544 40.71 47.306 41.718 47.068 42.376L46.382 42.18C46.592 41.494 46.844 40.388 46.97 39.646ZM44.954 36.048H45.878V43.678L44.954 43.832V36.048ZM44.912 32.254H45.458V32.478H45.766V32.744C45.22 33.822 44.31 35.306 42.924 36.524C42.77 36.314 42.462 36.006 42.266 35.866C43.54 34.802 44.436 33.374 44.912 32.254ZM45.08 32.254H45.864C46.704 32.982 47.754 34.032 48.258 34.732L47.558 35.53C47.068 34.844 46.102 33.682 45.276 32.996H45.08V32.254Z" fill="white"/>
</svg>
