<svg width="56" height="49" viewBox="0 0 56 49" fill="none" xmlns="http://www.w3.org/2000/svg">
<path d="M18.5238 21.1713L22.9851 25.5338C24.6663 27.1763 25.5076 28 26.5538 28C27.1964 28 27.7614 27.69 28.4914 27.0688C28.9389 26.6888 29.1626 26.4975 29.1726 26.2225C29.1826 25.9475 28.9614 25.7313 28.5201 25.2975L18.6325 15.5914C18.3325 15.2964 18.1825 15.1489 18.0175 15.1077C17.908 15.0798 17.7929 15.0828 17.685 15.1164C17.5225 15.1664 17.3763 15.3239 17.0863 15.6389C16.3613 16.4264 16 17.0114 16 17.6814C16 18.7039 16.8413 19.5264 18.5238 21.1713ZM38.5977 17.2451C39.3577 16.5093 39.962 15.6281 40.3747 14.6541C40.7873 13.6801 41 12.633 41 11.5752C41 10.5174 40.7873 9.47032 40.3747 8.49629C39.962 7.52227 39.3577 6.64114 38.5977 5.90528C35.3952 2.77407 30.2026 2.77407 27.0001 5.90528L26.4176 6.47402C25.8926 4.4403 24.3351 2.97532 22.5176 3.00032C20.3013 3.03406 18.54 5.27154 18.5825 8.00025L18.5413 12.3214C18.5388 12.5939 18.5375 12.7302 18.5863 12.8477C18.635 12.9652 18.73 13.0602 18.9213 13.2477L29.9064 24.0313C30.3189 24.4363 30.5251 24.6388 30.7814 24.6388C31.0364 24.6388 31.2439 24.4375 31.6564 24.0326L38.5977 17.2451Z" fill="white"/>
<path d="M9.212 32.352H10.192V43.468H9.212V32.352ZM6.216 35.348H13.552V36.16H6.216V35.348ZM6.524 41.06H13.286V41.872H6.524V41.06ZM6.944 39.142H12.894V39.954H6.944V39.142ZM3.766 33.402H5.796V34.284H3.766V33.402ZM4.298 37.336H6.09V38.148H4.298V37.336ZM5.572 33.402H5.698L5.866 33.36L6.538 33.542C5.964 34.998 5.012 37.168 4.256 38.806L3.374 38.596C4.144 36.972 5.11 34.676 5.572 33.528V33.402ZM5.81 37.336H5.992L6.16 37.308L6.72 37.42C6.384 41.298 5.39 43.72 3.654 45.078C3.528 44.854 3.262 44.504 3.052 44.308C4.564 43.202 5.53 40.836 5.81 37.504V37.336ZM4.354 39.282C5.11 43.076 6.846 43.916 9.702 43.916C10.15 43.916 12.992 43.916 13.594 43.902C13.44 44.14 13.286 44.588 13.23 44.868H9.66C6.314 44.868 4.466 43.874 3.542 39.534L4.354 39.282ZM7.168 33.472H12.712V38.078H7.168V37.252H11.802V34.284H7.168V33.472ZM3.038 32.324L3.99 32.59C3.262 34.9 2.1 37.252 0.812 38.806C0.714 38.568 0.448 37.994 0.28 37.728C1.428 36.398 2.436 34.382 3.038 32.324ZM2.044 35.866L2.968 34.942L2.982 34.956V45.092H2.044V35.866ZM16.996 37.378H27.44V38.176H16.996V37.378ZM17.99 35.572H26.054V40.038H17.878V39.268H25.06V36.342H17.99V35.572ZM21.266 34.578H22.288V43.916C22.288 44.574 22.12 44.84 21.686 44.98C21.238 45.134 20.482 45.148 19.334 45.148C19.278 44.896 19.138 44.49 18.984 44.224C19.852 44.252 20.706 44.238 20.944 44.224C21.196 44.224 21.266 44.154 21.266 43.916V34.578ZM17.346 40.794L17.948 40.22C18.676 40.626 19.572 41.242 20.048 41.662L19.404 42.306C18.97 41.872 18.074 41.228 17.346 40.794ZM25.886 40.29L26.656 40.906C25.816 41.536 24.724 42.194 23.87 42.6L23.268 42.068C24.094 41.62 25.228 40.85 25.886 40.29ZM22.512 39.758C23.254 41.872 24.878 43.482 27.16 44.14C26.936 44.336 26.656 44.714 26.516 44.98C24.164 44.182 22.526 42.39 21.7 39.954L22.512 39.758ZM16.604 43.72C17.556 43.412 18.998 42.88 20.398 42.362L20.58 43.132C19.376 43.65 18.116 44.168 17.108 44.574L16.604 43.72ZM20.86 32.254H21.938V34.032H20.86V32.254ZM16.156 33.542H27.272V34.466H16.156V33.542ZM15.652 33.542H16.646V37.672C16.646 39.87 16.464 43.048 15.288 45.176C15.106 44.994 14.672 44.714 14.434 44.616C15.554 42.586 15.652 39.73 15.652 37.672V33.542ZM34.944 33.164C33.74 34.648 31.43 36.356 29.106 37.434C28.98 37.196 28.714 36.818 28.49 36.58C30.87 35.558 33.222 33.794 34.356 32.226H35.406C36.932 33.99 39.368 35.6 41.552 36.426C41.314 36.678 41.062 37.056 40.88 37.35C38.78 36.412 36.302 34.746 34.944 33.164ZM31.626 38.134H38.332V38.946H31.626V38.134ZM34.412 34.704H35.49V36.608H34.412V34.704ZM29.414 44.014C30.968 43.888 33.348 43.678 35.658 43.454L35.672 44.406C33.474 44.63 31.164 44.854 29.554 45.008L29.414 44.014ZM35.056 40.64C36.092 42.614 38.36 43.79 41.342 44.21C41.118 44.434 40.838 44.854 40.698 45.134C37.618 44.588 35.336 43.23 34.16 40.92L35.056 40.64ZM39.788 40.416L40.572 41.032C39.466 41.816 38.024 42.628 36.876 43.174L36.204 42.6C37.338 42.054 38.878 41.116 39.788 40.416ZM31.626 36.104H39.004V41.046H31.626V40.192H37.954V36.958H31.626V36.104ZM30.996 36.104H32.032V44.14L30.996 44.252V36.104ZM48.972 41.704H53.928V42.502H48.972V41.704ZM48.972 43.79H53.928V44.644H48.972V43.79ZM47.656 33.934H55.258V34.83H47.656V33.934ZM47.348 37.812H55.468V38.75H47.348V37.812ZM49.994 34.27H50.848V38.442H49.994V34.27ZM52.01 34.27H52.864V38.442H52.01V34.27ZM53.158 32.24L54.11 32.548C53.774 33.122 53.438 33.696 53.158 34.088L52.346 33.808C52.626 33.374 52.962 32.688 53.158 32.24ZM54.124 35.194L54.964 35.474C54.614 36.202 54.222 37.042 53.9 37.574L53.214 37.322C53.522 36.748 53.928 35.824 54.124 35.194ZM48.776 32.534L49.63 32.282C49.966 32.744 50.302 33.388 50.428 33.808L49.532 34.13C49.406 33.682 49.098 33.024 48.776 32.534ZM47.95 35.432L48.692 35.222C49.042 35.88 49.378 36.734 49.49 37.308L48.72 37.56C48.622 36.986 48.3 36.09 47.95 35.432ZM48.482 39.576H54.53V45.05H53.536V40.444H49.448V45.106H48.482V39.576ZM43.134 36.482H46.914V37.322H43.134V36.482ZM43.204 32.744H46.858V33.584H43.204V32.744ZM43.134 38.358H46.914V39.198H43.134V38.358ZM42.532 34.578H47.32V35.446H42.532V34.578ZM43.624 40.248H46.914V44.322H43.624V43.454H46.032V41.116H43.624V40.248ZM43.106 40.248H44.002V44.98H43.106V40.248Z" fill="white"/>
</svg>
