<svg width="56" height="49" viewBox="0 0 56 49" fill="none" xmlns="http://www.w3.org/2000/svg">
<path d="M20.8 7V23.32H24.4V16.3257H31.6V23.32H35.2V7H31.6V13.9943H24.4V7H20.8ZM17.2 18.6571C17.2 18.9663 17.3264 19.2628 17.5515 19.4814C17.7765 19.7 18.0817 19.8229 18.4 19.8229H19.6V10.4971H18.4C18.0817 10.4971 17.7765 10.62 17.5515 10.8386C17.3264 11.0572 17.2 11.3537 17.2 11.6629V13.9943H16V16.3257H17.2V18.6571ZM38.8 11.6629C38.8 11.3537 38.6736 11.0572 38.4485 10.8386C38.2235 10.62 37.9183 10.4971 37.6 10.4971H36.4V19.8229H37.6C37.9183 19.8229 38.2235 19.7 38.4485 19.4814C38.6736 19.2628 38.8 18.9663 38.8 18.6571V16.3257H40V13.9943H38.8V11.6629Z" fill="white"/>
<path d="M3.43 37.77V42.726H2.422V38.75H0.644V37.77H3.43ZM3.43 42.306C4.088 43.342 5.32 43.818 6.986 43.874C8.54 43.944 11.774 43.902 13.468 43.79C13.342 44.028 13.174 44.518 13.132 44.826C11.55 44.896 8.554 44.924 6.986 44.854C5.138 44.784 3.864 44.294 2.996 43.188C2.38 43.79 1.736 44.392 1.036 45.008L0.49 43.986C1.106 43.538 1.862 42.908 2.52 42.306H3.43ZM0.77 33.178L1.568 32.604C2.436 33.234 3.416 34.2 3.85 34.886L2.982 35.544C2.59 34.844 1.624 33.864 0.77 33.178ZM8.134 33.878H9.142V43.496H8.134V33.878ZM5.992 38.834V39.786H11.326V38.834H5.992ZM5.992 37.224V38.148H11.326V37.224H5.992ZM5.082 36.51H12.278V40.5H5.082V36.51ZM4.34 32.744H13.02V34.564H12.04V33.542H5.278V34.564H4.34V32.744ZM4.634 34.872H12.684V35.656H4.634V34.872ZM4.102 41.34H13.272V42.166H4.102V41.34ZM14.966 41.396H21.35V42.194H14.966V41.396ZM14.588 34.648H21.574V35.46H14.588V34.648ZM17.626 33.374H18.592V43.678H17.626V33.374ZM14.574 43.706C16.282 43.552 18.9 43.3 21.406 43.034L21.42 43.86C19.04 44.14 16.506 44.434 14.728 44.616L14.574 43.706ZM15.876 38.778V39.814H20.412V38.778H15.876ZM15.876 37.07V38.078H20.412V37.07H15.876ZM14.994 36.342H21.308V40.542H14.994V36.342ZM20.804 32.38L21.336 33.192C19.684 33.556 17.08 33.794 14.98 33.864C14.938 33.64 14.84 33.29 14.728 33.08C16.814 32.968 19.362 32.716 20.804 32.38ZM21.476 35.516H26.53V36.496H21.476V35.516ZM26.124 35.516H27.132C27.132 35.516 27.118 35.908 27.118 36.048C26.964 41.956 26.824 43.916 26.362 44.518C26.11 44.882 25.83 45.008 25.41 45.05C25.018 45.092 24.346 45.092 23.702 45.05C23.674 44.756 23.562 44.322 23.394 44.042C24.08 44.098 24.696 44.112 24.976 44.112C25.2 44.112 25.34 44.07 25.466 43.888C25.816 43.454 25.97 41.438 26.124 35.768V35.516ZM23.17 32.422H24.178C24.164 37.994 24.15 42.698 20.804 45.204C20.636 44.952 20.272 44.616 20.02 44.448C23.226 42.152 23.156 37.714 23.17 32.422ZM28.84 33.22H41.188V34.172H28.84V33.22ZM32.116 32.254H33.166V35.278H32.116V32.254ZM36.806 32.254H37.87V35.124H36.806V32.254ZM28.798 40.318H41.23V41.256H28.798V40.318ZM34.412 39.24H35.504V45.12H34.412V39.24ZM34.006 40.71L34.86 41.116C33.572 42.726 31.262 44.168 29.19 44.868C29.036 44.588 28.714 44.168 28.462 43.944C30.52 43.37 32.83 42.082 34.006 40.71ZM35.952 40.78C37.1 42.152 39.354 43.328 41.468 43.846C41.23 44.07 40.908 44.49 40.754 44.77C38.64 44.126 36.372 42.754 35.126 41.13L35.952 40.78ZM39.34 34.984L40.18 35.81C37.45 36.44 33.096 36.748 29.512 36.818C29.484 36.552 29.358 36.132 29.26 35.908C32.788 35.824 37.072 35.516 39.34 34.984ZM29.904 37.532L30.786 37.168C31.332 37.784 31.878 38.638 32.074 39.24L31.136 39.646C30.954 39.044 30.422 38.176 29.904 37.532ZM33.768 37.168L34.692 36.86C35.084 37.476 35.476 38.26 35.574 38.82L34.594 39.156C34.496 38.61 34.146 37.784 33.768 37.168ZM39.284 36.636L40.348 37.028C39.774 37.966 39.074 39.044 38.514 39.73L37.702 39.366C38.234 38.652 38.92 37.462 39.284 36.636ZM48.412 36.72H49.49V45.12H48.412V36.72ZM45.234 39.086V40.304H52.85V39.086H45.234ZM45.234 37.084V38.274H52.85V37.084H45.234ZM44.212 36.23H53.914V41.144H44.212V36.23ZM42.798 42.222H55.216V43.146H42.798V42.222ZM44.786 33.5V34.83H47.474V33.5H44.786ZM43.834 32.8H48.454V35.53H43.834V32.8ZM50.54 33.5V34.83H53.256V33.5H50.54ZM49.588 32.8H54.25V35.53H49.588V32.8Z" fill="white"/>
</svg>
