<svg width="71" height="69" viewBox="0 0 71 69" fill="none" xmlns="http://www.w3.org/2000/svg">
<g filter="url(#filter0_d_124_1034)">
<rect x="3" y="3" width="65" height="63" rx="10" fill="#EFF3F6"/>
</g>
<path d="M12.774 43.094H20.964V55.008H19.956V44.032H13.754V55.12H12.774V43.094ZM14.328 46.062H19.48V46.888H14.328V46.062ZM13.306 53.342H20.516V54.28H13.306V53.342ZM16.456 44.48H17.31V48.918H16.456V44.48ZM15.728 49.212V51.382H18.094V49.212H15.728ZM14.916 48.428H18.934V52.18H14.916V48.428ZM11.318 42.31L12.284 42.59C11.486 44.984 10.184 47.392 8.784 49.002C8.7 48.75 8.406 48.176 8.224 47.924C9.484 46.552 10.632 44.438 11.318 42.31ZM10.156 45.74L11.136 44.746L11.15 44.76V55.148H10.156V45.74ZM28.272 42.674H29.434C29.322 44.872 29.112 51.858 23.316 55.008C23.134 54.742 22.784 54.42 22.462 54.182C28.174 51.27 28.174 44.536 28.272 42.674ZM29.392 42.954C29.434 44.046 29.84 51.48 35.608 54.126C35.3 54.364 34.978 54.714 34.81 55.008C28.874 52.166 28.482 44.34 28.384 43.052L29.392 42.954ZM43.364 47.602H48.194V48.596H43.364V47.602ZM42.902 47.602H43.952V53.314C43.952 53.86 44.106 53.972 44.876 53.972C45.24 53.972 47.06 53.972 47.536 53.972C48.292 53.972 48.404 53.608 48.488 51.662C48.74 51.844 49.188 52.026 49.482 52.096C49.328 54.35 49.006 54.98 47.606 54.98C47.256 54.98 45.114 54.98 44.792 54.98C43.336 54.98 42.902 54.644 42.902 53.3V47.602ZM42.748 43.038H48.74V49.38H47.676V44.032H42.748V43.038ZM37.19 46.482H41.558V47.322H37.19V46.482ZM37.274 42.744H41.614V43.584H37.274V42.744ZM37.19 48.358H41.558V49.198H37.19V48.358ZM36.532 44.578H42.104V45.446H36.532V44.578ZM37.68 50.248H41.516V54.336H37.68V53.454H40.578V51.116H37.68V50.248ZM37.176 50.248H38.114V54.98H37.176V50.248ZM57.742 43.304H61.69V44.116H57.742V43.304ZM57.392 45.502H61.48V46.314H57.392V45.502ZM55.964 47.518H63.412V48.4H55.964V47.518ZM61.312 43.304H61.424L61.606 43.248L62.334 43.332C62.194 44.676 61.928 46.538 61.676 47.938L60.682 47.854C60.948 46.44 61.2 44.452 61.312 43.43V43.304ZM57.63 42.24L58.624 42.338C58.358 43.822 57.952 45.754 57.658 46.916L56.65 46.804C56.972 45.642 57.378 43.682 57.63 42.24ZM55.614 53.496C56.398 53.062 57.574 52.348 58.708 51.634L59.016 52.404C58.05 53.076 57 53.762 56.146 54.294L55.614 53.496ZM56.244 49.478L56.972 49.03C57.532 49.562 58.134 50.318 58.386 50.836L57.602 51.354C57.364 50.822 56.79 50.038 56.244 49.478ZM62.432 49.002L63.272 49.436C62.796 50.108 62.236 50.808 61.774 51.298L61.088 50.892C61.522 50.388 62.11 49.576 62.432 49.002ZM59.142 47.924H60.15V54.042C60.15 54.546 60.052 54.812 59.702 54.966C59.38 55.12 58.848 55.134 58.036 55.134C57.994 54.868 57.854 54.49 57.728 54.224C58.288 54.252 58.778 54.238 58.932 54.238C59.1 54.238 59.142 54.196 59.142 54.042V47.924ZM60.122 48.68C60.626 50.934 61.746 52.782 63.594 53.552C63.384 53.734 63.09 54.098 62.95 54.364C61.032 53.412 59.926 51.382 59.366 48.834L60.122 48.68ZM51.512 45.712H55.446V46.622H51.512V45.712ZM50.756 48.106H55.88V49.03H50.756V48.106ZM51.078 49.954L51.806 49.772C52.086 50.626 52.31 51.704 52.366 52.432L51.582 52.628C51.568 51.9 51.344 50.808 51.078 49.954ZM50.63 53.72C51.974 53.496 53.99 53.09 55.936 52.684L56.006 53.58C54.186 53.986 52.268 54.392 50.84 54.7L50.63 53.72ZM54.97 49.646L55.782 49.856C55.544 50.71 55.306 51.718 55.068 52.376L54.382 52.18C54.592 51.494 54.844 50.388 54.97 49.646ZM52.954 46.048H53.878V53.678L52.954 53.832V46.048ZM52.912 42.254H53.458V42.478H53.766V42.744C53.22 43.822 52.31 45.306 50.924 46.524C50.77 46.314 50.462 46.006 50.266 45.866C51.54 44.802 52.436 43.374 52.912 42.254ZM53.08 42.254H53.864C54.704 42.982 55.754 44.032 56.258 44.732L55.558 45.53C55.068 44.844 54.102 43.682 53.276 42.996H53.08V42.254Z" fill="#706C65"/>
<path d="M44 25.5C44.875 25.5 45.7125 25.6625 46.5 25.9375V20.5L39 13H26.5C25.1125 13 24 14.1125 24 15.5V33C24 33.663 24.2634 34.2989 24.7322 34.7678C25.2011 35.2366 25.837 35.5 26.5 35.5H36.9375C36.6625 34.7125 36.5 33.875 36.5 33C36.5 28.8625 39.8625 25.5 44 25.5ZM37.75 14.875L44.625 21.75H37.75V14.875ZM49 31.75V34.25H45.25V38H42.75V34.25H39V31.75H42.75V28H45.25V31.75H49Z" fill="#706C65"/>
<defs>
<filter id="filter0_d_124_1034" x="0" y="0" width="71" height="69" filterUnits="userSpaceOnUse" color-interpolation-filters="sRGB">
<feFlood flood-opacity="0" result="BackgroundImageFix"/>
<feColorMatrix in="SourceAlpha" type="matrix" values="0 0 0 0 0 0 0 0 0 0 0 0 0 0 0 0 0 0 127 0" result="hardAlpha"/>
<feOffset/>
<feGaussianBlur stdDeviation="1.5"/>
<feComposite in2="hardAlpha" operator="out"/>
<feColorMatrix type="matrix" values="0 0 0 0 0 0 0 0 0 0 0 0 0 0 0 0 0 0 0.25 0"/>
<feBlend mode="normal" in2="BackgroundImageFix" result="effect1_dropShadow_124_1034"/>
<feBlend mode="normal" in="SourceGraphic" in2="effect1_dropShadow_124_1034" result="shape"/>
</filter>
</defs>
</svg>
