<svg width="71" height="69" viewBox="0 0 71 69" fill="none" xmlns="http://www.w3.org/2000/svg">
<g filter="url(#filter0_d_124_1081)">
<rect x="3" y="3" width="65" height="63" rx="10" fill="#EFF3F6"/>
</g>
<path d="M8.392 49.45C9.386 49.156 10.856 48.666 12.298 48.19L12.452 49.156C11.136 49.618 9.75 50.094 8.672 50.458L8.392 49.45ZM8.574 45.068H12.228V46.048H8.574V45.068ZM10.17 42.254H11.094V53.958C11.094 54.504 10.968 54.784 10.66 54.938C10.338 55.092 9.834 55.134 9.008 55.12C8.966 54.882 8.84 54.462 8.714 54.196C9.274 54.21 9.778 54.21 9.946 54.196C10.114 54.196 10.17 54.14 10.17 53.958V42.254ZM12.536 46.342H16.498V47.336H12.536V46.342ZM14.202 43.29H15.126V55.106H14.202V43.29ZM15.98 42.436L16.708 43.206C15.616 43.626 14.062 43.948 12.76 44.13C12.704 43.92 12.578 43.57 12.452 43.346C13.712 43.136 15.154 42.786 15.98 42.436ZM14.048 46.818L14.734 47.028C14.286 49.128 13.39 51.746 12.396 53.104C12.27 52.81 12.018 52.418 11.85 52.18C12.76 50.976 13.67 48.694 14.048 46.818ZM15.07 47.7C15.336 48.036 16.372 49.548 16.582 49.898L16.064 50.808C15.784 50.15 14.958 48.708 14.65 48.204L15.07 47.7ZM17.016 45.278L17.758 45.362C17.758 46.692 17.604 48.246 17.17 49.226L16.484 48.75C16.876 47.924 17.016 46.482 17.016 45.278ZM20.502 45.208L21.384 45.39C21.118 46.636 20.796 48.19 20.502 49.17L19.76 48.988C20.04 47.994 20.362 46.342 20.502 45.208ZM18.388 42.352H19.298V45.782C19.298 48.778 19.074 52.334 16.778 55.176C16.638 54.952 16.33 54.602 16.12 54.462C18.192 51.816 18.388 48.498 18.388 45.782V42.352ZM19.228 46.874C19.494 50.038 20.068 53.02 21.538 54.252C21.328 54.42 21.006 54.798 20.852 55.064C19.298 53.58 18.738 50.458 18.472 46.958L19.228 46.874ZM24.954 44.592H32.99V45.264H24.954V44.592ZM24.786 50.584H33.2V51.242H24.786V50.584ZM26.284 51.662L26.956 51.312C27.432 51.662 27.978 52.208 28.216 52.586L27.502 52.992C27.264 52.614 26.746 52.054 26.284 51.662ZM26.34 47.504V48.12H31.632V47.504H26.34ZM26.34 46.384V46.972H31.632V46.384H26.34ZM25.5 45.838H32.5V48.68H25.5V45.838ZM30.288 50.066H31.184V52.544C31.184 52.964 31.1 53.104 30.764 53.202C30.456 53.314 29.924 53.314 29.084 53.314C29.042 53.104 28.93 52.88 28.832 52.698C29.406 52.712 29.938 52.712 30.092 52.698C30.246 52.698 30.288 52.656 30.288 52.516V50.066ZM24.982 49.394C26.718 49.394 29.378 49.366 31.982 49.31L31.954 49.87C29.434 49.954 26.844 50.038 25.038 50.066L24.982 49.394ZM30.778 49.044L31.352 48.652C31.926 49.058 32.584 49.646 32.906 50.038L32.304 50.5C31.982 50.08 31.31 49.45 30.778 49.044ZM28.482 43.948H29.378V49.604L28.482 49.66V43.948ZM23.344 42.884H34.67V55.064H33.662V43.724H24.31V55.134H23.344V42.884ZM23.82 53.552H34.096V54.392H23.82V53.552ZM36.966 51.396H43.35V52.194H36.966V51.396ZM36.588 44.648H43.574V45.46H36.588V44.648ZM39.626 43.374H40.592V53.678H39.626V43.374ZM36.574 53.706C38.282 53.552 40.9 53.3 43.406 53.034L43.42 53.86C41.04 54.14 38.506 54.434 36.728 54.616L36.574 53.706ZM37.876 48.778V49.814H42.412V48.778H37.876ZM37.876 47.07V48.078H42.412V47.07H37.876ZM36.994 46.342H43.308V50.542H36.994V46.342ZM42.804 42.38L43.336 43.192C41.684 43.556 39.08 43.794 36.98 43.864C36.938 43.64 36.84 43.29 36.728 43.08C38.814 42.968 41.362 42.716 42.804 42.38ZM43.476 45.516H48.53V46.496H43.476V45.516ZM48.124 45.516H49.132C49.132 45.516 49.118 45.908 49.118 46.048C48.964 51.956 48.824 53.916 48.362 54.518C48.11 54.882 47.83 55.008 47.41 55.05C47.018 55.092 46.346 55.092 45.702 55.05C45.674 54.756 45.562 54.322 45.394 54.042C46.08 54.098 46.696 54.112 46.976 54.112C47.2 54.112 47.34 54.07 47.466 53.888C47.816 53.454 47.97 51.438 48.124 45.768V45.516ZM45.17 42.422H46.178C46.164 47.994 46.15 52.698 42.804 55.204C42.636 54.952 42.272 54.616 42.02 54.448C45.226 52.152 45.156 47.714 45.17 42.422ZM50.966 51.396H57.35V52.194H50.966V51.396ZM50.588 44.648H57.574V45.46H50.588V44.648ZM53.626 43.374H54.592V53.678H53.626V43.374ZM50.574 53.706C52.282 53.552 54.9 53.3 57.406 53.034L57.42 53.86C55.04 54.14 52.506 54.434 50.728 54.616L50.574 53.706ZM51.876 48.778V49.814H56.412V48.778H51.876ZM51.876 47.07V48.078H56.412V47.07H51.876ZM50.994 46.342H57.308V50.542H50.994V46.342ZM56.804 42.38L57.336 43.192C55.684 43.556 53.08 43.794 50.98 43.864C50.938 43.64 50.84 43.29 50.728 43.08C52.814 42.968 55.362 42.716 56.804 42.38ZM57.476 45.516H62.53V46.496H57.476V45.516ZM62.124 45.516H63.132C63.132 45.516 63.118 45.908 63.118 46.048C62.964 51.956 62.824 53.916 62.362 54.518C62.11 54.882 61.83 55.008 61.41 55.05C61.018 55.092 60.346 55.092 59.702 55.05C59.674 54.756 59.562 54.322 59.394 54.042C60.08 54.098 60.696 54.112 60.976 54.112C61.2 54.112 61.34 54.07 61.466 53.888C61.816 53.454 61.97 51.438 62.124 45.768V45.516ZM59.17 42.422H60.178C60.164 47.994 60.15 52.698 56.804 55.204C56.636 54.952 56.272 54.616 56.02 54.448C59.226 52.152 59.156 47.714 59.17 42.422Z" fill="#706C65"/>
<path d="M47.7871 18H35.5555C33.4773 18 31.5243 18.8263 30.097 20.1659C29.6839 18.9139 28.5196 18 27.1299 18C26.2998 18 25.5037 18.3298 24.9167 18.9167C24.3298 19.5037 24 20.2998 24 21.1299C24 21.96 24.3298 22.7561 24.9167 23.3431C25.5037 23.93 26.2998 24.2598 27.1299 24.2598C27.3928 24.2598 27.6432 24.2222 27.8936 24.1596C27.831 24.4726 27.7809 24.7981 27.7684 25.1361C27.7134 26.2262 27.8963 27.3151 28.3045 28.3273C28.7126 29.3396 29.3363 30.2508 30.1321 30.9977C30.9279 31.7447 31.8767 32.3094 32.9127 32.6528C33.9487 32.9961 35.0471 33.1098 36.1314 32.9859C39.3239 32.6354 41.9906 30.1565 42.6291 27.0141C42.8169 26.1252 42.8169 25.2613 42.7042 24.4351C42.5915 23.6839 43.18 23.0203 43.9436 23.0203H47.399C48.4882 23.0078 49.0391 22.4444 49.0391 21.7559V19.252C49.0391 18.5634 48.4757 18 47.7871 18ZM27.1299 21.7559C26.7793 21.7559 26.5039 21.4804 26.5039 21.1299C26.5039 20.7793 26.7793 20.5039 27.1299 20.5039C27.4804 20.5039 27.7559 20.7793 27.7559 21.1299C27.7559 21.4804 27.4804 21.7559 27.1299 21.7559ZM35.2676 29.2676C33.1894 29.2676 31.5117 27.59 31.5117 25.5117C31.5117 23.4335 33.1894 21.7559 35.2676 21.7559C37.3458 21.7559 39.0235 23.4335 39.0235 25.5117C39.0235 27.59 37.3458 29.2676 35.2676 29.2676Z" fill="#706C65"/>
<path d="M35.2676 28.0156C36.6505 28.0156 37.7715 26.8946 37.7715 25.5117C37.7715 24.1289 36.6505 23.0078 35.2676 23.0078C33.8847 23.0078 32.7637 24.1289 32.7637 25.5117C32.7637 26.8946 33.8847 28.0156 35.2676 28.0156Z" fill="#706C65"/>
<defs>
<filter id="filter0_d_124_1081" x="0" y="0" width="71" height="69" filterUnits="userSpaceOnUse" color-interpolation-filters="sRGB">
<feFlood flood-opacity="0" result="BackgroundImageFix"/>
<feColorMatrix in="SourceAlpha" type="matrix" values="0 0 0 0 0 0 0 0 0 0 0 0 0 0 0 0 0 0 127 0" result="hardAlpha"/>
<feOffset/>
<feGaussianBlur stdDeviation="1.5"/>
<feComposite in2="hardAlpha" operator="out"/>
<feColorMatrix type="matrix" values="0 0 0 0 0 0 0 0 0 0 0 0 0 0 0 0 0 0 0.25 0"/>
<feBlend mode="normal" in2="BackgroundImageFix" result="effect1_dropShadow_124_1081"/>
<feBlend mode="normal" in="SourceGraphic" in2="effect1_dropShadow_124_1081" result="shape"/>
</filter>
</defs>
</svg>
