<svg width="56" height="49" viewBox="0 0 56 49" fill="none" xmlns="http://www.w3.org/2000/svg">
<path d="M39.7872 8H27.5555C25.4773 8 23.5243 8.82629 22.097 10.1659C21.6839 8.91393 20.5196 8 19.1299 8C18.2998 8 17.5037 8.32976 16.9167 8.91672C16.3298 9.50369 16 10.2998 16 11.1299C16 11.96 16.3298 12.7561 16.9167 13.3431C17.5037 13.93 18.2998 14.2598 19.1299 14.2598C19.3928 14.2598 19.6432 14.2222 19.8936 14.1596C19.831 14.4726 19.7809 14.7981 19.7684 15.1361C19.7134 16.2262 19.8963 17.3151 20.3045 18.3273C20.7126 19.3396 21.3363 20.2508 22.1321 20.9977C22.9279 21.7447 23.8767 22.3094 24.9127 22.6528C25.9487 22.9961 27.0471 23.1098 28.1314 22.9859C31.3239 22.6354 33.9906 20.1565 34.6291 17.0141C34.8169 16.1252 34.8169 15.2613 34.7042 14.435C34.5915 13.6839 35.18 13.0203 35.9436 13.0203H39.399C40.4882 13.0078 41.0391 12.4444 41.0391 11.7559V9.25196C41.0391 8.56338 40.4757 8 39.7872 8ZM19.1299 11.7559C18.7793 11.7559 18.5039 11.4804 18.5039 11.1299C18.5039 10.7793 18.7793 10.5039 19.1299 10.5039C19.4804 10.5039 19.7559 10.7793 19.7559 11.1299C19.7559 11.4804 19.4804 11.7559 19.1299 11.7559ZM27.2676 19.2676C25.1894 19.2676 23.5117 17.59 23.5117 15.5117C23.5117 13.4335 25.1894 11.7559 27.2676 11.7559C29.3458 11.7559 31.0235 13.4335 31.0235 15.5117C31.0235 17.59 29.3458 19.2676 27.2676 19.2676Z" fill="white"/>
<path d="M27.2676 18.0156C28.6505 18.0156 29.7715 16.8946 29.7715 15.5117C29.7715 14.1289 28.6505 13.0078 27.2676 13.0078C25.8847 13.0078 24.7637 14.1289 24.7637 15.5117C24.7637 16.8946 25.8847 18.0156 27.2676 18.0156Z" fill="white"/>
<path d="M0.392 39.45C1.386 39.156 2.856 38.666 4.298 38.19L4.452 39.156C3.136 39.618 1.75 40.094 0.672 40.458L0.392 39.45ZM0.574 35.068H4.228V36.048H0.574V35.068ZM2.17 32.254H3.094V43.958C3.094 44.504 2.968 44.784 2.66 44.938C2.338 45.092 1.834 45.134 1.008 45.12C0.966 44.882 0.84 44.462 0.714 44.196C1.274 44.21 1.778 44.21 1.946 44.196C2.114 44.196 2.17 44.14 2.17 43.958V32.254ZM4.536 36.342H8.498V37.336H4.536V36.342ZM6.202 33.29H7.126V45.106H6.202V33.29ZM7.98 32.436L8.708 33.206C7.616 33.626 6.062 33.948 4.76 34.13C4.704 33.92 4.578 33.57 4.452 33.346C5.712 33.136 7.154 32.786 7.98 32.436ZM6.048 36.818L6.734 37.028C6.286 39.128 5.39 41.746 4.396 43.104C4.27 42.81 4.018 42.418 3.85 42.18C4.76 40.976 5.67 38.694 6.048 36.818ZM7.07 37.7C7.336 38.036 8.372 39.548 8.582 39.898L8.064 40.808C7.784 40.15 6.958 38.708 6.65 38.204L7.07 37.7ZM9.016 35.278L9.758 35.362C9.758 36.692 9.604 38.246 9.17 39.226L8.484 38.75C8.876 37.924 9.016 36.482 9.016 35.278ZM12.502 35.208L13.384 35.39C13.118 36.636 12.796 38.19 12.502 39.17L11.76 38.988C12.04 37.994 12.362 36.342 12.502 35.208ZM10.388 32.352H11.298V35.782C11.298 38.778 11.074 42.334 8.778 45.176C8.638 44.952 8.33 44.602 8.12 44.462C10.192 41.816 10.388 38.498 10.388 35.782V32.352ZM11.228 36.874C11.494 40.038 12.068 43.02 13.538 44.252C13.328 44.42 13.006 44.798 12.852 45.064C11.298 43.58 10.738 40.458 10.472 36.958L11.228 36.874ZM16.954 34.592H24.99V35.264H16.954V34.592ZM16.786 40.584H25.2V41.242H16.786V40.584ZM18.284 41.662L18.956 41.312C19.432 41.662 19.978 42.208 20.216 42.586L19.502 42.992C19.264 42.614 18.746 42.054 18.284 41.662ZM18.34 37.504V38.12H23.632V37.504H18.34ZM18.34 36.384V36.972H23.632V36.384H18.34ZM17.5 35.838H24.5V38.68H17.5V35.838ZM22.288 40.066H23.184V42.544C23.184 42.964 23.1 43.104 22.764 43.202C22.456 43.314 21.924 43.314 21.084 43.314C21.042 43.104 20.93 42.88 20.832 42.698C21.406 42.712 21.938 42.712 22.092 42.698C22.246 42.698 22.288 42.656 22.288 42.516V40.066ZM16.982 39.394C18.718 39.394 21.378 39.366 23.982 39.31L23.954 39.87C21.434 39.954 18.844 40.038 17.038 40.066L16.982 39.394ZM22.778 39.044L23.352 38.652C23.926 39.058 24.584 39.646 24.906 40.038L24.304 40.5C23.982 40.08 23.31 39.45 22.778 39.044ZM20.482 33.948H21.378V39.604L20.482 39.66V33.948ZM15.344 32.884H26.67V45.064H25.662V33.724H16.31V45.134H15.344V32.884ZM15.82 43.552H26.096V44.392H15.82V43.552ZM28.966 41.396H35.35V42.194H28.966V41.396ZM28.588 34.648H35.574V35.46H28.588V34.648ZM31.626 33.374H32.592V43.678H31.626V33.374ZM28.574 43.706C30.282 43.552 32.9 43.3 35.406 43.034L35.42 43.86C33.04 44.14 30.506 44.434 28.728 44.616L28.574 43.706ZM29.876 38.778V39.814H34.412V38.778H29.876ZM29.876 37.07V38.078H34.412V37.07H29.876ZM28.994 36.342H35.308V40.542H28.994V36.342ZM34.804 32.38L35.336 33.192C33.684 33.556 31.08 33.794 28.98 33.864C28.938 33.64 28.84 33.29 28.728 33.08C30.814 32.968 33.362 32.716 34.804 32.38ZM35.476 35.516H40.53V36.496H35.476V35.516ZM40.124 35.516H41.132C41.132 35.516 41.118 35.908 41.118 36.048C40.964 41.956 40.824 43.916 40.362 44.518C40.11 44.882 39.83 45.008 39.41 45.05C39.018 45.092 38.346 45.092 37.702 45.05C37.674 44.756 37.562 44.322 37.394 44.042C38.08 44.098 38.696 44.112 38.976 44.112C39.2 44.112 39.34 44.07 39.466 43.888C39.816 43.454 39.97 41.438 40.124 35.768V35.516ZM37.17 32.422H38.178C38.164 37.994 38.15 42.698 34.804 45.204C34.636 44.952 34.272 44.616 34.02 44.448C37.226 42.152 37.156 37.714 37.17 32.422ZM42.966 41.396H49.35V42.194H42.966V41.396ZM42.588 34.648H49.574V35.46H42.588V34.648ZM45.626 33.374H46.592V43.678H45.626V33.374ZM42.574 43.706C44.282 43.552 46.9 43.3 49.406 43.034L49.42 43.86C47.04 44.14 44.506 44.434 42.728 44.616L42.574 43.706ZM43.876 38.778V39.814H48.412V38.778H43.876ZM43.876 37.07V38.078H48.412V37.07H43.876ZM42.994 36.342H49.308V40.542H42.994V36.342ZM48.804 32.38L49.336 33.192C47.684 33.556 45.08 33.794 42.98 33.864C42.938 33.64 42.84 33.29 42.728 33.08C44.814 32.968 47.362 32.716 48.804 32.38ZM49.476 35.516H54.53V36.496H49.476V35.516ZM54.124 35.516H55.132C55.132 35.516 55.118 35.908 55.118 36.048C54.964 41.956 54.824 43.916 54.362 44.518C54.11 44.882 53.83 45.008 53.41 45.05C53.018 45.092 52.346 45.092 51.702 45.05C51.674 44.756 51.562 44.322 51.394 44.042C52.08 44.098 52.696 44.112 52.976 44.112C53.2 44.112 53.34 44.07 53.466 43.888C53.816 43.454 53.97 41.438 54.124 35.768V35.516ZM51.17 32.422H52.178C52.164 37.994 52.15 42.698 48.804 45.204C48.636 44.952 48.272 44.616 48.02 44.448C51.226 42.152 51.156 37.714 51.17 32.422Z" fill="white"/>
</svg>
