<svg width="71" height="69" viewBox="0 0 71 69" fill="none" xmlns="http://www.w3.org/2000/svg">
<g filter="url(#filter0_d_124_1049)">
<rect x="3" y="3" width="65" height="63" rx="10" fill="#EFF3F6"/>
</g>
<path d="M10.954 44.592H18.99V45.264H10.954V44.592ZM10.786 50.584H19.2V51.242H10.786V50.584ZM12.284 51.662L12.956 51.312C13.432 51.662 13.978 52.208 14.216 52.586L13.502 52.992C13.264 52.614 12.746 52.054 12.284 51.662ZM12.34 47.504V48.12H17.632V47.504H12.34ZM12.34 46.384V46.972H17.632V46.384H12.34ZM11.5 45.838H18.5V48.68H11.5V45.838ZM16.288 50.066H17.184V52.544C17.184 52.964 17.1 53.104 16.764 53.202C16.456 53.314 15.924 53.314 15.084 53.314C15.042 53.104 14.93 52.88 14.832 52.698C15.406 52.712 15.938 52.712 16.092 52.698C16.246 52.698 16.288 52.656 16.288 52.516V50.066ZM10.982 49.394C12.718 49.394 15.378 49.366 17.982 49.31L17.954 49.87C15.434 49.954 12.844 50.038 11.038 50.066L10.982 49.394ZM16.778 49.044L17.352 48.652C17.926 49.058 18.584 49.646 18.906 50.038L18.304 50.5C17.982 50.08 17.31 49.45 16.778 49.044ZM14.482 43.948H15.378V49.604L14.482 49.66V43.948ZM9.344 42.884H20.67V55.064H19.662V43.724H10.31V55.134H9.344V42.884ZM9.82 53.552H20.096V54.392H9.82V53.552ZM34.67 46.566L35.37 47.238C34.614 47.994 33.62 48.848 32.864 49.408L32.29 48.82C33.018 48.246 34.068 47.266 34.67 46.566ZM28.104 42.618L28.958 42.31C29.392 42.968 29.798 43.822 29.966 44.41L29.042 44.76C28.902 44.172 28.51 43.276 28.104 42.618ZM27.04 44.606H35.3V45.544H27.04V44.606ZM28.888 47.126L29.7 46.692C32.542 48.988 32.654 53.496 31.478 54.574C31.086 54.98 30.708 55.106 30.134 55.106C29.868 55.106 29.518 55.092 29.154 55.064C29.14 54.812 29.07 54.378 28.888 54.098C29.294 54.14 29.672 54.168 29.938 54.168C30.246 54.168 30.498 54.126 30.708 53.846C31.52 53.02 31.408 49.198 28.888 47.126ZM30.708 44.956L31.59 45.292C30.512 46.608 28.79 47.812 27.278 48.596C27.152 48.4 26.83 48.022 26.634 47.84C28.132 47.182 29.756 46.104 30.708 44.956ZM31.982 45.138C32.514 48.442 33.634 51.382 35.58 52.754C35.356 52.936 35.02 53.3 34.852 53.566C32.822 51.97 31.716 48.904 31.142 45.292L31.982 45.138ZM30.12 47.994L30.82 48.442C30.036 49.31 28.594 50.374 27.516 51.018C27.39 50.78 27.138 50.444 26.914 50.262C27.964 49.772 29.406 48.792 30.12 47.994ZM30.96 49.8L31.674 50.262C30.582 51.704 28.496 53.286 26.746 54.084C26.606 53.846 26.34 53.51 26.102 53.314C27.852 52.642 29.952 51.158 30.96 49.8ZM33.13 42.254L34.138 42.576C33.746 43.318 33.284 44.158 32.906 44.704L32.066 44.424C32.43 43.822 32.892 42.898 33.13 42.254ZM23.12 42.856H26.424V43.808H24.072V55.134H23.12V42.856ZM26.102 42.856H26.284L26.452 42.814L27.124 43.22C26.718 44.368 26.2 45.81 25.724 46.93C26.76 48.092 26.984 49.072 26.984 49.94C26.984 50.696 26.83 51.284 26.438 51.564C26.242 51.69 25.99 51.774 25.71 51.816C25.43 51.844 25.08 51.844 24.758 51.83C24.744 51.578 24.66 51.172 24.506 50.906C24.828 50.934 25.094 50.948 25.318 50.92C25.486 50.92 25.64 50.878 25.752 50.794C25.976 50.64 26.046 50.262 26.046 49.842C26.046 49.086 25.794 48.134 24.786 47.042C25.29 45.768 25.808 44.102 26.102 43.136V42.856ZM39.248 42.268H40.2V43.822H39.248V42.268ZM36.91 43.332H42.566V44.172H36.91V43.332ZM36.602 45.74H42.692V46.594H36.602V45.74ZM43.028 45.74H49.412V46.594H43.028V45.74ZM45.534 42.268H46.514V43.822H45.534V42.268ZM43.21 43.332H49.146V44.172H43.21V43.332ZM38.17 48.162V49.912H41.194V48.162H38.17ZM37.232 47.336H42.16V50.738H37.232V47.336ZM44.47 48.162V49.954H47.676V48.162H44.47ZM43.504 47.322H48.684V50.78H43.504V47.322ZM40.158 50.514H41.082V53.468L40.158 53.846V50.514ZM39.738 53.482C40.508 53.258 41.558 52.88 42.664 52.488L42.818 53.356C41.852 53.734 40.872 54.098 40.018 54.42L39.738 53.482ZM37.736 44.256L38.548 44.088C38.786 44.578 38.982 45.236 39.038 45.67L38.17 45.852C38.142 45.418 37.946 44.76 37.736 44.256ZM40.886 44.032L41.782 44.27C41.558 44.858 41.348 45.446 41.166 45.88L40.34 45.67C40.508 45.208 40.774 44.522 40.886 44.032ZM44.008 44.242L44.848 44.046C45.1 44.55 45.31 45.208 45.38 45.656L44.498 45.88C44.456 45.432 44.246 44.746 44.008 44.242ZM47.312 43.99L48.264 44.228C47.984 44.83 47.732 45.446 47.48 45.866L46.682 45.642C46.892 45.18 47.172 44.48 47.312 43.99ZM44.372 50.542H45.31C45.142 52.852 44.624 54.322 42.426 55.134C42.328 54.91 42.062 54.532 41.852 54.35C43.812 53.692 44.232 52.488 44.372 50.542ZM38.17 50.514H39.094C38.982 52.712 38.604 54.224 36.98 55.134C36.868 54.896 36.574 54.532 36.364 54.378C37.778 53.65 38.086 52.376 38.17 50.514ZM46.346 50.528H47.284V53.692C47.284 53.79 47.312 53.86 47.396 53.902C47.466 53.958 47.578 53.986 47.704 53.986C47.816 53.986 48.04 53.986 48.18 53.986C48.334 53.986 48.488 53.958 48.558 53.916C48.628 53.846 48.712 53.762 48.74 53.622C48.768 53.384 48.796 52.824 48.796 52.18C48.978 52.362 49.356 52.558 49.622 52.656C49.608 53.314 49.552 54.028 49.468 54.266C49.384 54.532 49.244 54.7 49.02 54.812C48.852 54.91 48.544 54.966 48.264 54.966C48.082 54.966 47.634 54.966 47.466 54.966C47.172 54.966 46.836 54.91 46.626 54.728C46.402 54.532 46.346 54.336 46.346 53.678V50.528ZM56.454 42.24H57.504V43.598H56.454V42.24ZM50.98 43.094H63.062V45.278H62.054V43.934H51.946V45.278H50.98V43.094ZM54.284 44.172H55.264V47.784H54.284V44.172ZM58.708 44.172H59.688V47.784H58.708V44.172ZM52.24 44.788H61.732V45.46H52.24V44.788ZM52.464 46.062H61.564V46.706H52.464V46.062ZM50.826 47.336H63.202V48.12H50.826V47.336ZM54.508 47.574L55.278 47.896C54.34 49.072 52.604 50.15 51.078 50.682C50.938 50.43 50.644 50.094 50.448 49.898C51.946 49.478 53.64 48.554 54.508 47.574ZM59.618 47.532C60.444 48.526 62.082 49.408 63.622 49.8C63.398 49.996 63.104 50.36 62.964 50.612C61.396 50.108 59.744 49.03 58.848 47.854L59.618 47.532ZM54.032 50.71V51.396H59.898V50.71H54.032ZM54.032 51.984V52.684H59.898V51.984H54.032ZM54.032 49.45V50.122H59.898V49.45H54.032ZM53.066 48.834H60.906V53.3H53.066V48.834ZM57.938 53.734L58.652 53.146C60.248 53.594 61.984 54.14 63.048 54.546L62.138 55.134C61.186 54.742 59.576 54.21 57.938 53.734ZM55.096 53.118L55.964 53.678C54.802 54.294 52.884 54.84 51.33 55.12C51.19 54.924 50.896 54.602 50.7 54.42C52.254 54.168 54.186 53.622 55.096 53.118Z" fill="#706C65"/>
<path d="M26.0722 16.5526L30.8192 20.9026L35.0485 15.4794C35.167 15.3278 35.3167 15.2059 35.4866 15.1229C35.6565 15.0399 35.8422 14.998 36.0299 15.0001C36.2175 15.0022 36.4023 15.0484 36.5704 15.1352C36.7386 15.222 36.8858 15.3472 37.001 15.5015L41.0369 20.9013L45.9374 16.4889C46.1299 16.316 46.3684 16.2084 46.6212 16.1806C46.874 16.1527 47.1289 16.206 47.3518 16.3331C47.5747 16.4603 47.755 16.6554 47.8686 16.8922C47.9821 17.129 48.0235 17.3963 47.9872 17.6583L46.1158 31.1021H25.9137L24.0137 17.7194C23.9759 17.4559 24.0168 17.1867 24.1309 16.9483C24.2449 16.7099 24.4266 16.5137 24.6512 16.3864C24.8758 16.2591 25.1326 16.2067 25.3868 16.2364C25.641 16.2662 25.8802 16.3765 26.0722 16.5526ZM26.011 32.4014H45.9724V33.7007C45.9724 34.0453 45.8409 34.3758 45.607 34.6194C45.373 34.8631 45.0557 35 44.7248 35H27.2586C26.9277 35 26.6104 34.8631 26.3764 34.6194C26.1425 34.3758 26.011 34.0453 26.011 33.7007V32.4014Z" fill="#706C65"/>
<defs>
<filter id="filter0_d_124_1049" x="0" y="0" width="71" height="69" filterUnits="userSpaceOnUse" color-interpolation-filters="sRGB">
<feFlood flood-opacity="0" result="BackgroundImageFix"/>
<feColorMatrix in="SourceAlpha" type="matrix" values="0 0 0 0 0 0 0 0 0 0 0 0 0 0 0 0 0 0 127 0" result="hardAlpha"/>
<feOffset/>
<feGaussianBlur stdDeviation="1.5"/>
<feComposite in2="hardAlpha" operator="out"/>
<feColorMatrix type="matrix" values="0 0 0 0 0 0 0 0 0 0 0 0 0 0 0 0 0 0 0.25 0"/>
<feBlend mode="normal" in2="BackgroundImageFix" result="effect1_dropShadow_124_1049"/>
<feBlend mode="normal" in="SourceGraphic" in2="effect1_dropShadow_124_1049" result="shape"/>
</filter>
</defs>
</svg>
