<svg width="36" height="49" viewBox="0 0 36 49" fill="none" xmlns="http://www.w3.org/2000/svg">
<path d="M9.85088 27.0877C9.06689 27.0877 8.39551 26.8067 7.83673 26.2448C7.27796 25.6828 6.99905 25.0081 7 24.2205V11.3183C7 10.8643 7.10121 10.4343 7.30362 10.0281C7.50603 9.62189 7.78494 9.28738 8.14035 9.02456L16.693 2.57343C16.9543 2.38229 17.2275 2.23893 17.5126 2.14336C17.7977 2.04779 18.0947 2 18.4035 2C18.7124 2 19.0093 2.04779 19.2944 2.14336C19.5795 2.23893 19.8527 2.38229 20.114 2.57343L28.6667 9.02456C29.023 9.28738 29.3024 9.62189 29.5048 10.0281C29.7072 10.4343 29.808 10.8643 29.807 11.3183V24.2205C29.807 25.009 29.5276 25.6842 28.9689 26.2462C28.4101 26.8082 27.7392 27.0887 26.9561 27.0877H21.2544V17.0526H15.5526V27.0877H9.85088Z" fill="white"/>
<path d="M4.164 41.778H11.864V42.632H4.164V41.778ZM4.164 44.074H11.864V44.914H4.164V44.074ZM4.164 46.384H11.906V47.322H4.164V46.384ZM1.742 37.186H14.272V38.166H1.742V37.186ZM3.338 39.468H12.648V48.12H11.57V40.392H4.388V48.12H3.338V39.468ZM7.482 37.69L8.77 37.774C8.504 38.6 8.168 39.482 7.916 40.084L6.894 39.93C7.132 39.3 7.37 38.348 7.482 37.69ZM10.814 35.226L11.976 35.534C11.472 36.29 10.856 37.074 10.352 37.606L9.442 37.312C9.918 36.738 10.492 35.856 10.814 35.226ZM4.178 35.604L5.102 35.198C5.62 35.688 6.166 36.388 6.446 36.864L5.466 37.368C5.228 36.878 4.668 36.136 4.178 35.604ZM25.556 41.134V42.422H32.626V41.134H25.556ZM25.556 43.234V44.522H32.626V43.234H25.556ZM25.556 39.062V40.322H32.626V39.062H25.556ZM24.464 38.222H33.746V45.362H24.464V38.222ZM30.036 46.286L30.778 45.6C32.43 46.146 34.222 46.874 35.314 47.42L34.334 48.134C33.34 47.588 31.674 46.846 30.036 46.286ZM23.134 35.968H34.824V36.934H23.134V35.968ZM28.468 36.374L29.7 36.528C29.462 37.326 29.196 38.18 28.972 38.754L27.978 38.572C28.174 37.956 28.384 37.018 28.468 36.374ZM27.026 45.53L27.978 46.216C26.76 46.958 24.856 47.7 23.358 48.12C23.19 47.896 22.868 47.532 22.63 47.308C24.142 46.902 26.06 46.174 27.026 45.53Z" fill="white"/>
</svg>
