<svg width="355" height="305" viewBox="0 0 355 305" fill="none" xmlns="http://www.w3.org/2000/svg">
<rect width="354.752" height="305" fill="white" fill-opacity="0.7"/>
<path d="M14.25 70C14.25 68.4812 15.4812 67.25 17 67.25H341C342.519 67.25 343.75 68.4812 343.75 70V86C343.75 87.5188 342.519 88.75 341 88.75H17C15.4812 88.75 14.25 87.5188 14.25 86V70Z" fill="#CCE4F5" stroke="#5BA7DD" stroke-width="0.5"/>
<rect x="168.877" y="101" width="26" height="20" rx="3" fill="#CCE4F5"/>
<rect x="263" y="101" width="26" height="20" rx="3" fill="#CCE4F5"/>
<rect x="263.124" y="132.365" width="26" height="20" rx="3" fill="#CCE4F5"/>
<rect x="306" y="132.365" width="26" height="20" rx="3" fill="#CCE4F5"/>
<rect x="168.877" y="132.365" width="26" height="20" rx="3" fill="#CCE4F5"/>
<rect x="119" y="132.365" width="26" height="20" rx="3" fill="#CCE4F5"/>
<rect x="70" y="132.365" width="26" height="20" rx="3" fill="#CCE4F5"/>
<rect x="120" y="195.096" width="26" height="20" rx="3" fill="#CCE4F5"/>
<rect x="307" y="163" width="26" height="20" rx="3" fill="#CCE4F5"/>
<rect x="264" y="163" width="26" height="20" rx="3" fill="#CCE4F5"/>
<rect x="218" y="163" width="26" height="20" rx="3" fill="#CCE4F5"/>
<rect x="22" y="163" width="26" height="20" rx="3" fill="#CCE4F5"/>
<rect x="120" y="163" width="26" height="20" rx="3" fill="#CCE4F5"/>
<rect x="70" y="195.096" width="26" height="20" rx="3" fill="#CCE4F5"/>
<rect x="23" y="195.096" width="26" height="20" rx="3" fill="#CCE4F5"/>
<rect x="168.877" y="226.461" width="26" height="20" rx="3" fill="#CCE4F5"/>
<rect x="170.444" y="228.624" width="22" height="16" rx="7" fill="#79BDEE"/>
<rect x="307" y="103" width="22" height="16" rx="7" fill="#79BDEE"/>
<rect x="170.444" y="165.894" width="22" height="16" rx="7" fill="#79BDEE"/>
<rect x="121.963" y="165.894" width="22" height="16" rx="7" fill="#79BDEE"/>
<rect x="24" y="197.259" width="22" height="16" rx="7" fill="#79BDEE"/>
<path d="M268.346 82H266.26V72.004H271.986V73.74H268.346V76.316H271.734V78.052H268.346V82ZM278.046 74.216C278.148 74.216 278.27 74.2207 278.41 74.23C278.55 74.2393 278.662 74.2533 278.746 74.272L278.592 76.232C278.517 76.2133 278.419 76.1993 278.298 76.19C278.176 76.1713 278.069 76.162 277.976 76.162C277.621 76.162 277.28 76.2273 276.954 76.358C276.627 76.4793 276.361 76.68 276.156 76.96C275.96 77.24 275.862 77.6227 275.862 78.108V82H273.776V74.356H275.358L275.666 75.644H275.764C275.988 75.252 276.296 74.916 276.688 74.636C277.08 74.356 277.532 74.216 278.046 74.216ZM281.183 71.36C281.491 71.36 281.757 71.4347 281.981 71.584C282.205 71.724 282.317 71.99 282.317 72.382C282.317 72.7647 282.205 73.0307 281.981 73.18C281.757 73.3293 281.491 73.404 281.183 73.404C280.866 73.404 280.595 73.3293 280.371 73.18C280.156 73.0307 280.049 72.7647 280.049 72.382C280.049 71.99 280.156 71.724 280.371 71.584C280.595 71.4347 280.866 71.36 281.183 71.36ZM282.219 74.356V82H280.133V74.356H282.219Z" fill="#5BA7DD"/>
<path d="M313.154 79.228C313.154 80.1147 312.832 80.824 312.188 81.356C311.553 81.8787 310.648 82.14 309.472 82.14C308.417 82.14 307.475 81.9393 306.644 81.538V79.564C307.12 79.7693 307.61 79.9607 308.114 80.138C308.627 80.306 309.136 80.39 309.64 80.39C310.163 80.39 310.531 80.292 310.746 80.096C310.97 79.8907 311.082 79.634 311.082 79.326C311.082 79.074 310.993 78.8593 310.816 78.682C310.648 78.5047 310.419 78.3413 310.13 78.192C309.841 78.0333 309.509 77.8653 309.136 77.688C308.903 77.576 308.651 77.4453 308.38 77.296C308.109 77.1373 307.848 76.946 307.596 76.722C307.353 76.4887 307.153 76.2087 306.994 75.882C306.835 75.5553 306.756 75.1633 306.756 74.706C306.756 73.81 307.059 73.1147 307.666 72.62C308.273 72.116 309.099 71.864 310.144 71.864C310.667 71.864 311.161 71.9247 311.628 72.046C312.095 72.1673 312.589 72.34 313.112 72.564L312.426 74.216C311.969 74.0293 311.558 73.8847 311.194 73.782C310.83 73.6793 310.457 73.628 310.074 73.628C309.673 73.628 309.365 73.7213 309.15 73.908C308.935 74.0947 308.828 74.3373 308.828 74.636C308.828 74.9907 308.987 75.2707 309.304 75.476C309.621 75.6813 310.093 75.9333 310.718 76.232C311.231 76.4747 311.665 76.7267 312.02 76.988C312.384 77.2493 312.664 77.5573 312.86 77.912C313.056 78.2667 313.154 78.7053 313.154 79.228ZM317.939 74.202C318.966 74.202 319.75 74.426 320.291 74.874C320.842 75.3127 321.117 75.9893 321.117 76.904V82H319.661L319.255 80.964H319.199C318.872 81.3747 318.527 81.6733 318.163 81.86C317.799 82.0467 317.3 82.14 316.665 82.14C315.984 82.14 315.419 81.944 314.971 81.552C314.523 81.16 314.299 80.5487 314.299 79.718C314.299 78.906 314.584 78.3087 315.153 77.926C315.722 77.5433 316.576 77.3287 317.715 77.282L319.045 77.24V76.904C319.045 76.5027 318.938 76.2087 318.723 76.022C318.518 75.8353 318.228 75.742 317.855 75.742C317.482 75.742 317.118 75.798 316.763 75.91C316.408 76.0127 316.054 76.1433 315.699 76.302L315.013 74.888C315.414 74.6827 315.867 74.5193 316.371 74.398C316.875 74.2673 317.398 74.202 317.939 74.202ZM319.045 78.458L318.233 78.486C317.561 78.5047 317.094 78.626 316.833 78.85C316.572 79.074 316.441 79.368 316.441 79.732C316.441 80.0493 316.534 80.278 316.721 80.418C316.908 80.5487 317.15 80.614 317.449 80.614C317.897 80.614 318.275 80.4833 318.583 80.222C318.891 79.9513 319.045 79.5733 319.045 79.088V78.458ZM326.472 80.474C326.705 80.474 326.929 80.4553 327.144 80.418C327.359 80.3713 327.573 80.3107 327.788 80.236V81.79C327.564 81.8927 327.284 81.9767 326.948 82.042C326.621 82.1073 326.262 82.14 325.87 82.14C325.413 82.14 325.002 82.0653 324.638 81.916C324.283 81.7667 323.999 81.51 323.784 81.146C323.579 80.782 323.476 80.2687 323.476 79.606V75.924H322.482V75.042L323.63 74.342L324.232 72.732H325.562V74.356H327.704V75.924H325.562V79.606C325.562 79.8953 325.646 80.1147 325.814 80.264C325.982 80.404 326.201 80.474 326.472 80.474Z" fill="#5BA7DD"/>
<path d="M29.154 79.228C29.154 80.1147 28.832 80.824 28.188 81.356C27.5533 81.8787 26.648 82.14 25.472 82.14C24.4173 82.14 23.4747 81.9393 22.644 81.538V79.564C23.12 79.7693 23.61 79.9607 24.114 80.138C24.6273 80.306 25.136 80.39 25.64 80.39C26.1627 80.39 26.5313 80.292 26.746 80.096C26.97 79.8907 27.082 79.634 27.082 79.326C27.082 79.074 26.9933 78.8593 26.816 78.682C26.648 78.5047 26.4193 78.3413 26.13 78.192C25.8407 78.0333 25.5093 77.8653 25.136 77.688C24.9027 77.576 24.6507 77.4453 24.38 77.296C24.1093 77.1373 23.848 76.946 23.596 76.722C23.3533 76.4887 23.1527 76.2087 22.994 75.882C22.8353 75.5553 22.756 75.1633 22.756 74.706C22.756 73.81 23.0593 73.1147 23.666 72.62C24.2727 72.116 25.0987 71.864 26.144 71.864C26.6667 71.864 27.1613 71.9247 27.628 72.046C28.0947 72.1673 28.5893 72.34 29.112 72.564L28.426 74.216C27.9687 74.0293 27.558 73.8847 27.194 73.782C26.83 73.6793 26.4567 73.628 26.074 73.628C25.6727 73.628 25.3647 73.7213 25.15 73.908C24.9353 74.0947 24.828 74.3373 24.828 74.636C24.828 74.9907 24.9867 75.2707 25.304 75.476C25.6213 75.6813 26.0927 75.9333 26.718 76.232C27.2313 76.4747 27.6653 76.7267 28.02 76.988C28.384 77.2493 28.664 77.5573 28.86 77.912C29.056 78.2667 29.154 78.7053 29.154 79.228ZM37.8169 74.356V82H36.2209L35.9409 81.02H35.8289C35.5863 81.412 35.2503 81.6967 34.8209 81.874C34.4009 82.0513 33.9529 82.14 33.4769 82.14C32.6556 82.14 31.9976 81.9207 31.5029 81.482C31.0083 81.034 30.7609 80.32 30.7609 79.34V74.356H32.8469V78.822C32.8469 79.3727 32.9449 79.788 33.1409 80.068C33.3369 80.3387 33.6496 80.474 34.0789 80.474C34.7136 80.474 35.1476 80.2593 35.3809 79.83C35.6143 79.3913 35.7309 78.766 35.7309 77.954V74.356H37.8169ZM44.3441 74.216C45.1654 74.216 45.8234 74.44 46.3181 74.888C46.8128 75.3267 47.0601 76.036 47.0601 77.016V82H44.9741V77.534C44.9741 76.9833 44.8761 76.5727 44.6801 76.302C44.4841 76.022 44.1714 75.882 43.7421 75.882C43.1074 75.882 42.6734 76.1013 42.4401 76.54C42.2068 76.9693 42.0901 77.59 42.0901 78.402V82H40.0041V74.356H41.6001L41.8801 75.336H41.9921C42.2348 74.944 42.5661 74.6593 42.9861 74.482C43.4154 74.3047 43.8681 74.216 44.3441 74.216Z" fill="#5BA7DD"/>
<path d="M71.488 82L69.08 74.16H69.024C69.0333 74.3467 69.0473 74.6267 69.066 75C69.0847 75.3733 69.1033 75.7747 69.122 76.204C69.1407 76.6333 69.15 77.016 69.15 77.352V82H67.26V72.004H70.144L72.51 79.648H72.552L75.058 72.004H77.942V82H75.968V77.268C75.968 76.9507 75.9727 76.5867 75.982 76.176C76.0007 75.7653 76.0147 75.378 76.024 75.014C76.0427 74.6407 76.0567 74.3607 76.066 74.174H76.01L73.434 82H71.488ZM87.243 78.164C87.243 79.4333 86.907 80.4133 86.235 81.104C85.5724 81.7947 84.667 82.14 83.519 82.14C82.8097 82.14 82.175 81.986 81.615 81.678C81.0644 81.37 80.6304 80.922 80.313 80.334C79.9957 79.7367 79.837 79.0133 79.837 78.164C79.837 76.8947 80.1684 75.9193 80.831 75.238C81.4937 74.5567 82.4037 74.216 83.561 74.216C84.2797 74.216 84.9144 74.37 85.465 74.678C86.0157 74.986 86.4497 75.434 86.767 76.022C87.0844 76.61 87.243 77.324 87.243 78.164ZM81.965 78.164C81.965 78.92 82.0864 79.494 82.329 79.886C82.581 80.2687 82.987 80.46 83.547 80.46C84.0977 80.46 84.4944 80.2687 84.737 79.886C84.989 79.494 85.115 78.92 85.115 78.164C85.115 77.408 84.989 76.8433 84.737 76.47C84.4944 76.0873 84.093 75.896 83.533 75.896C82.9824 75.896 82.581 76.0873 82.329 76.47C82.0864 76.8433 81.965 77.408 81.965 78.164ZM93.307 74.216C94.1283 74.216 94.7863 74.44 95.281 74.888C95.7757 75.3267 96.023 76.036 96.023 77.016V82H93.937V77.534C93.937 76.9833 93.839 76.5727 93.643 76.302C93.447 76.022 93.1343 75.882 92.705 75.882C92.0703 75.882 91.6363 76.1013 91.403 76.54C91.1697 76.9693 91.053 77.59 91.053 78.402V82H88.967V74.356H90.563L90.843 75.336H90.955C91.1977 74.944 91.529 74.6593 91.949 74.482C92.3783 74.3047 92.831 74.216 93.307 74.216Z" fill="#5BA7DD"/>
<path d="M124.11 82H121.996V73.768H119.28V72.004H126.826V73.768H124.11V82ZM134.516 74.356V82H132.92L132.64 81.02H132.528C132.285 81.412 131.949 81.6967 131.52 81.874C131.1 82.0513 130.652 82.14 130.176 82.14C129.355 82.14 128.697 81.9207 128.202 81.482C127.707 81.034 127.46 80.32 127.46 79.34V74.356H129.546V78.822C129.546 79.3727 129.644 79.788 129.84 80.068C130.036 80.3387 130.349 80.474 130.778 80.474C131.413 80.474 131.847 80.2593 132.08 79.83C132.313 79.3913 132.43 78.766 132.43 77.954V74.356H134.516ZM139.853 74.216C140.908 74.216 141.743 74.5193 142.359 75.126C142.975 75.7233 143.283 76.5773 143.283 77.688V78.696H138.355C138.374 79.284 138.547 79.746 138.873 80.082C139.209 80.418 139.671 80.586 140.259 80.586C140.745 80.586 141.188 80.5393 141.589 80.446C142 80.3433 142.42 80.1893 142.849 79.984V81.594C142.467 81.7807 142.07 81.916 141.659 82C141.249 82.0933 140.749 82.14 140.161 82.14C139.396 82.14 138.719 82 138.131 81.72C137.543 81.4307 137.081 81.0013 136.745 80.432C136.409 79.8533 136.241 79.1207 136.241 78.234C136.241 77.3473 136.391 76.6053 136.689 76.008C136.997 75.4107 137.422 74.9627 137.963 74.664C138.505 74.3653 139.135 74.216 139.853 74.216ZM139.867 75.7C139.457 75.7 139.121 75.8307 138.859 76.092C138.598 76.3533 138.444 76.7593 138.397 77.31H141.323C141.314 76.8527 141.188 76.47 140.945 76.162C140.712 75.854 140.353 75.7 139.867 75.7Z" fill="#5BA7DD"/>
<path d="M178.538 72.004L175.99 82H173.582L172.224 76.75C172.196 76.6473 172.159 76.4933 172.112 76.288C172.075 76.0827 172.028 75.8587 171.972 75.616C171.925 75.3733 171.879 75.1447 171.832 74.93C171.795 74.7153 171.771 74.5427 171.762 74.412C171.753 74.5427 171.725 74.7153 171.678 74.93C171.641 75.1447 171.599 75.3733 171.552 75.616C171.505 75.8493 171.459 76.0733 171.412 76.288C171.365 76.4933 171.328 76.652 171.3 76.764L169.956 82H167.548L165 72.004H167.086L168.36 77.464C168.416 77.6787 168.477 77.9493 168.542 78.276C168.607 78.6027 168.668 78.9293 168.724 79.256C168.78 79.5827 168.822 79.858 168.85 80.082C168.878 79.8487 168.92 79.5733 168.976 79.256C169.032 78.9293 169.088 78.6167 169.144 78.318C169.209 78.01 169.265 77.772 169.312 77.604L170.768 72.004H172.77L174.226 77.604C174.273 77.772 174.324 78.01 174.38 78.318C174.445 78.6167 174.506 78.9293 174.562 79.256C174.618 79.5827 174.66 79.858 174.688 80.082C174.716 79.8487 174.758 79.5733 174.814 79.256C174.87 78.9293 174.931 78.6073 174.996 78.29C175.071 77.9633 175.131 77.688 175.178 77.464L176.452 72.004H178.538ZM182.504 74.216C183.558 74.216 184.394 74.5193 185.01 75.126C185.626 75.7233 185.934 76.5773 185.934 77.688V78.696H181.006C181.024 79.284 181.197 79.746 181.524 80.082C181.86 80.418 182.322 80.586 182.91 80.586C183.395 80.586 183.838 80.5393 184.24 80.446C184.65 80.3433 185.07 80.1893 185.5 79.984V81.594C185.117 81.7807 184.72 81.916 184.31 82C183.899 82.0933 183.4 82.14 182.812 82.14C182.046 82.14 181.37 82 180.782 81.72C180.194 81.4307 179.732 81.0013 179.396 80.432C179.06 79.8533 178.892 79.1207 178.892 78.234C178.892 77.3473 179.041 76.6053 179.34 76.008C179.648 75.4107 180.072 74.9627 180.614 74.664C181.155 74.3653 181.785 74.216 182.504 74.216ZM182.518 75.7C182.107 75.7 181.771 75.8307 181.51 76.092C181.248 76.3533 181.094 76.7593 181.048 77.31H183.974C183.964 76.8527 183.838 76.47 183.596 76.162C183.362 75.854 183.003 75.7 182.518 75.7ZM190.047 82.14C189.198 82.14 188.503 81.8087 187.961 81.146C187.429 80.474 187.163 79.4893 187.163 78.192C187.163 76.8853 187.434 75.896 187.975 75.224C188.517 74.552 189.226 74.216 190.103 74.216C190.654 74.216 191.107 74.3233 191.461 74.538C191.816 74.7527 192.096 75.0187 192.301 75.336H192.371C192.343 75.1867 192.311 74.972 192.273 74.692C192.236 74.4027 192.217 74.1087 192.217 73.81V71.36H194.303V82H192.707L192.301 81.006H192.217C192.012 81.3233 191.737 81.594 191.391 81.818C191.046 82.0327 190.598 82.14 190.047 82.14ZM190.775 80.474C191.345 80.474 191.746 80.306 191.979 79.97C192.213 79.6247 192.339 79.1113 192.357 78.43V78.206C192.357 77.4687 192.241 76.904 192.007 76.512C191.783 76.1107 191.363 75.91 190.747 75.91C190.29 75.91 189.931 76.1107 189.669 76.512C189.408 76.904 189.277 77.4733 189.277 78.22C189.277 78.9667 189.408 79.5313 189.669 79.914C189.931 80.2873 190.299 80.474 190.775 80.474Z" fill="#5BA7DD"/>
<path d="M222.11 82H219.996V73.768H217.28V72.004H224.826V73.768H222.11V82ZM228.285 71.36V73.53C228.285 73.9127 228.271 74.2767 228.243 74.622C228.225 74.958 228.206 75.196 228.187 75.336H228.299C228.542 74.944 228.855 74.6593 229.237 74.482C229.62 74.3047 230.045 74.216 230.511 74.216C231.333 74.216 231.995 74.44 232.499 74.888C233.003 75.3267 233.255 76.036 233.255 77.016V82H231.169V77.534C231.169 76.4327 230.759 75.882 229.937 75.882C229.312 75.882 228.878 76.1013 228.635 76.54C228.402 76.9693 228.285 77.59 228.285 78.402V82H226.199V71.36H228.285ZM242.415 74.356V82H240.819L240.539 81.02H240.427C240.184 81.412 239.848 81.6967 239.419 81.874C238.999 82.0513 238.551 82.14 238.075 82.14C237.253 82.14 236.595 81.9207 236.101 81.482C235.606 81.034 235.359 80.32 235.359 79.34V74.356H237.445V78.822C237.445 79.3727 237.543 79.788 237.739 80.068C237.935 80.3387 238.247 80.474 238.677 80.474C239.311 80.474 239.745 80.2593 239.979 79.83C240.212 79.3913 240.329 78.766 240.329 77.954V74.356H242.415Z" fill="#5BA7DD"/>
<path d="M275.322 109.988C275.322 111.071 275.21 111.995 274.986 112.76C274.762 113.525 274.403 114.113 273.908 114.524C273.423 114.935 272.783 115.14 271.99 115.14C270.861 115.14 270.025 114.687 269.484 113.782C268.952 112.867 268.686 111.603 268.686 109.988C268.686 108.905 268.793 107.981 269.008 107.216C269.232 106.451 269.587 105.867 270.072 105.466C270.557 105.055 271.197 104.85 271.99 104.85C273.11 104.85 273.945 105.303 274.496 106.208C275.047 107.104 275.322 108.364 275.322 109.988ZM269.918 109.988C269.918 111.36 270.072 112.387 270.38 113.068C270.697 113.749 271.234 114.09 271.99 114.09C272.737 114.09 273.269 113.754 273.586 113.082C273.913 112.401 274.076 111.369 274.076 109.988C274.076 108.625 273.913 107.603 273.586 106.922C273.269 106.241 272.737 105.9 271.99 105.9C271.234 105.9 270.697 106.241 270.38 106.922C270.072 107.603 269.918 108.625 269.918 109.988ZM282.914 107.342C282.914 108.014 282.722 108.551 282.34 108.952C281.966 109.344 281.467 109.605 280.842 109.736V109.792C281.635 109.885 282.228 110.137 282.62 110.548C283.021 110.959 283.222 111.495 283.222 112.158C283.222 112.746 283.086 113.264 282.816 113.712C282.545 114.16 282.125 114.51 281.556 114.762C280.996 115.014 280.272 115.14 279.386 115.14C278.863 115.14 278.378 115.098 277.93 115.014C277.482 114.939 277.052 114.799 276.642 114.594V113.446C277.062 113.661 277.514 113.824 278 113.936C278.485 114.048 278.952 114.104 279.4 114.104C280.296 114.104 280.94 113.931 281.332 113.586C281.733 113.231 281.934 112.746 281.934 112.13C281.934 111.505 281.686 111.057 281.192 110.786C280.706 110.506 280.02 110.366 279.134 110.366H278.168V109.316H279.148C279.969 109.316 280.59 109.143 281.01 108.798C281.439 108.453 281.654 107.995 281.654 107.426C281.654 106.941 281.49 106.567 281.164 106.306C280.837 106.035 280.394 105.9 279.834 105.9C279.292 105.9 278.83 105.979 278.448 106.138C278.065 106.297 277.687 106.497 277.314 106.74L276.698 105.9C277.052 105.62 277.491 105.377 278.014 105.172C278.546 104.967 279.148 104.864 279.82 104.864C280.865 104.864 281.64 105.097 282.144 105.564C282.657 106.031 282.914 106.623 282.914 107.342Z" fill="#362405"/>
<path d="M272.97 146.365H271.766V139.379C271.766 138.978 271.771 138.656 271.78 138.413C271.789 138.171 271.803 137.919 271.822 137.657C271.673 137.807 271.533 137.933 271.402 138.035C271.281 138.138 271.131 138.269 270.954 138.427L269.89 139.295L269.246 138.469L271.948 136.369H272.97V146.365ZM283.334 141.353C283.334 142.436 283.222 143.36 282.998 144.125C282.774 144.891 282.414 145.479 281.92 145.889C281.434 146.3 280.795 146.505 280.002 146.505C278.872 146.505 278.037 146.053 277.496 145.147C276.964 144.233 276.698 142.968 276.698 141.353C276.698 140.271 276.805 139.347 277.02 138.581C277.244 137.816 277.598 137.233 278.084 136.831C278.569 136.421 279.208 136.215 280.002 136.215C281.122 136.215 281.957 136.668 282.508 137.573C283.058 138.469 283.334 139.729 283.334 141.353ZM277.93 141.353C277.93 142.725 278.084 143.752 278.392 144.433C278.709 145.115 279.246 145.455 280.002 145.455C280.748 145.455 281.28 145.119 281.598 144.447C281.924 143.766 282.088 142.735 282.088 141.353C282.088 139.991 281.924 138.969 281.598 138.287C281.28 137.606 280.748 137.265 280.002 137.265C279.246 137.265 278.709 137.606 278.392 138.287C278.084 138.969 277.93 139.991 277.93 141.353Z" fill="#362405"/>
<path d="M272.97 177.73H271.766V170.744C271.766 170.343 271.771 170.021 271.78 169.778C271.789 169.536 271.803 169.284 271.822 169.022C271.673 169.172 271.533 169.298 271.402 169.4C271.281 169.503 271.131 169.634 270.954 169.792L269.89 170.66L269.246 169.834L271.948 167.734H272.97V177.73ZM277.916 177.73L282.018 168.854H276.628V167.734H283.334V168.686L279.274 177.73H277.916Z" fill="#362405"/>
<path d="M275.28 209.096H268.672V208.074L271.29 205.428C271.785 204.924 272.205 204.476 272.55 204.084C272.905 203.692 273.171 203.309 273.348 202.936C273.525 202.562 273.614 202.147 273.614 201.69C273.614 201.139 273.451 200.724 273.124 200.444C272.797 200.154 272.373 200.01 271.85 200.01C271.355 200.01 270.926 200.094 270.562 200.262C270.198 200.43 269.825 200.663 269.442 200.962L268.784 200.136C269.176 199.809 269.624 199.534 270.128 199.31C270.641 199.076 271.215 198.96 271.85 198.96C272.783 198.96 273.521 199.198 274.062 199.674C274.603 200.15 274.874 200.798 274.874 201.62C274.874 202.142 274.767 202.632 274.552 203.09C274.337 203.547 274.039 204 273.656 204.448C273.273 204.896 272.825 205.367 272.312 205.862L270.226 207.92V207.976H275.28V209.096ZM283.74 206.828H282.284V209.096H281.094V206.828H276.306V205.778L281.01 199.044H282.284V205.722H283.74V206.828ZM281.094 205.722V202.572C281.094 202.086 281.098 201.676 281.108 201.34C281.126 200.994 281.145 200.668 281.164 200.36H281.108C281.033 200.537 280.94 200.728 280.828 200.934C280.716 201.139 280.608 201.312 280.506 201.452L277.51 205.722H281.094Z" fill="#362405"/>
<path d="M317.322 109.988C317.322 111.071 317.21 111.995 316.986 112.76C316.762 113.525 316.403 114.113 315.908 114.524C315.423 114.935 314.783 115.14 313.99 115.14C312.861 115.14 312.025 114.687 311.484 113.782C310.952 112.867 310.686 111.603 310.686 109.988C310.686 108.905 310.793 107.981 311.008 107.216C311.232 106.451 311.587 105.867 312.072 105.466C312.557 105.055 313.197 104.85 313.99 104.85C315.11 104.85 315.945 105.303 316.496 106.208C317.047 107.104 317.322 108.364 317.322 109.988ZM311.918 109.988C311.918 111.36 312.072 112.387 312.38 113.068C312.697 113.749 313.234 114.09 313.99 114.09C314.737 114.09 315.269 113.754 315.586 113.082C315.913 112.401 316.076 111.369 316.076 109.988C316.076 108.625 315.913 107.603 315.586 106.922C315.269 106.241 314.737 105.9 313.99 105.9C313.234 105.9 312.697 106.241 312.38 106.922C312.072 107.603 311.918 108.625 311.918 109.988ZM325.74 112.732H324.284V115H323.094V112.732H318.306V111.682L323.01 104.948H324.284V111.626H325.74V112.732ZM323.094 111.626V108.476C323.094 107.991 323.098 107.58 323.108 107.244C323.126 106.899 323.145 106.572 323.164 106.264H323.108C323.033 106.441 322.94 106.633 322.828 106.838C322.716 107.043 322.608 107.216 322.506 107.356L319.51 111.626H323.094Z" fill="white"/>
<path d="M315.97 146H314.766V139.014C314.766 138.613 314.771 138.291 314.78 138.048C314.789 137.805 314.803 137.553 314.822 137.292C314.673 137.441 314.533 137.567 314.402 137.67C314.281 137.773 314.131 137.903 313.954 138.062L312.89 138.93L312.246 138.104L314.948 136.004H315.97V146ZM323.982 146H322.778V139.014C322.778 138.613 322.782 138.291 322.792 138.048C322.801 137.805 322.815 137.553 322.834 137.292C322.684 137.441 322.544 137.567 322.414 137.67C322.292 137.773 322.143 137.903 321.966 138.062L320.902 138.93L320.258 138.104L322.96 136.004H323.982V146Z" fill="#362405"/>
<path d="M315.97 177.73H314.766V170.744C314.766 170.343 314.771 170.021 314.78 169.778C314.789 169.536 314.803 169.284 314.822 169.022C314.673 169.172 314.533 169.298 314.402 169.4C314.281 169.503 314.131 169.634 313.954 169.792L312.89 170.66L312.246 169.834L314.948 167.734H315.97V177.73ZM323.002 167.594C323.879 167.594 324.598 167.8 325.158 168.21C325.718 168.621 325.998 169.214 325.998 169.988C325.998 170.39 325.909 170.74 325.732 171.038C325.564 171.337 325.335 171.603 325.046 171.836C324.756 172.06 324.439 172.261 324.094 172.438C324.504 172.644 324.878 172.868 325.214 173.11C325.55 173.353 325.816 173.638 326.012 173.964C326.217 174.291 326.32 174.683 326.32 175.14C326.32 175.98 326.021 176.648 325.424 177.142C324.826 177.628 324.033 177.87 323.044 177.87C321.961 177.87 321.13 177.637 320.552 177.17C319.982 176.694 319.698 176.032 319.698 175.182C319.698 174.734 319.791 174.342 319.978 174.006C320.174 173.661 320.43 173.367 320.748 173.124C321.065 172.882 321.406 172.676 321.77 172.508C321.275 172.228 320.86 171.892 320.524 171.5C320.188 171.099 320.02 170.59 320.02 169.974C320.02 169.47 320.15 169.041 320.412 168.686C320.673 168.332 321.028 168.061 321.476 167.874C321.924 167.688 322.432 167.594 323.002 167.594ZM322.988 168.588C322.465 168.588 322.04 168.714 321.714 168.966C321.387 169.209 321.224 169.564 321.224 170.03C321.224 170.376 321.303 170.665 321.462 170.898C321.63 171.132 321.854 171.332 322.134 171.5C322.414 171.659 322.722 171.813 323.058 171.962C323.543 171.757 323.949 171.51 324.276 171.22C324.612 170.931 324.78 170.534 324.78 170.03C324.78 169.564 324.616 169.209 324.29 168.966C323.963 168.714 323.529 168.588 322.988 168.588ZM320.902 175.196C320.902 175.682 321.074 176.088 321.42 176.414C321.765 176.732 322.297 176.89 323.016 176.89C323.697 176.89 324.215 176.732 324.57 176.414C324.934 176.088 325.116 175.668 325.116 175.154C325.116 174.669 324.924 174.268 324.542 173.95C324.159 173.624 323.65 173.339 323.016 173.096L322.792 173.012C322.176 173.283 321.704 173.586 321.378 173.922C321.06 174.258 320.902 174.683 320.902 175.196Z" fill="#362405"/>
<path d="M318.28 209H311.672V207.978L314.29 205.332C314.785 204.828 315.205 204.38 315.55 203.988C315.905 203.596 316.171 203.213 316.348 202.84C316.525 202.467 316.614 202.051 316.614 201.594C316.614 201.043 316.451 200.628 316.124 200.348C315.797 200.059 315.373 199.914 314.85 199.914C314.355 199.914 313.926 199.998 313.562 200.166C313.198 200.334 312.825 200.567 312.442 200.866L311.784 200.04C312.176 199.713 312.624 199.438 313.128 199.214C313.641 198.981 314.215 198.864 314.85 198.864C315.783 198.864 316.521 199.102 317.062 199.578C317.603 200.054 317.874 200.703 317.874 201.524C317.874 202.047 317.767 202.537 317.552 202.994C317.337 203.451 317.039 203.904 316.656 204.352C316.273 204.8 315.825 205.271 315.312 205.766L313.226 207.824V207.88H318.28V209ZM322.862 202.868C323.879 202.868 324.691 203.125 325.298 203.638C325.914 204.151 326.222 204.875 326.222 205.808C326.222 206.844 325.89 207.661 325.228 208.258C324.574 208.846 323.66 209.14 322.484 209.14C321.961 209.14 321.476 209.093 321.028 209C320.58 208.907 320.202 208.771 319.894 208.594V207.432C320.23 207.637 320.636 207.801 321.112 207.922C321.597 208.034 322.059 208.09 322.498 208.09C323.235 208.09 323.828 207.917 324.276 207.572C324.733 207.217 324.962 206.671 324.962 205.934C324.962 205.281 324.761 204.781 324.36 204.436C323.958 204.081 323.324 203.904 322.456 203.904C322.194 203.904 321.896 203.927 321.56 203.974C321.224 204.021 320.953 204.067 320.748 204.114L320.132 203.722L320.51 199.004H325.522V200.124H321.56L321.322 203.022C321.48 202.994 321.695 202.961 321.966 202.924C322.236 202.887 322.535 202.868 322.862 202.868Z" fill="#362405"/>
<path d="M33.322 140.988C33.322 142.071 33.21 142.995 32.986 143.76C32.762 144.525 32.4027 145.113 31.908 145.524C31.4227 145.935 30.7833 146.14 29.99 146.14C28.8607 146.14 28.0253 145.687 27.484 144.782C26.952 143.867 26.686 142.603 26.686 140.988C26.686 139.905 26.7933 138.981 27.008 138.216C27.232 137.451 27.5867 136.867 28.072 136.466C28.5573 136.055 29.1967 135.85 29.99 135.85C31.11 135.85 31.9453 136.303 32.496 137.208C33.0467 138.104 33.322 139.364 33.322 140.988ZM27.918 140.988C27.918 142.36 28.072 143.387 28.38 144.068C28.6973 144.749 29.234 145.09 29.99 145.09C30.7367 145.09 31.2687 144.754 31.586 144.082C31.9127 143.401 32.076 142.369 32.076 140.988C32.076 139.625 31.9127 138.603 31.586 137.922C31.2687 137.241 30.7367 136.9 29.99 136.9C29.234 136.9 28.6973 137.241 28.38 137.922C28.072 138.603 27.918 139.625 27.918 140.988ZM37.8617 139.868C38.8791 139.868 39.6911 140.125 40.2977 140.638C40.9137 141.151 41.2217 141.875 41.2217 142.808C41.2217 143.844 40.8904 144.661 40.2277 145.258C39.5744 145.846 38.6597 146.14 37.4837 146.14C36.9611 146.14 36.4757 146.093 36.0277 146C35.5797 145.907 35.2017 145.771 34.8937 145.594V144.432C35.2297 144.637 35.6357 144.801 36.1117 144.922C36.5971 145.034 37.0591 145.09 37.4977 145.09C38.2351 145.09 38.8277 144.917 39.2757 144.572C39.7331 144.217 39.9617 143.671 39.9617 142.934C39.9617 142.281 39.7611 141.781 39.3597 141.436C38.9584 141.081 38.3237 140.904 37.4557 140.904C37.1944 140.904 36.8957 140.927 36.5597 140.974C36.2237 141.021 35.9531 141.067 35.7477 141.114L35.1317 140.722L35.5097 136.004H40.5217V137.124H36.5597L36.3217 140.022C36.4804 139.994 36.6951 139.961 36.9657 139.924C37.2364 139.887 37.5351 139.868 37.8617 139.868Z" fill="#362405"/>
<path d="M30.97 177.73H29.766V170.744C29.766 170.343 29.7707 170.021 29.78 169.778C29.7893 169.536 29.8033 169.284 29.822 169.022C29.6727 169.172 29.5327 169.298 29.402 169.4C29.2807 169.503 29.1313 169.634 28.954 169.792L27.89 170.66L27.246 169.834L29.948 167.734H30.97V177.73ZM41.2917 177.73H34.6837V176.708L37.3017 174.062C37.7964 173.558 38.2164 173.11 38.5617 172.718C38.9164 172.326 39.1824 171.944 39.3597 171.57C39.5371 171.197 39.6257 170.782 39.6257 170.324C39.6257 169.774 39.4624 169.358 39.1357 169.078C38.8091 168.789 38.3844 168.644 37.8617 168.644C37.3671 168.644 36.9377 168.728 36.5737 168.896C36.2097 169.064 35.8364 169.298 35.4537 169.596L34.7957 168.77C35.1877 168.444 35.6357 168.168 36.1397 167.944C36.6531 167.711 37.2271 167.594 37.8617 167.594C38.7951 167.594 39.5324 167.832 40.0737 168.308C40.6151 168.784 40.8857 169.433 40.8857 170.254C40.8857 170.777 40.7784 171.267 40.5637 171.724C40.3491 172.182 40.0504 172.634 39.6677 173.082C39.2851 173.53 38.8371 174.002 38.3237 174.496L36.2377 176.554V176.61H41.2917V177.73Z" fill="#362405"/>
<path d="M30.97 209.096H29.766V202.11C29.766 201.708 29.7707 201.386 29.78 201.144C29.7893 200.901 29.8033 200.649 29.822 200.388C29.6727 200.537 29.5327 200.663 29.402 200.766C29.2807 200.868 29.1313 200.999 28.954 201.158L27.89 202.026L27.246 201.2L29.948 199.1H30.97V209.096ZM41.2917 203.37C41.2917 204.088 41.2264 204.798 41.0957 205.498C40.9744 206.188 40.7457 206.818 40.4097 207.388C40.0831 207.948 39.6164 208.396 39.0097 208.732C38.4124 209.068 37.6424 209.236 36.6997 209.236C36.5131 209.236 36.2937 209.222 36.0417 209.194C35.7897 209.175 35.5891 209.142 35.4397 209.096V208.046C35.8037 208.167 36.2144 208.228 36.6717 208.228C37.3251 208.228 37.8617 208.12 38.2817 207.906C38.7111 207.691 39.0517 207.402 39.3037 207.038C39.5557 206.664 39.7377 206.235 39.8497 205.75C39.9617 205.255 40.0271 204.737 40.0457 204.196H39.9617C39.7471 204.513 39.4484 204.788 39.0657 205.022C38.6831 205.246 38.1884 205.358 37.5817 205.358C36.7231 205.358 36.0277 205.096 35.4957 204.574C34.9731 204.042 34.7117 203.295 34.7117 202.334C34.7117 201.634 34.8424 201.032 35.1037 200.528C35.3651 200.024 35.7337 199.636 36.2097 199.366C36.6951 199.095 37.2597 198.96 37.9037 198.96C38.5384 198.96 39.1124 199.123 39.6257 199.45C40.1391 199.767 40.5451 200.252 40.8437 200.906C41.1424 201.55 41.2917 202.371 41.2917 203.37ZM37.9037 199.996C37.3251 199.996 36.8491 200.187 36.4757 200.57C36.1117 200.952 35.9297 201.536 35.9297 202.32C35.9297 202.964 36.0837 203.472 36.3917 203.846C36.7091 204.21 37.1944 204.392 37.8477 204.392C38.2957 204.392 38.6831 204.303 39.0097 204.126C39.3364 203.939 39.5884 203.706 39.7657 203.426C39.9524 203.146 40.0457 202.856 40.0457 202.558C40.0457 202.156 39.9664 201.76 39.8077 201.368C39.6491 200.976 39.4111 200.649 39.0937 200.388C38.7764 200.126 38.3797 199.996 37.9037 199.996Z" fill="white"/>
<path d="M32.28 240.461H25.672V239.439L28.29 236.793C28.7847 236.289 29.2047 235.841 29.55 235.449C29.9047 235.057 30.1707 234.674 30.348 234.301C30.5253 233.928 30.614 233.512 30.614 233.055C30.614 232.504 30.4507 232.089 30.124 231.809C29.7973 231.52 29.3727 231.375 28.85 231.375C28.3553 231.375 27.926 231.459 27.562 231.627C27.198 231.795 26.8247 232.028 26.442 232.327L25.784 231.501C26.176 231.174 26.624 230.899 27.128 230.675C27.6413 230.442 28.2153 230.325 28.85 230.325C29.7833 230.325 30.5207 230.563 31.062 231.039C31.6033 231.515 31.874 232.164 31.874 232.985C31.874 233.508 31.7667 233.998 31.552 234.455C31.3373 234.912 31.0387 235.365 30.656 235.813C30.2733 236.261 29.8253 236.732 29.312 237.227L27.226 239.285V239.341H32.28V240.461ZM33.7817 236.191C33.7817 235.472 33.8424 234.768 33.9637 234.077C34.0944 233.377 34.3231 232.747 34.6497 232.187C34.9857 231.618 35.4524 231.165 36.0497 230.829C36.6471 230.493 37.4171 230.325 38.3597 230.325C38.5557 230.325 38.7704 230.334 39.0037 230.353C39.2464 230.372 39.4424 230.404 39.5917 230.451V231.501C39.4237 231.445 39.2324 231.403 39.0177 231.375C38.8031 231.347 38.5931 231.333 38.3877 231.333C37.7437 231.333 37.2071 231.44 36.7777 231.655C36.3484 231.87 36.0077 232.164 35.7557 232.537C35.5131 232.91 35.3357 233.34 35.2237 233.825C35.1117 234.31 35.0417 234.828 35.0137 235.379H35.0977C35.3124 235.052 35.6111 234.777 35.9937 234.553C36.3764 234.32 36.8664 234.203 37.4637 234.203C38.3317 234.203 39.0317 234.469 39.5637 235.001C40.0957 235.524 40.3617 236.27 40.3617 237.241C40.3617 238.286 40.0724 239.108 39.4937 239.705C38.9244 240.302 38.1544 240.601 37.1837 240.601C36.5491 240.601 35.9751 240.442 35.4617 240.125C34.9484 239.808 34.5377 239.322 34.2297 238.669C33.9311 238.016 33.7817 237.19 33.7817 236.191ZM37.1697 239.565C37.7577 239.565 38.2337 239.378 38.5977 239.005C38.9617 238.622 39.1437 238.034 39.1437 237.241C39.1437 236.606 38.9804 236.102 38.6537 235.729C38.3364 235.356 37.8557 235.169 37.2117 235.169C36.7731 235.169 36.3904 235.262 36.0637 235.449C35.7371 235.626 35.4804 235.86 35.2937 236.149C35.1164 236.429 35.0277 236.714 35.0277 237.003C35.0277 237.404 35.1071 237.806 35.2657 238.207C35.4244 238.599 35.6624 238.926 35.9797 239.187C36.2971 239.439 36.6937 239.565 37.1697 239.565Z" fill="#362405"/>
<path d="M82.322 141.353C82.322 142.436 82.21 143.36 81.986 144.125C81.762 144.891 81.4027 145.479 80.908 145.889C80.4227 146.3 79.7833 146.505 78.99 146.505C77.8607 146.505 77.0253 146.053 76.484 145.147C75.952 144.233 75.686 142.968 75.686 141.353C75.686 140.271 75.7933 139.347 76.008 138.581C76.232 137.816 76.5867 137.233 77.072 136.831C77.5573 136.421 78.1967 136.215 78.99 136.215C80.11 136.215 80.9453 136.668 81.496 137.573C82.0467 138.469 82.322 139.729 82.322 141.353ZM76.918 141.353C76.918 142.725 77.072 143.752 77.38 144.433C77.6973 145.115 78.234 145.455 78.99 145.455C79.7367 145.455 80.2687 145.119 80.586 144.447C80.9127 143.766 81.076 142.735 81.076 141.353C81.076 139.991 80.9127 138.969 80.586 138.287C80.2687 137.606 79.7367 137.265 78.99 137.265C78.234 137.265 77.6973 137.606 77.38 138.287C77.072 138.969 76.918 139.991 76.918 141.353ZM83.7817 142.095C83.7817 141.377 83.8424 140.672 83.9637 139.981C84.0944 139.281 84.3231 138.651 84.6497 138.091C84.9857 137.522 85.4524 137.069 86.0497 136.733C86.6471 136.397 87.4171 136.229 88.3597 136.229C88.5557 136.229 88.7704 136.239 89.0037 136.257C89.2464 136.276 89.4424 136.309 89.5917 136.355V137.405C89.4237 137.349 89.2324 137.307 89.0177 137.279C88.8031 137.251 88.5931 137.237 88.3877 137.237C87.7437 137.237 87.2071 137.345 86.7777 137.559C86.3484 137.774 86.0077 138.068 85.7557 138.441C85.5131 138.815 85.3357 139.244 85.2237 139.729C85.1117 140.215 85.0417 140.733 85.0137 141.283H85.0977C85.3124 140.957 85.6111 140.681 85.9937 140.457C86.3764 140.224 86.8664 140.107 87.4637 140.107C88.3317 140.107 89.0317 140.373 89.5637 140.905C90.0957 141.428 90.3617 142.175 90.3617 143.145C90.3617 144.191 90.0724 145.012 89.4937 145.609C88.9244 146.207 88.1544 146.505 87.1837 146.505C86.5491 146.505 85.9751 146.347 85.4617 146.029C84.9484 145.712 84.5377 145.227 84.2297 144.573C83.9311 143.92 83.7817 143.094 83.7817 142.095ZM87.1697 145.469C87.7577 145.469 88.2337 145.283 88.5977 144.909C88.9617 144.527 89.1437 143.939 89.1437 143.145C89.1437 142.511 88.9804 142.007 88.6537 141.633C88.3364 141.26 87.8557 141.073 87.2117 141.073C86.7731 141.073 86.3904 141.167 86.0637 141.353C85.7371 141.531 85.4804 141.764 85.2937 142.053C85.1164 142.333 85.0277 142.618 85.0277 142.907C85.0277 143.309 85.1071 143.71 85.2657 144.111C85.4244 144.503 85.6624 144.83 85.9797 145.091C86.2971 145.343 86.6937 145.469 87.1697 145.469Z" fill="#362405"/>
<path d="M79.97 177.73H78.766V170.744C78.766 170.343 78.7707 170.021 78.78 169.778C78.7893 169.536 78.8033 169.284 78.822 169.022C78.6727 169.172 78.5327 169.298 78.402 169.4C78.2807 169.503 78.1313 169.634 77.954 169.792L76.89 170.66L76.246 169.834L78.948 167.734H79.97V177.73ZM89.9137 170.072C89.9137 170.744 89.7224 171.281 89.3397 171.682C88.9664 172.074 88.4671 172.336 87.8417 172.466V172.522C88.6351 172.616 89.2277 172.868 89.6197 173.278C90.0211 173.689 90.2217 174.226 90.2217 174.888C90.2217 175.476 90.0864 175.994 89.8157 176.442C89.5451 176.89 89.1251 177.24 88.5557 177.492C87.9957 177.744 87.2724 177.87 86.3857 177.87C85.8631 177.87 85.3777 177.828 84.9297 177.744C84.4817 177.67 84.0524 177.53 83.6417 177.324V176.176C84.0617 176.391 84.5144 176.554 84.9997 176.666C85.4851 176.778 85.9517 176.834 86.3997 176.834C87.2957 176.834 87.9397 176.662 88.3317 176.316C88.7331 175.962 88.9337 175.476 88.9337 174.86C88.9337 174.235 88.6864 173.787 88.1917 173.516C87.7064 173.236 87.0204 173.096 86.1337 173.096H85.1677V172.046H86.1477C86.9691 172.046 87.5897 171.874 88.0097 171.528C88.4391 171.183 88.6537 170.726 88.6537 170.156C88.6537 169.671 88.4904 169.298 88.1637 169.036C87.8371 168.766 87.3937 168.63 86.8337 168.63C86.2924 168.63 85.8304 168.71 85.4477 168.868C85.0651 169.027 84.6871 169.228 84.3137 169.47L83.6977 168.63C84.0524 168.35 84.4911 168.108 85.0137 167.902C85.5457 167.697 86.1477 167.594 86.8197 167.594C87.8651 167.594 88.6397 167.828 89.1437 168.294C89.6571 168.761 89.9137 169.354 89.9137 170.072Z" fill="#362405"/>
<path d="M82.28 209.096H75.672V208.074L78.29 205.428C78.7847 204.924 79.2047 204.476 79.55 204.084C79.9047 203.692 80.1707 203.309 80.348 202.936C80.5253 202.562 80.614 202.147 80.614 201.69C80.614 201.139 80.4507 200.724 80.124 200.444C79.7973 200.154 79.3727 200.01 78.85 200.01C78.3553 200.01 77.926 200.094 77.562 200.262C77.198 200.43 76.8247 200.663 76.442 200.962L75.784 200.136C76.176 199.809 76.624 199.534 77.128 199.31C77.6413 199.076 78.2153 198.96 78.85 198.96C79.7833 198.96 80.5207 199.198 81.062 199.674C81.6033 200.15 81.874 200.798 81.874 201.62C81.874 202.142 81.7667 202.632 81.552 203.09C81.3373 203.547 81.0387 204 80.656 204.448C80.2733 204.896 79.8253 205.367 79.312 205.862L77.226 207.92V207.976H82.28V209.096ZM90.3337 204.084C90.3337 205.166 90.2217 206.09 89.9977 206.856C89.7737 207.621 89.4144 208.209 88.9197 208.62C88.4344 209.03 87.7951 209.236 87.0017 209.236C85.8724 209.236 85.0371 208.783 84.4957 207.878C83.9637 206.963 83.6977 205.698 83.6977 204.084C83.6977 203.001 83.8051 202.077 84.0197 201.312C84.2437 200.546 84.5984 199.963 85.0837 199.562C85.5691 199.151 86.2084 198.946 87.0017 198.946C88.1217 198.946 88.9571 199.398 89.5077 200.304C90.0584 201.2 90.3337 202.46 90.3337 204.084ZM84.9297 204.084C84.9297 205.456 85.0837 206.482 85.3917 207.164C85.7091 207.845 86.2457 208.186 87.0017 208.186C87.7484 208.186 88.2804 207.85 88.5977 207.178C88.9244 206.496 89.0877 205.465 89.0877 204.084C89.0877 202.721 88.9244 201.699 88.5977 201.018C88.2804 200.336 87.7484 199.996 87.0017 199.996C86.2457 199.996 85.7091 200.336 85.3917 201.018C85.0837 201.699 84.9297 202.721 84.9297 204.084Z" fill="#362405"/>
<path d="M82.28 240.461H75.672V239.439L78.29 236.793C78.7847 236.289 79.2047 235.841 79.55 235.449C79.9047 235.057 80.1707 234.674 80.348 234.301C80.5253 233.928 80.614 233.512 80.614 233.055C80.614 232.504 80.4507 232.089 80.124 231.809C79.7973 231.52 79.3727 231.375 78.85 231.375C78.3553 231.375 77.926 231.459 77.562 231.627C77.198 231.795 76.8247 232.028 76.442 232.327L75.784 231.501C76.176 231.174 76.624 230.899 77.128 230.675C77.6413 230.442 78.2153 230.325 78.85 230.325C79.7833 230.325 80.5207 230.563 81.062 231.039C81.6033 231.515 81.874 232.164 81.874 232.985C81.874 233.508 81.7667 233.998 81.552 234.455C81.3373 234.912 81.0387 235.365 80.656 235.813C80.2733 236.261 79.8253 236.732 79.312 237.227L77.226 239.285V239.341H82.28V240.461ZM84.9157 240.461L89.0177 231.585H83.6277V230.465H90.3337V231.417L86.2737 240.461H84.9157Z" fill="#362405"/>
<path d="M131.322 140.988C131.322 142.071 131.21 142.995 130.986 143.76C130.762 144.525 130.403 145.113 129.908 145.524C129.423 145.935 128.783 146.14 127.99 146.14C126.861 146.14 126.025 145.687 125.484 144.782C124.952 143.867 124.686 142.603 124.686 140.988C124.686 139.905 124.793 138.981 125.008 138.216C125.232 137.451 125.587 136.867 126.072 136.466C126.557 136.055 127.197 135.85 127.99 135.85C129.11 135.85 129.945 136.303 130.496 137.208C131.047 138.104 131.322 139.364 131.322 140.988ZM125.918 140.988C125.918 142.36 126.072 143.387 126.38 144.068C126.697 144.749 127.234 145.09 127.99 145.09C128.737 145.09 129.269 144.754 129.586 144.082C129.913 143.401 130.076 142.369 130.076 140.988C130.076 139.625 129.913 138.603 129.586 137.922C129.269 137.241 128.737 136.9 127.99 136.9C127.234 136.9 126.697 137.241 126.38 137.922C126.072 138.603 125.918 139.625 125.918 140.988ZM133.916 146L138.018 137.124H132.628V136.004H139.334V136.956L135.274 146H133.916Z" fill="#362405"/>
<path d="M128.97 177.73H127.766V170.744C127.766 170.343 127.771 170.021 127.78 169.778C127.789 169.536 127.803 169.284 127.822 169.022C127.673 169.172 127.533 169.298 127.402 169.4C127.281 169.503 127.131 169.634 126.954 169.792L125.89 170.66L125.246 169.834L127.948 167.734H128.97V177.73ZM139.74 175.462H138.284V177.73H137.094V175.462H132.306V174.412L137.01 167.678H138.284V174.356H139.74V175.462ZM137.094 174.356V171.206C137.094 170.721 137.098 170.31 137.108 169.974C137.126 169.629 137.145 169.302 137.164 168.994H137.108C137.033 169.172 136.94 169.363 136.828 169.568C136.716 169.774 136.608 169.946 136.506 170.086L133.51 174.356H137.094Z" fill="white"/>
<path d="M132.28 209.096H125.672V208.074L128.29 205.428C128.785 204.924 129.205 204.476 129.55 204.084C129.905 203.692 130.171 203.309 130.348 202.936C130.525 202.562 130.614 202.147 130.614 201.69C130.614 201.139 130.451 200.724 130.124 200.444C129.797 200.154 129.373 200.01 128.85 200.01C128.355 200.01 127.926 200.094 127.562 200.262C127.198 200.43 126.825 200.663 126.442 200.962L125.784 200.136C126.176 199.809 126.624 199.534 127.128 199.31C127.641 199.076 128.215 198.96 128.85 198.96C129.783 198.96 130.521 199.198 131.062 199.674C131.603 200.15 131.874 200.798 131.874 201.62C131.874 202.142 131.767 202.632 131.552 203.09C131.337 203.547 131.039 204 130.656 204.448C130.273 204.896 129.825 205.367 129.312 205.862L127.226 207.92V207.976H132.28V209.096ZM137.982 209.096H136.778V202.11C136.778 201.708 136.782 201.386 136.792 201.144C136.801 200.901 136.815 200.649 136.834 200.388C136.684 200.537 136.544 200.663 136.414 200.766C136.292 200.868 136.143 200.999 135.966 201.158L134.902 202.026L134.258 201.2L136.96 199.1H137.982V209.096Z" fill="#362405"/>
<path d="M131.28 240.461H124.672V239.439L127.29 236.793C127.785 236.289 128.205 235.841 128.55 235.449C128.905 235.057 129.171 234.674 129.348 234.301C129.525 233.928 129.614 233.512 129.614 233.055C129.614 232.504 129.451 232.089 129.124 231.809C128.797 231.52 128.373 231.375 127.85 231.375C127.355 231.375 126.926 231.459 126.562 231.627C126.198 231.795 125.825 232.028 125.442 232.327L124.784 231.501C125.176 231.174 125.624 230.899 126.128 230.675C126.641 230.442 127.215 230.325 127.85 230.325C128.783 230.325 129.521 230.563 130.062 231.039C130.603 231.515 130.874 232.164 130.874 232.985C130.874 233.508 130.767 233.998 130.552 234.455C130.337 234.912 130.039 235.365 129.656 235.813C129.273 236.261 128.825 236.732 128.312 237.227L126.226 239.285V239.341H131.28V240.461ZM136.002 230.325C136.879 230.325 137.598 230.53 138.158 230.941C138.718 231.352 138.998 231.944 138.998 232.719C138.998 233.12 138.909 233.47 138.732 233.769C138.564 234.068 138.335 234.334 138.046 234.567C137.756 234.791 137.439 234.992 137.094 235.169C137.504 235.374 137.878 235.598 138.214 235.841C138.55 236.084 138.816 236.368 139.012 236.695C139.217 237.022 139.32 237.414 139.32 237.871C139.32 238.711 139.021 239.378 138.424 239.873C137.826 240.358 137.033 240.601 136.044 240.601C134.961 240.601 134.13 240.368 133.552 239.901C132.982 239.425 132.698 238.762 132.698 237.913C132.698 237.465 132.791 237.073 132.978 236.737C133.174 236.392 133.43 236.098 133.748 235.855C134.065 235.612 134.406 235.407 134.77 235.239C134.275 234.959 133.86 234.623 133.524 234.231C133.188 233.83 133.02 233.321 133.02 232.705C133.02 232.201 133.15 231.772 133.412 231.417C133.673 231.062 134.028 230.792 134.476 230.605C134.924 230.418 135.432 230.325 136.002 230.325ZM135.988 231.319C135.465 231.319 135.04 231.445 134.714 231.697C134.387 231.94 134.224 232.294 134.224 232.761C134.224 233.106 134.303 233.396 134.462 233.629C134.63 233.862 134.854 234.063 135.134 234.231C135.414 234.39 135.722 234.544 136.058 234.693C136.543 234.488 136.949 234.24 137.276 233.951C137.612 233.662 137.78 233.265 137.78 232.761C137.78 232.294 137.616 231.94 137.29 231.697C136.963 231.445 136.529 231.319 135.988 231.319ZM133.902 237.927C133.902 238.412 134.074 238.818 134.42 239.145C134.765 239.462 135.297 239.621 136.016 239.621C136.697 239.621 137.215 239.462 137.57 239.145C137.934 238.818 138.116 238.398 138.116 237.885C138.116 237.4 137.924 236.998 137.542 236.681C137.159 236.354 136.65 236.07 136.016 235.827L135.792 235.743C135.176 236.014 134.704 236.317 134.378 236.653C134.06 236.989 133.902 237.414 133.902 237.927Z" fill="#362405"/>
<path d="M181.605 109.988C181.605 111.071 181.493 111.995 181.269 112.76C181.045 113.525 180.685 114.113 180.191 114.524C179.705 114.935 179.066 115.14 178.273 115.14C177.143 115.14 176.308 114.687 175.767 113.782C175.235 112.867 174.969 111.603 174.969 109.988C174.969 108.905 175.076 107.981 175.291 107.216C175.515 106.451 175.869 105.867 176.355 105.466C176.84 105.055 177.479 104.85 178.273 104.85C179.393 104.85 180.228 105.303 180.779 106.208C181.329 107.104 181.605 108.364 181.605 109.988ZM176.201 109.988C176.201 111.36 176.355 112.387 176.663 113.068C176.98 113.749 177.517 114.09 178.273 114.09C179.019 114.09 179.551 113.754 179.869 113.082C180.195 112.401 180.359 111.369 180.359 109.988C180.359 108.625 180.195 107.603 179.869 106.922C179.551 106.241 179.019 105.9 178.273 105.9C177.517 105.9 176.98 106.241 176.663 106.922C176.355 107.603 176.201 108.625 176.201 109.988ZM187.264 115H186.06V108.014C186.06 107.613 186.065 107.291 186.074 107.048C186.084 106.805 186.098 106.553 186.116 106.292C185.967 106.441 185.827 106.567 185.696 106.67C185.575 106.773 185.426 106.903 185.248 107.062L184.184 107.93L183.54 107.104L186.242 105.004H187.264V115Z" fill="#362405"/>
<path d="M180.322 141.353C180.322 142.436 180.21 143.36 179.986 144.125C179.762 144.891 179.403 145.479 178.908 145.889C178.423 146.3 177.783 146.505 176.99 146.505C175.861 146.505 175.025 146.053 174.484 145.147C173.952 144.233 173.686 142.968 173.686 141.353C173.686 140.271 173.793 139.347 174.008 138.581C174.232 137.816 174.587 137.233 175.072 136.831C175.557 136.421 176.197 136.215 176.99 136.215C178.11 136.215 178.945 136.668 179.496 137.573C180.047 138.469 180.322 139.729 180.322 141.353ZM174.918 141.353C174.918 142.725 175.072 143.752 175.38 144.433C175.697 145.115 176.234 145.455 176.99 145.455C177.737 145.455 178.269 145.119 178.586 144.447C178.913 143.766 179.076 142.735 179.076 141.353C179.076 139.991 178.913 138.969 178.586 138.287C178.269 137.606 177.737 137.265 176.99 137.265C176.234 137.265 175.697 137.606 175.38 138.287C175.072 138.969 174.918 139.991 174.918 141.353ZM185.002 136.229C185.879 136.229 186.598 136.435 187.158 136.845C187.718 137.256 187.998 137.849 187.998 138.623C187.998 139.025 187.909 139.375 187.732 139.673C187.564 139.972 187.335 140.238 187.046 140.471C186.756 140.695 186.439 140.896 186.094 141.073C186.504 141.279 186.878 141.503 187.214 141.745C187.55 141.988 187.816 142.273 188.012 142.599C188.217 142.926 188.32 143.318 188.32 143.775C188.32 144.615 188.021 145.283 187.424 145.777C186.826 146.263 186.033 146.505 185.044 146.505C183.961 146.505 183.13 146.272 182.552 145.805C181.982 145.329 181.698 144.667 181.698 143.817C181.698 143.369 181.791 142.977 181.978 142.641C182.174 142.296 182.43 142.002 182.748 141.759C183.065 141.517 183.406 141.311 183.77 141.143C183.275 140.863 182.86 140.527 182.524 140.135C182.188 139.734 182.02 139.225 182.02 138.609C182.02 138.105 182.15 137.676 182.412 137.321C182.673 136.967 183.028 136.696 183.476 136.509C183.924 136.323 184.432 136.229 185.002 136.229ZM184.988 137.223C184.465 137.223 184.04 137.349 183.714 137.601C183.387 137.844 183.224 138.199 183.224 138.665C183.224 139.011 183.303 139.3 183.462 139.533C183.63 139.767 183.854 139.967 184.134 140.135C184.414 140.294 184.722 140.448 185.058 140.597C185.543 140.392 185.949 140.145 186.276 139.855C186.612 139.566 186.78 139.169 186.78 138.665C186.78 138.199 186.616 137.844 186.29 137.601C185.963 137.349 185.529 137.223 184.988 137.223ZM182.902 143.831C182.902 144.317 183.074 144.723 183.42 145.049C183.765 145.367 184.297 145.525 185.016 145.525C185.697 145.525 186.215 145.367 186.57 145.049C186.934 144.723 187.116 144.303 187.116 143.789C187.116 143.304 186.924 142.903 186.542 142.585C186.159 142.259 185.65 141.974 185.016 141.731L184.792 141.647C184.176 141.918 183.704 142.221 183.378 142.557C183.06 142.893 182.902 143.318 182.902 143.831Z" fill="#362405"/>
<path d="M178.253 177.73H177.049V170.744C177.049 170.343 177.053 170.021 177.063 169.778C177.072 169.536 177.086 169.284 177.105 169.022C176.955 169.172 176.815 169.298 176.685 169.4C176.563 169.503 176.414 169.634 176.237 169.792L175.173 170.66L174.529 169.834L177.231 167.734H178.253V177.73ZM185.144 171.598C186.162 171.598 186.974 171.855 187.58 172.368C188.196 172.882 188.504 173.605 188.504 174.538C188.504 175.574 188.173 176.391 187.51 176.988C186.857 177.576 185.942 177.87 184.766 177.87C184.244 177.87 183.758 177.824 183.31 177.73C182.862 177.637 182.484 177.502 182.176 177.324V176.162C182.512 176.368 182.918 176.531 183.394 176.652C183.88 176.764 184.342 176.82 184.78 176.82C185.518 176.82 186.11 176.648 186.558 176.302C187.016 175.948 187.244 175.402 187.244 174.664C187.244 174.011 187.044 173.512 186.642 173.166C186.241 172.812 185.606 172.634 184.738 172.634C184.477 172.634 184.178 172.658 183.842 172.704C183.506 172.751 183.236 172.798 183.03 172.844L182.414 172.452L182.792 167.734H187.804V168.854H183.842L183.604 171.752C183.763 171.724 183.978 171.692 184.248 171.654C184.519 171.617 184.818 171.598 185.144 171.598Z" fill="white"/>
<path d="M180.28 209.096H173.672V208.074L176.29 205.428C176.785 204.924 177.205 204.476 177.55 204.084C177.905 203.692 178.171 203.309 178.348 202.936C178.525 202.562 178.614 202.147 178.614 201.69C178.614 201.139 178.451 200.724 178.124 200.444C177.797 200.154 177.373 200.01 176.85 200.01C176.355 200.01 175.926 200.094 175.562 200.262C175.198 200.43 174.825 200.663 174.442 200.962L173.784 200.136C174.176 199.809 174.624 199.534 175.128 199.31C175.641 199.076 176.215 198.96 176.85 198.96C177.783 198.96 178.521 199.198 179.062 199.674C179.603 200.15 179.874 200.798 179.874 201.62C179.874 202.142 179.767 202.632 179.552 203.09C179.337 203.547 179.039 204 178.656 204.448C178.273 204.896 177.825 205.367 177.312 205.862L175.226 207.92V207.976H180.28V209.096ZM188.292 209.096H181.684V208.074L184.302 205.428C184.796 204.924 185.216 204.476 185.562 204.084C185.916 203.692 186.182 203.309 186.36 202.936C186.537 202.562 186.626 202.147 186.626 201.69C186.626 201.139 186.462 200.724 186.136 200.444C185.809 200.154 185.384 200.01 184.862 200.01C184.367 200.01 183.938 200.094 183.574 200.262C183.21 200.43 182.836 200.663 182.454 200.962L181.796 200.136C182.188 199.809 182.636 199.534 183.14 199.31C183.653 199.076 184.227 198.96 184.862 198.96C185.795 198.96 186.532 199.198 187.074 199.674C187.615 200.15 187.886 200.798 187.886 201.62C187.886 202.142 187.778 202.632 187.564 203.09C187.349 203.547 187.05 204 186.668 204.448C186.285 204.896 185.837 205.367 185.324 205.862L183.238 207.92V207.976H188.292V209.096Z" fill="#362405"/>
<path d="M180.28 240.461H173.672V239.439L176.29 236.793C176.785 236.289 177.205 235.841 177.55 235.449C177.905 235.057 178.171 234.674 178.348 234.301C178.525 233.928 178.614 233.512 178.614 233.055C178.614 232.504 178.451 232.089 178.124 231.809C177.797 231.52 177.373 231.375 176.85 231.375C176.355 231.375 175.926 231.459 175.562 231.627C175.198 231.795 174.825 232.028 174.442 232.327L173.784 231.501C174.176 231.174 174.624 230.899 175.128 230.675C175.641 230.442 176.215 230.325 176.85 230.325C177.783 230.325 178.521 230.563 179.062 231.039C179.603 231.515 179.874 232.164 179.874 232.985C179.874 233.508 179.767 233.998 179.552 234.455C179.337 234.912 179.039 235.365 178.656 235.813C178.273 236.261 177.825 236.732 177.312 237.227L175.226 239.285V239.341H180.28V240.461ZM188.292 234.735C188.292 235.454 188.226 236.163 188.096 236.863C187.974 237.554 187.746 238.184 187.41 238.753C187.083 239.313 186.616 239.761 186.01 240.097C185.412 240.433 184.642 240.601 183.7 240.601C183.513 240.601 183.294 240.587 183.042 240.559C182.79 240.54 182.589 240.508 182.44 240.461V239.411C182.804 239.532 183.214 239.593 183.672 239.593C184.325 239.593 184.862 239.486 185.282 239.271C185.711 239.056 186.052 238.767 186.304 238.403C186.556 238.03 186.738 237.6 186.85 237.115C186.962 236.62 187.027 236.102 187.046 235.561H186.962C186.747 235.878 186.448 236.154 186.066 236.387C185.683 236.611 185.188 236.723 184.582 236.723C183.723 236.723 183.028 236.462 182.496 235.939C181.973 235.407 181.712 234.66 181.712 233.699C181.712 232.999 181.842 232.397 182.104 231.893C182.365 231.389 182.734 231.002 183.21 230.731C183.695 230.46 184.26 230.325 184.904 230.325C185.538 230.325 186.112 230.488 186.626 230.815C187.139 231.132 187.545 231.618 187.844 232.271C188.142 232.915 188.292 233.736 188.292 234.735ZM184.904 231.361C184.325 231.361 183.849 231.552 183.476 231.935C183.112 232.318 182.93 232.901 182.93 233.685C182.93 234.329 183.084 234.838 183.392 235.211C183.709 235.575 184.194 235.757 184.848 235.757C185.296 235.757 185.683 235.668 186.01 235.491C186.336 235.304 186.588 235.071 186.766 234.791C186.952 234.511 187.046 234.222 187.046 233.923C187.046 233.522 186.966 233.125 186.808 232.733C186.649 232.341 186.411 232.014 186.094 231.753C185.776 231.492 185.38 231.361 184.904 231.361Z" fill="white"/>
<path d="M230.322 109.988C230.322 111.071 230.21 111.995 229.986 112.76C229.762 113.525 229.403 114.113 228.908 114.524C228.423 114.935 227.783 115.14 226.99 115.14C225.861 115.14 225.025 114.687 224.484 113.782C223.952 112.867 223.686 111.603 223.686 109.988C223.686 108.905 223.793 107.981 224.008 107.216C224.232 106.451 224.587 105.867 225.072 105.466C225.557 105.055 226.197 104.85 226.99 104.85C228.11 104.85 228.945 105.303 229.496 106.208C230.047 107.104 230.322 108.364 230.322 109.988ZM224.918 109.988C224.918 111.36 225.072 112.387 225.38 113.068C225.697 113.749 226.234 114.09 226.99 114.09C227.737 114.09 228.269 113.754 228.586 113.082C228.913 112.401 229.076 111.369 229.076 109.988C229.076 108.625 228.913 107.603 228.586 106.922C228.269 106.241 227.737 105.9 226.99 105.9C226.234 105.9 225.697 106.241 225.38 106.922C225.072 107.603 224.918 108.625 224.918 109.988ZM238.292 115H231.684V113.978L234.302 111.332C234.796 110.828 235.216 110.38 235.562 109.988C235.916 109.596 236.182 109.213 236.36 108.84C236.537 108.467 236.626 108.051 236.626 107.594C236.626 107.043 236.462 106.628 236.136 106.348C235.809 106.059 235.384 105.914 234.862 105.914C234.367 105.914 233.938 105.998 233.574 106.166C233.21 106.334 232.836 106.567 232.454 106.866L231.796 106.04C232.188 105.713 232.636 105.438 233.14 105.214C233.653 104.981 234.227 104.864 234.862 104.864C235.795 104.864 236.532 105.102 237.074 105.578C237.615 106.054 237.886 106.703 237.886 107.524C237.886 108.047 237.778 108.537 237.564 108.994C237.349 109.451 237.05 109.904 236.668 110.352C236.285 110.8 235.837 111.271 235.324 111.766L233.238 113.824V113.88H238.292V115Z" fill="#362405"/>
<path d="M230.322 141.353C230.322 142.436 230.21 143.36 229.986 144.125C229.762 144.891 229.403 145.479 228.908 145.889C228.423 146.3 227.783 146.505 226.99 146.505C225.861 146.505 225.025 146.053 224.484 145.147C223.952 144.233 223.686 142.968 223.686 141.353C223.686 140.271 223.793 139.347 224.008 138.581C224.232 137.816 224.587 137.233 225.072 136.831C225.557 136.421 226.197 136.215 226.99 136.215C228.11 136.215 228.945 136.668 229.496 137.573C230.047 138.469 230.322 139.729 230.322 141.353ZM224.918 141.353C224.918 142.725 225.072 143.752 225.38 144.433C225.697 145.115 226.234 145.455 226.99 145.455C227.737 145.455 228.269 145.119 228.586 144.447C228.913 143.766 229.076 142.735 229.076 141.353C229.076 139.991 228.913 138.969 228.586 138.287C228.269 137.606 227.737 137.265 226.99 137.265C226.234 137.265 225.697 137.606 225.38 138.287C225.072 138.969 224.918 139.991 224.918 141.353ZM238.292 140.639C238.292 141.358 238.226 142.067 238.096 142.767C237.974 143.458 237.746 144.088 237.41 144.657C237.083 145.217 236.616 145.665 236.01 146.001C235.412 146.337 234.642 146.505 233.7 146.505C233.513 146.505 233.294 146.491 233.042 146.463C232.79 146.445 232.589 146.412 232.44 146.365V145.315C232.804 145.437 233.214 145.497 233.672 145.497C234.325 145.497 234.862 145.39 235.282 145.175C235.711 144.961 236.052 144.671 236.304 144.307C236.556 143.934 236.738 143.505 236.85 143.019C236.962 142.525 237.027 142.007 237.046 141.465H236.962C236.747 141.783 236.448 142.058 236.066 142.291C235.683 142.515 235.188 142.627 234.582 142.627C233.723 142.627 233.028 142.366 232.496 141.843C231.973 141.311 231.712 140.565 231.712 139.603C231.712 138.903 231.842 138.301 232.104 137.797C232.365 137.293 232.734 136.906 233.21 136.635C233.695 136.365 234.26 136.229 234.904 136.229C235.538 136.229 236.112 136.393 236.626 136.719C237.139 137.037 237.545 137.522 237.844 138.175C238.142 138.819 238.292 139.641 238.292 140.639ZM234.904 137.265C234.325 137.265 233.849 137.457 233.476 137.839C233.112 138.222 232.93 138.805 232.93 139.589C232.93 140.233 233.084 140.742 233.392 141.115C233.709 141.479 234.194 141.661 234.848 141.661C235.296 141.661 235.683 141.573 236.01 141.395C236.336 141.209 236.588 140.975 236.766 140.695C236.952 140.415 237.046 140.126 237.046 139.827C237.046 139.426 236.966 139.029 236.808 138.637C236.649 138.245 236.411 137.919 236.094 137.657C235.776 137.396 235.38 137.265 234.904 137.265Z" fill="#362405"/>
<path d="M227.97 177.73H226.766V170.744C226.766 170.343 226.771 170.021 226.78 169.778C226.789 169.536 226.803 169.284 226.822 169.022C226.673 169.172 226.533 169.298 226.402 169.4C226.281 169.503 226.131 169.634 225.954 169.792L224.89 170.66L224.246 169.834L226.948 167.734H227.97V177.73ZM231.782 173.46C231.782 172.742 231.842 172.037 231.964 171.346C232.094 170.646 232.323 170.016 232.65 169.456C232.986 168.887 233.452 168.434 234.05 168.098C234.647 167.762 235.417 167.594 236.36 167.594C236.556 167.594 236.77 167.604 237.004 167.622C237.246 167.641 237.442 167.674 237.592 167.72V168.77C237.424 168.714 237.232 168.672 237.018 168.644C236.803 168.616 236.593 168.602 236.388 168.602C235.744 168.602 235.207 168.71 234.778 168.924C234.348 169.139 234.008 169.433 233.756 169.806C233.513 170.18 233.336 170.609 233.224 171.094C233.112 171.58 233.042 172.098 233.014 172.648H233.098C233.312 172.322 233.611 172.046 233.994 171.822C234.376 171.589 234.866 171.472 235.464 171.472C236.332 171.472 237.032 171.738 237.564 172.27C238.096 172.793 238.362 173.54 238.362 174.51C238.362 175.556 238.072 176.377 237.494 176.974C236.924 177.572 236.154 177.87 235.184 177.87C234.549 177.87 233.975 177.712 233.462 177.394C232.948 177.077 232.538 176.592 232.23 175.938C231.931 175.285 231.782 174.459 231.782 173.46ZM235.17 176.834C235.758 176.834 236.234 176.648 236.598 176.274C236.962 175.892 237.144 175.304 237.144 174.51C237.144 173.876 236.98 173.372 236.654 172.998C236.336 172.625 235.856 172.438 235.212 172.438C234.773 172.438 234.39 172.532 234.064 172.718C233.737 172.896 233.48 173.129 233.294 173.418C233.116 173.698 233.028 173.983 233.028 174.272C233.028 174.674 233.107 175.075 233.266 175.476C233.424 175.868 233.662 176.195 233.98 176.456C234.297 176.708 234.694 176.834 235.17 176.834Z" fill="#362405"/>
<path d="M230.28 209.096H223.672V208.074L226.29 205.428C226.785 204.924 227.205 204.476 227.55 204.084C227.905 203.692 228.171 203.309 228.348 202.936C228.525 202.562 228.614 202.147 228.614 201.69C228.614 201.139 228.451 200.724 228.124 200.444C227.797 200.154 227.373 200.01 226.85 200.01C226.355 200.01 225.926 200.094 225.562 200.262C225.198 200.43 224.825 200.663 224.442 200.962L223.784 200.136C224.176 199.809 224.624 199.534 225.128 199.31C225.641 199.076 226.215 198.96 226.85 198.96C227.783 198.96 228.521 199.198 229.062 199.674C229.603 200.15 229.874 200.798 229.874 201.62C229.874 202.142 229.767 202.632 229.552 203.09C229.337 203.547 229.039 204 228.656 204.448C228.273 204.896 227.825 205.367 227.312 205.862L225.226 207.92V207.976H230.28V209.096ZM237.914 201.438C237.914 202.11 237.722 202.646 237.34 203.048C236.966 203.44 236.467 203.701 235.842 203.832V203.888C236.635 203.981 237.228 204.233 237.62 204.644C238.021 205.054 238.222 205.591 238.222 206.254C238.222 206.842 238.086 207.36 237.816 207.808C237.545 208.256 237.125 208.606 236.556 208.858C235.996 209.11 235.272 209.236 234.386 209.236C233.863 209.236 233.378 209.194 232.93 209.11C232.482 209.035 232.052 208.895 231.642 208.69V207.542C232.062 207.756 232.514 207.92 233 208.032C233.485 208.144 233.952 208.2 234.4 208.2C235.296 208.2 235.94 208.027 236.332 207.682C236.733 207.327 236.934 206.842 236.934 206.226C236.934 205.6 236.686 205.152 236.192 204.882C235.706 204.602 235.02 204.462 234.134 204.462H233.168V203.412H234.148C234.969 203.412 235.59 203.239 236.01 202.894C236.439 202.548 236.654 202.091 236.654 201.522C236.654 201.036 236.49 200.663 236.164 200.402C235.837 200.131 235.394 199.996 234.834 199.996C234.292 199.996 233.83 200.075 233.448 200.234C233.065 200.392 232.687 200.593 232.314 200.836L231.698 199.996C232.052 199.716 232.491 199.473 233.014 199.268C233.546 199.062 234.148 198.96 234.82 198.96C235.865 198.96 236.64 199.193 237.144 199.66C237.657 200.126 237.914 200.719 237.914 201.438Z" fill="#362405"/>
<path d="M229.902 232.803C229.902 233.475 229.711 234.012 229.328 234.413C228.955 234.805 228.455 235.066 227.83 235.197V235.253C228.623 235.346 229.216 235.598 229.608 236.009C230.009 236.42 230.21 236.956 230.21 237.619C230.21 238.207 230.075 238.725 229.804 239.173C229.533 239.621 229.113 239.971 228.544 240.223C227.984 240.475 227.261 240.601 226.374 240.601C225.851 240.601 225.366 240.559 224.918 240.475C224.47 240.4 224.041 240.26 223.63 240.055V238.907C224.05 239.122 224.503 239.285 224.988 239.397C225.473 239.509 225.94 239.565 226.388 239.565C227.284 239.565 227.928 239.392 228.32 239.047C228.721 238.692 228.922 238.207 228.922 237.591C228.922 236.966 228.675 236.518 228.18 236.247C227.695 235.967 227.009 235.827 226.122 235.827H225.156V234.777H226.136C226.957 234.777 227.578 234.604 227.998 234.259C228.427 233.914 228.642 233.456 228.642 232.887C228.642 232.402 228.479 232.028 228.152 231.767C227.825 231.496 227.382 231.361 226.822 231.361C226.281 231.361 225.819 231.44 225.436 231.599C225.053 231.758 224.675 231.958 224.302 232.201L223.686 231.361C224.041 231.081 224.479 230.838 225.002 230.633C225.534 230.428 226.136 230.325 226.808 230.325C227.853 230.325 228.628 230.558 229.132 231.025C229.645 231.492 229.902 232.084 229.902 232.803ZM238.334 235.449C238.334 236.532 238.222 237.456 237.998 238.221C237.774 238.986 237.414 239.574 236.92 239.985C236.434 240.396 235.795 240.601 235.002 240.601C233.872 240.601 233.037 240.148 232.496 239.243C231.964 238.328 231.698 237.064 231.698 235.449C231.698 234.366 231.805 233.442 232.02 232.677C232.244 231.912 232.598 231.328 233.084 230.927C233.569 230.516 234.208 230.311 235.002 230.311C236.122 230.311 236.957 230.764 237.508 231.669C238.058 232.565 238.334 233.825 238.334 235.449ZM232.93 235.449C232.93 236.821 233.084 237.848 233.392 238.529C233.709 239.21 234.246 239.551 235.002 239.551C235.748 239.551 236.28 239.215 236.598 238.543C236.924 237.862 237.088 236.83 237.088 235.449C237.088 234.086 236.924 233.064 236.598 232.383C236.28 231.702 235.748 231.361 235.002 231.361C234.246 231.361 233.709 231.702 233.392 232.383C233.084 233.064 232.93 234.086 232.93 235.449Z" fill="#362405"/>
<path d="M134.54 32L133.5 28.6H128.3L127.26 32H124L129.04 17.66H132.74L137.8 32H134.54ZM132.78 26.06L131.74 22.74C131.673 22.5133 131.587 22.2267 131.48 21.88C131.373 21.5333 131.267 21.18 131.16 20.82C131.053 20.46 130.967 20.1467 130.9 19.88C130.833 20.1467 130.74 20.48 130.62 20.88C130.513 21.2667 130.407 21.64 130.3 22C130.207 22.3467 130.133 22.5933 130.08 22.74L129.06 26.06H132.78ZM145.449 20.88C146.675 20.88 147.669 21.36 148.429 22.32C149.189 23.2667 149.569 24.6667 149.569 26.52C149.569 28.3867 149.175 29.8 148.389 30.76C147.602 31.72 146.595 32.2 145.369 32.2C144.582 32.2 143.955 32.06 143.489 31.78C143.022 31.4867 142.642 31.16 142.349 30.8H142.189C142.295 31.36 142.349 31.8933 142.349 32.4V36.8H139.369V21.08H141.789L142.209 22.5H142.349C142.642 22.06 143.035 21.68 143.529 21.36C144.022 21.04 144.662 20.88 145.449 20.88ZM144.489 23.26C143.715 23.26 143.169 23.5067 142.849 24C142.529 24.48 142.362 25.2067 142.349 26.18V26.5C142.349 27.5533 142.502 28.3667 142.809 28.94C143.129 29.5 143.702 29.78 144.529 29.78C145.209 29.78 145.709 29.5 146.029 28.94C146.362 28.3667 146.529 27.5467 146.529 26.48C146.529 24.3333 145.849 23.26 144.489 23.26ZM158.125 20.88C158.272 20.88 158.445 20.8867 158.645 20.9C158.845 20.9133 159.005 20.9333 159.125 20.96L158.905 23.76C158.798 23.7333 158.658 23.7133 158.485 23.7C158.312 23.6733 158.158 23.66 158.025 23.66C157.518 23.66 157.032 23.7533 156.565 23.94C156.098 24.1133 155.718 24.4 155.425 24.8C155.145 25.2 155.005 25.7467 155.005 26.44V32H152.025V21.08H154.285L154.725 22.92H154.865C155.185 22.36 155.625 21.88 156.185 21.48C156.745 21.08 157.392 20.88 158.125 20.88ZM162.607 16.8C163.047 16.8 163.427 16.9067 163.747 17.12C164.067 17.32 164.227 17.7 164.227 18.26C164.227 18.8067 164.067 19.1867 163.747 19.4C163.427 19.6133 163.047 19.72 162.607 19.72C162.154 19.72 161.767 19.6133 161.447 19.4C161.14 19.1867 160.987 18.8067 160.987 18.26C160.987 17.7 161.14 17.32 161.447 17.12C161.767 16.9067 162.154 16.8 162.607 16.8ZM164.087 21.08V32H161.107V21.08H164.087ZM170.181 32H167.201V16.8H170.181V32ZM176.074 29.68L176.214 29.9C176.028 30.6067 175.774 31.38 175.454 32.22C175.148 33.06 174.828 33.8467 174.494 34.58H172.354C172.541 33.7933 172.721 32.9533 172.894 32.06C173.081 31.1667 173.228 30.3733 173.334 29.68H176.074ZM188.218 32H178.238V29.9L181.818 26.28C182.538 25.5333 183.118 24.9133 183.558 24.42C183.998 23.9133 184.318 23.46 184.518 23.06C184.718 22.6467 184.818 22.2067 184.818 21.74C184.818 21.1667 184.658 20.74 184.338 20.46C184.031 20.18 183.611 20.04 183.078 20.04C182.531 20.04 181.998 20.1667 181.478 20.42C180.958 20.6733 180.411 21.0333 179.838 21.5L178.198 19.56C178.598 19.2133 179.031 18.8867 179.498 18.58C179.964 18.26 180.498 18.0067 181.098 17.82C181.711 17.62 182.444 17.52 183.298 17.52C184.231 17.52 185.031 17.6933 185.698 18.04C186.378 18.3733 186.898 18.8333 187.258 19.42C187.631 19.9933 187.818 20.6467 187.818 21.38C187.818 22.1667 187.658 22.8867 187.338 23.54C187.031 24.1933 186.578 24.84 185.978 25.48C185.391 26.12 184.678 26.8267 183.838 27.6L181.998 29.32V29.46H188.218V32ZM199.583 24.86C199.583 26.3933 199.416 27.7067 199.083 28.8C198.763 29.8933 198.236 30.7333 197.503 31.32C196.769 31.9067 195.796 32.2 194.583 32.2C192.863 32.2 191.603 31.5533 190.803 30.26C190.003 28.9667 189.603 27.1667 189.603 24.86C189.603 23.3267 189.763 22.0133 190.083 20.92C190.403 19.8133 190.929 18.9667 191.663 18.38C192.396 17.7933 193.369 17.5 194.583 17.5C196.289 17.5 197.549 18.1467 198.363 19.44C199.176 20.7333 199.583 22.54 199.583 24.86ZM192.603 24.86C192.603 26.4867 192.743 27.7133 193.023 28.54C193.303 29.3533 193.823 29.76 194.583 29.76C195.329 29.76 195.849 29.3533 196.143 28.54C196.436 27.7267 196.583 26.5 196.583 24.86C196.583 23.2333 196.436 22.0067 196.143 21.18C195.849 20.3533 195.329 19.94 194.583 19.94C193.823 19.94 193.303 20.3533 193.023 21.18C192.743 22.0067 192.603 23.2333 192.603 24.86ZM211.108 32H201.128V29.9L204.708 26.28C205.428 25.5333 206.008 24.9133 206.448 24.42C206.888 23.9133 207.208 23.46 207.408 23.06C207.608 22.6467 207.708 22.2067 207.708 21.74C207.708 21.1667 207.548 20.74 207.228 20.46C206.921 20.18 206.501 20.04 205.968 20.04C205.421 20.04 204.888 20.1667 204.368 20.42C203.848 20.6733 203.301 21.0333 202.728 21.5L201.088 19.56C201.488 19.2133 201.921 18.8867 202.388 18.58C202.855 18.26 203.388 18.0067 203.988 17.82C204.601 17.62 205.335 17.52 206.188 17.52C207.121 17.52 207.921 17.6933 208.588 18.04C209.268 18.3733 209.788 18.8333 210.148 19.42C210.521 19.9933 210.708 20.6467 210.708 21.38C210.708 22.1667 210.548 22.8867 210.228 23.54C209.921 24.1933 209.468 24.84 208.868 25.48C208.281 26.12 207.568 26.8267 206.728 27.6L204.888 29.32V29.46H211.108V32ZM221.993 20.92C221.993 21.9067 221.693 22.6933 221.093 23.28C220.507 23.8667 219.78 24.2667 218.913 24.48V24.54C220.047 24.6867 220.913 25.04 221.513 25.6C222.113 26.16 222.413 26.9067 222.413 27.84C222.413 28.6667 222.207 29.4133 221.793 30.08C221.393 30.7333 220.767 31.2533 219.913 31.64C219.073 32.0133 217.987 32.2 216.653 32.2C215.107 32.2 213.733 31.94 212.533 31.42V28.86C213.147 29.1667 213.787 29.4 214.453 29.56C215.12 29.72 215.747 29.8 216.333 29.8C217.413 29.8 218.167 29.6133 218.593 29.24C219.033 28.8667 219.253 28.34 219.253 27.66C219.253 27.2733 219.153 26.94 218.953 26.66C218.753 26.38 218.4 26.1733 217.893 26.04C217.4 25.8933 216.707 25.82 215.813 25.82H214.733V23.5H215.833C216.713 23.5 217.38 23.42 217.833 23.26C218.3 23.0867 218.613 22.86 218.773 22.58C218.947 22.2867 219.033 21.9533 219.033 21.58C219.033 21.0733 218.873 20.68 218.553 20.4C218.247 20.1067 217.727 19.96 216.993 19.96C216.313 19.96 215.72 20.08 215.213 20.32C214.707 20.56 214.287 20.7867 213.953 21L212.553 18.92C213.113 18.52 213.767 18.1867 214.513 17.92C215.273 17.6533 216.173 17.52 217.213 17.52C218.68 17.52 219.84 17.82 220.693 18.42C221.56 19.0067 221.993 19.84 221.993 20.92Z" fill="#5BA7DD"/>
<path d="M245.752 27.7975C245.837 27.7125 245.88 27.6133 245.88 27.5C245.88 27.3867 245.837 27.2875 245.752 27.2025L243.372 24.8225C243.231 24.6808 243.075 24.6454 242.905 24.7163C242.735 24.7871 242.65 24.9217 242.65 25.12L242.65 29.88C242.65 30.0783 242.735 30.2129 242.905 30.2838C243.075 30.3546 243.231 30.3192 243.372 30.1775L245.752 27.7975ZM252 27.5C252 28.6758 251.777 29.7808 251.33 30.815C250.884 31.8492 250.278 32.7487 249.514 33.5137C248.749 34.2787 247.849 34.8842 246.815 35.3302C245.781 35.7762 244.676 35.9994 243.5 36C242.324 36 241.219 35.7767 240.185 35.3302C239.151 34.8837 238.251 34.2782 237.486 33.5137C236.721 32.7488 236.116 31.8492 235.67 30.815C235.224 29.7808 235.001 28.6758 235 27.5C235 26.3242 235.223 25.2192 235.67 24.185C236.116 23.1508 236.722 22.2513 237.486 21.4863C238.251 20.7213 239.151 20.1155 240.185 19.669C241.219 19.2224 242.324 18.9994 243.5 19C244.676 19 245.781 19.2233 246.815 19.6698C247.849 20.1163 248.749 20.7218 249.514 21.4863C250.279 22.2513 250.885 23.1508 251.331 24.185C251.778 25.2192 252.001 26.3242 252 27.5Z" fill="#97CDF4"/>
<path d="M103.248 27.2025C103.163 27.2875 103.12 27.3867 103.12 27.5C103.12 27.6133 103.163 27.7125 103.248 27.7975L105.628 30.1775C105.769 30.3192 105.925 30.3546 106.095 30.2837C106.265 30.2129 106.35 30.0783 106.35 29.88L106.35 25.12C106.35 24.9217 106.265 24.7871 106.095 24.7162C105.925 24.6454 105.769 24.6808 105.628 24.8225L103.248 27.2025ZM97 27.5C97 26.3242 97.2233 25.2192 97.6698 24.185C98.1163 23.1508 98.7218 22.2512 99.4863 21.4862C100.251 20.7212 101.151 20.1158 102.185 19.6698C103.219 19.2238 104.324 19.0006 105.5 19C106.676 19 107.781 19.2233 108.815 19.6698C109.849 20.1163 110.749 20.7218 111.514 21.4862C112.279 22.2512 112.884 23.1508 113.33 24.185C113.776 25.2192 113.999 26.3242 114 27.5C114 28.6758 113.777 29.7808 113.33 30.815C112.884 31.8492 112.278 32.7487 111.514 33.5137C110.749 34.2787 109.849 34.8845 108.815 35.331C107.781 35.7776 106.676 36.0006 105.5 36C104.324 36 103.219 35.7767 102.185 35.3302C101.151 34.8837 100.251 34.2782 99.4863 33.5137C98.7213 32.7487 98.1155 31.8492 97.669 30.815C97.2224 29.7808 96.9994 28.6758 97 27.5Z" fill="#97CDF4"/>
<rect x="9" y="285" width="10" height="10" rx="5" fill="#CCE4F5"/>
<path d="M23.74 286.752H24.664V292.8C24.664 293.556 24.928 293.736 26.248 293.736C26.884 293.736 30.016 293.736 30.82 293.736C32.14 293.736 32.344 293.328 32.5 291.384C32.752 291.552 33.148 291.708 33.424 291.756C33.184 293.976 32.8 294.624 30.82 294.624C30.328 294.624 26.752 294.624 26.308 294.624C24.352 294.624 23.74 294.276 23.74 292.776V286.752ZM24.244 288.72H31.324V289.62H24.244V288.72ZM23.116 284.676H31.888V290.208H30.964V285.564H23.116V284.676ZM37.768 287.268H42.22V288.048H37.768V287.268ZM34.78 293.928H45.232V294.684H34.78V293.928ZM35.5 284.388H39.052V285.144H35.5V284.388ZM38.764 284.388H38.92L39.088 284.34L39.664 284.64C38.764 286.944 36.76 288.66 34.852 289.548C34.732 289.356 34.492 289.044 34.312 288.888C36.076 288.144 38.02 286.464 38.764 284.556V284.388ZM40.792 283.956C41.716 285.996 43.552 287.856 45.628 288.66C45.412 288.84 45.16 289.164 45.016 289.404C42.892 288.444 41.056 286.488 40.036 284.208L40.792 283.956ZM35.176 286.08L35.656 285.588C36.292 285.948 37.036 286.5 37.384 286.932L36.88 287.484C36.52 287.064 35.8 286.464 35.176 286.08ZM43.204 284.028L43.888 284.508C43.264 285.096 42.436 285.744 41.812 286.164L41.26 285.732C41.872 285.288 42.724 284.556 43.204 284.028ZM44.548 285.444L45.22 285.924C44.584 286.524 43.72 287.172 43.06 287.58L42.508 287.148C43.156 286.716 44.044 285.984 44.548 285.444ZM37.552 289.776V291.36H42.412V289.776H37.552ZM36.664 289.032H43.336V292.104H36.664V289.032ZM37.36 292.296L38.188 292.068C38.524 292.584 38.836 293.292 38.956 293.76L38.104 294.024C37.984 293.556 37.684 292.824 37.36 292.296ZM41.824 292.032L42.7 292.272C42.376 292.908 42.016 293.568 41.716 294.036L40.948 293.808C41.248 293.34 41.632 292.56 41.824 292.032ZM52.312 288.516H56.452V289.368H52.312V288.516ZM51.916 288.516H52.816V293.412C52.816 293.88 52.948 293.976 53.608 293.976C53.92 293.976 55.48 293.976 55.888 293.976C56.536 293.976 56.632 293.664 56.704 291.996C56.92 292.152 57.304 292.308 57.556 292.368C57.424 294.3 57.148 294.84 55.948 294.84C55.648 294.84 53.812 294.84 53.536 294.84C52.288 294.84 51.916 294.552 51.916 293.4V288.516ZM51.784 284.604H56.92V290.04H56.008V285.456H51.784V284.604ZM47.02 287.556H50.764V288.276H47.02V287.556ZM47.092 284.352H50.812V285.072H47.092V284.352ZM47.02 289.164H50.764V289.884H47.02V289.164ZM46.456 285.924H51.232V286.668H46.456V285.924ZM47.44 290.784H50.728V294.288H47.44V293.532H49.924V291.528H47.44V290.784ZM47.008 290.784H47.812V294.84H47.008V290.784Z" fill="#706C65"/>
<rect x="67" y="285" width="10" height="10" rx="5" fill="#79BDEE"/>
<path d="M80.336 290.1C81.188 289.848 82.448 289.428 83.684 289.02L83.816 289.848C82.688 290.244 81.5 290.652 80.576 290.964L80.336 290.1ZM80.492 286.344H83.624V287.184H80.492V286.344ZM81.86 283.932H82.652V293.964C82.652 294.432 82.544 294.672 82.28 294.804C82.004 294.936 81.572 294.972 80.864 294.96C80.828 294.756 80.72 294.396 80.612 294.168C81.092 294.18 81.524 294.18 81.668 294.168C81.812 294.168 81.86 294.12 81.86 293.964V283.932ZM83.888 287.436H87.284V288.288H83.888V287.436ZM85.316 284.82H86.108V294.948H85.316V284.82ZM86.84 284.088L87.464 284.748C86.528 285.108 85.196 285.384 84.08 285.54C84.032 285.36 83.924 285.06 83.816 284.868C84.896 284.688 86.132 284.388 86.84 284.088ZM85.184 287.844L85.772 288.024C85.388 289.824 84.62 292.068 83.768 293.232C83.66 292.98 83.444 292.644 83.3 292.44C84.08 291.408 84.86 289.452 85.184 287.844ZM86.06 288.6C86.288 288.888 87.176 290.184 87.356 290.484L86.912 291.264C86.672 290.7 85.964 289.464 85.7 289.032L86.06 288.6ZM87.728 286.524L88.364 286.596C88.364 287.736 88.232 289.068 87.86 289.908L87.272 289.5C87.608 288.792 87.728 287.556 87.728 286.524ZM90.716 286.464L91.472 286.62C91.244 287.688 90.968 289.02 90.716 289.86L90.08 289.704C90.32 288.852 90.596 287.436 90.716 286.464ZM88.904 284.016H89.684V286.956C89.684 289.524 89.492 292.572 87.524 295.008C87.404 294.816 87.14 294.516 86.96 294.396C88.736 292.128 88.904 289.284 88.904 286.956V284.016ZM89.624 287.892C89.852 290.604 90.344 293.16 91.604 294.216C91.424 294.36 91.148 294.684 91.016 294.912C89.684 293.64 89.204 290.964 88.976 287.964L89.624 287.892ZM94.532 285.936H101.42V286.512H94.532V285.936ZM94.388 291.072H101.6V291.636H94.388V291.072ZM95.672 291.996L96.248 291.696C96.656 291.996 97.124 292.464 97.328 292.788L96.716 293.136C96.512 292.812 96.068 292.332 95.672 291.996ZM95.72 288.432V288.96H100.256V288.432H95.72ZM95.72 287.472V287.976H100.256V287.472H95.72ZM95 287.004H101V289.44H95V287.004ZM99.104 290.628H99.872V292.752C99.872 293.112 99.8 293.232 99.512 293.316C99.248 293.412 98.792 293.412 98.072 293.412C98.036 293.232 97.94 293.04 97.856 292.884C98.348 292.896 98.804 292.896 98.936 292.884C99.068 292.884 99.104 292.848 99.104 292.728V290.628ZM94.556 290.052C96.044 290.052 98.324 290.028 100.556 289.98L100.532 290.46C98.372 290.532 96.152 290.604 94.604 290.628L94.556 290.052ZM99.524 289.752L100.016 289.416C100.508 289.764 101.072 290.268 101.348 290.604L100.832 291C100.556 290.64 99.98 290.1 99.524 289.752ZM97.556 285.384H98.324V290.232L97.556 290.28V285.384ZM93.152 284.472H102.86V294.912H101.996V285.192H93.98V294.972H93.152V284.472ZM93.56 293.616H102.368V294.336H93.56V293.616ZM104.828 291.768H110.3V292.452H104.828V291.768ZM104.504 285.984H110.492V286.68H104.504V285.984ZM107.108 284.892H107.936V293.724H107.108V284.892ZM104.492 293.748C105.956 293.616 108.2 293.4 110.348 293.172L110.36 293.88C108.32 294.12 106.148 294.372 104.624 294.528L104.492 293.748ZM105.608 289.524V290.412H109.496V289.524H105.608ZM105.608 288.06V288.924H109.496V288.06H105.608ZM104.852 287.436H110.264V291.036H104.852V287.436ZM109.832 284.04L110.288 284.736C108.872 285.048 106.64 285.252 104.84 285.312C104.804 285.12 104.72 284.82 104.624 284.64C106.412 284.544 108.596 284.328 109.832 284.04ZM110.408 286.728H114.74V287.568H110.408V286.728ZM114.392 286.728H115.256C115.256 286.728 115.244 287.064 115.244 287.184C115.112 292.248 114.992 293.928 114.596 294.444C114.38 294.756 114.14 294.864 113.78 294.9C113.444 294.936 112.868 294.936 112.316 294.9C112.292 294.648 112.196 294.276 112.052 294.036C112.64 294.084 113.168 294.096 113.408 294.096C113.6 294.096 113.72 294.06 113.828 293.904C114.128 293.532 114.26 291.804 114.392 286.944V286.728ZM111.86 284.076H112.724C112.712 288.852 112.7 292.884 109.832 295.032C109.688 294.816 109.376 294.528 109.16 294.384C111.908 292.416 111.848 288.612 111.86 284.076ZM116.828 291.768H122.3V292.452H116.828V291.768ZM116.504 285.984H122.492V286.68H116.504V285.984ZM119.108 284.892H119.936V293.724H119.108V284.892ZM116.492 293.748C117.956 293.616 120.2 293.4 122.348 293.172L122.36 293.88C120.32 294.12 118.148 294.372 116.624 294.528L116.492 293.748ZM117.608 289.524V290.412H121.496V289.524H117.608ZM117.608 288.06V288.924H121.496V288.06H117.608ZM116.852 287.436H122.264V291.036H116.852V287.436ZM121.832 284.04L122.288 284.736C120.872 285.048 118.64 285.252 116.84 285.312C116.804 285.12 116.72 284.82 116.624 284.64C118.412 284.544 120.596 284.328 121.832 284.04ZM122.408 286.728H126.74V287.568H122.408V286.728ZM126.392 286.728H127.256C127.256 286.728 127.244 287.064 127.244 287.184C127.112 292.248 126.992 293.928 126.596 294.444C126.38 294.756 126.14 294.864 125.78 294.9C125.444 294.936 124.868 294.936 124.316 294.9C124.292 294.648 124.196 294.276 124.052 294.036C124.64 294.084 125.168 294.096 125.408 294.096C125.6 294.096 125.72 294.06 125.828 293.904C126.128 293.532 126.26 291.804 126.392 286.944V286.728ZM123.86 284.076H124.724C124.712 288.852 124.7 292.884 121.832 295.032C121.688 294.816 121.376 294.528 121.16 294.384C123.908 292.416 123.848 288.612 123.86 284.076Z" fill="#706C65"/>
</svg>
