<svg width="1280" height="906" viewBox="0 0 1280 906" fill="none" xmlns="http://www.w3.org/2000/svg">
<mask id="mask0_335_496" style="mask-type:alpha" maskUnits="userSpaceOnUse" x="0" y="0" width="1280" height="906">
<rect width="1280" height="906" fill="#D9D9D9"/>
</mask>
<g mask="url(#mask0_335_496)">
<rect x="-412" y="-78" width="2145" height="1039" fill="#EFF3F6"/>
<path d="M262.884 82.408C218.707 89.4821 109.13 125.014 59.8644 141.895C-34.9862 172.272 -233.566 279.422 -321 329.2V-2H1602V141.895C1415.49 239.969 1035.01 440.779 1005.12 459.429C967.767 482.742 904.425 497.212 854.076 504.447C803.728 511.682 746.07 502.839 687.601 486.761C629.131 470.684 590.151 426.47 571.473 397.53C552.796 368.59 543.051 321.161 541.427 299.456C539.802 277.752 547.639 250.962 557.5 235C563.392 225.462 582 198.5 579 175C577.017 159.468 565.789 135.5 553.608 122.5C541.427 109.5 512.5 96 496.762 91.2505C472.473 83.9204 430.984 71.9575 389.568 70.3497C348.211 68.7442 318.191 73.5515 263.12 82.3701L262.884 82.408Z" fill="url(#paint0_linear_335_496)"/>
<path d="M446.117 587.1C79.3511 468.015 -247.447 553.025 -365 610.415V1440.78C-79.3457 1315.24 33.5053 1309.86 225.705 1304.48C417.904 1299.1 601.287 1309.86 752.931 1356.49C904.574 1403.12 1065.03 1444.37 1257.23 1440.78C1410.99 1437.91 1565.81 1383.39 1624 1356.49V703.674C1581.68 724.28 1558.76 733.247 1505.86 750.304C1158.49 839.976 904.574 735.956 446.117 587.1Z" fill="url(#paint1_radial_335_496)"/>
</g>
<defs>
<linearGradient id="paint0_linear_335_496" x1="640.5" y1="-2" x2="606.5" y2="437.5" gradientUnits="userSpaceOnUse">
<stop stop-color="#B7DBDB"/>
<stop offset="1" stop-color="#B7DBDB" stop-opacity="0"/>
</linearGradient>
<radialGradient id="paint1_radial_335_496" cx="0" cy="0" r="1" gradientUnits="userSpaceOnUse" gradientTransform="translate(707 805.5) rotate(162.94) scale(1218.62 364.18)">
<stop stop-color="#97CDCD"/>
<stop offset="0.594639" stop-color="#D2E4E4"/>
<stop offset="1" stop-color="#D2E4E4" stop-opacity="0"/>
</radialGradient>
</defs>
</svg>
