<svg width="1920" height="906" viewBox="0 0 1920 906" fill="none" xmlns="http://www.w3.org/2000/svg">
<rect x="-92" y="-78" width="2145" height="1527" fill="#EFF3F6"/>
<path d="M582.884 82.408C538.707 89.4821 429.13 125.014 379.864 141.895C285.014 172.272 86.4337 279.422 -1 329.2V-2H1922V141.895C1735.49 239.969 1355.01 440.779 1325.12 459.429C1287.77 482.742 1224.43 497.212 1174.08 504.447C1123.73 511.682 1066.07 502.839 1007.6 486.761C949.131 470.684 910.151 426.47 891.473 397.53C872.796 368.59 863.051 321.161 861.427 299.456C859.802 277.752 867.639 250.962 877.5 235C883.392 225.462 902 198.5 899 175C897.017 159.468 885.789 135.5 873.608 122.5C861.427 109.5 832.5 96 816.762 91.2505C792.473 83.9204 750.984 71.9575 709.568 70.3497C668.211 68.7442 638.191 73.5515 583.12 82.3701L582.884 82.408Z" fill="url(#paint0_linear_385_2153)"/>
<path d="M766.117 552.1C399.351 433.015 72.5532 518.025 -45 575.415V1405.78C240.654 1280.24 353.505 1274.86 545.705 1269.48C737.904 1264.1 921.287 1274.86 1072.93 1321.49C1224.57 1368.12 1385.03 1409.37 1577.23 1405.78C1730.99 1402.91 1885.81 1348.39 1944 1321.49V668.674C1901.68 689.28 1878.76 698.247 1825.86 715.304C1478.49 804.976 1224.57 700.956 766.117 552.1Z" fill="url(#paint1_radial_385_2153)"/>
<defs>
<linearGradient id="paint0_linear_385_2153" x1="960.5" y1="-2" x2="926.5" y2="437.5" gradientUnits="userSpaceOnUse">
<stop stop-color="#B7DBDB"/>
<stop offset="1" stop-color="#B7DBDB" stop-opacity="0"/>
</linearGradient>
<radialGradient id="paint1_radial_385_2153" cx="0" cy="0" r="1" gradientUnits="userSpaceOnUse" gradientTransform="translate(1027 770.5) rotate(162.94) scale(1218.62 364.18)">
<stop stop-color="#97CDCD"/>
<stop offset="0.594639" stop-color="#D2E4E4"/>
<stop offset="1" stop-color="#D2E4E4" stop-opacity="0"/>
</radialGradient>
</defs>
</svg>
