<svg width="923" height="297" viewBox="0 0 923 297" fill="none" xmlns="http://www.w3.org/2000/svg">
<g filter="url(#filter0_d_381_2152)">
<path d="M655.15 145.866C655.15 145.866 651.444 176.976 647.825 183.231C636.706 195.924 621.133 211.52 620.249 212.491C619.369 213.459 619.059 215.796 619.059 215.796L617.295 211.83C617.295 211.83 618.883 210.242 619.5 209.274C620.118 208.303 634.943 172.73 642.001 173.664C640.679 165.43 638.207 145.427 638.207 143.751C638.207 142.079 655.15 145.866 655.15 145.866Z" fill="#F9AA80"/>
<path d="M638.846 145.267C638.846 145.267 640.744 149.922 645.962 151.507C651.18 153.092 654.313 152.3 654.313 152.3L655.46 144.237L638.846 145.267Z" fill="#D27771"/>
<path d="M646.503 147.571C646.503 147.571 645.386 148.812 656.209 147.019C667.032 145.219 687.798 140.169 687.798 140.169C687.798 140.169 682.211 143.142 678.213 148.44C674.211 153.738 668.825 169.016 667.134 170.188C666.211 170.305 667.682 173.832 667.682 173.657C667.682 173.478 669.033 171.013 669.033 171.013C669.033 171.013 694.623 145.34 697.329 141.462C700.038 137.584 701.331 133.637 700.506 132.494C699.684 131.354 673.203 126.626 661.413 127.404C649.622 128.185 646.503 147.571 646.503 147.571Z" fill="#F9AA80"/>
<mask id="mask0_381_2152" style="mask-type:luminance" maskUnits="userSpaceOnUse" x="680" y="92" width="41" height="36">
<path d="M680.904 92.3455H720.669V127.867H680.904V92.3455Z" fill="white"/>
</mask>
<g mask="url(#mask0_381_2152)">
<path d="M685.03 92.4368C685.03 92.4368 685.33 92.5061 687.181 96.1211C689.036 99.7325 697.42 116.036 697.814 116.168C698.212 116.299 711.978 103.435 712.154 102.862C712.329 102.289 712.329 94.4013 713.391 93.7842C714.45 93.1671 720.669 98.0163 720.494 100.704C720.318 103.391 714.845 105.505 714.845 105.505C714.845 105.505 701.17 127.36 698.873 127.404C696.58 127.447 681.886 112.071 681.799 111.808C681.711 111.541 685.03 92.4368 685.03 92.4368Z" fill="#F9AA80"/>
</g>
<path d="M684.668 91.4072C684.668 91.4072 685.946 92.1083 685.592 95.5918C685.242 99.0717 685.161 106.167 685.161 106.167C685.161 106.167 681.886 102.555 684.668 91.4072Z" fill="#82AD4F"/>
<path d="M664.283 98.1479L664.637 97.0889C664.637 97.0889 648.384 92.1704 647.562 92.4041C646.737 92.6414 637.324 110.851 636.915 111.677C636.502 112.498 638.426 116.785 638.474 117.578C638.518 118.374 636.312 121.28 635.604 121.061C634.899 120.838 630.397 119.21 630.09 118.374C629.78 117.534 633.442 110.837 633.442 110.837C633.442 110.837 640.544 84.6556 641.384 83.8011C642.224 82.9467 674.828 84.3561 676.946 85.678C679.064 86.9998 682.42 89.8188 682.219 98.0602C682.018 106.302 675.091 109.121 669.665 107.401C664.239 105.685 664.283 98.1479 664.283 98.1479Z" fill="#F9AA80"/>
<path d="M640.325 132.768C640.325 132.768 653.781 120.225 654.047 120.225C654.314 120.225 655.369 117.975 655.369 117.975C655.369 117.975 664.651 123.836 664.37 124.541C664.092 125.245 662.73 126.082 662.73 126.082L662.475 126.746C662.475 126.746 647.142 135.645 645.963 146.968C643.545 147.322 641.552 145.646 641.552 145.646C641.552 145.646 637.677 136.675 640.325 132.768Z" fill="#5A7A8B"/>
<path d="M662.73 126.082C662.73 126.082 655.884 120.959 654.047 120.225C654.175 120.133 655.445 118.136 655.369 117.975C655.296 117.815 664.384 124.132 664.151 125.012C664.092 125.246 662.73 126.082 662.73 126.082Z" fill="#4C6777"/>
<path d="M637.385 142.137C637.385 142.137 637.323 135.703 640.324 132.768C639.324 141.403 645.09 147.571 645.09 147.571C645.09 147.571 637.56 144.456 637.385 142.137Z" fill="#4C6777"/>
<path d="M678.446 85.6777H676.946C676.946 85.6777 682.814 89.2453 681.181 98.94C679.549 108.635 672.557 107.003 668.595 104.625C664.636 102.245 664.282 98.1476 664.282 98.1476C664.282 98.1476 655.975 115.846 655.15 116.376C654.325 116.902 654.562 118.315 654.562 118.315C654.562 118.315 663.15 123.365 664.092 125.245C666.623 126.067 668.62 123.248 668.62 123.248C668.62 123.248 678.622 115.846 681.74 114.671C684.858 113.495 685.373 105.505 685.373 105.505C685.373 105.505 683.15 92.8164 683.15 90.4064C683.15 88.0001 678.446 85.6777 678.446 85.6777Z" fill="#82AD4F"/>
<path d="M681.623 82.0409C681.623 82.0409 679.571 85.5464 678.446 85.6778C681.116 88.6501 683.387 92.1994 683.077 96.6469C682.77 101.098 682.262 104.162 684.866 105.352C684.468 101.08 684.358 94.226 685.373 90.7023C686.388 87.1749 688.948 85.5025 688.948 85.5025C688.948 85.5025 694.287 86.4702 695.652 85.3711C697.022 84.2683 697.902 76.9982 697.902 76.9982C697.902 76.9982 699.625 75.764 699.625 75.4098C699.625 75.0592 696.09 72.0175 696.069 71.0061C696.05 69.991 694.374 66.1131 692.852 65.0359C691.329 63.955 683.164 62.9837 679.151 65.5398C675.138 68.0958 681.623 82.0409 681.623 82.0409Z" fill="#F9AA80"/>
<mask id="mask1_381_2152" style="mask-type:luminance" maskUnits="userSpaceOnUse" x="643" y="59" width="51" height="25">
<path d="M643.513 59H693.056V83.9325H643.513V59Z" fill="white"/>
</mask>
<g mask="url(#mask1_381_2152)">
<path d="M692.852 65.0358C692.852 65.0358 688.813 64.8131 688.131 64.6816C687.448 64.5502 690.314 66.511 689.609 67.0587C688.905 67.6101 687.05 67.5663 686.809 68.03C686.564 68.4938 688.153 70.1004 687.535 70.5423C686.918 70.9805 685.728 70.4327 685.571 71.0717C685.418 71.7108 686.166 72.1489 686.013 72.7441C685.859 73.3393 685.155 74.1317 685.155 74.1317C685.155 74.1317 684.578 70.0785 682.153 71.5099C679.725 72.945 680.806 76.5782 684.315 77.5459C683.983 79.7075 682.285 79.5323 681.952 79.9485C681.624 80.3685 682.065 81.2923 681.624 82.0409C680.298 81.3799 678.049 81.6246 674.609 82.7712C671.166 83.9141 669.975 84.5312 667.284 82.2855C664.593 80.0398 660.401 78.9371 656.428 78.6267C652.459 78.32 647.96 76.1619 647.121 75.1906C648.004 74.223 656.384 74.6173 655.767 73.9564C655.15 73.2955 646.018 70.6518 646.062 70.2976C646.105 69.9471 647.869 69.2423 647.869 69.0671C647.869 68.8881 644.342 67.6576 644.342 67.6576C644.342 67.6576 650.21 63.0713 657.885 63.0275C665.564 62.9873 671.739 63.3817 673.638 61.3113C675.533 59.2409 677.695 59.0181 681.226 60.2523C684.757 61.4865 684.092 59.3723 687.977 60.3838C691.859 61.3989 692.852 65.0358 692.852 65.0358Z" fill="#353638"/>
</g>
<path d="M691.566 80.0983C691.566 80.0983 695.565 79.5542 695.992 79.9778C696.416 80.4342 695.065 82.3732 693.418 82.2125C691.771 82.0519 691.566 80.0983 691.566 80.0983Z" fill="white"/>
<path d="M695.188 70.5935C693.958 69.8632 692.084 71.2581 691.234 72.0724C691.007 72.2915 691.164 72.81 691.518 72.6128C692.103 72.2842 692.691 71.9227 693.315 71.6707C693.899 71.437 694.56 71.448 695.115 71.1741C695.298 71.0828 695.396 70.7177 695.188 70.5935Z" fill="#353638"/>
<path d="M693.94 75.0776C693.9 74.7781 693.911 74.4751 693.838 74.1793C693.728 73.7521 693.177 73.9456 693.067 74.2596C692.896 74.7453 692.939 75.545 693.308 75.9247C693.425 76.0489 693.556 76.0343 693.67 75.9612C693.677 75.9649 693.703 75.9503 693.75 75.9138C693.783 75.8919 693.812 75.8663 693.83 75.8334C693.903 75.7531 693.933 75.6618 693.955 75.5596C693.984 75.3953 693.962 75.2419 693.94 75.0776Z" fill="#353638"/>
<path d="M684.72 75.7421C684.588 75.1798 684.143 74.727 683.778 74.2925C683.431 73.8799 683.073 73.3285 682.565 73.1058C682.332 72.9999 682.175 73.3285 682.233 73.5111C682.386 74.0113 682.795 74.4276 683.128 74.8366C682.952 74.895 682.77 74.9388 682.62 75.0484C682.43 75.1835 682.332 75.5559 682.613 75.6618C682.803 75.7312 683 75.6983 683.197 75.6728C683.358 75.6509 683.515 75.6107 683.664 75.5486C683.854 75.786 684.066 76.0014 684.325 76.1219C684.533 76.2205 684.763 75.9357 684.72 75.7421Z" fill="#D27771"/>
<path d="M662.679 127.184C662.504 127.243 648.738 135.937 647.325 148.688C645.915 148.98 644.502 147.279 644.385 146.983C644.268 146.691 648.384 128.01 662.679 126.304C662.796 126.48 662.679 127.184 662.679 127.184Z" fill="#ABC9D5"/>
<path d="M644.857 147.041C644.857 147.041 637.678 142.488 637.386 142.137C637.09 141.783 637.148 143.868 637.148 143.868C637.148 143.868 641.541 148.046 645.963 148.44C645.766 147.925 644.857 147.041 644.857 147.041Z" fill="#ABC9D5"/>
<path d="M664.636 97.0887C664.56 96.8769 674.094 99.9844 674.094 99.9844C674.094 99.9844 667.503 105.301 664.636 97.0887Z" fill="#D27771"/>
<mask id="mask2_381_2152" style="mask-type:luminance" maskUnits="userSpaceOnUse" x="711" y="94" width="10" height="10">
<path d="M711.752 94.2151H720.669V103.563H711.752V94.2151Z" fill="white"/>
</mask>
<g mask="url(#mask2_381_2152)">
<path d="M720.201 101.693C719.96 101.821 719.716 101.931 719.468 101.993C718.62 102.205 718.106 101.847 717.645 101.248C718.595 100.759 719.413 100.068 720.143 99.2943C720.052 99.1081 719.946 98.9182 719.825 98.7283C719.11 99.5097 718.325 100.185 717.437 100.769C717.346 100.13 717.098 99.4805 716.744 98.8634C717.273 98.3303 717.799 97.8045 718.303 97.2494C718.365 97.1837 718.427 97.118 718.493 97.0523C718.365 96.9172 718.233 96.7821 718.102 96.6542C718.007 96.7711 717.919 96.8843 717.828 96.9865C717.39 97.5014 716.977 98.0345 716.557 98.564C716.203 98.0126 715.765 97.4904 715.265 97.0377C715.604 96.5739 715.947 96.1175 716.272 95.6428C716.353 95.5223 716.44 95.4018 716.528 95.2813C716.382 95.1681 716.24 95.0622 716.097 94.9563C716.039 95.0476 715.98 95.1389 715.922 95.2265C715.586 95.7304 715.265 96.2489 714.947 96.7674C714.275 96.2197 713.519 95.7998 712.749 95.5661C712.716 95.756 712.687 95.9568 712.661 96.1686C713.37 96.4534 714.019 96.8587 714.604 97.4028C715.52 98.25 716.546 99.5024 716.82 100.773C715.75 100.536 714.465 99.214 713.676 98.6881C713.424 98.5202 713.209 98.9218 713.402 99.1081C714.034 99.7252 714.768 100.244 715.502 100.737C716.021 101.084 716.499 101.507 717.138 101.474C717.171 101.471 717.2 101.467 717.226 101.456C717.594 102.139 718.062 102.767 718.923 102.76C719.102 102.76 719.274 102.73 719.446 102.69C719.752 102.373 720.015 102.04 720.201 101.693Z" fill="#D27771"/>
</g>
<path d="M697.813 116.168C697.813 116.168 700.008 120.692 700.213 120.692C700.417 120.692 703.181 118.107 697.813 116.168Z" fill="#D27771"/>
<path d="M667.737 173.497C667.737 173.497 667.24 186.054 666.944 185.788C666.652 185.525 662.592 172.098 662.563 171.777C662.533 171.452 666.999 170.13 667.134 170.188C667.269 170.247 667.737 173.497 667.737 173.497Z" fill="#4989A6"/>
<mask id="mask3_381_2152" style="mask-type:luminance" maskUnits="userSpaceOnUse" x="612" y="211" width="9" height="22">
<path d="M612 211.063H620.143V232.169H612V211.063Z" fill="white"/>
</mask>
<g mask="url(#mask3_381_2152)">
<path d="M619.281 214.671C619.281 214.671 619.413 232.143 619.015 232.056C618.617 231.964 612 213.108 612.219 212.666C612.442 212.224 617.682 211.428 617.682 211.428L619.281 214.671Z" fill="#4989A6"/>
</g>
</g>
<g filter="url(#filter1_d_381_2152)">
<path d="M167.646 166.952C167.646 167.095 175.716 173.978 175.716 173.839C175.716 173.697 178.104 166.952 178.104 166.952L173.321 164.331L167.646 166.952Z" fill="#F9AA80"/>
<path d="M32.6026 146.687L42.6698 147.216L41.2019 155.742L31.9453 153.493L32.6026 146.687Z" fill="#F9AA80"/>
<path d="M105.176 133.789C105.176 133.789 80.0356 165.923 78.3486 167.234C76.6579 168.544 69.3403 166.861 67.9345 166.204C66.5287 165.547 41.1069 163.673 39.7011 163.111C38.2952 162.549 36.1372 146.906 35.9473 146.248C35.7611 145.595 60.7118 147.749 64.5569 150.09C64.2757 149.246 64.4656 148.498 64.838 148.403C65.2141 148.311 68.4055 148.593 68.4055 148.593C68.4055 148.593 78.9 116.836 88.6604 108.123C96.8252 106.903 105.176 133.789 105.176 133.789Z" fill="#DF6CBD"/>
<path d="M105.18 133.804C105.18 133.804 96.8293 106.918 88.6646 108.134C87.1127 109.522 85.5425 111.49 83.9979 113.823C83.8008 121.177 83.2384 133.614 81.6354 138.861C79.2875 146.544 92.6082 144.485 92.1408 145.42C91.6734 146.354 79.5723 152.821 77.7904 154.508C76.8666 155.381 83.7789 153.84 90.7204 152.149C97.7641 143.28 105.18 133.804 105.18 133.804Z" fill="#BC61A5"/>
<path d="M105.644 133.384C105.52 133.57 101.682 138.263 101.682 138.263C101.682 138.263 90.3224 127.388 87.6349 125.515C84.9438 123.642 105.644 133.384 105.644 133.384Z" fill="#A15790"/>
<path d="M104.377 48.0447C104.377 48.0447 109.679 46.3869 114.649 46.5257C119.622 46.6681 125.107 45.5909 125.201 44.3238C125.296 43.0604 121.309 22.4988 121.123 21.8196C120.933 21.1404 115.587 19.9683 115.116 19.1723C114.649 18.3763 114.649 13.0816 115.116 12.5192C115.587 11.9606 115.211 10.6935 116.62 10.741C118.026 10.7884 125.764 9.05031 127.031 10.741C128.298 12.428 127.265 20.2969 127.265 20.2969C127.265 20.2969 139.599 46.2628 136.722 52.6931C134.473 54.8803 116.087 65.3711 112.586 64.8088C109.084 64.2464 104.377 48.0447 104.377 48.0447Z" fill="#F9AA80"/>
<path d="M68.8113 68.6831C66.6861 68.8693 53.1792 71.9913 50.6122 71.2428C52.2408 78.9876 53.4896 93.4147 54.68 94.8497C56.115 94.5394 61.1176 93.2248 61.7457 94.4115C62.3701 95.5983 64.1228 102.719 63.4326 103.968C62.7462 105.216 52.3029 108.901 50.6122 107.466C48.9252 106.031 47.8626 97.037 47.8626 97.037C47.8626 97.037 33.7277 69.4316 37.1674 63.7499C40.797 59.9998 57.7436 53.6936 61.1833 53.9419C64.623 54.1939 68.8113 68.6831 68.8113 68.6831Z" fill="#F9AA80"/>
<path d="M88.6641 103.109C88.6641 103.109 83.6324 120.954 84.1326 123.452C84.6329 125.953 97.2014 130.2 102.142 134.009C107.082 137.817 122.342 139.628 124.467 141.877C126.592 144.127 126.406 151.806 137.225 155.118C148.041 158.426 164.115 171.794 164.864 172.419C165.616 173.043 174.369 165.112 174.621 164.86C174.869 164.612 173.744 162.739 173.12 162.801C172.495 162.863 151.295 143.564 150.919 140.567C150.543 137.569 115.149 109.653 114.648 108.404C114.148 107.152 110.989 103.858 110.989 103.858C110.989 103.858 104.829 102.065 88.6641 103.109Z" fill="#DF6CBD"/>
<path d="M89.7922 100.112C89.7922 100.112 89.0399 102.69 88.6638 103.109C88.2914 103.533 110.379 103.157 110.989 103.858C111.179 104.048 110.569 101.331 110.569 101.331L89.7922 100.112Z" fill="#353638"/>
<path d="M79.3567 47.9791C79.3567 47.9791 78.5351 48.0192 78.316 48.0448C78.0969 48.074 78.0677 48.7605 77.9399 48.9175C77.8158 49.0709 70.5931 45.8941 68.1868 48.0448C65.7768 50.1955 66.529 52.1929 66.1529 52.3207C65.7768 52.4449 60.0256 53.5074 59.2734 53.2884C62.3078 58.3165 66.6239 72.0863 67.0913 74.0216C68.53 71.6189 76.6582 71.3049 77.0015 71.4619C77.3484 71.6189 81.8178 91.5415 80.412 93.6959C79.0025 95.8503 89.5115 98.096 88.197 100.908C88.4782 101.47 110.332 102.219 110.617 102.219C110.898 102.219 112.68 99.783 112.68 98.9431C112.68 98.096 112.867 72.7107 108.178 67.7447C110.241 67.1823 115.116 67.4635 115.116 66.7149C115.116 65.9664 105.458 48.8591 104.987 47.2962C104.519 46.9493 100.389 49.5857 97.7639 48.0448C95.1385 46.5075 87.1965 48.0448 87.1965 48.0448L79.3567 47.9791Z" fill="#56A4C1"/>
<path d="M80.4745 43.8273L79.3571 47.979C79.3571 47.979 92.3236 51.4443 92.5354 51.28C92.7472 51.1157 92.5354 46.3395 92.5354 46.3395C92.5354 46.3395 97.6 47.4386 98.4691 44.3494C99.3381 41.2566 97.8118 33.1539 97.8118 33.1539C97.8118 33.1539 99.1482 32.3579 99.5463 31.4194C99.9443 30.4847 95.8181 26.9938 95.8181 26.9938C95.8181 26.9938 94.8577 19.5703 91.575 19.5703C88.2923 19.5703 76.0488 25.6829 76.0488 29.5243C76.0488 33.3657 80.4745 43.8273 80.4745 43.8273Z" fill="#F9AA80"/>
<path d="M80.4738 43.8237C80.4738 43.8237 83.9428 38.1127 84.0998 36.2359C82.8181 36.4549 80.8499 33.709 80.6309 31.4889C80.4118 29.2724 81.6314 27.6183 82.694 28.1186C83.7565 28.6188 84.5708 30.7732 84.6 31.4305C84.6329 32.0841 86.6631 33.238 86.6631 32.8034C86.6631 32.3653 85.1003 26.2453 85.1003 26.2453C85.1003 26.2453 86.3199 27.37 86.4148 26.9318C86.5098 26.4936 85.6626 22.5902 85.6626 22.5902C85.6626 22.5902 93.2614 19.3769 93.2322 18.9387C93.1993 18.5005 90.5118 19.2198 90.7601 19.1578C91.0121 19.092 91.7606 17.2188 91.7606 16.8756C91.7606 16.5323 84.7242 19.4682 84.7571 19.3769C84.7899 19.2819 85.4764 18.1573 85.4435 18.0623C85.4143 17.971 75.0952 19.4061 72.5939 28.1514C69.8115 30.7732 75.0002 39.2045 80.4738 43.8237Z" fill="#914839"/>
<path d="M93.0867 22.0499C92.4842 21.4693 91.5166 22.1119 90.9908 22.5136C90.2605 23.0686 89.6105 23.7405 89.1066 24.5073C88.6282 25.2376 89.4936 25.9643 90.0742 25.2632C90.4869 24.7629 90.9177 24.2809 91.418 23.861C91.6407 23.6748 91.8781 23.4885 92.1483 23.3717C92.4295 23.2549 92.6924 23.2622 92.9516 23.0869C93.3058 22.8422 93.4081 22.3639 93.0867 22.0499Z" fill="#914839"/>
<path d="M94.0097 29.1264C93.9804 28.6627 94.006 28.1296 93.7723 27.7206C93.5897 27.4029 93.0968 27.5271 92.9471 27.8009C92.633 28.3742 92.6696 29.2871 92.9434 29.8677C93.0237 30.0393 93.1625 30.1927 93.367 30.1927C93.9038 30.1853 94.0352 29.5536 94.0097 29.1264Z" fill="#38393B"/>
<path d="M94.4814 37.2946C94.1893 38.4887 93.7474 39.9602 93.9227 41.1944C94.014 41.8481 94.8392 41.8262 95.0328 41.2383C95.4198 40.0771 95.4454 38.737 95.6937 37.5283C95.858 36.736 94.6713 36.5278 94.4814 37.2946Z" fill="#B02E3B"/>
<path d="M84.7605 33.4972C84.5816 32.8436 84.0083 32.2667 83.6103 31.7226C83.1611 31.1055 82.7083 30.492 82.2629 29.8749C82.0146 29.528 81.591 30.021 81.7845 30.3277C82.1935 30.9813 82.6134 31.624 83.0552 32.2521C83.0771 32.2849 83.0991 32.3214 83.1246 32.358C83.1064 32.358 83.0881 32.3616 83.0698 32.3616C82.7193 32.3689 82.3761 32.3726 82.0511 32.5077C81.8794 32.5807 81.8174 32.9057 81.9853 33.0116C82.2775 33.1942 82.6244 33.227 82.9603 33.2781C83.2488 33.3183 83.519 33.3877 83.7892 33.3402C83.9608 33.5557 84.147 33.7455 84.3625 33.877C84.6144 34.0303 84.8262 33.7346 84.7605 33.4972Z" fill="#D27771"/>
<path d="M92.5345 46.3395C92.5345 46.3395 86.2795 45.9671 85.3192 39.9238C83.5372 42.9801 86.3598 48.7276 92.593 47.979C92.5966 48.1032 92.5345 46.3395 92.5345 46.3395Z" fill="#D27771"/>
<path d="M88.1932 100.904C88.4743 101.466 110.329 102.215 110.61 102.215C110.895 102.215 112.677 99.7791 112.677 98.9356C112.677 98.8517 112.677 98.5157 112.677 97.979C105.545 99.7463 93.9151 101.462 93.9151 98.8444C93.9151 95.1892 85.0967 83.5738 84.2532 84.1361C83.4097 84.6984 86.3163 93.5972 83.5959 92.7537C83.5521 91.5121 81.7117 87.6963 79.7217 83.8403C80.5141 88.4303 81.0216 92.75 80.4082 93.6884C78.9987 95.8465 89.5077 98.0922 88.1932 100.904Z" fill="#4989A6"/>
<path d="M97.1357 54.8111C103.515 58.2471 108.174 67.741 108.174 67.741C109.708 67.3248 112.79 67.3722 114.276 67.1166C113.232 65.4187 111.891 63.7317 110.581 63.4943C107.831 62.9941 104.453 54.1246 97.1357 54.8111Z" fill="#4989A6"/>
<mask id="mask4_381_2152" style="mask-type:luminance" maskUnits="userSpaceOnUse" x="10" y="139" width="25" height="25">
<path d="M10 139.836H34.2131V163.206H10V139.836Z" fill="white"/>
</mask>
<g mask="url(#mask4_381_2152)">
<path d="M33.3217 146.5C33.3217 146.5 32.8215 152.868 32.8215 153.12C32.8215 153.369 32.8836 159.459 32.1642 158.864C31.4449 158.273 29.2576 153.588 29.2576 153.588C29.2576 153.588 9.99594 164.144 10.4341 162.457C10.8723 160.77 27.2566 140.128 28.8523 140.629C30.4444 141.129 33.3217 146.5 33.3217 146.5Z" fill="#353638"/>
</g>
<mask id="mask5_381_2152" style="mask-type:luminance" maskUnits="userSpaceOnUse" x="174" y="155" width="22" height="27">
<path d="M174.431 155.728H195.788V181.902H174.431V155.728Z" fill="white"/>
</mask>
<g mask="url(#mask5_381_2152)">
<path d="M174.916 173.744C174.683 173.558 177.447 165.922 177.447 165.922C177.447 165.922 176.932 162.362 177.447 162.267C177.965 162.176 179.605 165.502 179.747 165.36C179.89 165.218 195.412 155.103 195.598 156.228C195.788 157.349 181.343 182.175 180.496 181.565C179.652 180.959 174.916 173.744 174.916 173.744Z" fill="#353638"/>
</g>
<path d="M114.791 16.9413C116.609 16.2695 118.515 15.9043 120.469 15.9481C121.214 15.9627 122.897 15.9007 123.489 16.3388C124.296 16.9377 123.536 16.9267 122.901 17.0472C122.134 17.1969 121.371 17.2736 120.589 17.2846C120.001 17.2955 119.731 18.2157 120.308 18.464C121.111 18.6466 121.531 19.1687 121.572 20.0342C121.363 20.8083 122.389 21.1917 122.598 20.4066C122.831 19.5375 122.682 18.8584 122.258 18.3326C123.361 18.2084 124.551 17.9382 124.946 17.1787C124.96 17.1458 124.967 17.1166 124.982 17.0837C125.884 17.102 126.892 16.8939 127.611 16.4046C127.644 15.74 127.666 15.0462 127.662 14.378C127.659 14.378 127.659 14.3743 127.655 14.3707C127.52 14.1881 127.348 14.0274 127.158 13.9069C126.702 13.6148 126.238 14.3816 126.651 14.6774C126.921 14.8673 127.027 15.1448 127.235 15.3821C127.239 15.3858 127.242 15.3894 127.246 15.3931C127.22 15.4187 127.199 15.4479 127.169 15.4698C126.556 15.9773 125.734 16.0577 124.971 16.2585C124.825 15.9554 124.54 15.7071 124.212 15.5392C124.102 15.4807 123.985 15.4296 123.861 15.3821C124.003 14.1954 124.109 13.0269 124.456 11.8657C124.646 11.2377 124.935 10.6461 125.212 10.0509C124.843 10.0144 124.445 9.99982 124.022 10.0035C123.302 11.5955 123.029 13.6075 123.182 15.1886C122.473 15.0316 121.674 14.9951 120.903 15.0097C121.133 14.042 120.969 13.0196 121.119 12.0264C121.221 11.3728 121.447 10.763 121.659 10.1495C121.247 10.1897 120.838 10.2372 120.436 10.2883C119.888 11.873 119.739 13.8923 120.363 15.0316C119.87 15.0572 119.403 15.101 118.994 15.1411C118.555 15.1886 118.121 15.258 117.694 15.3456C117.361 13.7207 117.854 12.1396 118.303 10.5768C117.8 10.6425 117.372 10.6973 117.051 10.7228C116.606 12.3441 116.489 14.1954 116.982 15.5099C116.226 15.7035 115.492 15.9664 114.772 16.2804C114.776 16.5068 114.783 16.7259 114.791 16.9413Z" fill="#D27771"/>
</g>
<g filter="url(#filter2_d_381_2152)">
<path d="M261.2 143.424C261.2 143.424 263.665 139.981 266.254 140.094C271.07 133.364 282.876 119.85 282.876 119.85C282.876 119.85 281.262 117.349 282.876 110.842C284.489 104.338 290.894 91.3244 290.894 91.3244C290.894 91.3244 287.969 84.7481 288.513 84.7042C289.058 84.6641 290.978 87.001 291.062 86.8732C291.146 86.7491 295.904 80.034 296.156 81.1185C296.404 82.203 293.943 85.4163 294.067 85.3725C294.192 85.3323 299.413 82.0386 299.245 83.0392C299.077 84.0397 295.82 86.9572 295.82 86.9572C295.82 86.9572 300.29 85.7084 300.038 86.1247C299.789 86.541 297.076 88.5018 297.076 88.5018C297.076 88.5018 300.476 88.5018 300.049 89.17C299.621 89.8346 297.325 90.2947 297.325 90.2947L292.899 93.6322C292.899 93.6322 291.227 119.156 287.969 124.078C286.133 138.093 276.529 156.778 276.529 156.778L261.2 143.424Z" fill="#F9AA80"/>
<path d="M253.875 131.75C253.875 131.75 250.618 137.465 249.76 137.757C249.238 138.571 253.393 145.265 258.991 147.057C264.585 148.85 266.506 146.265 266.506 146.265C266.506 146.265 260.306 142.971 259.323 142.387C258.341 141.803 259.762 137.217 259.762 137.217C259.762 137.217 265.944 137.173 267.174 136.194C268.408 135.212 268.489 127.394 268.449 127.266C268.47 127.372 270.767 126.204 270.683 125.685C270.599 125.163 267.696 123.158 267.736 123.096C267.78 123.034 267.236 120.701 266.028 118.886C264.815 117.071 260.682 115.297 260.682 115.297C260.682 115.297 254.23 118.196 252.433 120.785C250.636 123.37 253.875 131.75 253.875 131.75Z" fill="#F9AA80"/>
<mask id="mask6_381_2152" style="mask-type:luminance" maskUnits="userSpaceOnUse" x="348" y="213" width="14" height="19">
<path d="M348.041 213.679H361.961V231.44H348.041V213.679Z" fill="white"/>
</mask>
<g mask="url(#mask6_381_2152)">
<path d="M349.294 223.651C349.294 223.651 361.943 212.97 361.943 213.723C361.943 214.471 353.592 230.793 352.953 230.709C352.31 230.629 348.469 224.845 348.469 224.845L349.294 223.651Z" fill="#56A4C1"/>
</g>
<path d="M203.142 231.794C203.142 231.794 199.483 227.347 198.983 227.347C198.479 227.347 194.305 244.615 194.013 246.283C193.721 247.952 198.508 253.207 198.577 252.706C198.647 252.206 198.062 248.16 198.062 248.032C198.062 247.908 203.423 233.894 203.81 233.518C204.201 233.145 203.142 231.794 203.142 231.794Z" fill="#56A4C1"/>
<path d="M264.498 221.676C264.498 221.676 255.037 233.131 242.509 238.469C241.954 238.579 240.895 240.079 240.004 240.247C239.113 240.415 215.952 232.853 203.81 233.518C203.201 233.076 202.978 231.849 203.142 231.794C203.31 231.739 216.339 225.455 224.693 225.733C233.044 226.01 241.063 230.293 241.063 230.293C241.063 230.293 250.918 214.669 253.31 212.887C255.706 211.108 264.498 221.676 264.498 221.676Z" fill="#F9AA80"/>
<path d="M273.747 211.163C273.747 211.163 302.7 202.378 305.369 201.655C306.096 201.932 308.378 203.269 308.378 203.269C308.378 203.269 308.1 211.218 315.896 215.611C323.689 220.007 348.19 224.345 348.468 224.842C348.745 225.346 349.414 223.732 349.414 223.732C349.414 223.732 315.896 202.1 313.611 199.208C312.333 196.039 308.601 195.148 308.601 195.148C308.601 195.148 300.64 187.363 279.593 189.809C275.306 192.424 273.747 211.163 273.747 211.163Z" fill="#F9AA80"/>
<path d="M269.57 217.115C269.57 217.115 266.09 221.563 265.506 221.785C265.477 221.815 265.031 223.063 264.838 223.147C264.641 223.231 260.854 223.038 256.458 219.339C252.058 215.64 249.523 210.663 249.523 210.163C249.523 209.662 252.978 211.415 253.201 210.634C253.423 209.856 253.117 208.771 253.923 208.83C254.73 208.885 254.76 209.023 254.76 208.384C254.76 207.745 255.176 205.963 256.929 204.601C258.685 203.239 269.57 217.115 269.57 217.115Z" fill="#D54180"/>
<path d="M248.062 137.406L249.76 137.757C249.76 137.757 260.076 147.934 266.506 146.265C274.189 149.935 277.03 154.342 278.366 158.063C279.703 161.78 280.703 177.215 280.203 179.716C279.703 182.218 276.698 190.142 276.698 190.142C276.698 190.142 261.496 193.979 261.076 193.479C260.66 192.979 262.165 189.893 262.165 189.893C262.165 189.893 260.028 171.994 249.278 162.883C250.472 151.271 248.062 137.406 248.062 137.406Z" fill="#DF6CBD"/>
<path d="M242.618 136.87C242.677 136.702 247.909 134.423 253.31 142.65C258.71 150.881 259.769 163.785 255.537 165.618C252.477 166.564 247.909 161.558 247.909 161.558L225.025 148.493C225.025 148.493 221.071 173.407 220.625 174.185C220.18 174.962 226.026 175.072 226.417 176.686C226.807 178.3 225.664 178.256 225.708 178.756C225.748 179.256 227.169 183.47 226.376 184.179C225.584 184.887 217.73 184.139 216.561 182.43C215.393 180.717 216.937 175.13 216.937 175.13C216.937 175.13 206.764 134.394 218.12 128.625C228.699 126.748 242.618 136.87 242.618 136.87Z" fill="#F9AA80"/>
<path d="M225.025 148.489C225.025 148.489 226.694 140.594 225.916 138.371C230.203 141.986 226.884 149.552 226.884 149.552L225.025 148.489Z" fill="#D27771"/>
<path d="M257.655 203.878C257.487 203.878 254.814 206.825 255.314 207.493C255.814 208.162 261.887 211.441 262.497 211.941C263.11 212.441 257.764 212.722 257.374 212.777C256.987 212.832 265.005 217.225 269.57 217.115C271.136 215.655 273.747 212.109 273.747 212.109L257.655 203.878Z" fill="#B3396C"/>
<path d="M260.66 192.756C260.828 192.756 279.688 189.031 280.335 189.309C279.425 191.81 278.312 212.722 278.757 213.946C278.925 215.169 275.694 213 275.248 213.445C274.803 213.887 274.025 215.669 272.853 214.946C271.684 214.223 270.57 213.223 269.734 213.223C268.902 213.223 258.656 210.217 256.483 204.715C254.314 199.208 260.66 192.756 260.66 192.756Z" fill="#D54180"/>
<path d="M244.882 159.83C244.882 159.83 253.755 165.286 255.595 163.504C257.432 161.725 252.532 150.771 249.914 148.379C253.7 157.446 244.882 159.83 244.882 159.83Z" fill="#D27771"/>
<path d="M256.673 123.202C256.673 123.202 258.634 126.434 258.908 126.08C259.178 125.725 258.141 120.679 258.141 120.679C258.141 120.679 258.908 121.826 259.178 121.471C259.452 121.117 259.284 118.448 259.43 117.988C259.576 117.531 262.705 117.239 262.665 116.965C262.625 116.695 260.952 116.443 261.434 116.133C261.913 115.819 265.086 114.442 265.068 114.256C265.046 114.066 261.935 113.61 261.935 113.61C261.935 113.61 263.227 111.919 263.103 111.795C262.979 111.671 258.615 112.127 256.965 114.172C252.831 114.318 248.508 117.926 247.57 121.639C246.631 125.349 249.198 125.769 249.198 125.769C249.198 125.769 253.624 132.189 253.894 131.896C254.168 131.604 254.354 129.874 254.354 129.874C254.354 129.874 255.044 130.604 255.19 130.418C255.336 130.231 256.841 126.624 256.841 126.624C256.841 126.624 254.398 126.726 253.938 124.349C253.478 121.972 255.566 121.658 256.673 123.202Z" fill="#353638"/>
<path d="M265.141 118.886C263.848 118.849 262.592 120.27 262.07 121.307C261.865 121.716 262.223 122.399 262.676 121.942C263.03 121.588 263.37 121.212 263.746 120.88C264.038 120.62 264.571 120.179 264.984 120.193C265.707 120.222 265.915 118.908 265.141 118.886Z" fill="#353638"/>
<path d="M264.432 123.71C264.184 123.666 263.903 123.845 263.841 124.097C263.709 124.615 263.618 125.207 263.906 125.689C264.009 125.857 264.239 125.893 264.403 125.824C264.604 125.74 264.717 125.557 264.753 125.346C264.819 124.999 264.75 124.634 264.794 124.279C264.823 124.031 264.691 123.757 264.432 123.71Z" fill="#353638"/>
<path d="M266.254 129.771C266.254 129.771 262.143 128.793 261.558 128.855C261.306 128.917 261.887 132.546 263.822 132.754C265.754 132.963 266.152 130.772 266.254 129.771Z" fill="white"/>
<path d="M257.239 124.977C256.6 124.363 255.771 123.826 254.931 123.538C254.672 123.45 254.463 123.874 254.686 124.027C255.073 124.297 255.46 124.568 255.844 124.838C255.705 124.871 255.57 124.915 255.438 124.969C255.227 125.061 255.296 125.422 255.537 125.389C255.836 125.349 256.136 125.313 256.435 125.305C256.45 125.302 256.461 125.298 256.472 125.294C256.596 125.386 256.724 125.473 256.848 125.568C257.191 125.827 257.509 125.236 257.239 124.977Z" fill="#D27771"/>
<path d="M279.057 161.05C275.844 162.605 272.663 164.23 269.548 165.961C265.572 168.174 261.683 170.562 257.999 173.235C257.772 173.399 257.542 173.564 257.309 173.728C257.44 173.994 257.561 174.257 257.685 174.524C258.539 173.925 259.405 173.337 260.274 172.76C263.816 170.412 267.482 168.262 271.221 166.25C273.857 164.833 276.534 163.493 279.232 162.193C279.174 161.795 279.115 161.415 279.057 161.05Z" fill="#FCF2AF"/>
<path d="M268.945 160.462C271.596 158.633 274.368 156.971 277.241 155.514C277.066 155.193 276.876 154.872 276.668 154.547C273.86 155.993 271.151 157.632 268.569 159.451C263.91 162.733 259.597 166.516 255.672 170.664C255.833 170.935 255.99 171.205 256.139 171.475C260.061 167.429 264.275 163.683 268.945 160.462Z" fill="#FCF2AF"/>
<path d="M261.909 201.461C262.456 198.273 263.304 195.137 264.341 192.062C264.063 192.117 263.793 192.168 263.537 192.215C262.467 195.432 261.595 198.708 260.81 202.034C260.747 202.297 260.963 202.619 261.24 202.622C266.929 202.67 272.619 202.571 278.308 202.732C278.545 202.739 278.782 202.75 279.02 202.757C279.045 202.323 279.071 201.885 279.096 201.45C278.885 201.443 278.673 201.439 278.465 201.432C272.954 201.286 267.415 201.191 261.909 201.461Z" fill="#FCF2AF"/>
<path d="M266.608 191.631C266.364 191.679 266.119 191.723 265.882 191.77C265.414 194.074 264.962 196.378 264.198 198.595C264.056 199.011 264.304 199.413 264.753 199.358C268.956 198.872 273.101 198.186 277.333 197.948C278.001 197.908 278.669 197.883 279.341 197.857C279.374 197.386 279.411 196.922 279.447 196.47C274.667 196.586 269.876 197.036 265.305 198.04C265.56 196.137 266.068 194.239 266.459 192.365C266.51 192.121 266.557 191.876 266.608 191.631Z" fill="#FCF2AF"/>
<path d="M257.819 130.527C257.834 130.49 257.593 135.256 263.165 135.701C256.706 137.841 256.819 133.824 257.819 130.527Z" fill="#D27771"/>
</g>
<g filter="url(#filter3_d_381_2152)">
<mask id="mask7_381_2152" style="mask-type:luminance" maskUnits="userSpaceOnUse" x="719" y="123" width="66" height="74">
<path d="M719.059 123.73H784.424V196.643H719.059V123.73Z" fill="white"/>
</mask>
<g mask="url(#mask7_381_2152)">
<path d="M738.149 124.559C738.149 124.559 740.402 128.722 740.599 131.041C741.059 131.826 742.724 133.878 743.082 134.63C743.44 135.379 741.22 136.814 741.22 136.814C741.22 136.814 741.318 142.353 739.032 144.668C738.379 145.19 732.989 144.08 732.989 144.08C732.989 144.08 731.875 147.765 731.974 150.24C732.073 152.716 734.556 156.824 735.636 158.146C736.714 159.464 738.087 161.713 738.821 165.186C739.554 168.655 745.729 185.083 747.004 186.208C748.278 187.332 769.986 185.28 771.845 184.594C773.707 183.911 778.56 177.163 779.392 177.115C780.225 177.064 784.391 183.469 783.508 184.984C782.628 186.5 773.758 188.603 773.608 188.504C773.462 188.41 752.101 197.695 742.103 195.446C740.142 194.96 730.539 181.76 730.05 179.606C729.56 177.455 719.562 144.993 719.562 144.993C719.562 144.993 721.571 127.933 721.841 127.517C722.111 127.101 738.149 124.559 738.149 124.559Z" fill="#F9AA80"/>
</g>
<path d="M721.841 193.05C721.841 193.05 719.905 195.767 719.146 196.476C718.386 197.184 705.153 185.769 705.153 185.769C705.153 185.769 706.818 181.734 706.698 181.223C706.577 180.708 721.841 193.05 721.841 193.05Z" fill="#F9AA80"/>
<path d="M733.942 125.096C733.723 125.534 731.419 126.929 732.401 128.543C733.38 130.157 730.513 132.552 730.488 132.651C729.509 130.011 727.059 127.908 725.931 131.11C724.806 134.312 729.02 136.364 729.801 136.437C730.586 136.51 727.99 144.799 726.029 144.263C724.072 143.722 723.725 147.147 721.519 148.221C719.318 149.298 713.797 148.221 713.545 145.679C713.388 144.507 707.604 144.748 707.556 142.598C707.505 140.447 702.115 141.181 702.068 140.838C702.02 140.498 705.059 137.171 707.947 138.639C710.839 140.104 710.203 134.824 713.092 134.63C715.984 134.433 717.112 132.527 717.112 131.694C717.112 130.865 716.619 128.072 716.619 128.072C716.619 128.072 714.954 119.246 719.431 117.877C723.908 116.508 724.623 117.877 725.832 115.858C727.044 113.835 731.941 116.051 733.248 115.858C734.555 115.66 736.155 116.77 736.253 119.637C736.352 122.503 733.942 125.096 733.942 125.096Z" fill="#82414A"/>
<path d="M727.6 261.202C727.6 261.202 740.862 275.465 749.355 279.96C749.224 280.091 749.355 281.654 749.355 281.654C749.355 281.654 758.762 281.851 758.568 281.654C758.371 281.461 750.922 279.178 750.4 278.656C749.877 278.134 739.898 258.515 739.898 258.515C739.898 258.515 730.473 259.201 727.6 261.202Z" fill="#F9AA80"/>
<path d="M672.619 247.173C672.619 247.173 655.176 252.453 650.177 256.561C650.52 256.51 649.688 261.202 649.688 261.202L653.361 258.025C653.361 258.025 675.361 258.569 675.657 258.613C675.953 258.657 678.107 248.688 672.619 247.173Z" fill="#F9AA80"/>
<path d="M710.84 162.739L710.96 161.545C710.96 161.545 693.59 157.949 692.023 158.047C690.453 158.146 673.306 181.271 672.667 182.1C672.031 182.932 671.714 186.182 671.246 188.603C670.783 191.024 667.131 197.232 666.419 198.944C666.248 199.017 666.642 196.107 666.642 196.107C666.642 196.107 662.844 201.193 662.523 200.752C662.205 200.313 664.878 195.45 664.878 195.45C664.878 195.45 659.755 198.455 659.781 197.94C659.806 197.429 662.746 193.69 662.746 193.69C662.746 193.69 658.652 195.497 658.652 194.887C658.652 194.274 662.059 191.586 661.986 191.586C661.913 191.586 657.283 192.441 657.477 192.05C657.674 191.659 662.329 189.899 662.329 189.899C662.329 189.899 667.865 182.688 669.019 182.151C669.311 177.652 679.97 151.84 683.742 149.981C687.514 148.122 714.663 144.993 720.151 146.998C725.851 148.32 735.045 167.139 729.999 173.887C724.953 180.635 710.84 162.739 710.84 162.739Z" fill="#F9AA80"/>
<path d="M710.839 162.739C710.839 162.739 726.176 173.69 728.184 171.638C730.196 169.586 727.158 149.247 720.151 146.998C720.297 146.753 724.952 149.346 724.952 149.346C724.952 149.346 728.184 155.75 731.47 159.124C734.753 162.498 733.234 167.337 734.41 167.534C735.586 167.727 737.105 167.139 737.105 167.139C737.105 167.139 738.28 174.231 737.105 178.09C735.929 181.954 732.303 182.688 732.303 182.688C732.303 182.688 721.67 192.809 721.67 193.784C717.649 189.629 703.588 182.052 702.364 178.923C703.635 178.58 704.029 178.97 704.223 178.485C704.42 177.995 709.861 167.139 709.959 166.504C710.054 165.869 710.839 162.739 710.839 162.739Z" fill="#D54180"/>
<path d="M705.153 185.766C705.153 185.766 718.24 192.148 719.61 196.008C719.661 196.939 716.867 198.575 716.867 198.575C716.867 198.575 714.074 203.417 713.435 203.464C716.082 207.62 730.736 223.902 730.831 239.936C732.792 242.674 733.478 246.392 733.478 246.392C733.478 246.392 739.262 257.587 739.897 258.515C733.525 260.618 727.599 261.202 727.599 261.202C727.599 261.202 718.386 253.724 722.746 243.898C714.76 238.227 703.93 230.256 703.93 230.256C703.93 230.256 698.391 257.832 694.962 259.395C691.533 260.957 675.656 258.613 675.656 258.613C675.656 258.613 671.245 251.573 672.618 247.173C676.88 245.512 684.672 248.283 684.672 248.283C684.672 248.283 679.772 220.09 683.887 207.277C685.26 197.892 699.961 189.384 702.802 189.191C703.196 188.212 705.153 185.766 705.153 185.766Z" fill="#353638"/>
<path d="M703.931 230.256C703.931 230.256 690.617 222.401 686.765 215.624C685.001 229.248 702.854 235.313 702.854 235.313L703.931 230.256Z" fill="#242526"/>
<mask id="mask8_381_2152" style="mask-type:luminance" maskUnits="userSpaceOnUse" x="640" y="252" width="12" height="22">
<path d="M640 252.731H651.754V273.296H640V252.731Z" fill="white"/>
</mask>
<g mask="url(#mask8_381_2152)">
<path d="M649.688 261.202C649.688 261.202 640.523 273.278 640.278 272.693C640.033 272.105 644.638 253.527 644.981 253.282C645.324 253.041 650.984 255.959 650.984 255.959L649.688 261.202Z" fill="#353638"/>
</g>
<mask id="mask9_381_2152" style="mask-type:luminance" maskUnits="userSpaceOnUse" x="748" y="280" width="22" height="7">
<path d="M748.972 280.774H769.537V287H748.972V280.774Z" fill="white"/>
</mask>
<g mask="url(#mask9_381_2152)">
<path d="M749.355 281.654C749.355 281.654 748.997 286.543 749.355 286.773C749.713 287 769.216 286.087 769.282 285.306C769.347 284.524 758.375 281.566 758.375 281.566L749.355 281.654Z" fill="#353638"/>
</g>
<path d="M729.689 250.182C728.882 247.48 728.111 244.738 726.713 242.269C725.814 240.677 724.631 239.293 723.883 237.617C723.251 236.204 722.864 234.7 722.378 233.235C720.476 227.495 716.945 222.577 713.458 217.709C711.471 214.934 709.492 212.155 707.495 209.387C706.14 207.507 704.76 205.743 702.73 204.622C706.407 199.981 709.956 195.216 713.089 190.195C712.899 190.075 712.709 189.954 712.516 189.837C709.123 194.865 705.618 199.798 701.685 204.436C701.448 204.721 701.4 205.159 701.78 205.341C704.672 206.758 706.381 209.698 708.192 212.221C710.091 214.872 711.997 217.516 713.889 220.17C715.616 222.595 717.328 225.041 718.785 227.634C720.341 230.398 721.319 233.257 722.349 236.237C723.353 239.132 725.267 241.349 726.541 244.091C727.83 246.863 728.557 249.893 729.393 252.822C730.214 255.685 731.39 257.832 732.475 260.439C732.836 260.366 733.209 260.289 733.596 260.209C732.504 257.058 730.58 253.147 729.689 250.182Z" fill="#FCF2AF"/>
<path d="M734.643 255.743C733.227 253.041 731.55 250.313 730.762 247.345C730.13 244.971 730.462 242.546 728.596 240.692C726.154 238.267 725.748 235.397 724.624 232.271C722.571 226.571 719.468 221.317 716.203 216.237C713.512 212.053 710.883 206.984 706.483 204.333C709.404 200.105 712.471 195.972 715.415 191.754C715.203 191.604 714.987 191.451 714.768 191.301C711.632 195.595 708.623 199.981 705.457 204.25C705.318 204.436 705.307 204.815 705.526 204.954C710.368 207.959 713.249 213.418 716.214 218.114C719.519 223.347 722.571 228.802 724.379 234.751C725.095 237.098 725.602 239.286 727.315 241.126C728.509 242.408 729.002 243.503 729.232 245.26C729.418 246.647 729.652 247.943 730.126 249.269C731.171 252.19 732.821 254.929 734.245 257.678C734.603 258.368 734.95 259.091 735.297 259.822C735.757 259.709 736.232 259.588 736.714 259.46C736.005 258.204 735.282 256.963 734.643 255.743Z" fill="#FCF2AF"/>
<path d="M710.963 161.542C710.963 161.542 715.706 162.429 716.097 163.459C716.491 164.485 712.372 164.923 710.963 161.542Z" fill="#D27771"/>
<path d="M738.378 124.625C738.378 124.625 719.04 133.129 716.491 132.87C716.228 132.151 716.685 129.317 716.228 128.503C715.772 127.685 735.731 119.016 736.516 119.473C737.301 119.929 739.178 124.274 738.378 124.625Z" fill="#D54180"/>
<path d="M736.801 126.768C736.214 127.239 735.417 128.01 735.651 128.82C735.724 129.076 735.987 129.164 736.221 129.131C736.721 129.058 737.01 128.404 737.364 128.083C737.751 127.736 738.207 127.491 738.7 127.342C738.992 127.25 739.284 126.94 739.288 126.619C739.299 125.11 737.302 126.37 736.801 126.768Z" fill="#82414A"/>
<path d="M738.357 131.603C738.321 131.249 737.999 130.968 737.638 131.059C737.232 131.161 737.075 131.563 737.075 131.935C737.075 132.414 737.061 132.947 737.313 133.37C737.587 133.83 738.167 133.483 738.313 133.122C738.496 132.662 738.412 132.085 738.357 131.603Z" fill="#353638"/>
<path d="M739.185 139.709C738.674 140.148 738.393 141.035 738.386 141.692C738.382 142.046 738.536 142.444 738.948 142.459C739.357 142.474 739.627 142.101 739.689 141.74C739.733 141.502 739.755 141.261 739.832 141.031C739.927 140.757 740.036 140.494 740.098 140.206C740.212 139.651 739.58 139.37 739.185 139.709Z" fill="#B02E3B"/>
<path d="M736.451 167.775C736.451 167.775 734.935 157.123 733.504 154.757C733.577 154.414 734.548 156.042 734.979 156.597C735.406 157.152 738.149 165.073 736.451 167.775Z" fill="#D54180"/>
<path d="M729.126 132.863C728.538 132.501 727.921 132.176 727.318 131.848C727.015 131.687 726.712 132.238 726.92 132.454C727.249 132.804 727.629 133.071 728.023 133.33C727.892 133.388 727.764 133.447 727.636 133.505C727.329 133.644 727.413 134.203 727.782 134.133C728.162 134.068 728.531 134.006 728.899 133.903C729.056 134.006 729.21 134.111 729.359 134.217C729.6 134.389 729.692 134.524 730.006 134.462C730.119 134.436 730.199 134.312 730.218 134.199C730.294 133.608 729.571 133.14 729.126 132.863Z" fill="#D27771"/>
</g>
<g filter="url(#filter4_d_381_2152)">
<path d="M878.51 156.237C878.51 156.237 874.347 173.29 872.029 177.354C870.506 178.705 863.962 184.445 863.962 184.445L856.816 176.397C856.816 176.397 862.819 172.811 863.542 170.818C864.262 168.828 863.962 157.672 863.962 157.672L878.51 156.237Z" fill="#F9AA80"/>
<mask id="mask10_381_2152" style="mask-type:luminance" maskUnits="userSpaceOnUse" x="876" y="113" width="37" height="23">
<path d="M876.983 113.073H912.374V135.508H876.983V113.073Z" fill="white"/>
</mask>
<g mask="url(#mask10_381_2152)">
<path d="M877.309 135.201L895.643 126.675V127.471L905.086 133.682C905.086 133.682 912.213 118.788 912.29 117.67C912.37 116.557 907.488 113.69 905.407 113.53C903.326 113.369 884.356 116.98 882.994 117.327C881.632 117.67 877.309 135.201 877.309 135.201Z" fill="#F9AA80"/>
</g>
<path d="M858.335 123.436C858.335 123.436 858.335 137.458 861.38 139.371C864.422 141.285 861.274 158.282 861.38 158.972C861.486 159.663 880.43 157.965 880.43 157.965C881.5 155.043 880.963 140.7 880.963 140.7C880.963 140.7 885.287 140.116 885.663 140.54C886.035 140.967 886.996 116.257 886.996 115.943C886.996 115.625 878.028 118.072 878.028 118.072C878.028 118.072 879.149 116.104 876.855 115.625C874.562 115.151 863.301 115.892 858.335 123.436Z" fill="#D54180"/>
<path d="M858.204 122.64L858.365 124.951C858.365 124.951 863.889 121.154 867.997 120.46C872.105 119.77 878.028 118.072 878.028 118.072C878.028 118.072 879.284 116.184 877.71 114.245C876.137 112.306 858.204 122.64 858.204 122.64Z" fill="#B3396C"/>
<path d="M844.971 90.0978C844.7 90.0978 827.958 87.2131 827.422 87.0487C826.881 86.8844 827.239 107.742 827.422 108.359C827.6 108.98 833.315 110.502 833.359 111.328C833.406 112.153 831.066 117.017 829.941 117.181C828.816 117.345 822.561 117.51 821.974 116.849C821.389 116.191 821.974 109.721 821.974 109.721C821.974 109.721 814.221 78.8694 816.379 76.6383C818.541 74.4109 841.819 77.9821 841.819 77.9821L844.971 90.0978Z" fill="#F9AA80"/>
<path d="M874.508 77.752C874.628 77.752 889.077 76.6128 889.077 76.6128C889.077 76.6128 886.233 60.1445 885.915 59.5456C885.594 58.9505 881.351 58.8007 880.993 58.2165C880.631 57.6323 879.551 51.2823 880.591 51.1107C881.632 50.9391 889.117 51.4174 889.479 52.1367C889.837 52.8524 890.279 58.2165 890.279 58.2165C890.279 58.2165 899.645 82.1338 898.922 83.5287C898.202 84.9236 877.911 88.7504 877.911 88.7504L874.508 77.752Z" fill="#F9AA80"/>
<path d="M854.377 78.4713C854.377 78.4713 851.894 77.7519 851.573 78.369C847.611 78.212 839.205 76.536 838.844 76.6163C838.526 76.6967 838.219 90.6089 837.471 91.7774C839.713 92.4675 847.877 92.6793 848.465 93.0517C849.053 93.4242 855.776 118.813 855.243 119.982C854.709 121.154 857.269 124.181 857.269 124.181C857.269 124.181 862.02 123.33 865.755 119.876C869.491 116.425 876.483 115.625 876.856 115.625C877.228 115.625 881.658 110.689 881.818 110.21C881.979 109.732 877.283 108.242 877.656 105.427C878.028 102.611 873.869 93.5812 873.548 92.2557C873.226 90.9266 880.27 91.0325 880.27 91.0325C880.27 91.0325 876.911 77.646 876.75 77.4343C876.589 77.2225 867.731 78.2303 867.037 78.1244C866.343 78.0185 858.923 78.2303 858.923 78.2303L854.377 78.4713Z" fill="#56A4C1"/>
<path d="M854.443 75.4953C854.443 75.4953 854.121 78.8949 853.935 78.946C853.749 79.0007 856.122 80.9945 860.179 81.8161C864.236 82.6413 863.754 80.4358 861.884 79.3988C862.1 78.3106 862.582 75.8678 862.582 75.8678C862.582 75.8678 868.369 75.1229 869.49 72.5997C870.611 70.0765 870.542 60.9879 868.903 57.3765C867.263 53.7689 865.514 53.1591 865.514 53.1591C865.514 53.1591 857.817 52.5712 852.014 57.6723C846.208 62.7735 851.532 69.9852 851.532 69.9852L854.443 75.4953Z" fill="#F9AA80"/>
<path d="M852.854 64.9243C852.854 64.9243 855.031 65.6948 855.217 65.5597C855.403 65.4282 854.523 63.942 854.523 63.942C854.523 63.942 855.564 64.0479 855.67 63.5951C855.775 63.146 854.264 60.8857 854.264 60.8857C854.264 60.8857 855.856 61.4188 856.765 60.7543C857.671 60.0897 857.057 56.796 857.057 56.796C857.057 56.796 859.993 56 861.512 54.8571C863.035 53.7142 865.514 53.1591 865.514 53.1591C865.514 53.1591 863.623 49.5734 857.002 51.6438C850.386 53.7142 847.344 57.9645 847.797 62.0834C848.253 66.1987 854.096 75.3603 854.443 75.4954C855.162 75.4406 855.724 70.3942 855.348 68.616C854.79 69.0395 850.999 69.5471 850.546 67.1554C850.094 64.7636 852.854 64.9243 852.854 64.9243Z" fill="#353638"/>
<path d="M865.086 57.2488C863.695 56.8106 861.683 57.5373 860.445 58.1763C859.952 58.4282 860.073 59.5346 860.708 59.2827C861.388 59.0088 862.067 58.7569 862.786 58.5962C863.502 58.4392 864.269 58.4976 864.959 58.2822C865.364 58.158 865.598 57.4058 865.086 57.2488Z" fill="#353638"/>
<path d="M868.953 56.4418C868.789 56.3505 868.654 56.3103 868.468 56.325C868.351 56.3359 868.238 56.3578 868.128 56.4016C867.84 56.5075 867.628 56.6682 867.467 56.9274C867.226 57.3145 867.5 57.8257 867.971 57.6285C867.916 57.6504 868.081 57.603 868.099 57.5957C868.161 57.5738 868.219 57.5519 868.281 57.5336C868.303 57.5299 868.322 57.5263 868.34 57.5226C868.336 57.5263 868.351 57.5263 868.395 57.5226C868.497 57.5263 868.599 57.519 868.698 57.4898C868.917 57.4204 869.07 57.2451 869.121 57.0224C869.165 56.8435 869.14 56.544 868.953 56.4418Z" fill="#353638"/>
<path d="M869.114 63.9822C868.844 63.2629 868.213 62.5727 867.793 61.9301C867.208 61.0355 866.617 60.1481 865.989 59.2827C865.781 58.9943 865.43 59.4069 865.587 59.6625C866.149 60.579 866.737 61.4773 867.314 62.3829C867.548 62.7553 867.858 63.157 868.048 63.5513C868.486 64.4533 868.256 64.8111 867.438 65.2676C866.891 65.5706 867.165 66.604 867.807 66.2571C868.636 65.8153 869.498 65.0046 869.114 63.9822Z" fill="#D27771"/>
<path d="M862.925 63.0729C862.841 62.6056 862.618 62.1528 862.421 61.7219C862.162 61.1669 861.409 61.5503 861.504 62.0907C861.596 62.5873 861.727 63.1679 862.034 63.5805C862.373 64.0296 863.012 63.544 862.925 63.0729Z" fill="#353638"/>
<path d="M868.121 67.8455C867.979 67.7725 864.462 68.6014 863.246 69.6384C863.115 69.8904 864.86 71.6833 866.715 71.0443C868.57 70.4089 868.482 68.0318 868.121 67.8455Z" fill="white"/>
<path d="M869.918 61.7073C869.83 61.2399 869.611 60.7834 869.414 60.3562C869.154 59.7975 868.399 60.1882 868.497 60.725C868.588 61.2216 868.72 61.8022 869.027 62.2148C869.366 62.664 870.005 62.1747 869.918 61.7073Z" fill="#353638"/>
<path d="M854.71 66.9947C854.019 66.3484 852.668 66.0964 851.756 66.2352C851.474 66.279 851.5 66.75 851.752 66.7573C851.752 66.7573 851.752 66.7573 851.752 66.761C852.183 66.7646 852.588 66.8048 852.997 66.9034C852.847 67.0969 852.72 67.3087 852.614 67.5351C852.497 67.7871 852.858 68.0062 853.004 67.7469C853.114 67.5534 853.242 67.3708 853.391 67.2028C853.435 67.1554 853.483 67.1079 853.53 67.0641C853.873 67.1882 854.206 67.3379 854.578 67.3489C854.761 67.3562 854.83 67.1042 854.71 66.9947Z" fill="#D27771"/>
<path d="M880.967 140.7C880.967 140.7 864.342 140.262 863.981 140.339C863.623 140.423 868.786 141.894 871.346 142.252C873.909 142.61 867.303 144.286 866.982 144.483C866.664 144.684 881.073 144.962 881.073 144.962L880.967 140.7Z" fill="#B3396C"/>
<path d="M895.643 127.471C895.643 127.471 898.721 122.812 901.606 121.256C896.921 119.784 895.121 125.678 895.643 127.471Z" fill="#D27771"/>
<path d="M880.518 56.2519C881.792 55.9744 883.038 55.5508 884.363 55.5033C884.619 55.496 885.229 55.4011 885.422 55.5618C886.218 56.2263 884.951 56.8544 884.597 57.0662C883.976 57.435 883.341 57.7454 882.789 58.2127C882.672 58.3113 882.72 58.5816 882.91 58.5304C883.534 58.3588 885.787 57.3656 886.255 56.314C887.281 56.5367 888.588 56.869 889.044 55.8137C889.395 55.0067 889.504 53.977 889.691 53.1262C889.698 53.1079 889.702 53.086 889.705 53.0678C889.629 52.6223 889.556 52.2827 889.479 52.1403C889.464 52.1038 889.424 52.0673 889.377 52.0344C889.285 52.4835 889.201 52.929 889.106 53.3672C888.928 54.218 888.917 55.0396 888.23 55.6019C887.752 55.989 887.266 55.9926 886.733 55.9598C886.905 54.9191 887.036 53.8857 887.35 52.8669C887.485 52.4324 887.66 52.0198 887.843 51.6108C887.646 51.5743 887.438 51.5415 887.222 51.5122C886.594 52.8925 886.298 54.5393 886.379 55.9415C886.364 55.9415 886.35 55.9379 886.335 55.9379C886.335 55.7078 886.229 55.4814 885.981 55.2623C885.681 54.9958 885.243 54.9337 884.801 54.9447C884.768 53.8163 884.849 52.7684 885.17 51.6766C885.21 51.5451 885.254 51.421 885.298 51.2931C885.104 51.2749 884.907 51.2603 884.71 51.242C884.323 52.4689 884.151 53.7835 884.385 54.9702C884.148 54.9921 883.918 55.025 883.724 55.0505C883.293 55.1017 882.848 55.1601 882.406 55.2404C882.49 53.8163 882.731 52.4981 883.041 51.1325C882.826 51.1179 882.621 51.1106 882.424 51.1033C881.931 52.4361 881.785 53.9514 881.964 55.3281C881.442 55.4413 880.927 55.591 880.441 55.7882C880.463 55.9452 880.493 56.0985 880.518 56.2519Z" fill="#D27771"/>
<path d="M856.817 176.397C856.817 176.397 850.653 181.177 848.093 184.445C845.53 187.71 837.31 200.194 836.938 200.567C836.565 200.939 838.274 204.923 838.431 204.923C838.592 204.923 863.962 184.445 863.962 184.445C863.962 184.445 859.617 177.617 856.817 176.397Z" fill="#56A4C1"/>
<path d="M895.642 127.471C895.642 127.471 891.746 135.654 890.249 150.048C890.249 150.421 892.947 153.448 892.947 153.448C892.947 153.448 905.034 134.318 905.085 133.682C905.14 133.05 895.642 127.471 895.642 127.471Z" fill="#56A4C1"/>
<path d="M892.948 153.448C892.948 153.448 896.121 153.795 895.909 154.43C895.694 155.069 893.985 155.094 893.985 155.094C893.985 155.094 893.985 172.092 893.506 171.723C893.024 171.351 885.126 152.597 884.914 152.173C884.699 151.75 890.249 150.048 890.249 150.048L892.948 153.448Z" fill="#B3396C"/>
<path d="M838.486 204.562C838.486 204.562 842.488 207.472 841.929 207.83C841.367 208.187 838.486 207.231 838.486 207.231C838.486 207.231 835.963 222.731 835.605 222.33C835.243 221.932 829.682 202.531 829.879 202.294C830.08 202.053 836.937 200.567 836.937 200.567L838.486 204.562Z" fill="#B3396C"/>
</g>
<defs>
<filter id="filter0_d_381_2152" x="602.214" y="49.4956" width="128.283" height="192.56" filterUnits="userSpaceOnUse" color-interpolation-filters="sRGB">
<feFlood flood-opacity="0" result="BackgroundImageFix"/>
<feColorMatrix in="SourceAlpha" type="matrix" values="0 0 0 0 0 0 0 0 0 0 0 0 0 0 0 0 0 0 127 0" result="hardAlpha"/>
<feOffset/>
<feGaussianBlur stdDeviation="5"/>
<feComposite in2="hardAlpha" operator="out"/>
<feColorMatrix type="matrix" values="0 0 0 0 0 0 0 0 0 0 0 0 0 0 0 0 0 0 0.3 0"/>
<feBlend mode="normal" in2="BackgroundImageFix" result="effect1_dropShadow_381_2152"/>
<feBlend mode="normal" in="SourceGraphic" in2="effect1_dropShadow_381_2152" result="shape"/>
</filter>
<filter id="filter1_d_381_2152" x="0.426758" y="0" width="205.174" height="191.577" filterUnits="userSpaceOnUse" color-interpolation-filters="sRGB">
<feFlood flood-opacity="0" result="BackgroundImageFix"/>
<feColorMatrix in="SourceAlpha" type="matrix" values="0 0 0 0 0 0 0 0 0 0 0 0 0 0 0 0 0 0 127 0" result="hardAlpha"/>
<feOffset/>
<feGaussianBlur stdDeviation="5"/>
<feComposite in2="hardAlpha" operator="out"/>
<feColorMatrix type="matrix" values="0 0 0 0 0 0 0 0 0 0 0 0 0 0 0 0 0 0 0.3 0"/>
<feBlend mode="normal" in2="BackgroundImageFix" result="effect1_dropShadow_381_2152"/>
<feBlend mode="normal" in="SourceGraphic" in2="effect1_dropShadow_381_2152" result="shape"/>
</filter>
<filter id="filter2_d_381_2152" x="184" y="71" width="187.942" height="191.74" filterUnits="userSpaceOnUse" color-interpolation-filters="sRGB">
<feFlood flood-opacity="0" result="BackgroundImageFix"/>
<feColorMatrix in="SourceAlpha" type="matrix" values="0 0 0 0 0 0 0 0 0 0 0 0 0 0 0 0 0 0 127 0" result="hardAlpha"/>
<feOffset/>
<feGaussianBlur stdDeviation="5"/>
<feComposite in2="hardAlpha" operator="out"/>
<feColorMatrix type="matrix" values="0 0 0 0 0 0 0 0 0 0 0 0 0 0 0 0 0 0 0.3 0"/>
<feBlend mode="normal" in2="BackgroundImageFix" result="effect1_dropShadow_381_2152"/>
<feBlend mode="normal" in="SourceGraphic" in2="effect1_dropShadow_381_2152" result="shape"/>
</filter>
<filter id="filter3_d_381_2152" x="630.269" y="105" width="163.361" height="191.809" filterUnits="userSpaceOnUse" color-interpolation-filters="sRGB">
<feFlood flood-opacity="0" result="BackgroundImageFix"/>
<feColorMatrix in="SourceAlpha" type="matrix" values="0 0 0 0 0 0 0 0 0 0 0 0 0 0 0 0 0 0 127 0" result="hardAlpha"/>
<feOffset/>
<feGaussianBlur stdDeviation="5"/>
<feComposite in2="hardAlpha" operator="out"/>
<feColorMatrix type="matrix" values="0 0 0 0 0 0 0 0 0 0 0 0 0 0 0 0 0 0 0.3 0"/>
<feBlend mode="normal" in2="BackgroundImageFix" result="effect1_dropShadow_381_2152"/>
<feBlend mode="normal" in="SourceGraphic" in2="effect1_dropShadow_381_2152" result="shape"/>
</filter>
<filter id="filter4_d_381_2152" x="806" y="41" width="116.291" height="191.337" filterUnits="userSpaceOnUse" color-interpolation-filters="sRGB">
<feFlood flood-opacity="0" result="BackgroundImageFix"/>
<feColorMatrix in="SourceAlpha" type="matrix" values="0 0 0 0 0 0 0 0 0 0 0 0 0 0 0 0 0 0 127 0" result="hardAlpha"/>
<feOffset/>
<feGaussianBlur stdDeviation="5"/>
<feComposite in2="hardAlpha" operator="out"/>
<feColorMatrix type="matrix" values="0 0 0 0 0 0 0 0 0 0 0 0 0 0 0 0 0 0 0.3 0"/>
<feBlend mode="normal" in2="BackgroundImageFix" result="effect1_dropShadow_381_2152"/>
<feBlend mode="normal" in="SourceGraphic" in2="effect1_dropShadow_381_2152" result="shape"/>
</filter>
</defs>
</svg>
