<svg width="1058" height="447" viewBox="0 0 1058 447" fill="none" xmlns="http://www.w3.org/2000/svg">
<mask id="mask0_381_1742" style="mask-type:luminance" maskUnits="userSpaceOnUse" x="352" y="0" width="354" height="447">
<path d="M352.667 0.789551H705.334V446.263H352.667V0.789551Z" fill="white"/>
</mask>
<g mask="url(#mask0_381_1742)">
<path d="M352.667 0.789551H705.334V446.197H352.667V0.789551Z" fill="#D9F9F6"/>
</g>
<mask id="mask1_381_1742" style="mask-type:alpha" maskUnits="userSpaceOnUse" x="352" y="136" width="354" height="311">
<mask id="mask2_381_1742" style="mask-type:luminance" maskUnits="userSpaceOnUse" x="352" y="136" width="354" height="311">
<path d="M352.667 136.906H705.334V446.263H352.667V136.906Z" fill="white"/>
</mask>
<g mask="url(#mask2_381_1742)">
<path d="M352.667 136.906H705.334V446.217H352.667V136.906Z" fill="#D9F9F6"/>
</g>
</mask>
<g mask="url(#mask1_381_1742)">
<path fill-rule="evenodd" clip-rule="evenodd" d="M469.669 186.946C469.657 186.52 469.701 186.1 469.8 185.685C470.586 181.158 474.08 177.937 477.922 175.761C484.167 172.28 493.207 170.016 500.063 172.976C505.565 175.413 507.312 180.679 506.57 185.946C507.163 185.58 507.775 185.246 508.404 184.944C512.814 182.725 518.579 181.985 522.946 184.727C526.701 187.077 526.134 190.428 523.994 192.953C527.226 192.561 530.894 192.822 533.47 194.389C535.086 195.39 538.23 198.393 535.872 200.221C534.474 201.265 532.466 201.613 530.806 201.875C526.789 202.484 522.684 202.441 518.623 202.484C502.028 202.615 485.478 201.831 468.883 201.831C466.394 201.831 459.582 201.831 455.127 201.57C453.695 201.608 452.268 201.535 450.847 201.352C449.572 201.2 448.321 200.939 447.092 200.569C444.035 199.568 442.856 196.521 445.782 194.432C448.052 192.822 450.935 192.474 453.642 192.996C454.66 193.171 455.65 193.447 456.612 193.823C456.612 193.693 456.656 193.519 456.656 193.388C456.784 192.846 456.961 192.32 457.186 191.81C457.411 191.301 457.68 190.815 457.993 190.355C458.307 189.893 458.659 189.464 459.051 189.067C459.443 188.67 459.867 188.311 460.324 187.991C462.878 186.207 466.568 185.902 469.669 186.946Z" fill="white"/>
<path fill-rule="evenodd" clip-rule="evenodd" d="M445.821 200.225C445.865 199.511 446.345 198.794 447.394 198.158C447.955 197.828 448.54 197.547 449.149 197.316C449.758 197.085 450.383 196.908 451.023 196.783C451.663 196.657 452.308 196.587 452.96 196.572C453.611 196.557 454.26 196.596 454.905 196.691C455.83 196.845 456.741 197.058 457.638 197.331C457.638 197.218 457.682 197.105 457.682 196.992C458.032 195.373 459.385 193.984 460.957 193.075C463.272 191.725 466.722 191.334 469.604 192.174C469.604 191.833 469.633 191.495 469.691 191.16C470.433 187.626 473.753 185.219 477.377 183.526C483.229 180.784 491.701 179.017 498.12 181.349C503.273 183.23 504.932 187.217 504.278 191.36C504.889 191.06 505.5 190.799 506.024 190.572C510.173 188.831 515.5 188.427 519.606 190.572C523.099 192.413 522.575 195.046 520.61 197.074C523.623 196.774 527.073 196.961 529.475 198.201C530.654 198.802 532.75 200.421 532.488 201.775C531.921 201.888 531.396 201.923 530.872 202.001C526.855 202.528 522.75 202.489 518.688 202.528C502.094 202.641 485.543 201.962 468.949 201.962C466.459 201.962 459.647 201.962 455.193 201.735C453.762 201.77 452.336 201.708 450.914 201.548C449.645 201.413 448.392 201.186 447.158 200.865C446.7 200.677 446.255 200.463 445.821 200.225Z" fill="#CFF0E3" fill-opacity="0.2392"/>
<path d="M444.553 311.809C435.749 315.251 414.726 310.656 408.983 309.61C401.723 308.285 394.461 306.939 387.217 305.497C369.033 301.876 350.987 297.455 333.133 292.384C321.352 289.037 309.658 285.391 298.08 281.438C290.404 278.816 282.868 276.048 275.177 273.465C267.876 271.012 256.89 264.531 265.348 258.3C266.868 257.179 268.763 256.465 270.784 256.058C266.972 253.101 266.08 247.863 268.867 244.667C270.599 242.675 273.608 241.656 276.671 241.751C274.136 232.591 279.018 222.884 288.14 218.437C297.951 213.651 311.698 214.914 321.833 220.958C330.619 226.193 336.542 234.643 338.284 243.309C343.725 243.209 349.292 243.964 354.386 246.034C360.865 248.66 366.454 253.63 368.087 259.427C368.912 262.37 368.54 265.467 367.151 268.063C372.476 268.284 377.815 268.817 383.053 270.032C390.325 271.72 397.458 274.811 402.746 279.576C406.703 283.142 409.513 287.722 410.272 292.337C420.35 292.219 430.712 294.221 440.144 298.159C443.546 299.581 447.172 301.616 448.107 304.664C449.244 308.381 447.66 310.594 444.553 311.809Z" fill="white"/>
<path d="M622.163 263.42C630.495 266.909 650.013 262.491 655.352 261.491C662.1 260.225 668.849 258.94 675.579 257.557C692.472 254.088 709.212 249.821 725.754 244.905C736.669 241.661 747.493 238.119 758.201 234.271C765.299 231.719 772.263 229.02 779.377 226.506C786.13 224.119 796.209 217.751 788.119 211.492C786.664 210.366 784.872 209.641 782.97 209.222C786.447 206.308 787.127 201.104 784.427 197.904C782.749 195.91 779.906 194.875 777.045 194.947C779.144 185.853 774.294 176.162 765.635 171.672C756.322 166.84 743.507 167.996 734.211 173.935C726.152 179.079 720.863 187.442 719.491 196.05C714.4 195.911 709.219 196.622 704.518 198.644C698.538 201.209 693.459 206.112 692.103 211.867C691.42 214.79 691.859 217.873 693.234 220.465C688.262 220.646 683.287 221.138 678.425 222.308C671.677 223.934 665.099 226.958 660.297 231.66C656.702 235.179 654.21 239.714 653.637 244.299C644.212 244.109 634.584 246.025 625.883 249.874C622.744 251.264 619.414 253.262 618.63 256.287C617.676 259.976 619.223 262.19 622.163 263.42Z" fill="white"/>
</g>
<path d="M590.551 322.687C590.551 356.558 562.996 384.011 529.001 384.011C495.003 384.011 467.448 356.558 467.448 322.687C467.448 288.819 495.003 261.319 529.001 261.319C562.996 261.319 590.551 288.771 590.551 322.687Z" fill="#F2EDB6"/>
<mask id="mask3_381_1742" style="mask-type:luminance" maskUnits="userSpaceOnUse" x="352" y="302" width="354" height="145">
<path d="M352.667 302.396H705.334V446.263H352.667V302.396Z" fill="white"/>
</mask>
<g mask="url(#mask3_381_1742)">
<path d="M705.334 351.853V446.014H352.667V352.226H362.353V323.229H377.26V339.673H378.388V338.08H388.544V339.673H389.672V356.163H398.984V326.228L410.268 311.235V344.92H424.28V327.68H425.456V321.777H425.975L430.159 312.032L430.439 303.085L430.723 312.032L434.907 321.777H435.425V327.68H436.602V351.15H443.184V336.767H453.388V356.163H458.229V336.767H468.434V349.65H473.89V326.697L481.884 318.871H486.397V357.38H489.313V331.241H491.286V329.927H493.733L494.248 318.778L494.767 329.927H497.213V331.241H499.186V343.748H506.429V365.767H511.083V354.663H512.495V341.031H514V333.816H520.44V341.031H521.945V354.663H523.357V359.817H526.177V346.934H527.589V329.179H527.166V327.445H537.51V329.179H537.087V346.934H538.499V358.927H541.555V337.939H549.69V351.619H553.31V328.29H561.023V349.416H566.663V331.475H570.802L574.563 335.926V349.416H579.266V359.817H584.156V320.888L586.366 317.468H592.526L594.689 321.122V350.447H597.98V342.997H597.18V341.969H609.783V342.997H608.984V356.115H614.25V339.111L622.244 333.113H626.759V345.62H630.144V337.329H631.272V335.736H641.428V337.329H642.559V352.791H645.802V319.668H647.307V318.592H650.034L650.788 310.487L651.446 318.685H654.079V319.761H656.055V336.722H660.896V319.761H662.636V318.685H665.363L666.021 310.487L666.681 318.685H669.315V319.761H671.007V359.862H676.789V346.23H678.813V333.068H680.976V326.087H690.098V333.068H692.261V346.23H694.282V351.853H705.334Z" fill="#B7EFE4"/>
</g>
<mask id="mask4_381_1742" style="mask-type:luminance" maskUnits="userSpaceOnUse" x="352" y="363" width="354" height="84">
<path d="M352.667 363.124H705.334V446.263H352.667V363.124Z" fill="white"/>
</mask>
<g mask="url(#mask4_381_1742)">
<path d="M705.334 398.105V445.843H352.667V398.713H363.903V393.841H365.972V382.458H368.183V376.369H377.54V382.412H379.751V393.796H381.821V405.6H387.745V376.838C391.223 376.838 394.704 376.79 398.185 376.79V385.55H403.12V376.742C406.6 376.742 410.081 376.742 413.559 376.742V399.557H416.898V386.205H418.075V384.801H428.466V386.16H429.64V393.327H433.121V382.506H437.73L445.91 387.705V402.415H451.319V391.031H450.471V390.142H463.403V391.031H462.558V397.495H465.942V372.153L468.153 368.967H488.279L490.535 371.918V381.147H494.625V396.699H500.411L500.363 377.493H509.578V372.715H510.142L511.647 369.716H517.668L519.173 372.715H519.737V377.773H520.959V392.717H535.302V363.486L546.867 376.462V402.415H556.414V388.125H557.59V386.767H567.981V388.125H569.155V373.839H584.439V398.947H590.457V386.629H598.121V404.804H601.274V394.403H602.73V379.038H602.26V377.538H612.839V379.038H612.371V394.403H613.828V405.552H616.696V401.057H618.153V389.252H619.704V382.974H626.289V389.252H627.839V401.057H629.296V410.661H634.047V391.593H641.525V380.724H643.546V379.6H646.037L646.556 369.95L647.072 379.6H649.563V380.724H651.587V403.539H654.549V370.184H659.156L667.339 376.931V396.84H672.886V385.643H683.326V402.463H688.264V385.643H698.704V398.105H705.334Z" fill="#76D6C8"/>
</g>
<mask id="mask5_381_1742" style="mask-type:luminance" maskUnits="userSpaceOnUse" x="352" y="377" width="354" height="70">
<path d="M352.667 377.88H705.334V446.263H352.667V377.88Z" fill="white"/>
</mask>
<g mask="url(#mask5_381_1742)">
<path d="M704.77 431.88V421.762L702.088 418.531H695.739V399.932H689.109V398.715H692.167V394.264H670.959V398.715H674.014V399.932H666.446V418.531H655.678V403.586H650.269V402.321H651.023C652.055 402.321 652.951 401.477 652.951 400.401C652.951 399.37 652.103 398.481 651.023 398.481H645.944C644.909 398.481 644.016 399.322 644.016 400.401C644.016 401.432 644.861 402.321 645.944 402.321H646.791V403.586H622.434V402.321H623.185C624.219 402.321 625.112 401.477 625.112 400.401C625.112 399.37 624.268 398.481 623.185 398.481H618.105C617.071 398.481 616.178 399.322 616.178 400.401C616.178 401.432 617.025 402.321 618.105 402.321H618.953V403.586H611.572V417.359H591.82V419.045H585.003V399.65H579.408V392.53H576.445V378.054H574.657V392.53H559.234V399.65H553.638V410.66H542.963V399.65H522.886V388.08H518.419V399.65H513.858V419.045H507.086V409.209H502.009V408.037H502.761C503.795 408.037 504.688 407.193 504.688 406.117C504.688 405.086 503.843 404.196 502.761 404.196H497.681C496.649 404.196 495.754 405.038 495.754 406.117C495.754 407.147 496.601 408.037 497.681 408.037H498.529V409.209H476.147V425.416H466.413V420.92H467.824V419.093H465.991L463.261 415.018H439.703L436.976 419.093H435.332V420.92H436.741V431.928H432.134V426.54H431.429V425.043H432.134V414.267H422.681V412.205H425.74V407.755H404.531V412.205H407.587V414.267H399.593V425.043H400.299V426.54H399.593V427.477H396.254V412.064H397.759V409.395H386.333V406.537H382.056V409.395H371.758V399.884H370.394V409.347H363.716V412.019H365.221V422.42H352.667V446.263H705.334V431.88H704.77ZM408.199 412.112H422.117V414.174H408.199V412.112ZM674.627 398.715H688.544V399.932H674.627V398.715Z" fill="#51B7AA"/>
</g>
<mask id="mask6_381_1742" style="mask-type:luminance" maskUnits="userSpaceOnUse" x="0" y="0" width="353" height="447">
<path d="M0 0.789551H352.667V446.263H0V0.789551Z" fill="white"/>
</mask>
<g mask="url(#mask6_381_1742)">
<path d="M0 0.789551H352.667V446.197H0V0.789551Z" fill="#197BBB"/>
</g>
<path d="M237.884 322.557C237.884 356.428 210.329 383.881 176.334 383.881C142.336 383.881 114.781 356.428 114.781 322.557C114.781 288.689 142.336 261.188 176.334 261.188C210.329 261.188 237.884 288.641 237.884 322.557Z" fill="#F7F9F8"/>
<mask id="mask7_381_1742" style="mask-type:luminance" maskUnits="userSpaceOnUse" x="0" y="302" width="353" height="145">
<path d="M0 302.396H352.667V446.263H0V302.396Z" fill="white"/>
</mask>
<g mask="url(#mask7_381_1742)">
<path d="M352.667 351.853V446.014H0V352.226H9.68575V323.229H24.5928V339.673H25.7209V338.08H35.8772V339.673H37.0054V356.163H46.317V326.228L57.6014 311.235V344.92H71.6127V327.68H72.7891V321.777H73.3078L77.4917 312.032L77.7723 303.085L78.0557 312.032L82.2396 321.777H82.7583V327.68H83.9346V351.15H90.5165V336.767H100.721V356.163H105.562V336.767H115.767V349.65H121.223V326.697L129.217 318.871H133.73V357.38H136.646V331.241H138.619V329.927H141.066L141.581 318.778L142.1 329.927H144.546V331.241H146.519V343.748H153.762V365.767H158.416V354.663H159.828V341.031H161.333V333.816H167.773V341.031H169.278V354.663H170.69V359.817H173.51V346.934H174.922V329.179H174.499V327.445H184.843V329.179H184.42V346.934H185.832V358.927H188.888V337.939H197.023V351.619H200.643V328.29H208.356V349.416H213.996V331.475H218.135L221.896 335.926V349.416H226.599V359.817H231.489V320.888L233.699 317.468H239.859L242.022 321.122V350.447H245.313V342.997H244.513V341.969H257.116V342.997H256.317V356.115H261.583V339.111L269.577 333.113H274.092V345.62H277.477V337.329H278.605V335.736H288.761V337.329H289.892V352.791H293.135V319.668H294.64V318.592H297.367L298.121 310.487L298.779 318.685H301.412V319.761H303.388V336.722H308.229V319.761H309.969V318.685H312.696L313.354 310.487L314.014 318.685H316.648V319.761H318.34V359.862H324.122V346.23H326.146V333.068H328.309V326.087H337.431V333.068H339.594V346.23H341.615V351.853H352.667Z" fill="#6E74A1"/>
</g>
<mask id="mask8_381_1742" style="mask-type:luminance" maskUnits="userSpaceOnUse" x="0" y="363" width="353" height="84">
<path d="M0 363.124H352.667V446.263H0V363.124Z" fill="white"/>
</mask>
<g mask="url(#mask8_381_1742)">
<path d="M352.667 398.105V445.842H0V398.712H11.2363V393.841H13.3055V382.457H15.5165V376.369H24.8734V382.412H27.0844V393.796H29.1536V405.6H35.0779V376.838C38.5559 376.838 42.0368 376.79 45.5176 376.79V385.55H50.4526V376.742C53.9335 376.742 57.4143 376.742 60.8924 376.742V399.557H64.2315V386.205H65.4079V384.801H75.7994V386.16H76.9729V393.327H80.4538V382.505H85.0628L93.2434 387.704V402.415H98.6518V391.031H97.8042V390.141H110.736V391.031H109.891V397.495H113.275V372.152L115.486 368.967H135.612L137.868 371.918V381.147H141.958V396.699H147.744L147.696 377.493H156.911V372.714H157.475L158.98 369.715H165.001L166.506 372.714H167.07V377.772H168.292V392.717H182.635V363.486L194.2 376.462V402.415H203.747V388.125H204.923V386.767H215.314V388.125H216.488V373.838H231.772V398.947H237.79V386.628H245.454V404.804H248.607V394.403H250.063V379.037H249.593V377.538H260.172V379.037H259.704V394.403H261.161V405.552H264.029V401.056H265.486V389.252H267.037V382.974H273.622V389.252H275.172V401.056H276.629V410.661H281.38V391.593H288.858V380.723H290.879V379.599H293.37L293.889 369.95L294.405 379.599H296.896V380.723H298.92V403.539H301.882V370.184H306.489L314.672 376.931V396.84H320.219V385.643H330.659V402.463H335.597V385.643H346.037V398.105H352.667Z" fill="#293378"/>
</g>
<mask id="mask9_381_1742" style="mask-type:luminance" maskUnits="userSpaceOnUse" x="0" y="377" width="353" height="70">
<path d="M0 377.88H352.667V446.263H0V377.88Z" fill="white"/>
</mask>
<g mask="url(#mask9_381_1742)">
<path d="M352.103 431.88V421.762L349.421 418.531H343.072V399.932H336.442V398.715H339.5V394.264H318.292V398.715H321.347V399.932H313.779V418.531H303.011V403.586H297.602V402.321H298.356C299.388 402.321 300.284 401.477 300.284 400.401C300.284 399.37 299.436 398.481 298.356 398.481H293.277C292.242 398.481 291.349 399.322 291.349 400.401C291.349 401.432 292.194 402.321 293.277 402.321H294.124V403.586H269.767V402.321H270.518C271.552 402.321 272.445 401.477 272.445 400.401C272.445 399.37 271.601 398.481 270.518 398.481H265.438C264.404 398.481 263.511 399.322 263.511 400.401C263.511 401.432 264.358 402.321 265.438 402.321H266.286V403.586H258.905V417.359H239.153V419.045H232.336V399.65H226.741V392.53H223.778V378.054H221.99V392.53H206.567V399.65H200.971V410.66H190.296V399.65H170.219V388.08H165.752V399.65H161.191V419.045H154.419V409.209H149.342V408.037H150.094C151.128 408.037 152.021 407.193 152.021 406.117C152.021 405.086 151.176 404.196 150.094 404.196H145.014C143.982 404.196 143.087 405.038 143.087 406.117C143.087 407.147 143.934 408.037 145.014 408.037H145.862V409.209H123.48V425.416H113.746V420.92H115.158V419.093H113.324L110.594 415.018H87.0357L84.3088 419.093H82.6648V420.92H84.0735V431.928H79.4673V426.54H78.7615V425.043H79.4673V414.267H70.014V412.205H73.0725V407.755H51.8642V412.205H54.9199V414.267H46.9264V425.043H47.6322V426.54H46.9264V427.477H43.5873V412.064H45.0924V409.395H33.6663V406.537H29.3889V409.395H19.0909V399.884H17.7274V409.347H11.0492V412.019H12.5543V422.42H0V446.263H352.667V431.88H352.103ZM55.5322 412.112H69.45V414.174H55.5322V412.112ZM321.96 398.715H335.877V399.932H321.96V398.715Z" fill="#1A1A4E"/>
</g>
<ellipse cx="74.0155" cy="253.055" rx="1.63272" ry="1.62663" fill="#FDFF95"/>
<ellipse cx="166.537" cy="216.185" rx="1.63272" ry="1.62663" fill="#FDFF95"/>
<ellipse cx="109.936" cy="173.893" rx="1.63272" ry="1.62663" fill="#FDFF95"/>
<ellipse cx="308.583" cy="147.866" rx="1.63272" ry="1.62663" fill="#FDFF95"/>
<ellipse cx="183.534" cy="138.533" rx="1.63272" ry="1.62663" fill="#FDFF95"/>
<ellipse cx="229.319" cy="55.6257" rx="1.63272" ry="1.62663" fill="#FDFF95"/>
<ellipse cx="109.289" cy="90.2734" rx="1.63272" ry="1.62663" fill="#FDFF95"/>
<ellipse cx="63.5038" cy="39.539" rx="1.63272" ry="1.62663" fill="#FDFF95"/>
<ellipse cx="312.226" cy="76.6615" rx="1.63272" ry="1.62663" fill="#FDFF95"/>
<ellipse cx="236.199" cy="184.737" rx="1.63272" ry="1.62663" fill="#FDFF95"/>
<ellipse cx="305.318" cy="241.669" rx="1.63272" ry="1.62663" fill="#FDFF95"/>
<ellipse cx="257.969" cy="216.185" rx="1.63272" ry="1.62663" fill="#FDFF95"/>
<ellipse cx="259.601" cy="254.682" rx="1.63272" ry="1.62663" fill="#FDFF95"/>
<ellipse cx="334.707" cy="183.11" rx="1.63272" ry="1.62663" fill="#FDFF95"/>
<ellipse cx="31.0214" cy="158.711" rx="1.63272" ry="1.62663" fill="#FDFF95"/>
<ellipse cx="55.5126" cy="289.383" rx="1.63272" ry="1.62663" fill="#FDFF95"/>
<rect y="0.789551" width="352.667" height="445.474" fill="white" fill-opacity="0.5"/>
<mask id="mask10_381_1742" style="mask-type:luminance" maskUnits="userSpaceOnUse" x="705" y="0" width="353" height="447">
<path d="M705.333 0.789551H1058V446.263H705.333V0.789551Z" fill="white"/>
</mask>
<g mask="url(#mask10_381_1742)">
<path d="M705.333 0.789551H1058V446.197H705.333V0.789551Z" fill="#FF891F"/>
</g>
<mask id="mask11_381_1742" style="mask-type:alpha" maskUnits="userSpaceOnUse" x="705" y="136" width="353" height="311">
<mask id="mask12_381_1742" style="mask-type:luminance" maskUnits="userSpaceOnUse" x="705" y="136" width="353" height="311">
<path d="M705.333 136.906H1058V446.263H705.333V136.906Z" fill="white"/>
</mask>
<g mask="url(#mask12_381_1742)">
<path d="M705.333 136.906H1058V446.217H705.333V136.906Z" fill="#FF891F"/>
</g>
</mask>
<g mask="url(#mask11_381_1742)">
<mask id="mask13_381_1742" style="mask-type:luminance" maskUnits="userSpaceOnUse" x="963" y="297" width="178" height="43">
<path d="M963.847 297.943H1140.83V339.498H963.847V297.943Z" fill="white"/>
</mask>
<g mask="url(#mask13_381_1742)">
<path d="M1132.5 325.005C1131.13 325.005 1129.85 325.292 1128.71 325.794C1127.43 321.833 1123.24 318.928 1118.28 318.928C1117.4 318.928 1116.54 319.024 1115.71 319.197C1114.4 313.544 1108.66 309.29 1101.78 309.29C1095.78 309.29 1090.65 312.523 1088.56 317.096C1085.74 314.364 1081.65 312.644 1077.09 312.644C1076.32 312.644 1075.57 312.694 1074.84 312.786C1073.95 304.478 1065.92 297.977 1056.14 297.977C1050.06 297.977 1044.65 300.492 1041.21 304.387C1039.83 304.033 1038.37 303.841 1036.86 303.841C1030.02 303.841 1024.23 307.711 1022.21 313.074C1020.97 312.791 1019.66 312.639 1018.31 312.639C1016.59 312.639 1014.94 312.887 1013.39 313.343C1010.79 310.853 1007.04 309.29 1002.87 309.29C995.991 309.29 990.248 313.544 988.94 319.197C988.113 319.024 987.258 318.928 986.368 318.928C981.399 318.928 977.216 321.833 975.937 325.794C974.802 325.288 973.516 325.005 972.155 325.005C967.564 325.005 963.841 328.243 963.841 332.234C963.841 336.226 967.564 339.464 972.155 339.464H1132.5C1137.09 339.464 1140.81 336.226 1140.81 332.234C1140.81 328.243 1137.09 325.005 1132.5 325.005Z" fill="white"/>
</g>
<mask id="mask14_381_1742" style="mask-type:luminance" maskUnits="userSpaceOnUse" x="643" y="211" width="178" height="42">
<path d="M643.29 211.189H820.27V252.744H643.29V211.189Z" fill="white"/>
</mask>
<g mask="url(#mask14_381_1742)">
<path d="M811.939 238.251C810.577 238.251 809.292 238.538 808.157 239.04C806.872 235.078 802.688 232.174 797.726 232.174C796.842 232.174 795.98 232.27 795.154 232.443C793.845 226.79 788.103 222.536 781.221 222.536C775.222 222.536 770.097 225.769 768.008 230.342C765.186 227.61 761.091 225.89 756.535 225.89C755.768 225.89 755.016 225.94 754.283 226.032C753.394 217.724 745.359 211.223 735.579 211.223C729.5 211.223 724.095 213.737 720.656 217.633C719.277 217.279 717.817 217.086 716.304 217.086C709.468 217.086 703.674 220.957 701.655 226.32C700.41 226.036 699.102 225.885 697.757 225.885C696.035 225.885 694.382 226.133 692.835 226.588C690.234 224.099 686.487 222.536 682.317 222.536C675.434 222.536 669.691 226.79 668.383 232.443C667.556 232.27 666.702 232.174 665.811 232.174C660.842 232.174 656.659 235.078 655.38 239.04C654.246 238.534 652.959 238.251 651.598 238.251C647.007 238.251 643.284 241.489 643.284 245.48C643.284 249.472 647.007 252.71 651.598 252.71H811.939C816.529 252.71 820.252 249.472 820.252 245.48C820.252 241.489 816.529 238.251 811.939 238.251Z" fill="white"/>
</g>
</g>
<path d="M943.217 322.557C943.217 356.429 915.662 383.881 881.667 383.881C847.669 383.881 820.114 356.429 820.114 322.557C820.114 288.689 847.669 261.189 881.667 261.189C915.662 261.189 943.217 288.641 943.217 322.557Z" fill="#FFB600"/>
<mask id="mask15_381_1742" style="mask-type:luminance" maskUnits="userSpaceOnUse" x="705" y="302" width="353" height="145">
<path d="M705.333 302.396H1058V446.263H705.333V302.396Z" fill="white"/>
</mask>
<g mask="url(#mask15_381_1742)">
<path d="M1058 351.853V446.014H705.333V352.226H715.019V323.229H729.926V339.673H731.054V338.081H741.21V339.673H742.338V356.163H751.65V326.228L762.934 311.236V344.92H776.946V327.68H778.122V321.778H778.641L782.825 312.032L783.105 303.085L783.389 312.032L787.573 321.778H788.091V327.68H789.268V351.15H795.85V336.767H806.054V356.163H810.895V336.767H821.1V349.651H826.556V326.697L834.55 318.872H839.063V357.38H841.979V331.241H843.952V329.928H846.399L846.914 318.778L847.433 329.928H849.879V331.241H851.852V343.748H859.095V365.767H863.749V354.663H865.161V341.032H866.666V333.816H873.106V341.032H874.611V354.663H876.023V359.817H878.843V346.934H880.255V329.179H879.832V327.445H890.176V329.179H889.753V346.934H891.165V358.927H894.221V337.939H902.356V351.619H905.976V328.29H913.689V349.416H919.329V331.475H923.468L927.229 335.926V349.416H931.932V359.817H936.821V320.888L939.032 317.468H945.192L947.355 321.122V350.447H950.646V342.997H949.846V341.969H962.449V342.997H961.65V356.115H966.916V339.111L974.91 333.113H979.425V345.621H982.81V337.329H983.938V335.737H994.094V337.329H995.225V352.791H998.468V319.668H999.973V318.592H1002.7L1003.45 310.487L1004.11 318.685H1006.74V319.761H1008.72V336.722H1013.56V319.761H1015.3V318.685H1018.03L1018.69 310.487L1019.35 318.685H1021.98V319.761H1023.67V359.862H1029.46V346.231H1031.48V333.068H1033.64V326.087H1042.76V333.068H1044.93V346.231H1046.95V351.853H1058Z" fill="#931616"/>
</g>
<mask id="mask16_381_1742" style="mask-type:luminance" maskUnits="userSpaceOnUse" x="705" y="363" width="353" height="84">
<path d="M705.333 363.124H1058V446.263H705.333V363.124Z" fill="white"/>
</mask>
<g mask="url(#mask16_381_1742)">
<path d="M1058 398.105V445.843H705.333V398.713H716.569V393.841H718.639V382.458H720.849V376.369H730.206V382.412H732.417V393.796H734.487V405.6H740.411V376.838C743.889 376.838 747.37 376.79 750.851 376.79V385.55H755.786V376.742C759.266 376.742 762.747 376.742 766.225 376.742V399.557H769.564V386.205H770.741V384.801H781.132V386.16H782.306V393.327H785.787V382.506H790.396L798.576 387.705V402.415H803.985V391.031H803.137V390.142H816.069V391.031H815.224V397.495H818.608V372.153L820.819 368.967H840.945L843.201 371.918V381.147H847.291V396.699H853.077L853.029 377.493H862.244V372.715H862.808L864.313 369.716H870.334L871.839 372.715H872.403V377.773H873.625V392.717H887.968V363.486L899.533 376.462V402.415H909.079V388.125H910.256V386.767H920.647V388.125H921.821V373.839H937.105V398.947H943.123V386.629H950.787V404.804H953.939V394.403H955.396V379.038H954.926V377.538H965.505V379.038H965.037V394.403H966.494V405.552H969.362V401.057H970.819V389.252H972.37V382.974H978.955V389.252H980.505V401.057H981.962V410.661H986.713V391.593H994.19V380.724H996.212V379.6H998.703L999.222 369.95L999.738 379.6H1002.23V380.724H1004.25V403.539H1007.22V370.184H1011.82L1020 376.931V396.84H1025.55V385.643H1035.99V402.463H1040.93V385.643H1051.37V398.105H1058Z" fill="#631212"/>
</g>
<mask id="mask17_381_1742" style="mask-type:luminance" maskUnits="userSpaceOnUse" x="705" y="377" width="353" height="70">
<path d="M705.333 377.88H1058V446.263H705.333V377.88Z" fill="white"/>
</mask>
<g mask="url(#mask17_381_1742)">
<path d="M1057.44 431.88V421.762L1054.75 418.531H1048.4V399.932H1041.77V398.715H1044.83V394.264H1023.62V398.715H1026.68V399.932H1019.11V418.531H1008.34V403.586H1002.94V402.321H1003.69C1004.72 402.321 1005.62 401.477 1005.62 400.401C1005.62 399.37 1004.77 398.481 1003.69 398.481H998.61C997.575 398.481 996.682 399.322 996.682 400.401C996.682 401.432 997.527 402.321 998.61 402.321H999.457V403.586H975.1V402.321H975.851C976.885 402.321 977.778 401.477 977.778 400.401C977.778 399.37 976.934 398.481 975.851 398.481H970.771C969.737 398.481 968.844 399.322 968.844 400.401C968.844 401.432 969.691 402.321 970.771 402.321H971.619V403.586H964.238V417.359H944.486V419.045H937.669V399.65H932.074V392.53H929.111V378.054H927.323V392.53H911.9V399.65H906.304V410.661H895.629V399.65H875.552V388.08H871.085V399.65H866.524V419.045H859.752V409.209H854.675V408.037H855.427C856.461 408.037 857.354 407.193 857.354 406.117C857.354 405.086 856.509 404.196 855.427 404.196H850.347C849.315 404.196 848.42 405.038 848.42 406.117C848.42 407.147 849.267 408.037 850.347 408.037H851.195V409.209H828.813V425.416H819.079V420.92H820.49V419.093H818.657L815.927 415.018H792.369L789.642 419.093H787.998V420.92H789.407V431.928H784.8V426.54H784.095V425.043H784.8V414.267H775.347V412.205H778.406V407.755H757.197V412.205H760.253V414.267H752.259V425.043H752.965V426.54H752.259V427.478H748.92V412.064H750.425V409.395H738.999V406.537H734.722V409.395H724.424V399.884H723.06V409.347H716.382V412.019H717.887V422.42H705.333V446.263H1058V431.88H1057.44ZM760.865 412.112H774.783V414.174H760.865V412.112ZM1027.29 398.715H1041.21V399.932H1027.29V398.715Z" fill="#470F09"/>
</g>
<rect x="705.333" y="0.789551" width="352.667" height="445.473" fill="white" fill-opacity="0.5"/>
<rect y="0.789551" width="1058" height="445.474" fill="white" fill-opacity="0.3"/>
</svg>
