<svg width="372" height="263" viewBox="0 0 372 263" fill="none" xmlns="http://www.w3.org/2000/svg">
<g filter="url(#filter0_d_402_580)">
<path d="M167.646 166.952C167.646 167.095 175.716 173.978 175.716 173.839C175.716 173.697 178.104 166.952 178.104 166.952L173.321 164.331L167.646 166.952Z" fill="#F9AA80"/>
<path d="M32.6026 146.686L42.6698 147.216L41.2019 155.742L31.9453 153.493L32.6026 146.686Z" fill="#F9AA80"/>
<path d="M105.176 133.789C105.176 133.789 80.0356 165.923 78.3486 167.233C76.6579 168.544 69.3403 166.861 67.9345 166.204C66.5287 165.546 41.1069 163.673 39.7011 163.111C38.2952 162.549 36.1372 146.906 35.9473 146.248C35.7611 145.595 60.7118 147.749 64.5569 150.09C64.2757 149.246 64.4656 148.498 64.838 148.403C65.2141 148.311 68.4055 148.593 68.4055 148.593C68.4055 148.593 78.9 116.835 88.6604 108.123C96.8252 106.903 105.176 133.789 105.176 133.789Z" fill="#DF6CBD"/>
<path d="M105.18 133.804C105.18 133.804 96.8293 106.918 88.6646 108.134C87.1127 109.521 85.5425 111.49 83.9979 113.823C83.8008 121.177 83.2384 133.614 81.6354 138.861C79.2875 146.544 92.6082 144.485 92.1408 145.419C91.6734 146.354 79.5723 152.821 77.7904 154.508C76.8666 155.381 83.7789 153.84 90.7204 152.149C97.7641 143.28 105.18 133.804 105.18 133.804Z" fill="#BC61A5"/>
<path d="M105.644 133.384C105.52 133.57 101.682 138.263 101.682 138.263C101.682 138.263 90.3224 127.388 87.6349 125.515C84.9438 123.642 105.644 133.384 105.644 133.384Z" fill="#A15790"/>
<path d="M104.377 48.0447C104.377 48.0447 109.679 46.3869 114.649 46.5257C119.622 46.6681 125.107 45.5909 125.201 44.3238C125.296 43.0604 121.309 22.4988 121.123 21.8196C120.933 21.1404 115.587 19.9683 115.116 19.1723C114.649 18.3763 114.649 13.0816 115.116 12.5192C115.587 11.9606 115.211 10.6935 116.62 10.741C118.026 10.7884 125.764 9.05031 127.031 10.741C128.298 12.428 127.265 20.2969 127.265 20.2969C127.265 20.2969 139.599 46.2628 136.722 52.6931C134.473 54.8803 116.087 65.3711 112.586 64.8088C109.084 64.2464 104.377 48.0447 104.377 48.0447Z" fill="#F9AA80"/>
<path d="M68.8113 68.6831C66.6861 68.8693 53.1792 71.9913 50.6122 71.2428C52.2408 78.9876 53.4896 93.4147 54.68 94.8497C56.115 94.5393 61.1176 93.2248 61.7456 94.4115C62.3701 95.5983 64.1228 102.719 63.4326 103.968C62.7462 105.216 52.3029 108.901 50.6122 107.466C48.9252 106.031 47.8626 97.037 47.8626 97.037C47.8626 97.037 33.7277 69.4316 37.1674 63.7499C40.797 59.9998 57.7436 53.6936 61.1833 53.9419C64.623 54.1939 68.8113 68.6831 68.8113 68.6831Z" fill="#F9AA80"/>
<path d="M88.6641 103.109C88.6641 103.109 83.6324 120.954 84.1326 123.452C84.6329 125.953 97.2014 130.2 102.142 134.009C107.082 137.817 122.342 139.628 124.467 141.877C126.592 144.127 126.406 151.806 137.225 155.118C148.041 158.426 164.115 171.794 164.864 172.419C165.616 173.043 174.369 165.112 174.621 164.86C174.869 164.612 173.744 162.739 173.12 162.801C172.495 162.863 151.295 143.564 150.919 140.567C150.543 137.569 115.149 109.653 114.648 108.404C114.148 107.152 110.989 103.858 110.989 103.858C110.989 103.858 104.829 102.065 88.6641 103.109Z" fill="#DF6CBD"/>
<path d="M89.7922 100.112C89.7922 100.112 89.0399 102.69 88.6638 103.109C88.2914 103.533 110.379 103.157 110.989 103.858C111.179 104.048 110.569 101.331 110.569 101.331L89.7922 100.112Z" fill="#353638"/>
<path d="M79.3567 47.9791C79.3567 47.9791 78.5351 48.0192 78.316 48.0448C78.0969 48.074 78.0677 48.7605 77.9399 48.9175C77.8158 49.0709 70.5931 45.8941 68.1868 48.0448C65.7768 50.1955 66.529 52.1929 66.1529 52.3207C65.7768 52.4449 60.0256 53.5074 59.2734 53.2884C62.3078 58.3165 66.6239 72.0863 67.0913 74.0216C68.53 71.6189 76.6582 71.3049 77.0015 71.4619C77.3484 71.6189 81.8178 91.5415 80.412 93.6959C79.0025 95.8503 89.5115 98.096 88.197 100.908C88.4782 101.47 110.332 102.219 110.617 102.219C110.898 102.219 112.68 99.783 112.68 98.9431C112.68 98.096 112.867 72.7107 108.178 67.7447C110.241 67.1823 115.116 67.4635 115.116 66.7149C115.116 65.9664 105.458 48.8591 104.987 47.2962C104.519 46.9493 100.389 49.5857 97.7639 48.0448C95.1385 46.5075 87.1965 48.0448 87.1965 48.0448L79.3567 47.9791Z" fill="#56A4C1"/>
<path d="M80.4745 43.8272L79.3571 47.979C79.3571 47.979 92.3236 51.4443 92.5354 51.28C92.7472 51.1157 92.5354 46.3395 92.5354 46.3395C92.5354 46.3395 97.6 47.4386 98.4691 44.3494C99.3381 41.2566 97.8118 33.1539 97.8118 33.1539C97.8118 33.1539 99.1482 32.3579 99.5463 31.4194C99.9443 30.4847 95.8181 26.9938 95.8181 26.9938C95.8181 26.9938 94.8577 19.5703 91.575 19.5703C88.2923 19.5703 76.0488 25.6829 76.0488 29.5243C76.0488 33.3657 80.4745 43.8272 80.4745 43.8272Z" fill="#F9AA80"/>
<path d="M80.4738 43.8237C80.4738 43.8237 83.9428 38.1127 84.0998 36.2359C82.8181 36.4549 80.8499 33.709 80.6309 31.4889C80.4118 29.2724 81.6314 27.6183 82.694 28.1186C83.7565 28.6188 84.5708 30.7732 84.6 31.4305C84.6329 32.0841 86.6631 33.238 86.6631 32.8034C86.6631 32.3653 85.1003 26.2453 85.1003 26.2453C85.1003 26.2453 86.3199 27.37 86.4148 26.9318C86.5098 26.4936 85.6626 22.5902 85.6626 22.5902C85.6626 22.5902 93.2614 19.3769 93.2322 18.9387C93.1993 18.5005 90.5118 19.2198 90.7601 19.1578C91.0121 19.092 91.7606 17.2188 91.7606 16.8756C91.7606 16.5323 84.7242 19.4682 84.7571 19.3769C84.7899 19.2819 85.4764 18.1573 85.4435 18.0623C85.4143 17.971 75.0952 19.4061 72.5939 28.1514C69.8115 30.7732 75.0002 39.2045 80.4738 43.8237Z" fill="#914839"/>
<path d="M93.0867 22.0499C92.4842 21.4693 91.5166 22.1119 90.9908 22.5136C90.2605 23.0686 89.6105 23.7405 89.1066 24.5073C88.6282 25.2376 89.4936 25.9643 90.0742 25.2632C90.4869 24.7629 90.9177 24.2809 91.418 23.861C91.6407 23.6748 91.8781 23.4885 92.1483 23.3717C92.4295 23.2549 92.6924 23.2622 92.9516 23.0869C93.3058 22.8422 93.4081 22.3639 93.0867 22.0499Z" fill="#914839"/>
<path d="M94.0097 29.1264C93.9804 28.6627 94.006 28.1296 93.7723 27.7206C93.5897 27.4029 93.0968 27.5271 92.9471 27.8009C92.633 28.3742 92.6696 29.2871 92.9434 29.8677C93.0237 30.0393 93.1625 30.1927 93.367 30.1927C93.9038 30.1853 94.0352 29.5536 94.0097 29.1264Z" fill="#38393B"/>
<path d="M94.4814 37.2946C94.1893 38.4887 93.7474 39.9602 93.9227 41.1944C94.014 41.8481 94.8392 41.8262 95.0328 41.2383C95.4198 40.0771 95.4454 38.737 95.6937 37.5283C95.858 36.736 94.6713 36.5278 94.4814 37.2946Z" fill="#B02E3B"/>
<path d="M84.7605 33.4972C84.5816 32.8436 84.0083 32.2667 83.6103 31.7226C83.1611 31.1055 82.7083 30.492 82.2629 29.8749C82.0146 29.528 81.591 30.021 81.7845 30.3277C82.1935 30.9813 82.6134 31.624 83.0552 32.2521C83.0771 32.2849 83.0991 32.3214 83.1246 32.358C83.1064 32.358 83.0881 32.3616 83.0698 32.3616C82.7193 32.3689 82.3761 32.3726 82.0511 32.5077C81.8794 32.5807 81.8174 32.9057 81.9853 33.0116C82.2775 33.1942 82.6244 33.227 82.9603 33.2781C83.2488 33.3183 83.519 33.3877 83.7892 33.3402C83.9608 33.5557 84.147 33.7455 84.3625 33.877C84.6144 34.0303 84.8262 33.7346 84.7605 33.4972Z" fill="#D27771"/>
<path d="M92.5345 46.3395C92.5345 46.3395 86.2795 45.9671 85.3192 39.9238C83.5372 42.9801 86.3598 48.7276 92.593 47.979C92.5966 48.1032 92.5345 46.3395 92.5345 46.3395Z" fill="#D27771"/>
<path d="M88.1932 100.904C88.4743 101.466 110.329 102.215 110.61 102.215C110.895 102.215 112.677 99.7791 112.677 98.9356C112.677 98.8517 112.677 98.5157 112.677 97.979C105.545 99.7463 93.9151 101.462 93.9151 98.8444C93.9151 95.1892 85.0967 83.5738 84.2532 84.1361C83.4097 84.6984 86.3163 93.5971 83.5959 92.7537C83.5521 91.5121 81.7117 87.6963 79.7217 83.8403C80.5141 88.4303 81.0216 92.75 80.4082 93.6884C78.9987 95.8465 89.5077 98.0922 88.1932 100.904Z" fill="#4989A6"/>
<path d="M97.1357 54.8111C103.515 58.2471 108.174 67.741 108.174 67.741C109.708 67.3248 112.79 67.3722 114.276 67.1166C113.232 65.4187 111.891 63.7317 110.581 63.4943C107.831 62.9941 104.453 54.1246 97.1357 54.8111Z" fill="#4989A6"/>
<mask id="mask0_402_580" style="mask-type:luminance" maskUnits="userSpaceOnUse" x="10" y="139" width="25" height="25">
<path d="M10 139.836H34.2131V163.206H10V139.836Z" fill="white"/>
</mask>
<g mask="url(#mask0_402_580)">
<path d="M33.3217 146.5C33.3217 146.5 32.8215 152.869 32.8215 153.12C32.8215 153.369 32.8836 159.46 32.1642 158.864C31.4449 158.273 29.2576 153.588 29.2576 153.588C29.2576 153.588 9.99594 164.144 10.4341 162.457C10.8723 160.77 27.2566 140.128 28.8523 140.629C30.4444 141.129 33.3217 146.5 33.3217 146.5Z" fill="#353638"/>
</g>
<mask id="mask1_402_580" style="mask-type:luminance" maskUnits="userSpaceOnUse" x="174" y="155" width="22" height="27">
<path d="M174.431 155.728H195.788V181.902H174.431V155.728Z" fill="white"/>
</mask>
<g mask="url(#mask1_402_580)">
<path d="M174.916 173.744C174.683 173.558 177.447 165.922 177.447 165.922C177.447 165.922 176.932 162.362 177.447 162.267C177.965 162.176 179.605 165.502 179.747 165.36C179.89 165.218 195.412 155.103 195.598 156.228C195.788 157.349 181.343 182.175 180.496 181.565C179.652 180.959 174.916 173.744 174.916 173.744Z" fill="#353638"/>
</g>
<path d="M114.791 16.9413C116.609 16.2695 118.515 15.9043 120.469 15.9481C121.214 15.9627 122.897 15.9007 123.489 16.3388C124.296 16.9377 123.536 16.9267 122.901 17.0472C122.134 17.1969 121.371 17.2736 120.589 17.2846C120.001 17.2955 119.731 18.2157 120.308 18.464C121.111 18.6466 121.531 19.1687 121.572 20.0342C121.363 20.8083 122.389 21.1917 122.598 20.4066C122.831 19.5375 122.682 18.8584 122.258 18.3326C123.361 18.2084 124.551 17.9382 124.946 17.1787C124.96 17.1458 124.967 17.1166 124.982 17.0837C125.884 17.102 126.892 16.8939 127.611 16.4046C127.644 15.74 127.666 15.0462 127.662 14.378C127.659 14.378 127.659 14.3743 127.655 14.3707C127.52 14.1881 127.348 14.0274 127.158 13.9069C126.702 13.6148 126.238 14.3816 126.651 14.6774C126.921 14.8673 127.027 15.1448 127.235 15.3821C127.239 15.3858 127.242 15.3894 127.246 15.3931C127.22 15.4187 127.199 15.4479 127.169 15.4698C126.556 15.9773 125.734 16.0577 124.971 16.2585C124.825 15.9554 124.54 15.7071 124.212 15.5392C124.102 15.4807 123.985 15.4296 123.861 15.3821C124.003 14.1954 124.109 13.0269 124.456 11.8657C124.646 11.2377 124.935 10.6461 125.212 10.0509C124.843 10.0144 124.445 9.99982 124.022 10.0035C123.302 11.5955 123.029 13.6075 123.182 15.1886C122.473 15.0316 121.674 14.9951 120.903 15.0097C121.133 14.042 120.969 13.0196 121.119 12.0264C121.221 11.3728 121.447 10.763 121.659 10.1495C121.247 10.1897 120.838 10.2372 120.436 10.2883C119.888 11.873 119.739 13.8923 120.363 15.0316C119.87 15.0572 119.403 15.101 118.994 15.1411C118.555 15.1886 118.121 15.258 117.694 15.3456C117.361 13.7207 117.854 12.1396 118.303 10.5768C117.8 10.6425 117.372 10.6973 117.051 10.7228C116.606 12.3441 116.489 14.1954 116.982 15.5099C116.226 15.7035 115.492 15.9664 114.772 16.2804C114.776 16.5068 114.783 16.7259 114.791 16.9413Z" fill="#D27771"/>
</g>
<g filter="url(#filter1_d_402_580)">
<path d="M261.2 143.424C261.2 143.424 263.665 139.981 266.254 140.094C271.07 133.364 282.876 119.85 282.876 119.85C282.876 119.85 281.262 117.349 282.876 110.842C284.489 104.338 290.894 91.3244 290.894 91.3244C290.894 91.3244 287.969 84.7481 288.513 84.7042C289.058 84.6641 290.978 87.001 291.062 86.8732C291.146 86.7491 295.904 80.034 296.156 81.1185C296.404 82.203 293.943 85.4163 294.067 85.3725C294.192 85.3323 299.413 82.0386 299.245 83.0392C299.077 84.0397 295.82 86.9572 295.82 86.9572C295.82 86.9572 300.29 85.7084 300.038 86.1247C299.789 86.541 297.076 88.5018 297.076 88.5018C297.076 88.5018 300.476 88.5018 300.049 89.17C299.621 89.8346 297.325 90.2947 297.325 90.2947L292.899 93.6322C292.899 93.6322 291.227 119.156 287.969 124.078C286.133 138.093 276.529 156.778 276.529 156.778L261.2 143.424Z" fill="#F9AA80"/>
<path d="M253.875 131.75C253.875 131.75 250.618 137.465 249.76 137.757C249.238 138.571 253.393 145.264 258.991 147.057C264.585 148.85 266.506 146.265 266.506 146.265C266.506 146.265 260.306 142.971 259.323 142.387C258.341 141.803 259.762 137.216 259.762 137.216C259.762 137.216 265.944 137.173 267.174 136.194C268.408 135.212 268.489 127.394 268.449 127.266C268.47 127.372 270.767 126.204 270.683 125.685C270.599 125.163 267.696 123.158 267.736 123.096C267.78 123.034 267.236 120.701 266.028 118.886C264.815 117.071 260.682 115.297 260.682 115.297C260.682 115.297 254.23 118.196 252.433 120.785C250.636 123.37 253.875 131.75 253.875 131.75Z" fill="#F9AA80"/>
<mask id="mask2_402_580" style="mask-type:luminance" maskUnits="userSpaceOnUse" x="348" y="213" width="14" height="19">
<path d="M348.041 213.679H361.961V231.44H348.041V213.679Z" fill="white"/>
</mask>
<g mask="url(#mask2_402_580)">
<path d="M349.294 223.651C349.294 223.651 361.943 212.97 361.943 213.723C361.943 214.471 353.592 230.793 352.953 230.709C352.31 230.629 348.469 224.845 348.469 224.845L349.294 223.651Z" fill="#56A4C1"/>
</g>
<path d="M203.142 231.794C203.142 231.794 199.483 227.347 198.983 227.347C198.479 227.347 194.305 244.615 194.013 246.283C193.721 247.952 198.508 253.207 198.577 252.706C198.647 252.206 198.062 248.16 198.062 248.032C198.062 247.908 203.423 233.894 203.81 233.518C204.201 233.145 203.142 231.794 203.142 231.794Z" fill="#56A4C1"/>
<path d="M264.498 221.676C264.498 221.676 255.037 233.131 242.509 238.469C241.954 238.579 240.895 240.079 240.004 240.247C239.113 240.415 215.952 232.853 203.81 233.518C203.201 233.076 202.978 231.849 203.142 231.794C203.31 231.739 216.339 225.455 224.693 225.733C233.044 226.01 241.063 230.293 241.063 230.293C241.063 230.293 250.918 214.669 253.31 212.887C255.706 211.108 264.498 221.676 264.498 221.676Z" fill="#F9AA80"/>
<path d="M273.747 211.163C273.747 211.163 302.7 202.378 305.369 201.655C306.096 201.932 308.378 203.269 308.378 203.269C308.378 203.269 308.1 211.218 315.896 215.611C323.689 220.007 348.19 224.345 348.468 224.842C348.745 225.346 349.414 223.732 349.414 223.732C349.414 223.732 315.896 202.1 313.611 199.208C312.333 196.039 308.601 195.148 308.601 195.148C308.601 195.148 300.64 187.363 279.593 189.809C275.306 192.424 273.747 211.163 273.747 211.163Z" fill="#F9AA80"/>
<path d="M269.57 217.115C269.57 217.115 266.09 221.563 265.506 221.785C265.477 221.815 265.031 223.063 264.838 223.147C264.641 223.231 260.854 223.038 256.458 219.339C252.058 215.64 249.523 210.663 249.523 210.163C249.523 209.662 252.978 211.415 253.201 210.634C253.423 209.856 253.117 208.771 253.923 208.83C254.73 208.885 254.76 209.023 254.76 208.384C254.76 207.745 255.176 205.963 256.929 204.601C258.685 203.239 269.57 217.115 269.57 217.115Z" fill="#D54180"/>
<path d="M248.062 137.406L249.76 137.757C249.76 137.757 260.076 147.934 266.506 146.265C274.189 149.935 277.03 154.342 278.366 158.063C279.703 161.78 280.703 177.215 280.203 179.716C279.703 182.218 276.698 190.142 276.698 190.142C276.698 190.142 261.496 193.979 261.076 193.479C260.66 192.979 262.165 189.893 262.165 189.893C262.165 189.893 260.028 171.994 249.278 162.883C250.472 151.271 248.062 137.406 248.062 137.406Z" fill="#DF6CBD"/>
<path d="M242.618 136.87C242.677 136.702 247.909 134.423 253.31 142.65C258.71 150.88 259.769 163.785 255.537 165.618C252.477 166.564 247.909 161.557 247.909 161.557L225.025 148.492C225.025 148.492 221.071 173.407 220.625 174.184C220.18 174.962 226.026 175.072 226.417 176.686C226.807 178.3 225.664 178.256 225.708 178.756C225.748 179.256 227.169 183.47 226.376 184.179C225.584 184.887 217.73 184.138 216.561 182.429C215.393 180.717 216.937 175.13 216.937 175.13C216.937 175.13 206.764 134.394 218.12 128.625C228.699 126.748 242.618 136.87 242.618 136.87Z" fill="#F9AA80"/>
<path d="M225.025 148.489C225.025 148.489 226.694 140.594 225.916 138.37C230.203 141.985 226.884 149.551 226.884 149.551L225.025 148.489Z" fill="#D27771"/>
<path d="M257.655 203.878C257.487 203.878 254.814 206.825 255.314 207.493C255.814 208.162 261.887 211.441 262.497 211.941C263.11 212.441 257.764 212.722 257.374 212.777C256.987 212.832 265.005 217.225 269.57 217.115C271.136 215.655 273.747 212.109 273.747 212.109L257.655 203.878Z" fill="#B3396C"/>
<path d="M260.66 192.756C260.828 192.756 279.688 189.031 280.335 189.309C279.425 191.81 278.312 212.722 278.757 213.946C278.925 215.169 275.694 213 275.248 213.445C274.803 213.887 274.025 215.669 272.853 214.946C271.684 214.223 270.57 213.223 269.734 213.223C268.902 213.223 258.656 210.217 256.483 204.715C254.314 199.208 260.66 192.756 260.66 192.756Z" fill="#D54180"/>
<path d="M244.882 159.83C244.882 159.83 253.755 165.286 255.595 163.504C257.432 161.725 252.532 150.771 249.914 148.379C253.7 157.446 244.882 159.83 244.882 159.83Z" fill="#D27771"/>
<path d="M256.673 123.202C256.673 123.202 258.634 126.434 258.908 126.08C259.178 125.725 258.141 120.679 258.141 120.679C258.141 120.679 258.908 121.826 259.178 121.471C259.452 121.117 259.284 118.448 259.43 117.988C259.576 117.531 262.705 117.239 262.665 116.965C262.625 116.695 260.952 116.443 261.434 116.133C261.913 115.819 265.086 114.442 265.068 114.256C265.046 114.066 261.935 113.61 261.935 113.61C261.935 113.61 263.227 111.919 263.103 111.795C262.979 111.671 258.615 112.127 256.965 114.172C252.831 114.318 248.508 117.926 247.57 121.639C246.631 125.349 249.198 125.769 249.198 125.769C249.198 125.769 253.624 132.188 253.894 131.896C254.168 131.604 254.354 129.873 254.354 129.873C254.354 129.873 255.044 130.604 255.19 130.417C255.336 130.231 256.841 126.624 256.841 126.624C256.841 126.624 254.398 126.726 253.938 124.349C253.478 121.972 255.566 121.658 256.673 123.202Z" fill="#353638"/>
<path d="M265.141 118.886C263.848 118.85 262.592 120.27 262.07 121.307C261.865 121.716 262.223 122.399 262.676 121.942C263.03 121.588 263.37 121.212 263.746 120.88C264.038 120.621 264.571 120.179 264.984 120.193C265.707 120.223 265.915 118.908 265.141 118.886Z" fill="#353638"/>
<path d="M264.432 123.71C264.184 123.666 263.903 123.845 263.841 124.097C263.709 124.615 263.618 125.207 263.906 125.689C264.009 125.857 264.239 125.893 264.403 125.824C264.604 125.74 264.717 125.557 264.753 125.346C264.819 124.999 264.75 124.634 264.794 124.279C264.823 124.031 264.691 123.757 264.432 123.71Z" fill="#353638"/>
<path d="M266.254 129.771C266.254 129.771 262.143 128.792 261.558 128.855C261.306 128.917 261.887 132.546 263.822 132.754C265.754 132.962 266.152 130.772 266.254 129.771Z" fill="white"/>
<path d="M257.239 124.977C256.6 124.363 255.771 123.826 254.931 123.538C254.672 123.45 254.463 123.874 254.686 124.027C255.073 124.297 255.46 124.568 255.844 124.838C255.705 124.871 255.57 124.915 255.438 124.969C255.227 125.061 255.296 125.422 255.537 125.389C255.836 125.349 256.136 125.313 256.435 125.305C256.45 125.302 256.461 125.298 256.472 125.294C256.596 125.386 256.724 125.473 256.848 125.568C257.191 125.827 257.509 125.236 257.239 124.977Z" fill="#D27771"/>
<path d="M279.057 161.05C275.844 162.605 272.663 164.23 269.548 165.961C265.572 168.174 261.683 170.562 257.999 173.235C257.772 173.399 257.542 173.564 257.309 173.728C257.44 173.995 257.561 174.257 257.685 174.524C258.539 173.925 259.405 173.337 260.274 172.76C263.816 170.412 267.482 168.262 271.221 166.25C273.857 164.833 276.534 163.493 279.232 162.193C279.174 161.795 279.115 161.415 279.057 161.05Z" fill="#FCF2AF"/>
<path d="M268.945 160.462C271.596 158.633 274.368 156.971 277.241 155.514C277.066 155.193 276.876 154.871 276.668 154.547C273.86 155.993 271.151 157.632 268.569 159.45C263.91 162.733 259.597 166.516 255.672 170.664C255.833 170.934 255.99 171.205 256.139 171.475C260.061 167.429 264.275 163.683 268.945 160.462Z" fill="#FCF2AF"/>
<path d="M261.909 201.461C262.456 198.273 263.304 195.137 264.341 192.062C264.063 192.117 263.793 192.168 263.537 192.215C262.467 195.432 261.595 198.708 260.81 202.034C260.747 202.297 260.963 202.619 261.24 202.622C266.929 202.67 272.619 202.571 278.308 202.732C278.545 202.739 278.782 202.75 279.02 202.757C279.045 202.323 279.071 201.885 279.096 201.45C278.885 201.443 278.673 201.439 278.465 201.432C272.954 201.286 267.415 201.191 261.909 201.461Z" fill="#FCF2AF"/>
<path d="M266.608 191.631C266.364 191.679 266.119 191.723 265.882 191.77C265.414 194.074 264.962 196.378 264.198 198.595C264.056 199.011 264.304 199.413 264.753 199.358C268.956 198.872 273.101 198.186 277.333 197.948C278.001 197.908 278.669 197.883 279.341 197.857C279.374 197.386 279.411 196.922 279.447 196.47C274.667 196.586 269.876 197.036 265.305 198.04C265.56 196.137 266.068 194.239 266.459 192.365C266.51 192.121 266.557 191.876 266.608 191.631Z" fill="#FCF2AF"/>
<path d="M257.819 130.527C257.834 130.49 257.593 135.256 263.165 135.701C256.706 137.841 256.819 133.824 257.819 130.527Z" fill="#D27771"/>
</g>
<defs>
<filter id="filter0_d_402_580" x="0.426758" y="0" width="205.174" height="191.577" filterUnits="userSpaceOnUse" color-interpolation-filters="sRGB">
<feFlood flood-opacity="0" result="BackgroundImageFix"/>
<feColorMatrix in="SourceAlpha" type="matrix" values="0 0 0 0 0 0 0 0 0 0 0 0 0 0 0 0 0 0 127 0" result="hardAlpha"/>
<feOffset/>
<feGaussianBlur stdDeviation="5"/>
<feComposite in2="hardAlpha" operator="out"/>
<feColorMatrix type="matrix" values="0 0 0 0 0 0 0 0 0 0 0 0 0 0 0 0 0 0 0.3 0"/>
<feBlend mode="normal" in2="BackgroundImageFix" result="effect1_dropShadow_402_580"/>
<feBlend mode="normal" in="SourceGraphic" in2="effect1_dropShadow_402_580" result="shape"/>
</filter>
<filter id="filter1_d_402_580" x="184" y="71" width="187.942" height="191.74" filterUnits="userSpaceOnUse" color-interpolation-filters="sRGB">
<feFlood flood-opacity="0" result="BackgroundImageFix"/>
<feColorMatrix in="SourceAlpha" type="matrix" values="0 0 0 0 0 0 0 0 0 0 0 0 0 0 0 0 0 0 127 0" result="hardAlpha"/>
<feOffset/>
<feGaussianBlur stdDeviation="5"/>
<feComposite in2="hardAlpha" operator="out"/>
<feColorMatrix type="matrix" values="0 0 0 0 0 0 0 0 0 0 0 0 0 0 0 0 0 0 0.3 0"/>
<feBlend mode="normal" in2="BackgroundImageFix" result="effect1_dropShadow_402_580"/>
<feBlend mode="normal" in="SourceGraphic" in2="effect1_dropShadow_402_580" result="shape"/>
</filter>
</defs>
</svg>
