<svg width="322" height="257" viewBox="0 0 322 257" fill="none" xmlns="http://www.w3.org/2000/svg">
<g filter="url(#filter0_d_402_581)">
<path d="M53.9245 105.73C53.9245 105.73 50.2182 136.841 46.5996 143.096C35.4807 155.789 19.9071 171.384 19.0234 172.356C18.1434 173.323 17.833 175.66 17.833 175.66L16.0693 171.695C16.0693 171.695 17.6577 170.106 18.2748 169.139C18.8919 168.167 33.7171 132.594 40.7754 133.529C39.4536 125.295 36.9815 105.292 36.9815 103.616C36.9815 101.944 53.9245 105.73 53.9245 105.73Z" fill="#F9AA80"/>
<path d="M37.6201 105.132C37.6201 105.132 39.5189 109.787 44.7369 111.372C49.9549 112.957 53.0879 112.164 53.0879 112.164L54.2345 104.102L37.6201 105.132Z" fill="#D27771"/>
<path d="M45.2778 107.436C45.2778 107.436 44.1605 108.677 54.9835 106.884C65.8066 105.084 86.5727 100.034 86.5727 100.034C86.5727 100.034 80.9859 103.006 76.9875 108.305C72.9855 113.603 67.5995 128.881 65.9088 130.053C64.985 130.17 66.4566 133.697 66.4566 133.522C66.4566 133.343 67.8076 130.878 67.8076 130.878C67.8076 130.878 93.3974 105.204 96.1031 101.327C98.8125 97.4487 100.105 93.5014 99.2799 92.3585C98.4583 91.2192 71.9776 86.4905 60.1869 87.2683C48.3962 88.0497 45.2778 107.436 45.2778 107.436Z" fill="#F9AA80"/>
<mask id="mask0_402_581" style="mask-type:luminance" maskUnits="userSpaceOnUse" x="79" y="52" width="41" height="36">
<path d="M79.6787 52.2102H119.444V87.732H79.6787V52.2102Z" fill="white"/>
</mask>
<g mask="url(#mask0_402_581)">
<path d="M83.8046 52.3015C83.8046 52.3015 84.104 52.3709 85.9553 55.9859C87.8103 59.5972 96.1941 75.9012 96.5885 76.0326C96.9865 76.1641 110.753 63.2998 110.928 62.7266C111.103 62.1533 111.103 54.266 112.166 53.6489C113.225 53.0318 119.443 57.881 119.268 60.5685C119.093 63.256 113.619 65.3702 113.619 65.3702C113.619 65.3702 99.9442 87.2245 97.6474 87.2683C95.3543 87.3121 80.6606 71.9356 80.573 71.6727C80.4854 71.4062 83.8046 52.3015 83.8046 52.3015Z" fill="#F9AA80"/>
</g>
<path d="M83.4429 51.272C83.4429 51.272 84.7209 51.9731 84.3667 55.4566C84.0162 58.9365 83.9358 66.0314 83.9358 66.0314C83.9358 66.0314 80.6604 62.42 83.4429 51.272Z" fill="#82AD4F"/>
<path d="M63.0571 58.0126L63.4112 56.9537C63.4112 56.9537 47.1584 52.0351 46.3368 52.2688C45.5116 52.5062 36.098 70.7162 35.689 71.5414C35.2764 72.363 37.2008 76.6499 37.2482 77.4423C37.292 78.2383 35.0865 81.1449 34.3781 80.9258C33.6734 80.7031 29.1711 79.0745 28.8644 78.2383C28.554 77.3985 32.2165 70.7016 32.2165 70.7016C32.2165 70.7016 39.3186 44.5203 40.1585 43.6659C40.9983 42.8114 73.6026 44.2209 75.7205 45.5427C77.8383 46.8646 81.1941 49.6835 80.9932 57.925C80.7924 66.1664 73.8655 68.9854 68.4394 67.2655C63.0132 65.5493 63.0571 58.0126 63.0571 58.0126Z" fill="#F9AA80"/>
<path d="M39.0992 92.6323C39.0992 92.6323 52.555 80.0894 52.8216 80.0894C53.0881 80.0894 54.1434 77.8401 54.1434 77.8401C54.1434 77.8401 63.4255 83.7008 63.1444 84.4055C62.8669 85.1102 61.5048 85.9464 61.5048 85.9464L61.2492 86.611C61.2492 86.611 45.9166 95.5097 44.7371 106.833C42.3198 107.187 40.3261 105.511 40.3261 105.511C40.3261 105.511 36.4519 96.5394 39.0992 92.6323Z" fill="#5A7A8B"/>
<path d="M61.5046 85.9465C61.5046 85.9465 54.658 80.8234 52.8213 80.0895C52.9491 79.9982 54.2198 78.0008 54.1431 77.8402C54.0701 77.6795 63.1587 83.9966 62.925 84.8766C62.8666 85.1103 61.5046 85.9465 61.5046 85.9465Z" fill="#4C6777"/>
<path d="M36.1593 102.002C36.1593 102.002 36.0972 95.5683 39.0987 92.6324C38.0982 101.268 43.864 107.436 43.864 107.436C43.864 107.436 36.3345 104.321 36.1593 102.002Z" fill="#4C6777"/>
<path d="M77.2208 45.5425H75.7201C75.7201 45.5425 81.588 49.11 79.9558 58.8047C78.3236 68.4995 71.3309 66.8673 67.3691 64.4901C63.4108 62.1094 63.0566 58.0124 63.0566 58.0124C63.0566 58.0124 54.7495 75.7112 53.9242 76.2407C53.099 76.7665 53.3363 78.1796 53.3363 78.1796C53.3363 78.1796 61.9247 83.2296 62.8668 85.1102C65.3973 85.9318 67.3946 83.1128 67.3946 83.1128C67.3946 83.1128 77.3961 75.7112 80.5145 74.5354C83.6329 73.3596 84.1477 65.3701 84.1477 65.3701C84.1477 65.3701 81.924 52.6812 81.924 50.2712C81.924 47.8648 77.2208 45.5425 77.2208 45.5425Z" fill="#82AD4F"/>
<path d="M80.3976 41.9057C80.3976 41.9057 78.3455 45.4111 77.2208 45.5426C79.8901 48.5149 82.1613 52.0641 81.8509 56.5117C81.5442 60.9629 81.0367 64.0265 83.6402 65.2169C83.2422 60.9446 83.1326 54.0907 84.1477 50.567C85.1629 47.0397 87.7226 45.3673 87.7226 45.3673C87.7226 45.3673 93.0611 46.3349 94.4267 45.2358C95.796 44.1331 96.676 36.8629 96.676 36.8629C96.676 36.8629 98.3996 35.6287 98.3996 35.2745C98.3996 34.924 94.8649 31.8823 94.843 30.8708C94.8247 29.8557 93.1487 25.9778 91.626 24.9006C90.1033 23.8198 81.9386 22.8485 77.9256 25.4045C73.9126 27.9606 80.3976 41.9057 80.3976 41.9057Z" fill="#F9AA80"/>
<mask id="mask1_402_581" style="mask-type:luminance" maskUnits="userSpaceOnUse" x="42" y="18" width="50" height="26">
<path d="M42.2871 18.8647H91.8307V43.7972H42.2871V18.8647Z" fill="white"/>
</mask>
<g mask="url(#mask1_402_581)">
<path d="M91.6264 24.9005C91.6264 24.9005 87.5879 24.6778 86.905 24.5464C86.2222 24.4149 89.0886 26.3758 88.3839 26.9235C87.6792 27.4749 85.8242 27.431 85.5832 27.8948C85.3386 28.3585 86.927 29.9652 86.3098 30.407C85.6927 30.8452 84.5024 30.2975 84.3453 30.9365C84.192 31.5755 84.9405 32.0137 84.7872 32.6089C84.6338 33.2041 83.9291 33.9964 83.9291 33.9964C83.9291 33.9964 83.3521 29.9433 80.9275 31.3747C78.4993 32.8097 79.5801 36.443 83.0892 37.4106C82.7569 39.5723 81.059 39.397 80.7267 39.8133C80.3981 40.2332 80.8399 41.157 80.3981 41.9056C79.0726 41.2447 76.8232 41.4893 73.3835 42.6359C69.9402 43.7788 68.7498 44.3959 66.0586 42.1503C63.3675 39.9046 59.1755 38.8018 55.2027 38.4914C51.2335 38.1847 46.7349 36.0267 45.895 35.0554C46.7787 34.0877 55.1589 34.4821 54.5418 33.8212C53.9247 33.1602 44.7923 30.5166 44.8361 30.1624C44.8799 29.8118 46.6436 29.1071 46.6436 28.9318C46.6436 28.7529 43.1162 27.5223 43.1162 27.5223C43.1162 27.5223 48.9842 22.936 56.6596 22.8922C64.3388 22.8521 70.5134 23.2464 72.4122 21.176C74.3074 19.1056 76.469 18.8829 80 20.1171C83.5311 21.3513 82.8665 19.2371 86.7517 20.2485C90.6332 21.2636 91.6264 24.9005 91.6264 24.9005Z" fill="#353638"/>
</g>
<path d="M90.3408 39.963C90.3408 39.963 94.3392 39.419 94.7664 39.8425C95.19 40.299 93.839 42.2379 92.1921 42.0773C90.5453 41.9166 90.3408 39.963 90.3408 39.963Z" fill="white"/>
<path d="M93.9626 30.4583C92.732 29.728 90.8588 31.1229 90.008 31.9371C89.7816 32.1562 89.9386 32.6747 90.2928 32.4776C90.8771 32.1489 91.465 31.7874 92.0894 31.5355C92.6736 31.3018 93.3345 31.3127 93.8895 31.0389C94.0721 30.9476 94.1707 30.5824 93.9626 30.4583Z" fill="#353638"/>
<path d="M92.7143 34.9423C92.6742 34.6429 92.6851 34.3398 92.6121 34.044C92.5025 33.6168 91.9512 33.8104 91.8416 34.1244C91.67 34.61 91.7138 35.4097 92.0826 35.7895C92.1995 35.9136 92.3309 35.899 92.4441 35.826C92.4514 35.8296 92.477 35.815 92.5244 35.7785C92.5573 35.7566 92.5865 35.731 92.6048 35.6982C92.6778 35.6178 92.707 35.5266 92.7289 35.4243C92.7581 35.26 92.7362 35.1066 92.7143 34.9423Z" fill="#353638"/>
<path d="M83.494 35.6069C83.3626 35.0446 82.9171 34.5918 82.552 34.1572C82.2051 33.7446 81.8472 33.1933 81.3397 32.9705C81.106 32.8646 80.9489 33.1933 81.0074 33.3758C81.1607 33.8761 81.5697 34.2924 81.902 34.7013C81.7267 34.7597 81.5441 34.8036 81.3944 34.9131C81.2046 35.0482 81.106 35.4207 81.3871 35.5266C81.577 35.5959 81.7742 35.5631 81.9714 35.5375C82.132 35.5156 82.289 35.4754 82.4388 35.4134C82.6286 35.6507 82.8404 35.8662 83.0997 35.9867C83.3078 36.0852 83.5379 35.8004 83.494 35.6069Z" fill="#D27771"/>
<path d="M61.4537 87.0493C61.2784 87.1077 47.5122 95.802 46.0991 108.553C44.6896 108.845 43.2765 107.144 43.1596 106.848C43.0428 106.556 47.158 87.8746 61.4537 86.1693C61.5705 86.3446 61.4537 87.0493 61.4537 87.0493Z" fill="#ABC9D5"/>
<path d="M43.631 106.906C43.631 106.906 36.4521 102.353 36.16 102.002C35.8642 101.648 35.9227 103.733 35.9227 103.733C35.9227 103.733 40.3154 107.91 44.7374 108.305C44.5402 107.79 43.631 106.906 43.631 106.906Z" fill="#ABC9D5"/>
<path d="M63.4106 56.9535C63.3339 56.7417 72.868 59.8491 72.868 59.8491C72.868 59.8491 66.277 65.1657 63.4106 56.9535Z" fill="#D27771"/>
<mask id="mask2_402_581" style="mask-type:luminance" maskUnits="userSpaceOnUse" x="110" y="54" width="10" height="10">
<path d="M110.526 54.0798H119.443V63.4277H110.526V54.0798Z" fill="white"/>
</mask>
<g mask="url(#mask2_402_581)">
<path d="M118.976 61.5581C118.735 61.6859 118.49 61.7954 118.242 61.8575C117.395 62.0693 116.88 61.7114 116.42 61.1126C117.369 60.6233 118.187 59.9332 118.917 59.159C118.826 58.9728 118.72 58.7829 118.6 58.593C117.884 59.3745 117.099 60.05 116.212 60.6342C116.12 59.9952 115.872 59.3453 115.518 58.7282C116.047 58.195 116.573 57.6692 117.077 57.1142C117.139 57.0485 117.201 56.9827 117.267 56.917C117.139 56.7819 117.008 56.6468 116.876 56.519C116.781 56.6358 116.694 56.749 116.602 56.8513C116.164 57.3661 115.752 57.8993 115.332 58.4287C114.978 57.8774 114.539 57.3552 114.039 56.9024C114.379 56.4387 114.722 55.9822 115.047 55.5075C115.127 55.387 115.215 55.2665 115.302 55.146C115.156 55.0328 115.014 54.9269 114.872 54.821C114.813 54.9123 114.755 55.0036 114.696 55.0913C114.36 55.5952 114.039 56.1137 113.721 56.6322C113.05 56.0845 112.294 55.6645 111.523 55.4308C111.49 55.6207 111.461 55.8216 111.436 56.0333C112.144 56.3182 112.794 56.7235 113.378 57.2676C114.295 58.1147 115.321 59.3672 115.595 60.6379C114.525 60.4005 113.239 59.0787 112.451 58.5529C112.199 58.3849 111.983 58.7866 112.177 58.9728C112.809 59.5899 113.542 60.1084 114.276 60.6014C114.795 60.9483 115.273 61.3718 115.912 61.339C115.945 61.3353 115.974 61.3317 116 61.3207C116.369 62.0036 116.836 62.6316 117.698 62.6243C117.877 62.6243 118.048 62.5951 118.22 62.5549C118.527 62.2372 118.79 61.905 118.976 61.5581Z" fill="#D27771"/>
</g>
<path d="M96.5879 76.0327C96.5879 76.0327 98.7824 80.5569 98.9869 80.5569C99.1914 80.5569 101.956 77.9717 96.5879 76.0327Z" fill="#D27771"/>
<path d="M66.5112 133.361C66.5112 133.361 66.0146 145.919 65.7189 145.652C65.4267 145.389 61.3663 131.963 61.3371 131.641C61.3078 131.316 65.7736 129.995 65.9087 130.053C66.0438 130.111 66.5112 133.361 66.5112 133.361Z" fill="#4989A6"/>
<mask id="mask3_402_581" style="mask-type:luminance" maskUnits="userSpaceOnUse" x="10" y="170" width="9" height="23">
<path d="M10.7744 170.928H18.9173V192.034H10.7744V170.928Z" fill="white"/>
</mask>
<g mask="url(#mask3_402_581)">
<path d="M18.0556 174.536C18.0556 174.536 18.1871 192.008 17.7891 191.92C17.391 191.829 10.7745 172.973 10.9936 172.531C11.2163 172.089 16.4563 171.293 16.4563 171.293L18.0556 174.536Z" fill="#4989A6"/>
</g>
</g>
<g filter="url(#filter1_d_402_581)">
<mask id="mask4_402_581" style="mask-type:luminance" maskUnits="userSpaceOnUse" x="117" y="83" width="67" height="74">
<path d="M117.833 83.595H183.199V156.508H117.833V83.595Z" fill="white"/>
</mask>
<g mask="url(#mask4_402_581)">
<path d="M136.923 84.424C136.923 84.424 139.176 88.5867 139.373 90.9054C139.833 91.6904 141.498 93.7426 141.856 94.4948C142.214 95.2434 139.994 96.6784 139.994 96.6784C139.994 96.6784 140.093 102.218 137.807 104.533C137.153 105.055 131.763 103.945 131.763 103.945C131.763 103.945 130.65 107.629 130.748 110.105C130.847 112.581 133.33 116.689 134.411 118.01C135.488 119.329 136.861 121.578 137.595 125.051C138.329 128.52 144.504 144.948 145.778 146.072C147.052 147.197 168.761 145.145 170.619 144.458C172.481 143.775 177.334 137.028 178.167 136.98C178.999 136.929 183.166 143.334 182.282 144.849C181.402 146.364 172.533 148.468 172.383 148.369C172.237 148.274 150.875 157.56 140.878 155.311C138.917 154.825 129.313 141.625 128.824 139.47C128.335 137.32 118.337 104.858 118.337 104.858C118.337 104.858 120.345 87.7979 120.615 87.3817C120.886 86.9654 136.923 84.424 136.923 84.424Z" fill="#F9AA80"/>
</g>
<path d="M120.615 152.915C120.615 152.915 118.68 155.632 117.92 156.34C117.161 157.049 103.928 145.634 103.928 145.634C103.928 145.634 105.593 141.599 105.472 141.088C105.352 140.573 120.615 152.915 120.615 152.915Z" fill="#F9AA80"/>
<path d="M132.716 84.9606C132.497 85.3988 130.193 86.7937 131.175 88.4077C132.154 90.0216 129.288 92.417 129.262 92.5156C128.283 89.8756 125.833 87.7723 124.705 90.9747C123.58 94.177 127.794 96.2292 128.576 96.3022C129.361 96.3752 126.764 104.664 124.804 104.127C122.846 103.587 122.499 107.012 120.294 108.086C118.092 109.163 112.571 108.086 112.319 105.544C112.162 104.372 106.378 104.613 106.331 102.462C106.279 100.312 100.89 101.046 100.842 100.702C100.795 100.363 103.833 97.0362 106.721 98.5041C109.613 99.9683 108.978 94.6882 111.866 94.4947C114.758 94.2975 115.887 92.3915 115.887 91.5589C115.887 90.73 115.394 87.9366 115.394 87.9366C115.394 87.9366 113.729 79.1109 118.205 77.7416C122.682 76.3723 123.398 77.7416 124.606 75.7223C125.819 73.6994 130.715 75.9159 132.023 75.7223C133.33 75.5252 134.929 76.6352 135.028 79.5016C135.126 82.3681 132.716 84.9606 132.716 84.9606Z" fill="#82414A"/>
<path d="M126.374 221.067C126.374 221.067 139.636 235.33 148.13 239.825C147.998 239.956 148.13 241.519 148.13 241.519C148.13 241.519 157.536 241.716 157.342 241.519C157.145 241.325 149.696 239.043 149.174 238.521C148.652 237.999 138.672 218.379 138.672 218.379C138.672 218.379 129.248 219.066 126.374 221.067Z" fill="#F9AA80"/>
<path d="M71.3934 207.038C71.3934 207.038 53.9501 212.318 48.9512 216.426C49.2945 216.375 48.4619 221.067 48.4619 221.067L52.1353 217.89C52.1353 217.89 74.1356 218.434 74.4314 218.478C74.7272 218.522 76.8816 208.553 71.3934 207.038Z" fill="#F9AA80"/>
<path d="M109.614 122.604L109.735 121.41C109.735 121.41 92.3644 117.813 90.7979 117.912C89.2277 118.01 72.0803 141.135 71.4413 141.964C70.8059 142.797 70.4882 146.047 70.0208 148.468C69.5571 150.889 65.9056 157.096 65.1936 158.809C65.0219 158.882 65.4163 155.971 65.4163 155.971C65.4163 155.971 61.6187 161.058 61.2974 160.616C60.9797 160.178 63.6526 155.314 63.6526 155.314C63.6526 155.314 58.5296 158.319 58.5551 157.805C58.5807 157.293 61.5201 153.554 61.5201 153.554C61.5201 153.554 57.4268 155.362 57.4268 154.752C57.4268 154.138 60.8337 151.451 60.7606 151.451C60.6876 151.451 56.0575 152.305 56.251 151.915C56.4482 151.524 61.1039 149.764 61.1039 149.764C61.1039 149.764 66.6395 142.552 67.7934 142.015C68.0855 137.517 78.7443 111.704 82.5163 109.846C86.2883 107.987 113.437 104.858 118.925 106.862C124.625 108.184 133.82 127.004 128.774 133.752C123.727 140.5 109.614 122.604 109.614 122.604Z" fill="#F9AA80"/>
<path d="M109.614 122.604C109.614 122.604 124.95 133.555 126.958 131.503C128.97 129.451 125.932 109.112 118.925 106.862C119.071 106.618 123.727 109.21 123.727 109.21C123.727 109.21 126.958 115.615 130.245 118.989C133.528 122.363 132.008 127.201 133.184 127.398C134.36 127.592 135.879 127.004 135.879 127.004C135.879 127.004 137.055 134.095 135.879 137.955C134.703 141.818 131.077 142.552 131.077 142.552C131.077 142.552 120.444 152.674 120.444 153.649C116.424 149.494 102.362 141.917 101.139 138.787C102.409 138.444 102.804 138.835 102.997 138.349C103.194 137.86 108.635 127.004 108.734 126.369C108.829 125.733 109.614 122.604 109.614 122.604Z" fill="#D54180"/>
<path d="M103.928 145.63C103.928 145.63 117.015 152.013 118.384 155.873C118.435 156.804 115.642 158.44 115.642 158.44C115.642 158.44 112.848 163.282 112.209 163.329C114.857 167.485 129.51 183.767 129.605 199.8C131.566 202.539 132.252 206.256 132.252 206.256C132.252 206.256 138.036 217.452 138.672 218.379C132.3 220.483 126.374 221.067 126.374 221.067C126.374 221.067 117.161 213.589 121.521 203.762C113.535 198.092 102.704 190.12 102.704 190.12C102.704 190.12 97.1651 217.696 93.7364 219.259C90.3076 220.822 74.4309 218.478 74.4309 218.478C74.4309 218.478 70.0199 211.438 71.3928 207.038C75.6541 205.376 83.4464 208.148 83.4464 208.148C83.4464 208.148 78.5461 179.955 82.6614 167.141C84.0343 157.757 98.7353 149.249 101.576 149.055C101.971 148.077 103.928 145.63 103.928 145.63Z" fill="#353638"/>
<path d="M102.705 190.12C102.705 190.12 89.3919 182.266 85.5396 175.489C83.7759 189.113 101.628 195.178 101.628 195.178L102.705 190.12Z" fill="#242526"/>
<mask id="mask5_402_581" style="mask-type:luminance" maskUnits="userSpaceOnUse" x="38" y="212" width="13" height="22">
<path d="M38.7744 212.595H50.5286V233.16H38.7744V212.595Z" fill="white"/>
</mask>
<g mask="url(#mask5_402_581)">
<path d="M48.4623 221.067C48.4623 221.067 39.297 233.142 39.0524 232.558C38.8077 231.97 43.4123 213.391 43.7555 213.147C44.0988 212.906 49.7586 215.823 49.7586 215.823L48.4623 221.067Z" fill="#353638"/>
</g>
<mask id="mask6_402_581" style="mask-type:luminance" maskUnits="userSpaceOnUse" x="147" y="240" width="22" height="7">
<path d="M147.746 240.639H168.311V246.865H147.746V240.639Z" fill="white"/>
</mask>
<g mask="url(#mask6_402_581)">
<path d="M148.13 241.519C148.13 241.519 147.772 246.408 148.13 246.638C148.488 246.865 167.99 245.952 168.056 245.17C168.122 244.389 157.149 241.431 157.149 241.431L148.13 241.519Z" fill="#353638"/>
</g>
<path d="M128.463 210.047C127.656 207.345 126.886 204.602 125.487 202.134C124.589 200.542 123.406 199.158 122.657 197.482C122.025 196.069 121.638 194.564 121.153 193.1C119.25 187.36 115.719 182.441 112.232 177.574C110.246 174.799 108.267 172.02 106.269 169.252C104.915 167.372 103.534 165.608 101.504 164.487C105.181 159.846 108.73 155.081 111.863 150.06C111.673 149.939 111.484 149.819 111.29 149.702C107.898 154.73 104.392 159.663 100.46 164.301C100.222 164.585 100.175 165.024 100.555 165.206C103.447 166.623 105.156 169.562 106.967 172.086C108.865 174.737 110.772 177.38 112.663 180.035C114.39 182.46 116.103 184.906 117.56 187.499C119.115 190.263 120.094 193.122 121.124 196.102C122.128 198.997 124.041 201.214 125.315 203.956C126.604 206.727 127.331 209.758 128.167 212.687C128.989 215.549 130.165 217.697 131.249 220.304C131.611 220.231 131.983 220.154 132.37 220.074C131.278 216.922 129.354 213.012 128.463 210.047Z" fill="#FCF2AF"/>
<path d="M133.418 215.608C132.001 212.906 130.325 210.178 129.536 207.209C128.904 204.836 129.237 202.411 127.371 200.556C124.928 198.132 124.523 195.262 123.398 192.136C121.346 186.436 118.242 181.181 114.978 176.102C112.286 171.918 109.657 166.849 105.257 164.198C108.179 159.97 111.246 155.836 114.189 151.619C113.977 151.469 113.762 151.316 113.543 151.166C110.406 155.46 107.397 159.846 104.231 164.114C104.093 164.3 104.082 164.68 104.301 164.819C109.143 167.824 112.024 173.283 114.989 177.979C118.293 183.212 121.346 188.667 123.153 194.615C123.869 196.963 124.377 199.15 126.089 200.991C127.283 202.272 127.776 203.368 128.006 205.124C128.192 206.512 128.426 207.808 128.901 209.134C129.945 212.055 131.596 214.793 133.02 217.543C133.378 218.233 133.724 218.956 134.071 219.686C134.531 219.573 135.006 219.453 135.488 219.325C134.78 218.069 134.057 216.827 133.418 215.608Z" fill="#FCF2AF"/>
<path d="M109.737 121.406C109.737 121.406 114.481 122.294 114.871 123.323C115.266 124.349 111.147 124.788 109.737 121.406Z" fill="#D27771"/>
<path d="M137.153 84.4897C137.153 84.4897 117.814 92.9941 115.266 92.7348C115.003 92.0155 115.459 89.1819 115.003 88.3676C114.546 87.5497 134.506 78.881 135.291 79.3375C136.076 79.7939 137.953 84.1392 137.153 84.4897Z" fill="#D54180"/>
<path d="M135.576 86.6331C134.988 87.1041 134.192 87.8746 134.426 88.6852C134.499 88.9408 134.762 89.0285 134.995 88.9956C135.495 88.9226 135.784 88.269 136.138 87.9476C136.525 87.6007 136.982 87.3561 137.475 87.2064C137.767 87.1151 138.059 86.8047 138.062 86.4834C138.073 84.9753 136.076 86.2351 135.576 86.6331Z" fill="#82414A"/>
<path d="M137.131 91.4676C137.095 91.1134 136.774 90.8322 136.412 90.9235C136.007 91.0257 135.85 91.4274 135.85 91.7999C135.85 92.2782 135.835 92.8113 136.087 93.2349C136.361 93.695 136.942 93.3481 137.088 92.9866C137.27 92.5265 137.186 91.9496 137.131 91.4676Z" fill="#353638"/>
<path d="M137.96 99.574C137.449 100.012 137.168 100.9 137.16 101.557C137.157 101.911 137.31 102.309 137.723 102.324C138.132 102.338 138.402 101.966 138.464 101.604C138.508 101.367 138.53 101.126 138.606 100.896C138.701 100.622 138.811 100.359 138.873 100.071C138.986 99.5156 138.354 99.2344 137.96 99.574Z" fill="#B02E3B"/>
<path d="M135.225 127.639C135.225 127.639 133.71 116.988 132.278 114.622C132.351 114.279 133.323 115.907 133.754 116.462C134.181 117.017 136.923 124.937 135.225 127.639Z" fill="#D54180"/>
<path d="M127.9 92.7274C127.312 92.3659 126.695 92.0409 126.093 91.7123C125.79 91.5516 125.487 92.103 125.695 92.3184C126.023 92.669 126.403 92.9355 126.797 93.1948C126.666 93.2532 126.538 93.3116 126.41 93.3701C126.104 93.5088 126.188 94.0675 126.556 93.9981C126.936 93.9324 127.305 93.8703 127.674 93.7681C127.831 93.8703 127.984 93.9762 128.134 94.0821C128.375 94.2537 128.466 94.3888 128.78 94.3267C128.893 94.3012 128.974 94.177 128.992 94.0638C129.069 93.4723 128.346 93.0049 127.9 92.7274Z" fill="#D27771"/>
</g>
<g filter="url(#filter2_d_402_581)">
<path d="M277.284 116.102C277.284 116.102 273.122 133.155 270.803 137.219C269.28 138.57 262.737 144.31 262.737 144.31L255.591 136.262C255.591 136.262 261.594 132.676 262.317 130.683C263.036 128.693 262.737 117.537 262.737 117.537L277.284 116.102Z" fill="#F9AA80"/>
<mask id="mask7_402_581" style="mask-type:luminance" maskUnits="userSpaceOnUse" x="275" y="72" width="37" height="24">
<path d="M275.758 72.9377H311.148V95.3726H275.758V72.9377Z" fill="white"/>
</mask>
<g mask="url(#mask7_402_581)">
<path d="M276.083 95.066L294.417 86.5398V87.3358L303.86 93.547C303.86 93.547 310.988 78.6525 311.064 77.5352C311.145 76.4215 306.263 73.555 304.181 73.3944C302.1 73.2337 283.13 76.845 281.768 77.1919C280.406 77.5352 276.083 95.066 276.083 95.066Z" fill="#F9AA80"/>
</g>
<path d="M257.109 83.3008C257.109 83.3008 257.109 97.3226 260.155 99.2359C263.196 101.149 260.049 118.147 260.155 118.837C260.261 119.527 279.205 117.829 279.205 117.829C280.275 114.908 279.738 100.565 279.738 100.565C279.738 100.565 284.061 99.9809 284.437 100.404C284.81 100.832 285.77 76.1219 285.77 75.8079C285.77 75.4902 276.802 77.9367 276.802 77.9367C276.802 77.9367 277.923 75.9686 275.63 75.4902C273.337 75.0155 262.075 75.7568 257.109 83.3008Z" fill="#D54180"/>
<path d="M256.979 82.5048L257.139 84.8162C257.139 84.8162 262.664 81.0186 266.772 80.3249C270.88 79.6347 276.803 77.9368 276.803 77.9368C276.803 77.9368 278.059 76.0489 276.485 74.11C274.911 72.1711 256.979 82.5048 256.979 82.5048Z" fill="#B3396C"/>
<path d="M243.745 49.9625C243.475 49.9625 226.733 47.0778 226.196 46.9135C225.656 46.7492 226.013 67.6066 226.196 68.2237C226.375 68.8444 232.089 70.3671 232.133 71.1923C232.181 72.0176 229.84 76.8814 228.716 77.0457C227.591 77.21 221.336 77.3743 220.748 76.7134C220.164 76.0561 220.748 69.5857 220.748 69.5857C220.748 69.5857 212.996 38.7341 215.154 36.5031C217.316 34.2756 240.594 37.8468 240.594 37.8468L243.745 49.9625Z" fill="#F9AA80"/>
<path d="M273.282 37.6168C273.403 37.6168 287.852 36.4775 287.852 36.4775C287.852 36.4775 285.007 20.0092 284.69 19.4104C284.368 18.8152 280.125 18.6655 279.767 18.0812C279.406 17.497 278.325 11.147 279.366 10.9754C280.406 10.8038 287.892 11.2821 288.253 12.0015C288.611 12.7172 289.053 18.0812 289.053 18.0812C289.053 18.0812 298.419 41.9986 297.696 43.3935C296.977 44.7883 276.685 48.6151 276.685 48.6151L273.282 37.6168Z" fill="#F9AA80"/>
<path d="M253.152 38.336C253.152 38.336 250.669 37.6167 250.347 38.2338C246.385 38.0768 237.98 36.4007 237.618 36.4811C237.3 36.5614 236.994 50.4736 236.245 51.6421C238.487 52.3322 246.652 52.544 247.24 52.9165C247.828 53.2889 254.55 78.6778 254.017 79.8463C253.484 81.0185 256.044 84.0456 256.044 84.0456C256.044 84.0456 260.794 83.1948 264.53 79.7404C268.265 76.2898 275.258 75.4901 275.63 75.4901C276.003 75.4901 280.432 70.5532 280.593 70.0749C280.753 69.5966 276.057 68.1067 276.43 65.2914C276.802 62.4761 272.643 53.446 272.322 52.1205C272.001 50.7913 279.044 50.8972 279.044 50.8972C279.044 50.8972 275.685 37.5108 275.524 37.299C275.364 37.0872 266.505 38.095 265.811 37.9891C265.118 37.8832 257.698 38.095 257.698 38.095L253.152 38.336Z" fill="#56A4C1"/>
<path d="M253.217 35.3601C253.217 35.3601 252.896 38.7596 252.709 38.8107C252.523 38.8655 254.897 40.8592 258.953 41.6808C263.01 42.506 262.528 40.3005 260.659 39.2635C260.874 38.1754 261.356 35.7325 261.356 35.7325C261.356 35.7325 267.144 34.9876 268.265 32.4644C269.386 29.9412 269.316 20.8526 267.677 17.2413C266.037 13.6336 264.288 13.0238 264.288 13.0238C264.288 13.0238 256.591 12.4359 250.789 17.5371C244.983 22.6382 250.307 29.8499 250.307 29.8499L253.217 35.3601Z" fill="#F9AA80"/>
<path d="M251.629 24.789C251.629 24.789 253.805 25.5595 253.991 25.4244C254.177 25.2929 253.297 23.8068 253.297 23.8068C253.297 23.8068 254.338 23.9127 254.444 23.4599C254.55 23.0108 253.038 20.7505 253.038 20.7505C253.038 20.7505 254.63 21.2836 255.539 20.619C256.445 19.9544 255.832 16.6608 255.832 16.6608C255.832 16.6608 258.767 15.8648 260.286 14.7218C261.809 13.5789 264.288 13.0239 264.288 13.0239C264.288 13.0239 262.397 9.43811 255.777 11.5085C249.16 13.5789 246.119 17.8293 246.571 21.9482C247.028 26.0634 252.87 35.225 253.217 35.3601C253.936 35.3054 254.499 30.259 254.123 28.4807C253.564 28.9043 249.774 29.4118 249.321 27.0201C248.868 24.6284 251.629 24.789 251.629 24.789Z" fill="#353638"/>
<path d="M263.861 17.1135C262.47 16.6754 260.458 17.402 259.22 18.041C258.727 18.293 258.847 19.3994 259.483 19.1474C260.162 18.8736 260.841 18.6216 261.56 18.4609C262.276 18.3039 263.043 18.3624 263.733 18.1469C264.138 18.0228 264.372 17.2706 263.861 17.1135Z" fill="#353638"/>
<path d="M267.728 16.3065C267.563 16.2153 267.428 16.1751 267.242 16.1897C267.125 16.2007 267.012 16.2226 266.902 16.2664C266.614 16.3723 266.402 16.5329 266.242 16.7922C266.001 17.1793 266.274 17.6905 266.745 17.4933C266.691 17.5152 266.855 17.4677 266.873 17.4604C266.935 17.4385 266.994 17.4166 267.056 17.3983C267.078 17.3947 267.096 17.391 267.114 17.3874C267.111 17.391 267.125 17.391 267.169 17.3874C267.271 17.391 267.374 17.3837 267.472 17.3545C267.691 17.2851 267.845 17.1099 267.896 16.8871C267.939 16.7082 267.914 16.4088 267.728 16.3065Z" fill="#353638"/>
<path d="M267.889 23.847C267.619 23.1276 266.987 22.4375 266.567 21.7948C265.983 20.9002 265.391 20.0129 264.763 19.1475C264.555 18.859 264.205 19.2716 264.362 19.5272C264.924 20.4438 265.512 21.342 266.089 22.2476C266.322 22.6201 266.633 23.0217 266.823 23.4161C267.261 24.318 267.031 24.6759 266.213 25.1323C265.665 25.4354 265.939 26.4688 266.582 26.1219C267.411 25.68 268.272 24.8694 267.889 23.847Z" fill="#D27771"/>
<path d="M261.699 22.9377C261.615 22.4703 261.392 22.0175 261.195 21.5866C260.936 21.0316 260.184 21.415 260.279 21.9554C260.37 22.452 260.501 23.0326 260.808 23.4453C261.148 23.8944 261.787 23.4087 261.699 22.9377Z" fill="#353638"/>
<path d="M266.895 27.7103C266.753 27.6373 263.237 28.4662 262.021 29.5032C261.889 29.7551 263.635 31.548 265.49 30.909C267.345 30.2736 267.257 27.8965 266.895 27.7103Z" fill="white"/>
<path d="M268.692 21.572C268.604 21.1046 268.385 20.6482 268.188 20.2209C267.929 19.6623 267.173 20.053 267.272 20.5898C267.363 21.0864 267.494 21.6669 267.801 22.0796C268.141 22.5287 268.78 22.0394 268.692 21.572Z" fill="#353638"/>
<path d="M253.484 26.8594C252.794 26.2131 251.443 25.9612 250.53 26.0999C250.249 26.1437 250.274 26.6148 250.526 26.6221C250.526 26.6221 250.526 26.6221 250.526 26.6257C250.957 26.6294 251.362 26.6696 251.771 26.7682C251.622 26.9617 251.494 27.1735 251.388 27.3999C251.271 27.6518 251.633 27.8709 251.779 27.6116C251.888 27.4181 252.016 27.2355 252.166 27.0676C252.21 27.0201 252.257 26.9726 252.305 26.9288C252.648 27.053 252.98 27.2027 253.353 27.2136C253.535 27.2209 253.605 26.969 253.484 26.8594Z" fill="#D27771"/>
<path d="M279.742 100.565C279.742 100.565 263.116 100.127 262.755 100.203C262.397 100.287 267.56 101.759 270.12 102.117C272.683 102.475 266.078 104.151 265.757 104.348C265.439 104.549 279.848 104.826 279.848 104.826L279.742 100.565Z" fill="#B3396C"/>
<path d="M294.417 87.3356C294.417 87.3356 297.496 82.6763 300.38 81.1207C295.695 79.6492 293.895 85.5427 294.417 87.3356Z" fill="#D27771"/>
<path d="M279.293 16.1166C280.567 15.8391 281.812 15.4155 283.138 15.3681C283.393 15.3608 284.003 15.2658 284.196 15.4265C284.992 16.0911 283.725 16.7191 283.371 16.9309C282.75 17.2997 282.115 17.6101 281.564 18.0775C281.447 18.1761 281.494 18.4463 281.684 18.3952C282.309 18.2236 284.562 17.2303 285.029 16.1787C286.055 16.4015 287.362 16.7337 287.819 15.6785C288.169 14.8715 288.279 13.8418 288.465 12.991C288.472 12.9727 288.476 12.9508 288.48 12.9325C288.403 12.487 288.33 12.1475 288.253 12.005C288.239 11.9685 288.199 11.932 288.151 11.8992C288.06 12.3483 287.976 12.7938 287.881 13.2319C287.702 14.0828 287.691 14.9043 287.004 15.4667C286.526 15.8537 286.04 15.8574 285.507 15.8245C285.679 14.7838 285.81 13.7505 286.124 12.7317C286.26 12.2972 286.435 11.8845 286.617 11.4756C286.42 11.4391 286.212 11.4062 285.997 11.377C285.369 12.7573 285.073 14.4041 285.153 15.8063C285.139 15.8063 285.124 15.8026 285.109 15.8026C285.109 15.5726 285.003 15.3462 284.755 15.1271C284.456 14.8605 284.018 14.7984 283.576 14.8094C283.543 13.6811 283.623 12.6331 283.945 11.5413C283.985 11.4099 284.029 11.2857 284.072 11.1579C283.879 11.1396 283.682 11.125 283.484 11.1068C283.097 12.3337 282.926 13.6482 283.159 14.835C282.922 14.8569 282.692 14.8897 282.499 14.9153C282.068 14.9664 281.622 15.0248 281.18 15.1052C281.264 13.6811 281.505 12.3629 281.816 10.9972C281.6 10.9826 281.396 10.9753 281.199 10.968C280.706 12.3008 280.56 13.8162 280.738 15.1928C280.216 15.306 279.701 15.4557 279.216 15.6529C279.238 15.8099 279.267 15.9633 279.293 16.1166Z" fill="#D27771"/>
<path d="M255.591 136.262C255.591 136.262 249.427 141.042 246.867 144.31C244.304 147.574 236.085 160.059 235.712 160.431C235.34 160.804 237.049 164.788 237.206 164.788C237.366 164.788 262.737 144.31 262.737 144.31C262.737 144.31 258.392 137.482 255.591 136.262Z" fill="#56A4C1"/>
<path d="M294.417 87.3356C294.417 87.3356 290.521 95.5186 289.023 109.913C289.023 110.285 291.722 113.312 291.722 113.312C291.722 113.312 303.808 94.1821 303.859 93.5468C303.914 92.9151 294.417 87.3356 294.417 87.3356Z" fill="#56A4C1"/>
<path d="M291.722 113.312C291.722 113.312 294.895 113.659 294.683 114.295C294.468 114.934 292.759 114.959 292.759 114.959C292.759 114.959 292.759 131.957 292.281 131.588C291.799 131.216 283.901 112.462 283.689 112.038C283.473 111.614 289.024 109.913 289.024 109.913L291.722 113.312Z" fill="#B3396C"/>
<path d="M237.26 164.426C237.26 164.426 241.262 167.337 240.704 167.694C240.141 168.052 237.26 167.096 237.26 167.096C237.26 167.096 234.737 182.596 234.379 182.194C234.018 181.796 228.456 162.396 228.654 162.159C228.854 161.918 235.712 160.432 235.712 160.432L237.26 164.426Z" fill="#B3396C"/>
</g>
<defs>
<filter id="filter0_d_402_581" x="0.988281" y="9.36035" width="128.283" height="192.56" filterUnits="userSpaceOnUse" color-interpolation-filters="sRGB">
<feFlood flood-opacity="0" result="BackgroundImageFix"/>
<feColorMatrix in="SourceAlpha" type="matrix" values="0 0 0 0 0 0 0 0 0 0 0 0 0 0 0 0 0 0 127 0" result="hardAlpha"/>
<feOffset/>
<feGaussianBlur stdDeviation="5"/>
<feComposite in2="hardAlpha" operator="out"/>
<feColorMatrix type="matrix" values="0 0 0 0 0 0 0 0 0 0 0 0 0 0 0 0 0 0 0.3 0"/>
<feBlend mode="normal" in2="BackgroundImageFix" result="effect1_dropShadow_402_581"/>
<feBlend mode="normal" in="SourceGraphic" in2="effect1_dropShadow_402_581" result="shape"/>
</filter>
<filter id="filter1_d_402_581" x="29.043" y="64.8647" width="163.361" height="191.809" filterUnits="userSpaceOnUse" color-interpolation-filters="sRGB">
<feFlood flood-opacity="0" result="BackgroundImageFix"/>
<feColorMatrix in="SourceAlpha" type="matrix" values="0 0 0 0 0 0 0 0 0 0 0 0 0 0 0 0 0 0 127 0" result="hardAlpha"/>
<feOffset/>
<feGaussianBlur stdDeviation="5"/>
<feComposite in2="hardAlpha" operator="out"/>
<feColorMatrix type="matrix" values="0 0 0 0 0 0 0 0 0 0 0 0 0 0 0 0 0 0 0.3 0"/>
<feBlend mode="normal" in2="BackgroundImageFix" result="effect1_dropShadow_402_581"/>
<feBlend mode="normal" in="SourceGraphic" in2="effect1_dropShadow_402_581" result="shape"/>
</filter>
<filter id="filter2_d_402_581" x="204.774" y="0.864746" width="116.291" height="191.337" filterUnits="userSpaceOnUse" color-interpolation-filters="sRGB">
<feFlood flood-opacity="0" result="BackgroundImageFix"/>
<feColorMatrix in="SourceAlpha" type="matrix" values="0 0 0 0 0 0 0 0 0 0 0 0 0 0 0 0 0 0 127 0" result="hardAlpha"/>
<feOffset/>
<feGaussianBlur stdDeviation="5"/>
<feComposite in2="hardAlpha" operator="out"/>
<feColorMatrix type="matrix" values="0 0 0 0 0 0 0 0 0 0 0 0 0 0 0 0 0 0 0.3 0"/>
<feBlend mode="normal" in2="BackgroundImageFix" result="effect1_dropShadow_402_581"/>
<feBlend mode="normal" in="SourceGraphic" in2="effect1_dropShadow_402_581" result="shape"/>
</filter>
</defs>
</svg>
