<svg width="79" height="71" viewBox="0 0 79 71" fill="none" xmlns="http://www.w3.org/2000/svg">
<path d="M71.1 0C73.1952 0 75.2046 0.831148 76.6861 2.3106C78.1677 3.79006 79 5.79663 79 7.88889V63.1111C79 65.2034 78.1677 67.2099 76.6861 68.6894C75.2046 70.1688 73.1952 71 71.1 71H7.9C5.80479 71 3.79539 70.1688 2.31386 68.6894C0.832319 67.2099 0 65.2034 0 63.1111V7.88889C0 5.79663 0.832319 3.79006 2.31386 2.3106C3.79539 0.831148 5.80479 0 7.9 0H71.1ZM71.1 7.88889H7.9V47.7278L27.6302 28.0292C28.0888 27.5712 28.6331 27.2079 29.2323 26.9601C29.8314 26.7122 30.4735 26.5846 31.122 26.5846C31.7706 26.5846 32.4127 26.7122 33.0119 26.9601C33.611 27.2079 34.1553 27.5712 34.6138 28.0292L50.6706 44.0673L55.5607 39.1841C56.0192 38.7261 56.5636 38.3628 57.1627 38.115C57.7618 37.8671 58.404 37.7395 59.0525 37.7395C59.701 37.7395 60.3432 37.8671 60.9423 38.115C61.5414 38.3628 62.0858 38.7261 62.5443 39.1841L71.1 47.7317V7.88889ZM53.325 15.7778C54.8964 15.7778 56.4035 16.4011 57.5146 17.5107C58.6258 18.6203 59.25 20.1252 59.25 21.6944C59.25 23.2636 58.6258 24.7686 57.5146 25.8782C56.4035 26.9878 54.8964 27.6111 53.325 27.6111C51.7536 27.6111 50.2465 26.9878 49.1354 25.8782C48.0242 24.7686 47.4 23.2636 47.4 21.6944C47.4 20.1252 48.0242 18.6203 49.1354 17.5107C50.2465 16.4011 51.7536 15.7778 53.325 15.7778Z" fill="#E4E3E2"/>
</svg>
